<svg width="24" height="24" viewBox="0 0 24 24" fill="none" xmlns="http://www.w3.org/2000/svg">
<path d="M4.16047 7.90279C4.27883 7.90279 4.36337 7.90279 4.44897 7.90279C6.20318 7.90279 7.9574 7.90173 9.71162 7.90279C10.8402 7.90384 11.6465 8.70395 11.6476 9.82537C11.6487 12.0397 11.6497 14.254 11.6476 16.4693C11.6465 17.577 10.8381 18.3834 9.72747 18.3845C7.96585 18.3855 6.20318 18.3845 4.44157 18.3845C4.35703 18.3845 4.27355 18.3845 4.17527 18.3845C4.17527 19.3875 4.17527 20.3737 4.17527 21.382C4.3063 21.382 4.42889 21.3767 4.55147 21.383C4.76177 21.3947 4.90443 21.5289 4.9076 21.7392C4.915 22.2455 4.915 22.7528 4.9076 23.2602C4.90443 23.4811 4.75965 23.6227 4.53456 23.6238C3.28759 23.628 2.03956 23.628 0.792589 23.6238C0.568557 23.6227 0.425894 23.48 0.422724 23.257C0.416384 22.7581 0.416384 22.2592 0.422724 21.7604C0.425894 21.5236 0.566443 21.3915 0.806327 21.382C0.915173 21.3777 1.02402 21.3809 1.16985 21.3809C1.16985 21.2763 1.16985 21.178 1.16985 21.0807C1.16985 15.8721 1.16985 10.6635 1.16985 5.45385C1.16985 4.99936 1.26285 4.90635 1.71408 4.90635C2.37667 4.90635 3.03925 4.9053 3.70184 4.90635C4.04 4.90741 4.16153 5.03107 4.16259 5.37352C4.16047 6.20745 4.16047 7.04032 4.16047 7.90279ZM10.1607 9.38673C10.3901 9.38673 10.594 9.38673 10.8054 9.38673C10.613 8.89843 10.2315 8.6511 9.67674 8.6511C7.90667 8.64899 6.13766 8.65004 4.3676 8.6511C4.30102 8.6511 4.23445 8.65956 4.17315 8.66379C4.17315 8.91851 4.17315 9.14892 4.17315 9.40576C5.91892 9.40576 7.652 9.40576 9.38296 9.40576C9.38296 9.66788 9.38296 9.90464 9.38296 10.1572C7.63615 10.1572 5.90835 10.1572 4.17632 10.1572C4.17632 12.158 4.17632 14.1409 4.17632 16.1501C5.9242 16.1501 7.65834 16.1501 9.3893 16.1501C9.3893 16.4069 9.3893 16.6374 9.3893 16.8931C7.64354 16.8931 5.90941 16.8931 4.17949 16.8931C4.17949 17.1553 4.17949 17.392 4.17949 17.6298C4.22811 17.633 4.25875 17.6372 4.2894 17.6372C6.09856 17.6372 7.90667 17.6383 9.71584 17.6351C9.83948 17.6351 9.96735 17.6203 10.0847 17.5833C10.4323 17.4755 10.6849 17.2631 10.818 16.872C10.5739 16.872 10.3679 16.872 10.1681 16.872C10.1681 16.6173 10.1681 16.3869 10.1681 16.1311C10.4186 16.1311 10.6553 16.1311 10.8836 16.1311C10.8836 14.1218 10.8836 12.138 10.8836 10.1372C10.6331 10.1372 10.4027 10.1372 10.1629 10.1372C10.1607 9.88878 10.1607 9.65837 10.1607 9.38673ZM1.93177 5.66418C1.93177 10.9151 1.93177 16.1427 1.93177 21.3693C2.42951 21.3693 2.91033 21.3693 3.39961 21.3693C3.39961 16.129 3.39961 10.9013 3.39961 5.66418C2.9061 5.66418 2.42528 5.66418 1.93177 5.66418ZM4.14779 22.8744C4.14779 22.6175 4.14779 22.3808 4.14779 22.144C3.1481 22.144 2.1632 22.144 1.18465 22.144C1.18465 22.3977 1.18465 22.6345 1.18465 22.8744C2.17694 22.8744 3.15021 22.8744 4.14779 22.8744Z" fill="black"/>
<path d="M19.8758 21.382C19.8758 20.3705 19.8758 19.3907 19.8758 18.3845C19.7838 18.3845 19.7004 18.3845 19.6169 18.3845C17.8553 18.3845 16.0926 18.3855 14.331 18.3845C13.2045 18.3834 12.3992 17.5812 12.3992 16.4577C12.3982 14.2508 12.3982 12.0439 12.3992 9.83699C12.3992 8.69972 13.2024 7.90278 14.3468 7.90278C16.101 7.90173 17.8553 7.90278 19.6095 7.90278C19.693 7.90278 19.7775 7.90278 19.8864 7.90278C19.8864 7.7992 19.8864 7.71571 19.8864 7.63221C19.8864 6.87544 19.8853 6.11972 19.8864 5.36295C19.8864 5.0353 20.011 4.90847 20.3344 4.90741C21.0287 4.90635 21.7219 4.90635 22.4162 4.90741C22.7554 4.90741 22.8791 5.03107 22.8791 5.37246C22.8801 7.85945 22.8791 10.3475 22.8791 12.8345C22.8791 15.5794 22.8791 18.3242 22.8791 21.0691C22.8791 21.1621 22.8791 21.2551 22.8791 21.3809C23.0122 21.3809 23.1327 21.3767 23.2542 21.382C23.4793 21.3925 23.622 21.5257 23.6252 21.7487C23.6315 22.255 23.6326 22.7623 23.6241 23.2697C23.6209 23.4789 23.4762 23.6227 23.2659 23.6237C22.0104 23.628 20.755 23.629 19.5006 23.6237C19.2724 23.6227 19.1403 23.4694 19.1382 23.2253C19.1339 22.7497 19.135 22.274 19.1382 21.7984C19.1403 21.5183 19.2745 21.3873 19.5545 21.382C19.6549 21.3799 19.7553 21.382 19.8758 21.382ZM13.2404 16.8857C13.4158 17.3762 13.8121 17.6362 14.3637 17.6372C16.1412 17.6393 17.9187 17.6383 19.6961 17.6372C19.7553 17.6372 19.8145 17.6267 19.8663 17.6224C19.8663 17.3677 19.8663 17.132 19.8663 16.8783C19.6158 16.8783 19.3854 16.8783 19.154 16.8783C19.154 16.6236 19.154 16.3879 19.154 16.1343C19.4024 16.1343 19.6327 16.1343 19.8716 16.1343C19.8716 14.1335 19.8716 12.1496 19.8716 10.1403C19.6211 10.1403 19.3844 10.1403 19.1487 10.1403C19.1487 9.8835 19.1487 9.65308 19.1487 9.39624C19.3971 9.39624 19.6338 9.39624 19.8673 9.39624C19.8673 9.13307 19.8673 8.89631 19.8673 8.6585C19.8187 8.65533 19.7881 8.6511 19.7574 8.6511C17.9483 8.6511 16.1401 8.65004 14.331 8.65321C14.2073 8.65321 14.0795 8.66695 13.9622 8.70395C13.6166 8.81281 13.3609 9.0242 13.2288 9.41527C14.9703 9.41527 16.6728 9.41527 18.372 9.41527C18.372 9.66894 18.372 9.89935 18.372 10.1551C16.6252 10.1551 14.8921 10.1551 13.1633 10.1551C13.1633 12.1644 13.1633 14.1472 13.1633 16.148C14.909 16.148 16.6368 16.148 18.3699 16.148C18.3699 16.4017 18.3699 16.6374 18.3699 16.8868C16.6569 16.8857 14.9587 16.8857 13.2404 16.8857ZM22.1214 5.67158C21.6173 5.67158 21.1312 5.67158 20.6514 5.67158C20.6514 10.9161 20.6514 16.1448 20.6514 21.3693C21.1502 21.3693 21.6311 21.3693 22.1214 21.3693C22.1214 16.1332 22.1214 10.9108 22.1214 5.67158ZM22.8675 22.8702C22.8675 22.6101 22.8675 22.3787 22.8675 22.143C21.8699 22.143 20.885 22.143 19.9011 22.143C19.9011 22.3945 19.9011 22.6313 19.9011 22.8786C20.8607 22.8786 21.8023 22.8786 22.7449 22.8786C22.7819 22.8786 22.8188 22.8733 22.8675 22.8702Z" fill="black"/>
<path d="M12.0222 7.90064C9.93614 7.89747 8.27598 6.22539 8.28126 4.13264C8.2876 2.05681 9.96679 0.409035 12.0718 0.414319C14.1262 0.419604 15.7726 2.10966 15.7663 4.20557C15.761 6.23913 14.0733 7.90487 12.0222 7.90064ZM12 7.15339C13.6158 7.17452 14.9906 5.83432 15.0181 4.2098C15.0466 2.56308 13.7014 1.17743 12.0592 1.16158C10.4191 1.14572 9.05375 2.47641 9.0305 4.11573C9.0062 5.76245 10.3451 7.13119 12 7.15339Z" fill="black"/>
<path d="M13.1454 4.15698C13.1454 4.75521 13.1454 5.33018 13.1454 5.9041C13.1454 6.29094 13.0334 6.40298 12.6476 6.40298C12.2112 6.40298 11.7758 6.40509 11.3394 6.40298C11.0319 6.40192 10.9029 6.27086 10.9019 5.96118C10.8998 5.37035 10.9019 4.77951 10.9019 4.15698C10.7677 4.15698 10.6356 4.18657 10.5278 4.14958C10.401 4.10519 10.2446 4.02697 10.1939 3.91916C10.1474 3.82087 10.178 3.62111 10.2541 3.54078C10.7455 3.02076 11.2559 2.5166 11.7674 2.01561C11.9259 1.8613 12.1298 1.86552 12.2915 2.02301C12.7924 2.51343 13.2859 3.01125 13.7794 3.50801C13.8999 3.62956 13.9337 3.77648 13.8629 3.93607C13.7911 4.09567 13.6611 4.16332 13.4878 4.15803C13.3853 4.1538 13.2849 4.15698 13.1454 4.15698ZM12.3993 5.64727C12.3993 5.06066 12.3887 4.49308 12.4056 3.92762C12.4109 3.75322 12.4912 3.58094 12.5314 3.42663C12.3739 3.26069 12.1858 3.06093 12.021 2.88759C11.8361 3.06727 11.6416 3.25435 11.4989 3.39386C11.5539 3.57037 11.6384 3.72152 11.6427 3.87371C11.6585 4.46138 11.649 5.05009 11.649 5.64832C11.9058 5.64726 12.1362 5.64727 12.3993 5.64727Z" fill="black"/>
</svg>
