<svg width="24" height="24" viewBox="0 0 24 24" fill="none" xmlns="http://www.w3.org/2000/svg">
<path d="M7.45514 5.12311C7.6298 5.21855 7.8107 5.28966 7.95854 5.40443C8.12945 5.5373 8.26419 5.71632 8.43074 5.85667C8.48251 5.90034 8.59791 5.91406 8.66341 5.88849C9.11877 5.71071 9.57101 5.5242 10.0183 5.32708C10.0819 5.29901 10.1468 5.20233 10.1536 5.13184C10.1717 4.93098 10.1567 4.72701 10.1611 4.52428C10.1705 4.08389 10.4038 3.80318 10.8348 3.73582C11.602 3.61605 12.3718 3.61605 13.1384 3.73831C13.5408 3.80256 13.7784 4.08389 13.7921 4.49683C13.799 4.70704 13.8003 4.91788 13.7915 5.1281C13.7865 5.25223 13.8383 5.29589 13.9506 5.33956C14.3985 5.51422 14.8432 5.69886 15.2824 5.89535C15.3971 5.9465 15.4614 5.93589 15.5425 5.84919C15.6853 5.69511 15.8357 5.54665 15.9885 5.40256C16.2885 5.11999 16.6584 5.0888 16.9865 5.33207C17.6097 5.79492 18.1542 6.34011 18.6183 6.96202C18.8622 7.28888 18.8335 7.66003 18.5528 7.96069C18.4038 8.12038 18.2372 8.26322 18.0969 8.42977C18.0532 8.48155 18.0395 8.59695 18.065 8.66244C18.2428 9.1178 18.4293 9.57005 18.6264 10.0173C18.6545 10.0809 18.7506 10.147 18.8211 10.1533C19.0219 10.1714 19.2259 10.157 19.4286 10.1608C19.8684 10.1689 20.1503 10.4022 20.2177 10.8338C20.3375 11.6011 20.3375 12.3708 20.2152 13.1381C20.151 13.541 19.8684 13.7799 19.4573 13.7924C19.2471 13.7987 19.0357 13.7824 18.8267 13.7999C18.7556 13.8061 18.6558 13.8679 18.6283 13.9303C18.4281 14.3844 18.2391 14.8441 18.0582 15.3063C18.0351 15.3656 18.0526 15.4716 18.0937 15.5191C18.2366 15.6837 18.4019 15.8278 18.551 15.9869C18.8329 16.2876 18.8641 16.6587 18.6215 16.9856C18.1586 17.6087 17.6134 18.1533 16.9915 18.6174C16.6659 18.8607 16.2916 18.8313 15.9928 18.5513C15.8338 18.4022 15.6897 18.2356 15.5238 18.0953C15.472 18.0516 15.3566 18.0379 15.2911 18.0635C14.8432 18.2394 14.4041 18.4377 13.9549 18.6099C13.8277 18.6585 13.7865 18.7147 13.7928 18.8432C13.8015 19.0378 13.7984 19.233 13.794 19.4277C13.784 19.8674 13.5501 20.1488 13.1197 20.2161C12.3525 20.3359 11.5827 20.3359 10.8155 20.213C10.4131 20.1488 10.1748 19.8662 10.1624 19.4545C10.1561 19.2443 10.1542 19.0334 10.163 18.8232C10.168 18.6991 10.1162 18.6554 10.0039 18.6118C9.55542 18.4371 9.11128 18.2525 8.67152 18.056C8.55612 18.0048 8.49249 18.0161 8.4114 18.1028C8.26232 18.2618 8.10824 18.4171 7.94731 18.565C7.65475 18.8332 7.28548 18.8569 6.9661 18.6192C6.34357 18.1552 5.799 17.6106 5.33429 16.9887C5.09039 16.6624 5.11971 16.2919 5.40166 15.9906C5.54513 15.8372 5.69109 15.6844 5.84766 15.5446C5.95058 15.4529 5.93811 15.3812 5.88633 15.2639C5.69359 14.8316 5.51019 14.3944 5.34177 13.9521C5.29374 13.8255 5.23822 13.7824 5.1091 13.7887C4.91448 13.798 4.71924 13.7943 4.52462 13.7906C4.08548 13.7818 3.80415 13.5479 3.73616 13.1169C3.61577 12.3496 3.61639 11.5799 3.73928 10.8126C3.80228 10.419 4.07674 10.1789 4.47472 10.1608C4.69242 10.1508 4.91136 10.1514 5.12906 10.1601C5.25382 10.1651 5.29624 10.1121 5.3399 10.0005C5.51518 9.55258 5.69982 9.10782 5.89631 8.66868C5.94809 8.55266 5.93499 8.48966 5.84891 8.40919C5.69483 8.26572 5.54637 8.11601 5.40228 7.96318C5.12033 7.66315 5.09039 7.29137 5.33304 6.96513C5.79651 6.3426 6.33982 5.79554 6.9661 5.33644C7.09709 5.24038 7.2705 5.20108 7.45514 5.12311ZM10.9184 4.49122C10.9184 4.84178 10.9221 5.17613 10.9171 5.50985C10.9134 5.79367 10.8248 5.91157 10.556 5.97457C9.91347 6.12428 9.31526 6.37566 8.75199 6.71687C8.48064 6.88092 8.35651 6.86595 8.13319 6.64202C7.89741 6.40623 7.66723 6.16545 7.39776 5.88849C6.88438 6.40186 6.39659 6.88966 5.88259 7.40365C6.16891 7.67999 6.41468 7.91827 6.66169 8.15531C6.83822 8.32435 6.86941 8.50712 6.73592 8.72046C6.37787 9.29184 6.12025 9.90626 5.97117 10.565C5.91752 10.8033 5.77031 10.923 5.52267 10.9212C5.24197 10.9187 4.96127 10.9311 4.68119 10.9174C4.51526 10.9093 4.45475 10.9804 4.45101 11.1283C4.44103 11.5562 4.42544 11.9841 4.42731 12.412C4.42793 12.6166 4.46286 12.8212 4.48345 13.0345C4.85086 13.0345 5.17772 13.0308 5.50458 13.0358C5.79963 13.0401 5.91191 13.1281 5.97928 13.415C6.12711 14.0494 6.37725 14.6408 6.71409 15.1972C6.88314 15.4773 6.86754 15.5964 6.62988 15.8334C6.39846 16.0642 6.16267 16.29 5.88883 16.557C6.40158 17.0679 6.89374 17.5582 7.39651 18.0597C7.66973 17.7834 7.89242 17.5545 8.11885 17.3293C8.36587 17.0835 8.46817 17.071 8.77382 17.2538C9.31152 17.575 9.88165 17.8171 10.4905 17.9674C10.851 18.0566 10.9178 18.1396 10.9196 18.5188C10.9209 18.8288 10.9196 19.1389 10.9196 19.4614C11.5989 19.5786 12.2576 19.5711 12.9151 19.4782C12.9619 19.4713 13.0255 19.3622 13.028 19.2985C13.0405 19.0185 13.0305 18.7378 13.0349 18.4571C13.0392 18.1589 13.1241 18.046 13.4098 17.9792C14.0523 17.8295 14.6498 17.5757 15.2125 17.2338C15.4701 17.0773 15.5974 17.0935 15.8126 17.3081C16.0496 17.5438 16.2798 17.7865 16.5549 18.0684C17.0664 17.5563 17.5567 17.0648 18.0613 16.5595C17.7868 16.2894 17.5579 16.0667 17.3327 15.8409C17.0845 15.592 17.0714 15.4847 17.2498 15.1866C17.5797 14.6358 17.8274 14.0513 17.9746 13.425C18.0451 13.1244 18.1549 13.0395 18.4649 13.0364C18.7918 13.0333 19.118 13.0358 19.4629 13.0358C19.5758 12.324 19.5771 11.6323 19.4617 10.9224C19.1149 10.9224 18.788 10.9261 18.4618 10.9212C18.1536 10.9168 18.0438 10.8295 17.9734 10.5288C17.828 9.91001 17.5847 9.33239 17.2597 8.78782C17.0676 8.46595 17.0795 8.36927 17.3521 8.0973C17.576 7.87398 17.8024 7.65379 18.0657 7.39554C17.5498 6.88217 17.062 6.39562 16.5499 5.88599C16.2866 6.15921 16.0683 6.39125 15.8438 6.61831C15.5886 6.87593 15.4851 6.88591 15.1701 6.69691C14.633 6.37441 14.0616 6.13426 13.4522 5.98704C13.1116 5.90471 13.0361 5.80864 13.0342 5.44934C13.0324 5.13309 13.0336 4.81683 13.0336 4.48997C12.3113 4.38268 11.6251 4.37395 10.9184 4.49122Z" fill="black"/>
<path d="M18.914 2.66478C18.8679 2.51133 18.8286 2.4109 18.8086 2.30735C18.7674 2.09153 18.8635 1.92934 19.0581 1.86759C19.2496 1.80646 19.4361 1.88069 19.5135 2.08529C19.7274 2.65231 19.9364 3.22182 20.1279 3.79632C20.2196 4.07203 20.0056 4.29909 19.6925 4.2548C19.1922 4.18307 18.6963 4.08388 18.1985 3.99593C18.1068 3.97971 18.0133 3.96724 17.9247 3.93979C17.7232 3.87616 17.6109 3.69652 17.6477 3.51188C17.687 3.31414 17.8698 3.18626 18.0825 3.20934C18.1592 3.21745 18.2353 3.22993 18.3114 3.23991C18.3308 3.21683 18.3501 3.19437 18.3694 3.17129C18.3233 3.15195 18.2721 3.1401 18.2328 3.11203C16.8387 2.13769 15.3054 1.50704 13.6206 1.25878C10.8179 0.84521 8.24111 1.44092 5.88321 3.00287C5.72602 3.10704 5.57319 3.18689 5.38731 3.07835C5.12594 2.9249 5.13467 2.60053 5.41039 2.40965C6.16267 1.89004 6.96735 1.46587 7.8213 1.13963C9.36204 0.550785 10.9602 0.292539 12.6057 0.38673C14.817 0.513358 16.8374 1.21075 18.6545 2.48513C18.7263 2.53566 18.7999 2.58556 18.914 2.66478Z" fill="black"/>
<path d="M5.0531 21.3414C5.0818 21.4269 5.11735 21.5111 5.13794 21.599C5.18721 21.8124 5.08117 22.0057 4.88905 22.0656C4.70503 22.123 4.50605 22.04 4.43182 21.8429C4.22347 21.2903 4.02012 20.7357 3.83111 20.1762C3.73505 19.893 3.93217 19.6578 4.24094 19.6965C4.657 19.7489 5.0687 19.8344 5.48226 19.9061C5.63571 19.9323 5.78916 19.956 5.94199 19.9859C6.18963 20.0346 6.33747 20.213 6.30815 20.4201C6.27634 20.6453 6.08484 20.7682 5.82222 20.7339C5.76109 20.7257 5.69934 20.7232 5.63821 20.7189C5.62074 20.7388 5.6039 20.7588 5.58644 20.7788C5.6326 20.8006 5.68312 20.8156 5.72429 20.8443C7.11844 21.8174 8.6517 22.4468 10.3359 22.6944C13.1467 23.108 15.7304 22.5073 18.0933 20.9366C18.3459 20.7688 18.5511 20.7887 18.6877 20.9859C18.82 21.1761 18.7682 21.3913 18.5424 21.5441C16.8538 22.69 14.9974 23.3687 12.9595 23.5328C10.1076 23.7623 7.51953 23.035 5.18597 21.3863C5.15478 21.3645 5.11985 21.347 5.08616 21.3289C5.08242 21.3277 5.07431 21.3339 5.0531 21.3414Z" fill="black"/>
<path d="M20.1996 20.0015C20.0986 19.9204 19.9551 19.8593 19.9146 19.757C19.8703 19.646 19.8728 19.4613 19.9395 19.3702C20.2826 18.8993 20.6481 18.4446 21.0155 17.9923C21.144 17.8345 21.3224 17.8152 21.4996 17.9168C21.6674 18.0129 21.7491 18.2431 21.6306 18.4034C21.2601 18.9018 20.869 19.3852 20.476 19.8662C20.4236 19.9304 20.3144 19.9472 20.1996 20.0015Z" fill="black"/>
<path d="M2.71725 6.08995C2.36482 6.09681 2.15772 5.77869 2.333 5.53603C2.68669 5.04449 3.06907 4.57292 3.45831 4.10945C3.58805 3.95475 3.78205 3.97097 3.94423 4.09635C4.09581 4.21362 4.13137 4.44005 4.00973 4.59974C3.65542 5.06258 3.29425 5.52044 2.9256 5.97143C2.86758 6.04067 2.7578 6.0675 2.71725 6.08995Z" fill="black"/>
<path d="M22.502 9.2887C22.5001 9.07662 22.603 8.93938 22.8026 8.89946C23.0047 8.85892 23.1794 8.94749 23.2237 9.14461C23.3347 9.64488 23.4252 10.1501 23.5038 10.6573C23.535 10.8594 23.3753 11.0234 23.1813 11.0459C22.9542 11.0721 22.7945 10.9392 22.7484 10.686C22.6704 10.2581 22.5924 9.82952 22.5145 9.40161C22.5076 9.36356 22.5057 9.32426 22.502 9.2887Z" fill="black"/>
<path d="M1.45057 14.7044C1.45057 14.8803 1.3439 15.015 1.14554 15.0537C0.943431 15.093 0.770643 15.0013 0.726979 14.8054C0.616569 14.3058 0.52425 13.8012 0.451267 13.2953C0.423197 13.1 0.544834 12.9497 0.752554 12.9154C0.953411 12.8823 1.1262 12.9578 1.16924 13.1618C1.27528 13.662 1.35513 14.1679 1.45057 14.7044Z" fill="black"/>
<path d="M1.66145 6.97137C1.99766 6.96389 2.18854 7.18658 2.10433 7.43734C1.94464 7.91391 1.76749 8.38549 1.57474 8.84958C1.50051 9.02861 1.33146 9.10845 1.12874 9.03734C0.932868 8.9681 0.81934 8.8134 0.882966 8.62252C1.04889 8.12412 1.23727 7.63196 1.43938 7.14666C1.47743 7.05371 1.61903 7.00319 1.66145 6.97137Z" fill="black"/>
<path d="M22.2843 16.9837C21.9456 16.9818 21.7653 16.7541 21.8514 16.5027C22.0117 16.0343 22.1858 15.5702 22.3735 15.1123C22.4478 14.9314 22.6099 14.8485 22.8145 14.9108C23.0117 14.9713 23.1358 15.1448 23.069 15.3419C22.9037 15.8328 22.721 16.3181 22.5207 16.7953C22.4796 16.8951 22.3311 16.9487 22.2843 16.9837Z" fill="black"/>
<path d="M0.367188 11.4476C0.40711 11.0684 0.438299 10.6885 0.490696 10.3111C0.527499 10.0447 0.719 9.89377 0.930462 9.93245C1.16126 9.97487 1.2698 10.1745 1.23674 10.4496C1.19245 10.8201 1.16001 11.1925 1.1307 11.5649C1.10575 11.8849 0.979117 12.0358 0.728357 12.0234C0.489449 12.0109 0.374673 11.8537 0.377792 11.5424C0.377792 11.5112 0.377792 11.4801 0.377792 11.4489C0.374049 11.4489 0.370306 11.4482 0.367188 11.4476Z" fill="black"/>
<path d="M23.586 12.4956C23.5486 12.8673 23.5174 13.2397 23.4712 13.6096C23.4357 13.8922 23.2504 14.0563 23.0327 14.0213C22.7944 13.9833 22.6859 13.7812 22.7215 13.488C22.7664 13.1175 22.7982 12.7451 22.8275 12.3727C22.8512 12.0701 22.9753 11.9217 23.2199 11.9292C23.4606 11.9366 23.581 12.0957 23.5779 12.4007C23.5773 12.4319 23.5779 12.4631 23.5779 12.4943C23.5798 12.4949 23.5829 12.4949 23.586 12.4956Z" fill="black"/>
<path d="M11.9494 7.54651C14.3547 7.5515 16.3402 9.42783 16.4063 11.9067C16.4706 14.3145 14.4901 16.3537 12.0405 16.4048C9.62145 16.4554 7.60352 14.4911 7.54987 12.0334C7.49685 9.60998 9.46551 7.60203 11.9494 7.54651ZM11.9669 8.31501C9.9059 8.33372 8.3034 9.9568 8.31588 12.0147C8.32773 14.0507 9.98512 15.6607 12.0461 15.6376C14.0453 15.6151 15.664 13.954 15.6391 11.9485C15.6141 9.91127 13.9823 8.29629 11.9669 8.31501Z" fill="black"/>
</svg>
