<svg width="24" height="24" viewBox="0 0 24 24" fill="none" xmlns="http://www.w3.org/2000/svg">
<path d="M23.0539 24C16.3218 24 9.58973 24 2.85848 24C2.81573 23.9849 2.77297 23.9631 2.72855 23.9547C1.42589 23.694 0.561636 22.9346 0.138313 21.6764C0.0846646 21.5163 0.0461045 21.3512 0 21.1894C0 15.0511 0 8.91283 0 2.77536C0.0150887 2.74099 0.0368836 2.70746 0.0444279 2.67142C0.30429 1.37552 1.06208 0.501258 2.32702 0.145852C2.83249 0.0033538 3.39077 0.0293387 3.92559 0.0167654C4.6993 -0.00167554 5.19891 0.509641 5.19975 1.28332C5.20059 2.6337 5.19975 3.98407 5.19975 5.33445C5.19975 5.41744 5.19975 5.50042 5.19975 5.58676C5.28525 5.59179 5.33974 5.59682 5.39339 5.59682C8.71123 5.59765 12.0291 5.59849 15.3469 5.59095C15.4534 5.59095 15.585 5.52389 15.6629 5.44594C17.3403 3.77871 19.0118 2.10394 20.685 0.432524C21.2617 -0.143335 21.9625 -0.144173 22.5434 0.430009C22.8879 0.770328 23.2299 1.11232 23.5703 1.45683C24.1437 2.03688 24.1437 2.73764 23.5678 3.31601C22.8796 4.00754 22.188 4.69656 21.4981 5.38642C21.4419 5.44258 21.3883 5.50126 21.2978 5.59765C21.8192 5.59765 22.2794 5.59262 22.7387 5.59849C23.4839 5.60939 23.9894 6.11735 23.9894 6.85331C23.9903 12.1542 23.9903 17.4543 23.9886 22.7552C23.9886 22.8634 23.9802 22.974 23.9567 23.0788C23.8478 23.5725 23.4948 23.8298 23.0539 24ZM5.19975 6.43085C5.19975 6.53479 5.19975 6.62699 5.19975 6.71836C5.19975 10.2012 5.20059 13.6832 5.19891 17.166C5.19891 17.8189 4.79235 18.3076 4.14437 18.3881C3.78979 18.4317 3.42766 18.4065 3.06888 18.4183C1.55917 18.4669 0.466074 19.9958 0.906163 21.4417C1.2356 22.5264 2.1929 23.2003 3.41592 23.2012C6.914 23.2029 10.4129 23.202 13.911 23.202C16.8239 23.202 19.7361 23.202 22.649 23.202C23.0397 23.202 23.1922 23.0629 23.1922 22.6957C23.1931 17.4325 23.1931 12.1702 23.1922 6.90696C23.1922 6.55574 23.0489 6.41995 22.6893 6.41911C22.0338 6.41744 21.3774 6.42414 20.7219 6.41492C20.545 6.41241 20.4184 6.46186 20.2918 6.58927C19.1216 7.77117 17.9422 8.94384 16.7703 10.1241C16.5155 10.3814 16.2271 10.5851 15.8683 10.6295C15.2262 10.7083 14.5816 10.7972 13.9361 10.8064C12.1875 10.8307 10.4381 10.8148 8.6886 10.8148C8.59807 10.8148 8.50753 10.8231 8.4103 10.8282C8.4103 12.2934 8.4103 13.7334 8.4103 15.1852C11.6066 15.1852 14.7878 15.1852 17.9942 15.1852C17.9942 15.0914 17.9942 15.0075 17.9942 14.9237C17.9942 14.3537 17.9908 13.7837 17.9958 13.2137C17.9975 12.9723 18.1626 12.8089 18.3865 12.8055C18.612 12.8022 18.7763 12.9623 18.7905 13.2012C18.793 13.2481 18.7922 13.2951 18.7922 13.342C18.7922 15.2548 18.793 17.1685 18.7922 19.0813C18.7922 19.7058 18.4829 20.0126 17.8558 20.0126C15.2866 20.0134 12.7173 20.0134 10.1489 20.0117C10.0566 20.0117 9.95941 20.0067 9.87306 19.979C9.67775 19.9162 9.58722 19.7712 9.60398 19.5666C9.61991 19.3705 9.73308 19.2531 9.92252 19.2154C10.0055 19.1987 10.0927 19.1978 10.1782 19.1978C10.9435 19.1961 11.7089 19.197 12.4742 19.197C12.5731 19.197 12.672 19.197 12.7827 19.197C12.7827 18.1257 12.7827 17.083 12.7827 16.0302C11.3216 16.0302 9.8672 16.0302 8.39772 16.0302C8.39772 16.1433 8.39772 16.2364 8.39772 16.3294C8.39772 18.0159 8.39772 19.7024 8.39772 21.3889C8.39772 21.4744 8.40024 21.5616 8.39102 21.6463C8.36838 21.8516 8.22169 21.9891 8.02134 21.9992C7.81345 22.0101 7.63658 21.8751 7.60305 21.6697C7.58964 21.5859 7.5955 21.4987 7.5955 21.4124C7.5955 17.9849 7.5955 14.5566 7.5955 11.1291C7.5955 11.0302 7.5955 10.9313 7.5955 10.8156C7.44797 10.8156 7.33229 10.8164 7.21577 10.8156C6.93495 10.8131 6.6533 10.8231 6.37332 10.8039C6.13776 10.7879 5.99861 10.6194 6.00196 10.4015C6.00448 10.1903 6.15788 10.0268 6.38421 10.0025C6.46133 9.99413 6.54013 9.99916 6.61809 9.99916C8.72632 9.99916 10.8346 9.99916 12.9428 9.99916C13.0325 9.99916 13.1222 9.99916 13.1708 9.99916C13.2395 9.34535 13.2907 8.73177 13.3745 8.12322C13.4198 7.79212 13.5991 7.51383 13.8422 7.27829C14.118 7.0109 14.3863 6.73596 14.6889 6.43336C11.4934 6.43085 8.35832 6.43085 5.19975 6.43085ZM0.798027 18.6605C0.872632 18.5943 0.91203 18.5616 0.948914 18.5256C1.42253 18.0553 1.99004 17.7477 2.6464 17.6521C3.07559 17.5901 3.51735 17.6086 3.95325 17.5918C4.2391 17.5809 4.38076 17.4468 4.39837 17.1618C4.40172 17.1073 4.39921 17.0528 4.39921 16.9975C4.39921 11.7988 4.39921 6.60017 4.39921 1.40151C4.39921 1.3311 4.4034 1.25985 4.39418 1.19112C4.36316 0.969825 4.23491 0.81643 4.0136 0.81643C3.57016 0.817268 3.11499 0.792122 2.6858 0.880973C1.53402 1.11819 0.799703 2.08969 0.799703 3.31182C0.797188 8.34702 0.798865 13.3814 0.798865 18.4166C0.798027 18.4828 0.798027 18.5499 0.798027 18.6605ZM16.4006 9.29757C17.8416 7.85918 19.2817 6.42163 20.6833 5.02179C20.1175 4.45516 19.5424 3.8793 18.9917 3.32858C17.5767 4.7435 16.1382 6.18189 14.7115 7.60855C15.2681 8.16597 15.8398 8.73764 16.4006 9.29757ZM13.6067 19.1752C15.0728 19.1752 16.5264 19.1752 17.9791 19.1752C17.9791 18.1132 17.9791 17.0712 17.9791 16.0226C16.5155 16.0226 15.0661 16.0226 13.6067 16.0226C13.6067 17.0805 13.6067 18.1224 13.6067 19.1752ZM22.4973 3.25566C22.6935 3.05532 22.8913 2.86756 23.0724 2.66471C23.2375 2.4803 23.2358 2.27745 23.0623 2.09891C22.6826 1.70746 22.2944 1.32272 21.9047 0.941325C21.7462 0.786254 21.5484 0.751049 21.3782 0.901091C21.1586 1.09472 20.9658 1.31769 20.7646 1.52473C21.3363 2.0964 21.9047 2.66304 22.4973 3.25566ZM19.6338 2.67058C20.2013 3.23973 20.7713 3.8114 21.338 4.37888C21.5132 4.20788 21.7001 4.02431 21.8787 3.84996C21.3028 3.27326 20.7319 2.70243 20.1653 2.13412C19.9909 2.30847 19.8065 2.49539 19.6338 2.67058ZM15.647 9.85163C15.1508 9.35792 14.6453 8.85499 14.1524 8.36463C14.1071 8.7653 14.0501 9.21123 14.0107 9.65884C13.9898 9.89438 14.0937 10.0101 14.3167 9.99162C14.7777 9.9539 15.2379 9.89606 15.647 9.85163Z" fill="black"/>
<path d="M0 21.1886C0.0461045 21.3512 0.0846646 21.5163 0.138313 21.6756C0.562475 22.9338 1.42672 23.6932 2.72855 23.9539C2.77297 23.9631 2.81489 23.9841 2.85848 23.9992C1.90956 23.9992 0.96065 23.9992 0 23.9992C0 23.0629 0 22.1257 0 21.1886Z" fill="white"/>
<path d="M15.6467 9.85163C15.2368 9.89606 14.7775 9.95389 14.3164 9.99161C14.0934 10.0101 13.9895 9.89438 14.0105 9.65884C14.0507 9.21123 14.1077 8.76529 14.1521 8.36462C14.645 8.85498 15.1513 9.35792 15.6467 9.85163Z" fill="white"/>
</svg>
