<svg width="24" height="24" viewBox="0 0 24 24" fill="none" xmlns="http://www.w3.org/2000/svg">
<path d="M18.6976 15.9899C18.9155 17.2686 18.7957 18.4936 18.3381 19.6846C18.0907 20.3268 17.7343 20.9209 17.2923 21.4754C16.7616 22.1416 16.0939 22.6678 15.3624 23.1375C15.3484 23.1459 15.3344 23.1544 15.3204 23.1615C13.5462 24.0965 11.6817 24.2422 9.75812 23.6354C9.11381 23.4317 8.51463 23.1092 7.98859 22.7074C6.50853 21.5773 5.62299 20.1359 5.3055 18.4045C5.1592 17.6081 5.1701 16.8089 5.29927 15.9899C5.19811 15.9899 5.10784 15.9899 5.01758 15.9899C4.03398 15.9899 3.05039 15.9645 2.06835 15.997C0.919791 16.0338 0.0715978 15.1228 0.00778875 14.1737C0.00156348 14.0831 0.00467612 13.9926 0.00467612 13.9007C0.00467612 9.95559 0.00934511 6.01192 7.20367e-06 2.06683C-0.00154911 1.38221 0.249018 0.809329 0.803067 0.359513C1.08787 0.127533 1.45361 0.0313457 1.83646 0.00305535C1.90338 -0.00118819 1.97031 0.000226323 2.03567 0.000226323C8.68271 0.000226323 15.3313 -0.00118819 21.9783 0.00305535C22.1838 0.00305535 22.3923 0.0341747 22.5931 0.0794392C23.3868 0.257668 23.986 1.09648 23.9953 1.87305C24.0031 2.60011 23.9984 3.32717 23.9984 4.05423C23.9984 7.35571 23.9953 10.6558 24 13.9573C24.0015 14.7253 23.6716 15.3435 22.9682 15.7537C22.7114 15.9036 22.3581 15.9715 22.0468 15.98C21.0321 16.0069 20.0143 15.9899 18.998 15.9899C18.9062 15.9899 18.8159 15.9899 18.6976 15.9899ZM1.96719 13.5796C1.96719 13.5117 1.96408 13.4735 1.96719 13.4367C2.09637 11.9515 2.23799 10.4662 2.34694 8.97957C2.39051 8.38265 2.70333 7.98517 3.28695 7.77016C3.92971 7.53252 4.58959 7.33732 5.23857 7.11383C5.37397 7.06715 5.43467 7.1011 5.48759 7.21001C5.75527 7.76168 6.02452 8.31334 6.29687 8.86217C6.45717 9.18468 6.62681 9.50436 6.80734 9.85516C7.25556 8.94987 7.68511 8.0856 8.10998 7.21992C8.16757 7.10251 8.23449 7.06573 8.37767 7.11666C8.87569 7.29347 9.38149 7.45614 9.88107 7.63012C10.1099 7.70934 10.334 7.80128 10.5565 7.89322C10.9861 8.07287 11.1775 8.41235 11.2335 8.80983C11.2958 9.24409 11.3098 9.684 11.3487 10.1225C11.3565 10.2159 11.3736 10.3092 11.3845 10.3884C11.4234 10.4026 11.4312 10.4082 11.4389 10.4082C11.5635 10.4082 11.688 10.4082 11.8125 10.4054C13.1416 10.37 14.357 10.6756 15.4729 11.3475C16.0674 11.7053 16.5935 12.124 17.037 12.6205C17.3483 12.9685 17.6144 13.3547 17.8463 13.7507C18.1093 14.202 18.3116 14.6815 18.5529 15.1737C19.6127 15.1737 20.7115 15.1582 21.8103 15.1794C22.7051 15.1964 23.1954 14.7112 23.1954 13.9162C23.1985 9.96408 23.1923 6.01192 23.2016 2.05976C23.2032 1.33977 22.6538 0.756992 21.7822 0.759821C15.2597 0.77821 8.73718 0.769723 2.21465 0.769723C2.12283 0.769723 2.02633 0.755578 1.94074 0.775381C1.77732 0.813573 1.60924 0.851765 1.46139 0.923905C0.913566 1.19266 0.796842 1.65238 0.796842 2.17292C0.801511 6.05718 0.798398 9.94003 0.799955 13.8243C0.799955 13.9007 0.798398 13.9756 0.803067 14.052C0.851313 14.6815 1.20927 15.0634 1.83646 15.1596C1.86136 15.1638 1.88627 15.1681 1.91117 15.1681C3.10175 15.1681 4.29233 15.1681 5.46269 15.1681C5.70391 14.6334 5.94047 14.1143 6.18326 13.5782C4.77946 13.5796 3.38344 13.5796 1.96719 13.5796ZM17.9988 17.3054C17.9864 16.1073 17.7187 15.0804 17.1569 14.1242C16.7071 13.3589 16.0892 12.7139 15.3313 12.1877C14.5734 11.6629 13.6894 11.3814 12.7649 11.2301C12.1735 11.1339 11.5743 11.1678 10.9689 11.2923C10.0367 11.4819 9.20563 11.81 8.46171 12.356C7.89988 12.7676 7.44232 13.2514 7.06258 13.8045C6.22839 15.0196 5.90468 16.345 6.04008 17.7651C6.21439 19.5856 7.0797 21.0808 8.67493 22.1982C9.36126 22.6792 10.1659 22.9734 11.0141 23.1261C11.8016 23.2676 12.586 23.2421 13.3735 23.0342C14.1625 22.8249 14.8753 22.5137 15.5196 22.0483C16.1126 21.6197 16.5872 21.1119 16.9826 20.5305C17.6782 19.5036 17.9693 18.3804 17.9988 17.3054ZM4.99735 8.06863C4.74989 8.15067 4.52422 8.22281 4.30167 8.29778C4.07134 8.37558 3.84567 8.46327 3.61378 8.53683C3.26516 8.64716 3.18268 8.73628 3.15466 9.07152C3.07218 10.0588 2.98814 11.0462 2.90721 12.0335C2.88698 12.2867 2.87141 12.5399 2.85585 12.786C2.89632 12.7988 2.91188 12.8073 2.92744 12.8073C4.17561 12.8087 5.42533 12.8115 6.6735 12.8058C6.73731 12.8058 6.81824 12.7563 6.86337 12.7068C7.48746 12.0363 8.19402 11.4507 9.06089 11.0533C9.53557 10.8354 10.0429 10.677 10.569 10.4804C10.5254 9.97822 10.4911 9.44353 10.4227 8.91168C10.4087 8.79993 10.2888 8.64999 10.1752 8.60614C9.66941 8.41094 9.14805 8.24827 8.60956 8.06721C8.01193 9.26106 7.42209 10.4408 6.80423 11.6771C6.18637 10.4464 5.59964 9.27238 4.99735 8.06863Z" fill="black"/>
<path d="M9.60919 4.44608C9.55783 5.34712 9.21388 6.17179 8.30032 6.74891C7.39299 7.32179 6.42029 7.343 5.50517 6.87621C4.39707 6.31041 3.87882 5.22689 4.02667 4.0005C4.10293 3.37387 4.4033 2.83919 4.83596 2.35542C5.51607 1.59583 7.16888 1.33838 8.06376 1.85468C9.08315 2.44312 9.57495 3.29466 9.60919 4.44608ZM8.80301 4.29755C8.74543 3.59029 8.43728 2.93396 7.60932 2.56053C7.01636 2.29318 6.43741 2.34552 5.86313 2.61852C5.52696 2.77836 5.27951 3.02732 5.10987 3.31729C4.73168 3.96656 4.71456 4.63138 5.03672 5.32166C5.38067 6.06004 6.58993 6.61877 7.43657 6.28636C8.28476 5.95395 8.79679 5.15475 8.80301 4.29755Z" fill="black"/>
<path d="M21.5855 2.37659C21.5855 2.64817 21.5855 2.90279 21.5855 3.1673C18.5289 3.1673 15.4863 3.1673 12.4219 3.1673C12.4219 2.91127 12.4219 2.651 12.4219 2.37659C15.4691 2.37659 18.518 2.37659 21.5855 2.37659Z" fill="black"/>
<path d="M12.418 7.5976C15.4715 7.5976 18.5156 7.5976 21.5785 7.5976C21.5785 7.85362 21.5785 8.11389 21.5785 8.38831C18.5327 8.38831 15.4824 8.38831 12.418 8.38831C12.418 8.13228 12.418 7.87908 12.418 7.5976Z" fill="black"/>
<path d="M12.4082 5.57203C12.4082 5.30469 12.4082 5.05573 12.4082 4.78839C15.0602 4.78839 17.709 4.78839 20.3781 4.78839C20.3781 5.03735 20.3781 5.29762 20.3781 5.57203C17.7308 5.57203 15.0804 5.57203 12.4082 5.57203Z" fill="black"/>
<path d="M7.61577 19.5828C7.74183 19.5828 7.85544 19.5828 7.99707 19.5828C7.99707 19.3225 7.99707 19.0764 7.99707 18.8161C8.13714 18.8161 8.25075 18.8161 8.38304 18.8161C8.38304 17.8741 8.38304 16.9476 8.38304 15.9956C8.13403 15.9956 7.8819 15.9956 7.60177 15.9956C7.60177 15.7311 7.59398 15.4906 7.60799 15.2516C7.6111 15.2006 7.67647 15.137 7.7325 15.1073C8.21651 14.847 8.70519 14.5966 9.18921 14.3364C9.83508 13.9898 10.4778 13.6362 11.1222 13.2882C11.4179 13.1284 11.7167 12.8554 12.017 12.8539C12.305 12.8525 12.5944 13.1354 12.8855 13.2896C13.3773 13.5513 13.8737 13.8073 14.3655 14.0704C15.0114 14.417 15.6542 14.7664 16.2954 15.1214C16.3467 15.1497 16.3903 15.2247 16.3934 15.2798C16.4043 15.5062 16.3981 15.7325 16.3981 15.9829C16.1319 15.9829 15.8798 15.9829 15.6121 15.9829C15.6121 16.9348 15.6121 17.8599 15.6121 18.802C15.7366 18.802 15.8503 18.802 15.9903 18.802C15.9903 19.0623 15.9903 19.3084 15.9903 19.5687C16.1351 19.5757 16.2549 19.5814 16.3856 19.587C16.3856 19.8558 16.3856 20.109 16.3856 20.3792C13.4644 20.3792 10.5479 20.3792 7.61577 20.3792C7.61577 20.1246 7.61577 19.8699 7.61577 19.5828ZM9.21722 15.9998C9.21722 16.9447 9.21722 17.8698 9.21722 18.7893C9.48802 18.7893 9.74015 18.7893 9.9876 18.7893C9.9876 17.85 9.9876 16.9306 9.9876 15.9998C9.7277 15.9998 9.4818 15.9998 9.21722 15.9998ZM11.5828 18.7977C11.5828 17.8528 11.5828 16.9278 11.5828 16.0083C11.312 16.0083 11.0599 16.0083 10.8124 16.0083C10.8124 16.9476 10.8124 17.867 10.8124 18.7977C11.0724 18.7977 11.3198 18.7977 11.5828 18.7977ZM13.1952 16.0097C12.9353 16.0097 12.6769 16.0097 12.4155 16.0097C12.4155 16.9433 12.4155 17.8698 12.4155 18.7921C12.6847 18.7921 12.9384 18.7921 13.1952 18.7921C13.1952 17.8585 13.1952 16.9433 13.1952 16.0097ZM14.0169 15.9998C14.0169 16.9447 14.0169 17.8698 14.0169 18.7893C14.2877 18.7893 14.5398 18.7893 14.7873 18.7893C14.7873 17.85 14.7873 16.9306 14.7873 15.9998C14.5274 15.9998 14.2799 15.9998 14.0169 15.9998Z" fill="black"/>
</svg>
