<svg width="22" height="24" viewBox="0 0 22 24" fill="none" xmlns="http://www.w3.org/2000/svg">
<path d="M10.8404 0.0336304C11.1029 0.0946753 11.3673 0.147 11.6267 0.218011C13.6706 0.777382 15.1539 2.55391 15.3316 4.65872C15.3591 4.98388 15.3597 5.31152 15.3641 5.63793C15.3659 5.75566 15.384 5.82916 15.51 5.88896C15.8884 6.06898 16.0761 6.38293 16.0761 6.80526C16.0761 7.18648 16.0774 7.56832 16.0755 7.94954C16.073 8.56186 15.6727 8.96924 15.0554 8.9873C14.9251 8.99104 14.7942 8.98792 14.6751 8.98792C14.6296 9.41648 14.6121 9.82137 14.5391 10.2151C14.3708 11.1214 13.9287 11.8888 13.2684 12.5279C13.1587 12.6344 13.11 12.7391 13.1125 12.8917C13.1206 13.39 13.1238 13.8883 13.1113 14.3867C13.1069 14.5555 13.168 14.6308 13.3183 14.6944C14.7493 15.3011 16.1759 15.9178 17.6069 16.5257C18.4249 16.8733 19.0559 17.4265 19.4812 18.2063C19.5435 18.3216 19.6115 18.3558 19.7343 18.3527C20.0461 18.3452 20.3579 18.3471 20.6696 18.3515C21.2532 18.3596 21.6847 18.7912 21.6866 19.3755C21.6903 20.5591 21.6897 21.7426 21.6866 22.9261C21.6847 23.526 21.2545 23.952 20.6522 23.9527C18.766 23.9545 16.8799 23.9539 14.9943 23.9527C14.3889 23.952 13.9518 23.5471 13.9449 22.9373C13.9312 21.7463 13.9306 20.5547 13.9456 19.3637C13.953 18.7576 14.3945 18.3521 15.0006 18.3508C16.146 18.3484 17.292 18.3502 18.4374 18.3502C18.5228 18.3502 18.6083 18.3502 18.7454 18.3502C18.6407 18.2113 18.5758 18.0842 18.4754 18.0008C18.1786 17.7529 17.8981 17.4582 17.5564 17.2975C16.545 16.8204 15.5075 16.3987 14.4625 15.947C14.4082 16.0299 14.3552 16.1034 14.3091 16.1819C13.746 17.1412 13.1849 18.1011 12.6224 19.0603C12.4154 19.4129 12.2196 19.444 11.9154 19.1743C11.5263 18.8292 11.1391 18.4823 10.7064 18.0967C10.8404 18.8018 10.9626 19.4472 11.0867 20.0925C11.3024 21.2137 11.5201 22.3343 11.7358 23.4549C11.7869 23.7216 11.6909 23.9041 11.482 23.9483C11.2632 23.9944 11.0911 23.8549 11.0381 23.5802C10.8928 22.8252 10.7512 22.0696 10.606 21.3146C10.4632 20.5759 10.3173 19.8371 10.1383 19.0933C10.0604 19.4864 9.98058 19.8795 9.90451 20.2731C9.69563 21.3557 9.48862 22.439 9.27974 23.5216C9.2654 23.5976 9.25105 23.6767 9.21863 23.7452C9.1382 23.914 8.99416 23.9888 8.81459 23.9414C8.62566 23.8916 8.52278 23.7508 8.55458 23.5546C8.61381 23.1865 8.68801 22.8215 8.7591 22.4552C9.0297 21.0605 9.30218 19.6658 9.57279 18.2705C9.57965 18.2356 9.57342 18.1976 9.57342 18.1185C9.17561 18.4736 8.80461 18.8031 8.43611 19.1345C8.07946 19.4559 7.90113 19.4285 7.65546 19.0086C7.40792 18.5857 7.15789 18.1646 6.91285 17.7404C6.76632 17.4875 6.79999 17.2894 7.00263 17.176C7.1953 17.0677 7.3755 17.1362 7.52078 17.3791C7.72467 17.7192 7.92607 18.0612 8.12871 18.4019C8.13246 18.4082 8.13994 18.4125 8.15864 18.4306C8.63127 18.0082 9.10453 17.5847 9.59836 17.143C9.2841 16.9007 8.98356 16.669 8.68303 16.4373C8.25778 16.109 7.83504 15.7764 7.40293 15.4574C7.33933 15.4101 7.21712 15.3952 7.14106 15.4207C6.93779 15.4898 6.74449 15.5895 6.53187 15.6836C6.6385 15.8679 6.73888 16.0324 6.83116 16.2018C6.94465 16.4099 6.90412 16.6055 6.73327 16.712C6.5537 16.8241 6.34918 16.7643 6.21887 16.5544C6.10414 16.3694 5.99751 16.18 5.8778 15.9769C5.82106 15.9975 5.76494 16.0149 5.71132 16.038C4.80596 16.4304 3.89874 16.8204 2.99525 17.2178C1.72077 17.7778 1.0879 18.7682 1.07294 20.1486C1.06046 21.2773 1.07169 22.4066 1.06919 23.5353C1.06857 23.8056 0.930772 23.962 0.708175 23.9502C0.508024 23.9396 0.37272 23.8225 0.373343 23.6287C0.377708 22.2596 0.318473 20.8842 0.428837 19.5225C0.536082 18.1957 1.30863 17.2221 2.51826 16.6634C3.99289 15.9826 5.49246 15.3553 6.98455 14.7131C7.14417 14.6445 7.20465 14.5654 7.20029 14.3885C7.1872 13.8753 7.19967 13.3607 7.19156 12.8468C7.19031 12.7634 7.16101 12.6562 7.10427 12.602C6.11162 11.6571 5.64585 10.4954 5.65645 9.13369C5.65645 9.09569 5.65084 9.05831 5.64522 8.98668C5.50992 8.98668 5.38085 8.98979 5.25178 8.98606C4.6426 8.96986 4.24791 8.58117 4.23232 7.97321C4.22422 7.65428 4.24417 7.33411 4.22733 7.0158C4.19803 6.45082 4.38322 6.02351 4.9076 5.83227C4.95436 5.24923 4.9581 4.6855 5.05038 4.13672C5.39893 2.06306 7.24456 0.33138 9.33274 0.0803484C9.38449 0.0741193 9.43375 0.049826 9.48425 0.0336304C9.93631 0.0336304 10.3884 0.0336304 10.8404 0.0336304ZM5.69448 5.73386C5.71319 5.6697 5.73189 5.60554 5.74998 5.54138C5.87593 5.10534 6.09104 4.71976 6.44645 4.4326C7.1872 3.83337 7.99777 3.69134 8.88941 4.07443C9.23796 4.22393 9.5915 4.37966 9.95813 4.4625C10.4426 4.57151 10.9134 4.4544 11.3598 4.23514C11.5749 4.12925 11.7695 4.19777 11.8592 4.38028C11.9515 4.56653 11.8836 4.75651 11.6722 4.86428C11.1328 5.13898 10.5586 5.3028 9.96 5.17386C9.50171 5.07482 9.06026 4.89293 8.61756 4.73035C8.32949 4.62446 8.04828 4.52106 7.73465 4.58459C6.87481 4.75776 6.38659 5.33956 6.37973 6.22471C6.37225 7.24441 6.37163 8.26411 6.37973 9.28318C6.38223 9.55415 6.40093 9.8301 6.45705 10.0942C6.85798 11.9872 8.62005 13.258 10.5623 13.0667C12.4454 12.8811 13.9206 11.2453 13.9293 9.32803C13.9343 8.24604 13.9306 7.16405 13.9293 6.08268C13.9293 5.98177 13.9256 5.87962 13.9069 5.7812C13.7903 5.1776 13.4218 4.79264 12.8563 4.57525C12.6156 4.48306 12.5239 4.30055 12.6025 4.10495C12.6829 3.90562 12.8694 3.83025 13.105 3.91621C13.8046 4.1716 14.2879 4.64501 14.531 5.35388C14.5572 5.4305 14.5803 5.50774 14.6052 5.58498C14.7362 3.90064 14.1781 2.50221 12.7789 1.54356C11.2407 0.490221 9.56967 0.413604 7.94103 1.29128C6.20265 2.22813 5.55107 3.8016 5.69448 5.73386ZM17.8108 23.2531C18.7149 23.2531 19.619 23.2537 20.5231 23.2531C20.8872 23.2531 20.9851 23.1584 20.9851 22.8021C20.9857 21.7046 20.9857 20.6064 20.9851 19.5088C20.9851 19.1488 20.8897 19.0535 20.5268 19.0535C18.7186 19.0529 16.9104 19.0529 15.1028 19.0535C14.7474 19.0535 14.6632 19.1388 14.6626 19.4939C14.662 20.5995 14.662 21.7052 14.6626 22.8109C14.6626 23.169 14.7462 23.2531 15.0991 23.2537C16.0026 23.2537 16.9067 23.2531 17.8108 23.2531ZM12.3786 13.2137C10.8847 13.9936 9.40195 13.9861 7.91173 13.2056C7.91173 13.717 7.91609 14.1979 7.90986 14.6788C7.90674 14.9055 8.01399 15.0488 8.19481 15.1709C8.41366 15.3192 8.61631 15.4911 8.82644 15.6524C9.26914 15.9925 9.71184 16.3326 10.1558 16.6734C10.8641 16.1283 11.5562 15.5988 12.244 15.0625C12.3051 15.0146 12.3718 14.9267 12.3737 14.8563C12.3836 14.315 12.3786 13.7743 12.3786 13.2137ZM13.7909 15.663C13.5702 15.5677 13.3825 15.4718 13.1842 15.4076C13.1075 15.3827 12.9866 15.4001 12.9217 15.4475C12.5146 15.7458 12.1168 16.0579 11.7165 16.3663C11.386 16.6204 11.0555 16.8758 10.7095 17.1424C11.2052 17.5859 11.6778 18.0082 12.1623 18.4424C12.7122 17.5043 13.2453 16.5949 13.7909 15.663ZM14.6501 8.26597C14.8154 8.26597 14.9544 8.26784 15.0935 8.26535C15.2755 8.26224 15.3672 8.15074 15.3703 7.98442C15.379 7.58078 15.3846 7.17651 15.3634 6.77411C15.3585 6.68504 15.2518 6.54675 15.1695 6.52682C15.0055 6.48757 14.8253 6.51498 14.6501 6.51498C14.6501 7.10425 14.6501 7.66861 14.6501 8.26597ZM5.64585 6.49567C5.49496 6.49567 5.37087 6.49069 5.24742 6.49692C5.04228 6.50626 4.93753 6.60904 4.94064 6.82394C4.94626 7.20516 4.94314 7.58638 4.94189 7.96698C4.94127 8.12831 5.00487 8.2448 5.17384 8.26037C5.32598 8.27407 5.47999 8.26348 5.64522 8.26348C5.64585 7.66923 5.64585 7.0974 5.64585 6.49567Z" fill="black"/>
<path d="M4.12053 22.3642C4.12053 22.0073 4.11803 21.6497 4.12115 21.2928C4.12364 21.0119 4.26331 20.8368 4.4778 20.835C4.69292 20.8331 4.83945 21.0088 4.84007 21.2872C4.84257 22.0247 4.84257 22.7629 4.84007 23.5004C4.83882 23.7932 4.71038 23.9495 4.48279 23.9514C4.25458 23.9532 4.12364 23.7969 4.12053 23.506C4.11741 23.1254 4.12053 22.7448 4.12053 22.3642Z" fill="black"/>
<path d="M19.7228 21.5078C19.8949 21.7052 20.0564 21.884 20.2098 22.069C20.3725 22.2646 20.365 22.4658 20.1992 22.6035C20.0402 22.7355 19.85 22.7156 19.6842 22.5368C19.4896 22.3269 19.3026 22.1095 19.0687 21.8466C19.0687 22.036 19.0719 22.1705 19.0681 22.3051C19.0613 22.5343 18.9178 22.6882 18.7164 22.6876C18.5157 22.6869 18.3704 22.5337 18.3698 22.3026C18.3666 21.5483 18.366 20.7939 18.3698 20.0402C18.371 19.7954 18.5001 19.664 18.7433 19.6602C18.9995 19.6559 19.2602 19.6403 19.5121 19.6764C19.9342 19.7362 20.2503 20.0689 20.3208 20.4744C20.3887 20.8662 20.1823 21.2312 19.7228 21.5078ZM19.0806 20.9229C19.267 20.8537 19.4291 20.8107 19.5694 20.7298C19.6056 20.7086 19.605 20.5416 19.5626 20.4856C19.4404 20.323 19.2589 20.3498 19.0806 20.3778C19.0806 20.546 19.0806 20.6967 19.0806 20.9229Z" fill="black"/>
<path d="M16.9545 21.489C16.6409 21.489 16.3691 21.489 16.0529 21.489C16.0529 21.6834 16.0536 21.8727 16.0529 22.0627C16.0523 22.1562 16.0554 22.2496 16.0473 22.3424C16.0292 22.5498 15.912 22.6713 15.7044 22.685C15.5142 22.6981 15.3577 22.5467 15.3421 22.3343C15.3309 22.1798 15.3384 22.0235 15.3384 21.8678C15.3384 21.2691 15.3384 20.6699 15.3384 20.0713C15.3384 19.8701 15.4182 19.6957 15.6215 19.6776C15.7418 19.667 15.8927 19.7549 15.9918 19.8421C16.0504 19.8938 16.0467 20.0289 16.0504 20.1274C16.0585 20.3354 16.0529 20.5441 16.0529 20.7652C16.361 20.7652 16.644 20.7652 16.9552 20.7652C16.9552 20.531 16.9521 20.308 16.9558 20.0844C16.9608 19.8128 17.0942 19.6552 17.3106 19.6583C17.5263 19.6614 17.6629 19.8228 17.6635 20.0906C17.666 20.8063 17.6654 21.5214 17.6635 22.2371C17.6629 22.5206 17.5251 22.6888 17.3031 22.6869C17.0892 22.685 16.9595 22.5262 16.9552 22.2527C16.9514 22.0054 16.9545 21.7588 16.9545 21.489Z" fill="black"/>
<path d="M19.082 20.9228C19.082 20.6967 19.082 20.546 19.082 20.3778C19.261 20.3497 19.4424 20.3223 19.564 20.4855C19.6064 20.5416 19.6064 20.7085 19.5709 20.7297C19.4306 20.8113 19.2678 20.8537 19.082 20.9228Z" fill="white"/>
</svg>
