<svg width="24" height="24" viewBox="0 0 24 24" fill="none" xmlns="http://www.w3.org/2000/svg">
<path d="M9.36334 22.4595C9.36334 20.6987 9.36334 18.9712 9.36334 17.232C9.61222 17.232 9.84273 17.232 10.0894 17.232C10.0894 19.2189 10.0894 21.2017 10.0894 23.2369C9.56686 23.2107 9.03913 23.2418 8.53538 23.1462C7.69205 22.9862 7.11596 22.2163 7.11409 21.3538C7.11109 20.0907 7.10397 18.8276 7.11934 17.5649C7.12346 17.2189 7.20217 16.8741 7.24902 16.5086C7.24752 16.5083 7.21267 16.4854 7.17781 16.4854C6.07886 16.488 4.97653 16.4374 3.88208 16.5113C2.56461 16.6001 1.60697 17.5971 1.51476 18.9179C1.46791 19.5907 1.48328 20.2759 1.55187 20.9472C1.62646 21.6777 2.285 22.2987 2.99527 22.4014C2.99527 21.0544 2.99527 19.7107 2.99527 18.355C3.2494 18.355 3.47991 18.355 3.7374 18.355C3.7374 19.717 3.7374 21.0761 3.7374 22.4539C4.86821 22.4539 5.97204 22.4539 7.09347 22.4539C7.09347 22.7088 7.09347 22.9449 7.09347 23.199C7.02788 23.2039 6.96079 23.2133 6.8937 23.2133C5.74003 23.214 4.58598 23.2174 3.43231 23.2129C2.0455 23.2077 0.964164 22.3126 0.779382 20.9438C0.697673 20.3385 0.738902 19.7137 0.757268 19.0986C0.767013 18.7676 0.808992 18.4281 0.900821 18.111C1.30075 16.7279 2.61259 15.7399 4.05187 15.7257C5.08073 15.7155 6.11147 15.6942 7.13845 15.738C7.52114 15.7545 7.73553 15.6589 7.97953 15.3666C8.62309 14.5956 9.4859 14.2335 10.49 14.2268C11.4803 14.2204 12.4705 14.2167 13.4604 14.2275C14.5927 14.2403 15.5076 14.7024 16.1857 15.6121C16.2771 15.735 16.3577 15.7856 16.5118 15.7496C16.6385 15.72 16.7749 15.7234 16.9068 15.7234C17.8656 15.7215 18.8247 15.72 19.7835 15.7227C21.7217 15.7283 23.2018 17.2088 23.2044 19.1421C23.2052 19.6331 23.2063 20.1245 23.204 20.6155C23.1969 22.0135 22.0875 23.1747 20.6887 23.2039C19.4495 23.2298 18.2097 23.211 16.9702 23.2118C16.9394 23.2118 16.9087 23.2062 16.8611 23.2017C16.8611 22.9637 16.8611 22.7268 16.8611 22.4625C17.9698 22.4625 19.0796 22.4625 20.2074 22.4625C20.2074 21.0825 20.2074 19.7287 20.2074 18.3587C20.4615 18.3587 20.6977 18.3587 20.9574 18.3587C20.9574 19.7084 20.9574 21.0525 20.9574 22.3996C21.6321 22.3107 22.318 21.7257 22.3847 21.0173C22.4623 20.1942 22.4941 19.3411 22.3633 18.5308C22.1666 17.3119 21.122 16.5128 19.866 16.4824C18.8686 16.4584 17.8701 16.4764 16.8723 16.4775C16.812 16.4775 16.7513 16.4925 16.7097 16.4978C16.9702 18.1574 16.8094 19.8164 16.8319 21.4689C16.8438 22.3617 16.02 23.1634 15.1235 23.2009C14.7112 23.2182 14.2977 23.2039 13.8671 23.2039C13.8671 21.2185 13.8671 19.235 13.8671 17.2354C14.0998 17.2354 14.3356 17.2354 14.5909 17.2354C14.5909 18.97 14.5909 20.6975 14.5909 22.4206C15.4102 22.6185 16.0905 22.0952 16.0938 21.2748C16.0983 20.0896 16.0961 18.9048 16.095 17.7197C16.0931 16.2129 15.1092 15.0874 13.6133 15.0008C12.5028 14.9363 11.3825 14.9464 10.2719 15.0105C8.91806 15.0889 7.90757 16.1582 7.87121 17.509C7.83673 18.7946 7.85172 20.0817 7.86559 21.3677C7.87234 21.9959 8.37234 22.452 9.00502 22.4584C9.11334 22.4607 9.22129 22.4595 9.36334 22.4595Z" fill="black"/>
<path d="M2.99397 12.3692C2.99397 12.5926 2.99434 12.795 2.99322 12.9974C2.99322 13.0274 2.98497 13.0574 2.98047 13.0858C2.42425 13.1252 1.88865 12.6484 1.87815 12.0783C1.86353 11.268 1.86353 10.4565 1.87815 9.64619C1.88827 9.09034 2.39727 8.62445 2.97898 8.61358C3.45424 8.60458 3.9295 8.60721 4.40476 8.60458C4.41226 8.60458 4.41938 8.60009 4.41451 8.60159C4.62178 8.10721 4.8253 7.6207 5.04119 7.10533C4.74772 6.81373 4.4325 6.50189 4.11953 6.18817C3.55881 5.6252 3.55844 4.98727 4.11841 4.4258C4.59742 3.94566 5.07605 3.46478 5.55731 2.98727C6.08092 2.46778 6.74847 2.46665 7.27808 2.98464C7.55656 3.25713 7.83317 3.53225 8.10341 3.81298C8.19562 3.90856 8.26496 3.93704 8.40101 3.87408C8.78782 3.69379 9.184 3.5315 9.58242 3.3782C9.69899 3.33322 9.73647 3.28075 9.7346 3.16118C9.7286 2.7324 9.72972 2.30361 9.7331 1.87483C9.73797 1.25414 10.2204 0.761632 10.844 0.754885C11.6 0.747014 12.3564 0.746639 13.1128 0.754885C13.7357 0.761632 14.2166 1.25489 14.2215 1.87707C14.2249 2.30586 14.226 2.73465 14.2196 3.16343C14.2177 3.28449 14.2597 3.33397 14.3744 3.3782C14.78 3.53487 15.1821 3.70204 15.5772 3.8827C15.6971 3.93742 15.7567 3.90968 15.8358 3.82835C16.1135 3.54387 16.395 3.26313 16.6784 2.98427C17.2042 2.46665 17.8729 2.46703 18.3988 2.98802C18.8916 3.4764 19.3823 3.96703 19.8707 4.45991C20.3856 4.97977 20.3841 5.6327 19.8658 6.15631C19.5479 6.47752 19.2234 6.79162 18.9108 7.10009C19.1252 7.61171 19.3313 8.10346 19.5442 8.61246C19.9891 8.61246 20.4486 8.61058 20.9081 8.61283C21.606 8.61658 22.0802 9.09222 22.0817 9.78937C22.0828 10.5379 22.0877 11.2864 22.0798 12.0345C22.0734 12.6229 21.5862 13.0933 20.9797 13.096C20.9797 12.8606 20.9797 12.6241 20.9797 12.3677C21.2852 12.3115 21.3422 12.084 21.338 11.7995C21.3291 11.1604 21.3358 10.521 21.335 9.88157C21.3343 9.49252 21.2084 9.36733 20.8137 9.36658C20.2601 9.36508 19.7065 9.36133 19.1533 9.3692C18.9996 9.37145 18.9213 9.34184 18.8811 9.1713C18.7001 8.40106 18.3797 7.68667 17.9426 6.99814C18.2938 6.65144 18.6341 6.31036 18.9809 5.9749C19.6731 5.30511 19.6589 5.29986 18.9737 4.63232C18.6218 4.28974 18.2792 3.93779 17.9317 3.59034C17.6098 3.26838 17.47 3.2665 17.154 3.58285C16.7196 4.01763 16.2859 4.45354 15.9003 4.84072C15.0779 4.49776 14.2998 4.17318 13.476 3.82947C13.476 3.30473 13.476 2.70578 13.476 2.10683C13.476 1.60271 13.3796 1.50676 12.8755 1.50638C12.4857 1.50638 12.0959 1.50713 11.7061 1.50638C10.356 1.50339 10.4797 1.40106 10.4801 2.74402C10.4801 3.1252 10.4801 3.50638 10.4801 3.85721C9.93662 4.06411 9.41338 4.25413 8.89802 4.46365C8.69037 4.54799 8.49209 4.66268 8.30469 4.78674C8.16751 4.87745 8.08467 4.86883 7.96923 4.74926C7.57418 4.33959 7.16788 3.94117 6.76346 3.54049C6.50371 3.28337 6.33092 3.28599 6.06818 3.54836C5.59892 4.01613 5.13002 4.48464 4.66188 4.95354C4.39652 5.21928 4.39802 5.39394 4.66788 5.66456C5.06968 6.06785 5.46998 6.47228 5.87703 6.86995C5.97523 6.9659 6.00109 7.03599 5.92013 7.16455C5.52583 7.78712 5.24547 8.46103 5.07605 9.17767C5.03932 9.33322 4.97148 9.37145 4.82268 9.36958C4.26158 9.36171 3.70011 9.36545 3.13865 9.36695C2.74547 9.36808 2.6214 9.49289 2.62065 9.88532C2.6199 10.548 2.6244 11.2107 2.61841 11.8733C2.61578 12.1342 2.71211 12.3085 2.99397 12.3692Z" fill="black"/>
<path d="M17.2304 10.8504C16.9527 10.8504 16.7218 10.8504 16.4916 10.8504C16.4399 8.20538 14.2716 6.33582 11.9133 6.37442C9.64043 6.4119 7.5666 8.17127 7.47139 10.8459C7.23639 10.8459 7.00025 10.8459 6.72852 10.8459C6.79148 9.01048 7.52762 7.5296 9.05423 6.5236C10.8571 5.33544 12.7649 5.27097 14.6337 6.35606C16.3248 7.33807 17.1434 8.88042 17.2304 10.8504Z" fill="black"/>
<path d="M11.9772 13.8546C10.7332 13.8557 9.73355 12.8587 9.73242 11.617C9.7313 10.3767 10.732 9.36548 11.9652 9.36098C13.2126 9.35611 14.2231 10.3666 14.2216 11.6162C14.2201 12.8595 13.2231 13.8539 11.9772 13.8546ZM11.9663 13.1024C12.7961 13.1057 13.4742 12.4348 13.4738 11.611C13.4734 10.8006 12.8033 10.1267 11.988 10.1162C11.1728 10.1061 10.4794 10.7939 10.4805 11.6125C10.4813 12.4258 11.1533 13.0994 11.9663 13.1024Z" fill="black"/>
<path d="M5.60538 15.352C4.34976 15.3463 3.36512 14.3448 3.37112 13.0806C3.37712 11.8523 4.39961 10.8493 5.63761 10.8583C6.87824 10.867 7.86925 11.8879 7.85988 13.1473C7.85126 14.3692 6.84039 15.3576 5.60538 15.352ZM5.60688 14.5993C6.43596 14.602 7.11437 13.9292 7.1125 13.1061C7.11063 12.2954 6.43896 11.6218 5.62449 11.6136C4.80853 11.6053 4.11662 12.2939 4.11925 13.1121C4.12112 13.9251 4.79316 14.5971 5.60688 14.5993Z" fill="black"/>
<path d="M18.3371 15.3519C17.0927 15.3508 16.0961 14.3542 16.0957 13.1109C16.0953 11.8621 17.1081 10.8523 18.3554 10.8583C19.5886 10.8643 20.5875 11.8763 20.5852 13.1169C20.583 14.3587 19.583 15.3531 18.3371 15.3519ZM18.345 14.5993C19.1605 14.5978 19.8322 13.9303 19.8371 13.1158C19.8423 12.298 19.1534 11.6087 18.3356 11.6132C17.5222 11.6177 16.8476 12.2908 16.8435 13.1016C16.8397 13.9243 17.5181 14.6008 18.345 14.5993Z" fill="black"/>
<path d="M13.4629 22.4767C13.4629 22.7256 13.4629 22.9565 13.4629 23.2005C12.4741 23.2005 11.4963 23.2005 10.5 23.2005C10.5 22.9674 10.5 22.7309 10.5 22.4767C11.4779 22.4767 12.4614 22.4767 13.4629 22.4767Z" fill="black"/>
</svg>
