<svg width="24" height="24" viewBox="0 0 24 24" fill="none" xmlns="http://www.w3.org/2000/svg">
<path d="M0 14.7875C0.183392 14.3677 0.513372 14.2348 0.957505 14.2411C2.0878 14.2573 3.21809 14.2535 4.34838 14.2429C4.78815 14.2392 5.14495 14.3745 5.4531 14.697C5.98082 15.2491 6.52725 15.7837 7.07181 16.3195C7.32444 16.5684 7.45918 16.8584 7.45544 17.2146C7.4517 17.5733 7.45856 17.932 7.45294 18.2906C7.4492 18.5545 7.29949 18.7204 7.08865 18.7117C6.88281 18.703 6.74682 18.542 6.7437 18.2906C6.73996 17.9413 6.74246 17.5926 6.74246 17.2159C6.40499 17.2159 6.08749 17.2028 5.77123 17.2184C4.74261 17.2689 4.42823 17.0593 4.49185 15.9278C4.50932 15.6184 4.49435 15.3071 4.49435 14.9821C3.22558 14.9821 1.97614 14.9821 0.713606 14.9821C0.713606 17.4878 0.713606 19.9855 0.713606 22.4956C2.71844 22.4956 4.7108 22.4956 6.74246 22.4956C6.74246 22.4163 6.74246 22.3346 6.74246 22.2529C6.74246 21.5044 6.74183 20.7565 6.74308 20.0079C6.74308 19.9306 6.73747 19.8488 6.75867 19.7759C6.81045 19.6006 6.92897 19.4989 7.12109 19.5114C7.31135 19.5239 7.43049 19.6299 7.44296 19.817C7.45918 20.0653 7.45357 20.3154 7.45357 20.565C7.45481 21.1731 7.45669 21.7813 7.45294 22.3889C7.44982 22.9278 7.166 23.2079 6.62955 23.2079C4.74324 23.2085 2.8563 23.1979 0.969981 23.216C0.525848 23.2198 0.200858 23.0963 0 22.6939C0 20.0584 0 17.423 0 14.7875ZM5.20172 15.5423C5.20172 15.8049 5.19548 16.07 5.20671 16.3338C5.2092 16.3912 5.27096 16.4935 5.30963 16.4954C5.59969 16.5091 5.89099 16.5029 6.16982 16.5029C5.84172 16.1773 5.52546 15.8635 5.20172 15.5423Z" fill="black"/>
<path d="M0 0.237753C0.104795 0.0568566 0.258869 -0.013007 0.46846 0.00196378C0.669942 0.0163108 0.877661 -0.0167497 1.0754 0.0144394C1.56195 0.0905408 1.86136 0.39058 2.00421 0.857168C2.36351 2.03175 2.7253 3.20508 3.08522 4.37966C3.22495 4.83627 3.27361 4.87307 3.76078 4.87307C4.65715 4.87307 5.55415 4.8737 6.45053 4.87245C6.75244 4.87245 6.85536 4.80072 6.94207 4.51502C7.19782 3.67479 7.4492 2.83331 7.70121 1.99183C7.71431 1.94879 7.71556 1.902 7.72616 1.83027C7.6301 1.83027 7.54713 1.83027 7.46355 1.83027C6.15361 1.83027 4.84366 1.83027 3.53372 1.83027C3.45575 1.83027 3.37653 1.83713 3.30043 1.82465C3.11454 1.79534 3.00788 1.67807 2.99977 1.49218C2.99166 1.30442 3.09832 1.18653 3.27548 1.136C3.31914 1.12352 3.36842 1.12851 3.4152 1.12851C4.99774 1.12789 6.5809 1.12727 8.16343 1.12914C8.4853 1.12976 8.64125 1.325 8.54955 1.63565C8.23517 2.70169 7.91704 3.76649 7.58518 4.82754C7.4386 5.296 7.05497 5.57296 6.56717 5.5767C5.54604 5.58481 4.52429 5.58543 3.50316 5.57608C3.00101 5.57171 2.62612 5.27853 2.47018 4.77951C2.09466 3.5781 1.72725 2.37358 1.35673 1.17031C1.23197 0.764849 1.15088 0.709332 0.725458 0.702471C0.462846 0.698728 0.165302 0.787305 0 0.471671C0 0.393699 0 0.315726 0 0.237753Z" fill="black"/>
<path d="M22.4862 1.46222C21.8475 1.46222 21.2331 1.46222 20.5818 1.46222C20.5818 1.54955 20.5818 1.63126 20.5818 1.71298C20.5818 2.23508 20.5837 2.75719 20.5812 3.27992C20.58 3.58058 20.4577 3.70159 20.1539 3.70409C19.7017 3.70721 19.2494 3.70721 18.7978 3.70409C18.4947 3.70222 18.3799 3.58557 18.3774 3.27617C18.3736 2.76155 18.3761 2.24756 18.3761 1.73294C18.3761 1.64935 18.3761 1.56576 18.3761 1.46908C17.7299 1.46908 17.1105 1.46908 16.4605 1.46908C16.4605 1.59758 16.4674 1.71984 16.4593 1.84085C16.4443 2.0623 16.3071 2.1989 16.1087 2.20265C15.9041 2.20576 15.7687 2.07914 15.7531 1.8527C15.7432 1.71298 15.7438 1.572 15.755 1.43228C15.7874 1.03493 16.0831 0.756096 16.4805 0.755472C18.4759 0.752977 20.4714 0.752977 22.4669 0.755472C22.8923 0.756096 23.203 1.06612 23.2036 1.49403C23.2061 3.4814 23.2061 5.46939 23.2036 7.45676C23.203 7.88218 22.9266 8.18222 22.5006 8.20405C22.1743 8.22089 21.8462 8.21091 21.5188 8.21091C19.8975 8.21154 18.2763 8.21154 16.6551 8.21091C16.0114 8.21091 15.7488 7.9483 15.7488 7.30518C15.7481 6.05013 15.7481 4.79508 15.7488 3.54066C15.7488 3.17076 15.8692 2.99485 16.1131 3.00233C16.352 3.00982 16.4624 3.17762 16.4624 3.53567C16.4624 4.75953 16.4624 5.98339 16.4624 7.20662C16.4624 7.29146 16.4624 7.37629 16.4624 7.47859C18.4753 7.47859 20.4733 7.47859 22.4875 7.47859C22.4862 5.48062 22.4862 3.48265 22.4862 1.46222ZM19.8576 2.99422C19.8576 2.46962 19.8576 1.96935 19.8576 1.47095C19.5925 1.47095 19.3474 1.47095 19.101 1.47095C19.101 1.98682 19.101 2.48771 19.101 2.99422C19.3592 2.99422 19.6 2.99422 19.8576 2.99422Z" fill="black"/>
<path d="M14.9844 19.1065C14.9987 16.8578 16.6767 14.9396 18.9117 14.6621C19.9996 14.5273 21.0176 14.7594 21.9395 15.3682C22.1691 15.5198 22.2308 15.7113 22.1117 15.8965C21.9938 16.0793 21.788 16.1067 21.5578 15.9645C20.2859 15.1792 18.9772 15.1062 17.6567 15.8129C16.2263 16.5783 15.4822 18.1846 15.7685 19.8039C16.0373 21.3234 17.3086 22.5679 18.8587 22.8286C20.9689 23.1842 22.9713 21.674 23.2164 19.5513C23.32 18.6561 23.121 17.8377 22.6519 17.0761C22.5926 16.9794 22.5103 16.8534 22.5309 16.7611C22.5571 16.6426 22.6538 16.5016 22.7592 16.4473C22.9158 16.3669 23.0761 16.4342 23.1827 16.5914C23.5495 17.1347 23.7947 17.7292 23.897 18.3754C24.2669 20.7071 22.8247 22.8816 20.5335 23.4593C18.0409 24.088 15.4603 22.3857 15.0642 19.8482C15.0262 19.603 15.0106 19.3541 14.9844 19.1065Z" fill="black"/>
<path d="M11.5543 11.5906C9.49704 11.5906 7.43919 11.6081 5.38196 11.5819C4.56043 11.5712 4.02648 12.1358 4.07388 12.903C4.07888 12.9804 4.07638 13.059 4.07014 13.1363C4.05268 13.3415 3.92231 13.4507 3.73268 13.4569C3.54055 13.4626 3.39833 13.3496 3.3765 13.1538C3.2218 11.7515 4.13626 10.8826 5.27529 10.8707C5.82858 10.8645 6.38188 10.8695 6.93517 10.8695C10.5593 10.8695 14.1829 10.857 17.8071 10.8795C18.6199 10.8845 19.1688 10.3468 19.1289 9.54645C19.1101 9.17218 19.2399 8.99503 19.4794 8.99815C19.7183 9.00127 19.8319 9.17967 19.8319 9.55269C19.8319 10.5763 19.3229 11.2974 18.4209 11.5232C18.22 11.5737 18.0048 11.5881 17.7965 11.5881C15.7161 11.5925 13.6352 11.5906 11.5543 11.5906Z" fill="black"/>
<path d="M19.1795 20.7964C19.1795 20.2456 19.1858 19.7478 19.1721 19.2513C19.1702 19.1883 19.076 19.1072 19.0061 19.0697C18.6294 18.8695 18.3112 18.6312 18.2358 18.169C18.1409 17.5907 18.4491 17.0187 18.9986 16.7917C19.1009 16.7499 19.1877 16.7268 19.1858 16.5752C19.182 16.2708 19.3099 16.1286 19.5376 16.133C19.7634 16.1373 19.8738 16.2839 19.8819 16.5902C19.8825 16.6208 19.8863 16.6513 19.8888 16.6863C20.0366 16.7412 20.1838 16.7873 20.3236 16.8503C20.5756 16.9632 20.6698 17.1697 20.5718 17.3699C20.4739 17.5708 20.2674 17.6107 20.0117 17.4803C19.9786 17.4635 19.9418 17.4548 19.8813 17.4336C19.8813 17.8247 19.8732 18.1971 19.8894 18.5676C19.8919 18.6256 19.9948 18.7036 20.0672 18.731C20.56 18.92 20.9099 19.24 20.9954 19.7765C21.1077 20.4764 20.7116 21.1313 20.0441 21.3933C19.9948 21.4127 19.9449 21.4326 19.8981 21.4513C19.842 21.9578 19.7622 22.0895 19.5183 22.0826C19.2843 22.0757 19.2051 21.9466 19.1683 21.5393C18.8776 21.417 18.5932 21.3178 18.3293 21.1806C18.0898 21.0559 18.0355 20.8394 18.1547 20.6554C18.2713 20.4757 18.4566 20.452 18.6874 20.573C18.8358 20.651 18.9918 20.7122 19.1795 20.7964ZM19.8994 19.4453C19.8994 19.8676 19.8994 20.2637 19.8994 20.6828C20.1882 20.5013 20.3217 20.2605 20.2999 19.9524C20.2818 19.7141 20.1551 19.5369 19.8994 19.4453ZM19.1615 18.3025C19.1615 18.0449 19.1615 17.7897 19.1615 17.5184C18.8458 17.7972 18.8521 18.1553 19.1615 18.3025Z" fill="black"/>
<path d="M11.7908 4.8313C10.9181 4.8313 10.0448 4.8313 9.17218 4.8313C9.09421 4.8313 9.01561 4.83317 8.93888 4.82444C8.73491 4.80198 8.62949 4.66974 8.62512 4.48011C8.62076 4.29734 8.73428 4.17633 8.91393 4.13266C8.97319 4.11832 9.03807 4.12456 9.10044 4.12456C10.8932 4.12393 12.6859 4.12393 14.4781 4.12456C14.5404 4.12456 14.6053 4.11769 14.6646 4.13266C14.8536 4.18007 14.9684 4.30732 14.9546 4.50194C14.9422 4.68034 14.8374 4.80572 14.644 4.82506C14.5666 4.83255 14.488 4.83192 14.4107 4.83192C13.5368 4.83192 12.6635 4.8313 11.7908 4.8313Z" fill="black"/>
<path d="M11.2173 18.7553C12.0744 18.7553 12.9315 18.7529 13.7892 18.7572C14.1223 18.7591 14.3044 19.0211 14.1597 19.2762C14.0661 19.4409 13.9108 19.4646 13.7374 19.464C12.3894 19.4608 11.0408 19.4621 9.69279 19.4621C9.36531 19.4621 9.03845 19.4627 8.71096 19.4621C8.42215 19.4608 8.25186 19.3336 8.24437 19.1159C8.23689 18.892 8.41092 18.7566 8.71595 18.756C9.54932 18.7541 10.3833 18.7553 11.2173 18.7553Z" fill="black"/>
<path d="M7.84503 8.20654C7.23809 8.20342 6.74281 7.70877 6.74219 7.10619C6.74156 6.49988 7.25993 5.989 7.86562 5.99836C8.46944 6.00709 8.95848 6.51111 8.95162 7.11555C8.94539 7.72561 8.45385 8.20966 7.84503 8.20654ZM7.85314 6.71383C7.64043 6.71196 7.46765 6.87851 7.46016 7.09122C7.45268 7.31391 7.62546 7.49294 7.84815 7.49356C8.06648 7.49418 8.23116 7.33637 8.23802 7.11929C8.2455 6.8966 8.07396 6.71571 7.85314 6.71383Z" fill="black"/>
<path d="M3.32445 7.11305C3.32196 7.72374 2.83354 8.20904 2.22348 8.20717C1.61529 8.20529 1.12562 7.715 1.125 7.10744C1.12438 6.49239 1.63026 5.989 2.24095 5.99773C2.84789 6.00646 3.32695 6.49925 3.32445 7.11305ZM2.21475 6.71383C2.0064 6.72007 1.82925 6.89972 1.82925 7.10494C1.82925 7.3214 2.01576 7.49855 2.23783 7.49356C2.45116 7.48857 2.62021 7.31641 2.62083 7.10557C2.62145 6.88787 2.43369 6.7076 2.21475 6.71383Z" fill="black"/>
<path d="M3.74352 18.7136C3.12847 18.7136 2.51404 18.7129 1.899 18.7142C1.71623 18.7148 1.55529 18.6443 1.52535 18.4659C1.50539 18.3487 1.5659 18.2002 1.63389 18.0935C1.67132 18.0349 1.79857 18.0112 1.88527 18.0106C3.11475 18.0056 4.34422 18.0049 5.57432 18.0087C5.81635 18.0093 5.95108 18.1472 5.94796 18.3611C5.94547 18.5682 5.80137 18.7092 5.56434 18.7111C4.9574 18.7167 4.35046 18.7136 3.74352 18.7136Z" fill="black"/>
<path d="M3.72818 20.2119C3.12872 20.2119 2.52989 20.2131 1.93044 20.2113C1.65972 20.2106 1.50253 20.0784 1.50003 19.8594C1.49753 19.6386 1.65036 19.5083 1.92545 19.5083C3.12373 19.507 4.32264 19.507 5.52093 19.5083C5.80537 19.5089 5.94759 19.6274 5.94884 19.8545C5.95009 20.0784 5.79851 20.2106 5.52592 20.2113C4.92646 20.2138 4.32701 20.2119 3.72818 20.2119Z" fill="black"/>
<path d="M2.57362 17.2152C2.34781 17.2152 2.12138 17.2202 1.89557 17.214C1.64793 17.2071 1.49573 17.0618 1.50009 16.8484C1.50446 16.6445 1.64855 16.5104 1.8912 16.5079C2.36652 16.5022 2.84185 16.5022 3.31717 16.5085C3.56419 16.5116 3.69767 16.6426 3.69767 16.8559C3.6983 17.0649 3.5567 17.2071 3.32153 17.214C3.07265 17.2208 2.82313 17.2146 2.57362 17.2152Z" fill="black"/>
<path d="M20.7766 6.70387C20.5895 6.70387 20.4023 6.7126 20.2158 6.70137C20.0044 6.6889 19.8821 6.55354 19.8809 6.35767C19.8796 6.16554 20.0069 6.0096 20.209 6.00336C20.5982 5.99088 20.9881 5.99088 21.3767 6.00398C21.5744 6.01085 21.7079 6.17739 21.7042 6.36328C21.7004 6.54979 21.5657 6.69139 21.3599 6.702C21.1665 6.71198 20.9712 6.70387 20.7766 6.70387Z" fill="black"/>
<path d="M21.1531 5.20056C21.0833 5.20056 21.0121 5.20742 20.9435 5.19931C20.7452 5.17561 20.636 5.06083 20.631 4.85997C20.626 4.656 20.7433 4.53685 20.9323 4.50691C21.0689 4.48508 21.2118 4.49319 21.3515 4.5013C21.5636 4.51377 21.7064 4.66535 21.7039 4.85997C21.7014 5.05459 21.5586 5.19058 21.3396 5.20368C21.2779 5.20742 21.2155 5.2043 21.1531 5.2043C21.1531 5.20305 21.1531 5.20181 21.1531 5.20056Z" fill="black"/>
<path d="M5.20095 15.5422C5.52469 15.8635 5.84095 16.1772 6.16906 16.5022C5.8896 16.5022 5.59892 16.5085 5.30886 16.4948C5.27081 16.4929 5.20843 16.3912 5.20594 16.3332C5.19471 16.07 5.20095 15.8048 5.20095 15.5422Z" fill="white"/>
<path d="M19.8582 2.99422C19.6 2.99422 19.3598 2.99422 19.1016 2.99422C19.1016 2.48771 19.1016 1.98681 19.1016 1.47095C19.3473 1.47095 19.5931 1.47095 19.8582 1.47095C19.8582 1.96935 19.8582 2.46962 19.8582 2.99422Z" fill="white"/>
<path d="M19.9004 19.4453C20.1568 19.5363 20.2834 19.7141 20.3009 19.9524C20.3233 20.2605 20.1892 20.5013 19.9004 20.6828C19.9004 20.2637 19.9004 19.8676 19.9004 19.4453Z" fill="white"/>
<path d="M19.1621 18.3025C18.8527 18.1553 18.8465 17.7972 19.1621 17.5184C19.1621 17.7891 19.1621 18.0448 19.1621 18.3025Z" fill="white"/>
<path d="M7.85419 6.71387C8.07501 6.71575 8.24655 6.89602 8.23907 7.11996C8.23221 7.33703 8.06753 7.49485 7.8492 7.49423C7.62589 7.4936 7.4531 7.31395 7.46121 7.09189C7.4687 6.87855 7.64148 6.71263 7.85419 6.71387Z" fill="white"/>
<path d="M2.21362 6.71384C2.43257 6.7076 2.62033 6.88788 2.6197 7.10558C2.61908 7.31704 2.45004 7.48858 2.2367 7.49357C2.01464 7.49918 1.82812 7.32203 1.82812 7.10495C1.82813 6.89973 2.00528 6.72008 2.21362 6.71384Z" fill="white"/>
</svg>
