<svg width="24" height="24" viewBox="0 0 24 24" fill="none" xmlns="http://www.w3.org/2000/svg">
<path d="M7.61877 23.9385C7.5714 23.8899 7.51905 23.845 7.47792 23.7914C7.29907 23.5576 7.43866 23.2278 7.73094 23.1942C7.8076 23.1854 7.88674 23.191 7.96464 23.191C12.9265 23.191 17.8878 23.191 22.8497 23.191C22.9501 23.191 23.0504 23.191 23.1676 23.191C23.1676 22.8176 23.1676 22.4567 23.1676 22.067C23.0766 22.067 22.9862 22.067 22.8952 22.067C18.3309 22.067 13.7666 22.067 9.20231 22.067C9.13252 22.067 9.06209 22.0702 8.9923 22.0658C8.77729 22.0527 8.62274 21.8925 8.62461 21.6899C8.62648 21.4873 8.78228 21.3258 8.99977 21.3227C9.40485 21.3165 9.80993 21.3208 10.215 21.3202C10.2917 21.3202 10.3683 21.3202 10.4581 21.3202C10.4581 17.6994 10.4581 14.0974 10.4581 10.4828C9.72081 10.4828 8.99167 10.4828 8.22701 10.4828C8.22701 10.5707 8.22701 10.6605 8.22701 10.7503C8.22701 12.527 8.22763 14.3031 8.22638 16.0798C8.22638 16.4426 7.93286 16.6652 7.67672 16.4794C7.57265 16.404 7.49039 16.2251 7.48914 16.0917C7.47481 14.9546 7.48104 13.8168 7.48104 12.6791C7.48104 11.8456 7.48042 11.0115 7.48166 10.178C7.48229 9.85134 7.60693 9.72603 7.93224 9.72541C8.87451 9.72416 9.81741 9.72416 10.7597 9.72541C11.0968 9.72603 11.219 9.85009 11.219 10.193C11.2196 13.8006 11.219 17.4083 11.219 21.0153C11.219 21.1076 11.219 21.1999 11.219 21.3059C11.7213 21.3059 12.2068 21.3059 12.7165 21.3059C12.7165 21.2074 12.7165 21.1157 12.7165 21.0247C12.7165 16.6845 12.7165 12.345 12.7165 8.0048C12.7165 7.58337 12.8187 7.48051 13.2363 7.48051C14.1474 7.48051 15.0591 7.47989 15.9703 7.48051C16.3386 7.48051 16.4539 7.59709 16.4539 7.97051C16.4539 12.3182 16.4539 16.6658 16.4539 21.0135C16.4539 21.1057 16.4539 21.198 16.4539 21.3046C16.9555 21.3046 17.441 21.3046 17.9514 21.3046C17.9514 21.2074 17.9514 21.1163 17.9514 21.0253C17.9514 15.9377 17.9514 10.8494 17.9514 5.76177C17.9514 5.3391 18.053 5.23624 18.4699 5.23624C19.381 5.23624 20.2928 5.23562 21.2039 5.23624C21.5734 5.23624 21.6887 5.35219 21.6887 5.72499C21.6887 10.8126 21.6887 15.9009 21.6887 20.9885C21.6887 21.0889 21.6887 21.1893 21.6887 21.3196C21.9336 21.3196 22.1642 21.3196 22.3948 21.3196C22.7762 21.3196 23.1582 21.3158 23.5396 21.3208C23.7901 21.3239 23.9291 21.4623 23.931 21.7142C23.9354 22.322 23.9459 22.9305 23.9216 23.537C23.916 23.6729 23.7771 23.8039 23.6998 23.9373C18.3378 23.9385 12.9783 23.9385 7.61877 23.9385ZM18.7117 5.99368C18.7117 11.1119 18.7117 16.2101 18.7117 21.3015C19.4633 21.3015 20.198 21.3015 20.9272 21.3015C20.9272 16.1895 20.9272 11.0969 20.9272 5.99368C20.1862 5.99368 19.4564 5.99368 18.7117 5.99368ZM15.6886 21.3108C15.6886 16.9414 15.6886 12.5912 15.6886 8.2473C14.937 8.2473 14.2022 8.2473 13.4725 8.2473C13.4725 12.6112 13.4725 16.9557 13.4725 21.3108C14.2147 21.3108 14.9438 21.3108 15.6886 21.3108Z" fill="black"/>
<path d="M0 19.3565C0.124017 18.9425 0.206279 18.5093 0.380151 18.1172C1.09247 16.5094 2.82558 15.52 4.52318 15.7214C6.37968 15.9415 7.83922 17.2905 8.16702 19.0903C8.58269 21.3713 6.99478 23.577 4.70951 23.8937C4.66526 23.8999 4.62351 23.923 4.58113 23.9385C4.26953 23.9385 3.95793 23.9385 3.64634 23.9385C3.60271 23.9236 3.56096 23.9018 3.51609 23.8943C1.93752 23.6219 0.850043 22.7379 0.259874 21.2535C0.137727 20.9468 0.0853782 20.6133 0.0012464 20.2916C6.96479e-10 19.9799 0 19.6682 0 19.3565ZM7.47838 19.8315C7.47464 17.9806 5.95965 16.4564 4.12682 16.4576C2.26533 16.4589 0.750954 17.97 0.748462 19.8284C0.745346 21.6743 2.28091 23.1986 4.13492 23.1917C5.95965 23.1836 7.48212 21.6544 7.47838 19.8315Z" fill="black"/>
<path d="M18.8724 0.747082C18.7359 0.747082 18.6381 0.747082 18.5396 0.747082C17.8466 0.747082 17.1536 0.750199 16.4606 0.745212C16.2251 0.743342 16.0755 0.584373 16.0799 0.364933C16.0842 0.156714 16.2313 0.00335532 16.4544 0.00273191C17.5755 -0.00100854 18.6973 -0.00100854 19.8184 0.00335532C20.0378 0.00397873 20.1867 0.152973 20.1874 0.373037C20.1923 1.49455 20.1917 2.61669 20.188 3.7382C20.1874 3.96138 20.0328 4.10913 19.8253 4.11287C19.6065 4.11723 19.4476 3.96637 19.4464 3.73072C19.442 3.00632 19.4445 2.28192 19.4445 1.55751C19.4445 1.48333 19.4445 1.40852 19.4445 1.29755C18.9316 1.75638 18.4592 2.19339 17.9719 2.61295C15.4579 4.77368 12.7613 6.65388 9.70204 7.97177C8.18206 8.62697 6.60724 9.09141 4.96013 9.28966C4.68218 9.32332 4.40174 9.34015 4.12192 9.34639C3.89819 9.352 3.748 9.19864 3.74053 8.99167C3.73305 8.78158 3.87015 8.61887 4.09139 8.60515C6.87272 8.43247 9.38172 7.42816 11.7748 6.07972C14.3449 4.63154 16.6582 2.83488 18.812 0.826879C18.8232 0.816904 18.8307 0.803189 18.8724 0.747082Z" fill="black"/>
<path d="M5.23559 12.3531C4.48277 12.3531 3.75425 12.3531 2.99021 12.3531C2.99021 12.4347 2.99021 12.5164 2.99021 12.5987C2.99021 13.2994 2.99083 13.9995 2.99021 14.7002C2.99021 15.0069 2.84687 15.189 2.6113 15.1846C2.38321 15.1802 2.24486 15.0038 2.24486 14.7121C2.24424 13.8249 2.24361 12.9372 2.24486 12.0501C2.24548 11.7234 2.37012 11.5969 2.69356 11.5969C3.64269 11.5956 4.59183 11.5956 5.54158 11.5969C5.85069 11.5975 5.98156 11.7272 5.98156 12.0351C5.98343 12.9378 5.98281 13.8412 5.98156 14.7439C5.98094 15.0113 5.82825 15.1865 5.60639 15.1846C5.38453 15.1827 5.23746 15.0082 5.23684 14.7382C5.23497 13.9521 5.23559 13.1666 5.23559 12.3531Z" fill="black"/>
<path d="M3.72799 21.2597C3.72799 20.9025 3.72799 20.5484 3.72799 20.1793C3.66255 20.1613 3.59712 20.1457 3.53231 20.1251C2.97704 19.9518 2.6162 19.4612 2.61745 18.882C2.6187 18.3085 2.98888 17.811 3.54539 17.6495C3.65445 17.6177 3.73173 17.6009 3.76164 17.4619C3.79716 17.2973 3.93178 17.2082 4.10939 17.2069C4.287 17.2057 4.41849 17.2942 4.46087 17.4582C4.49328 17.5828 4.55934 17.6059 4.66528 17.6327C5.11585 17.7468 5.45425 17.9937 5.57827 18.4681C5.59759 18.5423 5.60569 18.6221 5.60382 18.6987C5.59883 18.9051 5.45487 19.0572 5.26106 19.0734C5.0635 19.0902 4.89213 18.9699 4.86657 18.7592C4.83978 18.5379 4.7195 18.4313 4.48455 18.3714C4.48455 18.5672 4.48455 18.7492 4.48455 18.9313C4.48455 19.1089 4.48455 19.2866 4.48455 19.4574C5.2567 19.6974 5.61628 20.1345 5.60569 20.8009C5.59572 21.4099 5.19625 21.8644 4.51634 22.0452C4.47894 22.1319 4.45651 22.226 4.40354 22.2983C4.25023 22.5078 3.88878 22.4997 3.80215 22.2597C3.72861 22.0558 3.59338 22.0296 3.43384 21.9779C2.9465 21.8208 2.62991 21.4374 2.61745 21.006C2.6106 20.7628 2.73835 20.597 2.94837 20.5752C3.164 20.5528 3.31169 20.6774 3.36217 20.9237C3.40767 21.1388 3.46625 21.1936 3.72799 21.2597ZM3.71989 19.3751C3.71989 19.0379 3.71989 18.7274 3.71989 18.402C3.47497 18.4961 3.36903 18.6707 3.37152 18.8926C3.37401 19.1127 3.47933 19.2866 3.71989 19.3751ZM4.50512 20.2735C4.50512 20.6114 4.50512 20.9212 4.50512 21.2466C4.75004 21.1525 4.85536 20.9773 4.85349 20.7554C4.85162 20.5347 4.74443 20.362 4.50512 20.2735Z" fill="black"/>
<path d="M3.72146 19.3752C3.4809 19.2873 3.37558 19.1133 3.37309 18.8933C3.3706 18.6707 3.47716 18.4968 3.72146 18.4026C3.72146 18.7274 3.72146 19.0373 3.72146 19.3752Z" fill="white"/>
<path d="M4.50586 20.2735C4.74579 20.362 4.85236 20.5353 4.85423 20.7554C4.8561 20.9767 4.75078 21.1525 4.50586 21.2466C4.50586 20.9212 4.50586 20.6108 4.50586 20.2735Z" fill="white"/>
</svg>
