<svg width="62" height="62" viewBox="0 0 62 62" fill="none" xmlns="http://www.w3.org/2000/svg">
<path d="M30.905 61.81C47.9734 61.81 61.81 47.9734 61.81 30.905C61.81 13.8366 47.9734 0 30.905 0C13.8366 0 0 13.8366 0 30.905C0 47.9734 13.8366 61.81 30.905 61.81Z" fill="url(#paint0_linear_2282_4608)"/>
<path d="M46.71 46.5721L46.5762 46.272L46.4434 46.0021L46.1768 45.4801L45.6328 44.4601L44.5205 42.4501C43.7715 41.1161 43.0134 39.789 42.2334 38.475C40.6764 35.846 39.1055 33.2251 37.4785 30.6371C35.8515 28.0491 34.1787 25.489 32.4717 22.954C31.611 21.6907 30.741 20.4331 29.8623 19.1811L28.5283 17.311L27.8457 16.3811C27.7287 16.2261 27.6152 16.0731 27.4902 15.9171L27.3066 15.6851L27.0986 15.4381L27.0518 15.3831C27.0244 15.3523 26.9935 15.3242 26.9609 15.2991C26.9007 15.2534 26.8329 15.22 26.7598 15.2009C26.6867 15.1817 26.61 15.1772 26.5352 15.1875C26.4603 15.1978 26.3884 15.2228 26.3232 15.261C26.258 15.2992 26.2009 15.3498 26.1553 15.41C26.0553 15.543 25.9553 15.681 25.8623 15.82L25.6621 16.1491C25.5331 16.3671 25.4061 16.5841 25.2871 16.8001L24.5674 18.1L23.1602 20.7001C22.2332 22.4381 21.3308 24.188 20.4248 25.936C19.5188 27.684 18.6379 29.4461 17.7559 31.2061C16.8739 32.9661 16.0104 34.7371 15.1924 36.5301L21.1445 26.3301L24.1143 21.2301L25.6035 18.6881L26.3594 17.4291C26.4504 17.2761 26.5457 17.1291 26.6377 16.9821L26.7695 17.165L27.4209 18.092L28.7051 19.9741C29.5544 21.2354 30.3946 22.5041 31.2246 23.7801C32.8986 26.3221 34.5407 28.8837 36.1514 31.4651C37.7644 34.0451 39.3657 36.635 40.9287 39.247L43.2656 43.1681L44.4092 45.1371L44.9629 46.1251L44.9883 46.173C43.2183 46.214 41.4565 46.2881 39.6885 46.3531C37.5635 46.4311 35.4394 46.5441 33.3154 46.6531C31.1914 46.7621 29.0693 46.8911 26.9463 47.0131C24.8233 47.1351 22.702 47.293 20.582 47.458C22.709 47.492 24.8359 47.5091 26.9619 47.5201H33.3408L39.7158 47.4981C41.8388 47.4851 43.9662 47.4861 46.0762 47.4981H46.1006C46.1926 47.4985 46.2832 47.4795 46.3672 47.4421C46.4472 47.4079 46.5194 47.3582 46.5801 47.2958C46.6407 47.2335 46.6888 47.1597 46.7207 47.0787C46.7526 46.9978 46.7684 46.9114 46.7666 46.8244C46.7648 46.7374 46.7451 46.6516 46.71 46.5721V46.5721Z" fill="white"/>
<path d="M33.3492 47.7121H26.9703C24.4213 47.6991 22.4525 47.6801 20.5855 47.6501C20.536 47.6484 20.4897 47.6279 20.4547 47.5929C20.4197 47.5578 20.3996 47.5107 20.398 47.4612C20.3965 47.4117 20.4132 47.3635 20.4459 47.3263C20.4786 47.2891 20.5245 47.2658 20.5738 47.2611C22.4898 47.1111 24.514 46.9691 26.942 46.8151L28.7174 46.7151C30.2484 46.6241 31.78 46.5321 33.317 46.4591L34.4361 46.4031C36.1581 46.3171 37.936 46.2271 39.692 46.1631L40.859 46.1191C42.127 46.0711 43.3946 46.0191 44.6676 45.9901L44.2457 45.2381L43.1031 43.2711L40.7672 39.3521C39.4202 37.1011 37.9478 34.7021 35.9918 31.5731C34.5078 29.1821 32.897 26.6731 31.068 23.8931C30.168 22.5111 29.3454 21.2671 28.5514 20.0931L26.651 17.3411L26.5299 17.5411L25.774 18.8001L15.3639 36.6381C15.3388 36.6814 15.2977 36.7135 15.2496 36.7275C15.2015 36.7416 15.1506 36.7366 15.1061 36.7136C15.0615 36.6905 15.0267 36.6512 15.0104 36.6038C14.994 36.5565 14.9973 36.5046 15.0182 36.4591C15.8592 34.6161 16.7756 32.7641 17.5836 31.1301C18.4346 29.4301 19.3405 27.6301 20.2535 25.8571L20.6197 25.1491C21.4047 23.6361 22.1888 22.1231 22.9908 20.6181L25.1197 16.7181C25.2397 16.5011 25.3676 16.2821 25.4986 16.0621L25.693 15.7341C25.793 15.5821 25.8926 15.4411 25.9986 15.3051C26.0597 15.2244 26.1359 15.1565 26.2232 15.1054C26.3106 15.0543 26.4072 15.0209 26.5074 15.0071C26.6077 14.9934 26.7104 14.9996 26.8082 15.0253C26.9061 15.051 26.9972 15.0958 27.0777 15.1571C27.1213 15.19 27.1614 15.2275 27.1969 15.2691L27.6422 15.8091C27.7422 15.9321 27.8314 16.0551 27.9254 16.1781L28.6842 17.2091L30.0191 19.0811C30.8391 20.2461 31.6925 21.4811 32.6295 22.8571C34.2895 25.3241 35.9772 27.9111 37.6412 30.5461C39.3612 33.2821 41.011 36.0461 42.399 38.3891C43.083 39.5411 43.8111 40.8051 44.6881 42.3681L46.7486 46.1991L46.8873 46.5081C46.9448 46.6379 46.9688 46.78 46.9576 46.9215C46.9464 47.063 46.9001 47.1995 46.8229 47.3187C46.7456 47.4378 46.6399 47.5358 46.5152 47.6038C46.3906 47.6718 46.251 47.7076 46.109 47.7081C43.929 47.6951 41.7902 47.6951 39.7242 47.7081L33.3492 47.7121ZM25.3219 47.3121L26.9713 47.3221H33.3482L39.7223 47.3011C41.7883 47.2881 43.9306 47.2891 46.0846 47.3011C46.1573 47.3088 46.2306 47.2949 46.2955 47.2611C46.4072 47.2112 46.4946 47.1191 46.5387 47.005C46.5827 46.8909 46.5801 46.764 46.5309 46.6521L46.2672 46.0861L45.4576 44.5501L44.3482 42.5431C43.4732 40.9841 42.7481 39.7221 42.0641 38.5731C40.6781 36.2321 39.0291 33.4731 37.3111 30.7391C35.6501 28.1071 33.9671 25.5241 32.3111 23.0611C31.3751 21.6881 30.5227 20.4551 29.7047 19.2921L27.6168 16.3981C27.5268 16.2781 27.4374 16.1581 27.3414 16.0381L26.9039 15.5071C26.8859 15.487 26.8666 15.4686 26.8453 15.4521C26.765 15.3917 26.6636 15.3656 26.5641 15.3795C26.4646 15.3933 26.3748 15.4461 26.3141 15.5261C26.2141 15.6561 26.114 15.7911 26.027 15.9261L25.8375 16.2451C25.7095 16.4621 25.5844 16.6771 25.4664 16.8911L24.7457 18.1911L23.3385 20.7911C22.5385 22.2911 21.7553 23.8051 20.9723 25.3171L20.6061 26.0241C19.6931 27.7941 18.7871 29.5971 17.9381 31.2921C17.7741 31.6241 17.6042 31.9661 17.4322 32.3151L26.1988 17.3291C26.2828 17.1881 26.3687 17.0531 26.4547 16.9181C26.4733 16.8882 26.4984 16.8627 26.5279 16.8435C26.5575 16.8243 26.5907 16.8119 26.6256 16.8071C26.658 16.8018 26.6912 16.8047 26.7223 16.8153C26.7533 16.826 26.7819 16.8441 26.8043 16.8681L27.5885 17.9801L28.8746 19.8641C29.6746 21.0451 30.4951 22.2911 31.3961 23.6741C33.2271 26.4531 34.8388 28.9681 36.3258 31.3621C38.2818 34.4921 39.7561 36.8931 41.1051 39.1471L43.442 43.0681L45.1686 46.0801C45.1831 46.1096 45.1902 46.1423 45.1891 46.1752C45.188 46.2081 45.1792 46.2403 45.1627 46.2688C45.1462 46.2973 45.1224 46.3213 45.0943 46.3386C45.0663 46.3559 45.0344 46.366 45.0016 46.3681C43.6226 46.4001 42.2486 46.4521 40.8756 46.5041L39.7076 46.5481C37.9576 46.6121 36.1786 46.7021 34.4576 46.7881L33.3375 46.8441C31.8065 46.9171 30.2757 47.0081 28.7447 47.1001L26.9723 47.2001C26.4023 47.2381 25.8509 47.2741 25.3219 47.3091V47.3121Z" fill="white"/>
<defs>
<linearGradient id="paint0_linear_2282_4608" x1="30.905" y1="0" x2="30.905" y2="61.81" gradientUnits="userSpaceOnUse">
<stop stop-color="#4DB8D1"/>
<stop offset="0.0001" stop-color="#4BB3CF"/>
<stop offset="0.396377" stop-color="#4BB3CF"/>
<stop offset="1" stop-color="#203D98"/>
</linearGradient>
</defs>
</svg>
