<svg width="7" height="14" viewBox="0 0 7 14" fill="none" xmlns="http://www.w3.org/2000/svg">
<path d="M5.82968 14C5.68028 14.0005 5.53267 13.9675 5.39769 13.9035C5.26271 13.8394 5.14379 13.746 5.04968 13.63L0.219676 7.62997C0.0725937 7.45104 -0.0078125 7.2266 -0.0078125 6.99497C-0.0078125 6.76335 0.0725937 6.5389 0.219676 6.35997L5.21968 0.359971C5.38941 0.155754 5.63333 0.0273295 5.89775 0.00294976C6.16218 -0.02143 6.42546 0.060232 6.62968 0.22997C6.83389 0.399709 6.96232 0.64362 6.9867 0.908047C7.01108 1.17247 6.92941 1.43575 6.75968 1.63997L2.28968 6.99997L6.60967 12.36C6.73196 12.5068 6.80964 12.6855 6.83351 12.875C6.85739 13.0646 6.82648 13.257 6.74442 13.4295C6.66237 13.6021 6.53261 13.7475 6.3705 13.8486C6.20839 13.9497 6.02071 14.0022 5.82968 14Z" fill="white"/>
</svg>
