<svg width="62" height="62" viewBox="0 0 62 62" fill="none" xmlns="http://www.w3.org/2000/svg">
<path d="M30.905 61.81C47.9734 61.81 61.81 47.9734 61.81 30.905C61.81 13.8366 47.9734 0 30.905 0C13.8366 0 0 13.8366 0 30.905C0 47.9734 13.8366 61.81 30.905 61.81Z" fill="url(#paint0_linear_2068_2108)"/>
<path d="M15.25 15.25V48.5L20.5 45L25.75 48.5L31 45L33.275 46.505C32.925 45.49 32.75 44.3875 32.75 43.25C32.7511 41.5704 33.1548 39.9156 33.9271 38.4242C34.6995 36.9327 35.8182 35.6482 37.1893 34.6781C38.5604 33.708 40.144 33.0807 41.8075 32.8488C43.471 32.6169 45.1658 32.787 46.75 33.345V15.25H15.25ZM39.75 22.25V25.75H22.25V22.25H39.75ZM36.25 29.25V32.75H22.25V29.25H36.25ZM37.125 43.25L41.9375 48.5L50.25 40.1525L48.22 37.685L41.9375 43.9675L39.155 41.185L37.125 43.25Z" fill="white"/>
<defs>
<linearGradient id="paint0_linear_2068_2108" x1="30.905" y1="0" x2="30.905" y2="61.81" gradientUnits="userSpaceOnUse">
<stop stop-color="#4DB8D1"/>
<stop offset="0.0001" stop-color="#4BB3CF"/>
<stop offset="0.396377" stop-color="#4BB3CF"/>
<stop offset="1" stop-color="#203D98"/>
</linearGradient>
</defs>
</svg>
