<svg width="51" height="43" viewBox="0 0 51 43" fill="none" xmlns="http://www.w3.org/2000/svg">
<path d="M24.9728 11.4287L20.3613 11.4287C16.4958 11.4287 14.5652 11.4287 13.3641 12.4542C12.1631 13.4797 12.1631 15.1282 12.1631 18.4287L12.1631 29.3662L40.8568 29.3662L40.8568 18.4287C40.8568 15.1282 40.8568 13.4797 39.6558 12.4542C38.4547 11.4287 36.524 11.4287 32.6586 11.4287L28.0471 11.4287L28.0471 20.1314L29.4408 18.7419C29.5721 18.6109 29.7324 18.5033 29.9125 18.4252C30.0925 18.3471 30.2888 18.3 30.4902 18.2867C30.6916 18.2734 30.894 18.2941 31.086 18.3475C31.278 18.401 31.4558 18.4863 31.6092 18.5984C31.7626 18.7106 31.8887 18.8474 31.9802 19.0012C32.0716 19.1549 32.1267 19.3225 32.1423 19.4945C32.158 19.6664 32.1337 19.8393 32.0711 20.0032C32.0085 20.1671 31.9086 20.3189 31.7773 20.4499L27.6782 24.5327C27.5339 24.6768 27.3547 24.7924 27.153 24.8718C26.9514 24.9511 26.732 24.9922 26.5099 24.9922C26.2879 24.9922 26.0685 24.9511 25.8668 24.8718C25.6652 24.7924 25.486 24.6768 25.3417 24.5327L21.2426 20.4499C21.1112 20.3189 21.0114 20.1671 20.9488 20.0032C20.8861 19.8393 20.8619 19.6664 20.8775 19.4945C20.8931 19.3225 20.9482 19.1549 21.0397 19.0012C21.1312 18.8474 21.2572 18.7106 21.4107 18.5984C21.5641 18.4863 21.7419 18.401 21.9339 18.3475C22.1259 18.2941 22.3283 18.2734 22.5297 18.2867C22.731 18.3 22.9273 18.3471 23.1074 18.4252C23.2875 18.5033 23.4477 18.6109 23.5791 18.7419L24.9728 20.1314L24.9728 11.4287ZM12.2246 31.9912L40.7953 31.9912C40.6887 33.3737 40.4079 34.2609 39.6558 34.9032C38.4547 35.9287 36.524 35.9287 32.6586 35.9287L20.3613 35.9287C16.4958 35.9287 14.5652 35.9287 13.3641 34.9032C12.6119 34.2609 12.3291 33.3754 12.2246 31.9912Z" fill="url(#paint0_linear_1992_2306)"/>
<path d="M13.9855 6.17868L39.033 6.17868C43.4395 6.17868 47.0057 9.32868 47.0057 13.2137C47.0057 15.4712 45.8027 17.4784 43.9314 18.7664L43.9314 18.2729C43.9314 16.7574 43.9314 15.3679 43.7531 14.2392C43.5584 12.9949 43.0973 11.6789 41.8306 10.5992C40.564 9.51593 39.0228 9.12218 37.5676 8.95418C36.2436 8.80368 34.6162 8.80368 32.8413 8.80368L20.1771 8.80368C18.4043 8.80368 16.7769 8.80368 15.455 8.95593C13.9977 9.12218 12.4565 9.51593 11.1919 10.5974C9.92324 11.6789 9.4621 12.9949 9.26534 14.2374C9.08908 15.3679 9.08908 16.7574 9.08908 18.2729L9.08908 18.7664C8.12314 18.0959 7.34554 17.2491 6.8135 16.2881C6.28146 15.3272 6.00852 14.2766 6.01475 13.2137C6.01475 9.32868 9.58302 6.17868 13.9855 6.17868Z" fill="url(#paint1_linear_1992_2306)"/>
<defs>
<linearGradient id="paint0_linear_1992_2306" x1="26.5099" y1="11.4287" x2="26.5099" y2="35.9287" gradientUnits="userSpaceOnUse">
<stop stop-color="#22429A"/>
<stop offset="1" stop-color="#46A7CA"/>
</linearGradient>
<linearGradient id="paint1_linear_1992_2306" x1="26.5102" y1="6.17868" x2="26.5102" y2="18.7664" gradientUnits="userSpaceOnUse">
<stop stop-color="#22429A"/>
<stop offset="1" stop-color="#46A7CA"/>
</linearGradient>
</defs>
</svg>
