<svg width="42" height="42" viewBox="0 0 42 42" fill="none" xmlns="http://www.w3.org/2000/svg">
<path d="M5.25 5.25V38.5L10.5 35L15.75 38.5L21 35L23.275 36.505C22.925 35.49 22.75 34.3875 22.75 33.25C22.7511 31.5704 23.1548 29.9156 23.9271 28.4242C24.6995 26.9327 25.8182 25.6482 27.1893 24.6781C28.5604 23.708 30.144 23.0807 31.8075 22.8488C33.471 22.6169 35.1658 22.787 36.75 23.345V5.25H5.25ZM29.75 12.25V15.75H12.25V12.25H29.75ZM26.25 19.25V22.75H12.25V19.25H26.25ZM27.125 33.25L31.9375 38.5L40.25 30.1525L38.22 27.685L31.9375 33.9675L29.155 31.185L27.125 33.25Z" fill="white"/>
</svg>
