<svg width="62" height="62" viewBox="0 0 62 62" fill="none" xmlns="http://www.w3.org/2000/svg">
<path d="M30.905 61.81C47.9734 61.81 61.81 47.9734 61.81 30.905C61.81 13.8366 47.9734 0 30.905 0C13.8366 0 0 13.8366 0 30.905C0 47.9734 13.8366 61.81 30.905 61.81Z" fill="url(#paint0_linear_2068_2123)"/>
<path d="M30.6309 20.5716L26.6934 20.5716C23.3929 20.5716 21.7444 20.5716 20.7189 21.5971C19.6934 22.6226 19.6934 24.2711 19.6934 27.5716L19.6934 38.5091L44.1934 38.5091L44.1934 27.5716C44.1934 24.2711 44.1934 22.6226 43.1679 21.5971C42.1424 20.5716 40.4939 20.5716 37.1934 20.5716L33.2559 20.5716L33.2559 29.2743L34.4459 27.8848C34.558 27.7539 34.6949 27.6462 34.8486 27.5681C35.0023 27.49 35.17 27.443 35.3419 27.4296C35.5138 27.4163 35.6867 27.437 35.8506 27.4905C36.0146 27.5439 36.1664 27.6292 36.2974 27.7413C36.4284 27.8535 36.536 27.9903 36.6141 28.1441C36.6922 28.2978 36.7392 28.4654 36.7526 28.6374C36.7659 28.8093 36.7452 28.9822 36.6917 29.1461C36.6383 29.3101 36.553 29.4619 36.4409 29.5928L32.9409 33.6756C32.8176 33.8197 32.6647 33.9354 32.4925 34.0147C32.3203 34.094 32.1329 34.1351 31.9434 34.1351C31.7538 34.1351 31.5664 34.094 31.3942 34.0147C31.222 33.9354 31.0691 33.8197 30.9459 33.6756L27.4459 29.5928C27.3337 29.4619 27.2485 29.3101 27.195 29.1461C27.1415 28.9822 27.1208 28.8093 27.1342 28.6374C27.1475 28.4654 27.1945 28.2978 27.2726 28.1441C27.3507 27.9903 27.4584 27.8535 27.5894 27.7413C27.7204 27.6292 27.8722 27.5439 28.0361 27.4905C28.2 27.437 28.3729 27.4163 28.5448 27.4296C28.7168 27.443 28.8844 27.49 29.0381 27.5681C29.1919 27.6462 29.3287 27.7539 29.4409 27.8848L30.6309 29.2743L30.6309 20.5716ZM19.7459 41.1341L44.1409 41.1341C44.0499 42.5166 43.8101 43.4038 43.1679 44.0461C42.1424 45.0716 40.4939 45.0716 37.1934 45.0716L26.6934 45.0716C23.3929 45.0716 21.7444 45.0716 20.7189 44.0461C20.0766 43.4038 19.8351 42.5183 19.7459 41.1341Z" fill="white"/>
<path d="M21.2492 15.3216L42.6359 15.3216C46.3984 15.3216 49.4434 18.4716 49.4434 22.3566C49.4434 24.6141 48.4162 26.6213 46.8184 27.9093L46.8184 27.4158C46.8184 25.9003 46.8184 24.5108 46.6662 23.3821C46.4999 22.1378 46.1062 20.8218 45.0247 19.7421C43.9432 18.6588 42.6272 18.2651 41.3847 18.0971C40.2542 17.9466 38.8647 17.9466 37.3492 17.9466L26.5359 17.9466C25.0222 17.9466 23.6327 17.9466 22.5039 18.0988C21.2597 18.2651 19.9437 18.6588 18.8639 19.7403C17.7807 20.8218 17.3869 22.1378 17.2189 23.3803C17.0684 24.5108 17.0684 25.9003 17.0684 27.4158L17.0684 27.9093C16.2437 27.2389 15.5797 26.392 15.1255 25.431C14.6712 24.4701 14.4381 23.4195 14.4434 22.3566C14.4434 18.4716 17.4902 15.3216 21.2492 15.3216Z" fill="white"/>
<defs>
<linearGradient id="paint0_linear_2068_2123" x1="30.905" y1="0" x2="30.905" y2="61.81" gradientUnits="userSpaceOnUse">
<stop stop-color="#4DB8D1"/>
<stop offset="0.0001" stop-color="#4BB3CF"/>
<stop offset="0.396377" stop-color="#4BB3CF"/>
<stop offset="1" stop-color="#203D98"/>
</linearGradient>
</defs>
</svg>
