<svg width="43" height="43" viewBox="0 0 43 43" fill="none" xmlns="http://www.w3.org/2000/svg">
<path d="M20.6309 10.5716L16.6934 10.5716C13.3929 10.5716 11.7444 10.5716 10.7189 11.5971C9.69336 12.6226 9.69336 14.2711 9.69336 17.5716L9.69336 28.5091L34.1934 28.5091L34.1934 17.5716C34.1934 14.2711 34.1934 12.6226 33.1679 11.5971C32.1424 10.5716 30.4939 10.5716 27.1934 10.5716L23.2559 10.5716L23.2559 19.2744L24.4459 17.8849C24.558 17.7539 24.6949 17.6463 24.8486 17.5681C25.0023 17.49 25.17 17.443 25.3419 17.4297C25.5138 17.4163 25.6867 17.437 25.8506 17.4905C26.0146 17.544 26.1664 17.6292 26.2974 17.7414C26.4284 17.8535 26.536 17.9904 26.6141 18.1441C26.6922 18.2978 26.7392 18.4655 26.7526 18.6374C26.7659 18.8093 26.7452 18.9822 26.6917 19.1461C26.6383 19.3101 26.553 19.4619 26.4409 19.5929L22.9409 23.6756C22.8176 23.8197 22.6647 23.9354 22.4925 24.0147C22.3203 24.094 22.1329 24.1351 21.9434 24.1351C21.7538 24.1351 21.5664 24.094 21.3942 24.0147C21.222 23.9354 21.0691 23.8197 20.9459 23.6756L17.4459 19.5929C17.3337 19.4619 17.2485 19.3101 17.195 19.1461C17.1415 18.9822 17.1208 18.8093 17.1342 18.6374C17.1475 18.4655 17.1945 18.2978 17.2726 18.1441C17.3507 17.9904 17.4584 17.8535 17.5894 17.7414C17.7204 17.6292 17.8722 17.544 18.0361 17.4905C18.2 17.437 18.3729 17.4163 18.5448 17.4297C18.7168 17.443 18.8844 17.49 19.0381 17.5681C19.1919 17.6463 19.3287 17.7539 19.4409 17.8849L20.6309 19.2744L20.6309 10.5716ZM9.74586 31.1341L34.1409 31.1341C34.0499 32.5166 33.8101 33.4039 33.1679 34.0461C32.1424 35.0716 30.4939 35.0716 27.1934 35.0716L16.6934 35.0716C13.3929 35.0716 11.7444 35.0716 10.7189 34.0461C10.0766 33.4039 9.83511 32.5184 9.74586 31.1341Z" fill="white"/>
<path d="M11.2492 5.32162L32.6359 5.32162C36.3984 5.32162 39.4434 8.47162 39.4434 12.3566C39.4434 14.6141 38.4162 16.6214 36.8184 17.9094L36.8184 17.4159C36.8184 15.9004 36.8184 14.5109 36.6662 13.3821C36.4999 12.1379 36.1062 10.8219 35.0247 9.74212C33.9432 8.65887 32.6272 8.26512 31.3847 8.09712C30.2542 7.94662 28.8647 7.94662 27.3492 7.94662L16.5359 7.94662C15.0222 7.94662 13.6327 7.94662 12.5039 8.09887C11.2597 8.26512 9.9437 8.65887 8.86395 9.74037C7.7807 10.8219 7.38695 12.1379 7.21895 13.3804C7.06845 14.5109 7.06845 15.9004 7.06845 17.4159L7.06845 17.9094C6.24368 17.2389 5.57974 16.392 5.12546 15.4311C4.67118 14.4701 4.43813 13.4195 4.44345 12.3566C4.44345 8.47162 7.4902 5.32162 11.2492 5.32162Z" fill="white"/>
</svg>
