<svg width="28" height="36" viewBox="0 0 28 36" fill="none" xmlns="http://www.w3.org/2000/svg">
<path d="M14 35.64L3.26328 22.9763C3.1141 22.7862 2.96646 22.5948 2.82038 22.4023C0.986353 19.9861 -0.0044306 17.0349 1.48946e-05 14.0014C1.48946e-05 10.288 1.47501 6.7267 4.10052 4.10092C6.72602 1.47515 10.287 0 14 0C17.713 0 21.274 1.47515 23.8995 4.10092C26.525 6.7267 28 10.288 28 14.0014C28.0044 17.0336 27.0141 19.9834 25.1809 22.3985L25.1796 22.4023C25.1796 22.4023 24.7978 22.9038 24.7405 22.9713L14 35.64ZM4.85292 20.8685C4.85292 20.8685 5.14946 21.2605 5.21692 21.3445L14 31.7043L22.7945 21.3305C22.8505 21.2605 23.1484 20.8659 23.1496 20.8647C24.6478 18.8906 25.4575 16.4797 25.4545 14.0014C25.4545 10.9632 24.2477 8.04938 22.0996 5.90101C19.9514 3.75265 17.0379 2.54571 14 2.54571C10.9621 2.54571 8.04856 3.75265 5.90042 5.90101C3.75228 8.04938 2.54547 10.9632 2.54547 14.0014C2.5428 16.4813 3.35336 18.8935 4.85292 20.8685Z" fill="url(#paint0_linear_1993_3221)"/>
<path d="M20.363 20.3657H17.8175V10.1828H10.1812V20.3657H7.63574V10.1828C7.63642 9.50784 7.90481 8.86072 8.38203 8.38345C8.85925 7.90618 9.50631 7.63776 10.1812 7.63708H17.8175C18.4924 7.63776 19.1395 7.90618 19.6167 8.38345C20.0939 8.86072 20.3623 9.50784 20.363 10.1828V20.3657Z" fill="url(#paint1_linear_1993_3221)"/>
<path d="M12.7275 17.8201H15.273V20.3658H12.7275V17.8201ZM12.7275 12.7286H15.273V15.2744H12.7275V12.7286Z" fill="url(#paint2_linear_1993_3221)"/>
<defs>
<linearGradient id="paint0_linear_1993_3221" x1="14" y1="0" x2="14" y2="35.64" gradientUnits="userSpaceOnUse">
<stop stop-color="#22429A"/>
<stop offset="1" stop-color="#47A8CA"/>
</linearGradient>
<linearGradient id="paint1_linear_1993_3221" x1="13.9994" y1="7.63708" x2="13.9994" y2="20.3657" gradientUnits="userSpaceOnUse">
<stop stop-color="#22429A"/>
<stop offset="1" stop-color="#47A8CA"/>
</linearGradient>
<linearGradient id="paint2_linear_1993_3221" x1="14.0003" y1="12.7286" x2="14.0003" y2="20.3658" gradientUnits="userSpaceOnUse">
<stop stop-color="#22429A"/>
<stop offset="1" stop-color="#47A8CA"/>
</linearGradient>
</defs>
</svg>
