<svg width="24" height="24" viewBox="0 0 24 24" fill="none" xmlns="http://www.w3.org/2000/svg">
<path d="M18.0007 2.78667C17.9248 2.73844 17.8399 2.70605 17.7512 2.69146C17.6625 2.67686 17.5717 2.68037 17.4844 2.70176C17.3971 2.72315 17.315 2.76199 17.243 2.81593C17.1711 2.86987 17.1108 2.93781 17.0658 3.01565C17.0208 3.0935 16.992 3.17964 16.9812 3.2689C16.9704 3.35815 16.9777 3.44868 17.0027 3.53503C17.0278 3.62138 17.07 3.70178 17.127 3.77137C17.1839 3.84097 17.2543 3.89833 17.334 3.94001L21.334 6.25334V17.7467L17.334 20.06C17.1815 20.148 17.07 20.2926 17.0238 20.4625C16.9776 20.6324 17.0004 20.8136 17.0873 20.9667C17.1309 21.0431 17.1891 21.1101 17.2587 21.1639C17.3282 21.2177 17.4078 21.2572 17.4926 21.2801C17.5775 21.303 17.6661 21.3089 17.7533 21.2975C17.8405 21.286 17.9246 21.2574 18.0007 21.2133L22.6673 18.5133V5.48667L18.0007 2.78667ZM6.45398 19.9333L2.66732 17.7467V6.25334L6.45398 4.06667C6.53365 4.025 6.60407 3.96763 6.661 3.89804C6.71792 3.82844 6.76018 3.74805 6.78524 3.6617C6.81029 3.57535 6.81761 3.48482 6.80677 3.39556C6.79593 3.30631 6.76714 3.22016 6.72215 3.14232C6.67715 3.06448 6.61687 2.99654 6.54494 2.9426C6.47301 2.88865 6.39091 2.84982 6.30358 2.82843C6.21624 2.80703 6.12549 2.80353 6.03677 2.81812C5.94805 2.83272 5.8632 2.8651 5.78732 2.91334L1.33398 5.48667V18.5133L5.78732 21.0867C5.86341 21.1308 5.94747 21.1593 6.03465 21.1708C6.12184 21.1823 6.21043 21.1763 6.29532 21.1534C6.38021 21.1305 6.45973 21.091 6.5293 21.0372C6.59886 20.9834 6.6571 20.9164 6.70065 20.84C6.78757 20.6869 6.81041 20.5057 6.7642 20.3358C6.71799 20.166 6.60647 20.0213 6.45398 19.9333Z" fill="url(#paint0_linear_2539_2923)"/>
<path d="M6.66602 8.00001V16C6.66602 16.3536 6.80649 16.6928 7.05654 16.9428C7.30659 17.1929 7.64573 17.3333 7.99935 17.3333H15.9993C16.353 17.3333 16.6921 17.1929 16.9422 16.9428C17.1922 16.6928 17.3327 16.3536 17.3327 16V8.00001C17.3327 7.64638 17.1922 7.30724 16.9422 7.0572C16.6921 6.80715 16.353 6.66667 15.9993 6.66667H7.99935C7.64573 6.66667 7.30659 6.80715 7.05654 7.0572C6.80649 7.30724 6.66602 7.64638 6.66602 8.00001ZM11.3327 8.00001V11.3333H7.99935V8.00001H11.3327ZM7.99935 12.6667H11.3327V16H7.99935V12.6667ZM12.666 16V12.6667H15.9993V16H12.666ZM15.9993 11.3333H12.666V8.00001H15.9993V11.3333Z" fill="url(#paint1_linear_2539_2923)"/>
<defs>
<linearGradient id="paint0_linear_2539_2923" x1="12.0007" y1="2.68262" x2="12.0007" y2="21.3031" gradientUnits="userSpaceOnUse">
<stop stop-color="#213D98"/>
<stop offset="1" stop-color="#4CB7D1"/>
</linearGradient>
<linearGradient id="paint1_linear_2539_2923" x1="11.9993" y1="6.66667" x2="11.9993" y2="17.3333" gradientUnits="userSpaceOnUse">
<stop stop-color="#213D98"/>
<stop offset="1" stop-color="#4CB7D1"/>
</linearGradient>
</defs>
</svg>
