<svg version="1.1" id="Layer_1" xmlns="http://www.w3.org/2000/svg" xmlns:xlink="http://www.w3.org/1999/xlink" x="0px" y="0px"
	 width="100%" viewBox="0 0 800 624" enable-background="new 0 0 800 624" xml:space="preserve">
<path fill="#000000" opacity="1.000000" stroke="none" 
	d="
M340.753296,507.480377 
	C353.659058,505.541626 366.141510,503.571869 378.662415,501.888367 
	C381.835846,501.461731 383.024719,500.081543 382.994141,497.082336 
	C382.939758,491.749756 382.973297,486.416290 382.972687,481.083191 
	C382.962494,393.583710 382.955902,306.084229 382.922394,218.584763 
	C382.921661,216.655212 383.463226,214.575592 381.723297,212.553970 
	C377.185089,213.661697 373.748322,216.944366 369.955322,219.412292 
	C354.453583,229.498566 339.148651,239.887344 323.643951,249.968964 
	C320.451660,252.044693 319.302521,254.400665 319.332855,258.159241 
	C319.493042,277.991089 319.276031,297.826447 319.504272,317.656952 
	C319.553833,321.964142 318.072357,323.068542 314.073029,323.040161 
	C303.798157,322.967224 303.799561,323.106567 303.794373,312.671173 
	C303.783936,291.671295 303.832550,270.670990 303.695587,249.671921 
	C303.673584,246.302933 304.742432,244.422287 307.670593,242.507553 
	C336.398499,223.722382 365.024780,204.780151 393.542328,185.677048 
	C397.211304,183.219299 399.689880,183.312012 403.213562,185.875717 
	C419.919525,198.030380 436.794281,209.954697 453.699280,221.832489 
	C456.333771,223.683517 457.253662,225.801300 457.242340,228.931168 
	C457.157867,252.263901 457.122681,275.597809 457.302338,298.929565 
	C457.333191,302.939575 455.714325,304.906586 452.278748,306.473419 
	C441.822052,311.242218 431.529541,316.371185 421.071442,321.136780 
	C417.549713,322.741577 416.260986,324.944397 416.268555,328.841156 
	C416.374573,383.340668 416.365906,437.840515 416.263428,492.340057 
	C416.255951,496.317291 417.186340,498.022369 421.553436,497.796112 
	C436.997314,496.995880 452.457733,496.514862 468.782532,495.878906 
	C468.782532,485.238922 468.782532,474.543457 468.782532,464.258453 
	C471.293152,463.093903 472.489594,464.158173 473.778503,464.860260 
	C497.334015,477.690186 520.901733,490.497833 544.435242,503.368011 
	C547.723572,505.166382 551.334534,505.758301 554.860901,506.698456 
	C580.558838,513.549683 604.818420,523.310913 624.810425,541.569092 
	C629.810913,546.135925 634.241333,551.223694 637.509460,557.264893 
	C635.552917,558.577026 634.374695,557.505005 633.283997,557.020325 
	C610.550537,546.919006 586.466248,541.944214 562.041992,538.396179 
	C535.333008,534.516296 508.436096,533.013428 481.474762,531.931824 
	C448.636078,530.614380 415.822540,531.285522 383.038818,532.528809 
	C349.783478,533.790039 316.572083,536.151489 283.396179,539.033813 
	C250.086578,541.927734 216.881622,545.701721 183.669312,549.455811 
	C177.563736,550.145874 171.503159,551.230835 165.417953,552.106812 
	C163.845383,552.333252 162.236786,552.682800 159.523483,551.381226 
	C165.562653,549.563843 170.546906,548.031006 175.550369,546.563660 
	C205.732208,537.712219 236.023224,529.259705 266.751221,522.494934 
	C271.468170,521.456482 273.179749,519.433411 273.159729,514.435791 
	C272.977386,468.936859 273.131317,423.436676 272.978333,377.937531 
	C272.960785,372.723938 274.179352,368.944672 278.321320,365.398804 
	C285.778198,359.015045 292.628082,351.919769 299.689636,345.078430 
	C301.674255,343.155731 303.767487,341.833160 306.703003,341.842896 
	C325.869263,341.906342 345.035797,341.871460 364.202209,341.901398 
	C365.151764,341.902863 366.100830,342.208405 366.963867,342.357422 
	C367.774231,344.570984 366.047363,345.168152 365.043488,346.125977 
	C355.881683,354.867401 346.730194,363.619965 337.513855,372.303650 
	C335.467407,374.231812 334.297302,376.257050 334.302368,379.233429 
	C334.373566,421.066406 334.341217,462.899567 334.352570,504.732666 
	C334.352814,505.691132 334.568634,506.649506 334.672577,507.513458 
	C336.752960,508.329071 338.546997,507.489716 340.753296,507.480377 
z"/>
<path fill="#000000" opacity="1.000000" stroke="none" 
	d="
M477.105652,114.839767 
	C484.454041,119.778580 491.439880,124.616676 498.589874,129.198700 
	C500.739532,130.576294 501.348999,132.192825 501.347687,134.547821 
	C501.318115,188.361328 501.332428,242.174850 501.319397,295.988373 
	C501.319183,296.953217 501.085236,297.917999 500.790710,300.193054 
	C495.646362,296.234344 491.006531,292.908508 486.679901,289.215698 
	C484.915955,287.710114 485.707489,285.108276 485.706207,282.987518 
	C485.678528,237.004440 485.614563,191.021057 485.795654,145.038696 
	C485.814362,140.291473 484.275574,137.527786 480.371613,134.922852 
	C459.590668,121.056671 439.002380,106.901817 418.339630,92.858299 
	C416.980469,91.934517 415.556671,91.105789 414.161835,90.232170 
	C412.370056,91.684769 413.053986,93.465912 413.047882,95.000214 
	C412.977844,112.660004 412.802673,130.322464 413.053040,147.978577 
	C413.129700,153.386551 411.659302,156.816132 406.687988,159.595810 
	C393.319550,167.070724 380.289581,175.150421 367.107971,182.960846 
	C365.721741,183.782227 364.413147,184.978531 362.499207,184.551697 
	C361.183594,182.780975 361.700562,180.723022 361.697784,178.803436 
	C361.660065,152.813049 361.745697,126.822166 361.595184,100.832603 
	C361.572937,96.989388 362.761566,94.297638 365.528900,91.699356 
	C375.122192,82.692177 384.600525,73.557129 393.922241,64.269630 
	C396.553040,61.648460 398.410187,61.439934 401.545441,63.586681 
	C426.558167,80.713074 451.702209,97.647575 477.105652,114.839767 
z"/>
<path fill="#000000" opacity="1.000000" stroke="none" 
	d="
M498.650635,344.423004 
	C489.858490,339.612823 481.455994,334.853149 472.900635,330.386322 
	C469.800781,328.767944 468.677612,326.648315 468.751221,323.246979 
	C468.922546,315.333008 468.805847,307.412781 468.805847,299.881531 
	C471.401215,298.745789 472.554688,299.909088 473.794983,300.642303 
	C497.291718,314.532898 520.735535,328.514069 544.320862,342.252380 
	C548.008484,344.400391 549.909119,346.569397 549.773132,351.124756 
	C549.577271,357.685425 550.230591,364.270111 549.326599,371.936218 
	C531.901550,362.471436 515.440674,353.530396 498.650635,344.423004 
z"/>
<path fill="#000000" opacity="1.000000" stroke="none" 
	d="
M475.812561,426.162537 
	C499.380402,438.970856 522.610413,451.635101 545.907898,464.174164 
	C548.614441,465.630890 549.673401,467.328674 549.560974,470.445526 
	C549.369568,475.750580 549.707825,481.074982 549.830566,486.391083 
	C549.864807,487.876923 549.928345,489.363464 548.514954,491.138977 
	C540.768005,486.958954 533.053528,482.823334 525.363953,478.641907 
	C508.114227,469.261932 490.931091,459.757141 473.590454,450.548706 
	C469.962158,448.621948 468.594696,446.284271 468.768005,442.288605 
	C469.032043,436.201569 468.837128,430.094635 468.837128,424.214264 
	C472.088959,423.154602 473.577148,425.210083 475.812561,426.162537 
z"/>
<path fill="#000000" opacity="1.000000" stroke="none" 
	d="
M493.795776,356.117554 
	C511.236053,365.575989 528.315857,374.925812 545.500549,384.078644 
	C548.401672,385.623871 549.649292,387.458466 549.484619,390.713531 
	C549.152039,397.285614 550.788391,403.909485 549.321899,410.376831 
	C547.139465,411.365387 545.840149,409.987244 544.474915,409.244354 
	C520.794678,396.358917 497.173248,383.364746 473.436859,370.583923 
	C470.040070,368.754913 468.591736,366.624756 468.761719,362.767456 
	C469.030518,356.667633 468.833313,350.547241 468.833313,343.541412 
	C478.356934,346.597778 485.539703,352.048157 493.795776,356.117554 
z"/>
<path fill="#000000" opacity="1.000000" stroke="none" 
	d="
M493.622314,421.442139 
	C486.423706,417.533539 479.595154,413.715393 472.665497,410.090576 
	C469.998199,408.695312 468.727509,406.875122 468.794556,403.796356 
	C468.938171,397.204346 468.838593,390.607056 468.838593,384.245789 
	C471.699188,383.298523 473.098450,384.809174 474.621338,385.632690 
	C498.336945,398.456757 522.001465,411.375488 545.749329,424.139313 
	C548.446228,425.588806 549.415161,427.266846 549.557373,430.325867 
	C549.873291,437.116180 549.669739,443.851959 549.328369,451.698303 
	C530.353577,441.388397 512.152771,431.499054 493.622314,421.442139 
z"/>
</svg>