<svg width="63" height="62" viewBox="0 0 63 62" fill="none" xmlns="http://www.w3.org/2000/svg">
<path d="M31.8191 61.81C48.8874 61.81 62.7241 47.9734 62.7241 30.905C62.7241 13.8366 48.8874 0 31.8191 0C14.7507 0 0.914062 13.8366 0.914062 30.905C0.914062 47.9734 14.7507 61.81 31.8191 61.81Z" fill="url(#paint0_linear_1814_1948)"/>
<path d="M26.1409 36.077C26.4099 35.646 26.6569 35.246 26.9079 34.85C30.9529 28.5461 36.2518 23.1421 42.4749 18.974C43.7489 18.101 45.0679 17.29 46.3849 16.483C46.7627 16.2716 47.166 16.1093 47.5849 16C47.8031 15.9185 48.0406 15.9044 48.2669 15.9595C48.4931 16.0146 48.6976 16.1364 48.8539 16.309C49.0068 16.4934 49.1032 16.7181 49.1314 16.956C49.1596 17.1939 49.1185 17.4349 49.0129 17.65C48.8674 18.03 48.6288 18.3673 48.3189 18.631C42.051 23.7546 36.6706 29.8763 32.3939 36.75C30.906 39.0335 29.685 41.4801 28.7549 44.042C28.5919 44.5586 28.2732 45.0122 27.8424 45.3407C27.4117 45.6692 26.8899 45.8566 26.3486 45.8771C25.8073 45.8977 25.2728 45.7505 24.8184 45.4557C24.3639 45.1608 24.0117 44.7327 23.8099 44.23C22.1635 40.578 20.04 37.1606 17.4949 34.067C16.8609 33.3 16.1639 32.584 15.4839 31.856C15.0241 31.4071 14.701 30.8371 14.5519 30.212C14.4846 29.9471 14.4741 29.6709 14.5209 29.4016C14.5678 29.1323 14.671 28.876 14.8239 28.6494C14.9768 28.4228 15.1758 28.2311 15.4079 28.0868C15.6401 27.9424 15.9001 27.8488 16.1709 27.812C17.0408 27.6776 17.9293 27.8773 18.6579 28.371C20.6264 29.6237 22.3709 31.1975 23.8189 33.027C24.5379 33.907 25.2009 34.833 25.8889 35.738C25.9609 35.836 26.0359 35.937 26.1409 36.077Z" fill="white"/>
<defs>
<linearGradient id="paint0_linear_1814_1948" x1="31.8191" y1="0" x2="31.8191" y2="61.81" gradientUnits="userSpaceOnUse">
<stop stop-color="#4DB8D1"/>
<stop offset="0.0001" stop-color="#4BB3CF"/>
<stop offset="0.396377" stop-color="#4BB3CF"/>
<stop offset="1" stop-color="#203D98"/>
</linearGradient>
</defs>
</svg>
