<svg width="22" height="22" viewBox="0 0 22 22" fill="none" xmlns="http://www.w3.org/2000/svg">
<rect width="22" height="22" rx="2" fill="#F9F9FA"/>
<path d="M11 14.066L7.96743 11.0326L8.57343 10.4163L10.5714 12.4143V5H11.4286V12.4143L13.4257 10.4171L14.0326 11.0326L11 14.066ZM6.38429 17C5.99 17 5.66086 16.868 5.39686 16.604C5.13229 16.3394 5 16.01 5 15.6157V13.5389H5.85714V15.6157C5.85714 15.7471 5.912 15.868 6.02171 15.9783C6.132 16.088 6.25286 16.1429 6.38429 16.1429H15.6157C15.7471 16.1429 15.868 16.088 15.9783 15.9783C16.088 15.868 16.1429 15.7471 16.1429 15.6157V13.5389H17V15.6157C17 16.01 16.868 16.3391 16.604 16.6031C16.3394 16.8677 16.01 17 15.6157 17H6.38429Z" fill="#4B6FFF"/>
</svg>
