<svg width="30" height="31" viewBox="0 0 30 31" fill="none" xmlns="http://www.w3.org/2000/svg">
<g filter="url(#filter0_d_2904_4139)">
<path fill-rule="evenodd" clip-rule="evenodd" d="M21.4164 8.53923C21.5387 8.43743 21.6963 8.38833 21.8547 8.40273C22.0132 8.41714 22.1594 8.49385 22.2612 8.61603L24.7608 11.616C24.8582 11.7387 24.9037 11.8946 24.8877 12.0505C24.8716 12.2063 24.7953 12.3496 24.6749 12.4499C24.5546 12.5502 24.3998 12.5994 24.2437 12.5871C24.0875 12.5748 23.9424 12.5019 23.8392 12.384L21.3396 9.38403C21.2378 9.2618 21.1887 9.10414 21.2031 8.94573C21.2176 8.78731 21.2943 8.6411 21.4164 8.53923Z" fill="#434E4E"/>
<path fill-rule="evenodd" clip-rule="evenodd" d="M21.4164 15.4608C21.2943 15.3589 21.2176 15.2127 21.2031 15.0543C21.1887 14.8959 21.2378 14.7382 21.3396 14.616L23.8392 11.616C23.889 11.5533 23.9507 11.5012 24.0209 11.4628C24.091 11.4243 24.1682 11.4003 24.2478 11.3921C24.3274 11.3839 24.4078 11.3917 24.4843 11.415C24.5608 11.4384 24.6319 11.4768 24.6934 11.528C24.7548 11.5792 24.8054 11.6422 24.8422 11.7133C24.8789 11.7843 24.9011 11.862 24.9074 11.9418C24.9137 12.0215 24.904 12.1017 24.8788 12.1777C24.8536 12.2536 24.8135 12.3238 24.7608 12.384L22.2612 15.384C22.1594 15.5061 22.0132 15.5829 21.8547 15.5973C21.6963 15.6117 21.5387 15.5626 21.4164 15.4608Z" fill="#434E4E"/>
<path fill-rule="evenodd" clip-rule="evenodd" d="M24 12C24 12.1591 23.9367 12.3117 23.8242 12.4243C23.7117 12.5368 23.5591 12.6 23.4 12.6H14.4C14.2408 12.6 14.0882 12.5368 13.9757 12.4243C13.8632 12.3117 13.8 12.1591 13.8 12C13.8 11.8409 13.8632 11.6883 13.9757 11.5757C14.0882 11.4632 14.2408 11.4 14.4 11.4H23.4C23.5591 11.4 23.7117 11.4632 23.8242 11.5757C23.9367 11.6883 24 11.8409 24 12ZM7.19995 3.6C7.19995 3.44087 7.26317 3.28826 7.37569 3.17574C7.48821 3.06321 7.64082 3 7.79995 3H18.6C18.7591 3 18.9117 3.06321 19.0242 3.17574C19.1367 3.28826 19.2 3.44087 19.2 3.6C19.2 3.75913 19.1367 3.91174 19.0242 4.02426C18.9117 4.13679 18.7591 4.2 18.6 4.2H7.79995C7.64082 4.2 7.48821 4.13679 7.37569 4.02426C7.26317 3.91174 7.19995 3.75913 7.19995 3.6ZM7.19995 20.4C7.19995 20.2409 7.26317 20.0883 7.37569 19.9757C7.48821 19.8632 7.64082 19.8 7.79995 19.8H18.6C18.7591 19.8 18.9117 19.8632 19.0242 19.9757C19.1367 20.0883 19.2 20.2409 19.2 20.4C19.2 20.5591 19.1367 20.7117 19.0242 20.8243C18.9117 20.9368 18.7591 21 18.6 21H7.79995C7.64082 21 7.48821 20.9368 7.37569 20.8243C7.26317 20.7117 7.19995 20.5591 7.19995 20.4Z" fill="#434E4E"/>
<path fill-rule="evenodd" clip-rule="evenodd" d="M18.6 3C18.7591 3 18.9117 3.06321 19.0242 3.17574C19.1367 3.28826 19.2 3.44087 19.2 3.6V8.4C19.2 8.55913 19.1367 8.71174 19.0242 8.82426C18.9117 8.93679 18.7591 9 18.6 9C18.4408 9 18.2882 8.93679 18.1757 8.82426C18.0632 8.71174 18 8.55913 18 8.4V3.6C18 3.44087 18.0632 3.28826 18.1757 3.17574C18.2882 3.06321 18.4408 3 18.6 3ZM18.6 15C18.7591 15 18.9117 15.0632 19.0242 15.1757C19.1367 15.2883 19.2 15.4409 19.2 15.6V20.4C19.2 20.5591 19.1367 20.7117 19.0242 20.8243C18.9117 20.9368 18.7591 21 18.6 21C18.4408 21 18.2882 20.9368 18.1757 20.8243C18.0632 20.7117 18 20.5591 18 20.4V15.6C18 15.4409 18.0632 15.2883 18.1757 15.1757C18.2882 15.0632 18.4408 15 18.6 15ZM7.79995 3C7.95908 3 8.11169 3.06321 8.22422 3.17574C8.33674 3.28826 8.39995 3.44087 8.39995 3.6V20.4C8.39995 20.5591 8.33674 20.7117 8.22422 20.8243C8.11169 20.9368 7.95908 21 7.79995 21C7.64082 21 7.48821 20.9368 7.37569 20.8243C7.26317 20.7117 7.19995 20.5591 7.19995 20.4V3.6C7.19995 3.44087 7.26317 3.28826 7.37569 3.17574C7.48821 3.06321 7.64082 3 7.79995 3Z" fill="#434E4E"/>
<path d="M4.37997 1.69547C4.26428 1.57963 4.19935 1.42257 4.19946 1.25885C4.19958 1.09513 4.26472 0.93816 4.38057 0.822472C4.49641 0.706785 4.65347 0.641855 4.81719 0.641968C4.98091 0.64208 5.13788 0.707226 5.25357 0.823072L25.6188 21.1883C25.7345 21.304 25.7994 21.4609 25.7994 21.6245C25.7994 21.7881 25.7345 21.945 25.6188 22.0607C25.5031 22.1764 25.3462 22.2414 25.1826 22.2414C25.019 22.2414 24.8621 22.1764 24.7464 22.0607L4.37997 1.69547Z" fill="#434E4E"/>
</g>
<defs>
<filter id="filter0_d_2904_4139" x="-1" y="0" width="32" height="32" filterUnits="userSpaceOnUse" color-interpolation-filters="sRGB">
<feFlood flood-opacity="0" result="BackgroundImageFix"/>
<feColorMatrix in="SourceAlpha" type="matrix" values="0 0 0 0 0 0 0 0 0 0 0 0 0 0 0 0 0 0 127 0" result="hardAlpha"/>
<feOffset dy="4"/>
<feGaussianBlur stdDeviation="2"/>
<feComposite in2="hardAlpha" operator="out"/>
<feColorMatrix type="matrix" values="0 0 0 0 0 0 0 0 0 0 0 0 0 0 0 0 0 0 0.25 0"/>
<feBlend mode="normal" in2="BackgroundImageFix" result="effect1_dropShadow_2904_4139"/>
<feBlend mode="normal" in="SourceGraphic" in2="effect1_dropShadow_2904_4139" result="shape"/>
</filter>
</defs>
</svg>
