<svg width="30" height="34" viewBox="0 0 30 34" fill="none" xmlns="http://www.w3.org/2000/svg">
<path d="M4.61538 0C2.07115 0 0 2.34731 0 5.23077V28.7692C0 31.6527 2.07115 34 4.61538 34H19.6154C20.8419 34 22.545 31.9927 24.5192 29.7095C24.7962 29.3904 25.0615 29.0909 25.3488 28.7692C25.6327 28.4449 25.9327 28.1023 26.2142 27.7885C28.23 25.5497 30 23.6208 30 22.2308V5.23077C30 2.34731 27.9288 0 25.3846 0H4.61538ZM4.61538 2.61538H25.3846C25.9967 2.61538 26.5836 2.89093 27.0164 3.38141C27.4492 3.87189 27.6923 4.53713 27.6923 5.23077V22.2308C27.6923 23.5319 26.5362 23.5385 25.3846 23.5385H21.9231C21.2873 23.5385 20.7692 24.1256 20.7692 24.8462V28.8516C20.7692 30.0115 20.7715 31.144 19.9396 31.3846H4.61538C4.00335 31.3846 3.41638 31.1091 2.9836 30.6186C2.55082 30.1281 2.30769 29.4629 2.30769 28.7692V5.23077C2.30769 4.53713 2.55082 3.87189 2.9836 3.38141C3.41638 2.89093 4.00335 2.61538 4.61538 2.61538ZM7.86115 10.4615C7.55513 10.494 7.27302 10.6628 7.07686 10.931C6.8807 11.1992 6.78658 11.5447 6.81519 11.8915C6.8438 12.2383 6.99281 12.5581 7.22943 12.7804C7.46605 13.0027 7.7709 13.1094 8.07692 13.0769H21.9231C22.2291 13.0769 22.5226 12.9391 22.739 12.6939C22.9554 12.4487 23.0769 12.1161 23.0769 11.7692C23.0769 11.4224 22.9554 11.0898 22.739 10.8446C22.5226 10.5993 22.2291 10.4615 21.9231 10.4615H8.07692C8.04079 10.4596 8.0046 10.4596 7.96846 10.4615C7.93271 10.4597 7.8969 10.4597 7.86115 10.4615ZM7.86115 17C7.55513 17.0324 7.27302 17.2013 7.07686 17.4695C6.8807 17.7376 6.78658 18.0831 6.81519 18.43C6.8438 18.7768 6.99281 19.0965 7.22943 19.3188C7.46605 19.5411 7.7709 19.6478 8.07692 19.6154H19.6154C19.9214 19.6154 20.2149 19.4776 20.4313 19.2324C20.6477 18.9871 20.7692 18.6545 20.7692 18.3077C20.7692 17.9609 20.6477 17.6283 20.4313 17.383C20.2149 17.1378 19.9214 17 19.6154 17H8.07692C8.04079 16.9981 8.0046 16.9981 7.96846 17C7.93271 16.9981 7.8969 16.9981 7.86115 17Z" fill="#00888D"/>
<path opacity="0.3" d="M28 5C28 3.34314 26.6569 2 25 2H5C3.34315 2 2 3.34315 2 5V21C2 22.6569 3.34315 24 5 24H25C26.6569 24 28 22.6569 28 21V11.159V9.76471V5Z" fill="#A4EAE4"/>
</svg>
