<svg width="24" height="24" viewBox="0 0 24 24" fill="none" xmlns="http://www.w3.org/2000/svg">
<g clip-path="url(#clip0_2904_4262)">
<path d="M19.282 14.8368L18.9419 14.7257C18.9072 14.7145 18.8704 14.7192 18.8385 14.7389C18.8066 14.7585 18.7818 14.7916 18.7689 14.8319L18.5907 15.3877C18.4449 15.842 18.3025 16.2797 18.1687 16.7201C18.1295 16.8473 18.0932 16.8869 17.9467 16.8903C17.3845 16.8827 16.823 16.8834 16.2608 16.8848H15.4265C15.3931 16.8848 15.3596 16.8848 15.325 16.8771L15.5424 15.7177C15.5505 15.6724 15.5434 15.625 15.5227 15.586C15.5019 15.547 15.4692 15.5194 15.4317 15.5093L15.0316 15.403C14.9946 15.3932 14.956 15.4011 14.9237 15.425C14.8915 15.4488 14.8681 15.4867 14.8586 15.5308C14.8327 15.6517 14.8061 15.7705 14.7802 15.8872C14.7185 16.1602 14.6602 16.4186 14.6182 16.6868C14.5905 16.8646 14.5519 16.8952 14.406 16.8952C13.1727 16.8848 11.8483 16.8841 10.3561 16.8952C10.2287 16.8952 10.2149 16.873 10.2143 16.8723C10.2137 16.8716 10.2005 16.8466 10.2103 16.7514C10.2204 16.6272 10.2227 16.5023 10.2172 16.3777C10.2172 16.3235 10.2172 16.2686 10.2172 16.2116C10.2172 16.1886 10.2134 16.1658 10.2061 16.1445C10.1987 16.1232 10.188 16.1038 10.1744 16.0876C10.1609 16.0713 10.1448 16.0584 10.1271 16.0497C10.1094 16.0409 10.0904 16.0365 10.0713 16.0366H9.64811C9.62903 16.0366 9.61014 16.0411 9.59251 16.0499C9.57488 16.0587 9.55886 16.0716 9.54537 16.0878C9.53188 16.1041 9.52118 16.1234 9.51387 16.1446C9.50657 16.1659 9.50282 16.1886 9.50282 16.2116V16.8834H9.00582C7.73736 16.8869 6.47237 16.8889 5.22121 16.8792C5.17933 16.8488 5.14568 16.8044 5.12434 16.7514L5.10186 16.6305C4.97905 15.9754 4.8522 15.2981 4.77379 14.6277C4.71613 14.1226 4.68327 13.6176 4.64983 13.082C4.63945 12.9069 4.62791 12.7298 4.61638 12.5505H7.36662C7.40515 12.5505 7.44211 12.5321 7.46936 12.4992C7.4966 12.4664 7.51192 12.4219 7.51192 12.3754V11.8496C7.512 11.8265 7.5083 11.8037 7.50103 11.7824C7.49376 11.761 7.48307 11.7417 7.46957 11.7253C7.45607 11.709 7.44002 11.696 7.42236 11.6872C7.40469 11.6783 7.38575 11.6738 7.36662 11.6738H4.63714C4.63714 11.5842 4.63714 11.5085 4.63714 11.4327C4.67828 10.1378 4.82897 8.85121 5.08686 7.59309C5.13126 7.3687 5.17161 7.33398 5.35842 7.3312C6.28497 7.34371 7.21152 7.34162 8.13922 7.34023H9.09691C9.48898 7.33676 9.49417 7.34023 9.50743 7.83417C9.50944 7.88084 9.51426 7.92728 9.52184 7.97312L9.52934 8.02383C9.53458 8.06519 9.55194 8.10292 9.57827 8.13019C9.60461 8.15746 9.63818 8.17247 9.6729 8.17249H10.0252C10.0492 8.17265 10.0729 8.16555 10.094 8.15184C10.1152 8.13812 10.1332 8.11823 10.1463 8.09398C10.2136 7.94237 10.2354 7.76741 10.208 7.59867C10.2016 7.50419 10.193 7.38608 10.2195 7.35204C10.2281 7.34093 10.2633 7.30202 10.408 7.30966C10.4274 7.31014 10.4467 7.30597 10.4647 7.29739C10.4827 7.2888 10.4991 7.27597 10.513 7.25965C10.5269 7.24344 10.538 7.224 10.5455 7.20251C10.553 7.18102 10.5569 7.15793 10.5568 7.13461V6.66497C10.5568 6.63982 10.5523 6.61498 10.5435 6.59212C10.5348 6.56927 10.5221 6.54894 10.5063 6.53253C10.4905 6.51611 10.472 6.50401 10.4519 6.49702C10.4319 6.49002 10.4108 6.4883 10.3902 6.49199C10.3412 6.50861 10.289 6.50495 10.242 6.48158C10.2103 6.44824 10.2109 6.28011 10.2114 6.19953C10.2172 5.08383 10.2172 3.96744 10.2166 2.85105V1.35536C10.2166 1.28241 10.2201 1.20877 10.2241 1.13027C11.1674 1.32067 12.0249 1.9056 12.6457 2.78227C12.6724 2.81525 12.7087 2.83426 12.7469 2.83517C12.7851 2.83608 12.8221 2.81881 12.8498 2.78713L13.1635 2.43006C13.1779 2.41332 13.1894 2.39317 13.1971 2.37087C13.2049 2.34857 13.2087 2.32461 13.2084 2.30044C13.2082 2.27628 13.2038 2.25243 13.1956 2.23039C13.1873 2.20836 13.1754 2.18859 13.1606 2.17233L12.6613 1.62768L13.0856 1.77286C13.1204 1.78422 13.1575 1.77946 13.1895 1.75953C13.2215 1.7396 13.2462 1.70594 13.2586 1.66518L13.3912 1.23725C13.4046 1.19463 13.4036 1.14744 13.3885 1.10568C13.3734 1.06391 13.3455 1.03087 13.3105 1.01356C11.554 0.20022 9.63958 0.0174244 7.79869 0.487272C5.95781 0.95712 4.26933 2.05949 2.93741 3.66108C1.54335 5.3171 0.589991 7.43566 0.198826 9.74685C-0.192338 12.058 -0.00360915 14.4572 0.740963 16.6387C1.48554 18.8202 2.75225 20.6853 4.3797 21.9962C6.00715 23.3072 7.92166 24.0047 9.87932 23.9999C12.0656 23.9979 14.1887 23.1156 15.9111 21.4931C17.6336 19.8706 18.8566 17.6011 19.3858 15.0452C19.3943 15.001 19.3882 14.9546 19.3688 14.9158C19.3495 14.8769 19.3184 14.8486 19.282 14.8368ZM5.48412 6.10436C5.62653 5.68754 5.7603 5.29988 5.91424 4.9171C6.35517 3.73561 7.03394 2.70548 7.88899 1.92014C8.32403 1.52393 8.83088 1.25774 9.3679 1.14346C9.40738 1.13493 9.44723 1.12914 9.48725 1.12609V6.44198H5.36822L5.48412 6.10436ZM6.97513 22.5202C4.88778 21.7222 3.1176 20.0256 2.00278 17.7546H2.84341C3.38712 17.7546 3.93026 17.7546 4.47282 17.7469C4.59332 17.7469 4.62157 17.7712 4.66712 17.9345C5.08013 19.5632 5.80086 21.0544 6.77275 22.291C6.83848 22.3697 6.90594 22.4464 6.97513 22.5209V22.5202ZM3.85185 12.5679L4.34078 16.8855H3.56356C2.96047 16.8855 2.35795 16.8855 1.75601 16.8751C1.68968 16.8656 1.62834 16.8279 1.58304 16.7688C1.06236 15.4537 0.772441 14.0234 0.731435 12.5672L3.85185 12.5679ZM4.3131 6.48436C3.99887 6.47116 3.67887 6.46768 3.3681 6.46768C3.15707 6.46768 2.94798 6.46884 2.7408 6.47115C2.52862 6.47115 2.31297 6.47532 2.10368 6.47463H2.02064C2.55455 4.76843 5.2679 2.19316 7.07661 1.59989C7.00915 1.66936 6.94285 1.74299 6.87885 1.81732C5.8791 3.02348 5.13938 4.506 4.7242 6.13561C4.63829 6.43086 4.55929 6.49409 4.30963 6.48436H4.3131ZM3.97754 7.34371H4.33962L3.84954 11.6509H0.728558C0.736054 11.5557 0.743546 11.4605 0.750465 11.366C0.775834 11.0277 0.800626 10.6936 0.83868 10.3615C0.959065 9.36639 1.20504 8.3993 1.56805 7.49377C1.59614 7.43166 1.63859 7.38073 1.69027 7.34719C2.44904 7.33746 3.21126 7.34024 3.97407 7.34371H3.97754ZM9.48783 17.7761V23.0906C8.82045 22.9875 8.1932 22.6492 7.68488 22.118C6.59661 20.9618 5.80273 19.4575 5.39533 17.7796L9.48783 17.7761ZM10.2132 17.9602C10.2132 17.8108 10.2281 17.7761 10.2351 17.7678C10.242 17.7594 10.2599 17.742 10.3654 17.742H10.3746C11.2971 17.7539 12.2196 17.7525 13.1421 17.7511H14.248C14.2826 17.7511 14.3172 17.7511 14.3524 17.7553C13.9378 19.4416 13.137 20.9529 12.042 22.1159C11.547 22.6345 10.9393 22.972 10.2904 23.0885C10.2691 23.092 10.2472 23.094 10.2241 23.0954C10.2212 23.0364 10.2183 22.985 10.2183 22.9329V21.483C10.216 20.3097 10.2166 19.1349 10.2097 17.963L10.2132 17.9602ZM17.7086 17.7518C17.0132 19.6205 14.3841 22.1229 12.6348 22.6474C12.7605 22.5126 12.8861 22.3743 13.0032 22.2305C13.943 21.0213 14.6415 19.5695 15.0454 17.9859C15.1031 17.79 15.1463 17.7448 15.3037 17.7448H15.3227C15.9425 17.7566 16.5629 17.7552 17.1949 17.7532L17.7086 17.7518Z" fill="#434E4E"/>
<path d="M21.7514 11.6905C21.7214 11.4126 21.6938 11.1549 21.643 10.8923C21.2298 8.91779 20.5308 7.04656 19.5783 5.3645C18.899 4.02954 18.0557 2.82633 17.0772 1.7958C16.6745 1.33855 16.1877 1.00286 15.6565 0.816264C15.4069 0.716717 15.1351 0.73646 14.8972 0.871428C14.6593 1.0064 14.4735 1.24627 14.3782 1.54152C14.3245 1.66498 14.2639 1.78384 14.1966 1.89722C13.2576 3.54645 12.3178 5.19451 11.3772 6.84142C11.185 7.17627 10.9928 7.51044 10.8006 7.8439C10.4276 8.48928 10.0511 9.13535 9.69069 9.78906C9.55135 10.042 9.45911 10.3283 9.42028 10.6283C9.39665 10.8263 9.36608 10.8923 9.26979 10.9492C9.15185 11.0218 9.04023 11.1084 8.93655 11.2076C8.63472 11.4647 8.40257 11.8234 8.26924 12.2388C8.1359 12.6541 8.10728 13.1077 8.18699 13.5426C8.2761 14.0755 8.51475 14.5552 8.86282 14.901C9.21089 15.2469 9.64717 15.4379 10.0983 15.4419C10.5238 15.4289 10.9372 15.2685 11.289 14.9799C11.3395 14.9406 11.3947 14.9106 11.4527 14.891C11.7734 15.0951 12.1461 15.1467 12.4969 15.0355L12.6185 15.0146C14.1649 14.7715 15.8589 14.5172 17.9489 14.2164C18.8651 14.0851 19.7628 13.9754 20.7568 13.8566C20.9655 13.8403 21.1648 13.7462 21.327 13.5874C21.4893 13.4285 21.6066 13.2128 21.6626 12.9701C21.7115 12.7737 21.7455 12.5723 21.7641 12.3685C21.7733 12.2858 21.7826 12.2039 21.7947 12.124L21.7987 12.0955L21.7952 12.067C21.7785 11.9406 21.7653 11.8141 21.7514 11.6905ZM17.5609 7.46667C17.7497 7.77907 17.8407 8.16181 17.8179 8.54725C17.7951 8.9327 17.66 9.29601 17.4363 9.57301L16.0803 6.87477C16.3475 6.77611 16.6336 6.7801 16.8989 6.88616C17.1642 6.99221 17.3956 7.19509 17.5609 7.46667ZM18.179 7.03804C17.7085 6.13075 16.9019 5.79521 15.7793 6.03766C15.3447 4.98284 15.0679 3.84389 14.9617 2.67319C14.9514 2.42112 14.9759 2.16876 15.0344 1.9264C15.0495 1.81937 15.0993 1.72396 15.1727 1.66103C15.2104 1.63988 15.2512 1.62787 15.2928 1.62573C15.3343 1.62358 15.3758 1.63133 15.4149 1.64852C15.6549 1.72324 15.8842 1.84154 16.0947 1.99935C16.9498 2.71704 17.6918 3.61289 18.2857 4.64477C19.4076 6.38109 20.2607 8.34679 20.8041 10.4476C20.9051 10.9098 20.9757 11.3809 21.0151 11.8565L21.0474 12.1608C21.0559 12.3299 21.0375 12.4995 20.9932 12.6603C20.9258 12.95 20.8064 13.0375 20.566 12.9736C20.4045 12.9321 20.249 12.8619 20.1047 12.7652C19.2494 12.1131 18.5056 11.2696 17.9138 10.2802C18.2722 9.86712 18.496 9.31304 18.5446 8.7183C18.5933 8.12356 18.4636 7.5275 18.179 7.03804ZM19.2255 13.1514L19.147 13.1639C18.8709 13.207 18.5958 13.2501 18.3214 13.2911L16.7105 13.528C15.2777 13.7364 13.7965 13.9538 12.3418 14.1935C12.2021 14.2246 12.0582 14.2147 11.9224 14.1645C11.7866 14.1143 11.6628 14.0253 11.5617 13.9052C10.8947 13.1891 10.4155 12.2544 10.1825 11.2153C10.1341 11.0261 10.1257 10.8254 10.158 10.6312C10.1903 10.4371 10.2624 10.2558 10.3676 10.1038C11.297 8.5247 12.219 6.90188 13.1109 5.33185C13.4346 4.76173 13.7586 4.19184 14.083 3.62218L14.2704 3.29634C15.0246 7.12619 16.7578 10.5741 19.2255 13.1535V13.1514ZM10.8352 14.281C10.6557 14.4442 10.4421 14.5444 10.2183 14.5705C9.99442 14.5967 9.76893 14.5477 9.56673 14.429C9.35091 14.3193 9.16828 14.1322 9.0436 13.8933C8.91892 13.6543 8.85821 13.375 8.86967 13.0931C8.86462 12.8117 8.92724 12.5345 9.05 12.2949C9.17277 12.0554 9.35043 11.8638 9.56154 11.7433C9.82787 12.6907 10.2625 13.5568 10.8352 14.281Z" fill="#434E4E"/>
<path d="M22.2208 6.36497L22.0449 7.19922L24.8676 8.06308L25.0434 7.22883L22.2208 6.36497Z" fill="#434E4E"/>
<path d="M24.428 3.3319L24.0786 2.57812L21.5613 4.3267L21.9211 5.06934L24.428 3.3319Z" fill="#434E4E"/>
<path d="M19.4194 3.5131L17.9341 0.555054L17.3167 0.992721L18.8111 3.96744L19.4194 3.5131Z" fill="#434E4E"/>
<path d="M20.8296 7.9955L22.3143 10.9515L22.9318 10.5124L21.4327 7.53699L20.8296 7.9955Z" fill="#434E4E"/>
<path d="M20.6715 3.45964L20.7983 3.47978L21.511 0.182008L20.8156 0L20.6086 0.946188C20.4754 1.55475 20.3446 2.15151 20.2154 2.75243C20.1629 2.99349 20.1312 3.13938 20.2039 3.2679C20.2765 3.39642 20.4097 3.41935 20.6715 3.45964Z" fill="#434E4E"/>
<path d="M18.179 7.03815C17.7086 6.13086 16.9019 5.79532 15.7793 6.03777C15.3447 4.98295 15.0679 3.84399 14.9618 2.6733C14.9514 2.42123 14.976 2.16887 15.0344 1.92651C15.0496 1.81948 15.0994 1.72407 15.1728 1.66114C15.2105 1.63999 15.2513 1.62798 15.2928 1.62584C15.3344 1.62369 15.3759 1.63144 15.415 1.64863C15.655 1.72335 15.8842 1.84165 16.0947 1.99946C16.9499 2.71715 17.6919 3.613 18.2857 4.64488C19.4077 6.3812 20.2608 8.34689 20.8042 10.4478C20.9052 10.9099 20.9757 11.381 21.0152 11.8566L21.0475 12.1609C21.056 12.33 21.0376 12.4996 20.9933 12.6604C20.9258 12.9501 20.8065 13.0376 20.566 12.9737C20.4045 12.9322 20.2491 12.862 20.1048 12.7653C19.2494 12.1132 18.5057 11.2697 17.9138 10.2803C18.2722 9.86723 18.496 9.31315 18.5447 8.71841C18.5933 8.12367 18.4636 7.52761 18.179 7.03815Z" fill="#434E4E" fill-opacity="0.33"/>
<path d="M10.8353 14.2809C10.6558 14.4441 10.4422 14.5443 10.2184 14.5704C9.99453 14.5966 9.76904 14.5476 9.56684 14.4289C9.35102 14.3192 9.16839 14.1321 9.04371 13.8932C8.91903 13.6542 8.85832 13.3749 8.86978 13.093C8.86473 12.8116 8.92735 12.5344 9.05011 12.2948C9.17288 12.0553 9.35054 11.8637 9.56165 11.7432C9.82798 12.6906 10.2626 13.5567 10.8353 14.2809Z" fill="#434E4E" fill-opacity="0.33"/>
</g>
<defs>
<clipPath id="clip0_2904_4262">
<rect width="24" height="24" fill="white"/>
</clipPath>
</defs>
</svg>
