<svg width="45" height="36" viewBox="0 0 45 36" fill="none" xmlns="http://www.w3.org/2000/svg">
<path d="M17.8081 34.583C26.9208 34.583 34.3081 27.1957 34.3081 18.083C34.3081 8.97031 26.9208 1.58301 17.8081 1.58301C8.69541 1.58301 1.30811 8.97031 1.30811 18.083C1.30811 27.1957 8.69541 34.583 17.8081 34.583Z" fill="#DAEDEC"/>
<path d="M34.1821 22.03L33.5921 21.87C33.532 21.854 33.4682 21.8608 33.4128 21.889C33.3574 21.9173 33.3144 21.965 33.2921 22.023L32.9831 22.823C32.7301 23.477 32.4831 24.107 32.2511 24.741C32.1831 24.924 32.1201 24.981 31.8661 24.986C30.8911 24.975 29.9171 24.976 28.9421 24.978H27.4951C27.4371 24.978 27.3791 24.978 27.3191 24.967L27.6961 23.298C27.7101 23.2328 27.6978 23.1646 27.6618 23.1085C27.6259 23.0523 27.5692 23.0126 27.5041 22.998L26.8101 22.845C26.746 22.831 26.679 22.8423 26.6231 22.8766C26.5671 22.9109 26.5267 22.9655 26.5101 23.029C26.4651 23.203 26.4191 23.374 26.3741 23.542C26.2671 23.935 26.1661 24.307 26.0931 24.693C26.0451 24.949 25.9781 24.993 25.7251 24.993C23.5861 24.978 21.2891 24.977 18.7011 24.993C18.4801 24.993 18.4561 24.961 18.4551 24.96C18.4541 24.959 18.4311 24.923 18.4481 24.786C18.4657 24.6072 18.4697 24.4274 18.4601 24.248C18.4601 24.17 18.4601 24.091 18.4601 24.009C18.4601 23.9758 18.4536 23.943 18.4408 23.9123C18.4281 23.8817 18.4094 23.8539 18.3859 23.8304C18.3624 23.807 18.3345 23.7885 18.3038 23.7759C18.2732 23.7633 18.2403 23.7569 18.2071 23.757H17.4731C17.44 23.757 17.4072 23.7635 17.3767 23.7762C17.3461 23.7888 17.3183 23.8074 17.2949 23.8308C17.2715 23.8542 17.2529 23.882 17.2403 23.9125C17.2276 23.9431 17.2211 23.9759 17.2211 24.009V24.976H16.3591C14.1591 24.981 11.9651 24.984 9.79511 24.97C9.72248 24.9262 9.66412 24.8623 9.62711 24.786L9.58811 24.612C9.37511 23.669 9.15511 22.694 9.01911 21.729C8.91911 21.002 8.86212 20.275 8.80412 19.504C8.78612 19.252 8.7661 18.997 8.7461 18.739H13.5161C13.5829 18.739 13.647 18.7124 13.6943 18.6652C13.7415 18.6179 13.7681 18.5538 13.7681 18.487V17.73C13.7682 17.6968 13.7618 17.6639 13.7492 17.6332C13.7366 17.6026 13.7181 17.5747 13.6946 17.5511C13.6712 17.5276 13.6434 17.509 13.6128 17.4962C13.5821 17.4835 13.5493 17.477 13.5161 17.477H8.78211C8.78211 17.348 8.78211 17.239 8.78211 17.13C8.85347 15.2659 9.11482 13.414 9.56211 11.603C9.63911 11.28 9.70909 11.23 10.0331 11.226C11.6401 11.244 13.2471 11.241 14.8561 11.239H16.5171C17.1971 11.234 17.2061 11.239 17.2291 11.95C17.2326 12.0172 17.2409 12.084 17.2541 12.15L17.2671 12.223C17.2762 12.2825 17.3063 12.3368 17.352 12.3761C17.3976 12.4154 17.4559 12.437 17.5161 12.437H18.1271C18.1688 12.4372 18.2098 12.427 18.2465 12.4073C18.2832 12.3875 18.3144 12.3589 18.3371 12.324C18.4539 12.1057 18.4917 11.8539 18.4441 11.611C18.4331 11.475 18.4181 11.305 18.4641 11.256C18.4791 11.24 18.5401 11.184 18.7911 11.195C18.8247 11.1957 18.8581 11.1897 18.8894 11.1773C18.9206 11.1649 18.9491 11.1465 18.9731 11.123C18.9972 11.0997 19.0164 11.0717 19.0295 11.0407C19.0426 11.0098 19.0492 10.9766 19.0491 10.943V10.267C19.0491 10.2308 19.0412 10.195 19.0261 10.1621C19.011 10.1292 18.989 10.1 18.9616 10.0763C18.9342 10.0527 18.902 10.0353 18.8672 10.0252C18.8324 10.0151 18.7959 10.0127 18.7601 10.018C18.6752 10.0419 18.5847 10.0366 18.5031 10.003C18.4481 9.95499 18.4491 9.71299 18.4501 9.59699C18.4601 7.99099 18.4601 6.38398 18.4591 4.77698V2.624C18.4591 2.519 18.4651 2.41299 18.4721 2.29999C20.1082 2.57406 21.5953 3.41605 22.6721 4.67798C22.7183 4.72546 22.7814 4.75281 22.8477 4.75412C22.9139 4.75543 22.978 4.73058 23.0261 4.68497L23.5701 4.17099C23.5952 4.14689 23.615 4.11788 23.6285 4.08579C23.6419 4.05369 23.6486 4.01919 23.6481 3.98441C23.6476 3.94962 23.64 3.9153 23.6257 3.88358C23.6115 3.85186 23.5908 3.82341 23.5651 3.79999L22.6991 3.01599L23.4351 3.22498C23.4954 3.24132 23.5597 3.23447 23.6152 3.20578C23.6707 3.17709 23.7135 3.12864 23.7351 3.06998L23.9651 2.45398C23.9882 2.39264 23.9865 2.32471 23.9604 2.26459C23.9343 2.20447 23.8857 2.15691 23.8251 2.13199C20.7787 0.961222 17.4583 0.698096 14.2655 1.37442C11.0727 2.05075 8.14419 3.63757 5.83412 5.943C3.41627 8.32677 1.76278 11.3763 1.08434 14.7032C0.405912 18.0301 0.733242 21.4836 2.02462 24.6238C3.316 27.764 5.51297 30.4486 8.33561 32.3357C11.1583 34.2228 14.4788 35.2268 17.8741 35.22C21.666 35.217 25.3482 33.947 28.3356 31.6115C31.323 29.276 33.4442 26.0091 34.3621 22.33C34.3768 22.2664 34.3662 22.1996 34.3326 22.1436C34.2991 22.0877 34.2451 22.0469 34.1821 22.03ZM10.2511 9.45999C10.4981 8.85999 10.7301 8.30198 10.9971 7.75098C11.7618 6.05028 12.9391 4.56744 14.4221 3.43698C15.1766 2.86665 16.0557 2.48348 16.9871 2.31897C17.0556 2.3067 17.1247 2.29836 17.1941 2.29398V9.94599H10.0501L10.2511 9.45999ZM12.8371 33.09C9.21682 31.9413 6.14664 29.4991 4.21311 26.23H5.67109C6.61409 26.23 7.55611 26.23 8.49711 26.219C8.70611 26.219 8.75511 26.254 8.83412 26.489C9.55044 28.8335 10.8005 30.98 12.4861 32.76C12.6001 32.8733 12.7171 32.9836 12.8371 33.091V33.09ZM7.42011 18.764L8.26811 24.979H6.92011C5.87411 24.979 4.8291 24.979 3.7851 24.964C3.67007 24.9504 3.56369 24.8961 3.48512 24.811C2.58205 22.918 2.07922 20.8591 2.0081 18.763L7.42011 18.764ZM8.2201 10.007C7.6751 9.98799 7.12009 9.98297 6.58109 9.98297C6.21509 9.98297 5.85245 9.98464 5.49311 9.98798C5.12511 9.98798 4.7511 9.99398 4.3881 9.99298H4.24409C5.17009 7.53698 9.8761 3.82998 13.0131 2.97598C12.8961 3.07598 12.7811 3.18197 12.6701 3.28897C10.9361 5.0252 9.6532 7.15922 8.93311 9.50498C8.78411 9.92998 8.64709 10.021 8.21409 10.007H8.2201ZM7.6381 11.244H8.26609L7.41612 17.444H2.00311C2.01611 17.307 2.0291 17.17 2.0411 17.034C2.0851 16.547 2.1281 16.066 2.1941 15.588C2.40289 14.1555 2.82951 12.7635 3.45912 11.46C3.50783 11.3706 3.58146 11.2973 3.67109 11.249C4.98709 11.235 6.30909 11.239 7.63209 11.244H7.6381ZM17.1951 26.261V33.911C16.0376 33.7626 14.9497 33.2756 14.0681 32.511C12.1806 30.8466 10.8037 28.6812 10.0971 26.266L17.1951 26.261ZM18.4531 26.526C18.4531 26.311 18.4791 26.261 18.4911 26.249C18.5031 26.237 18.5341 26.212 18.7171 26.212H18.7331C20.3331 26.229 21.9331 26.227 23.5331 26.225H25.4511C25.5111 26.225 25.5711 26.225 25.6321 26.231C24.913 28.6584 23.5243 30.8339 21.6251 32.508C20.7665 33.2545 19.7125 33.7403 18.5871 33.908C18.5501 33.913 18.5121 33.916 18.4721 33.918C18.4671 33.833 18.4621 33.759 18.4621 33.684V31.597C18.4581 29.908 18.4591 28.217 18.4471 26.53L18.4531 26.526ZM31.4531 26.226C30.2471 28.916 25.6871 32.518 22.6531 33.273C22.8711 33.079 23.0891 32.88 23.2921 32.673C24.9222 30.9323 26.1336 28.8426 26.8341 26.563C26.9341 26.281 27.0091 26.216 27.2821 26.216H27.3151C28.3901 26.233 29.4661 26.231 30.5621 26.228L31.4531 26.226Z" fill="url(#paint0_linear_1_2313)"/>
<path d="M38.4652 17.501C38.4132 17.101 38.3652 16.73 38.2772 16.352C37.5604 13.5098 36.3482 10.8162 34.6962 8.39498C33.5179 6.47337 32.0553 4.74139 30.3582 3.25799C29.6599 2.5998 28.8154 2.11658 27.8942 1.84799C27.4613 1.70469 26.9898 1.73311 26.5773 1.92739C26.1647 2.12167 25.8425 2.46696 25.6772 2.89196C25.5841 3.06967 25.4788 3.24077 25.3622 3.40399C23.7335 5.77799 22.1035 8.15029 20.4722 10.521C20.1388 11.003 19.8055 11.484 19.4722 11.964C18.8252 12.893 18.1722 13.823 17.5472 14.764C17.3055 15.1281 17.1455 15.5402 17.0782 15.972C17.0372 16.257 16.9842 16.352 16.8172 16.434C16.6126 16.5385 16.419 16.6631 16.2392 16.806C15.7157 17.176 15.3131 17.6923 15.0818 18.2902C14.8505 18.8881 14.8009 19.541 14.9392 20.167C15.0937 20.9341 15.5076 21.6246 16.1113 22.1225C16.715 22.6203 17.4717 22.8952 18.2542 22.901C18.9921 22.8823 19.709 22.6514 20.3192 22.236C20.4069 22.1794 20.5026 22.1362 20.6032 22.108C21.1594 22.4018 21.8058 22.476 22.4142 22.316L22.6252 22.286C25.3072 21.936 28.2452 21.57 31.8702 21.137C33.4592 20.948 35.0162 20.79 36.7402 20.619C37.102 20.5955 37.4477 20.4601 37.7291 20.2315C38.0106 20.0028 38.214 19.6924 38.3112 19.343C38.3959 19.0602 38.4548 18.7704 38.4872 18.477C38.5032 18.358 38.5192 18.24 38.5402 18.125L38.5472 18.084L38.5412 18.043C38.5122 17.861 38.4892 17.679 38.4652 17.501ZM31.1972 11.421C31.5245 11.8707 31.6825 12.4216 31.6429 12.9764C31.6034 13.5313 31.369 14.0542 30.9812 14.453L28.6292 10.569C29.0927 10.4269 29.5889 10.4327 30.0491 10.5854C30.5092 10.738 30.9104 11.0301 31.1972 11.421ZM32.2692 10.804C31.4532 9.49798 30.0542 9.01498 28.1072 9.36398C27.3533 7.8456 26.8733 6.20613 26.6892 4.52096C26.6713 4.15812 26.7139 3.79485 26.8152 3.44598C26.8415 3.29192 26.9278 3.15458 27.0552 3.06399C27.1205 3.03355 27.1913 3.01627 27.2634 3.01318C27.3354 3.01009 27.4074 3.02125 27.4752 3.04598C27.8915 3.15354 28.289 3.32383 28.6542 3.55099C30.1373 4.58408 31.4242 5.87362 32.4542 7.35897C34.4001 9.85833 35.8797 12.6879 36.8222 15.712C36.9973 16.3773 37.1197 17.0554 37.1882 17.74L37.2442 18.178C37.2589 18.4214 37.227 18.6655 37.1502 18.897C37.0332 19.314 36.8262 19.44 36.4092 19.348C36.1291 19.2883 35.8595 19.1872 35.6092 19.048C34.1256 18.1093 32.8357 16.8951 31.8092 15.471C32.4308 14.8763 32.819 14.0788 32.9033 13.2227C32.9877 12.3666 32.7628 11.5085 32.2692 10.804ZM34.0842 19.604L33.9482 19.622C33.4692 19.684 32.9922 19.746 32.5162 19.805L29.7222 20.146C27.2372 20.446 24.6682 20.759 22.1452 21.104C21.9029 21.1488 21.6534 21.1344 21.4178 21.0622C21.1823 20.9899 20.9676 20.8619 20.7922 20.689C19.6354 19.6583 18.8042 18.3127 18.4002 16.817C18.3162 16.5447 18.3016 16.2557 18.3576 15.9763C18.4137 15.6968 18.5387 15.4358 18.7212 15.217C20.3332 12.944 21.9322 10.608 23.4792 8.34799C24.0405 7.52732 24.6025 6.70699 25.1652 5.88699L25.4902 5.41796C26.7983 10.9309 29.8044 15.8939 34.0842 19.607V19.604ZM19.5322 21.23C19.2208 21.4649 18.8505 21.6091 18.4622 21.6467C18.0739 21.6843 17.6828 21.6138 17.3322 21.443C16.9578 21.285 16.6411 21.0158 16.4248 20.6718C16.2086 20.3279 16.1033 19.9258 16.1232 19.52C16.1144 19.1149 16.223 18.7158 16.436 18.3711C16.6489 18.0263 16.957 17.7505 17.3232 17.577C17.7851 18.9408 18.5389 20.1874 19.5322 21.23Z" fill="url(#paint1_linear_1_2313)"/>
<path d="M39.2791 9.83514L38.9741 11.036L43.8697 12.2795L44.1747 11.0786L39.2791 9.83514Z" fill="url(#paint2_linear_1_2313)"/>
<path d="M43.107 5.46906L42.501 4.38403L38.135 6.90103L38.759 7.97003L43.107 5.46906Z" fill="url(#paint3_linear_1_2313)"/>
<path d="M34.4202 5.72998L31.8442 1.47198L30.7732 2.10199L33.3652 6.38397L34.4202 5.72998Z" fill="url(#paint4_linear_1_2313)"/>
<path d="M36.8662 12.182L39.4412 16.437L40.5122 15.805L37.9122 11.522L36.8662 12.182Z" fill="url(#paint5_linear_1_2313)"/>
<path d="M36.592 5.65298L36.812 5.68198L38.048 0.934967L36.842 0.672974L36.483 2.03497C36.252 2.91097 36.025 3.76998 35.801 4.63498C35.71 4.98198 35.655 5.19198 35.781 5.37698C35.907 5.56198 36.138 5.59498 36.592 5.65298Z" fill="url(#paint6_linear_1_2313)"/>
<path d="M32.2691 10.804C31.4531 9.498 30.054 9.015 28.107 9.364C27.3532 7.84562 26.8732 6.20615 26.689 4.52098C26.6711 4.15814 26.7137 3.79487 26.815 3.446C26.8414 3.29194 26.9277 3.1546 27.055 3.06401C27.1204 3.03357 27.1912 3.01629 27.2633 3.0132C27.3353 3.01011 27.4073 3.02127 27.475 3.046C27.8914 3.15356 28.2889 3.32385 28.654 3.55101C30.1372 4.5841 31.4241 5.87364 32.4541 7.35899C34.4 9.85835 35.8796 12.6879 36.822 15.712C36.9972 16.3773 37.1196 17.0554 37.188 17.74L37.244 18.178C37.2587 18.4215 37.2268 18.6655 37.15 18.897C37.033 19.314 36.826 19.44 36.409 19.348C36.1289 19.2883 35.8593 19.1872 35.609 19.048C34.1255 18.1094 32.8356 16.8951 31.809 15.471C32.4307 14.8764 32.8188 14.0788 32.9032 13.2227C32.9876 12.3666 32.7626 11.5086 32.2691 10.804Z" fill="#A4EAE4"/>
<path d="M19.5322 21.2299C19.2208 21.4648 18.8505 21.6091 18.4622 21.6467C18.074 21.6843 17.6829 21.6138 17.3322 21.4429C16.9579 21.285 16.6411 21.0157 16.4249 20.6718C16.2086 20.3278 16.1033 19.9257 16.1232 19.5199C16.1145 19.1148 16.2231 18.7158 16.436 18.371C16.6489 18.0263 16.957 17.7505 17.3232 17.5769C17.7851 18.9407 18.539 20.1874 19.5322 21.2299Z" fill="#A4EAE4"/>
<defs>
<linearGradient id="paint0_linear_1_2313" x1="2.79087" y1="4.97637" x2="35.6835" y2="34.6223" gradientUnits="userSpaceOnUse">
<stop stop-color="#19A3A3"/>
<stop offset="1" stop-color="#00888D"/>
</linearGradient>
<linearGradient id="paint1_linear_1_2313" x1="8.42033" y1="-1.09644" x2="37.0411" y2="32.3698" gradientUnits="userSpaceOnUse">
<stop stop-color="#19A3A3"/>
<stop offset="1" stop-color="#00888D"/>
</linearGradient>
<linearGradient id="paint2_linear_1_2313" x1="14.2216" y1="28.6742" x2="24.4389" y2="-3.81119" gradientUnits="userSpaceOnUse">
<stop stop-color="#19A3A3"/>
<stop offset="1" stop-color="#00888D"/>
</linearGradient>
<linearGradient id="paint3_linear_1_2313" x1="19.7635" y1="-13.2555" x2="40.322" y2="23.5523" gradientUnits="userSpaceOnUse">
<stop stop-color="#19A3A3"/>
<stop offset="1" stop-color="#00888D"/>
</linearGradient>
<linearGradient id="paint4_linear_1_2313" x1="17.1626" y1="-10.4543" x2="55.0767" y2="9.01036" gradientUnits="userSpaceOnUse">
<stop stop-color="#19A3A3"/>
<stop offset="1" stop-color="#00888D"/>
</linearGradient>
<linearGradient id="paint5_linear_1_2313" x1="14.9647" y1="-8.10366" x2="52.8881" y2="11.3323" gradientUnits="userSpaceOnUse">
<stop stop-color="#19A3A3"/>
<stop offset="1" stop-color="#00888D"/>
</linearGradient>
<linearGradient id="paint6_linear_1_2313" x1="19.5446" y1="-13.0216" x2="56.5648" y2="-5.49005" gradientUnits="userSpaceOnUse">
<stop stop-color="#19A3A3"/>
<stop offset="1" stop-color="#00888D"/>
</linearGradient>
</defs>
</svg>
