<svg width="33" height="38" viewBox="0 0 33 38" fill="none" xmlns="http://www.w3.org/2000/svg">
<path fill-rule="evenodd" clip-rule="evenodd" d="M25.3225 13.5204C25.4906 13.3592 25.7074 13.2815 25.9252 13.3043C26.143 13.3271 26.3441 13.4485 26.4841 13.642L29.9211 18.392C30.055 18.5863 30.1175 18.8331 30.0955 19.0798C30.0734 19.3265 29.9684 19.5535 29.803 19.7123C29.6375 19.871 29.4247 19.949 29.21 19.9295C28.9953 19.91 28.7957 19.7946 28.6539 19.608L25.2169 14.858C25.077 14.6644 25.0095 14.4148 25.0293 14.164C25.0491 13.9132 25.1546 13.6817 25.3225 13.5204Z" fill="#00888D"/>
<path fill-rule="evenodd" clip-rule="evenodd" d="M25.3225 24.4796C25.1546 24.3183 25.0491 24.0868 25.0293 23.836C25.0095 23.5851 25.077 23.3355 25.2169 23.142L28.6539 18.392C28.7223 18.2928 28.8072 18.2103 28.9037 18.1494C29.0001 18.0885 29.1062 18.0505 29.2156 18.0375C29.3251 18.0245 29.4356 18.0368 29.5409 18.0738C29.6461 18.1108 29.7438 18.1716 29.8283 18.2527C29.9128 18.3338 29.9824 18.4335 30.0329 18.546C30.0835 18.6585 30.114 18.7815 30.1226 18.9078C30.1313 19.0341 30.1179 19.1611 30.0833 19.2813C30.0487 19.4016 29.9935 19.5126 29.9211 19.608L26.4841 24.358C26.3441 24.5514 26.143 24.6729 25.9252 24.6957C25.7074 24.7185 25.4906 24.6408 25.3225 24.4796Z" fill="#00888D"/>
<path fill-rule="evenodd" clip-rule="evenodd" d="M28.8751 19C28.8751 19.252 28.7882 19.4936 28.6335 19.6718C28.4788 19.8499 28.269 19.95 28.0501 19.95H15.6751C15.4563 19.95 15.2465 19.8499 15.0918 19.6718C14.9371 19.4936 14.8501 19.252 14.8501 19C14.8501 18.748 14.9371 18.5064 15.0918 18.3282C15.2465 18.1501 15.4563 18.05 15.6751 18.05H28.0501C28.269 18.05 28.4788 18.1501 28.6335 18.3282C28.7882 18.5064 28.8751 18.748 28.8751 19ZM5.77515 5.7C5.77515 5.44804 5.86207 5.20641 6.01678 5.02825C6.1715 4.85009 6.38134 4.75 6.60015 4.75H21.4501C21.669 4.75 21.8788 4.85009 22.0335 5.02825C22.1882 5.20641 22.2751 5.44804 22.2751 5.7C22.2751 5.95196 22.1882 6.19359 22.0335 6.37175C21.8788 6.54991 21.669 6.65 21.4501 6.65H6.60015C6.38134 6.65 6.1715 6.54991 6.01678 6.37175C5.86207 6.19359 5.77515 5.95196 5.77515 5.7ZM5.77515 32.3C5.77515 32.048 5.86207 31.8064 6.01678 31.6282C6.1715 31.4501 6.38134 31.35 6.60015 31.35H21.4501C21.669 31.35 21.8788 31.4501 22.0335 31.6282C22.1882 31.8064 22.2751 32.048 22.2751 32.3C22.2751 32.552 22.1882 32.7936 22.0335 32.9718C21.8788 33.1499 21.669 33.25 21.4501 33.25H6.60015C6.38134 33.25 6.1715 33.1499 6.01678 32.9718C5.86207 32.7936 5.77515 32.552 5.77515 32.3Z" fill="#00888D"/>
<path fill-rule="evenodd" clip-rule="evenodd" d="M21.4501 4.75C21.6689 4.75 21.8788 4.85009 22.0335 5.02825C22.1882 5.20641 22.2751 5.44804 22.2751 5.7V13.3C22.2751 13.552 22.1882 13.7936 22.0335 13.9718C21.8788 14.1499 21.6689 14.25 21.4501 14.25C21.2313 14.25 21.0215 14.1499 20.8668 13.9718C20.7121 13.7936 20.6251 13.552 20.6251 13.3V5.7C20.6251 5.44804 20.7121 5.20641 20.8668 5.02825C21.0215 4.85009 21.2313 4.75 21.4501 4.75ZM21.4501 23.75C21.6689 23.75 21.8788 23.8501 22.0335 24.0282C22.1882 24.2064 22.2751 24.448 22.2751 24.7V32.3C22.2751 32.552 22.1882 32.7936 22.0335 32.9718C21.8788 33.1499 21.6689 33.25 21.4501 33.25C21.2313 33.25 21.0215 33.1499 20.8668 32.9718C20.7121 32.7936 20.6251 32.552 20.6251 32.3V24.7C20.6251 24.448 20.7121 24.2064 20.8668 24.0282C21.0215 23.8501 21.2313 23.75 21.4501 23.75ZM6.60015 4.75C6.81895 4.75 7.02879 4.85009 7.18351 5.02825C7.33823 5.20641 7.42515 5.44804 7.42515 5.7V32.3C7.42515 32.552 7.33823 32.7936 7.18351 32.9718C7.02879 33.1499 6.81895 33.25 6.60015 33.25C6.38134 33.25 6.1715 33.1499 6.01678 32.9718C5.86207 32.7936 5.77515 32.552 5.77515 32.3V5.7C5.77515 5.44804 5.86207 5.20641 6.01678 5.02825C6.1715 4.85009 6.38134 4.75 6.60015 4.75Z" fill="#00888D"/>
<path d="M1.89761 2.68447C1.73854 2.50104 1.64926 2.25237 1.64941 1.99315C1.64957 1.73392 1.73914 1.48539 1.89843 1.30222C2.05772 1.11905 2.27368 1.01624 2.49879 1.01642C2.7239 1.0166 2.93974 1.11974 3.09881 1.30317L31.101 33.5481C31.26 33.7312 31.3494 33.9797 31.3494 34.2387C31.3494 34.4978 31.26 34.7462 31.101 34.9294C30.9419 35.1125 30.7261 35.2154 30.5012 35.2154C30.2762 35.2154 30.0605 35.1125 29.9014 34.9294L1.89761 2.68447Z" fill="#00888D"/>
</svg>
