<svg width="35" height="35" viewBox="0 0 35 35" fill="none" xmlns="http://www.w3.org/2000/svg">
<path d="M17.1209 34.0351C15.9959 33.8841 14.9209 33.7821 13.8639 33.5831C13.1529 33.4491 13.0639 33.2511 13.0639 32.5361C13.0639 31.8781 13.0499 31.2191 13.0689 30.5621C13.0807 30.5022 13.0805 30.4405 13.0683 30.3808C13.056 30.321 13.0319 30.2643 12.9975 30.2139C12.963 30.1635 12.9189 30.1205 12.8676 30.0874C12.8163 30.0543 12.759 30.0318 12.6989 30.0211C12.2519 29.8831 11.8329 29.6581 11.3869 29.5161C11.3 29.492 11.209 29.4869 11.12 29.5011C11.031 29.5152 10.946 29.5483 10.8709 29.598C10.2829 30.114 9.7189 30.6601 9.1549 31.2031C9.02804 31.3556 8.846 31.4517 8.64853 31.4704C8.45105 31.4892 8.25417 31.429 8.10089 31.3031C6.07326 29.981 4.32459 28.2741 2.95388 26.2791C2.52288 25.6461 2.55391 25.4201 3.10391 24.9081C3.58591 24.4591 4.07588 24.0191 4.53088 23.5451C4.58548 23.4738 4.62291 23.3909 4.64026 23.3028C4.6576 23.2146 4.6544 23.1237 4.63089 23.0371C4.10789 21.7371 4.09989 21.7371 2.67889 21.7371C2.23989 21.7371 1.8009 21.7371 1.3619 21.7371C1.18779 21.7542 1.0138 21.7033 0.876401 21.595C0.739003 21.4867 0.648872 21.3294 0.624905 21.1561C0.0732083 18.6691 0.0755867 16.0911 0.631894 13.6051C0.667189 13.4261 0.76992 13.2676 0.91882 13.1623C1.06772 13.0569 1.25139 13.0128 1.43188 13.0391C2.18388 13.0391 2.93189 13.0281 3.68789 13.0451C3.80265 13.0642 3.92033 13.0377 4.01593 12.9715C4.11153 12.9052 4.17752 12.8042 4.19989 12.6901C4.334 12.2561 4.49192 11.8297 4.67291 11.413C4.7258 11.3186 4.74316 11.2083 4.72189 11.1021C4.70062 10.996 4.64209 10.9009 4.55688 10.8341C4.04188 10.3071 3.54291 9.76609 3.03891 9.23409C2.95016 9.17329 2.87572 9.09384 2.82086 9.0013C2.76599 8.90877 2.73201 8.80536 2.72125 8.69833C2.71049 8.59129 2.72322 8.48322 2.75857 8.38161C2.79392 8.28001 2.85103 8.18731 2.9259 8.11007C4.30053 6.04109 6.07582 4.26852 8.14691 2.89706C8.22185 2.82562 8.31133 2.77123 8.40924 2.73757C8.50715 2.70391 8.61115 2.69179 8.71417 2.70205C8.81719 2.7123 8.91681 2.74472 9.00616 2.79702C9.09551 2.84931 9.17251 2.92029 9.2319 3.00509C9.7849 3.53709 10.3419 4.06606 10.8809 4.61306C10.9469 4.69795 11.0416 4.7559 11.1473 4.77596C11.253 4.79603 11.3623 4.77685 11.4549 4.72207C11.8568 4.54668 12.2705 4.39965 12.6929 4.28206C12.7501 4.27614 12.8055 4.25861 12.8557 4.23049C12.9059 4.20238 12.9498 4.16432 12.9847 4.11861C13.0197 4.07291 13.0449 4.02055 13.0588 3.96474C13.0728 3.90894 13.0752 3.85086 13.0659 3.79409C13.0489 3.07409 13.0589 2.3521 13.0599 1.6321C13.0599 0.973102 13.1599 0.797096 13.7879 0.601096C14.2806 0.448356 14.787 0.343853 15.2999 0.289084C16.8434 0.115203 18.4036 0.158969 19.9349 0.419089C20.1349 0.455089 20.3289 0.51909 20.5259 0.57009C20.7213 0.60538 20.8959 0.713669 21.0144 0.873007C21.1329 1.03235 21.1864 1.23077 21.1639 1.42806C21.1539 2.14906 21.1719 2.87009 21.1569 3.59109C21.1463 3.64748 21.1473 3.70541 21.1596 3.76144C21.172 3.81746 21.1956 3.87044 21.2289 3.91714C21.2622 3.96383 21.3047 4.00327 21.3536 4.03316C21.4026 4.06306 21.4571 4.08278 21.5139 4.09109C21.9083 4.19349 22.2885 4.34428 22.6459 4.54006C22.7125 4.59113 22.7888 4.62802 22.8702 4.6484C22.9516 4.66877 23.0363 4.67222 23.119 4.65853C23.2018 4.64484 23.2809 4.6143 23.3514 4.56881C23.4219 4.52332 23.4823 4.46384 23.5289 4.39406C24.0169 3.88606 24.5519 3.42308 25.0559 2.93008C25.1213 2.85094 25.2018 2.78553 25.2926 2.73763C25.3834 2.68973 25.4828 2.66032 25.5851 2.65102C25.6873 2.64173 25.7904 2.65276 25.8884 2.68349C25.9864 2.71423 26.0773 2.76406 26.1559 2.8301C28.2119 4.16771 29.9701 5.91467 31.3209 7.96206C31.6849 8.52106 31.6549 8.74705 31.1859 9.24105C30.6789 9.77505 30.1799 10.3171 29.6639 10.8411C29.5795 10.9091 29.5222 11.005 29.5024 11.1116C29.4826 11.2182 29.5016 11.3283 29.5559 11.4221C29.7236 11.7935 29.8653 12.1761 29.9799 12.5671C29.9894 12.6432 30.0143 12.7165 30.0532 12.7826C30.0921 12.8487 30.1441 12.9062 30.206 12.9514C30.2679 12.9967 30.3385 13.0288 30.4133 13.0457C30.4881 13.0627 30.5655 13.0642 30.6409 13.0501C31.3409 13.0141 32.0499 13.0361 32.7549 13.0421C33.3229 13.0481 33.5079 13.1961 33.6259 13.7521C34.1488 16.1803 34.1488 18.6919 33.6259 21.1201C33.5089 21.6661 33.3139 21.8201 32.7469 21.8201C32.0099 21.8201 31.2729 21.8361 30.5379 21.8151C30.4156 21.7955 30.2904 21.8231 30.1877 21.8924C30.085 21.9616 30.0125 22.0673 29.9849 22.1881C29.8399 22.5991 29.4749 23.0331 29.5449 23.3881C29.6149 23.7431 30.0989 24.0271 30.4079 24.3361C30.6849 24.6141 30.9709 24.8811 31.2499 25.1561C31.3912 25.2732 31.4808 25.4411 31.4995 25.6236C31.5182 25.8062 31.4645 25.9888 31.3499 26.1321C29.9802 28.2422 28.1726 30.033 26.0499 31.3831C25.8915 31.5031 25.6925 31.5565 25.4953 31.532C25.2981 31.5075 25.1182 31.4072 24.9939 31.2521C24.4739 30.7301 23.9309 30.2321 23.4159 29.7051C23.3448 29.6048 23.2371 29.5365 23.1161 29.5148C22.9951 29.4931 22.8704 29.5198 22.7689 29.5891C22.3795 29.7904 21.969 29.9481 21.5449 30.0591C21.2299 30.1381 21.1559 30.2851 21.1629 30.5791C21.1789 31.2681 21.1539 31.9581 21.1719 32.6481C21.1891 32.7536 21.1846 32.8616 21.1588 32.9654C21.133 33.0691 21.0864 33.1666 21.0218 33.2518C20.9572 33.337 20.8759 33.4081 20.7829 33.461C20.6899 33.5138 20.5872 33.5472 20.4809 33.5591C19.3449 33.7401 18.2179 33.8821 17.1209 34.0351ZM17.1129 32.6551C17.8459 32.5991 18.5789 32.5341 19.3129 32.4891C19.6939 32.4661 19.8599 32.3251 19.8409 31.9101C19.8059 31.1901 19.8299 30.4681 19.8329 29.7471C19.8244 29.5588 19.8861 29.3741 20.006 29.2287C20.1259 29.0833 20.2955 28.9876 20.4819 28.96C21.2413 28.7294 21.9854 28.4512 22.7099 28.1271C22.8804 28.0146 23.0859 27.9678 23.2883 27.9956C23.4907 28.0233 23.6761 28.1238 23.8099 28.2781C24.3269 28.8031 24.8729 29.2981 25.3869 29.8251C25.4199 29.8724 25.463 29.9117 25.5131 29.9401C25.5633 29.9686 25.6191 29.9856 25.6766 29.9897C25.7341 29.9938 25.7918 29.985 25.8455 29.9639C25.8992 29.9429 25.9475 29.9102 25.9869 29.8681C27.4557 28.8183 28.7474 27.5405 29.8129 26.0831C29.8527 26.0466 29.8835 26.0015 29.903 25.9511C29.9224 25.9008 29.93 25.8467 29.925 25.7929C29.9201 25.7392 29.9028 25.6873 29.8745 25.6414C29.8462 25.5954 29.8077 25.5567 29.7619 25.5281C29.2669 25.0711 28.7979 24.5871 28.3069 24.1281C28.1502 24.0084 28.0444 23.834 28.0106 23.6397C27.9769 23.4454 28.0177 23.2456 28.1249 23.0801C28.4559 22.4241 28.7529 21.7491 29.0379 21.0711C29.0899 20.8978 29.1996 20.7476 29.3488 20.6454C29.4979 20.5432 29.6776 20.495 29.8579 20.5091C30.5789 20.5231 31.2999 20.504 32.0199 20.517C32.3029 20.522 32.4469 20.4371 32.4939 20.1381C32.7714 18.3545 32.7714 16.5387 32.4939 14.7551C32.4948 14.6971 32.4828 14.6397 32.4587 14.5869C32.4346 14.5342 32.399 14.4875 32.3545 14.4503C32.31 14.4131 32.2578 14.3864 32.2016 14.372C32.1455 14.3576 32.0868 14.3559 32.0299 14.3671C31.3729 14.3831 30.7139 14.3731 30.0559 14.3671C29.3399 14.3671 29.2369 14.2841 28.9879 13.6281C28.7099 12.8971 28.4439 12.1591 28.1179 11.4481C28.0179 11.2797 27.9807 11.0813 28.0127 10.8881C28.0447 10.6949 28.144 10.5192 28.2929 10.3921C28.7979 9.87805 29.2719 9.33307 29.7839 8.82607C29.8416 8.7886 29.8901 8.73865 29.9259 8.67989C29.9617 8.62114 29.9838 8.55505 29.9906 8.48659C29.9974 8.41814 29.9888 8.34904 29.9653 8.28438C29.9418 8.21973 29.9041 8.16117 29.8549 8.11306C28.7858 6.65859 27.4963 5.37989 26.0329 4.32308C25.9934 4.28143 25.9452 4.249 25.8918 4.22805C25.8384 4.2071 25.781 4.19814 25.7238 4.20186C25.6665 4.20559 25.6107 4.22185 25.5605 4.24953C25.5102 4.27722 25.4666 4.31567 25.4329 4.36208C24.9239 4.87108 24.3909 5.36206 23.8649 5.85006C23.3819 6.30406 23.2439 6.28805 22.6649 6.02206C21.957 5.69777 21.2319 5.41236 20.4929 5.16707C20.3 5.1317 20.1268 5.02671 20.0063 4.87203C19.8857 4.71736 19.8261 4.52379 19.8389 4.32809C19.8449 3.59109 19.8299 2.85506 19.8439 2.11806C19.8499 1.83506 19.7709 1.69206 19.4679 1.65206C17.9144 1.43622 16.3381 1.44097 14.7859 1.6661C14.4619 1.7151 14.3859 1.8721 14.3859 2.1711C14.3999 2.9541 14.3969 3.73808 14.3859 4.52108C14.3799 5.05708 14.2019 5.22105 13.6939 5.37105C12.9582 5.58193 12.235 5.83438 11.5279 6.1271C11.3484 6.23768 11.1354 6.28069 10.927 6.24843C10.7186 6.21618 10.5286 6.11075 10.3909 5.95107C9.9009 5.44507 9.37389 4.97405 8.88189 4.47005C8.67189 4.25505 8.50888 4.20306 8.24688 4.39706C6.78313 5.47963 5.48981 6.77533 4.40991 8.24105C4.36895 8.28131 4.33732 8.33011 4.31729 8.38393C4.29726 8.43775 4.2893 8.49527 4.29397 8.55251C4.29865 8.60975 4.31586 8.66531 4.34436 8.71517C4.37285 8.76503 4.41195 8.80801 4.45889 8.84109C4.97789 9.36309 5.47291 9.90906 5.97891 10.4411C6.09843 10.5437 6.18136 10.6824 6.21527 10.8362C6.24917 10.99 6.23221 11.1507 6.1669 11.2941C5.8309 12.1041 5.49788 12.9151 5.19888 13.7381C5.14717 13.9361 5.02551 14.1087 4.85638 14.224C4.68726 14.3392 4.48212 14.3894 4.2789 14.3651C3.5899 14.3501 2.8999 14.3751 2.2109 14.3561C1.8959 14.3471 1.7689 14.4651 1.7229 14.7721C1.45639 16.5096 1.45639 18.2776 1.7229 20.0151C1.7689 20.3151 1.8829 20.4501 2.2059 20.4411C2.9259 20.4221 3.64689 20.4411 4.36789 20.4321C4.54816 20.4187 4.72765 20.4668 4.8771 20.5685C5.02655 20.6702 5.13715 20.8195 5.19088 20.9921C5.47488 21.6701 5.7689 22.3461 6.1029 23.0011C6.21195 23.1654 6.25415 23.3652 6.22088 23.5596C6.18762 23.754 6.08137 23.9284 5.92389 24.0471C5.42389 24.5031 4.95089 24.98 4.44589 25.426C4.39255 25.4568 4.3473 25.4998 4.31387 25.5515C4.28044 25.6032 4.25978 25.6621 4.25363 25.7234C4.24747 25.7847 4.25599 25.8465 4.27847 25.9038C4.30095 25.9612 4.33674 26.0123 4.3829 26.0531C5.46322 27.4795 6.74844 28.7385 8.1969 29.7891C8.23702 29.8301 8.28568 29.8619 8.33941 29.8821C8.39315 29.9023 8.45067 29.9104 8.5079 29.9059C8.56513 29.9014 8.62068 29.8844 8.67062 29.8561C8.72056 29.8278 8.76367 29.7889 8.7969 29.7421C9.3079 29.2341 9.83988 28.7471 10.3669 28.2551C10.8519 27.8021 10.9799 27.818 11.5669 28.09C12.2607 28.4098 12.9706 28.6932 13.6939 28.939C14.2309 29.122 14.3809 29.2531 14.3859 29.8391C14.3929 30.5281 14.4139 31.2191 14.3789 31.9071C14.3579 32.3231 14.5289 32.4641 14.9089 32.4871C15.6449 32.5361 16.3739 32.6031 17.1129 32.6551Z" fill="url(#paint0_linear_1_2358)"/>
<path d="M16.9619 21.73C17.5139 21.091 18.0139 20.53 18.4909 19.952C18.6008 19.7992 18.7563 19.6851 18.935 19.626C19.1137 19.5669 19.3065 19.5659 19.4859 19.623C20.7932 19.9424 22.1026 20.2524 23.4139 20.553C23.6825 20.6132 23.9339 20.7338 24.149 20.9057C24.364 21.0776 24.537 21.2962 24.6549 21.545C25.1785 22.6001 25.435 23.7677 25.4019 24.9451C25.4065 25.028 25.3938 25.1111 25.3646 25.1889C25.3355 25.2667 25.2905 25.3376 25.2325 25.3971C25.1745 25.4566 25.1047 25.5035 25.0277 25.5346C24.9506 25.5658 24.868 25.5805 24.7849 25.5781C24.4169 25.6061 24.1749 25.354 24.1129 24.946C23.9989 24.19 23.8949 23.4311 23.7389 22.6841C23.697 22.4283 23.5713 22.1936 23.3816 22.017C23.1919 21.8403 22.949 21.7317 22.6909 21.7081C21.7079 21.5281 20.7379 21.267 19.7679 21.019C19.652 20.976 19.5252 20.9722 19.407 21.0084C19.2888 21.0445 19.1858 21.1186 19.1139 21.2191C18.6439 21.7851 18.1579 22.3381 17.6749 22.8931C17.1429 23.5051 16.8379 23.5131 16.2979 22.9301C15.7579 22.3471 15.2529 21.7641 14.6979 21.2131C14.616 21.1429 14.5202 21.091 14.4168 21.0606C14.3133 21.0303 14.2046 21.0222 14.0979 21.037C13.1359 21.248 12.1879 21.5201 11.2279 21.7371C11.0567 21.7609 10.8978 21.8396 10.775 21.9612C10.6523 22.0829 10.5722 22.2411 10.5469 22.412C10.4309 23.088 10.3469 23.7701 10.2559 24.4511C10.2319 24.6361 10.2559 24.828 10.2239 25.012C10.2195 25.0911 10.1992 25.1686 10.1643 25.2397C10.1294 25.3108 10.0806 25.3742 10.0207 25.4261C9.9608 25.478 9.89109 25.5172 9.81571 25.5416C9.74033 25.566 9.66081 25.575 9.58188 25.5681C9.50252 25.5759 9.42236 25.567 9.34669 25.5418C9.27101 25.5166 9.20153 25.4757 9.14274 25.4218C9.08394 25.3679 9.03715 25.3023 9.00547 25.2291C8.97379 25.1559 8.95792 25.0768 8.95887 24.9971C8.869 23.7903 9.06674 22.5795 9.53586 21.4641C9.6396 21.2344 9.79504 21.0319 9.99003 20.8723C10.185 20.7127 10.4143 20.6004 10.6599 20.5441C11.8729 20.2441 13.0879 19.9381 14.2979 19.6191C14.4839 19.5578 14.6845 19.5567 14.8712 19.616C15.0579 19.6752 15.2212 19.7917 15.3379 19.949C15.8449 20.548 16.3889 21.109 16.9619 21.73Z" fill="url(#paint1_linear_1_2358)"/>
<path d="M13.991 12.8131C14.045 14.6091 14.6762 16.3399 15.791 17.749C15.9389 17.9861 16.1455 18.181 16.3908 18.3148C16.6362 18.4485 16.9119 18.5167 17.1913 18.5127C17.4706 18.5087 17.7443 18.4326 17.9856 18.2918C18.227 18.151 18.4279 17.9503 18.569 17.7091C19.2673 16.8382 19.766 15.8248 20.0301 14.7402C20.2941 13.6557 20.3169 12.5264 20.097 11.4321C20.0066 11.0469 19.8114 10.6942 19.533 10.413C18.9767 9.9582 18.3078 9.66234 17.5971 9.55671C16.8864 9.45108 16.1604 9.53964 15.496 9.81306C14.254 10.3471 14.026 11.4301 13.991 12.8131Z" fill="#A4EAE4"/>
<path d="M21.0929 13.2841C21.041 14.9502 20.4635 16.5572 19.4429 17.8751C19.2088 18.2188 18.8971 18.5026 18.5332 18.7038C18.1692 18.9049 17.7632 19.0178 17.3476 19.0333C16.932 19.0488 16.5186 18.9664 16.1407 18.7928C15.7628 18.6193 15.431 18.3594 15.1719 18.0341C14.1628 16.9008 13.5502 15.4695 13.4269 13.9571C13.3108 13.1848 13.3219 12.3988 13.4599 11.6301C13.602 10.8632 14.0183 10.1741 14.631 9.69149C15.2437 9.20887 16.011 8.96565 16.7899 9.00711C17.414 8.97914 18.0386 9.0531 18.6389 9.2261C20.3099 9.7121 21.1099 10.9691 21.0929 13.2841ZM14.5989 13.0091C14.6425 14.5008 15.1661 15.9387 16.0919 17.1091C16.2147 17.306 16.3862 17.4678 16.5899 17.579C16.7935 17.6902 17.0224 17.7469 17.2544 17.7437C17.4865 17.7405 17.7137 17.6774 17.9142 17.5606C18.1147 17.4439 18.2817 17.2773 18.3989 17.0771C18.9789 16.3537 19.3931 15.5119 19.6124 14.611C19.8316 13.7101 19.8506 12.7721 19.6679 11.8631C19.5931 11.5432 19.4311 11.2504 19.1999 11.0171C18.738 10.6393 18.1825 10.3934 17.5923 10.3054C17.0021 10.2174 16.399 10.2905 15.8469 10.5171C14.8169 10.9611 14.6279 11.8601 14.5989 13.0091Z" fill="url(#paint2_linear_1_2358)"/>
<defs>
<linearGradient id="paint0_linear_1_2358" x1="6.73729" y1="3.67139" x2="27.9007" y2="30.8935" gradientUnits="userSpaceOnUse">
<stop stop-color="#19A3A3"/>
<stop offset="1" stop-color="#00888D"/>
</linearGradient>
<linearGradient id="paint1_linear_1_2358" x1="3.48718" y1="6.14477" x2="6.49181" y2="35.3057" gradientUnits="userSpaceOnUse">
<stop stop-color="#19A3A3"/>
<stop offset="1" stop-color="#00888D"/>
</linearGradient>
<linearGradient id="paint2_linear_1_2358" x1="8.5218" y1="2.28874" x2="34.9606" y2="22.6313" gradientUnits="userSpaceOnUse">
<stop stop-color="#19A3A3"/>
<stop offset="1" stop-color="#00888D"/>
</linearGradient>
</defs>
</svg>
