<svg width="37" height="36" viewBox="0 0 37 36" fill="none" xmlns="http://www.w3.org/2000/svg">
<path d="M4.55298 24.945C3.43057 25.1492 2.41541 25.7408 1.68444 26.6167C0.953472 27.4926 0.553055 28.5972 0.552979 29.738V33.404H16.568V28.54L11.422 23.689L4.55298 24.945Z" fill="#DAEDEC"/>
<path d="M22.837 33.404H16.571V28.539L21.721 23.684L22.7 23.863C21.678 25.2501 21.1381 26.9337 21.1628 28.6566C21.1875 30.3794 21.7756 32.0468 22.837 33.404V33.404Z" fill="#DAEDEC"/>
<path d="M35.0611 28.518C35.0547 27.324 34.6945 26.1586 34.026 25.1692C33.3575 24.1798 32.4107 23.4107 31.3052 22.9593C30.1997 22.5079 28.9852 22.3943 27.8152 22.6329C26.6452 22.8716 25.5722 23.4518 24.7318 24.3001C23.8915 25.1484 23.3215 26.2268 23.0939 27.399C22.8663 28.5712 22.9913 29.7846 23.4531 30.8858C23.915 31.987 24.6929 32.9265 25.6886 33.5856C26.6842 34.2448 27.853 34.594 29.0471 34.5891C29.8416 34.5888 30.6282 34.4312 31.3615 34.1253C32.0947 33.8195 32.7601 33.3713 33.3193 32.8069C33.8784 32.2424 34.3203 31.5728 34.6192 30.8367C34.9182 30.1006 35.0683 29.3125 35.0611 28.518V28.518Z" fill="#A4EAE4"/>
<path d="M22.972 7.71503C22.972 7.46003 22.981 7.20502 22.972 6.95102C23.0013 5.76868 22.6355 4.61033 21.9326 3.65915C21.2297 2.70797 20.2298 2.01823 19.091 1.699C17.5652 1.2215 15.9408 1.15256 14.38 1.49902C13.4596 1.6391 12.601 2.04788 11.9119 2.6741C11.2229 3.30032 10.7342 4.11607 10.507 5.01901C10.3072 5.72286 10.1951 6.44869 10.173 7.18002C10.1145 10.1694 10.8216 13.124 12.227 15.763C12.7996 16.8367 13.6328 17.7493 14.65 18.417C15.3085 18.9221 16.1262 19.1744 16.9548 19.1282C17.7833 19.082 18.5679 18.7402 19.166 18.165C19.8698 17.4752 20.4721 16.689 20.955 15.83C22.2583 13.3221 22.9495 10.5413 22.972 7.71503V7.71503Z" fill="#DAEDEC"/>
<path d="M24 7.91203C23.9642 10.9696 23.1632 13.9696 21.67 16.638C21.1997 17.4259 20.6237 18.1455 19.958 18.777C19.1842 19.5086 18.1836 19.9536 17.1221 20.0384C16.0606 20.1231 15.0021 19.8425 14.122 19.243C12.8044 18.3872 11.7465 17.1868 11.063 15.772C9.75188 13.1291 9.09185 10.2109 9.13801 7.26103C9.15069 6.20292 9.36026 5.15643 9.756 4.17503C10.0768 3.35094 10.5869 2.61382 11.2451 2.02321C11.9033 1.43259 12.6911 1.00503 13.545 0.775039C15.3612 0.23522 17.2935 0.223754 19.116 0.742019C20.5368 1.0902 21.7958 1.91385 22.684 3.07619C23.5723 4.23852 24.0363 5.66965 23.999 7.13203C24.008 7.39503 24 7.65203 24 7.91203ZM22.722 7.82103C22.722 7.57603 22.731 7.33102 22.722 7.08702C22.7501 5.95014 22.3985 4.83635 21.7228 3.92162C21.0472 3.00688 20.0859 2.34339 18.991 2.03603C17.5233 1.57768 15.9612 1.5115 14.46 1.84404C13.5749 1.97919 12.7494 2.37259 12.0869 2.97493C11.4244 3.57727 10.9545 4.36173 10.736 5.23003C10.5442 5.90659 10.436 6.60413 10.414 7.30702C10.3584 10.1818 11.0386 13.0231 12.39 15.561C12.941 16.5938 13.743 17.4714 14.722 18.113C15.3552 18.5988 16.1415 18.8416 16.9384 18.7972C17.7352 18.7528 18.4897 18.4242 19.065 17.871C19.7411 17.2076 20.3198 16.4517 20.784 15.626C22.0374 13.2139 22.7015 10.5392 22.722 7.82103Z" fill="url(#paint0_linear_1_2328)"/>
<path d="M29.0502 35.8561C27.6042 35.862 26.1889 35.4392 24.983 34.6413C23.7772 33.8433 22.8348 32.7059 22.275 31.3727C21.7151 30.0395 21.5629 28.5703 21.8375 27.1506C22.1121 25.731 22.8013 24.4245 23.8179 23.3963C24.8346 22.3681 26.1331 21.6642 27.5496 21.3735C28.9661 21.0828 30.4369 21.2184 31.7763 21.7631C33.1158 22.3078 34.2638 23.2372 35.0754 24.434C35.8869 25.6307 36.3257 27.0411 36.3362 28.4871C36.3441 29.45 36.1616 30.405 35.7993 31.2972C35.437 32.1894 34.9019 33.0012 34.2248 33.686C33.5478 34.3708 32.7421 34.915 31.854 35.2874C30.966 35.6598 30.0131 35.8531 29.0502 35.8561V35.8561ZM35.0502 28.5211C35.0436 27.3273 34.6834 26.1622 34.0149 25.1731C33.3464 24.184 32.3997 23.4153 31.2944 22.964C30.1892 22.5128 28.975 22.3993 27.8053 22.638C26.6355 22.8766 25.5628 23.4567 24.7226 24.3048C23.8825 25.1529 23.3126 26.231 23.085 27.403C22.8574 28.5749 22.9823 29.788 23.4439 30.8889C23.9056 31.9899 24.6832 32.9293 25.6786 33.5884C26.6739 34.2475 27.8424 34.5968 29.0362 34.5921C29.8308 34.592 30.6176 34.4345 31.351 34.1286C32.0844 33.8228 32.75 33.3748 33.3094 32.8103C33.8687 32.2459 34.3107 31.5762 34.6098 30.84C34.909 30.1038 35.0593 29.3157 35.0522 28.5211H35.0502Z" fill="url(#paint1_linear_1_2328)"/>
<path d="M16.5361 27.5951C17.4061 26.8031 18.2951 26.03 19.1421 25.215C19.8581 24.526 20.5241 23.784 21.2181 23.072C21.5911 22.691 21.9781 22.649 22.2561 22.937C22.5341 23.225 22.4971 23.572 22.1391 23.946C20.4971 25.6567 18.8521 27.365 17.2041 29.071C16.7961 29.494 16.4961 29.489 16.0771 29.05C14.5871 27.49 13.1014 25.9257 11.6201 24.357C11.5463 24.2623 11.4449 24.1927 11.3298 24.1582C11.2148 24.1236 11.0919 24.1257 10.9781 24.1641C8.53305 24.7811 6.09006 25.4101 3.63306 25.9831C3.31149 26.047 3.01175 26.1926 2.76258 26.4057C2.5134 26.6188 2.32315 26.8923 2.21005 27.2C1.72714 28.4103 1.44868 29.6925 1.38606 30.994C1.33006 31.726 1.32206 32.4611 1.28606 33.1941C1.26506 33.6511 1.01606 33.919 0.626055 33.915C0.537163 33.917 0.448914 33.8995 0.367465 33.8639C0.286015 33.8282 0.213329 33.7752 0.154482 33.7086C0.0956359 33.6419 0.0520414 33.5632 0.0267511 33.478C0.00146086 33.3927 -0.00491425 33.303 0.0080591 33.215C-0.0519159 31.2102 0.223193 29.2093 0.822054 27.295C1.01161 26.7793 1.25991 26.287 1.56205 25.8281C1.88184 25.3311 2.38505 24.9807 2.96205 24.853C5.67905 24.186 8.39706 23.521 11.1091 22.834C11.3105 22.7663 11.5279 22.7622 11.7318 22.8221C11.9357 22.882 12.1163 23.0031 12.2491 23.169C13.5841 24.601 14.9431 26.012 16.2911 27.433C16.3911 27.543 16.4861 27.667 16.5831 27.784L16.5361 27.5951Z" fill="url(#paint2_linear_1_2328)"/>
<path d="M28.4841 29.62C28.5781 29.531 28.7001 29.42 28.8161 29.305C29.6921 28.429 30.5641 27.549 31.4441 26.676C31.7971 26.326 32.1731 26.299 32.4511 26.584C32.514 26.6517 32.5617 26.7321 32.591 26.8197C32.6203 26.9073 32.6306 27.0002 32.6211 27.0922C32.6117 27.1841 32.5827 27.2729 32.5361 27.3528C32.4895 27.4326 32.4264 27.5015 32.3511 27.555C31.2177 28.6957 30.0827 29.832 28.9461 30.964C28.8865 31.046 28.8084 31.1127 28.7181 31.1588C28.6278 31.2048 28.5279 31.2288 28.4266 31.2288C28.3252 31.2288 28.2253 31.2048 28.135 31.1588C28.0447 31.1127 27.9666 31.046 27.9071 30.964C27.1631 30.216 26.4277 29.459 25.7011 28.693C25.633 28.6359 25.5778 28.5651 25.5392 28.4851C25.5006 28.4052 25.4794 28.3179 25.477 28.2291C25.4747 28.1403 25.4912 28.0521 25.5255 27.9702C25.5598 27.8883 25.6111 27.8146 25.6761 27.754C25.7383 27.6911 25.8134 27.6423 25.8961 27.6109C25.9789 27.5795 26.0674 27.5664 26.1557 27.5722C26.2441 27.5781 26.3301 27.6029 26.4079 27.645C26.4858 27.687 26.5537 27.7454 26.6071 27.816C27.2281 28.406 27.8401 29 28.4841 29.62Z" fill="url(#paint3_linear_1_2328)"/>
<defs>
<linearGradient id="paint0_linear_1_2328" x1="5.09177" y1="-0.977458" x2="43.6859" y2="19.0827" gradientUnits="userSpaceOnUse">
<stop stop-color="#19A3A3"/>
<stop offset="1" stop-color="#00888D"/>
</linearGradient>
<linearGradient id="paint1_linear_1_2328" x1="1.24873" y1="3.22676" x2="34.5219" y2="33.559" gradientUnits="userSpaceOnUse">
<stop stop-color="#19A3A3"/>
<stop offset="1" stop-color="#00888D"/>
</linearGradient>
<linearGradient id="paint2_linear_1_2328" x1="-6.73187" y1="11.9742" x2="3.22919" y2="48.636" gradientUnits="userSpaceOnUse">
<stop stop-color="#19A3A3"/>
<stop offset="1" stop-color="#00888D"/>
</linearGradient>
<linearGradient id="paint3_linear_1_2328" x1="1.66768" y1="2.78504" x2="20.5454" y2="40.3359" gradientUnits="userSpaceOnUse">
<stop stop-color="#19A3A3"/>
<stop offset="1" stop-color="#00888D"/>
</linearGradient>
</defs>
</svg>
