<svg width="24" height="24" viewBox="0 0 24 24" fill="none" xmlns="http://www.w3.org/2000/svg">
<path d="M15.852 5.10536C15.8284 7.1728 15.2993 9.20126 14.313 11.0056C14.0024 11.5383 13.6219 12.0249 13.1823 12.4519C12.6712 12.9465 12.0103 13.2475 11.3092 13.3048C10.6081 13.3621 9.9089 13.1723 9.3276 12.767C8.45734 12.1883 7.75856 11.3766 7.30714 10.42C6.44114 8.63297 6.00519 6.6598 6.03568 4.66517C6.04405 3.94972 6.18247 3.24211 6.44386 2.57853C6.65574 2.0213 6.99266 1.52289 7.42739 1.12354C7.86212 0.724186 8.38249 0.435086 8.94649 0.279572C10.1461 -0.0854347 11.4224 -0.0931879 12.6261 0.257245C13.5646 0.492674 14.3962 1.0496 14.9828 1.83553C15.5695 2.62146 15.876 3.58914 15.8514 4.57795C15.8573 4.75578 15.852 4.92955 15.852 5.10536ZM15.0079 5.04382C15.0079 4.87816 15.0138 4.7125 15.0079 4.54751C15.0265 3.77879 14.7942 3.02569 14.3479 2.40718C13.9017 1.78867 13.2668 1.34003 12.5436 1.13221C11.5742 0.822291 10.5424 0.777543 9.55085 1.00239C8.96624 1.09378 8.42098 1.35978 7.98342 1.76706C7.54587 2.17434 7.23547 2.70477 7.09115 3.29188C6.96444 3.74935 6.89301 4.221 6.87847 4.69627C6.84173 6.6401 7.291 8.56127 8.18362 10.2773C8.54756 10.9757 9.07724 11.5691 9.7239 12.0029C10.1421 12.3314 10.6615 12.4955 11.1878 12.4655C11.7141 12.4355 12.2125 12.2133 12.5925 11.8393C13.039 11.3907 13.4213 10.8796 13.7278 10.3213C14.5557 8.69032 14.9944 6.88179 15.0079 5.04382Z" fill="#434E4E"/>
<path d="M19.1876 23.9999C18.2325 24.0039 17.2977 23.7181 16.5013 23.1785C15.7048 22.639 15.0824 21.8699 14.7126 20.9685C14.3428 20.067 14.2423 19.0736 14.4236 18.1136C14.605 17.1537 15.0602 16.2703 15.7317 15.5751C16.4032 14.8798 17.2609 14.4039 18.1965 14.2073C19.1321 14.0108 20.1035 14.1024 20.9882 14.4707C21.873 14.8391 22.6312 15.4675 23.1672 16.2767C23.7033 17.0859 23.9931 18.0396 24 19.0173C24.0052 19.6684 23.8847 20.3141 23.6454 20.9174C23.4061 21.5207 23.0527 22.0696 22.6055 22.5326C22.1583 22.9956 21.6261 23.3636 21.0396 23.6154C20.453 23.8672 19.8236 23.9979 19.1876 23.9999ZM23.1506 19.0403C23.1463 18.2331 22.9083 17.4453 22.4668 16.7765C22.0252 16.1077 21.4 15.5879 20.6699 15.2828C19.9399 14.9777 19.1379 14.901 18.3653 15.0623C17.5927 15.2237 16.8842 15.6159 16.3293 16.1894C15.7744 16.7628 15.3979 17.4918 15.2476 18.2842C15.0973 19.0767 15.1798 19.8969 15.4847 20.6413C15.7896 21.3857 16.3032 22.0209 16.9607 22.4666C17.6181 22.9123 18.3898 23.1484 19.1784 23.1452C19.7032 23.1452 20.2229 23.0387 20.7073 22.8319C21.1917 22.6251 21.6314 22.3222 22.0008 21.9405C22.3702 21.5588 22.6622 21.106 22.8598 20.6082C23.0573 20.1105 23.1566 19.5776 23.1519 19.0403H23.1506Z" fill="#434E4E"/>
<path d="M10.9221 18.4144C11.4967 17.8788 12.0839 17.3562 12.6433 16.8051C13.1162 16.3392 13.5561 15.8375 14.0145 15.3561C14.2609 15.0984 14.5165 15.07 14.7001 15.2648C14.8837 15.4595 14.8593 15.6941 14.6228 15.947C13.5383 17.1037 12.4518 18.2588 11.3633 19.4124C11.0938 19.6984 10.8956 19.695 10.6189 19.3982C9.63474 18.3434 8.65346 17.2856 7.67504 16.2249C7.62631 16.1608 7.55932 16.1138 7.48334 16.0905C7.40737 16.0671 7.32617 16.0685 7.25099 16.0944C5.63607 16.5116 4.02248 16.9369 2.39963 17.3244C2.18724 17.3677 1.98926 17.466 1.82468 17.6101C1.6601 17.7542 1.53444 17.9392 1.45974 18.1473C1.14077 18.9656 0.956853 19.8326 0.91549 20.7126C0.878502 21.2076 0.873219 21.7046 0.849441 22.2002C0.83557 22.5092 0.671104 22.6904 0.413509 22.6877C0.354796 22.689 0.296508 22.6772 0.24271 22.6531C0.188913 22.629 0.140904 22.5932 0.102036 22.5481C0.0631674 22.503 0.0343733 22.4498 0.0176691 22.3922C0.000964898 22.3346 -0.00324586 22.2739 0.00532303 22.2144C-0.0342904 20.8588 0.147419 19.5059 0.542966 18.2115C0.668168 17.8628 0.832169 17.5299 1.03173 17.2196C1.24295 16.8836 1.57532 16.6466 1.95643 16.5603C3.75101 16.1093 5.54625 15.6597 7.33752 15.1951C7.47058 15.1494 7.61416 15.1465 7.74884 15.187C7.88351 15.2276 8.00278 15.3095 8.09049 15.4216C8.97226 16.3899 9.86987 17.344 10.7602 18.3048C10.8263 18.3792 10.889 18.463 10.9531 18.5422L10.9221 18.4144Z" fill="#434E4E"/>
<path d="M18.8137 19.7835C18.8758 19.7233 18.9564 19.6483 19.033 19.5705C19.6116 18.9782 20.1875 18.3832 20.7688 17.7929C21.0019 17.5562 21.2503 17.538 21.4339 17.7307C21.4754 17.7765 21.5069 17.8308 21.5263 17.8901C21.5457 17.9493 21.5525 18.0121 21.5462 18.0743C21.54 18.1365 21.5208 18.1965 21.4901 18.2505C21.4593 18.3045 21.4176 18.3511 21.3678 18.3872C20.6193 19.1585 19.8696 19.9269 19.1188 20.6923C19.0795 20.7477 19.0279 20.7929 18.9683 20.824C18.9086 20.8551 18.8426 20.8713 18.7757 20.8713C18.7088 20.8713 18.6428 20.8551 18.5831 20.824C18.5235 20.7929 18.4719 20.7477 18.4326 20.6923C17.9412 20.1865 17.4555 19.6747 16.9755 19.1567C16.9306 19.1182 16.8941 19.0702 16.8686 19.0162C16.8431 18.9621 16.8291 18.9031 16.8275 18.8431C16.826 18.783 16.8369 18.7234 16.8596 18.668C16.8822 18.6126 16.9161 18.5628 16.959 18.5218C17.0001 18.4793 17.0497 18.4463 17.1043 18.425C17.159 18.4038 17.2175 18.3949 17.2758 18.3989C17.3342 18.4029 17.391 18.4197 17.4424 18.4481C17.4938 18.4765 17.5387 18.516 17.5739 18.5637C17.9841 18.9627 18.3883 19.3643 18.8137 19.7835Z" fill="#434E4E"/>
</svg>
