<svg width="62" height="62" viewBox="0 0 62 62" fill="none" xmlns="http://www.w3.org/2000/svg">
<path d="M30.905 61.81C47.9734 61.81 61.81 47.9734 61.81 30.905C61.81 13.8366 47.9734 0 30.905 0C13.8366 0 0 13.8366 0 30.905C0 47.9734 13.8366 61.81 30.905 61.81Z" fill="url(#paint0_linear_2539_2874)"/>
<g clip-path="url(#clip0_2539_2874)">
<path d="M22.4731 20.4097C23.0294 20.084 23.6073 19.7966 24.2026 19.5494C25.4518 19.0221 26.7743 18.6889 28.1241 18.5613L29.5798 20.2069L28.9017 21.9106C27.5874 22.1658 26.3285 22.6511 25.183 23.3443L24.9311 23.4993L24.7012 21.2557L22.4731 20.4032V20.4097ZM21.8402 20.8101L24.151 21.7013L24.3938 23.9101C23.144 24.8272 22.1396 26.0384 21.4695 27.4363C21.4043 27.563 21.3444 27.6922 21.2899 27.8238L19.6624 25.8489L17.0093 26.4095C17.668 24.9895 18.5699 23.6956 19.6741 22.5861C20.3388 21.9127 21.0566 21.3203 21.8273 20.8088L21.8402 20.8101ZM37.0586 36.3772C37.31 35.9596 37.5167 35.5334 37.6786 35.0985L40.1818 38.1339L44.3862 37.2285C44.1426 37.8947 43.857 38.5449 43.5311 39.175C42.6778 40.8262 41.5169 42.2993 40.1108 43.515C38.6912 44.7469 37.0332 45.6733 35.2399 46.2365L35.1327 46.2701L32.0185 43.6364L32.831 40.052L32.8968 40.0249C34.6781 39.2499 36.0705 38.05 37.0612 36.363V36.3772H37.0586ZM42.3234 22.2064C42.5805 22.559 42.8194 22.9297 43.0506 23.3095C44.0017 24.9082 44.6739 26.6571 45.0385 28.4813C45.3886 30.3025 45.4454 32.1354 45.1935 33.9735C45.0623 34.8499 44.8619 35.7146 44.5942 36.5594L40.3898 37.4622L37.8711 34.4178C38.168 33.2732 38.1945 32.0753 37.9486 30.9187C37.6821 29.5391 37.031 28.2629 36.0705 27.2374L40.6029 26.6949L42.2898 22.2051L42.3234 22.2064ZM16.7291 27.0876L19.4416 26.5141L21.0381 28.4632C20.533 29.8634 20.4181 31.3178 20.6699 32.829C20.7281 33.2605 20.8236 33.6764 20.9412 34.0807L18.0737 33.4284L16.0199 35.858C15.773 34.7758 15.6504 33.669 15.6544 32.5591C15.657 30.6853 16.0044 28.8774 16.6968 27.1354L16.7174 27.085L16.7291 27.0876ZM21.175 34.7523C21.5922 35.8531 22.2092 36.8672 22.9949 37.7438C23.5956 38.44 24.2737 39.0032 25.0138 39.4475L22.1721 41.0763L22.3271 44.7757C21.3868 44.1897 20.5195 43.4937 19.7438 42.7025C18.438 41.3683 17.4105 39.7876 16.7213 38.0525C16.5288 37.5682 16.3726 37.0838 16.2369 36.5994L18.3488 34.1207L21.2163 34.7782L21.175 34.7523ZM25.6338 39.786C26.2452 40.0908 26.8988 40.3233 27.5946 40.4835C29.1014 40.8473 30.6798 40.7843 32.1528 40.3013L31.3456 43.8625L34.4288 46.4716C32.8872 46.8747 31.2948 47.0492 29.7026 46.9896C27.3347 46.9193 25.0181 46.2838 22.9458 45.136L22.7921 41.4135L25.6338 39.786ZM41.8868 21.6367L40.1909 26.1395L35.5228 26.7014C35.3898 26.582 35.2487 26.4719 35.1004 26.372C33.6013 25.2224 31.8092 24.5174 29.9286 24.3376C29.4817 24.3002 29.0567 24.3002 28.6498 24.3002L30.2773 20.1332L26.755 16.1226C27.8232 16.0064 28.8694 15.9883 29.9312 16.0064C30.5632 16.0245 31.1914 16.0731 31.8157 16.1523C32.6941 16.2673 33.5608 16.461 34.4184 16.6948C36.2332 17.2115 37.8866 18.0304 39.381 19.1877C40.3124 19.8995 41.1539 20.7219 41.8868 21.6367Z" fill="white"/>
</g>
<defs>
<linearGradient id="paint0_linear_2539_2874" x1="30.905" y1="0" x2="30.905" y2="61.81" gradientUnits="userSpaceOnUse">
<stop stop-color="#4DB8D1"/>
<stop offset="0.0001" stop-color="#4BB3CF"/>
<stop offset="0.396377" stop-color="#4BB3CF"/>
<stop offset="1" stop-color="#203D98"/>
</linearGradient>
<clipPath id="clip0_2539_2874">
<rect width="31" height="31" fill="white" transform="translate(15 16)"/>
</clipPath>
</defs>
</svg>
