<svg width="209" height="246" viewBox="0 0 209 246" fill="none" xmlns="http://www.w3.org/2000/svg">
<g clip-path="url(#clip0_2288_4702)">
<path d="M86.7747 201.907C90.9333 197.671 96.9598 195.242 103.309 195.242L103.554 195.243C107.736 195.244 111.843 194.149 115.456 192.068L115.832 191.852L115.529 191.544C113.89 189.869 112.521 187.955 111.471 185.869C112.217 186.556 113.106 187.072 114.077 187.382C115.047 187.692 116.075 187.787 117.087 187.661C118.155 187.535 119.18 187.172 120.086 186.599C120.992 186.026 121.755 185.257 122.317 184.351C124.536 180.795 127.182 175.75 127.182 171.906C127.178 168.657 126.489 165.444 125.159 162.472C123.829 159.501 121.886 156.835 119.456 154.646C117.917 153.276 116.687 151.6 115.848 149.729C115.009 147.858 114.578 145.833 114.584 143.786L114.585 143.495C114.586 140.8 114.252 138.115 113.593 135.501C112.933 132.886 113.526 135.237 113.526 135.237C113.526 135.237 115.024 135.187 113.25 135.246C111.477 135.306 109.702 135.159 107.963 134.809C109.595 134.611 111.19 134.192 112.705 133.563C112.705 133.563 112.911 133.531 113.001 133.445C113.224 133.231 112.705 132.711 112.705 132.711C105.783 128.478 90.3538 131.105 81.2848 110.611C73.931 93.9934 47.9844 125.362 47.9844 143.495C47.9844 145.345 49.8383 147.79 48.4505 149.013C33.4482 162.232 43.7996 170.72 47.0632 179.262C47.8375 181.289 46.1585 183.513 46.1585 185.706C46.1585 186.078 46.1681 186.462 46.1871 186.847L46.216 187.44L46.7162 187.111C47.7058 186.471 48.623 185.728 49.4523 184.894C48.592 186.85 48.1865 188.971 48.2658 191.102C48.345 193.232 48.907 195.318 49.9103 197.206C51.4825 200.137 53.0035 202.235 54.4311 203.442C59.0041 207.307 64.8993 209.301 70.9113 209.016C76.9233 208.731 82.5979 206.188 86.7747 201.907Z" fill="#E6E6E6"/>
<path d="M60.3623 246C60.2601 246 60.1613 245.963 60.0841 245.897C60.007 245.831 59.9566 245.739 59.9422 245.639C59.9241 245.514 58.1558 232.918 59.7439 216.178C61.2106 200.717 65.9205 178.449 80.0297 160.161C80.0635 160.117 80.1058 160.08 80.154 160.052C80.2023 160.024 80.2556 160.006 80.3109 159.999C80.3663 159.991 80.4225 159.995 80.4765 160.009C80.5305 160.023 80.5812 160.047 80.6256 160.081C80.67 160.114 80.7073 160.156 80.7354 160.204C80.7635 160.251 80.7817 160.304 80.7892 160.359C80.7966 160.413 80.7931 160.469 80.7788 160.522C80.7644 160.576 80.7396 160.626 80.7057 160.669C66.7184 178.8 62.0464 200.905 60.5901 216.256C59.0112 232.899 60.7656 245.397 60.7835 245.521C60.7921 245.581 60.7875 245.641 60.7703 245.699C60.753 245.757 60.7234 245.81 60.6835 245.855C60.6435 245.901 60.5942 245.937 60.5388 245.962C60.4834 245.987 60.4232 246 60.3623 246Z" fill="#323232"/>
<path d="M71.8765 185.958C71.7867 185.958 71.6992 185.93 71.6266 185.878C71.5539 185.825 71.4999 185.752 71.4721 185.668C71.4443 185.583 71.4443 185.493 71.472 185.408C71.4997 185.324 71.5537 185.25 71.6263 185.198C75.6466 182.511 79.9897 180.327 84.5555 178.698C91.6888 176.118 102.536 173.78 113.703 177.29C113.756 177.307 113.806 177.334 113.849 177.369C113.891 177.405 113.927 177.448 113.952 177.497C113.978 177.546 113.994 177.6 113.998 177.655C114.003 177.71 113.997 177.765 113.98 177.818C113.963 177.87 113.936 177.919 113.9 177.961C113.864 178.003 113.82 178.038 113.77 178.063C113.72 178.089 113.666 178.104 113.61 178.109C113.555 178.113 113.499 178.107 113.445 178.09C102.507 174.652 91.8565 176.952 84.8477 179.486C80.3553 181.087 76.0819 183.234 72.1259 185.877C72.0535 185.929 71.9661 185.958 71.8765 185.958Z" fill="#323232"/>
<path d="M52.428 138.116C52.4214 138.028 52.4434 137.94 52.4908 137.865C52.5381 137.789 52.6084 137.731 52.6915 137.697C52.7746 137.664 52.8663 137.657 52.9535 137.678C53.0406 137.7 53.1187 137.748 53.1766 137.815C56.1803 141.582 58.6982 145.703 60.6723 150.084C63.7907 156.925 66.9333 167.443 64.1926 178.696C64.1797 178.75 64.1561 178.8 64.1233 178.845C64.0905 178.89 64.0491 178.927 64.0015 178.956C63.9539 178.985 63.901 179.004 63.8459 179.013C63.7907 179.022 63.7344 179.019 63.6801 179.007C63.6258 178.994 63.5746 178.97 63.5294 178.938C63.4843 178.905 63.446 178.865 63.4169 178.817C63.3878 178.77 63.3683 178.718 63.3597 178.664C63.351 178.609 63.3533 178.554 63.3664 178.5C66.0507 167.477 62.9614 157.151 59.8973 150.429C57.9567 146.118 55.4809 142.063 52.5269 138.356C52.469 138.289 52.4344 138.205 52.428 138.116Z" fill="#323232"/>
<path d="M195.961 245.556H162.134L161.988 245.295C161.556 244.52 161.138 243.699 160.748 242.856C157.264 235.488 155.791 227.062 154.491 219.627L153.513 214.023C153.394 213.345 153.484 212.647 153.769 212.018C154.055 211.39 154.524 210.86 155.116 210.497C155.708 210.133 156.397 209.952 157.094 209.978C157.79 210.003 158.464 210.233 159.027 210.638C164.168 214.333 169.311 218.024 174.456 221.712C176.404 223.112 178.628 224.732 180.759 226.483C180.965 225.497 181.18 224.508 181.395 223.532C181.543 222.859 181.891 222.245 182.395 221.768C182.899 221.291 183.535 220.974 184.223 220.856C184.91 220.739 185.618 220.827 186.254 221.109C186.891 221.391 187.428 221.854 187.797 222.439L191.754 228.719C194.641 233.306 197.189 237.825 196.67 242.7C196.672 242.759 196.668 242.818 196.656 242.877C196.552 243.677 196.36 244.464 196.082 245.223L195.961 245.556Z" fill="#F0F0F0"/>
<path d="M180.201 114.208L173.672 90.3423C173.393 89.332 172.722 88.4708 171.805 87.9445C170.889 87.4182 169.799 87.2691 168.772 87.5293C168.24 87.6639 167.742 87.9039 167.308 88.2348C166.874 88.5658 166.512 88.9806 166.245 89.454C165.978 89.9275 165.812 90.4496 165.756 90.9886C165.701 91.5277 165.756 92.0723 165.921 92.5892L173.472 117.174L177.422 132.304C176.847 132.738 176.421 133.337 176.202 134.018C175.982 134.699 175.981 135.431 176.198 136.113C176.414 136.796 176.838 137.395 177.412 137.832C177.986 138.268 178.681 138.519 179.405 138.55C180.128 138.582 180.843 138.393 181.454 138.01C182.065 137.626 182.541 137.066 182.818 136.405C183.096 135.745 183.16 135.016 183.004 134.318C182.847 133.62 182.476 132.986 181.942 132.503L180.201 114.208Z" fill="#D27852"/>
<path d="M125.266 109.068L145.101 93.9906C145.94 93.3493 146.49 92.4082 146.632 91.3703C146.774 90.3324 146.497 89.2809 145.861 88.4427C145.532 88.0091 145.117 87.6462 144.642 87.3762C144.166 87.1062 143.64 86.9346 143.095 86.872C142.55 86.8094 141.998 86.8571 141.472 87.0121C140.946 87.1672 140.458 87.4263 140.037 87.7737L119.919 104.059L107.272 113.446C106.646 113.087 105.924 112.926 105.202 112.987C104.481 113.047 103.796 113.325 103.24 113.784C102.685 114.242 102.285 114.858 102.097 115.548C101.908 116.239 101.939 116.97 102.185 117.642C102.432 118.314 102.882 118.895 103.474 119.306C104.067 119.717 104.773 119.938 105.497 119.938C106.221 119.939 106.927 119.719 107.521 119.31C108.114 118.9 108.565 118.32 108.813 117.648L125.266 109.068Z" fill="#D27852"/>
<path d="M141.433 112.534L140.559 131.82L168.012 125.927C165.675 118.178 164.086 116.856 165.842 111.462L141.433 112.534Z" fill="#D27852"/>
<path d="M158.313 77.1762H149.166L145.237 83.8156L143.365 83.7135C142.45 83.6636 141.534 83.7986 140.673 84.1103C139.812 84.4219 139.024 84.9037 138.358 85.5262C137.693 86.1486 137.162 86.8987 136.8 87.7305C136.437 88.5623 136.25 89.4584 136.25 90.364L138.556 93.8946C138.556 93.8946 134.432 100.994 140.373 104.487C140.373 104.487 139.313 111.068 140.373 110.997C141.433 110.927 143.874 109.587 141.433 110.927C138.992 112.266 139.174 112.446 139.49 112.758L139.806 113.07L165.472 117.326C165.472 117.326 166.223 112.412 166.303 111.535C166.384 110.659 165.842 112.802 166.384 110.659C166.927 108.516 167.74 109.319 166.927 108.516C166.113 107.712 172.199 97.7564 169.698 93.8946L173.707 90.0328C173.707 86.3285 167.683 83.3255 163.933 83.3255H163.452L158.313 77.1762Z" fill="#E6E6E6"/>
<path d="M136.274 238.12H132.571L130.81 224.015L136.274 224.016L136.274 238.12Z" fill="#D27852"/>
<path d="M125.099 243.516C125.101 243.925 125.266 244.318 125.559 244.608C125.852 244.898 126.249 245.062 126.664 245.064H133.633L133.849 244.622L134.835 242.613L135.217 244.622L135.301 245.064H137.93L137.893 244.619L137.192 236.317L136.275 236.261L132.312 236.029L131.339 235.97V238.45C130.601 239.225 124.805 242.159 125.099 243.516Z" fill="#323232"/>
<path d="M191.298 228.542L188.184 230.52L178.977 219.599L183.572 216.68L191.298 228.542Z" fill="#D27852"/>
<path d="M184.856 239.051C185.081 239.395 185.435 239.636 185.841 239.724C186.246 239.811 186.67 239.737 187.02 239.517L192.881 235.793L192.821 235.306L192.549 233.089L193.971 234.575L194.284 234.902L196.495 233.497L196.22 233.143L191.082 226.535L190.281 226.978L186.821 228.9L185.971 229.371L187.329 231.456C187.132 232.503 183.865 238.067 184.856 239.051Z" fill="#323232"/>
<path d="M212.28 245.771L20.7196 246C20.5284 245.999 20.3454 245.905 20.2105 245.739C20.0757 245.573 20 245.348 20 245.114C20 244.88 20.0757 244.656 20.2105 244.49C20.3454 244.324 20.5284 244.23 20.7196 244.229L212.28 244C212.472 244.001 212.655 244.095 212.789 244.261C212.924 244.427 213 244.652 213 244.886C213 245.12 212.924 245.344 212.789 245.51C212.655 245.676 212.472 245.77 212.28 245.771Z" fill="#CACACA"/>
<path d="M167.581 123.749C167.581 123.749 150.033 132.917 140.751 126.662C140.751 126.662 138.721 136.374 137.907 137.178C137.093 137.981 135.797 138.332 136.716 139.228C137.636 140.124 138.147 141.335 136.4 142.873C134.652 144.41 132.91 143.922 134.595 145.506C136.28 147.089 129.499 185.93 129.499 185.93C129.499 185.93 130.584 222.051 129.499 223.143C128.414 224.235 128 225 128.367 225.831C129.771 227.182 129.771 226.134 129.771 227.997V229.861L130.412 231.713H139.218C139.218 231.713 141.344 229.274 139.218 227.157C139.218 227.157 139.865 224.46 140.513 222.472C140.83 221.5 141.161 222 141.161 220.485C140.077 218.342 139.556 218.75 139.545 217.341C139.534 215.931 155.536 160.75 155.536 160.75L157.474 191.292L180.786 224.741L187.647 219.658C187.647 219.658 182.652 212.712 183.82 211.757C184.988 210.802 180.377 209.604 181.831 208.527C183.285 207.45 179.784 206.365 181.104 204.937C182.423 203.509 179.286 199.91 177.468 199.91C175.651 199.91 173.1 193.91 173.1 193.91L176.908 146.517L167.581 123.749Z" fill="#323232"/>
<path d="M148.982 57.6812C148.858 57.8423 147.868 57.7556 146.678 57.584C144.326 57.2447 144.005 57.6479 142.247 59.2279C139.699 61.5166 141.148 75.4763 139.896 78.501L139.491 78.7953C140.293 78.644 141.081 78.4263 141.846 78.1444C142.279 76.7974 142.712 75.446 143.148 74.1001C143.56 75.1473 143.819 76.2471 143.918 77.3663C144.523 77.1305 145.125 76.5539 147.656 75.7805C148.93 74.9268 158.148 74.0684 159.333 73.6928C162.341 63.5858 157.494 59.4985 148.982 57.6812Z" fill="#323232"/>
<path d="M152.094 73.2666C156.959 73.2666 160.903 69.3712 160.903 64.5661C160.903 59.761 156.959 55.8657 152.094 55.8657C147.229 55.8657 143.285 59.761 143.285 64.5661C143.285 69.3712 147.229 73.2666 152.094 73.2666Z" fill="#D27852"/>
<path d="M157.64 56.9144C157.144 56.8421 156.666 56.6766 156.232 56.427C156.018 56.2988 155.843 56.1135 155.73 55.8922C155.617 55.671 155.569 55.4227 155.591 55.1758C155.7 54.5576 156.408 54.1885 157.042 54.2261C157.673 54.316 158.273 54.5558 158.79 54.9248C158.733 54.3274 158.475 53.7662 158.056 53.3313C157.637 52.8963 157.083 52.613 156.482 52.5267C157.316 52.4823 158.183 52.4432 158.954 52.76C159.725 53.0768 160.368 53.8612 160.229 54.6746C161.525 54.5097 162.804 55.4019 163.339 56.5798C163.874 57.7577 163.768 59.141 163.341 60.3611C163.298 60.5479 163.216 60.7237 163.099 60.8763C162.982 61.029 162.833 61.155 162.663 61.2459C162.226 61.4095 161.757 61.1352 161.379 60.8649C159.404 59.4525 157.606 57.8129 156.024 55.9805" fill="#323232"/>
<path d="M161.481 73.816C161.107 73.9897 161.302 74.6357 161.012 74.925C160.886 75.0475 160.734 75.1408 160.567 75.1982C160.523 74.659 160.396 74.1296 160.19 73.6285C160.152 73.5374 160.09 73.4357 159.992 73.4437C159.878 73.4571 159.848 73.6044 159.845 73.7142C159.823 74.259 159.7 74.7953 159.485 75.2974C159.482 75.3027 159.479 75.3107 159.477 75.3161C159.393 75.3134 159.306 75.3107 159.224 75.3081C158.595 75.284 157.201 73.6875 156.892 74.2286C157.982 72.3187 159.311 69.4471 159.515 67.2639C159.585 66.8069 159.551 66.34 159.414 65.8978C159.343 65.6778 159.209 65.4826 159.029 65.3354C158.849 65.1882 158.629 65.0952 158.397 65.0674C158.283 65.0623 158.168 65.0822 158.063 65.1257C157.957 65.1693 157.862 65.2354 157.785 65.3193C157.708 65.4033 157.651 65.503 157.617 65.6113C157.584 65.7197 157.575 65.834 157.592 65.946L157.434 65.9246C155.975 64.7513 157.234 62.7128 155.536 61.9066C154.961 61.6333 151.441 62.5468 150.82 62.3861C150.806 61.7399 150.673 61.1016 150.426 60.5029C150.388 60.4119 150.326 60.3101 150.228 60.3181C150.114 60.3315 150.085 60.4788 150.082 60.5886C150.059 61.1335 149.937 61.6697 149.721 62.1718C148.861 62.0512 147.985 62.0967 147.142 62.3057C146.399 62.4985 145.694 62.8307 144.948 63.0075C144.579 63.1191 144.191 63.1553 143.808 63.1138C143.425 63.0724 143.054 62.9541 142.718 62.7664C141.772 62.1396 141.607 60.752 142.078 59.7288C142.42 59.0722 142.882 58.4837 143.44 57.993C143.866 57.5858 144.308 57.1947 144.75 56.8036C145.146 56.4527 145.542 56.1018 145.938 55.7509C146.436 55.2875 146.967 54.8597 147.527 54.4705C148.421 53.8919 149.425 53.4999 150.477 53.3184C151.53 53.1369 152.609 53.1698 153.648 53.4151C154.896 53.7097 156.564 53.2946 157.706 53.8705C158.302 54.1732 159.623 55.333 160.147 55.7456C161.486 56.7983 160.58 55.9405 162.045 56.5492C165.539 58.0005 163.994 72.6475 161.481 73.816Z" fill="#323232"/>
<path d="M63.9454 137.32C94.1167 137.32 118.575 113.162 118.575 83.3629C118.575 53.5634 94.1167 29.4061 63.9454 29.4061C33.7741 29.4061 9.31543 53.5634 9.31543 83.3629C9.31543 113.162 33.7741 137.32 63.9454 137.32Z" fill="white"/>
<path d="M63.9458 137.858C33.5221 137.858 8.77051 113.412 8.77051 83.3628C8.77051 53.314 33.5221 28.8675 63.9458 28.8675C94.3695 28.8675 119.121 53.314 119.121 83.3628C119.121 113.412 94.3695 137.858 63.9458 137.858ZM63.9458 29.9446C34.1235 29.9446 9.86113 53.908 9.86113 83.3628C9.86113 112.818 34.1235 136.781 63.9458 136.781C93.7681 136.781 118.03 112.818 118.03 83.3628C118.03 53.908 93.7681 29.9446 63.9458 29.9446Z" fill="#3B67E9"/>
<rect x="174.72" y="197.082" width="12.3227" height="21.7663" transform="rotate(-29.5738 174.72 197.082)" fill="white"/>
<path d="M65.7431 111.539C67.8226 110.216 69.9082 108.9 71.9877 107.577C72.929 106.98 73.8826 106.39 74.7993 105.75C76.9772 104.23 79.0198 102.501 80.8348 100.557C84.4277 96.6996 87.1594 92.1284 88.8882 87.1512C90.2971 83.0845 90.9 78.7963 90.9 74.502V66.3132C90.9 65.2119 90.131 64.2522 89.0912 63.9384C88.3406 63.7107 87.5962 63.477 86.8764 63.1755C87.0732 63.2555 87.2701 63.3416 87.467 63.4216C86.1812 62.874 84.9753 62.1727 83.8679 61.3236L84.3662 61.7112C83.2711 60.8622 82.2867 59.884 81.4377 58.7889L81.8253 59.2872C80.9763 58.1798 80.2687 56.9678 79.7212 55.6819C79.8012 55.8788 79.8873 56.0757 79.9673 56.2726C79.7827 55.8296 79.6105 55.3743 79.4628 54.919C79.1306 53.8793 78.2016 53.1103 77.088 53.1103H55.0072C53.9921 53.1103 52.9708 53.0795 51.9557 53.1103H51.9126C50.7929 53.1103 49.87 53.8793 49.5378 54.919C49.3901 55.3805 49.224 55.8296 49.0333 56.2726C49.1133 56.0757 49.1994 55.8788 49.2794 55.6819C48.7318 56.9678 48.0243 58.1736 47.1753 59.2872L47.5629 58.7889C46.7139 59.884 45.7295 60.8622 44.6344 61.7112L45.1327 61.3236C44.0253 62.1727 42.8133 62.874 41.5336 63.4216C41.7305 63.3416 41.9273 63.2555 42.1242 63.1755C41.3982 63.477 40.66 63.7107 39.9094 63.9384C38.8696 64.2522 38.1006 65.2119 38.1006 66.3132V73.7329C38.1006 75.0372 38.1006 76.3415 38.1929 77.6458C38.3897 80.2975 38.8389 82.943 39.5833 85.4962C41.0599 90.5657 43.6192 95.2354 47.0153 99.2651C49.6547 102.397 52.8354 104.931 56.2808 107.116L63.0914 111.434C63.1468 111.471 63.2083 111.508 63.2637 111.545C64.3526 112.234 66.0261 111.81 66.629 110.659C67.2688 109.441 66.9059 108.032 65.7431 107.294C64.6356 106.593 63.5282 105.891 62.427 105.19C61.0119 104.292 59.603 103.4 58.188 102.501C57.1975 101.874 56.2315 101.203 55.2964 100.489L55.7947 100.877C53.4691 99.0744 51.3773 96.9826 49.5747 94.657L49.9623 95.1554C48.1289 92.7744 46.6031 90.1658 45.428 87.3973C45.508 87.5941 45.5941 87.791 45.6741 87.9879C44.4744 85.1394 43.6562 82.1493 43.2439 79.0854C43.2747 79.3008 43.3055 79.5223 43.3301 79.7376C43.0655 77.7442 43.0225 75.7509 43.0225 73.7514V66.3378C42.4195 67.1314 41.8166 67.9189 41.2137 68.7126C43.3362 68.0728 45.3911 67.2237 47.1937 65.9256C49.3286 64.3875 51.1497 62.4926 52.5032 60.2285C53.2477 58.9857 53.8444 57.6322 54.2874 56.2541C53.4937 56.857 52.7063 57.46 51.9126 58.0629H73.9934C75.0085 58.0629 76.0298 58.0875 77.0449 58.0629H77.088C76.2943 57.46 75.5068 56.857 74.7132 56.2541C76.2574 61.0714 79.7643 65.2611 84.3662 67.4268C85.4736 67.9497 86.6118 68.3558 87.7869 68.7126C87.184 67.9189 86.5811 67.1314 85.9781 66.3378V75.0618C85.9781 76.6245 85.8735 78.1872 85.6705 79.7376C85.7013 79.5223 85.732 79.3008 85.7566 79.0854C85.3383 82.1432 84.52 85.1394 83.3265 87.9879C83.4064 87.791 83.4926 87.5941 83.5726 87.3973C82.3975 90.1658 80.8717 92.7744 79.0383 95.1554L79.4259 94.657C77.6232 96.9826 75.5314 99.0744 73.2059 100.877L73.7042 100.489C72.3261 101.554 70.8618 102.471 69.3976 103.406C67.7733 104.439 66.1491 105.467 64.5249 106.5C64.1065 106.765 63.682 107.036 63.2637 107.3C62.7284 107.638 62.3039 108.149 62.1316 108.771C61.9717 109.361 62.0455 110.142 62.3777 110.665C63.0791 111.748 64.5803 112.277 65.7431 111.539Z" fill="#3B67E9"/>
<path d="M51.9617 82.3708L58.2802 88.6893L59.1784 89.5875C60.1197 90.5288 61.7193 90.5288 62.6606 89.5875L67.5395 84.7087L75.2606 76.9875L77.0387 75.2095C77.9492 74.2989 78.0169 72.6255 77.0387 71.7272C76.0543 70.8229 74.5285 70.7552 73.5564 71.7272L68.6776 76.6061L60.9564 84.3273L59.1784 86.1053H62.6606L56.3422 79.7868L55.4439 78.8886C54.5334 77.978 52.86 77.9104 51.9617 78.8886C51.0573 79.873 50.9896 81.3926 51.9617 82.3708Z" fill="#3B67E9"/>
<rect x="37.9736" y="52.6579" width="54.7105" height="11.6053" fill="white"/>
<rect x="37.5732" y="64.9583" width="30.0737" height="4.97368" rx="2.48684" transform="rotate(-22.4233 37.5732 64.9583)" fill="#3B67E9"/>
<rect width="30.6462" height="4.97368" rx="2.48684" transform="matrix(-0.924391 -0.381446 -0.381446 0.924391 91.6191 64.9209)" fill="#3B67E9"/>
<path d="M139.612 217.546C139.63 216.557 140.445 215.77 141.434 215.787L143.147 215.817L142.866 231.969L139.362 231.908L139.612 217.546Z" fill="white"/>
<rect x="122.999" y="217.001" width="6.69922" height="12" fill="white"/>
</g>
<defs>
<clipPath id="clip0_2288_4702">
<rect width="209" height="246" fill="white"/>
</clipPath>
</defs>
</svg>
