<svg width="17" height="19" viewBox="0 0 17 19" fill="none" xmlns="http://www.w3.org/2000/svg">
<path d="M1.40095 0.400024C1.56008 0.400024 1.71269 0.463239 1.82522 0.57576C1.93774 0.688282 2.00095 0.840895 2.00095 1.00002C2.00095 5.34882 5.45215 8.80002 9.80095 8.80002L10.7526 8.80002L9.37615 7.42482C9.32037 7.36904 9.27611 7.30281 9.24592 7.22993C9.21573 7.15704 9.20019 7.07892 9.20019 7.00002C9.20019 6.92113 9.21573 6.84301 9.24592 6.77012C9.27611 6.69724 9.32037 6.63101 9.37615 6.57522C9.48882 6.46256 9.64162 6.39927 9.80095 6.39927C9.87984 6.39927 9.95796 6.41481 10.0309 6.445C10.1037 6.47519 10.17 6.51944 10.2258 6.57522L12.6258 8.97522C12.6816 9.03096 12.726 9.09717 12.7562 9.17006C12.7865 9.24296 12.802 9.3211 12.802 9.40002C12.802 9.47895 12.7865 9.55709 12.7562 9.62998C12.726 9.70288 12.6816 9.76909 12.6258 9.82483L10.2258 12.2248C10.17 12.2806 10.1037 12.3249 10.0309 12.3551C9.95796 12.3852 9.87984 12.4008 9.80095 12.4008C9.72206 12.4008 9.64394 12.3852 9.57105 12.3551C9.49816 12.3249 9.43194 12.2806 9.37615 12.2248C9.32037 12.169 9.27611 12.1028 9.24592 12.0299C9.21573 11.957 9.20019 11.8789 9.20019 11.8C9.20019 11.7211 9.21573 11.643 9.24592 11.5701C9.27611 11.4972 9.32037 11.431 9.37615 11.3752L10.7526 10L9.80095 10C8.77473 9.99317 7.75736 10.1902 6.80793 10.5798C5.85849 10.9694 4.9959 11.5436 4.27023 12.2693C3.54457 12.995 2.97028 13.8576 2.58072 14.807C2.19117 15.7564 1.99409 16.7738 2.00095 17.8C2.00095 17.9592 1.93774 18.1118 1.82522 18.2243C1.71269 18.3368 1.56008 18.4 1.40095 18.4C1.24182 18.4 1.08921 18.3368 0.976688 18.2243C0.864166 18.1118 0.800952 17.9592 0.800952 17.8C0.789738 15.9833 1.33231 14.2062 2.35641 12.7055C3.3805 11.2049 4.83751 10.0518 6.53335 9.40002C4.83751 8.74821 3.3805 7.59518 2.35641 6.09451C1.33231 4.59385 0.789738 2.81679 0.800952 1.00002C0.800952 0.840895 0.864166 0.688282 0.976688 0.57576C1.08921 0.463239 1.24182 0.400024 1.40095 0.400024ZM8.03935 11.4316C6.56686 11.8263 5.27937 12.7249 4.40095 13.9708L4.40095 14.8C4.40095 15.4365 4.65381 16.047 5.1039 16.4971C5.55398 16.9472 6.16443 17.2 6.80095 17.2L14.001 17.2C14.6375 17.2 15.2479 16.9472 15.698 16.4971C16.1481 16.047 16.401 15.4365 16.401 14.8L16.401 4.00002C16.401 3.3635 16.1481 2.75306 15.698 2.30297C15.2479 1.85288 14.6375 1.60002 14.001 1.60002L6.80095 1.60002C6.16443 1.60002 5.55398 1.85288 5.1039 2.30297C4.65381 2.75306 4.40095 3.3635 4.40095 4.00002L4.40095 4.82922C5.27937 6.07518 6.56686 6.9737 8.03935 7.36842C7.95966 6.989 8.0047 6.59399 8.16774 6.24224C8.33078 5.89049 8.60311 5.60083 8.94414 5.41642C9.28517 5.23201 9.67665 5.16272 10.0603 5.21887C10.4439 5.27502 10.7991 5.45361 11.073 5.72802L13.473 8.12802C13.6402 8.29518 13.7729 8.49367 13.8634 8.71213C13.954 8.93059 14.0006 9.16475 14.0006 9.40123C14.0006 9.6377 13.954 9.87186 13.8634 10.0903C13.7729 10.3088 13.6402 10.5073 13.473 10.6744L11.073 13.0744C10.7989 13.3492 10.4434 13.5281 10.0595 13.5844C9.67549 13.6407 9.28362 13.5713 8.94225 13.3868C8.60089 13.2022 8.32832 12.9122 8.16517 12.5601C8.00203 12.208 7.95706 11.8126 8.03695 11.4328" fill="url(#paint0_linear_2444_3360)"/>
<defs>
<linearGradient id="paint0_linear_2444_3360" x1="8.60087" y1="0.400024" x2="8.60087" y2="18.4" gradientUnits="userSpaceOnUse">
<stop stop-color="#203B97"/>
<stop offset="1" stop-color="#4CB6D1"/>
</linearGradient>
</defs>
</svg>
