<svg width="24" height="24" viewBox="0 0 24 24" fill="none" xmlns="http://www.w3.org/2000/svg">
<path d="M4.53965 2.99475C4.53965 2.71904 4.53778 2.47078 4.54027 2.22313C4.54838 1.40037 5.21084 0.749138 6.03735 0.749138C6.86323 0.749762 7.52319 1.40161 7.5313 2.22625C7.5338 2.47389 7.53193 2.72154 7.53193 2.98165C8.53185 2.98165 9.51119 2.98165 10.528 2.98165C10.528 2.74898 10.5273 2.5107 10.528 2.27304C10.5311 1.4852 11.09 0.835843 11.8354 0.754128C12.6357 0.666175 13.3512 1.17019 13.4909 1.96863C13.5471 2.29237 13.5003 2.63358 13.5003 2.9804C14.5239 2.9804 15.5088 2.9804 16.5169 2.9804C16.5169 2.72465 16.515 2.47701 16.5175 2.22937C16.525 1.40348 17.1837 0.749762 18.0077 0.748514C18.8361 0.747266 19.4998 1.39662 19.5085 2.21877C19.511 2.46703 19.5092 2.7153 19.5092 2.99413C19.9034 2.99413 20.282 2.98789 20.6613 2.996C21.0418 3.00348 21.431 2.9804 21.8016 3.04964C22.6362 3.20434 23.2494 3.97347 23.2506 4.82306C23.2543 8.05861 23.2525 11.2948 23.2519 14.5303C23.2519 14.8092 23.1134 14.9682 22.8801 14.9689C22.6462 14.9695 22.5064 14.8104 22.5064 14.5328C22.5052 12.5367 22.5058 10.5406 22.5058 8.54454C22.5058 8.45159 22.5058 8.35927 22.5058 8.24949C15.5201 8.24949 8.54682 8.24949 1.54487 8.24949C1.54487 8.33245 1.54487 8.41541 1.54487 8.49838C1.54487 12.2255 1.54487 15.9526 1.54487 19.6797C1.54487 20.5105 1.99836 20.9597 2.8361 20.9597C6.21201 20.9597 9.58854 20.9597 12.9644 20.9597C13.0424 20.9597 13.121 20.9541 13.1984 20.9634C13.388 20.9859 13.5196 21.1406 13.5209 21.3308C13.5221 21.5217 13.3917 21.677 13.2027 21.7026C13.1335 21.7119 13.0624 21.7063 12.9925 21.7063C9.58542 21.7063 6.1777 21.707 2.7706 21.7063C1.5823 21.7063 0.798828 20.9191 0.798828 19.7264C0.798828 14.8067 0.798828 9.88629 0.798828 4.96653C0.798828 3.7776 1.58479 2.99538 2.77809 2.99475C3.35197 2.99475 3.92834 2.99475 4.53965 2.99475ZM1.54737 7.47163C8.54495 7.47163 15.5163 7.47163 22.5002 7.47163C22.5002 6.56964 22.5183 5.682 22.4933 4.79561C22.4784 4.26228 22.0997 3.85495 21.5689 3.77323C21.2564 3.7252 20.9326 3.74641 20.6133 3.74267C20.2502 3.7383 19.8865 3.74142 19.4867 3.74142C19.4867 4.10446 19.5341 4.44629 19.4773 4.77003C19.3364 5.5691 18.6178 6.07374 17.8206 5.98142C17.0733 5.89534 16.5188 5.2491 16.5156 4.46064C16.515 4.22298 16.5156 3.98469 16.5156 3.75389C15.4982 3.75389 14.5189 3.75389 13.5196 3.75389C13.5196 3.97534 13.5221 4.18368 13.519 4.39265C13.5171 4.51678 13.5221 4.64403 13.4978 4.76504C13.3368 5.55912 12.6382 6.06812 11.8385 5.98204C11.0931 5.90095 10.5311 5.25222 10.528 4.46688C10.5267 4.22859 10.528 3.99031 10.528 3.76076C9.50932 3.76076 8.52436 3.76076 7.53193 3.76076C7.53193 4.01339 7.53317 4.24731 7.53193 4.4806C7.52694 5.32707 6.87633 5.98516 6.04358 5.98703C5.19649 5.9889 4.54401 5.33206 4.53965 4.47311C4.5384 4.23421 4.53965 3.99592 4.53965 3.74516C3.8722 3.74516 3.23345 3.72458 2.59719 3.7514C2.02581 3.77573 1.57232 4.22048 1.55548 4.79124C1.52741 5.67826 1.54737 6.56653 1.54737 7.47163ZM6.78464 3.35842C6.78464 3.00037 6.78963 2.64294 6.78339 2.28489C6.7759 1.83265 6.44779 1.49393 6.03048 1.49768C5.60943 1.50079 5.29068 1.83639 5.28756 2.293C5.28257 3.00848 5.28319 3.72395 5.28756 4.43943C5.29068 4.89541 5.60881 5.2335 6.02799 5.23912C6.45341 5.24473 6.7784 4.89978 6.78401 4.43132C6.78776 4.07389 6.78464 3.71584 6.78464 3.35842ZM11.2746 3.37526C11.2746 3.73331 11.2703 4.09074 11.2759 4.44879C11.2827 4.90103 11.6083 5.24037 12.0257 5.23912C12.4442 5.23787 12.7686 4.9004 12.7717 4.44567C12.7773 3.73019 12.7767 3.01471 12.7717 2.29924C12.7686 1.84138 12.4523 1.50454 12.0331 1.49768C11.6058 1.49081 11.2809 1.83327 11.2752 2.30235C11.2715 2.65978 11.2746 3.01783 11.2746 3.37526ZM18.7612 3.35779C18.7612 2.99974 18.7662 2.64232 18.76 2.28426C18.7525 1.83202 18.4244 1.49331 18.0071 1.49705C17.586 1.50079 17.2673 1.83577 17.2642 2.29237C17.2592 3.00785 17.2598 3.72333 17.2642 4.43881C17.2673 4.89479 17.586 5.23288 18.0046 5.23849C18.43 5.24411 18.755 4.89916 18.7606 4.4307C18.7644 4.07389 18.7612 3.71584 18.7612 3.35779Z" fill="black"/>
<path d="M18.392 23.2034C15.6692 23.2009 13.5177 21.0283 13.5215 18.2855C13.5252 15.6226 15.7191 13.4712 18.4275 13.4749C21.0842 13.4787 23.2569 15.6725 23.2506 18.3454C23.245 21.0352 21.0736 23.2059 18.392 23.2034ZM18.3814 22.4568C20.6089 22.4717 22.4815 20.621 22.5027 18.3847C22.5245 16.1216 20.6731 14.2322 18.4257 14.2228C16.1401 14.2135 14.2844 16.0474 14.27 18.3292C14.2557 20.581 16.1083 22.4418 18.3814 22.4568Z" fill="black"/>
<path d="M5.29097 12.7239C5.04146 12.7239 4.79195 12.727 4.54244 12.7233C4.10766 12.717 3.79639 12.4039 3.79203 11.9673C3.78828 11.593 3.78766 11.2187 3.79265 10.8444C3.79826 10.4221 4.1114 10.1103 4.53557 10.1065C5.04208 10.1021 5.54922 10.1009 6.05573 10.1071C6.46181 10.1121 6.77682 10.4296 6.78243 10.8376C6.78805 11.2274 6.7893 11.6173 6.78181 12.0072C6.77433 12.4008 6.45807 12.7127 6.06259 12.722C5.80559 12.7289 5.54859 12.7239 5.29097 12.7239ZM4.54805 11.9598C5.05518 11.9598 5.54049 11.9598 6.02579 11.9598C6.02579 11.5867 6.02579 11.2312 6.02579 10.8663C5.52863 10.8663 5.04333 10.8663 4.54805 10.8663C4.54805 11.2349 4.54805 11.5905 4.54805 11.9598Z" fill="black"/>
<path d="M9.77817 12.7245C9.53677 12.7245 9.29474 12.7263 9.05334 12.7238C8.60047 12.7195 8.28733 12.4113 8.28359 11.9641C8.28047 11.5979 8.28047 11.2311 8.28359 10.865C8.28733 10.4252 8.59548 10.1114 9.03026 10.1077C9.52928 10.1033 10.0283 10.1033 10.5273 10.1077C10.9609 10.1114 11.2703 10.4271 11.2746 10.8662C11.2777 11.2324 11.2784 11.5992 11.2746 11.9653C11.2703 12.4145 10.959 12.7201 10.5036 12.7245C10.2616 12.7257 10.0202 12.7245 9.77817 12.7245ZM9.04398 10.8575C9.04398 11.2392 9.04398 11.6004 9.04398 11.961C9.54425 11.961 10.0302 11.961 10.5092 11.961C10.5092 11.583 10.5092 11.2218 10.5092 10.8575C10.0158 10.8575 9.54113 10.8575 9.04398 10.8575Z" fill="black"/>
<path d="M14.2641 12.7239C14.0146 12.7239 13.7651 12.727 13.5156 12.7233C13.0933 12.7164 12.7801 12.4039 12.7752 11.9816C12.7708 11.5998 12.7695 11.2175 12.7758 10.8357C12.782 10.4278 13.0958 10.1121 13.5044 10.1078C14.019 10.1021 14.5336 10.1015 15.0482 10.1084C15.4418 10.114 15.7581 10.4309 15.7649 10.8245C15.7718 11.2218 15.773 11.6198 15.7643 12.0172C15.7562 12.3977 15.4406 12.7064 15.0601 12.7233C15.0445 12.7239 15.0289 12.7239 15.0133 12.7239C14.7631 12.7239 14.5136 12.7239 14.2641 12.7239ZM13.5405 10.8582C13.5405 11.2262 13.5405 11.5924 13.5405 11.9616C14.0346 11.9616 14.5199 11.9616 15.0014 11.9616C15.0014 11.5843 15.0014 11.2237 15.0014 10.8582C14.5093 10.8582 14.0346 10.8582 13.5405 10.8582Z" fill="black"/>
<path d="M18.7565 10.1065C19.0135 10.1065 19.2712 10.1021 19.5282 10.1071C19.9349 10.1152 20.2499 10.4296 20.2555 10.8376C20.2611 11.2274 20.2623 11.6173 20.2549 12.0072C20.2474 12.4014 19.9317 12.7164 19.5369 12.722C19.0223 12.7289 18.5076 12.7283 17.993 12.7226C17.5863 12.7177 17.2719 12.3995 17.2663 11.9922C17.2607 11.6023 17.2595 11.2125 17.2669 10.8226C17.2744 10.4284 17.5894 10.1171 17.9849 10.1078C18.2413 10.1015 18.4989 10.1065 18.7565 10.1065ZM19.492 11.9685C19.492 11.5842 19.492 11.2231 19.492 10.865C18.9936 10.865 18.5133 10.865 18.0255 10.865C18.0255 11.238 18.0255 11.5986 18.0255 11.9685C18.5195 11.9685 18.9998 11.9685 19.492 11.9685Z" fill="black"/>
<path d="M5.28388 13.4749C5.54088 13.4749 5.7985 13.4705 6.0555 13.4761C6.46158 13.4842 6.77597 13.7993 6.78221 14.2072C6.78782 14.589 6.7872 14.9713 6.78221 15.3531C6.77659 15.7748 6.46221 16.0873 6.03866 16.0916C5.53963 16.0966 5.04061 16.096 4.54158 16.0916C4.10743 16.0879 3.79554 15.7729 3.7918 15.3362C3.78868 14.962 3.78743 14.5877 3.79242 14.2134C3.79803 13.7911 4.11117 13.4817 4.53534 13.4755C4.78486 13.4718 5.03437 13.4749 5.28388 13.4749ZM6.0187 15.3369C6.0187 14.9526 6.0187 14.5915 6.0187 14.2334C5.5203 14.2334 5.03998 14.2334 4.55219 14.2334C4.55219 14.6064 4.55219 14.967 4.55219 15.3369C5.04622 15.3369 5.52653 15.3369 6.0187 15.3369Z" fill="black"/>
<path d="M9.79103 13.4749C10.0405 13.4749 10.2901 13.4711 10.5396 13.4755C10.9481 13.483 11.2663 13.7943 11.2731 14.2003C11.2794 14.5902 11.28 14.9801 11.2731 15.3699C11.2663 15.7754 10.9475 16.0873 10.5371 16.0916C10.0306 16.0966 9.52343 16.0973 9.01692 16.0916C8.60834 16.0873 8.29021 15.7723 8.28398 15.3668C8.27774 14.9769 8.27774 14.5871 8.28398 14.1972C8.29084 13.7911 8.60834 13.483 9.01941 13.4761C9.27641 13.4711 9.53403 13.4749 9.79103 13.4749ZM9.03937 15.3338C9.54589 15.3338 10.0262 15.3338 10.514 15.3338C10.514 14.9607 10.514 14.5996 10.514 14.2371C10.0143 14.2371 9.52842 14.2371 9.03937 14.2371C9.03937 14.6089 9.03937 14.9645 9.03937 15.3338Z" fill="black"/>
<path d="M5.26353 19.4614C5.02961 19.4614 4.79569 19.4632 4.56177 19.4607C4.10828 19.4564 3.79514 19.1488 3.7914 18.7016C3.78828 18.3354 3.78828 17.9687 3.7914 17.6025C3.79514 17.1521 4.10516 16.8465 4.56115 16.844C5.04458 16.8415 5.52801 16.8415 6.01144 16.844C6.46493 16.8465 6.77807 17.1546 6.78243 17.6025C6.78618 17.9687 6.78618 18.3354 6.78243 18.7016C6.77807 19.1513 6.4668 19.457 6.01206 19.4607C5.76255 19.4632 5.51304 19.4614 5.26353 19.4614ZM6.02454 17.6031C5.52739 17.6031 5.04208 17.6031 4.55242 17.6031C4.55242 17.9774 4.55242 18.3386 4.55242 18.6972C5.05331 18.6972 5.53924 18.6972 6.02454 18.6972C6.02454 18.3242 6.02454 17.9687 6.02454 17.6031Z" fill="black"/>
<path d="M9.79041 16.8433C10.0399 16.8433 10.2894 16.8396 10.5389 16.844C10.9475 16.8514 11.2657 17.1627 11.2725 17.5682C11.2788 17.958 11.2794 18.3479 11.2725 18.7378C11.2657 19.1432 10.9469 19.4557 10.5371 19.4595C10.0306 19.4645 9.52343 19.4651 9.01692 19.4595C8.60834 19.4551 8.29021 19.1401 8.28398 18.7346C8.27774 18.3448 8.27774 17.9549 8.28398 17.5651C8.29084 17.159 8.60772 16.8502 9.01879 16.8433C9.27579 16.8396 9.53341 16.8433 9.79041 16.8433ZM10.5084 18.7053C10.5084 18.3186 10.5084 17.9574 10.5084 17.6025C10.0087 17.6025 9.52904 17.6025 9.04374 17.6025C9.04374 17.9768 9.04374 18.3373 9.04374 18.7053C9.5384 18.7053 10.0187 18.7053 10.5084 18.7053Z" fill="black"/>
<path d="M13.5304 14.2209C13.5304 14.6014 13.5304 14.9576 13.5304 15.3213C13.5822 15.3425 13.6402 15.3606 13.6932 15.3887C13.8591 15.4766 13.924 15.6226 13.8853 15.7997C13.8466 15.9769 13.7256 16.0786 13.5391 16.0923C13.1673 16.1191 12.7918 15.8022 12.7787 15.4223C12.7638 14.9944 12.7638 14.5653 12.7794 14.1373C12.7918 13.7936 13.1075 13.4874 13.453 13.4793C13.9745 13.4674 14.4966 13.4718 15.0187 13.4774C15.2408 13.4799 15.388 13.6346 15.3911 13.8429C15.3942 14.0612 15.2433 14.2178 15.0069 14.2203C14.5228 14.2247 14.04 14.2209 13.5304 14.2209Z" fill="black"/>
<path d="M17.6447 19.6709C18.5791 18.7359 19.4942 17.8208 20.4086 16.9063C20.4635 16.8514 20.5159 16.7922 20.5783 16.746C20.7449 16.6219 20.9133 16.6306 21.0667 16.7691C21.2177 16.9051 21.2295 17.104 21.1017 17.2743C21.0649 17.3236 21.0181 17.3667 20.9744 17.4109C19.9882 18.3978 19.0014 19.3846 18.0146 20.3708C17.717 20.6677 17.563 20.669 17.2691 20.3758C16.7895 19.8967 16.3079 19.4189 15.8313 18.9361C15.593 18.6947 15.643 18.3815 15.9293 18.2736C16.1077 18.2063 16.2455 18.2817 16.369 18.4053C16.7321 18.7695 17.0964 19.1332 17.46 19.4969C17.5143 19.5505 17.5717 19.6017 17.6447 19.6709Z" fill="black"/>
</svg>
