<svg width="24" height="24" viewBox="0 0 24 24" fill="none" xmlns="http://www.w3.org/2000/svg">
<path d="M6.43553 22.8691C11.9129 22.8691 17.3852 22.8691 22.8725 22.8691C22.8725 15.6351 22.8725 8.41272 22.8725 1.17711C17.3902 1.17711 11.9194 1.17711 6.41079 1.17711C6.41079 1.26448 6.41079 1.35351 6.41079 1.44418C6.41079 5.27218 6.41079 9.10182 6.41079 12.9298C6.41079 13.0073 6.41574 13.0864 6.4075 13.1639C6.38441 13.3535 6.22943 13.487 6.03981 13.487C5.8502 13.4887 5.69192 13.3535 5.66883 13.1672C5.66059 13.098 5.66553 13.0271 5.66553 12.9562C5.66553 8.9551 5.66553 4.95565 5.66553 0.954551C5.66553 0.516029 5.76281 0.417114 6.19645 0.417114C11.8354 0.417114 17.4743 0.417114 23.1132 0.417114C23.532 0.417114 23.6359 0.519326 23.6359 0.939714C23.6359 8.3237 23.6359 15.7093 23.6359 23.0933C23.6359 23.5252 23.5353 23.6242 23.0983 23.6242C17.4677 23.6242 11.837 23.6241 6.20634 23.6258C6.00684 23.6258 5.76446 23.6423 5.7183 23.4131C5.67048 23.1741 5.66718 22.8955 5.74633 22.6696C5.83371 22.424 6.22118 22.4504 6.36133 22.6828C6.39101 22.7405 6.40914 22.8081 6.43553 22.8691Z" fill="black"/>
<path d="M12.3992 4.53525C12.3992 4.13465 12.3959 3.77031 12.3992 3.40433C12.4041 2.77951 12.8872 2.29318 13.5105 2.28989C14.2673 2.28659 15.0224 2.28659 15.7792 2.28989C16.4025 2.29318 16.8823 2.77952 16.8872 3.40762C16.8905 3.77361 16.8872 4.13794 16.8872 4.53525C17.3884 4.53525 17.8765 4.52701 18.3645 4.5402C18.5311 4.54514 18.7108 4.57317 18.8608 4.64241C19.2763 4.83859 19.5039 5.1782 19.5072 5.6431C19.5121 6.89766 19.5121 8.15388 19.5072 9.40845C19.5055 10.0333 19.0191 10.5212 18.3942 10.5212C15.8913 10.5245 13.3884 10.5245 10.8856 10.5212C10.264 10.5212 9.77756 10.03 9.77591 9.40515C9.77261 8.15058 9.77261 6.89437 9.77591 5.6398C9.77756 5.02982 10.2656 4.54185 10.874 4.5369C11.3753 4.53195 11.8732 4.53525 12.3992 4.53525ZM15.7594 5.30019C15.001 5.30019 14.2656 5.30019 13.5319 5.30019C13.5319 6.7971 13.5319 8.27423 13.5319 9.76289C14.2788 9.76289 15.0142 9.76289 15.7594 9.76289C15.7594 8.27093 15.7594 6.79215 15.7594 5.30019ZM16.1419 4.52701C16.1419 4.15113 16.1469 3.80163 16.1403 3.45213C16.1354 3.19331 15.9886 3.04164 15.7314 3.03999C15.0059 3.0334 14.2804 3.03669 13.555 3.03834C13.3423 3.03999 13.1741 3.1488 13.1593 3.35981C13.1345 3.74558 13.1527 4.133 13.1527 4.52701C14.1551 4.52701 15.1345 4.52701 16.1419 4.52701ZM12.7569 9.76619C12.7569 8.26433 12.7569 6.78061 12.7569 5.30184C12.503 5.30184 12.2673 5.30184 12.0348 5.30184C12.0348 6.79875 12.0348 8.27752 12.0348 9.76619C12.2771 9.76619 12.508 9.76619 12.7569 9.76619ZM17.2532 9.76619C17.2532 8.26104 17.2532 6.78391 17.2532 5.29689C17.0043 5.29689 16.7685 5.29689 16.5294 5.29689C16.5294 6.79545 16.5294 8.27917 16.5294 9.76619C16.7784 9.76619 17.0092 9.76619 17.2532 9.76619ZM11.2582 9.77608C11.2582 8.26269 11.2582 6.77732 11.2582 5.28206C11.1873 5.28206 11.1345 5.28206 11.0801 5.28206C10.6432 5.27876 10.5245 5.39581 10.5245 5.83268C10.5245 6.15251 10.5245 6.47233 10.5245 6.79215C10.5245 7.62633 10.5228 8.46052 10.5245 9.2947C10.5245 9.62771 10.663 9.76949 10.9861 9.77443C11.0735 9.77773 11.1576 9.77608 11.2582 9.77608ZM18.0249 9.75465C18.6201 9.83213 18.7635 9.71179 18.7635 9.14303C18.7635 8.05167 18.7504 6.95866 18.7701 5.86895C18.7784 5.44856 18.63 5.17325 18.0249 5.31997C18.0249 6.79875 18.0249 8.27752 18.0249 9.75465Z" fill="black"/>
<path d="M10.6086 12.3611C10.5146 12.6298 10.4503 12.9133 10.3184 13.1623C9.94086 13.8778 9.53196 14.5768 9.14778 15.2906C9.07524 15.4274 9.03402 15.5956 9.02907 15.7505C8.9895 16.9491 8.82957 18.1245 8.32009 19.2257C7.89634 20.1424 7.28793 20.8908 6.33328 21.3063C6.25908 21.3376 6.19478 21.4052 6.14201 21.4695C5.60121 22.1141 5.06699 22.7652 4.51959 23.4049C4.4322 23.5071 4.28051 23.6044 4.15685 23.6077C4.04803 23.6093 3.90788 23.4972 3.83369 23.3967C3.72816 23.2549 3.79741 23.0999 3.90459 22.9713C4.36295 22.4207 4.82297 21.8701 5.28134 21.3178C5.3407 21.2453 5.40335 21.176 5.45941 21.1018C5.64902 20.8512 5.87326 20.6683 6.17499 20.5364C6.8477 20.2413 7.2632 19.6725 7.57977 19.0312C7.98703 18.2086 8.1552 17.3266 8.23105 16.4215C8.25908 16.0885 8.25578 15.7522 8.28381 15.4175C8.29206 15.3071 8.33657 15.1917 8.39098 15.0928C8.80978 14.3278 9.23352 13.5662 9.65891 12.8062C9.8205 12.5193 9.84853 12.2308 9.6787 11.9407C9.44952 11.5483 9.05875 11.5351 8.80648 11.911C8.01835 13.0798 7.23517 14.252 6.44869 15.4225C6.236 15.7407 6.03979 15.8214 5.82709 15.6863C5.6045 15.5428 5.60286 15.3252 5.82379 14.9971C6.60038 13.8398 7.38192 12.6842 8.15356 11.5236C8.47342 11.0422 8.89222 10.7966 9.47755 10.9087C9.96724 11.001 10.4141 11.4857 10.5196 12.0248C10.541 12.1319 10.5509 12.2407 10.5658 12.3479C10.5789 12.3479 10.5938 12.3545 10.6086 12.3611Z" fill="black"/>
<path d="M5.34053 11.2615C5.24655 11.4032 5.19379 11.517 5.113 11.6027C4.74861 11.9769 4.37928 12.3462 4.00665 12.7122C3.60764 13.1046 3.41473 13.581 3.41308 14.1382C3.41143 15.4472 3.41968 16.7578 3.40813 18.0668C3.40319 18.5993 3.25315 19.0972 2.92998 19.5307C2.32982 20.3369 1.728 21.1414 1.12289 21.9443C0.969553 22.147 0.748613 22.1882 0.572191 22.0597C0.387525 21.9261 0.364442 21.7003 0.526024 21.4826C1.08002 20.7391 1.62907 19.9923 2.19791 19.2587C2.51943 18.8449 2.66617 18.3866 2.66617 17.8723C2.66782 16.6012 2.66452 15.3318 2.66617 14.0608C2.66617 13.3568 2.92009 12.7518 3.40484 12.249C3.80055 11.8401 4.2078 11.4428 4.61011 11.0389C4.73707 10.912 4.89206 10.8394 5.05034 10.9383C5.16246 11.0109 5.23666 11.1411 5.34053 11.2615Z" fill="black"/>
<path d="M12.6768 20.4523C12.8829 20.2182 13.0346 20.0204 13.2127 19.8522C13.3397 19.7319 13.4913 19.6198 13.6513 19.5571C14.0569 19.3956 14.4031 19.5917 14.5004 20.0204C14.5449 20.2165 14.568 20.4177 14.6092 20.6683C14.7461 20.5562 14.8549 20.4655 14.967 20.3765C15.155 20.2281 15.3314 20.0566 15.5392 19.9396C15.7815 19.8028 16.0816 19.8868 16.1805 20.1292C16.324 20.4853 16.6191 20.543 16.9308 20.5842C17.1616 20.6139 17.3974 20.6172 17.6298 20.632C17.8706 20.6468 18.0173 20.7936 18.014 21.0112C18.0107 21.2288 17.8557 21.3903 17.6183 21.3739C17.2077 21.3442 16.7906 21.326 16.3949 21.2288C16.1228 21.1612 15.8805 20.9699 15.6084 20.8249C15.4798 20.9304 15.3149 21.0886 15.1286 21.2123C14.5631 21.5898 13.9926 21.3524 13.8541 20.693C13.8326 20.5875 13.8129 20.482 13.7865 20.3369C13.6117 20.538 13.4716 20.7359 13.2951 20.8925C13.1006 21.0639 12.8895 21.242 12.6521 21.3343C12.2465 21.4958 11.9382 21.2799 11.8986 20.8447C11.8821 20.66 11.9068 20.4721 11.9151 20.2841C11.92 20.1836 11.9266 20.083 11.9365 19.9231C11.8261 20.0088 11.7436 20.0583 11.6793 20.1242C11.4023 20.4094 11.1385 20.7095 10.8516 20.9831C10.7032 21.1249 10.5235 21.2486 10.3388 21.3376C10.1047 21.4497 9.86892 21.3491 9.78813 21.148C9.69909 20.9254 9.80956 20.7424 10.075 20.6287C10.1772 20.5842 10.2712 20.5051 10.352 20.4243C10.6422 20.1308 10.9176 19.8209 11.2127 19.534C11.3397 19.412 11.4946 19.3082 11.6529 19.2307C12.1756 18.9752 12.6373 19.2472 12.6752 19.8291C12.6867 20.0138 12.6768 20.2017 12.6768 20.4523Z" fill="black"/>
<path d="M16.3416 12.0231C17.753 12.0231 19.1643 12.0182 20.5774 12.0314C20.7076 12.033 20.8824 12.1253 20.9533 12.2325C21.011 12.3182 20.9945 12.5259 20.9253 12.61C20.8478 12.704 20.6747 12.7633 20.5427 12.7633C18.5312 12.7732 16.518 12.7699 14.5065 12.7699C13.7348 12.7699 12.9615 12.7699 12.1899 12.7699C11.8206 12.7699 11.6573 12.6578 11.6524 12.4023C11.6491 12.1385 11.814 12.0231 12.1998 12.0231C13.5798 12.0231 14.9615 12.0231 16.3416 12.0231Z" fill="black"/>
<path d="M17.8151 15.0153C16.8951 15.0153 15.9751 15.0186 15.0534 15.0136C14.7269 15.012 14.5274 14.7103 14.7005 14.463C14.7681 14.3657 14.9248 14.2767 15.0435 14.2767C16.9 14.2652 18.7566 14.2668 20.6132 14.2701C20.8539 14.2701 21.0056 14.4185 21.0089 14.6361C21.0122 14.8636 20.8572 15.0136 20.6 15.0136C19.6717 15.0169 18.7434 15.0153 17.8151 15.0153Z" fill="black"/>
<path d="M12.9717 16.5155C13.8918 16.5155 14.8118 16.5072 15.7335 16.5237C15.8571 16.5254 16.0187 16.621 16.088 16.7232C16.144 16.8073 16.1325 16.9936 16.0731 17.0842C16.0138 17.1749 15.8588 17.2541 15.7467 17.2541C13.8901 17.2639 12.0336 17.2623 10.177 17.2606C9.93629 17.2606 9.7846 17.1123 9.7813 16.8947C9.778 16.6655 9.93134 16.5171 10.1886 16.5155C11.1152 16.5138 12.0435 16.5155 12.9717 16.5155Z" fill="black"/>
<path d="M19.1393 17.2623C18.6628 17.2623 18.188 17.2639 17.7115 17.2623C17.4295 17.2606 17.2729 17.1271 17.2696 16.8946C17.2663 16.6589 17.4246 16.5171 17.7016 16.5171C18.6612 16.5155 19.6208 16.5155 20.5804 16.5171C20.8557 16.5171 21.0157 16.6605 21.0107 16.8963C21.0074 17.1287 20.8491 17.2623 20.5672 17.2623C20.0907 17.2623 19.6142 17.2623 19.1393 17.2623Z" fill="black"/>
<path d="M12.0344 15.0153C11.675 15.0153 11.3172 15.0169 10.9577 15.0153C10.6807 15.0136 10.5241 14.8718 10.5274 14.6361C10.5307 14.4102 10.6857 14.2701 10.9462 14.2701C11.6634 14.2684 12.3807 14.2684 13.0995 14.2701C13.36 14.2701 13.5167 14.4119 13.52 14.6361C13.5233 14.8702 13.3633 15.0136 13.088 15.0153C12.7368 15.0169 12.3856 15.0153 12.0344 15.0153Z" fill="black"/>
</svg>
