<svg width="24" height="24" viewBox="0 0 24 24" fill="none" xmlns="http://www.w3.org/2000/svg">
<path d="M2.57783 6.55307C2.24537 7.63751 1.91441 8.72195 1.58045 9.80639C1.47412 10.1539 1.24649 10.3381 0.930505 10.3471C0.622006 10.3546 0.356937 10.1853 0.270078 9.89177C0.232639 9.76295 0.222156 9.61017 0.25061 9.47986C0.581572 7.98501 0.912534 6.48866 1.26296 4.9983C1.45915 4.15951 1.97131 3.77606 2.82493 3.72963C3.27569 3.70416 3.6426 3.78205 3.90917 4.19246C4.06791 4.43811 4.29404 4.64032 4.51268 4.88896C4.76128 4.63732 5.00838 4.40366 5.23601 4.15202C5.45915 3.90488 5.71074 3.84047 6.03421 3.90637C7.05705 4.11757 7.90617 4.65679 8.69838 5.29937C9.15814 5.67233 9.62538 6.01684 10.2229 6.1142C10.8908 6.22204 11.5617 6.31641 12.2326 6.40478C12.7718 6.47518 13.1132 6.8766 13.0593 7.39935C13.0084 7.89814 12.5816 8.24114 12.0514 8.17374C11.2802 8.07488 10.5 7.99849 9.74518 7.82324C9.22253 7.70192 8.73283 7.4323 8.23114 7.2256C8.03197 7.14322 7.83728 7.04736 7.60666 6.94101C7.56472 7.26305 7.53028 7.55962 7.48535 7.8547C7.13492 10.2048 7.09449 12.5744 7.00763 14.941C6.98517 15.5416 6.95522 16.1408 6.92227 16.7399C6.9028 17.1069 6.68416 17.378 6.36068 17.4574C6.02822 17.5383 5.6718 17.4035 5.50258 17.0874C5.40224 16.9002 5.32886 16.683 5.3019 16.4718C5.13118 15.1522 4.97693 13.8296 4.81669 12.507C4.75978 12.0352 4.70138 11.5649 4.63249 11.0945C4.62201 11.0241 4.55611 10.9627 4.51568 10.8983C4.47225 10.9597 4.39887 11.0181 4.38988 11.0841C4.27607 11.9408 4.17274 12.7991 4.06491 13.6559C3.94211 14.6444 3.8268 15.6345 3.69052 16.6216C3.60516 17.2387 3.19932 17.5607 2.67667 17.4634C2.32474 17.3975 2.13305 17.1578 2.10909 16.716C2.05668 15.7903 2.01025 14.8631 1.96982 13.936C1.93088 13.0567 1.87697 12.176 1.87697 11.2953C1.87697 10.2243 2.08663 9.1758 2.31725 8.1333C2.43256 7.61205 2.52691 7.0848 2.63024 6.56056C2.61227 6.55756 2.5943 6.55606 2.57783 6.55307Z" fill="black"/>
<path d="M9.24483 8.46732C9.48744 8.51974 9.71956 8.57067 9.97414 8.62459C9.97414 10.0431 9.97414 11.46 9.97414 12.8935C14.344 12.8935 18.69 12.8935 23.0539 12.8935C23.0539 9.77494 23.0539 6.65343 23.0539 3.51843C18.7035 3.51843 14.362 3.51843 9.99062 3.51843C9.99062 4.09061 9.99062 4.66129 9.99062 5.23347C9.96815 5.25144 9.94569 5.26942 9.92323 5.28739C9.70458 5.12712 9.48144 4.96985 9.26879 4.80059C9.23285 4.77213 9.23135 4.68526 9.23135 4.62534C9.22836 4.1655 9.22686 3.70566 9.23135 3.24433C9.23435 2.89533 9.36913 2.76052 9.71507 2.76052C14.2617 2.75902 18.8083 2.75902 23.3549 2.76052C23.6874 2.76052 23.8162 2.89533 23.8162 3.23234C23.8162 6.54708 23.8162 9.86331 23.8162 13.178C23.8162 13.53 23.6919 13.6529 23.3369 13.6529C18.7978 13.6529 14.2587 13.6529 9.71956 13.6529C9.37662 13.6529 9.23135 13.5255 9.23135 13.202C9.22836 11.6652 9.22985 10.1284 9.22985 8.59164C9.22985 8.55719 9.23884 8.51974 9.24483 8.46732Z" fill="black"/>
<path d="M15.5512 23.7574C13.0592 23.7574 10.6152 23.7574 8.14572 23.7574C8.11427 23.2032 8.18915 22.6609 8.34939 22.1322C8.65938 21.1092 9.35725 20.519 10.3981 20.3183C10.5418 20.2898 10.6452 20.3258 10.7485 20.4351C11.0929 20.7961 11.4464 21.1466 11.8178 21.5211C11.8956 21.4477 11.9615 21.3863 12.0259 21.3234C12.285 21.0642 12.5635 20.8216 12.7972 20.5415C12.9873 20.3123 13.1835 20.2928 13.4516 20.3572C14.5358 20.6194 15.2457 21.4222 15.4314 22.6385C15.4868 23.0024 15.5107 23.3724 15.5512 23.7574Z" fill="black"/>
<path d="M23.7915 23.7589C21.304 23.7589 18.8585 23.7589 16.4145 23.7589C16.3381 22.0633 16.9506 20.6329 18.6384 20.3198C18.7911 20.2914 18.899 20.3228 19.0098 20.4382C19.3587 20.8036 19.7196 21.1586 20.0895 21.5301C20.4579 21.1586 20.8143 20.8081 21.1558 20.4457C21.2801 20.3123 21.4014 20.2944 21.5691 20.3318C22.8405 20.6194 23.5714 21.4597 23.7181 22.8242C23.7496 23.1253 23.7645 23.4279 23.7915 23.7589Z" fill="black"/>
<path d="M11.76 20.1311C10.6219 20.0756 9.77274 19.1545 9.82665 18.0341C9.88056 16.9391 10.8315 16.0914 11.9472 16.1438C12.9955 16.1932 13.8641 17.1384 13.8222 18.1868C13.7772 19.3117 12.8532 20.185 11.76 20.1311Z" fill="black"/>
<path d="M20.066 20.1311C18.9668 20.1266 18.0697 19.2279 18.0742 18.1345C18.0802 17.0366 18.9788 16.1408 20.0735 16.1423C21.1817 16.1438 22.0832 17.05 22.0757 18.1539C22.0682 19.2519 21.1712 20.1356 20.066 20.1311Z" fill="black"/>
<path d="M15.5328 8.28458C14.5159 9.30312 13.514 10.3052 12.5167 11.3042C12.3429 11.135 12.1782 10.9717 12 10.7965C12.0539 10.7366 12.1033 10.6781 12.1557 10.6242C13.1591 9.62066 14.1625 8.6171 15.1659 7.61355C15.4773 7.302 15.6196 7.3005 15.9266 7.60756C16.2726 7.95356 16.62 8.30106 16.945 8.62609C17.9094 7.66148 18.8648 6.70585 19.8233 5.74723C19.5088 5.74723 19.1778 5.74723 18.8304 5.74723C18.8304 5.49559 18.8304 5.26642 18.8304 5.02077C18.8738 5.01478 18.9247 5.0013 18.9757 5.0013C19.5687 4.9998 20.1602 4.99831 20.7533 5.0013C21.0213 5.0028 21.1726 5.12862 21.1771 5.39074C21.1876 6.02883 21.1801 6.66691 21.1801 7.32746C20.9315 7.32746 20.6964 7.32746 20.4328 7.32746C20.4328 6.99494 20.4328 6.66391 20.4328 6.33439C20.3954 6.30743 20.3594 6.27897 20.322 6.252C20.2845 6.32989 20.2651 6.42426 20.2082 6.48118C19.2587 7.4383 18.3033 8.39243 17.3493 9.34506C17.0588 9.63564 16.8955 9.63414 16.6035 9.34506C16.2546 8.99906 15.9057 8.65455 15.5328 8.28458Z" fill="black"/>
<path d="M4.78535 3.51097C3.85836 3.51097 3.12455 2.77852 3.12306 1.85135C3.12006 0.9152 3.85986 0.176762 4.79883 0.179758C5.71684 0.182753 6.45364 0.928681 6.45215 1.85285C6.45065 2.77553 5.71085 3.51097 4.78535 3.51097Z" fill="black"/>
</svg>
