<svg width="22" height="24" viewBox="0 0 22 24" fill="none" xmlns="http://www.w3.org/2000/svg">
<path d="M0.589767 24C0.413784 23.8913 0.352707 23.7381 0.353742 23.53C0.362024 22.3841 0.33925 21.2371 0.362024 20.0922C0.394115 18.5031 1.13532 17.3344 2.57631 16.6677C4.02973 15.9948 5.51006 15.3789 6.98211 14.7464C7.14463 14.677 7.19743 14.5922 7.19329 14.4182C7.18086 13.9037 7.19329 13.3893 7.18501 12.8748C7.18397 12.7919 7.15188 12.6853 7.09494 12.6305C6.10944 11.6895 5.64256 10.5342 5.64981 9.18014C5.64981 9.14909 5.64877 9.11803 5.64463 9.08698C5.64256 9.07248 5.63428 9.05903 5.62289 9.03004C5.43035 9.01658 5.22848 9.01762 5.0318 8.98553C4.58149 8.91306 4.25333 8.56524 4.23366 8.10975C4.21399 7.64288 4.2202 7.17497 4.23469 6.70706C4.24608 6.33956 4.44898 6.07352 4.77196 5.91824C4.90861 5.85199 4.95002 5.78159 4.9438 5.63874C4.90343 4.73294 4.99349 3.84578 5.4024 3.02176C6.34546 1.12114 7.87755 0.110786 10.0049 0.0497092C11.9614 -0.00722667 13.4904 0.794016 14.5691 2.42342C15.1778 3.34267 15.3952 4.3789 15.36 5.47103C15.3527 5.69981 15.3703 5.86441 15.625 5.98553C15.9314 6.13149 16.066 6.43584 16.0711 6.77952C16.0763 7.17704 16.0742 7.57455 16.0722 7.97207C16.0701 8.58491 15.6684 8.99277 15.0515 9.01141C14.921 9.01555 14.7906 9.01244 14.6705 9.01244C14.625 9.44205 14.6074 9.84681 14.5349 10.2412C14.3672 11.1491 13.9241 11.9172 13.2637 12.557C13.1539 12.6636 13.1053 12.7681 13.1074 12.9213C13.1156 13.4203 13.1188 13.9193 13.1063 14.4182C13.1022 14.587 13.1622 14.6625 13.3123 14.7267C14.744 15.3344 16.1715 15.9514 17.6022 16.5601C18.421 16.9079 19.0525 17.4617 19.4769 18.2433C19.539 18.3582 19.6063 18.3934 19.7295 18.3903C20.0411 18.383 20.3527 18.3841 20.6653 18.3882C21.2492 18.3965 21.6819 18.8282 21.684 19.4131C21.6881 20.528 21.6674 21.6429 21.6923 22.7578C21.7057 23.3748 21.4811 23.793 20.892 23.999C18.833 23.999 16.7751 23.999 14.7161 23.999C14.1219 23.7764 13.9138 23.3365 13.9272 22.7195C13.9511 21.6439 13.9314 20.5673 13.9345 19.4917C13.9366 18.8013 14.3548 18.3882 15.0453 18.3872C16.184 18.3861 17.3217 18.3872 18.4604 18.3861C18.5411 18.3861 18.6219 18.3799 18.7326 18.3748C18.3682 17.8282 17.9076 17.4617 17.3434 17.2195C16.6788 16.9348 16.0132 16.6512 15.3486 16.3665C15.0504 16.2392 14.7533 16.1108 14.45 15.9804C14.392 16.0735 14.3444 16.1439 14.302 16.2164C13.743 17.1698 13.185 18.1242 12.627 19.0787C12.4055 19.4565 12.2192 19.4855 11.89 19.1926C11.507 18.852 11.125 18.5104 10.7078 18.1387C10.7306 18.2795 10.743 18.3706 10.7606 18.4607C11.0815 20.1253 11.3972 21.7909 11.7285 23.4534C11.7761 23.6936 11.7243 23.8603 11.5359 23.998C11.4428 23.998 11.3486 23.998 11.2554 23.998C11.1809 23.8758 11.068 23.7619 11.0401 23.6305C10.8827 22.8851 10.7471 22.1346 10.6032 21.3861C10.4593 20.6377 10.3134 19.8893 10.1684 19.1408C10.1177 19.2164 10.098 19.2899 10.0836 19.3654C9.81233 20.7702 9.54629 22.177 9.26264 23.5787C9.23262 23.7288 9.09701 23.8582 9.01006 23.998C8.93242 23.998 8.85374 23.998 8.7761 23.998C8.58873 23.8861 8.51006 23.7288 8.55354 23.5073C8.8113 22.1946 9.06596 20.882 9.32062 19.5694C9.40861 19.1139 9.49453 18.6584 9.59184 18.1449C9.48728 18.2319 9.42724 18.2785 9.37134 18.3282C9.02248 18.6398 8.67776 18.9555 8.32579 19.264C8.1291 19.4369 7.89722 19.44 7.7761 19.2443C7.45209 18.7216 7.14256 18.1905 6.84443 17.6522C6.74815 17.4793 6.82165 17.3126 6.99246 17.2143C7.15498 17.1201 7.31026 17.1543 7.43242 17.2961C7.48728 17.3603 7.52662 17.4389 7.5701 17.5124C7.7585 17.8302 7.94484 18.1481 8.13946 18.4772C8.63221 18.0352 9.10426 17.6118 9.5908 17.176C8.82476 16.5849 8.08563 16.0135 7.34443 15.4441C7.31233 15.4193 7.25333 15.3996 7.22124 15.4131C6.98832 15.5073 6.7585 15.6108 6.52144 15.7133C6.58563 15.8261 6.63221 15.9079 6.67879 15.9886C6.72538 16.0694 6.7761 16.1481 6.81958 16.2309C6.93656 16.4493 6.89101 16.6543 6.70571 16.7547C6.52662 16.853 6.33614 16.793 6.20985 16.5901C6.0908 16.3986 5.98004 16.2029 5.85892 15.9979C4.89411 16.4182 3.93966 16.8313 2.98728 17.2495C1.70157 17.8137 1.07217 18.8126 1.05975 20.205C1.05043 21.2888 1.05354 22.3727 1.06182 23.4555C1.06389 23.6677 1.02869 23.8499 0.8672 23.9959C0.776102 24 0.682935 24 0.589767 24ZM5.69122 5.75261C5.70778 5.6936 5.72434 5.6346 5.74091 5.57455C5.91482 4.95137 6.27921 4.47518 6.85064 4.16669C7.55354 3.78677 8.2585 3.8023 8.98107 4.13149C9.31026 4.28159 9.65809 4.41203 10.0111 4.4876C10.4831 4.58905 10.9345 4.45861 11.3662 4.25054C11.5794 4.14702 11.774 4.22259 11.86 4.40996C11.9438 4.59319 11.8817 4.77435 11.6798 4.87787C11.1426 5.15633 10.568 5.323 9.96865 5.19671C9.51006 5.0994 9.06699 4.92031 8.62393 4.75675C8.3289 4.64702 8.04111 4.54039 7.71917 4.60768C6.86616 4.78366 6.38066 5.3582 6.37341 6.23397C6.36409 7.26296 6.3672 8.29195 6.37238 9.32093C6.37341 9.54557 6.39412 9.77228 6.43138 9.99484C6.76058 11.941 8.53594 13.2785 10.5453 13.1004C12.4076 12.9348 13.9148 11.2857 13.9262 9.39132C13.9324 8.33956 13.9169 7.28677 13.9314 6.23501C13.9428 5.42859 13.5918 4.88615 12.8434 4.59215C12.6177 4.50313 12.5266 4.32507 12.5949 4.13667C12.6684 3.9348 12.8589 3.84992 13.0908 3.93273C13.802 4.18739 14.2896 4.66565 14.5328 5.38615C14.5566 5.45758 14.5805 5.53004 14.6043 5.60147C14.7316 3.83335 14.1229 2.39132 12.6136 1.45137C11.0349 0.468964 9.36306 0.454471 7.76782 1.40478C6.13739 2.37166 5.54318 3.90582 5.69122 5.75261ZM17.802 23.2992C18.714 23.2992 19.626 23.3002 20.539 23.2992C20.8838 23.2992 20.9842 23.1998 20.9842 22.8541C20.9852 21.7464 20.9852 20.6398 20.9842 19.5321C20.9842 19.1977 20.8838 19.0932 20.5556 19.0932C18.7316 19.0922 16.9065 19.0922 15.0825 19.0932C14.7461 19.0932 14.6602 19.1832 14.6591 19.528C14.6581 20.6429 14.6581 21.7578 14.6591 22.8727C14.6591 23.2122 14.7471 23.2982 15.0887 23.2992C15.9935 23.3002 16.8972 23.2992 17.802 23.2992ZM7.93138 13.2505C7.93138 13.8137 7.92931 14.3634 7.93552 14.912C7.93656 14.9648 7.9759 15.0321 8.01937 15.0652C8.72641 15.6149 9.43656 16.1605 10.1498 16.7091C10.8579 16.1636 11.5587 15.6305 12.2482 15.0839C12.3248 15.0228 12.3724 14.8861 12.3776 14.7816C12.3952 14.4162 12.3889 14.0487 12.391 13.6822C12.392 13.5404 12.391 13.3996 12.391 13.236C10.8724 14.0259 9.39722 14.0176 7.93138 13.2505ZM13.7854 15.6998C13.5856 15.6118 13.3983 15.5394 13.2202 15.4483C13.0918 15.383 12.9997 15.4037 12.8869 15.4917C12.214 16.0197 11.5339 16.5394 10.8568 17.0621C10.8103 17.0984 10.7699 17.1408 10.715 17.1905C11.2026 17.6253 11.6747 18.0476 12.1581 18.4804C12.7109 17.5373 13.244 16.6263 13.7854 15.6998ZM14.6643 6.53315C14.6643 7.1346 14.6643 7.70913 14.6643 8.29195C14.7782 8.29195 14.8631 8.29195 14.9479 8.29195C15.2999 8.29091 15.3703 8.22155 15.3713 7.87166C15.3724 7.60768 15.3713 7.34267 15.3713 7.07869C15.3713 6.55385 15.3072 6.49277 14.7771 6.51658C14.7399 6.51969 14.7026 6.52797 14.6643 6.53315ZM5.63635 6.52383C5.47693 6.52383 5.32993 6.51348 5.18604 6.52693C5.02455 6.54143 4.93552 6.63977 4.93552 6.80851C4.93552 7.21327 4.93345 7.61803 4.93759 8.02383C4.93966 8.1905 5.0318 8.28366 5.19846 8.29091C5.34339 8.29609 5.48832 8.29195 5.63739 8.29195C5.63635 7.68739 5.63635 7.11493 5.63635 6.52383Z" fill="black"/>
<path d="M4.33199 24C4.16636 23.8716 4.10736 23.705 4.10943 23.4948C4.11771 22.7785 4.10632 22.0611 4.11874 21.3447C4.12081 21.2174 4.17361 21.0611 4.25953 20.9741C4.32682 20.9068 4.48934 20.8923 4.59597 20.9151C4.76988 20.9524 4.82992 21.1087 4.83199 21.2764C4.83614 21.588 4.83407 21.8996 4.83407 22.2112C4.83407 22.6398 4.82682 23.0683 4.83717 23.4969C4.84235 23.7081 4.7792 23.8737 4.61253 24.001C4.51937 24 4.42516 24 4.33199 24Z" fill="black"/>
<path d="M19.724 21.5518C19.8886 21.7412 20.049 21.9203 20.2033 22.1056C20.3699 22.3054 20.3689 22.5 20.2084 22.6429C20.048 22.7847 19.8513 22.763 19.6764 22.5746C19.4838 22.3655 19.2975 22.1501 19.0687 21.8934C19.0687 22.0891 19.0728 22.2268 19.0677 22.3634C19.0594 22.5891 18.9051 22.7412 18.7033 22.734C18.5107 22.7268 18.3699 22.5787 18.3689 22.3593C18.3658 21.5963 18.3679 20.8334 18.3679 20.0704C18.3679 19.8686 18.4724 19.7257 18.6619 19.7112C18.9476 19.6895 19.2405 19.6822 19.5231 19.7216C19.9383 19.7806 20.2436 20.1077 20.3182 20.5063C20.3875 20.8758 20.1971 21.2578 19.8285 21.4866C19.7975 21.5042 19.7674 21.5239 19.724 21.5518ZM19.0832 20.4131C19.0832 20.5839 19.0832 20.7412 19.0832 20.8976C19.432 20.9297 19.6101 20.8489 19.6173 20.6646C19.6236 20.4804 19.4465 20.3924 19.0832 20.4131Z" fill="black"/>
<path d="M16.048 21.5435C16.048 21.8106 16.049 22.0725 16.048 22.3354C16.047 22.5394 15.9548 22.6822 15.7519 22.7278C15.5428 22.7744 15.3399 22.6046 15.3379 22.3624C15.3296 21.5994 15.3306 20.8365 15.3379 20.0725C15.3399 19.8427 15.5004 19.6947 15.7043 19.7009C15.8969 19.706 16.0356 19.8468 16.0459 20.0715C16.0563 20.3116 16.048 20.5518 16.048 20.822C16.2157 20.822 16.3606 20.822 16.5056 20.822C16.6443 20.822 16.783 20.822 16.9528 20.822C16.9528 20.5798 16.9497 20.3561 16.9538 20.1325C16.9579 19.8561 17.0863 19.7009 17.3037 19.6998C17.5211 19.6988 17.6619 19.8613 17.6629 20.1274C17.666 20.852 17.665 21.5756 17.6629 22.3002C17.6619 22.5684 17.5242 22.7309 17.3078 22.733C17.0936 22.735 16.959 22.5746 16.9548 22.3034C16.9507 22.0559 16.9538 21.8075 16.9538 21.5435C16.6463 21.5435 16.3637 21.5435 16.048 21.5435Z" fill="black"/>
</svg>
