<svg width="24" height="24" viewBox="0 0 24 24" fill="none" xmlns="http://www.w3.org/2000/svg">
<path d="M8.65708 24C8.57157 23.9671 8.48606 23.9343 8.40056 23.9014C7.81516 23.6778 7.40604 23.1188 7.40472 22.4756C7.39814 19.6149 7.3942 16.7541 7.40604 13.8934C7.40998 13.0306 8.0901 12.3913 8.97674 12.3663C9.32009 12.3571 9.66344 12.3598 10.0055 12.3663C10.141 12.369 10.187 12.3242 10.2107 12.1848C10.6264 9.7647 12.6062 7.89305 15.032 7.61947C17.9892 7.28539 20.6163 9.24517 21.1504 12.1888C21.1754 12.3256 21.2306 12.3677 21.3648 12.3677C21.7542 12.365 22.1462 12.3479 22.533 12.3848C23.3907 12.4663 23.9577 13.1095 23.9577 13.971C23.959 16.5516 23.959 19.1308 23.9577 21.7114C23.9577 22.0153 23.984 22.323 23.9445 22.6229C23.859 23.2858 23.4815 23.7278 22.8461 23.9448C22.7961 23.9619 22.7474 23.9829 22.6974 24.0013C18.0169 24 13.3376 24 8.65708 24ZM15.3004 16.1373C14.936 15.9821 14.6071 15.8532 14.2901 15.7006C14.2045 15.6585 14.1059 15.5467 14.0993 15.4599C14.0901 15.3441 14.1322 15.1692 14.2138 15.1166C14.315 15.0521 14.4926 15.0469 14.6163 15.085C14.8439 15.1561 15.0557 15.2771 15.3227 15.3994C15.3227 14.8601 15.2964 14.3998 15.3306 13.9434C15.3609 13.5475 15.2767 13.2923 14.8755 13.1147C14.3795 12.8938 14.173 12.4505 14.2243 11.9047C14.2743 11.3654 14.5347 10.9485 15.0359 10.742C15.2662 10.6473 15.3398 10.5473 15.3332 10.3119C15.3267 10.083 15.478 9.9541 15.6792 9.95279C15.8871 9.95147 16.0252 10.0922 16.041 10.3276C16.0476 10.4197 16.0423 10.5118 16.0423 10.5499C16.3317 10.6946 16.5909 10.8011 16.825 10.9485C17.0329 11.0787 17.0631 11.3049 16.9368 11.4719C16.8184 11.6285 16.6172 11.6429 16.4146 11.518C16.308 11.4522 16.1923 11.3996 16.0423 11.3207C16.0423 11.7981 16.0541 12.219 16.037 12.6386C16.0291 12.8385 16.1002 12.9188 16.283 12.9806C16.8119 13.1568 17.1881 13.4962 17.3118 14.0591C17.492 14.8864 17.0223 15.6966 16.212 15.9886C16.1436 16.0136 16.066 16.0925 16.0489 16.1609C16.0042 16.3411 15.9884 16.5279 15.9594 16.7291C16.3975 16.7791 16.7487 17.0461 17.0737 17.3644C18.0498 16.6726 19.0101 15.9952 19.9678 15.3126C20.0204 15.2757 20.0533 15.2047 20.0822 15.1429C20.4755 14.3103 20.6058 13.4291 20.4874 12.5242C20.123 9.75681 17.592 7.89831 14.8412 8.36129C11.8669 8.86242 10.0633 12.0362 11.1486 14.8509C11.2565 15.1297 11.4091 15.3415 11.6617 15.5138C12.5418 16.1162 13.4074 16.7397 14.273 17.3513C14.4637 17.2066 14.6308 17.0501 14.8241 16.9396C15.0149 16.8304 15.232 16.7673 15.399 16.7002C15.3622 16.4898 15.3267 16.2872 15.3004 16.1373ZM8.79126 23.224C8.79915 23.2411 8.80573 23.2582 8.81362 23.2753C13.3955 23.2753 17.9761 23.2753 22.6185 23.2753C22.508 23.1714 22.4435 23.107 22.3764 23.0464C20.394 21.2774 18.4115 19.507 16.4277 17.7393C15.9331 17.2987 15.4201 17.3079 14.9268 17.7485C13.2508 19.2426 11.5762 20.7355 9.90154 22.2297C9.53057 22.5598 9.16091 22.8926 8.79126 23.224ZM17.6209 17.8498C19.4731 19.5018 21.3109 21.1419 23.1592 22.7913C23.2605 22.5335 23.3039 14.3695 23.2144 13.8934C21.3503 15.2113 19.4968 16.5226 17.6209 17.8498ZM13.7441 17.8498C11.8695 16.524 10.0173 15.2139 8.15061 13.8934C8.04932 14.5629 8.10325 22.5756 8.21507 22.7834C10.0541 21.1432 11.8893 19.5044 13.7441 17.8498ZM8.43607 13.2265C9.08462 13.6843 9.67264 14.0986 10.2738 14.5221C10.2107 14.0236 10.1528 13.5659 10.0923 13.0792C9.56214 13.1371 9.01752 12.9793 8.43607 13.2265ZM21.0899 14.526C21.6884 14.1025 22.2817 13.6816 22.9184 13.2305C22.3462 12.9701 21.795 13.141 21.274 13.0805C21.2109 13.5751 21.1517 14.0354 21.0899 14.526ZM16.0528 15.2586C16.4448 15.0995 16.6632 14.7378 16.6316 14.3419C16.604 13.996 16.3949 13.7553 16.0528 13.6816C16.0528 14.1998 16.0528 14.7181 16.0528 15.2586ZM15.3043 12.5373C15.3043 12.1546 15.3043 11.7916 15.3043 11.3825C15.0294 11.5601 14.9215 11.7784 14.9254 12.0586C14.9281 12.3085 15.0715 12.4466 15.3043 12.5373Z" fill="black"/>
<path d="M1.26268 24C1.23768 23.9842 1.21532 23.9619 1.18769 23.954C0.476008 23.7238 0.0958281 23.2043 0.0958281 22.4506C0.0958281 18.3101 0.0958281 14.1696 0.0958281 10.0291C0.0958281 7.23013 0.110299 4.42989 0.0879351 1.63097C0.0813576 0.695799 0.804883 0.0289495 1.68364 0.0342106C5.70775 0.0565704 9.73187 0.0460482 13.756 0.040787C14.2204 0.040787 14.6019 0.189414 14.9294 0.518235C16.0884 1.68621 17.2539 2.84892 18.4181 4.01032C18.7115 4.30231 18.8417 4.66007 18.8457 5.06386C18.8536 5.70309 18.8496 6.34232 18.847 6.98154C18.8457 7.24855 18.7062 7.41822 18.4971 7.4248C18.2813 7.43137 18.13 7.25512 18.1287 6.97628C18.1248 6.39098 18.1274 5.807 18.1274 5.22169C18.1274 5.13752 18.1274 5.05202 18.1274 4.94022C18.0182 4.93496 17.9288 4.92707 17.8393 4.92707C17.0053 4.92575 16.1699 4.92838 15.3359 4.92575C14.4466 4.92444 13.9507 4.42463 13.9507 3.53155C13.9507 2.69766 13.9507 1.86246 13.9507 1.02857C13.9507 0.944388 13.9507 0.860209 13.9507 0.740518C13.8507 0.740518 13.7678 0.740518 13.685 0.740518C9.68451 0.740518 5.68276 0.740518 1.68232 0.740518C1.10613 0.740518 0.803568 1.04303 0.803568 1.62307C0.802252 8.55462 0.802252 15.4875 0.803568 22.419C0.803568 22.9951 1.10876 23.295 1.6889 23.295C3.30302 23.2963 4.91714 23.2963 6.53257 23.2937C6.72858 23.2937 6.91538 23.299 7.00484 23.5094C7.09298 23.7172 6.968 23.8619 6.83382 23.9961C4.97634 24 3.12016 24 1.26268 24ZM17.5341 4.21155C16.5738 3.25271 15.6161 2.29518 14.6689 1.34818C14.6689 2.12814 14.6571 2.9423 14.6755 3.75515C14.6821 4.02478 14.8952 4.20761 15.1531 4.21024C15.9529 4.21682 16.754 4.21155 17.5341 4.21155Z" fill="black"/>
<path d="M7.46696 4.19838C6.06332 4.19838 4.661 4.19838 3.25736 4.19706C3.15738 4.19706 3.05345 4.19312 2.95874 4.16549C2.78772 4.11551 2.67985 3.97741 2.72853 3.813C2.76404 3.69331 2.88507 3.58545 2.99163 3.50391C3.04819 3.4605 3.15738 3.47892 3.24157 3.47892C6.06332 3.4776 8.88639 3.4776 11.7081 3.4776C11.7397 3.4776 11.77 3.4776 11.8015 3.4776C12.0738 3.48549 12.237 3.61571 12.2422 3.82747C12.2475 4.0458 12.0725 4.19575 11.795 4.19575C10.3519 4.19969 8.90875 4.19838 7.46696 4.19838Z" fill="black"/>
<path d="M7.48897 6.59878C6.08533 6.59878 4.683 6.59878 3.27936 6.59878C3.19385 6.59878 3.10703 6.60272 3.02284 6.5922C2.83604 6.56721 2.72817 6.4541 2.71764 6.26601C2.7058 6.06477 2.81894 5.9464 3.00837 5.90036C3.06757 5.88589 3.13203 5.8951 3.19517 5.8951C6.04849 5.8951 8.90181 5.8951 11.7551 5.8951C11.817 5.8951 11.8814 5.88852 11.9419 5.90036C12.1353 5.94113 12.2458 6.07003 12.2366 6.26338C12.2287 6.44357 12.1248 6.56852 11.9327 6.5922C11.8485 6.60272 11.7617 6.59878 11.6762 6.59878C10.2805 6.59878 8.88471 6.59878 7.48897 6.59878Z" fill="black"/>
<path d="M5.26541 9.01761C4.58003 9.01761 3.89334 9.01892 3.20796 9.01629C3.12377 9.01629 3.03432 9.01235 2.95539 8.98736C2.787 8.93343 2.67782 8.79796 2.72649 8.63355C2.76201 8.51385 2.88303 8.40732 2.99091 8.32577C3.04879 8.28236 3.15666 8.29946 3.24085 8.29946C4.59713 8.29815 5.9521 8.29815 7.30838 8.29815C7.34785 8.29815 7.38599 8.29683 7.42546 8.29946C7.68593 8.31788 7.82537 8.44546 7.82274 8.6638C7.82011 8.8795 7.67277 9.01103 7.41625 9.01629C7.18209 9.02155 6.94925 9.01761 6.71509 9.01761C6.23098 9.01761 5.7482 9.01761 5.26541 9.01761Z" fill="black"/>
<path d="M16.0527 15.2586C16.0527 14.7181 16.0527 14.1998 16.0527 13.6803C16.3948 13.7553 16.6039 13.9947 16.6316 14.3406C16.6631 14.7378 16.4448 15.0995 16.0527 15.2586Z" fill="white"/>
<path d="M15.3047 12.5373C15.0719 12.4479 14.9285 12.3097 14.9259 12.0598C14.9219 11.7784 15.0311 11.56 15.3047 11.3838C15.3047 11.7902 15.3047 12.1545 15.3047 12.5373Z" fill="white"/>
</svg>
