<svg width="22" height="18" viewBox="0 0 22 18" fill="none" xmlns="http://www.w3.org/2000/svg">
<path d="M7.05376 8.75653C7.73962 8.07585 8.52364 7.61283 9.45112 7.32974C8.70108 6.70567 8.32983 5.93315 8.41541 4.98069C8.47455 4.31134 8.76526 3.74138 9.26738 3.28843C10.3069 2.35233 11.8674 2.39134 12.8691 3.36014C13.7475 4.20942 14.1464 6.03254 12.6564 7.30332C13.0667 7.49834 13.5033 7.67071 13.901 7.90725C14.2924 8.14001 14.6435 8.44072 15.0286 8.72381C15.4175 8.18657 15.6729 7.56879 15.8013 6.89818C16.0114 5.79726 15.8529 4.74667 15.3533 3.74389C15.3004 3.6382 15.2375 3.48596 15.2765 3.39789C15.3306 3.27333 15.4602 3.14374 15.5861 3.09844C15.7547 3.03805 15.8969 3.15632 15.9812 3.31485C16.2883 3.88984 16.4959 4.50007 16.5866 5.14426C16.949 7.71097 15.5911 10.1342 13.2265 11.1534C9.94569 12.5663 6.10488 10.4966 5.50208 6.99003C4.97982 3.95527 6.82724 1.17089 9.83243 0.492726C11.1488 0.195793 12.4173 0.380747 13.6216 0.989712C13.8909 1.1256 13.9828 1.31936 13.8834 1.52822C13.7777 1.74966 13.5575 1.80879 13.2881 1.66914C12.5985 1.31055 11.8636 1.13063 11.0884 1.11553C8.59411 1.06646 6.44215 2.98772 6.19172 5.47013C6.07468 6.62515 6.34525 7.67826 6.96944 8.64832C6.99084 8.67978 7.01601 8.70746 7.05376 8.75653ZM14.5013 9.36046C12.5847 7.25299 9.18181 7.46436 7.56217 9.36549C9.42595 11.3434 12.6627 11.3182 14.5013 9.36046ZM12.898 5.23611C12.9018 4.21446 12.0486 3.35889 11.0267 3.35889C10.0136 3.35889 9.1667 4.1981 9.15538 5.2122C9.14405 6.23008 9.99351 7.0932 11.0154 7.10075C12.0335 7.10955 12.8942 6.25776 12.898 5.23611Z" fill="black"/>
<path d="M13.6689 15.055C14.3485 14.1831 14.5435 14.0271 15.6233 13.4873C15.0192 12.9312 14.7398 12.2518 14.8745 11.4377C14.9626 10.903 15.2357 10.4639 15.6585 10.1217C16.518 9.42587 17.7652 9.49759 18.553 10.2827C19.4288 11.1571 19.3848 12.2945 18.4196 13.4999C19.2275 13.817 19.8743 14.3341 20.3626 15.0714C20.8861 14.3353 21.1403 13.5313 21.1315 12.6519C21.1139 10.8527 19.8768 9.24469 18.1452 8.76155C17.9149 8.69738 17.6733 8.6697 17.4342 8.63321C17.1246 8.58666 16.9623 8.4319 16.9925 8.19913C17.0239 7.95379 17.2316 7.84181 17.5424 7.87452C19.6591 8.09974 21.3178 9.69512 21.7683 11.6252C22.4139 14.3894 20.4771 17.1927 17.6607 17.5399C15.0331 17.8633 12.6697 16.132 12.2141 13.5364C12.1587 13.2243 12.1587 12.901 12.1524 12.5827C12.1474 12.3424 12.3249 12.165 12.535 12.1662C12.7515 12.1675 12.8975 12.3373 12.8987 12.5927C12.9063 13.5615 13.1718 14.4196 13.6689 15.055ZM14.1962 15.6803C15.8183 17.2669 18.4107 17.1474 19.8315 15.6728C19.2036 14.6033 18.2736 14.0044 17.029 14.0007C15.7743 13.9969 14.8355 14.5933 14.1962 15.6803ZM15.6044 11.8315C15.6069 12.6129 16.2374 13.2369 17.0214 13.2357C17.8029 13.2344 18.4284 12.6053 18.4284 11.8202C18.4284 11.0225 17.7979 10.3985 16.9988 10.4073C16.211 10.4161 15.6019 11.0389 15.6044 11.8315Z" fill="black"/>
<path d="M1.69006 15.0664C2.18212 14.3328 2.82015 13.8157 3.65073 13.4974C3.0429 12.935 2.76101 12.2644 2.88937 11.4566C2.97369 10.9206 3.24174 10.479 3.66206 10.1343C4.53795 9.41457 5.82157 9.50013 6.6081 10.3217C7.32039 11.0666 7.54691 12.4317 6.45961 13.4634C6.80946 13.6786 7.18574 13.8661 7.50664 14.1227C7.83132 14.3832 8.10063 14.7128 8.40895 15.0274C8.65058 14.7078 8.85822 14.3266 8.95638 13.9076C9.05706 13.4785 9.1011 13.0356 9.14515 12.5965C9.17158 12.3411 9.28861 12.1725 9.50633 12.1637C9.7253 12.1562 9.8889 12.3361 9.89897 12.5953C9.99209 15.0437 8.11573 17.2229 5.67936 17.5437C3.12218 17.8809 0.684556 16.1358 0.22522 13.5364C-0.251735 10.8363 1.66615 8.24068 4.40707 7.8909C4.50019 7.87958 4.59332 7.85693 4.68518 7.85945C4.88654 7.86574 5.04384 8.01924 5.05895 8.21048C5.07405 8.40047 4.94694 8.56026 4.73678 8.60555C4.38819 8.68105 4.02827 8.72131 3.69101 8.83077C1.16529 9.64985 0.109442 12.7916 1.61833 14.9758C1.63469 15.0035 1.65734 15.0261 1.69006 15.0664ZM7.8351 15.6929C7.39967 14.7078 6.17771 13.9604 5.00735 13.9956C3.76525 14.0321 2.83903 14.6096 2.2161 15.6791C3.60417 17.1952 6.481 17.1927 7.8351 15.6929ZM5.03126 10.4073C4.24221 10.4085 3.62305 11.0276 3.62179 11.8152C3.62053 12.6003 4.24347 13.2319 5.02371 13.2344C5.81779 13.237 6.44702 12.6066 6.44451 11.8114C6.44325 11.0251 5.82031 10.4073 5.03126 10.4073Z" fill="black"/>
<path d="M3.16268 2.42402C3.0834 2.48316 3.03935 2.52342 2.98901 2.55236C2.81031 2.65301 2.64042 2.63414 2.50451 2.47938C2.37741 2.33217 2.36356 2.15225 2.49318 2.01008C2.74991 1.72824 3.02173 1.45899 3.30111 1.1998C3.45716 1.05511 3.65474 1.07902 3.82463 1.24258C4.05996 1.46906 4.29152 1.70182 4.5193 1.93584C4.6917 2.11325 4.70806 2.31834 4.57341 2.47813C4.43246 2.64546 4.22356 2.65176 4.0134 2.497C3.99074 2.48064 3.96935 2.46177 3.91146 2.41522C3.91146 2.53852 3.91146 2.6203 3.91146 2.70208C3.91146 3.78413 3.91272 4.86743 3.9102 5.94947C3.90895 6.20237 3.75541 6.35839 3.52763 6.3521C3.31118 6.34706 3.17275 6.19482 3.1652 5.95199C3.16394 5.89789 3.1652 5.84253 3.1652 5.78843C3.1652 4.75294 3.1652 3.71744 3.1652 2.68069C3.16268 2.60646 3.16268 2.53223 3.16268 2.42402Z" fill="black"/>
<path d="M18.1392 2.4228C18.06 2.48194 18.0159 2.5222 17.9656 2.55114C17.7869 2.65179 17.617 2.63292 17.4811 2.47816C17.354 2.33095 17.3401 2.15103 17.4697 2.00886C17.7265 1.72702 17.9983 1.45777 18.2777 1.19858C18.4337 1.05389 18.6313 1.0778 18.8012 1.24136C19.0365 1.46784 19.2681 1.7006 19.4959 1.93462C19.6683 2.11203 19.6846 2.31711 19.55 2.4769C19.409 2.64424 19.2001 2.65054 18.99 2.49578C18.9673 2.47942 18.9459 2.46055 18.888 2.414C18.888 2.5373 18.888 2.61908 18.888 2.70086C18.888 3.78291 18.8893 4.86621 18.8868 5.94826C18.8855 6.20115 18.732 6.35717 18.5042 6.35088C18.2877 6.34584 18.1493 6.1936 18.1418 5.95077C18.1405 5.89667 18.1418 5.84131 18.1418 5.78721C18.1418 4.75171 18.1418 3.71622 18.1418 2.67947C18.1392 2.6065 18.1392 2.53226 18.1392 2.4228Z" fill="black"/>
<path d="M15.1004 2.26802C15.1029 2.47688 14.9468 2.64548 14.7417 2.65177C14.5366 2.65932 14.3491 2.47562 14.3516 2.26928C14.3541 2.06545 14.5202 1.9044 14.7279 1.90314C14.9405 1.90189 15.0979 2.05664 15.1004 2.26802Z" fill="black"/>
</svg>
