<svg width="24" height="24" viewBox="0 0 24 24" fill="none" xmlns="http://www.w3.org/2000/svg">
<path d="M13.892 14.5972C14.752 14.5972 15.5766 14.5972 16.4023 14.5972C16.432 14.5972 16.4617 14.5903 16.5131 14.5835C16.5131 14.4852 16.5131 14.3939 16.5131 14.3025C16.5131 11.5809 16.5131 8.86042 16.5131 6.1388C16.5131 5.71737 16.6147 5.61572 17.035 5.61572C17.9475 5.61572 18.8601 5.61572 19.7715 5.61572C20.1392 5.61572 20.2534 5.73222 20.2534 6.10797C20.2534 8.83643 20.2534 11.566 20.2534 14.2945C20.2534 14.387 20.2534 14.4784 20.2534 14.588C21.2516 14.588 22.2304 14.588 23.2286 14.588C23.2286 14.8416 23.2286 15.078 23.2286 15.3292C15.7604 15.3292 8.28884 15.3292 0.804688 15.3292C0.804688 15.0917 0.804688 14.861 0.804688 14.604C1.79032 14.604 2.77594 14.604 3.7867 14.604C3.7867 14.4955 3.7867 14.4121 3.7867 14.3288C3.7867 13.3306 3.7867 12.3324 3.7867 11.3342C3.7867 10.9744 3.90434 10.8545 4.25724 10.8545C5.19262 10.8534 6.128 10.8534 7.06451 10.8545C7.40372 10.8545 7.52706 10.9779 7.52706 11.3193C7.5282 12.3175 7.52706 13.3157 7.52706 14.3139C7.52706 14.3984 7.52706 14.483 7.52706 14.5823C8.40305 14.5823 9.26305 14.5823 10.1482 14.5823C10.1482 14.4932 10.1482 14.4099 10.1482 14.3265C10.1482 12.4626 10.1482 10.5998 10.1482 8.73593C10.1482 8.34533 10.2578 8.23455 10.6438 8.23455C11.5712 8.23455 12.4997 8.23341 13.4271 8.23455C13.7652 8.23455 13.8874 8.35904 13.8874 8.70167C13.8885 10.5656 13.8874 12.4283 13.8874 14.2922C13.892 14.3847 13.892 14.4772 13.892 14.5972ZM17.2771 6.37293C17.2771 9.12196 17.2771 11.8527 17.2771 14.5789C18.0286 14.5789 18.7641 14.5789 19.4962 14.5789C19.4962 11.8344 19.4962 9.10939 19.4962 6.37293C18.7539 6.37293 18.0241 6.37293 17.2771 6.37293ZM13.129 14.5869C13.129 12.7104 13.129 10.8522 13.129 9.00089C12.3775 9.00089 11.642 9.00089 10.91 9.00089C10.91 10.8716 10.91 12.7241 10.91 14.5869C11.6523 14.5869 12.3821 14.5869 13.129 14.5869ZM6.76643 14.5869C6.76643 13.583 6.76643 12.5985 6.76643 11.6209C6.01379 11.6209 5.27942 11.6209 4.54848 11.6209C4.54848 12.6191 4.54848 13.5978 4.54848 14.5869C5.29084 14.5869 6.0195 14.5869 6.76643 14.5869Z" fill="black"/>
<path d="M5.67835 16.0784C5.93076 16.0784 6.1626 16.0784 6.39102 16.0784C6.55777 16.7968 6.39559 17.3621 5.81198 17.618C5.63495 17.6956 5.6144 17.8498 5.68064 18.0131C5.84053 18.4094 6.00842 18.8023 6.17288 19.1975C6.24483 19.3711 6.37161 19.4305 6.54863 19.3722C7.05344 19.2055 7.4566 19.3517 7.79923 19.7491C7.99224 19.973 8.21495 20.1706 8.42966 20.3739C8.76315 20.6868 8.87165 21.0568 8.73917 21.4977C8.66379 21.7467 8.70376 21.8323 8.94475 21.934C9.31022 22.0881 9.67911 22.2332 10.0434 22.3874C10.2513 22.4753 10.3929 22.4342 10.5003 22.2218C10.7036 21.8209 11.0405 21.6404 11.4905 21.6519C11.8411 21.661 12.1917 21.6587 12.5423 21.6519C12.9832 21.6427 13.3041 21.8323 13.5166 22.2149C13.6605 22.4742 13.7256 22.4982 14.0019 22.3874C14.3697 22.2389 14.7363 22.0881 15.1041 21.9408C15.3028 21.8609 15.3759 21.7341 15.3051 21.5182C15.1577 21.0648 15.2731 20.6822 15.6271 20.3579C15.8624 20.1431 16.084 19.9113 16.3021 19.6783C16.6139 19.3448 16.9828 19.2329 17.4237 19.362C17.6886 19.4396 17.7743 19.4008 17.8794 19.153C18.037 18.7806 18.1866 18.4049 18.3476 18.0348C18.423 17.8612 18.3899 17.7196 18.2243 17.6397C17.7206 17.3964 17.5413 16.9887 17.5938 16.453C17.6041 16.3457 17.595 16.2372 17.595 16.1127C17.8554 16.1127 18.0918 16.1127 18.3385 16.1127C18.3385 16.268 18.3453 16.4279 18.3362 16.5867C18.3259 16.7637 18.3956 16.8745 18.5543 16.959C19.0854 17.2422 19.2682 17.7447 19.0477 18.3009C18.8901 18.6984 18.7279 19.0947 18.5612 19.4876C18.3305 20.0312 17.828 20.2733 17.2661 20.1009C17.0822 20.0449 16.96 20.0826 16.8309 20.2162C16.5968 20.4561 16.3524 20.6856 16.1011 20.9061C15.9664 21.0248 15.9275 21.1413 15.9801 21.3161C16.1582 21.91 15.9207 22.3988 15.3462 22.6398C14.9659 22.7997 14.5856 22.9561 14.203 23.1103C13.6525 23.3307 13.1557 23.156 12.8781 22.6341C12.7948 22.4776 12.6908 22.4022 12.5115 22.4068C12.1769 22.4148 11.8411 22.3931 11.5076 22.4182C11.3911 22.4273 11.2392 22.5119 11.1787 22.6089C10.8246 23.1777 10.3712 23.3353 9.74536 23.0795C9.3856 22.9321 9.02469 22.7871 8.66608 22.6363C8.08818 22.3942 7.84948 21.9157 8.02193 21.3172C8.06876 21.1528 8.03678 21.0363 7.91686 20.9198C7.67131 20.6811 7.43033 20.4378 7.19391 20.19C7.08427 20.0758 6.96892 20.0472 6.81588 20.0906C6.18202 20.2699 5.7229 20.0426 5.46821 19.4316C5.30946 19.0513 5.14956 18.6721 4.99766 18.2884C4.78638 17.7539 4.9634 17.2479 5.46707 16.9761C5.65437 16.8756 5.72175 16.7534 5.68292 16.5433C5.6578 16.4005 5.67835 16.2486 5.67835 16.0784Z" fill="black"/>
<path d="M19.794 1.85249C19.4034 1.73599 19.0129 1.6195 18.6017 1.49615C18.6759 1.23918 18.7433 1.00391 18.8176 0.742371C19.3269 0.89998 19.8203 1.05302 20.3148 1.20606C20.5821 1.28829 20.8516 1.36367 21.1154 1.45618C21.3564 1.5407 21.4638 1.76112 21.345 1.97926C20.9636 2.68279 20.5661 3.37604 20.1641 4.09328C19.9379 3.96422 19.7312 3.84544 19.5062 3.71639C19.7095 3.34978 19.9083 2.9923 20.1424 2.56972C14.3131 4.91102 8.5444 7.22833 2.74827 9.55478C2.65347 9.3275 2.5621 9.11051 2.45703 8.8581C8.24403 6.53622 14.0196 4.21891 19.794 1.90274C19.794 1.88675 19.794 1.86962 19.794 1.85249Z" fill="black"/>
<path d="M7.89062 16.1036C8.16473 16.1036 8.39543 16.1036 8.64555 16.1036C8.69352 17.1646 9.09211 18.0531 9.92698 18.7212C10.5791 19.2443 11.3306 19.4922 12.1609 19.4556C13.7918 19.3825 15.3028 18.1433 15.3999 16.0944C15.5187 16.0944 15.6409 16.0944 15.7619 16.0944C15.8773 16.0944 15.9927 16.0944 16.1446 16.0944C16.1 17.4912 15.5621 18.6219 14.4371 19.4191C13.0415 20.4081 11.5396 20.5075 10.0366 19.692C8.64555 18.936 7.97057 17.7036 7.89062 16.1036Z" fill="black"/>
</svg>
