<svg width="24" height="24" viewBox="0 0 24 24" fill="none" xmlns="http://www.w3.org/2000/svg">
<path d="M9.40916 22.4598C9.40916 20.6992 9.40916 18.9711 9.40916 17.2319C9.65796 17.2319 9.88859 17.2319 10.135 17.2319C10.135 19.2183 10.135 21.2016 10.135 23.237C9.61215 23.2109 9.08453 23.2417 8.58062 23.1462C7.73707 22.9866 7.16128 22.2165 7.15891 21.354C7.15575 20.0911 7.14864 18.8281 7.16444 17.5652C7.16839 17.2192 7.24737 16.8741 7.29397 16.5092C7.29239 16.5084 7.25764 16.4862 7.22289 16.4862C6.12422 16.4886 5.02161 16.4381 3.92689 16.5123C2.60945 16.6008 1.65216 17.5983 1.55975 18.9189C1.51236 19.5919 1.52816 20.2767 1.59687 20.948C1.67191 21.6786 2.32984 22.2995 3.0407 22.4021C3.0407 21.0555 3.0407 19.7112 3.0407 18.3558C3.29502 18.3558 3.52487 18.3558 3.78314 18.3558C3.78314 19.7183 3.78314 21.0768 3.78314 22.455C4.91419 22.455 6.01759 22.455 7.13916 22.455C7.13916 22.7102 7.13916 22.9463 7.13916 23.1999C7.07361 23.2046 7.00647 23.2141 6.93933 23.2141C5.78538 23.2149 4.63143 23.218 3.47748 23.2141C2.09052 23.2086 1.00923 22.3137 0.824413 20.9449C0.74227 20.3399 0.784131 19.7151 0.802297 19.0998C0.811775 18.7689 0.853637 18.4292 0.946048 18.1125C1.34571 16.7295 2.65763 15.7414 4.09671 15.7272C5.12587 15.7169 6.15582 15.6956 7.18339 15.7399C7.56568 15.7564 7.78051 15.6609 8.02457 15.3686C8.66829 14.5977 9.53079 14.2352 10.5355 14.2289C11.5259 14.2226 12.5156 14.2186 13.506 14.2297C14.6387 14.2423 15.5533 14.7044 16.2318 15.6143C16.3234 15.7375 16.404 15.788 16.558 15.7517C16.6851 15.7217 16.821 15.7256 16.9529 15.7256C17.9118 15.7241 18.8706 15.7225 19.8295 15.7248C21.7677 15.7304 23.2479 17.2113 23.2503 19.1441C23.2511 19.6353 23.2526 20.1266 23.2503 20.6179C23.2432 22.0159 22.1334 23.1777 20.7346 23.2062C19.4646 23.2315 18.1945 23.2117 16.9071 23.2117C16.9071 22.9661 16.9071 22.7291 16.9071 22.4653C18.016 22.4653 19.1257 22.4653 20.2536 22.4653C20.2536 21.0855 20.2536 19.7317 20.2536 18.3613C20.508 18.3613 20.7441 18.3613 21.004 18.3613C21.004 19.7112 21.004 21.0547 21.004 22.4021C21.6785 22.3137 22.3649 21.7284 22.4312 21.0199C22.5086 20.1969 22.5402 19.3439 22.4099 18.5335C22.2132 17.3148 21.1683 16.5155 19.9124 16.4855C18.9149 16.461 17.9165 16.4799 16.9189 16.4807C16.8581 16.4807 16.7981 16.4957 16.7562 16.5013C17.0169 18.1607 16.8557 19.8194 16.8786 21.4725C16.8905 22.365 16.0667 23.1675 15.1702 23.2046C14.7579 23.222 14.3449 23.2078 13.9144 23.2078C13.9144 21.2221 13.9144 19.2388 13.9144 17.239C14.1474 17.239 14.3828 17.239 14.6379 17.239C14.6379 18.9734 14.6379 20.7008 14.6379 22.4242C15.4569 22.6225 16.1378 22.0988 16.1409 21.2782C16.1457 20.0934 16.1433 18.9079 16.1417 17.7231C16.1402 16.2161 15.156 15.0906 13.6601 15.0045C12.5496 14.9405 11.4296 14.95 10.3183 15.014C8.96448 15.0922 7.95349 16.1616 7.91794 17.5122C7.88319 18.7981 7.8982 20.0847 7.91241 21.3714C7.91952 21.9993 8.41949 22.4558 9.05215 22.4622C9.15878 22.4606 9.26699 22.4598 9.40916 22.4598Z" fill="black"/>
<path d="M3.02884 12.3712C3.02884 12.6224 3.02884 12.8546 3.02884 13.086C2.46964 13.1255 1.93413 12.6484 1.92307 12.079C1.90806 11.2686 1.90885 10.4574 1.92307 9.64706C1.93334 9.09101 2.44199 8.6258 3.0241 8.61474C3.49959 8.60605 3.97507 8.60842 4.44976 8.60526C4.45687 8.60526 4.46477 8.60052 4.46003 8.6021C4.66697 8.10766 4.87074 7.62112 5.08637 7.10536C4.79334 6.81391 4.4774 6.50192 4.16463 6.18836C3.60384 5.6252 3.60384 4.9878 4.16384 4.42544C4.64248 3.94522 5.12112 3.46421 5.60292 2.98715C6.12659 2.46743 6.794 2.46664 7.32319 2.98478C7.602 3.25727 7.87845 3.53213 8.14857 3.81332C8.24098 3.90889 8.31049 3.93732 8.44634 3.87413C8.83336 3.69405 9.22907 3.53134 9.62794 3.37812C9.74483 3.3331 9.78195 3.28097 9.78037 3.16091C9.77405 2.73203 9.77563 2.30315 9.77879 1.87427C9.78353 1.25345 10.2661 0.761384 10.8893 0.754276C11.6452 0.746377 12.4018 0.746377 13.1577 0.754276C13.7809 0.761384 14.2619 1.25424 14.2667 1.87663C14.2698 2.30552 14.2714 2.7344 14.2651 3.16328C14.2635 3.28491 14.3054 3.33389 14.4199 3.37812C14.8251 3.5345 15.2271 3.70195 15.6228 3.88282C15.7429 3.93732 15.8021 3.90968 15.8819 3.82832C16.1599 3.54398 16.4411 3.2628 16.7246 2.98399C17.2507 2.46664 17.9189 2.46664 18.4449 2.98794C18.9377 3.47606 19.4282 3.96733 19.9164 4.46019C20.4313 4.97991 20.4298 5.6331 19.9116 6.15676C19.5941 6.47823 19.2695 6.79179 18.9449 7.11247C19.0641 7.37153 19.1842 7.61401 19.2884 7.8636C19.3903 8.10608 19.4756 8.35567 19.572 8.61316C20.0348 8.61316 20.4945 8.61158 20.9534 8.61395C21.6516 8.6179 22.1255 9.09338 22.1271 9.79081C22.1287 10.5396 22.1334 11.2875 22.1247 12.0363C22.1184 12.6247 21.6311 13.0955 21.0245 13.0979C21.0245 12.8625 21.0245 12.6263 21.0245 12.3696C21.3302 12.3135 21.387 12.0861 21.3831 11.8009C21.3736 11.162 21.3807 10.5222 21.3799 9.88322C21.3791 9.49383 21.2536 9.36903 20.8586 9.36824C20.305 9.36666 19.7513 9.3635 19.1984 9.37061C19.0452 9.37298 18.9662 9.34297 18.9259 9.17315C18.7435 8.40385 18.4275 7.68747 17.9852 7.00189C18.3383 6.65357 18.6787 6.31157 19.0254 5.97668C19.7173 5.3069 19.7039 5.30137 19.0183 4.63396C18.6668 4.29117 18.324 3.93969 17.9765 3.59216C17.6551 3.26991 17.5145 3.26833 17.1985 3.58426C16.7641 4.01867 16.3305 4.45466 15.9451 4.84168C15.1228 4.4989 14.3448 4.17427 13.521 3.83069C13.521 3.30545 13.521 2.70675 13.521 2.10806C13.521 1.60414 13.4247 1.50778 12.9208 1.50778C12.5306 1.50778 12.1412 1.50857 11.751 1.50778C10.4004 1.50462 10.5244 1.40273 10.5252 2.74546C10.5252 3.12695 10.5252 3.50765 10.5252 3.85834C9.98178 4.06527 9.45812 4.25563 8.94315 4.46493C8.73542 4.54944 8.53717 4.66397 8.34998 4.78798C8.21255 4.87881 8.12961 4.87012 8.0143 4.75085C7.61938 4.34093 7.21261 3.94285 6.809 3.5424C6.54915 3.28491 6.37696 3.28807 6.11395 3.5503C5.64478 4.01788 5.17562 4.48626 4.70804 4.95542C4.44265 5.2216 4.44423 5.39615 4.71357 5.66628C5.11559 6.06909 5.51604 6.47349 5.92281 6.87157C6.02075 6.96793 6.04681 7.03743 5.96546 7.16618C5.57133 7.78857 5.29094 8.4623 5.12112 9.17947C5.084 9.33507 5.01686 9.37298 4.86758 9.3714C4.30601 9.3635 3.74523 9.36745 3.18365 9.36903C2.79031 9.36982 2.66631 9.49462 2.66552 9.88717C2.66473 10.5498 2.66394 11.2125 2.66552 11.8752C2.66631 12.1761 2.7287 12.2606 3.02884 12.3712Z" fill="black"/>
<path d="M17.2759 10.8499C16.9979 10.8499 16.7673 10.8499 16.5374 10.8499C16.4861 8.20478 14.3172 6.33524 11.9587 6.37394C9.68557 6.41106 7.61225 8.17082 7.51667 10.846C7.2813 10.846 7.04514 10.846 6.77344 10.846C6.83662 9.01042 7.57275 7.52947 9.09872 6.52401C10.9019 5.33609 12.8094 5.27133 14.6781 6.35657C16.37 7.33833 17.1882 8.88088 17.2759 10.8499Z" fill="black"/>
<path d="M12.024 13.8545C10.78 13.8553 9.78009 12.8586 9.7793 11.6169C9.77851 10.3769 10.7792 9.36511 12.0122 9.36037C13.2593 9.35563 14.2703 10.3658 14.2687 11.6154C14.2672 12.8593 13.2696 13.8538 12.024 13.8545ZM12.013 13.1026C12.8431 13.1058 13.5208 12.4352 13.5208 11.6114C13.5208 10.801 12.8502 10.1273 12.0351 10.117C11.22 10.1068 10.5265 10.7947 10.5273 11.6138C10.5281 12.4257 11.2002 13.0995 12.013 13.1026Z" fill="black"/>
<path d="M5.65049 15.3521C4.39465 15.3466 3.41051 14.345 3.41604 13.0805C3.42157 11.8523 4.44441 10.8492 5.68287 10.8579C6.92371 10.8666 7.91416 11.8871 7.90547 13.1469C7.896 14.3695 6.88579 15.3576 5.65049 15.3521ZM5.65207 14.5994C6.4814 14.6017 7.15908 13.9288 7.1575 13.1058C7.15592 12.2954 6.48377 11.6217 5.66945 11.613C4.85354 11.6051 4.16165 12.293 4.16401 13.1113C4.16638 13.9256 4.83854 14.597 5.65207 14.5994Z" fill="black"/>
<path d="M18.3822 15.3521C17.1374 15.3505 16.1414 14.3545 16.1406 13.1113C16.1406 11.8626 17.1532 10.8524 18.4004 10.8587C19.6333 10.8642 20.6324 11.8768 20.6301 13.1176C20.6277 14.3592 19.6278 15.3528 18.3822 15.3521ZM18.3901 14.5993C19.206 14.5978 19.8773 13.9303 19.8821 13.116C19.8876 12.2978 19.1989 11.609 18.3806 11.6138C17.5671 11.6185 16.8926 12.2914 16.8886 13.1026C16.8847 13.924 17.5631 14.6009 18.3901 14.5993Z" fill="black"/>
<path d="M13.5076 22.4764C13.5076 22.7252 13.5076 22.9558 13.5076 23.1999C12.5187 23.1999 11.5409 23.1999 10.5449 23.1999C10.5449 22.9669 10.5449 22.7299 10.5449 22.4764C11.5227 22.4764 12.5061 22.4764 13.5076 22.4764Z" fill="black"/>
</svg>
