<svg width="32" height="36" viewBox="0 0 32 36" fill="none" xmlns="http://www.w3.org/2000/svg">
<path fill-rule="evenodd" clip-rule="evenodd" d="M20.9883 4.00604C21.1384 3.93707 21.3046 3.91332 21.4869 3.93481C21.5106 3.93481 21.5344 3.93481 21.5582 3.93481C21.5819 10.5001 21.5581 17.0534 21.4869 23.5948C21.395 23.6117 21.3237 23.588 21.2732 23.5236C21.3207 20.2826 21.3445 17.0297 21.3445 13.7648C21.3445 10.4878 21.2969 7.23484 21.202 4.00604C21.1308 4.00604 21.0595 4.00604 20.9883 4.00604Z" fill="#4769E9"/>
<path fill-rule="evenodd" clip-rule="evenodd" d="M21.5556 3.93481C21.6979 10.4877 21.7454 17.0648 21.6981 23.666C21.6061 23.6829 21.5349 23.6592 21.4844 23.5948C21.5555 17.0534 21.5793 10.5001 21.5556 3.93481Z" fill="#4373E8"/>
<path fill-rule="evenodd" clip-rule="evenodd" d="M21.4844 3.93482C21.6189 3.84637 21.7614 3.84637 21.9118 3.93482C21.9118 10.5357 21.9118 17.1364 21.9118 23.7373C21.8198 23.7541 21.7486 23.7304 21.6981 23.666C21.7454 17.0648 21.6979 10.4877 21.5556 3.93482C21.5319 3.93482 21.5081 3.93482 21.4844 3.93482Z" fill="#3E7DE8"/>
<path fill-rule="evenodd" clip-rule="evenodd" d="M21.9141 3.93481C21.9378 3.93481 21.9616 3.93481 21.9853 3.93481C22.0563 10.5543 22.0801 17.1789 22.0565 23.8085C21.9859 23.8207 21.9384 23.797 21.9141 23.7373C21.9141 17.1364 21.9141 10.5357 21.9141 3.93481Z" fill="#3B85E8"/>
<path fill-rule="evenodd" clip-rule="evenodd" d="M20.7734 4.07727C20.8239 4.01287 20.8952 3.98913 20.9871 4.00604C21.0584 4.00604 21.1296 4.00604 21.2008 4.00604C21.2246 10.5001 21.2008 16.9822 21.1296 23.4523C21.0376 23.4692 20.9664 23.4455 20.9159 23.3811C20.9871 16.9585 21.0109 10.5239 20.9871 4.07727C20.9159 4.07727 20.8447 4.07727 20.7734 4.07727Z" fill="#5056E9"/>
<path fill-rule="evenodd" clip-rule="evenodd" d="M21.2001 4.00604C21.2951 7.23484 21.3426 10.4878 21.3426 13.7648C21.3426 17.0297 21.3189 20.2826 21.2714 23.5236C21.2007 23.5358 21.1533 23.512 21.1289 23.4523C21.2001 16.9822 21.2239 10.5001 21.2001 4.00604Z" fill="#4B60E9"/>
<path fill-rule="evenodd" clip-rule="evenodd" d="M21.9844 3.93481C22.112 3.92526 22.2307 3.949 22.3406 4.00604C22.3643 10.6426 22.3405 17.2671 22.2693 23.8797C22.1903 23.8757 22.1191 23.8519 22.0556 23.8085C22.0792 17.1789 22.0554 10.5543 21.9844 3.93481Z" fill="#3691E8"/>
<path fill-rule="evenodd" clip-rule="evenodd" d="M20.6289 4.1485C20.6533 4.0888 20.7007 4.06505 20.7714 4.07727C20.8426 4.07727 20.9138 4.07727 20.9851 4.07727C21.0088 10.5239 20.985 16.9585 20.9138 23.3811C20.8219 23.398 20.7506 23.3743 20.7001 23.3099C20.7477 20.1283 20.7714 16.9347 20.7714 13.7292C20.7714 10.5115 20.7239 7.31797 20.6289 4.1485Z" fill="#5549E9"/>
<path fill-rule="evenodd" clip-rule="evenodd" d="M22.3408 4.00604C22.4327 3.98913 22.504 4.01287 22.5545 4.07727C22.6018 7.39639 22.6256 10.7206 22.6257 14.0497C22.6257 17.3743 22.5782 20.6746 22.4832 23.951C22.3913 23.9678 22.32 23.9441 22.2695 23.8797C22.3407 17.2671 22.3645 10.6426 22.3408 4.00604Z" fill="#319DE8"/>
<path fill-rule="evenodd" clip-rule="evenodd" d="M20.4883 4.21973C20.5126 4.16003 20.5601 4.13628 20.6308 4.1485C20.7257 7.31796 20.7732 10.5115 20.7732 13.7292C20.7732 16.9347 20.7495 20.1283 20.702 23.3099C20.61 23.3267 20.5388 23.303 20.4883 23.2386C20.5832 16.899 20.5832 10.5594 20.4883 4.21973Z" fill="#5B3DEA"/>
<path fill-rule="evenodd" clip-rule="evenodd" d="M20.489 4.21974C20.5839 10.5594 20.5839 16.899 20.489 23.2386C20.397 23.2555 20.3258 23.2318 20.2753 23.1674C20.3583 16.911 20.3702 10.6426 20.3109 4.36221C20.2631 4.4158 20.2038 4.43955 20.1328 4.43344C20.2154 4.30876 20.3341 4.23753 20.489 4.21974Z" fill="#6030EA"/>
<path fill-rule="evenodd" clip-rule="evenodd" d="M22.5556 4.07727C22.6827 4.10523 22.8014 4.15272 22.9118 4.21973C22.9118 10.8443 22.9118 17.4689 22.9118 24.0934C22.7489 24.0866 22.6065 24.0391 22.4844 23.951C22.5793 20.6746 22.6268 17.3743 22.6268 14.0497C22.6267 10.7206 22.6029 7.39639 22.5556 4.07727Z" fill="#2BA9E7"/>
<path fill-rule="evenodd" clip-rule="evenodd" d="M20.275 23.1674C20.085 23.1199 19.8951 23.0725 19.7051 23.0249C19.7051 22.9774 19.6814 22.9537 19.6339 22.9537C19.4785 17.4924 19.3123 12.0312 19.1352 6.57038C19.1009 5.67125 19.4334 4.95893 20.1325 4.43343C20.2035 4.43954 20.2628 4.41579 20.3106 4.3622C20.3699 10.6426 20.358 16.911 20.275 23.1674Z" fill="#6526EA"/>
<path fill-rule="evenodd" clip-rule="evenodd" d="M22.9102 4.21974C22.9814 4.26723 23.0526 4.31472 23.1239 4.36221C23.2185 10.9721 23.2185 17.5729 23.1239 24.1647C23.0319 24.1815 22.9607 24.1578 22.9102 24.0934C22.9102 17.4689 22.9102 10.8443 22.9102 4.21974Z" fill="#27B4E7"/>
<path fill-rule="evenodd" clip-rule="evenodd" d="M23.125 4.3622C23.3423 4.50816 23.5085 4.69811 23.6236 4.93205C23.6709 11.4146 23.6235 17.873 23.4812 24.3071C23.3456 24.286 23.2269 24.2385 23.125 24.1646C23.2197 17.5729 23.2197 10.9721 23.125 4.3622Z" fill="#22BEE7"/>
<path opacity="0.999" fill-rule="evenodd" clip-rule="evenodd" d="M23.6229 4.93205C23.8358 5.14439 23.9545 5.40557 23.9791 5.7156C24.0028 11.9723 23.979 18.2169 23.9079 24.4496C23.745 24.4428 23.6026 24.3953 23.4805 24.3071C23.6228 17.873 23.6702 11.4146 23.6229 4.93205Z" fill="#1DCAE7"/>
<path opacity="0.996" fill-rule="evenodd" clip-rule="evenodd" d="M23.9775 5.71561C24.1249 6.24333 24.2198 6.78944 24.2624 7.35394C24.2624 13.1 24.2624 18.846 24.2624 24.592C24.1269 24.571 24.0081 24.5234 23.9062 24.4496C23.9774 18.2169 24.0012 11.9723 23.9775 5.71561Z" fill="#1AD2E7"/>
<path opacity="0.985" fill-rule="evenodd" clip-rule="evenodd" d="M15.2165 7.14024C16.1846 8.0045 17.1819 8.83549 18.2083 9.63336C18.2683 9.7672 18.2921 9.90967 18.2796 10.0607C17.1157 9.11052 15.9522 8.16078 14.7891 7.21148C14.9315 7.18776 15.074 7.16399 15.2165 7.14024Z" fill="#476BE8"/>
<path opacity="0.987" fill-rule="evenodd" clip-rule="evenodd" d="M14.4343 7.2827C15.6941 8.35225 16.9763 9.397 18.281 10.4169C18.2905 10.5445 18.2668 10.6632 18.2098 10.7731C16.8058 9.69105 15.4286 8.57513 14.0781 7.42516C14.18 7.3513 14.2987 7.30378 14.4343 7.2827Z" fill="#3D84E7"/>
<path opacity="0.986" fill-rule="evenodd" clip-rule="evenodd" d="M14.0768 7.42517C15.4272 8.57514 16.8044 9.69106 18.2084 10.7731C18.2041 10.9754 18.1567 11.1653 18.0659 11.3429C16.554 10.1245 15.0581 8.88984 13.5781 7.63887C13.7358 7.54819 13.902 7.47696 14.0768 7.42517Z" fill="#3595E7"/>
<path opacity="0.989" fill-rule="evenodd" clip-rule="evenodd" d="M24.2656 7.35394C24.4131 7.88198 24.508 8.42805 24.5506 8.99227C24.5743 14.228 24.5505 19.4516 24.4793 24.6633C24.4003 24.6592 24.3291 24.6355 24.2656 24.592C24.2656 18.846 24.2656 13.1 24.2656 7.35394Z" fill="#17D7E7"/>
<path opacity="0.992" fill-rule="evenodd" clip-rule="evenodd" d="M13.5779 7.63887C15.0579 8.88984 16.5538 10.1245 18.0657 11.3429C18.0182 11.4379 17.9708 11.5329 17.9233 11.6279C16.3588 10.3959 14.8153 9.13745 13.293 7.85257C13.3879 7.78133 13.483 7.7101 13.5779 7.63887Z" fill="#30A3E6"/>
<path fill-rule="evenodd" clip-rule="evenodd" d="M15.2188 7.14024C16.8239 7.24994 17.8212 8.081 18.2106 9.63336C17.1842 8.83549 16.1869 8.0045 15.2188 7.14024Z" fill="#5056E9"/>
<path opacity="0.986" fill-rule="evenodd" clip-rule="evenodd" d="M13.2928 7.85255C14.8151 9.13743 16.3586 10.3959 17.923 11.6278C17.8687 11.7609 17.7974 11.8796 17.7093 11.984C16.1197 10.7266 14.5525 9.44444 13.0078 8.13748C13.079 8.01874 13.174 7.92379 13.2928 7.85255Z" fill="#2AB0E6"/>
<path fill-rule="evenodd" clip-rule="evenodd" d="M14.7898 7.21147C15.9529 8.16077 17.1164 9.11051 18.2803 10.0607C18.2803 10.1795 18.2803 10.2982 18.2803 10.4169C16.9756 9.397 15.6934 8.35224 14.4336 7.2827C14.5434 7.22564 14.6621 7.20192 14.7898 7.21147Z" fill="#4375E8"/>
<path opacity="0.993" fill-rule="evenodd" clip-rule="evenodd" d="M13.0106 8.13748C14.5553 9.44444 16.1225 10.7266 17.7121 11.984C17.6409 12.1027 17.5459 12.1977 17.4272 12.2689C15.882 10.9846 14.3385 9.70245 12.7969 8.42241C12.8343 8.29918 12.9056 8.20415 13.0106 8.13748Z" fill="#25BCE5"/>
<path opacity="0.989" fill-rule="evenodd" clip-rule="evenodd" d="M12.7967 8.42241C14.3383 9.70245 15.8818 10.9846 17.4269 12.2689C17.3354 12.408 17.2167 12.5266 17.0708 12.6251C15.5802 11.3334 14.0605 10.075 12.5117 8.8498C12.5812 8.68632 12.6761 8.54386 12.7967 8.42241Z" fill="#20C9E5"/>
<path opacity="0.988" fill-rule="evenodd" clip-rule="evenodd" d="M24.5478 8.99226C24.7825 10.1154 24.9724 11.2552 25.1177 12.4114C25.1414 16.5668 25.1177 20.722 25.0464 24.877C24.841 24.8265 24.651 24.7552 24.4766 24.6633C24.5477 19.4516 24.5715 14.2279 24.5478 8.99226Z" fill="#14DDE7"/>
<path opacity="0.985" fill-rule="evenodd" clip-rule="evenodd" d="M12.5106 8.84981C14.0594 10.075 15.579 11.3334 17.0696 12.6251C16.9482 12.7456 16.8057 12.8406 16.6422 12.91C15.2359 11.6725 13.7874 10.4853 12.2969 9.34843C12.3542 9.17641 12.4255 9.01015 12.5106 8.84981Z" fill="#1BD5E4"/>
<path opacity="0.965" fill-rule="evenodd" clip-rule="evenodd" d="M12.2962 9.34843C13.7867 10.4853 15.2352 11.6725 16.6415 12.91C15.0707 13.5651 13.7529 13.2326 12.688 11.9128C12.2355 11.1095 12.1049 10.2547 12.2962 9.34843Z" fill="#15E2E4"/>
<path opacity="0.991" fill-rule="evenodd" clip-rule="evenodd" d="M25.1184 12.4114C26.0583 17.8604 26.9843 23.3215 27.8966 28.7947C27.8418 28.981 27.818 29.1709 27.8253 29.3646C22.2518 29.0301 16.6718 28.7452 11.0851 28.5098C9.4359 27.9878 7.79749 27.4298 6.16984 26.8358C4.09975 25.8898 3.25681 24.2871 3.64099 22.0277C3.76929 21.415 4.03048 20.869 4.42458 20.3894C6.08946 18.5585 7.72789 16.7065 9.3398 14.8333C10.4194 13.454 11.7373 13.1572 13.2934 13.9429C14.3186 14.739 14.6629 15.7718 14.3263 17.0415C13.8655 18.1983 13.4262 19.3618 13.0084 20.5318C12.8632 20.6323 12.7919 20.7748 12.7947 20.9592C12.6688 21.1225 12.5976 21.3124 12.581 21.5291C12.5071 21.6309 12.4596 21.7497 12.4385 21.8852C12.2743 22.1406 12.1793 22.4255 12.1536 22.74C14.1516 22.8828 16.1462 23.0489 18.1373 23.2386C18.6554 23.1409 19.1777 23.0697 19.7045 23.0249C19.8945 23.0724 20.0844 23.1199 20.2744 23.1674C20.3249 23.2318 20.3961 23.2555 20.4881 23.2386C20.5386 23.303 20.6098 23.3267 20.7018 23.3099C20.7523 23.3743 20.8235 23.398 20.9155 23.3811C20.966 23.4455 21.0373 23.4692 21.1292 23.4523C21.1536 23.512 21.201 23.5358 21.2717 23.5236C21.3222 23.588 21.3934 23.6117 21.4854 23.5948C21.5359 23.6592 21.6071 23.6829 21.6991 23.666C21.7496 23.7304 21.8208 23.7541 21.9128 23.7373C21.9372 23.7969 21.9846 23.8207 22.0553 23.8085C22.1187 23.8519 22.19 23.8757 22.269 23.8797C22.3195 23.9441 22.3907 23.9678 22.4827 23.9509C22.6048 24.0391 22.7473 24.0866 22.9101 24.0934C22.9606 24.1578 23.0318 24.1815 23.1238 24.1646C23.2257 24.2385 23.3444 24.286 23.48 24.3071C23.6021 24.3953 23.7445 24.4428 23.9074 24.4496C24.0093 24.5234 24.128 24.571 24.2636 24.592C24.327 24.6355 24.3983 24.6592 24.4773 24.6633C24.6517 24.7552 24.8417 24.8265 25.0472 24.877C25.1184 20.722 25.1421 16.5668 25.1184 12.4114Z" fill="#12E2E7"/>
<path opacity="0.999" fill-rule="evenodd" clip-rule="evenodd" d="M13.0068 20.5318C13.5473 20.7595 14.0934 20.9732 14.6452 21.1729C14.5531 21.2198 14.4462 21.2436 14.3246 21.2441C13.9097 21.2013 13.4941 21.1657 13.078 21.1373C12.94 21.1286 12.845 21.0693 12.793 20.9592C12.7903 20.7748 12.8615 20.6323 13.0068 20.5318Z" fill="#339BE7"/>
<path fill-rule="evenodd" clip-rule="evenodd" d="M12.7957 20.9592C12.8477 21.0693 12.9427 21.1286 13.0807 21.1373C13.4968 21.1656 13.9124 21.2013 14.3273 21.2441C14.4489 21.2436 14.5557 21.2198 14.6479 21.1729C15.0497 21.2749 15.4297 21.4174 15.7876 21.6003C15.5394 21.6477 15.2782 21.6715 15.004 21.6715C14.1964 21.624 13.3891 21.5765 12.582 21.5291C12.5986 21.3124 12.6699 21.1225 12.7957 20.9592Z" fill="#28B3E7"/>
<path opacity="0.997" fill-rule="evenodd" clip-rule="evenodd" d="M12.58 21.5291C13.3871 21.5765 14.1944 21.624 15.002 21.6715C15.2761 21.6715 15.5374 21.6477 15.7856 21.6003C16.3602 21.776 16.9301 21.9659 17.4952 22.1702C17.5031 22.2141 17.5268 22.2497 17.5664 22.277C15.8416 22.2238 14.132 22.0932 12.4375 21.8852C12.4586 21.7497 12.5061 21.6309 12.58 21.5291Z" fill="#1EC8E7"/>
<path opacity="0.997" fill-rule="evenodd" clip-rule="evenodd" d="M12.4373 21.8852C14.1318 22.0931 15.8414 22.2238 17.5662 22.277C17.5266 22.2497 17.5029 22.2141 17.495 22.1702C18.2186 22.4034 18.9309 22.6646 19.632 22.9537C19.6795 22.9537 19.7033 22.9774 19.7033 23.0249C19.1765 23.0697 18.6541 23.1409 18.1361 23.2386C16.1449 23.0489 14.1503 22.8828 12.1523 22.74C12.1781 22.4255 12.273 22.1406 12.4373 21.8852Z" fill="#16DBE7"/>
<path opacity="0.991" fill-rule="evenodd" clip-rule="evenodd" d="M11.0859 28.5098C16.6726 28.7452 22.2527 29.0301 27.8262 29.3646C27.7901 29.6198 27.7188 29.8573 27.6125 30.0769C27.5093 29.9584 27.3668 29.899 27.1851 29.8988C22.4669 29.6435 17.7654 29.418 13.0805 29.2221C12.3941 29.0252 11.7293 28.7877 11.0859 28.5098Z" fill="#14DDE7"/>
<path opacity="0.99" fill-rule="evenodd" clip-rule="evenodd" d="M13.0781 29.2221C17.763 29.418 22.4645 29.6435 27.1827 29.8988C27.3644 29.899 27.5069 29.9584 27.6101 30.0769C27.5954 30.2721 27.5241 30.4383 27.3964 30.5755C23.538 30.3457 19.6676 30.132 15.7851 29.9344C15.6286 29.9348 15.4862 29.9585 15.3577 30.0057C14.5877 29.7727 13.8278 29.5116 13.0781 29.2221Z" fill="#18D5E7"/>
<path opacity="0.995" fill-rule="evenodd" clip-rule="evenodd" d="M27.3981 30.5755C27.3803 30.7304 27.3091 30.8491 27.1844 30.9317C26.7866 30.8038 26.3592 30.7444 25.9022 30.7536C22.91 30.604 19.9181 30.4497 16.9265 30.2906C16.7232 30.2908 16.5332 30.3145 16.3567 30.3618C16.0081 30.2695 15.6757 30.1508 15.3594 30.0057C15.4879 29.9585 15.6304 29.9348 15.7868 29.9344C19.6693 30.132 23.5397 30.3457 27.3981 30.5755Z" fill="#1DCBE7"/>
<path opacity="0.999" fill-rule="evenodd" clip-rule="evenodd" d="M27.1832 30.9317C27.1156 31.0939 27.0207 31.2363 26.8983 31.3591C26.9044 31.2881 26.8806 31.2288 26.827 31.181C23.8821 31.0361 20.9377 30.8818 17.9939 30.718C17.8374 30.7183 17.695 30.7421 17.5665 30.7892C17.1467 30.6732 16.7431 30.5307 16.3555 30.3618C16.532 30.3145 16.722 30.2908 16.9254 30.2906C19.9169 30.4496 22.9088 30.604 25.901 30.7536C26.358 30.7444 26.7854 30.8038 27.1832 30.9317Z" fill="#21C2E7"/>
<path fill-rule="evenodd" clip-rule="evenodd" d="M17.5664 30.7892C17.6949 30.742 17.8374 30.7183 17.9938 30.718C20.9376 30.8818 23.882 31.0361 26.827 31.181C26.8805 31.2288 26.9043 31.2881 26.8982 31.3591C26.8507 31.454 26.7795 31.5252 26.6845 31.5728C26.5559 31.4519 26.3897 31.3925 26.1859 31.3947C23.7276 31.2747 21.27 31.1442 18.813 31.0029C18.6682 31.0033 18.5376 31.027 18.4212 31.0741C18.121 31.0216 17.836 30.9265 17.5664 30.7892Z" fill="#26B7E7"/>
<path opacity="0.999" fill-rule="evenodd" clip-rule="evenodd" d="M26.6852 31.5728C26.5616 31.7651 26.3954 31.9075 26.1865 32.0001C26.1322 31.9454 26.0609 31.9098 25.9728 31.8933C24.0964 31.7926 22.2205 31.6858 20.3452 31.5728C20.2352 31.5735 20.1402 31.5973 20.0603 31.644C19.499 31.4807 18.9529 31.2907 18.4219 31.0741C18.5383 31.027 18.6688 31.0033 18.8137 31.0029C21.2706 31.1442 23.7283 31.2747 26.1865 31.3947C26.3903 31.3925 26.5566 31.4519 26.6852 31.5728Z" fill="#2DA7E7"/>
<path fill-rule="evenodd" clip-rule="evenodd" d="M26.1887 32.0001C26.0891 32.0992 25.9703 32.1704 25.8325 32.2138C24.4939 32.0695 23.1404 31.9745 21.7721 31.9289C21.5215 31.9291 21.2841 31.9528 21.0598 32.0001C20.712 31.9081 20.3796 31.7894 20.0625 31.644C20.1424 31.5973 20.2374 31.5735 20.3474 31.5728C22.2227 31.6858 24.0986 31.7926 25.975 31.8933C26.0631 31.9098 26.1344 31.9454 26.1887 32.0001Z" fill="#3495E7"/>
<path fill-rule="evenodd" clip-rule="evenodd" d="M25.8313 32.2138C25.7116 32.3213 25.5691 32.3925 25.4039 32.4275C25.3742 32.3761 25.3267 32.3405 25.2615 32.3207C24.2043 32.2696 23.1476 32.2103 22.0915 32.1426C21.9467 32.143 21.8161 32.1668 21.6997 32.2138C21.4657 32.1833 21.252 32.1121 21.0586 32.0001C21.2829 31.9528 21.5203 31.9291 21.7709 31.9289C23.1392 31.9745 24.4927 32.0694 25.8313 32.2138Z" fill="#3989E8"/>
<path fill-rule="evenodd" clip-rule="evenodd" d="M25.4034 32.4275C24.6332 32.7838 23.8259 32.8669 22.9815 32.6768C22.5389 32.5414 22.1115 32.3871 21.6992 32.2138C21.8156 32.1668 21.9462 32.143 22.091 32.1426C23.1471 32.2103 24.2038 32.2696 25.261 32.3207C25.3262 32.3405 25.3737 32.3761 25.4034 32.4275Z" fill="#4278E8"/>
</svg>
