<?xml version="1.0" encoding="UTF-8"?>
<!DOCTYPE svg PUBLIC "-//W3C//DTD SVG 1.1//EN" "http://www.w3.org/Graphics/SVG/1.1/DTD/svg11.dtd">
<svg xmlns="http://www.w3.org/2000/svg" version="1.1" width="432px" height="499px" style="shape-rendering:geometricPrecision; text-rendering:geometricPrecision; image-rendering:optimizeQuality; fill-rule:evenodd; clip-rule:evenodd" xmlns:xlink="http://www.w3.org/1999/xlink">
<g><path style="opacity:1" fill="#4769e9" d="M 286.5,55.5 C 288.607,54.5318 290.941,54.1984 293.5,54.5C 293.833,54.5 294.167,54.5 294.5,54.5C 294.833,146.668 294.499,238.668 293.5,330.5C 292.209,330.737 291.209,330.404 290.5,329.5C 291.167,284.001 291.5,238.335 291.5,192.5C 291.5,146.495 290.833,100.828 289.5,55.5C 288.5,55.5 287.5,55.5 286.5,55.5 Z"/></g>
<g><path style="opacity:1" fill="#4373e8" d="M 294.5,54.5 C 296.498,146.494 297.164,238.827 296.5,331.5C 295.209,331.737 294.209,331.404 293.5,330.5C 294.499,238.668 294.833,146.668 294.5,54.5 Z"/></g>
<g><path style="opacity:1" fill="#3e7de8" d="M 293.5,54.5 C 295.389,53.2584 297.389,53.2584 299.5,54.5C 299.5,147.167 299.5,239.833 299.5,332.5C 298.209,332.737 297.209,332.404 296.5,331.5C 297.164,238.827 296.498,146.494 294.5,54.5C 294.167,54.5 293.833,54.5 293.5,54.5 Z"/></g>
<g><path style="opacity:1" fill="#3b85e8" d="M 299.5,54.5 C 299.833,54.5 300.167,54.5 300.5,54.5C 301.497,147.429 301.831,240.429 301.5,333.5C 300.508,333.672 299.842,333.338 299.5,332.5C 299.5,239.833 299.5,147.167 299.5,54.5 Z"/></g>
<g><path style="opacity:1" fill="#5056e9" d="M 283.5,56.5 C 284.209,55.596 285.209,55.2627 286.5,55.5C 287.5,55.5 288.5,55.5 289.5,55.5C 289.833,146.668 289.499,237.668 288.5,328.5C 287.209,328.737 286.209,328.404 285.5,327.5C 286.499,237.335 286.833,147.002 286.5,56.5C 285.5,56.5 284.5,56.5 283.5,56.5 Z"/></g>
<g><path style="opacity:1" fill="#4b60e9" d="M 289.5,55.5 C 290.833,100.828 291.5,146.495 291.5,192.5C 291.5,238.335 291.167,284.001 290.5,329.5C 289.508,329.672 288.842,329.338 288.5,328.5C 289.499,237.668 289.833,146.668 289.5,55.5 Z"/></g>
<g><path style="opacity:1" fill="#3691e8" d="M 300.5,54.5 C 302.292,54.366 303.958,54.6993 305.5,55.5C 305.833,148.668 305.499,241.668 304.5,334.5C 303.391,334.443 302.391,334.11 301.5,333.5C 301.831,240.429 301.497,147.429 300.5,54.5 Z"/></g>
<g><path style="opacity:1" fill="#5549e9" d="M 281.5,57.5 C 281.842,56.6618 282.508,56.3284 283.5,56.5C 284.5,56.5 285.5,56.5 286.5,56.5C 286.833,147.002 286.499,237.335 285.5,327.5C 284.209,327.737 283.209,327.404 282.5,326.5C 283.167,281.835 283.5,237.001 283.5,192C 283.5,146.828 282.833,101.995 281.5,57.5 Z"/></g>
<g><path style="opacity:1" fill="#319de8" d="M 305.5,55.5 C 306.791,55.2627 307.791,55.596 308.5,56.5C 309.164,103.096 309.498,149.763 309.5,196.5C 309.5,243.172 308.833,289.505 307.5,335.5C 306.209,335.737 305.209,335.404 304.5,334.5C 305.499,241.668 305.833,148.668 305.5,55.5 Z"/></g>
<g><path style="opacity:1" fill="#5b3dea" d="M 279.5,58.5 C 279.842,57.6618 280.508,57.3284 281.5,57.5C 282.833,101.995 283.5,146.828 283.5,192C 283.5,237.001 283.167,281.835 282.5,326.5C 281.209,326.737 280.209,326.404 279.5,325.5C 280.833,236.5 280.833,147.5 279.5,58.5 Z"/></g>
<g><path style="opacity:1" fill="#6030ea" d="M 279.5,58.5 C 280.833,147.5 280.833,236.5 279.5,325.5C 278.209,325.737 277.209,325.404 276.5,324.5C 277.666,236.668 277.832,148.668 277,60.5C 276.329,61.2524 275.496,61.5858 274.5,61.5C 275.659,59.7497 277.326,58.7497 279.5,58.5 Z"/></g>
<g><path style="opacity:1" fill="#2ba9e7" d="M 308.5,56.5 C 310.284,56.8925 311.95,57.5592 313.5,58.5C 313.5,151.5 313.5,244.5 313.5,337.5C 311.214,337.405 309.214,336.738 307.5,335.5C 308.833,289.505 309.5,243.172 309.5,196.5C 309.498,149.763 309.164,103.096 308.5,56.5 Z"/></g>
<g><path style="opacity:1" fill="#6526ea" d="M 276.5,324.5 C 273.833,323.833 271.167,323.167 268.5,322.5C 268.5,321.833 268.167,321.5 267.5,321.5C 265.319,244.83 262.986,168.163 260.5,91.5C 260.019,78.8773 264.686,68.8773 274.5,61.5C 275.496,61.5858 276.329,61.2524 277,60.5C 277.832,148.668 277.666,236.668 276.5,324.5 Z"/></g>
<g><path style="opacity:1" fill="#27b4e7" d="M 313.5,58.5 C 314.5,59.1667 315.5,59.8333 316.5,60.5C 317.829,153.294 317.829,245.961 316.5,338.5C 315.209,338.737 314.209,338.404 313.5,337.5C 313.5,244.5 313.5,151.5 313.5,58.5 Z"/></g>
<g><path style="opacity:1" fill="#22bee7" d="M 316.5,60.5 C 319.55,62.5491 321.883,65.2157 323.5,68.5C 324.164,159.506 323.498,250.173 321.5,340.5C 319.597,340.204 317.93,339.537 316.5,338.5C 317.829,245.961 317.829,153.294 316.5,60.5 Z"/></g>
<g><path style="opacity:0.999" fill="#1dcae7" d="M 323.5,68.5 C 326.488,71.4809 328.154,75.1476 328.5,79.5C 328.833,167.335 328.499,255.002 327.5,342.5C 325.214,342.405 323.214,341.738 321.5,340.5C 323.498,250.173 324.164,159.506 323.5,68.5 Z"/></g>
<g><path style="opacity:0.996" fill="#1ad2e7" d="M 328.5,79.5 C 330.569,86.9085 331.902,94.5752 332.5,102.5C 332.5,183.167 332.5,263.833 332.5,344.5C 330.597,344.204 328.93,343.537 327.5,342.5C 328.499,255.002 328.833,167.335 328.5,79.5 Z"/></g>
<g><path style="opacity:0.985" fill="#476be8" d="M 205.5,99.5 C 219.091,111.633 233.091,123.299 247.5,134.5C 248.341,136.379 248.675,138.379 248.5,140.5C 232.161,127.16 215.828,113.827 199.5,100.5C 201.5,100.167 203.5,99.8333 205.5,99.5 Z"/></g>
<g><path style="opacity:0.987" fill="#3d84e7" d="M 194.5,101.5 C 212.185,116.515 230.185,131.182 248.5,145.5C 248.634,147.292 248.301,148.958 247.5,150.5C 227.791,135.31 208.458,119.644 189.5,103.5C 190.93,102.463 192.597,101.796 194.5,101.5 Z"/></g>
<g><path style="opacity:0.986" fill="#3595e7" d="M 189.5,103.5 C 208.458,119.644 227.791,135.31 247.5,150.5C 247.44,153.341 246.774,156.007 245.5,158.5C 224.276,141.395 203.276,124.062 182.5,106.5C 184.713,105.227 187.046,104.227 189.5,103.5 Z"/></g>
<g><path style="opacity:0.989" fill="#17d7e7" d="M 332.5,102.5 C 334.57,109.913 335.903,117.579 336.5,125.5C 336.833,199.002 336.499,272.335 335.5,345.5C 334.391,345.443 333.391,345.11 332.5,344.5C 332.5,263.833 332.5,183.167 332.5,102.5 Z"/></g>
<g><path style="opacity:0.992" fill="#30a3e6" d="M 182.5,106.5 C 203.276,124.062 224.276,141.395 245.5,158.5C 244.833,159.833 244.167,161.167 243.5,162.5C 221.538,145.205 199.871,127.538 178.5,109.5C 179.833,108.5 181.167,107.5 182.5,106.5 Z"/></g>
<g><path style="opacity:1" fill="#5056e9" d="M 205.5,99.5 C 228.033,101.04 242.033,112.707 247.5,134.5C 233.091,123.299 219.091,111.633 205.5,99.5 Z"/></g>
<g><path style="opacity:0.986" fill="#2ab0e6" d="M 178.5,109.5 C 199.871,127.538 221.538,145.205 243.5,162.5C 242.737,164.368 241.737,166.035 240.5,167.5C 218.185,149.848 196.185,131.848 174.5,113.5C 175.5,111.833 176.833,110.5 178.5,109.5 Z"/></g>
<g><path style="opacity:1" fill="#4375e8" d="M 199.5,100.5 C 215.828,113.827 232.161,127.16 248.5,140.5C 248.5,142.167 248.5,143.833 248.5,145.5C 230.185,131.182 212.185,116.515 194.5,101.5C 196.042,100.699 197.708,100.366 199.5,100.5 Z"/></g>
<g><path style="opacity:0.993" fill="#25bce5" d="M 174.5,113.5 C 196.185,131.848 218.185,149.848 240.5,167.5C 239.5,169.167 238.167,170.5 236.5,171.5C 214.809,153.47 193.142,135.47 171.5,117.5C 172.026,115.77 173.026,114.436 174.5,113.5 Z"/></g>
<g><path style="opacity:0.989" fill="#20c9e5" d="M 171.5,117.5 C 193.142,135.47 214.809,153.47 236.5,171.5C 235.215,173.452 233.549,175.118 231.5,176.5C 210.575,158.367 189.242,140.7 167.5,123.5C 168.475,121.205 169.808,119.205 171.5,117.5 Z"/></g>
<g><path style="opacity:0.988" fill="#14dde7" d="M 336.5,125.5 C 339.795,141.268 342.461,157.268 344.5,173.5C 344.833,231.837 344.5,290.17 343.5,348.5C 340.616,347.791 337.949,346.791 335.5,345.5C 336.499,272.335 336.833,199.002 336.5,125.5 Z"/></g>
<g><path style="opacity:0.985" fill="#1bd5e4" d="M 167.5,123.5 C 189.242,140.7 210.575,158.367 231.5,176.5C 229.795,178.192 227.795,179.525 225.5,180.5C 205.758,163.127 185.424,146.46 164.5,130.5C 165.305,128.085 166.305,125.751 167.5,123.5 Z"/></g>
<g><path style="opacity:0.965" fill="#15e2e4" d="M 164.5,130.5 C 185.424,146.46 205.758,163.127 225.5,180.5C 203.449,189.696 184.949,185.029 170,166.5C 163.648,155.223 161.815,143.223 164.5,130.5 Z"/></g>
<g><path style="opacity:0.991" fill="#12e2e7" d="M 344.5,173.5 C 357.694,249.997 370.694,326.663 383.5,403.5C 382.731,406.115 382.397,408.781 382.5,411.5C 304.259,406.805 225.926,402.805 147.5,399.5C 124.349,392.172 101.349,384.338 78.5,376C 49.4401,362.719 37.6068,340.219 43,308.5C 44.801,299.899 48.4676,292.233 54,285.5C 77.3717,259.797 100.372,233.797 123,207.5C 138.156,188.137 156.656,183.97 178.5,195C 192.892,206.176 197.726,220.676 193,238.5C 186.532,254.74 180.365,271.074 174.5,287.5C 172.461,288.911 171.461,290.911 171.5,293.5C 169.733,295.792 168.733,298.458 168.5,301.5C 167.463,302.93 166.796,304.597 166.5,306.5C 164.194,310.085 162.861,314.085 162.5,318.5C 190.548,320.504 218.548,322.837 246.5,325.5C 253.772,324.128 261.105,323.128 268.5,322.5C 271.167,323.167 273.833,323.833 276.5,324.5C 277.209,325.404 278.209,325.737 279.5,325.5C 280.209,326.404 281.209,326.737 282.5,326.5C 283.209,327.404 284.209,327.737 285.5,327.5C 286.209,328.404 287.209,328.737 288.5,328.5C 288.842,329.338 289.508,329.672 290.5,329.5C 291.209,330.404 292.209,330.737 293.5,330.5C 294.209,331.404 295.209,331.737 296.5,331.5C 297.209,332.404 298.209,332.737 299.5,332.5C 299.842,333.338 300.508,333.672 301.5,333.5C 302.391,334.11 303.391,334.443 304.5,334.5C 305.209,335.404 306.209,335.737 307.5,335.5C 309.214,336.738 311.214,337.405 313.5,337.5C 314.209,338.404 315.209,338.737 316.5,338.5C 317.93,339.537 319.597,340.204 321.5,340.5C 323.214,341.738 325.214,342.405 327.5,342.5C 328.93,343.537 330.597,344.204 332.5,344.5C 333.391,345.11 334.391,345.443 335.5,345.5C 337.949,346.791 340.616,347.791 343.5,348.5C 344.5,290.17 344.833,231.837 344.5,173.5 Z"/></g>
<g><path style="opacity:0.999" fill="#339be7" d="M 174.5,287.5 C 182.088,290.696 189.754,293.696 197.5,296.5C 196.207,297.158 194.707,297.492 193,297.5C 187.176,296.898 181.342,296.398 175.5,296C 173.563,295.878 172.23,295.045 171.5,293.5C 171.461,290.911 172.461,288.911 174.5,287.5 Z"/></g>
<g><path style="opacity:1" fill="#28b3e7" d="M 171.5,293.5 C 172.23,295.045 173.563,295.878 175.5,296C 181.342,296.398 187.176,296.898 193,297.5C 194.707,297.492 196.207,297.158 197.5,296.5C 203.141,297.932 208.475,299.932 213.5,302.5C 210.016,303.165 206.349,303.499 202.5,303.5C 191.163,302.833 179.83,302.166 168.5,301.5C 168.733,298.458 169.733,295.792 171.5,293.5 Z"/></g>
<g><path style="opacity:0.997" fill="#1ec8e7" d="M 168.5,301.5 C 179.83,302.166 191.163,302.833 202.5,303.5C 206.349,303.499 210.016,303.165 213.5,302.5C 221.567,304.967 229.567,307.633 237.5,310.5C 237.611,311.117 237.944,311.617 238.5,312C 214.287,311.253 190.287,309.419 166.5,306.5C 166.796,304.597 167.463,302.93 168.5,301.5 Z"/></g>
<g><path style="opacity:0.997" fill="#16dbe7" d="M 166.5,306.5 C 190.287,309.419 214.287,311.253 238.5,312C 237.944,311.617 237.611,311.117 237.5,310.5C 247.658,313.775 257.658,317.441 267.5,321.5C 268.167,321.5 268.5,321.833 268.5,322.5C 261.105,323.128 253.772,324.128 246.5,325.5C 218.548,322.837 190.548,320.504 162.5,318.5C 162.861,314.085 164.194,310.085 166.5,306.5 Z"/></g>
<g><path style="opacity:0.991" fill="#14dde7" d="M 147.5,399.5 C 225.926,402.805 304.259,406.805 382.5,411.5C 381.993,415.083 380.993,418.417 379.5,421.5C 378.051,419.836 376.051,419.002 373.5,419C 307.266,415.416 241.266,412.25 175.5,409.5C 165.864,406.735 156.531,403.401 147.5,399.5 Z"/></g>
<g><path style="opacity:0.99" fill="#18d5e7" d="M 175.5,409.5 C 241.266,412.25 307.266,415.416 373.5,419C 376.051,419.002 378.051,419.836 379.5,421.5C 379.293,424.241 378.293,426.574 376.5,428.5C 322.336,425.274 268.003,422.274 213.5,419.5C 211.304,419.505 209.304,419.838 207.5,420.5C 196.691,417.23 186.024,413.564 175.5,409.5 Z"/></g>
<g><path style="opacity:0.995" fill="#1dcbe7" d="M 376.5,428.5 C 376.25,430.674 375.25,432.341 373.5,433.5C 367.916,431.705 361.916,430.871 355.5,431C 313.496,428.9 271.496,426.733 229.5,424.5C 226.645,424.503 223.978,424.836 221.5,425.5C 216.607,424.204 211.94,422.538 207.5,420.5C 209.304,419.838 211.304,419.505 213.5,419.5C 268.003,422.274 322.336,425.274 376.5,428.5 Z"/></g>
<g><path style="opacity:0.999" fill="#21c2e7" d="M 373.5,433.5 C 372.551,435.777 371.218,437.777 369.5,439.5C 369.586,438.504 369.252,437.671 368.5,437C 327.159,434.966 285.825,432.8 244.5,430.5C 242.304,430.505 240.304,430.838 238.5,431.5C 232.608,429.871 226.941,427.871 221.5,425.5C 223.978,424.836 226.645,424.503 229.5,424.5C 271.496,426.733 313.496,428.9 355.5,431C 361.916,430.871 367.916,431.705 373.5,433.5 Z"/></g>
<g><path style="opacity:1" fill="#26b7e7" d="M 238.5,431.5 C 240.304,430.838 242.304,430.505 244.5,430.5C 285.825,432.8 327.159,434.966 368.5,437C 369.252,437.671 369.586,438.504 369.5,439.5C 368.833,440.833 367.833,441.833 366.5,442.5C 364.695,440.803 362.361,439.97 359.5,440C 324.991,438.316 290.491,436.483 256,434.5C 253.967,434.506 252.134,434.839 250.5,435.5C 246.285,434.762 242.285,433.428 238.5,431.5 Z"/></g>
<g><path style="opacity:0.999" fill="#2da7e7" d="M 366.5,442.5 C 364.766,445.2 362.432,447.2 359.5,448.5C 358.737,447.732 357.737,447.232 356.5,447C 330.159,445.587 303.825,444.087 277.5,442.5C 275.955,442.511 274.622,442.844 273.5,443.5C 265.62,441.208 257.954,438.541 250.5,435.5C 252.134,434.839 253.967,434.506 256,434.5C 290.491,436.483 324.991,438.316 359.5,440C 362.361,439.97 364.695,440.803 366.5,442.5 Z"/></g>
<g><path style="opacity:1" fill="#3495e7" d="M 359.5,448.5 C 358.101,449.89 356.434,450.89 354.5,451.5C 335.708,449.473 316.708,448.14 297.5,447.5C 293.982,447.502 290.649,447.835 287.5,448.5C 282.618,447.208 277.952,445.541 273.5,443.5C 274.622,442.844 275.955,442.511 277.5,442.5C 303.825,444.087 330.159,445.587 356.5,447C 357.737,447.232 358.737,447.732 359.5,448.5 Z"/></g>
<g><path style="opacity:1" fill="#3989e8" d="M 354.5,451.5 C 352.819,453.008 350.819,454.008 348.5,454.5C 348.082,453.778 347.416,453.278 346.5,453C 331.659,452.283 316.826,451.45 302,450.5C 299.967,450.506 298.134,450.839 296.5,451.5C 293.215,451.072 290.215,450.072 287.5,448.5C 290.649,447.835 293.982,447.502 297.5,447.5C 316.708,448.14 335.708,449.473 354.5,451.5 Z"/></g>
<g><path style="opacity:1" fill="#4278e8" d="M 348.5,454.5 C 337.687,459.502 326.354,460.668 314.5,458C 308.287,456.099 302.287,453.932 296.5,451.5C 298.134,450.839 299.967,450.506 302,450.5C 316.826,451.45 331.659,452.283 346.5,453C 347.416,453.278 348.082,453.778 348.5,454.5 Z"/></g>
</svg>
