<svg width="132" height="57" viewBox="0 0 132 57" fill="none" xmlns="http://www.w3.org/2000/svg">
<path d="M11.064 48.918C11.6333 49.0767 12.0813 49.366 12.408 49.786C12.7347 50.1967 12.898 50.7193 12.898 51.354C12.898 52.2033 12.576 52.8567 11.932 53.314C11.2973 53.7713 10.3687 54 9.146 54H4.47V44.2H8.866C9.986 44.2 10.8493 44.424 11.456 44.872C12.072 45.32 12.38 45.9407 12.38 46.734C12.38 47.2473 12.2587 47.6907 12.016 48.064C11.7827 48.4373 11.4653 48.722 11.064 48.918ZM5.87 45.334V48.47H8.74C9.45867 48.47 10.0093 48.3393 10.392 48.078C10.784 47.8073 10.98 47.4153 10.98 46.902C10.98 46.3887 10.784 46.0013 10.392 45.74C10.0093 45.4693 9.45867 45.334 8.74 45.334H5.87ZM9.09 52.866C9.88333 52.866 10.4807 52.7353 10.882 52.474C11.2833 52.2127 11.484 51.802 11.484 51.242C11.484 50.15 10.686 49.604 9.09 49.604H5.87V52.866H9.09ZM21.7857 46.58V54H20.5117V52.88C20.241 53.2627 19.8817 53.5613 19.4337 53.776C18.995 53.9813 18.5144 54.084 17.9917 54.084C17.0024 54.084 16.223 53.8133 15.6537 53.272C15.0844 52.7213 14.7997 51.914 14.7997 50.85V46.58H16.1437V50.696C16.1437 51.4147 16.3164 51.9607 16.6617 52.334C17.007 52.698 17.5017 52.88 18.1457 52.88C18.855 52.88 19.415 52.6653 19.8257 52.236C20.2364 51.8067 20.4417 51.2 20.4417 50.416V46.58H21.7857ZM26.4723 54.084C25.8656 54.084 25.2823 54.0047 24.7223 53.846C24.1623 53.678 23.7236 53.468 23.4063 53.216L23.9663 52.152C24.293 52.3853 24.6896 52.572 25.1563 52.712C25.623 52.852 26.0943 52.922 26.5703 52.922C27.7463 52.922 28.3343 52.586 28.3343 51.914C28.3343 51.69 28.255 51.5127 28.0963 51.382C27.9376 51.2513 27.737 51.158 27.4943 51.102C27.261 51.0367 26.925 50.9667 26.4863 50.892C25.889 50.7987 25.399 50.6913 25.0163 50.57C24.643 50.4487 24.321 50.2433 24.0503 49.954C23.7796 49.6647 23.6443 49.2587 23.6443 48.736C23.6443 48.064 23.9243 47.5273 24.4843 47.126C25.0443 46.7153 25.7956 46.51 26.7383 46.51C27.233 46.51 27.7276 46.5707 28.2223 46.692C28.717 46.8133 29.123 46.9767 29.4403 47.182L28.8663 48.246C28.2596 47.854 27.5456 47.658 26.7243 47.658C26.155 47.658 25.721 47.7513 25.4223 47.938C25.1236 48.1247 24.9743 48.372 24.9743 48.68C24.9743 48.9227 25.0583 49.114 25.2263 49.254C25.3943 49.394 25.5996 49.4967 25.8423 49.562C26.0943 49.6273 26.4443 49.702 26.8923 49.786C27.4896 49.8887 27.9703 50.0007 28.3343 50.122C28.7076 50.234 29.025 50.43 29.2863 50.71C29.5476 50.99 29.6783 51.382 29.6783 51.886C29.6783 52.558 29.389 53.0947 28.8103 53.496C28.241 53.888 27.4616 54.084 26.4723 54.084ZM31.358 46.58H32.702V54H31.358V46.58ZM32.03 45.152C31.7687 45.152 31.5493 45.068 31.372 44.9C31.204 44.732 31.12 44.5267 31.12 44.284C31.12 44.0413 31.204 43.836 31.372 43.668C31.5493 43.4907 31.7687 43.402 32.03 43.402C32.2913 43.402 32.506 43.486 32.674 43.654C32.8513 43.8127 32.94 44.0133 32.94 44.256C32.94 44.508 32.8513 44.7227 32.674 44.9C32.506 45.068 32.2913 45.152 32.03 45.152ZM39.2301 46.51C40.1728 46.51 40.9195 46.7853 41.4701 47.336C42.0301 47.8773 42.3101 48.6753 42.3101 49.73V54H40.9661V49.884C40.9661 49.1653 40.7935 48.624 40.4481 48.26C40.1028 47.896 39.6081 47.714 38.9641 47.714C38.2361 47.714 37.6621 47.9287 37.2421 48.358C36.8221 48.778 36.6121 49.3847 36.6121 50.178V54H35.2681V46.58H36.5561V47.7C36.8268 47.3173 37.1908 47.0233 37.6481 46.818C38.1148 46.6127 38.6421 46.51 39.2301 46.51ZM51.5445 50.332C51.5445 50.4347 51.5351 50.57 51.5165 50.738H45.4965C45.5805 51.3913 45.8651 51.9187 46.3505 52.32C46.8451 52.712 47.4565 52.908 48.1845 52.908C49.0711 52.908 49.7851 52.6093 50.3265 52.012L51.0685 52.88C50.7325 53.272 50.3125 53.5707 49.8085 53.776C49.3138 53.9813 48.7585 54.084 48.1425 54.084C47.3585 54.084 46.6631 53.9253 46.0565 53.608C45.4498 53.2813 44.9785 52.8287 44.6425 52.25C44.3158 51.6713 44.1525 51.018 44.1525 50.29C44.1525 49.5713 44.3111 48.9227 44.6285 48.344C44.9551 47.7653 45.3985 47.3173 45.9585 47C46.5278 46.6733 47.1671 46.51 47.8765 46.51C48.5858 46.51 49.2158 46.6733 49.7665 47C50.3265 47.3173 50.7605 47.7653 51.0685 48.344C51.3858 48.9227 51.5445 49.5853 51.5445 50.332ZM47.8765 47.644C47.2325 47.644 46.6911 47.84 46.2525 48.232C45.8231 48.624 45.5711 49.1373 45.4965 49.772H50.2565C50.1818 49.1467 49.9251 48.638 49.4865 48.246C49.0571 47.8447 48.5205 47.644 47.8765 47.644ZM55.5387 54.084C54.9321 54.084 54.3487 54.0047 53.7887 53.846C53.2287 53.678 52.7901 53.468 52.4727 53.216L53.0327 52.152C53.3594 52.3853 53.7561 52.572 54.2227 52.712C54.6894 52.852 55.1607 52.922 55.6367 52.922C56.8127 52.922 57.4007 52.586 57.4007 51.914C57.4007 51.69 57.3214 51.5127 57.1627 51.382C57.0041 51.2513 56.8034 51.158 56.5607 51.102C56.3274 51.0367 55.9914 50.9667 55.5527 50.892C54.9554 50.7987 54.4654 50.6913 54.0827 50.57C53.7094 50.4487 53.3874 50.2433 53.1167 49.954C52.8461 49.6647 52.7107 49.2587 52.7107 48.736C52.7107 48.064 52.9907 47.5273 53.5507 47.126C54.1107 46.7153 54.8621 46.51 55.8047 46.51C56.2994 46.51 56.7941 46.5707 57.2887 46.692C57.7834 46.8133 58.1894 46.9767 58.5067 47.182L57.9327 48.246C57.3261 47.854 56.6121 47.658 55.7907 47.658C55.2214 47.658 54.7874 47.7513 54.4887 47.938C54.1901 48.1247 54.0407 48.372 54.0407 48.68C54.0407 48.9227 54.1247 49.114 54.2927 49.254C54.4607 49.394 54.6661 49.4967 54.9087 49.562C55.1607 49.6273 55.5107 49.702 55.9587 49.786C56.5561 49.8887 57.0367 50.0007 57.4007 50.122C57.7741 50.234 58.0914 50.43 58.3527 50.71C58.6141 50.99 58.7447 51.382 58.7447 51.886C58.7447 52.558 58.4554 53.0947 57.8767 53.496C57.3074 53.888 56.5281 54.084 55.5387 54.084ZM62.5524 54.084C61.9457 54.084 61.3624 54.0047 60.8024 53.846C60.2424 53.678 59.8037 53.468 59.4864 53.216L60.0464 52.152C60.3731 52.3853 60.7697 52.572 61.2364 52.712C61.7031 52.852 62.1744 52.922 62.6504 52.922C63.8264 52.922 64.4144 52.586 64.4144 51.914C64.4144 51.69 64.3351 51.5127 64.1764 51.382C64.0177 51.2513 63.8171 51.158 63.5744 51.102C63.3411 51.0367 63.0051 50.9667 62.5664 50.892C61.9691 50.7987 61.4791 50.6913 61.0964 50.57C60.7231 50.4487 60.4011 50.2433 60.1304 49.954C59.8597 49.6647 59.7244 49.2587 59.7244 48.736C59.7244 48.064 60.0044 47.5273 60.5644 47.126C61.1244 46.7153 61.8757 46.51 62.8184 46.51C63.3131 46.51 63.8077 46.5707 64.3024 46.692C64.7971 46.8133 65.2031 46.9767 65.5204 47.182L64.9464 48.246C64.3397 47.854 63.6257 47.658 62.8044 47.658C62.2351 47.658 61.8011 47.7513 61.5024 47.938C61.2037 48.1247 61.0544 48.372 61.0544 48.68C61.0544 48.9227 61.1384 49.114 61.3064 49.254C61.4744 49.394 61.6797 49.4967 61.9224 49.562C62.1744 49.6273 62.5244 49.702 62.9724 49.786C63.5697 49.8887 64.0504 50.0007 64.4144 50.122C64.7877 50.234 65.1051 50.43 65.3664 50.71C65.6277 50.99 65.7584 51.382 65.7584 51.886C65.7584 52.558 65.4691 53.0947 64.8904 53.496C64.3211 53.888 63.5417 54.084 62.5524 54.084ZM75.1318 46.51C75.8505 46.51 76.4945 46.6687 77.0638 46.986C77.6332 47.3033 78.0765 47.7467 78.3938 48.316C78.7205 48.8853 78.8838 49.5433 78.8838 50.29C78.8838 51.0367 78.7205 51.6993 78.3938 52.278C78.0765 52.8473 77.6332 53.2907 77.0638 53.608C76.4945 53.9253 75.8505 54.084 75.1318 54.084C74.5998 54.084 74.1098 53.9813 73.6618 53.776C73.2232 53.5707 72.8498 53.272 72.5418 52.88V56.716H71.1978V46.58H72.4858V47.756C72.7845 47.3453 73.1625 47.0373 73.6198 46.832C74.0772 46.6173 74.5812 46.51 75.1318 46.51ZM75.0198 52.908C75.4958 52.908 75.9205 52.8007 76.2938 52.586C76.6765 52.362 76.9752 52.054 77.1898 51.662C77.4138 51.2607 77.5258 50.8033 77.5258 50.29C77.5258 49.7767 77.4138 49.324 77.1898 48.932C76.9752 48.5307 76.6765 48.2227 76.2938 48.008C75.9205 47.7933 75.4958 47.686 75.0198 47.686C74.5532 47.686 74.1285 47.798 73.7458 48.022C73.3725 48.2367 73.0738 48.54 72.8498 48.932C72.6352 49.324 72.5278 49.7767 72.5278 50.29C72.5278 50.8033 72.6352 51.2607 72.8498 51.662C73.0645 52.054 73.3632 52.362 73.7458 52.586C74.1285 52.8007 74.5532 52.908 75.0198 52.908ZM80.7408 43.612H82.0848V54H80.7408V43.612ZM87.353 46.51C88.3796 46.51 89.1636 46.762 89.705 47.266C90.2556 47.77 90.531 48.5213 90.531 49.52V54H89.257V53.02C89.033 53.3653 88.711 53.6313 88.291 53.818C87.8803 53.9953 87.3903 54.084 86.821 54.084C85.9903 54.084 85.323 53.8833 84.819 53.482C84.3243 53.0807 84.077 52.5533 84.077 51.9C84.077 51.2467 84.315 50.724 84.791 50.332C85.267 49.9307 86.023 49.73 87.059 49.73H89.187V49.464C89.187 48.8853 89.019 48.442 88.683 48.134C88.347 47.826 87.8523 47.672 87.199 47.672C86.7603 47.672 86.331 47.7467 85.911 47.896C85.491 48.036 85.1363 48.2273 84.847 48.47L84.287 47.462C84.6696 47.154 85.127 46.9207 85.659 46.762C86.191 46.594 86.7556 46.51 87.353 46.51ZM87.045 53.048C87.5583 53.048 88.0016 52.936 88.375 52.712C88.7483 52.4787 89.019 52.152 89.187 51.732V50.696H87.115C85.9763 50.696 85.407 51.0787 85.407 51.844C85.407 52.2173 85.5516 52.5113 85.841 52.726C86.1303 52.9407 86.5316 53.048 87.045 53.048ZM97.1901 53.566C96.9941 53.734 96.7515 53.8647 96.4621 53.958C96.1728 54.042 95.8741 54.084 95.5661 54.084C94.8195 54.084 94.2408 53.8833 93.8301 53.482C93.4195 53.0807 93.2141 52.5067 93.2141 51.76V47.686H91.9541V46.58H93.2141V44.956H94.5581V46.58H96.6861V47.686H94.5581V51.704C94.5581 52.1053 94.6561 52.4133 94.8521 52.628C95.0575 52.8427 95.3468 52.95 95.7201 52.95C96.1308 52.95 96.4808 52.8333 96.7701 52.6L97.1901 53.566ZM101.531 44.634C100.728 44.634 100.327 45.068 100.327 45.936V46.58H102.483V47.686H100.355V54H99.011V47.686H97.751V46.58H99.011V45.922C99.011 45.1847 99.2257 44.6013 99.655 44.172C100.084 43.7427 100.686 43.528 101.461 43.528C101.76 43.528 102.04 43.5653 102.301 43.64C102.562 43.7147 102.786 43.822 102.973 43.962L102.567 44.984C102.259 44.7507 101.914 44.634 101.531 44.634ZM106.819 54.084C106.082 54.084 105.419 53.9207 104.831 53.594C104.243 53.2673 103.781 52.8193 103.445 52.25C103.119 51.6713 102.955 51.018 102.955 50.29C102.955 49.562 103.119 48.9133 103.445 48.344C103.781 47.7653 104.243 47.3173 104.831 47C105.419 46.6733 106.082 46.51 106.819 46.51C107.557 46.51 108.215 46.6733 108.793 47C109.381 47.3173 109.839 47.7653 110.165 48.344C110.501 48.9133 110.669 49.562 110.669 50.29C110.669 51.018 110.501 51.6713 110.165 52.25C109.839 52.8193 109.381 53.2673 108.793 53.594C108.215 53.9207 107.557 54.084 106.819 54.084ZM106.819 52.908C107.295 52.908 107.72 52.8007 108.093 52.586C108.476 52.362 108.775 52.054 108.989 51.662C109.204 51.2607 109.311 50.8033 109.311 50.29C109.311 49.7767 109.204 49.324 108.989 48.932C108.775 48.5307 108.476 48.2227 108.093 48.008C107.72 47.7933 107.295 47.686 106.819 47.686C106.343 47.686 105.914 47.7933 105.531 48.008C105.158 48.2227 104.859 48.5307 104.635 48.932C104.421 49.324 104.313 49.7767 104.313 50.29C104.313 50.8033 104.421 51.2607 104.635 51.662C104.859 52.054 105.158 52.362 105.531 52.586C105.914 52.8007 106.343 52.908 106.819 52.908ZM113.816 47.826C114.049 47.3967 114.395 47.07 114.852 46.846C115.309 46.622 115.865 46.51 116.518 46.51V47.812C116.443 47.8027 116.341 47.798 116.21 47.798C115.482 47.798 114.908 48.0173 114.488 48.456C114.077 48.8853 113.872 49.5013 113.872 50.304V54H112.528V46.58H113.816V47.826ZM127.456 46.51C128.39 46.51 129.127 46.7807 129.668 47.322C130.219 47.8633 130.494 48.666 130.494 49.73V54H129.15V49.884C129.15 49.1653 128.982 48.624 128.646 48.26C128.32 47.896 127.848 47.714 127.232 47.714C126.551 47.714 126.01 47.9287 125.608 48.358C125.207 48.778 125.006 49.3847 125.006 50.178V54H123.662V49.884C123.662 49.1653 123.494 48.624 123.158 48.26C122.832 47.896 122.36 47.714 121.744 47.714C121.063 47.714 120.522 47.9287 120.12 48.358C119.719 48.778 119.518 49.3847 119.518 50.178V54H118.174V46.58H119.462V47.686C119.733 47.3033 120.088 47.014 120.526 46.818C120.965 46.6127 121.464 46.51 122.024 46.51C122.603 46.51 123.116 46.6267 123.564 46.86C124.012 47.0933 124.358 47.434 124.6 47.882C124.88 47.4527 125.268 47.1167 125.762 46.874C126.266 46.6313 126.831 46.51 127.456 46.51Z" fill="white"/>
<path fill-rule="evenodd" clip-rule="evenodd" d="M8.0519 0.286417C7.06602 0.907971 7.08614 0.735111 7.08614 8.60207C7.08614 15.5546 7.07221 15.8705 6.73458 16.5936C6.33383 17.4522 5.35929 18.3267 4.33815 18.7442C3.95408 18.9012 3.10975 19.083 2.46201 19.1482C1.81409 19.2134 1.08809 19.3698 0.848503 19.4955C0.317549 19.7745 -0.0278211 20.4018 0.00176238 21.0341C0.0690132 22.4664 1.58018 22.912 4.40557 22.3329C6.24284 21.9563 7.31094 21.4634 8.73731 20.3334C10.1205 19.2378 11.06 17.8646 11.373 16.4805C11.4896 15.9653 11.5581 13.0166 11.5581 8.51536C11.5581 0.673355 11.5529 0.630899 10.5481 0.214461C9.79303 -0.0984529 8.60831 -0.0642673 8.0519 0.286417ZM89.5241 0.268773C88.3925 0.821679 88.4407 0.33039 88.4414 11.3297C88.4419 20.9713 88.4529 21.3104 88.7778 21.7373C89.6887 22.9348 92.0086 22.8323 92.669 21.5654C93.0266 20.8793 93.0316 1.73451 92.6744 1.04899C92.1892 0.118657 90.6243 -0.268971 89.5241 0.268773ZM98.3076 0.254988C97.1387 0.843735 97.2125 0.0954981 97.2125 11.3466V21.5304L97.7871 21.9909C98.1033 22.2443 98.5682 22.493 98.8203 22.5437C100.054 22.7918 101.272 22.1246 101.523 21.0642C101.711 20.2659 101.702 2.1202 101.513 1.44792C101.182 0.271805 99.5097 -0.350576 98.3076 0.254988ZM22.9307 4.61883C19.3571 5.13741 16.4337 7.32988 15.1371 10.4638C14.6279 11.6951 14.5907 11.9154 14.5907 13.7144C14.5907 15.5104 14.6284 15.7351 15.1328 16.9544C15.989 19.0235 17.3014 20.4881 19.2604 21.5608C23.5691 23.9204 29.3374 23.2671 32.2046 20.0947L32.6676 19.5826L32.7568 20.4738C32.8568 21.4723 33.1624 21.9413 33.9699 22.336C35.0762 22.8766 36.4276 22.542 37.006 21.5843C37.3464 21.0209 37.3576 20.7729 37.3566 13.8432C37.356 9.55336 37.2876 6.48776 37.1858 6.19387C37.0922 5.92424 36.778 5.52104 36.4875 5.29786C36.0367 4.95187 35.8234 4.89218 35.0356 4.89218C34.2479 4.89218 34.0346 4.95187 33.5838 5.29786C32.9932 5.75152 32.7187 6.38093 32.7092 7.30451L32.7028 7.92483L32.3337 7.51128C31.6031 6.69247 30.1403 5.65696 29.1463 5.25486C28.0637 4.81678 25.9229 4.40172 24.852 4.42212C24.4933 4.42901 23.6286 4.51751 22.9307 4.61883ZM70.467 4.49601C70.2778 4.52578 69.6973 4.61828 69.177 4.7014C67.1641 5.02286 64.5627 6.45482 63.3147 7.92813C60.7731 10.9288 60.4822 15.2904 62.6076 18.5321C63.3446 19.6561 64.9426 21.0843 66.1671 21.7134C70.3526 23.8639 75.9205 23.2136 78.7228 20.247L79.4108 19.5188L79.5068 20.5983C79.595 21.5901 79.6468 21.7092 80.1442 22.0654C81.1685 22.7989 82.7404 22.7087 83.5204 21.8718C83.8769 21.4892 83.8836 21.3619 83.9349 14.0145C83.9705 8.91278 83.9276 6.383 83.7995 6.03094C83.4118 4.96496 81.6967 4.49862 80.5137 5.13755C79.7275 5.56212 79.5023 5.97428 79.4994 6.99435C79.498 7.47544 79.4208 7.8559 79.3248 7.8559C79.2302 7.8559 79.1528 7.79608 79.1528 7.72315C79.1528 7.6501 78.6785 7.1839 78.0987 6.68709C77.2982 6.0013 76.7081 5.65158 75.6477 5.23459C73.9752 4.57678 71.8629 4.27572 70.467 4.49601ZM114.326 4.49752C110.172 5.00673 106.869 7.45132 105.691 10.8885C105.462 11.5568 105.384 12.2927 105.383 13.7833C105.382 15.618 105.423 15.8824 105.881 17.0028C107.897 21.9322 114.257 24.3385 119.722 22.2392C120.957 21.7646 122.33 20.8347 123.148 19.9176L123.517 19.504L123.523 20.4141C123.529 21.5659 123.974 22.1661 125.039 22.4635C125.677 22.6416 125.851 22.6416 126.489 22.4635C126.956 22.3333 127.355 22.0938 127.607 21.7926L128 21.3242V13.7561C128 5.40429 128.029 5.63697 126.917 5.09344C126.202 4.74399 125.349 4.75102 124.619 5.11232C123.827 5.50464 123.528 6.0279 123.528 7.02192C123.528 7.82806 123.313 8.12374 123.107 7.60212C122.937 7.17397 121.195 5.84236 120.228 5.40291C119.726 5.17408 118.897 4.88873 118.387 4.76881C117.408 4.53874 115.196 4.39083 114.326 4.49752ZM41.984 5.13851C40.8443 5.75318 40.7771 7.05611 41.8477 7.77816L42.3718 8.1316H47.5186C50.3494 8.1316 52.6653 8.1662 52.6653 8.20852C52.6653 8.2507 50.0909 10.5614 46.9442 13.3433C43.7977 16.1251 41.054 18.5762 40.8471 18.79C39.7642 19.9096 40.3935 21.7325 42.0739 22.3442C42.7213 22.5798 43.3407 22.5997 50.0854 22.602C57.1173 22.6045 57.4169 22.594 57.9645 22.3263C59.1654 21.7395 59.2955 20.4612 58.2303 19.7118L57.6412 19.2972H52.0573C48.9861 19.2972 46.4734 19.2489 46.4734 19.1897C46.4734 19.1307 49.1113 16.758 52.3356 13.9171C55.5598 11.0763 58.313 8.57588 58.4539 8.3607C58.5946 8.14538 58.7098 7.6279 58.7098 7.21064C58.7098 6.24295 58.1591 5.52876 57.0942 5.11563C56.3648 4.83263 56.1202 4.82326 49.4545 4.82326H42.5684L41.984 5.13851ZM24.1799 8.04144C22.3662 8.4128 20.5231 9.6635 19.7236 11.0653C18.8205 12.6487 18.822 14.7768 19.7274 16.3684C20.2418 17.2727 21.6164 18.4522 22.693 18.9132C26.0978 20.3712 30.4027 19.2682 32.0228 16.5227C33.4345 14.13 32.9553 11.4 30.8035 9.57638C29.5488 8.51316 28.2149 8.00905 26.4358 7.92565C25.5973 7.8865 24.716 7.93172 24.1799 8.04144ZM70.811 8.03869C68.9094 8.43018 67.3086 9.54729 66.3674 11.1394C65.8504 12.0141 65.8231 12.1432 65.8231 13.7144C65.8231 15.3097 65.8441 15.4044 66.4116 16.375C67.8433 18.8237 71.2587 20.0998 74.4365 19.3735C80.6397 17.9556 81.2911 10.6111 75.4117 8.37628C74.1414 7.8934 72.2064 7.75141 70.811 8.03869ZM115.056 7.99678C111.714 8.67375 109.574 11.1597 109.812 14.0905C109.924 15.4769 110.413 16.5724 111.334 17.507C114.471 20.6874 120.689 20.0764 122.853 16.375C123.421 15.4044 123.442 15.3097 123.442 13.7144C123.442 12.1315 123.418 12.0212 122.889 11.1547C121.66 9.14133 119.634 8.01705 117.058 7.91807C116.312 7.8894 115.412 7.92483 115.056 7.99678Z" fill="white"/>
</svg>
