<svg width="35" height="35" viewBox="0 0 35 35" fill="none" xmlns="http://www.w3.org/2000/svg">
<path d="M29.2164 33.81C31.7533 33.81 33.8098 31.7535 33.8098 29.2166C33.8098 26.6798 31.7533 24.6232 29.2164 24.6232C26.6796 24.6232 24.623 26.6798 24.623 29.2166C24.623 31.7535 26.6796 33.81 29.2164 33.81Z" stroke="url(#paint0_linear_1993_2532)" stroke-width="1.5" stroke-linecap="round" stroke-linejoin="round"/>
<path d="M5.5934 33.81C8.13026 33.81 10.1868 31.7535 10.1868 29.2166C10.1868 26.6798 8.13026 24.6232 5.5934 24.6232C3.05654 24.6232 1 26.6798 1 29.2166C1 31.7535 3.05654 33.81 5.5934 33.81Z" stroke="url(#paint1_linear_1993_2532)" stroke-width="1.5" stroke-linecap="round" stroke-linejoin="round"/>
<path d="M5.5934 10.1868C8.13026 10.1868 10.1868 8.13026 10.1868 5.5934C10.1868 3.05654 8.13026 1 5.5934 1C3.05654 1 1 3.05654 1 5.5934C1 8.13026 3.05654 10.1868 5.5934 10.1868Z" stroke="url(#paint2_linear_1993_2532)" stroke-width="1.5" stroke-linecap="round" stroke-linejoin="round"/>
<path d="M20.6854 1L16.7482 6.2496L20.6854 11.4992M28.5598 23.3108V10.1868C28.5598 7.562 27.2474 6.2496 24.6226 6.2496H19.373M6.24902 11.4992V23.3108" stroke="url(#paint3_linear_1993_2532)" stroke-width="1.5" stroke-linecap="round" stroke-linejoin="round"/>
<defs>
<linearGradient id="paint0_linear_1993_2532" x1="29.2164" y1="24.6232" x2="29.2164" y2="33.81" gradientUnits="userSpaceOnUse">
<stop stop-color="#22429A"/>
<stop offset="1" stop-color="#47A8CA"/>
</linearGradient>
<linearGradient id="paint1_linear_1993_2532" x1="5.5934" y1="24.6232" x2="5.5934" y2="33.81" gradientUnits="userSpaceOnUse">
<stop stop-color="#22429A"/>
<stop offset="1" stop-color="#47A8CA"/>
</linearGradient>
<linearGradient id="paint2_linear_1993_2532" x1="5.5934" y1="1" x2="5.5934" y2="10.1868" gradientUnits="userSpaceOnUse">
<stop stop-color="#22429A"/>
<stop offset="1" stop-color="#47A8CA"/>
</linearGradient>
<linearGradient id="paint3_linear_1993_2532" x1="17.4044" y1="1" x2="17.4044" y2="23.3108" gradientUnits="userSpaceOnUse">
<stop stop-color="#22429A"/>
<stop offset="1" stop-color="#47A8CA"/>
</linearGradient>
</defs>
</svg>
