<svg width="16" height="16" viewBox="0 0 16 16" fill="none" xmlns="http://www.w3.org/2000/svg">
<path d="M3.1265 4.41925C3.8406 4.41925 4.4195 3.84036 4.4195 3.12625C4.4195 2.41215 3.8406 1.83325 3.1265 1.83325C2.41239 1.83325 1.8335 2.41215 1.8335 3.12625C1.8335 3.84036 2.41239 4.41925 3.1265 4.41925Z" stroke="#414141" stroke-linecap="round" stroke-linejoin="round"/>
<path d="M3.1265 14.1666C3.8406 14.1666 4.4195 13.5877 4.4195 12.8736C4.4195 12.1595 3.8406 11.5806 3.1265 11.5806C2.41239 11.5806 1.8335 12.1595 1.8335 12.8736C1.8335 13.5877 2.41239 14.1666 3.1265 14.1666Z" stroke="#414141" stroke-linecap="round" stroke-linejoin="round"/>
<path d="M3.1265 9.29303C3.8406 9.29303 4.4195 8.71414 4.4195 8.00003C4.4195 7.28593 3.8406 6.70703 3.1265 6.70703C2.41239 6.70703 1.8335 7.28593 1.8335 8.00003C1.8335 8.71414 2.41239 9.29303 3.1265 9.29303Z" stroke="#414141" stroke-linecap="round" stroke-linejoin="round"/>
<path d="M13.57 1.83325H6.40868C6.07915 1.83325 5.81201 2.10039 5.81201 2.42992V3.82259C5.81201 4.15212 6.07915 4.41925 6.40868 4.41925H13.57C13.8995 4.41925 14.1667 4.15212 14.1667 3.82259V2.42992C14.1667 2.10039 13.8995 1.83325 13.57 1.83325Z" stroke="#414141" stroke-linecap="round" stroke-linejoin="round"/>
<path d="M13.57 11.5806H6.40868C6.07915 11.5806 5.81201 11.8477 5.81201 12.1772V13.5699C5.81201 13.8994 6.07915 14.1666 6.40868 14.1666H13.57C13.8995 14.1666 14.1667 13.8994 14.1667 13.5699V12.1772C14.1667 11.8477 13.8995 11.5806 13.57 11.5806Z" stroke="#414141" stroke-linecap="round" stroke-linejoin="round"/>
<path d="M13.57 6.70703H6.40868C6.07915 6.70703 5.81201 6.97417 5.81201 7.3037V8.69636C5.81201 9.02589 6.07915 9.29303 6.40868 9.29303H13.57C13.8995 9.29303 14.1667 9.02589 14.1667 8.69636V7.3037C14.1667 6.97417 13.8995 6.70703 13.57 6.70703Z" stroke="#414141" stroke-linecap="round" stroke-linejoin="round"/>
</svg>
