<svg width="15" height="14" viewBox="0 0 15 14" fill="none" xmlns="http://www.w3.org/2000/svg">
<path d="M5.47157 13.0361C4.43603 12.7269 3.49818 12.1548 2.74931 11.3756C2.99026 11.0899 3.14045 10.7387 3.18069 10.3671C3.22092 9.99546 3.14936 9.62029 2.97516 9.28957C2.80096 8.95885 2.53204 8.68763 2.20282 8.51061C1.8736 8.33359 1.49905 8.25883 1.1271 8.29589C1.04236 7.88082 0.999779 7.45825 1 7.03462C1 6.38035 1.10018 5.74924 1.28675 5.15633H1.31305C1.63228 5.15643 1.94627 5.07517 2.22537 4.92022C2.50448 4.76526 2.73948 4.54173 2.90819 4.27072C3.07691 3.99971 3.17376 3.69017 3.18962 3.37134C3.20547 3.0525 3.1398 2.73488 2.99881 2.44847C3.73278 1.76503 4.62041 1.26823 5.58677 1C5.74404 1.30879 5.98367 1.56806 6.27914 1.74911C6.57462 1.93016 6.91442 2.02594 7.26095 2.02586C7.60748 2.02594 7.94729 1.93016 8.24276 1.74911C8.53823 1.56806 8.77786 1.30879 8.93513 1C9.90149 1.26823 10.7891 1.76503 11.5231 2.44847C11.3811 2.73689 11.3155 3.05693 11.3325 3.37796C11.3496 3.69899 11.4488 4.01027 11.6206 4.282C11.7924 4.55373 12.031 4.77681 12.3137 4.9299C12.5964 5.08299 12.9137 5.16095 13.2352 5.15633C13.4258 5.76418 13.5225 6.39758 13.5219 7.03462C13.5219 7.46662 13.4781 7.88861 13.3948 8.2962C13.0229 8.25914 12.6483 8.33391 12.3191 8.51092C11.9899 8.68794 11.7209 8.95916 11.5467 9.28988C11.3725 9.6206 11.301 9.99578 11.3412 10.3674C11.3815 10.739 11.5316 11.0902 11.7726 11.376C11.0237 12.155 10.0858 12.727 9.05033 13.0361C8.92873 12.657 8.68992 12.3264 8.36834 12.0919C8.04675 11.8573 7.65899 11.7309 7.26095 11.7309C6.86291 11.7309 6.47515 11.8573 6.15357 12.0919C5.83198 12.3264 5.59317 12.657 5.47157 13.0361Z" stroke="#414141" stroke-linejoin="round"/>
<path d="M7.26116 9.22593C7.54893 9.22593 7.83388 9.16925 8.09974 9.05912C8.36561 8.949 8.60718 8.78759 8.81066 8.5841C9.01415 8.38062 9.17556 8.13905 9.28568 7.87318C9.39581 7.60732 9.45249 7.32236 9.45249 7.03459C9.45249 6.74682 9.39581 6.46187 9.28568 6.19601C9.17556 5.93014 9.01415 5.68857 8.81066 5.48509C8.60718 5.2816 8.36561 5.12019 8.09974 5.01007C7.83388 4.89994 7.54893 4.84326 7.26116 4.84326C6.67998 4.84326 6.12261 5.07413 5.71165 5.48509C5.3007 5.89604 5.06982 6.45342 5.06982 7.03459C5.06982 7.61577 5.3007 8.17315 5.71165 8.5841C6.12261 8.99506 6.67998 9.22593 7.26116 9.22593Z" stroke="#414141" stroke-linejoin="round"/>
</svg>
