<svg width="16" height="16" viewBox="0 0 16 16" fill="none" xmlns="http://www.w3.org/2000/svg">
<path d="M4.00016 8.66667C2.52683 8.66667 1.3335 9.86 1.3335 11.3333C1.3335 12.8067 2.52683 14 4.00016 14C5.4735 14 6.66683 12.8067 6.66683 11.3333C6.66683 9.86 5.4735 8.66667 4.00016 8.66667ZM4.00016 12.6667C3.26683 12.6667 2.66683 12.0667 2.66683 11.3333C2.66683 10.6 3.26683 10 4.00016 10C4.7335 10 5.3335 10.6 5.3335 11.3333C5.3335 12.0667 4.7335 12.6667 4.00016 12.6667ZM4.00016 2C2.52683 2 1.3335 3.19333 1.3335 4.66667C1.3335 6.14 2.52683 7.33333 4.00016 7.33333C5.4735 7.33333 6.66683 6.14 6.66683 4.66667C6.66683 3.19333 5.4735 2 4.00016 2ZM8.00016 3.33333H14.6668V4.66667H8.00016V3.33333ZM8.00016 12.6667V11.3333H14.6668V12.6667H8.00016ZM8.00016 7.33333H14.6668V8.66667H8.00016V7.33333Z" fill="#414141"/>
</svg>
