<svg width="11" height="15" viewBox="0 0 11 15" fill="none" xmlns="http://www.w3.org/2000/svg">
<mask id="path-1-inside-1_931_944" fill="white">
<path d="M2.38888 12.0008L1.33025 12.3468L0.456782 12.6323C0.364567 12.6625 0.267925 12.7023 0.191202 12.6057C0.114478 12.5091 0.172021 12.4235 0.21776 12.3379L1.93297 9.11848C1.95658 9.07348 1.97871 9.02847 2.00084 8.98421C1.98977 8.97388 1.98313 8.96282 1.97576 8.96061C1.87292 8.95618 1.77222 8.92985 1.68038 8.88337C1.58854 8.83689 1.50769 8.77133 1.44322 8.69108C1.37876 8.61083 1.33218 8.51773 1.30659 8.41803C1.281 8.31834 1.27699 8.21433 1.29484 8.11295C1.29484 7.68729 1.29484 7.68139 0.897942 7.52794C0.747873 7.49275 0.613058 7.41033 0.513326 7.29281C0.413595 7.17528 0.354212 7.02886 0.343911 6.87507C0.349947 6.70339 0.388499 6.5344 0.45752 6.37709C0.597688 6.00233 0.605065 6.00455 0.317352 5.72053L0.251695 5.65708C0.173452 5.59085 0.110451 5.50848 0.0670106 5.41563C0.0235702 5.32277 0.000717288 5.22163 1.6615e-05 5.11912C-0.000684058 5.01661 0.0207841 4.91518 0.0629512 4.82174C0.105118 4.7283 0.166987 4.64508 0.244318 4.57778C0.361616 4.45827 0.544572 4.34983 0.572605 4.20892C0.600639 4.06802 0.473012 3.90056 0.411043 3.74564C0.362607 3.65227 0.335239 3.54939 0.330869 3.44429C0.326498 3.3392 0.345231 3.23444 0.385748 3.13737C0.426264 3.0403 0.487578 2.95329 0.565367 2.88249C0.643157 2.81169 0.735529 2.75881 0.835972 2.72757C0.957697 2.6752 1.08459 2.63389 1.20115 2.57266C1.22455 2.55807 1.2446 2.5387 1.25999 2.51581C1.27537 2.49293 1.28574 2.46703 1.29041 2.43985C1.30221 2.30411 1.29041 2.16543 1.29484 2.02821C1.28992 1.93122 1.30531 1.83426 1.34001 1.74355C1.37471 1.65284 1.42796 1.57037 1.49636 1.50142C1.56475 1.43247 1.64679 1.37856 1.73721 1.34313C1.82764 1.30769 1.92446 1.29152 2.02149 1.29564C2.15945 1.29564 2.29667 1.28901 2.43388 1.29564C2.47382 1.30237 2.51481 1.29327 2.54814 1.27027C2.58147 1.24727 2.60453 1.21218 2.61241 1.17245C2.65594 1.04778 2.70905 0.926051 2.75996 0.803588C2.7921 0.70893 2.844 0.622195 2.91221 0.549118C2.98042 0.47604 3.06339 0.41828 3.15561 0.379703C3.24783 0.341126 3.3472 0.322612 3.44713 0.325355C3.54706 0.328099 3.64526 0.352041 3.73523 0.39562C3.87245 0.449474 4.00597 0.515131 4.1454 0.56087C4.17187 0.567452 4.19945 0.568167 4.22622 0.562941C4.25299 0.557715 4.27828 0.546687 4.30033 0.530634C4.41172 0.43473 4.51058 0.324799 4.61607 0.22078C4.68227 0.1515 4.76173 0.0962485 4.84973 0.0583219C4.93773 0.0203953 5.03246 0.000562478 5.12828 1.17869e-05C5.2241 -0.000538904 5.31905 0.0182123 5.40747 0.055125C5.4959 0.0920377 5.57599 0.146367 5.64298 0.214881C5.77356 0.341032 5.89234 0.535794 6.04431 0.568254C6.19628 0.600714 6.36964 0.456853 6.53489 0.392671C6.62296 0.351768 6.7185 0.329445 6.81557 0.327066C6.91265 0.324687 7.00917 0.342308 7.09913 0.378847C7.1891 0.415387 7.27058 0.470045 7.3385 0.539437C7.40642 0.608829 7.45933 0.691475 7.49393 0.7822C7.51238 0.823513 7.52935 0.866294 7.54705 0.908344C7.70566 1.29196 7.70566 1.29122 8.12764 1.2927C8.22907 1.28843 8.33068 1.29461 8.43085 1.31113C8.57831 1.34585 8.71041 1.42776 8.80708 1.5444C8.90375 1.66104 8.9597 1.80604 8.96643 1.95739C8.97492 2.10973 8.97492 2.26243 8.96643 2.41477C8.95867 2.45963 8.96886 2.50576 8.99481 2.54317C9.02076 2.58057 9.06039 2.60625 9.10512 2.61469C9.23865 2.66191 9.36923 2.71946 9.49907 2.77848C9.6685 2.84795 9.8038 2.98129 9.87572 3.1497C9.94763 3.31811 9.9504 3.50807 9.88342 3.6785C9.8347 3.82344 9.77679 3.96511 9.71006 4.10268C9.69766 4.12129 9.68911 4.1422 9.68492 4.16417C9.68073 4.18613 9.68098 4.20871 9.68566 4.23058C9.69033 4.25245 9.69934 4.27315 9.71214 4.29148C9.72495 4.30981 9.7413 4.32539 9.76022 4.33729C9.86277 4.42803 9.95793 4.52761 10.0553 4.62794C10.1882 4.76124 10.2628 4.94178 10.2628 5.12997C10.2628 5.31817 10.1882 5.49868 10.0553 5.63198C9.95984 5.73779 9.85862 5.83829 9.75211 5.93299C9.73478 5.94475 9.71997 5.95982 9.70853 5.97736C9.69709 5.9949 9.68925 6.01456 9.68548 6.03515C9.6817 6.05575 9.68206 6.07688 9.68653 6.09734C9.69101 6.11779 9.69951 6.13716 9.71153 6.1543C9.77572 6.28635 9.82883 6.42505 9.88047 6.56301C9.95065 6.7377 9.94893 6.93304 9.87569 7.10646C9.80245 7.27989 9.66363 7.41735 9.48948 7.48886C9.36407 7.54492 9.23718 7.59951 9.10734 7.64377C9.08513 7.6475 9.06389 7.65563 9.04487 7.66768C9.02585 7.67973 9.00943 7.69546 8.99658 7.71395C8.98373 7.73243 8.9747 7.75331 8.97003 7.77534C8.96536 7.79737 8.96514 7.82009 8.96938 7.84221C8.97971 7.96319 8.96938 8.08639 8.96938 8.21107C8.98388 8.3859 8.93229 8.5598 8.8248 8.69844C8.7173 8.83708 8.56172 8.93037 8.38879 8.95987C8.37035 8.9643 8.35264 8.9724 8.31502 8.98421L8.85135 10.0008C9.263 10.7784 9.67514 11.5559 10.0878 12.3335C10.1335 12.4198 10.1911 12.5076 10.1136 12.602C10.0361 12.6965 9.93949 12.6573 9.84654 12.6271L8.08854 12.0642C8.04059 12.0487 7.9919 12.0354 7.92993 12.017C7.91493 12.0548 7.90212 12.0935 7.89157 12.1328C7.77894 12.7014 7.66656 13.2701 7.55443 13.8392C7.53598 13.9336 7.53156 14.0384 7.40688 14.0605C7.28221 14.0826 7.22983 13.9934 7.1804 13.9004C6.58678 12.7815 5.99242 11.6626 5.39732 10.5438C5.36252 10.4702 5.32386 10.3985 5.2815 10.3291C5.25051 10.2841 5.19887 10.2169 5.16199 10.2206C5.13261 10.2274 5.10499 10.2402 5.08096 10.2584C5.05693 10.2766 5.03702 10.2997 5.02256 10.3261C4.69206 10.9399 4.36746 11.5567 4.04138 12.1704C3.73966 12.7414 3.44088 13.3147 3.13251 13.882C3.11192 13.9198 3.08383 13.9531 3.04997 13.9797C3.0161 14.0063 2.97717 14.0258 2.93554 14.0369C2.81824 14.0502 2.78799 13.9329 2.76955 13.8355C2.65348 13.2832 2.53839 12.7306 2.42429 12.1778C2.42356 12.1343 2.4088 12.0812 2.38888 12.0008ZM1.62755 7.92706C1.62755 8.01854 1.62755 8.11 1.62755 8.20222C1.62095 8.25962 1.6274 8.31777 1.64642 8.37233C1.66544 8.42689 1.69654 8.47644 1.7374 8.5173C1.77825 8.55815 1.82781 8.58925 1.88237 8.60827C1.93693 8.6273 1.99508 8.63376 2.05248 8.62716C2.25093 8.62716 2.44938 8.62716 2.64782 8.62716C2.69616 8.6219 2.74481 8.63378 2.78527 8.66075C2.82572 8.68772 2.85541 8.72805 2.86914 8.77469C2.93849 8.94954 3.01078 9.1229 3.08456 9.29627C3.0969 9.35458 3.1232 9.40903 3.1612 9.45496C3.19919 9.5009 3.24775 9.53695 3.30272 9.56001C3.35769 9.58307 3.41743 9.59246 3.47682 9.58739C3.53621 9.58231 3.59349 9.56291 3.64375 9.53086C3.809 9.46372 3.97646 9.40325 4.13655 9.32652C4.19362 9.29234 4.26148 9.28092 4.32658 9.2946C4.39168 9.30828 4.44922 9.34602 4.48771 9.40028C4.60353 9.52864 4.73189 9.6452 4.85657 9.76914C4.89409 9.81001 4.9397 9.84266 4.9905 9.86498C5.04129 9.8873 5.09617 9.89882 5.15166 9.89882C5.20714 9.89882 5.26202 9.8873 5.31282 9.86498C5.36362 9.84266 5.40923 9.81001 5.44675 9.76914C5.58102 9.63709 5.71602 9.50577 5.84586 9.36856C5.87786 9.32882 5.92284 9.30166 5.9729 9.29181C6.02296 9.28196 6.07488 9.29006 6.11955 9.3147C6.30644 9.39585 6.49456 9.47332 6.68391 9.54709C6.73087 9.57111 6.78242 9.58479 6.8351 9.58719C6.88779 9.58959 6.94037 9.58067 6.98931 9.56103C7.03825 9.54138 7.08241 9.51145 7.11881 9.47329C7.15521 9.43513 7.18301 9.3896 7.20032 9.33978C7.27999 9.16421 7.35524 8.98568 7.4268 8.80567C7.44235 8.75428 7.47511 8.70982 7.51957 8.67973C7.56404 8.64964 7.6175 8.63575 7.67099 8.64042C7.86427 8.64411 8.05829 8.64855 8.25084 8.6456C8.30465 8.65067 8.35891 8.64383 8.40979 8.62561C8.46067 8.60739 8.50692 8.57822 8.54528 8.54015C8.58363 8.50207 8.61316 8.45604 8.63175 8.40529C8.65035 8.35455 8.65757 8.30032 8.6529 8.24648C8.6529 8.0532 8.65806 7.85919 8.6529 7.6659C8.64635 7.61264 8.65892 7.55879 8.68837 7.51394C8.71782 7.46908 8.76225 7.43613 8.81372 7.42098C8.99446 7.35163 9.17299 7.27784 9.35005 7.19965C9.40258 7.18263 9.45082 7.15448 9.49147 7.11711C9.53213 7.07974 9.56423 7.03403 9.58559 6.98311C9.60696 6.93219 9.61707 6.87726 9.61525 6.82207C9.61343 6.76688 9.59972 6.71273 9.57505 6.66333C9.5094 6.49291 9.443 6.32175 9.36407 6.1565C9.32742 6.10105 9.31371 6.03355 9.32582 5.9682C9.33793 5.90284 9.37491 5.84475 9.42898 5.8061C9.56251 5.6888 9.6835 5.55748 9.8067 5.42911C9.84981 5.39297 9.88447 5.34783 9.90826 5.29684C9.93204 5.24586 9.94437 5.19028 9.94437 5.13403C9.94437 5.07777 9.93204 5.02219 9.90826 4.97121C9.88447 4.92023 9.84981 4.87509 9.8067 4.83894C9.67465 4.70468 9.54333 4.56893 9.40612 4.44056C9.36347 4.40773 9.33426 4.36049 9.32394 4.30767C9.31362 4.25485 9.3229 4.20006 9.35005 4.15358C9.43046 3.9721 9.50792 3.78915 9.57874 3.60398C9.60372 3.55468 9.61756 3.50049 9.61926 3.44524C9.62097 3.38999 9.61051 3.33504 9.58861 3.28429C9.56672 3.23354 9.53394 3.18822 9.49258 3.15155C9.45123 3.11488 9.40232 3.08774 9.34931 3.07208C9.17668 2.9983 9.00406 2.92454 8.82774 2.85741C8.77332 2.84335 8.72584 2.81003 8.6941 2.76364C8.66236 2.71725 8.64851 2.66092 8.65511 2.6051C8.66101 2.42731 8.65511 2.24878 8.65511 2.07099C8.65511 1.76705 8.51937 1.62837 8.21986 1.62837C8.05682 1.62837 7.89304 1.61804 7.73148 1.62837C7.65879 1.64164 7.58379 1.62589 7.52256 1.58452C7.46133 1.54315 7.41875 1.47944 7.40393 1.40704C7.35524 1.2595 7.28959 1.11195 7.22688 0.964403C7.21343 0.90243 7.18519 0.844631 7.14457 0.795934C7.10395 0.747236 7.05215 0.709088 6.9936 0.684739C6.93504 0.66039 6.87147 0.650566 6.80829 0.656102C6.74512 0.661638 6.68422 0.682367 6.6308 0.716528C6.46112 0.785137 6.29144 0.85302 6.12472 0.928268C6.07783 0.955024 6.02277 0.963701 5.96992 0.952696C5.91707 0.94169 5.87006 0.911743 5.83774 0.868495C5.70495 0.728327 5.56774 0.591866 5.42831 0.4576C5.39247 0.417669 5.34862 0.385716 5.29962 0.363853C5.25062 0.341991 5.19757 0.330691 5.14391 0.330691C5.09026 0.330691 5.0372 0.341991 4.9882 0.363853C4.93921 0.385716 4.89536 0.417669 4.85952 0.4576C4.71689 0.596292 4.57673 0.736694 4.43902 0.878829C4.40809 0.916424 4.36508 0.94213 4.31732 0.951547C4.26956 0.960965 4.22001 0.953517 4.17713 0.930475C3.99122 0.848587 3.8031 0.769661 3.6135 0.696626C3.5658 0.671131 3.51307 0.656424 3.45905 0.65358C3.40503 0.650736 3.35105 0.659825 3.30093 0.680169C3.2508 0.700513 3.20577 0.731616 3.16902 0.771304C3.13226 0.810992 3.10469 0.858274 3.08824 0.909807C3.00636 1.09055 2.93185 1.27426 2.86103 1.45943C2.84609 1.51114 2.81344 1.55595 2.7688 1.58602C2.72416 1.6161 2.67037 1.62951 2.61684 1.62394C2.42356 1.61951 2.23027 1.62025 2.03699 1.62394C1.98331 1.619 1.9292 1.6259 1.87846 1.64413C1.82773 1.66236 1.78162 1.69148 1.74336 1.72946C1.7051 1.76744 1.67563 1.81334 1.65702 1.86393C1.63842 1.91453 1.63113 1.9686 1.63567 2.02232C1.63567 2.18461 1.62534 2.34838 1.63567 2.51068C1.64353 2.5479 1.64393 2.5863 1.63685 2.62367C1.62977 2.66105 1.61535 2.69664 1.59443 2.72841C1.5735 2.76017 1.54649 2.78748 1.51495 2.80874C1.4834 2.82999 1.44796 2.84479 1.41066 2.85225C1.2519 2.9069 1.09626 2.97019 0.944418 3.04184C0.890301 3.05812 0.840448 3.08614 0.798423 3.12393C0.756399 3.16171 0.723241 3.20832 0.70132 3.2604C0.6794 3.31249 0.669258 3.36878 0.671621 3.42525C0.673983 3.48171 0.688791 3.53696 0.714986 3.58703C0.788758 3.76703 0.862531 3.94628 0.936303 4.12186C0.963735 4.17095 0.972497 4.22831 0.960973 4.28335C0.94945 4.33839 0.918417 4.38742 0.873597 4.42138C0.732691 4.55344 0.596212 4.69138 0.462684 4.83081C0.423863 4.86608 0.392844 4.90909 0.371617 4.95705C0.35039 5.00501 0.339425 5.05686 0.339425 5.10931C0.339425 5.16175 0.35039 5.21363 0.371617 5.26159C0.392844 5.30955 0.423863 5.35253 0.462684 5.3878C0.596212 5.52723 0.731954 5.66518 0.872859 5.79723C0.917693 5.83121 0.948632 5.88035 0.959899 5.93546C0.971166 5.99058 0.961992 6.0479 0.93409 6.09675C0.85294 6.27749 0.775479 6.46045 0.705395 6.64635C0.681479 6.69473 0.66827 6.74769 0.666668 6.80163C0.665067 6.85557 0.675109 6.90922 0.696113 6.95893C0.717116 7.00864 0.748586 7.05324 0.78838 7.08969C0.828174 7.12614 0.875356 7.15358 0.926713 7.17015C1.01524 7.20999 1.10524 7.24391 1.19451 7.28227C1.69837 7.4999 1.61944 7.39442 1.62755 7.92706ZM9.63924 12.2154C9.63285 12.1904 9.62497 12.1658 9.61563 12.1417C9.07463 11.1162 8.53068 10.0918 7.98378 9.06832C7.96282 9.04337 7.93662 9.02336 7.90703 9.00971C7.87744 8.99607 7.84521 8.98913 7.81263 8.98938C7.77132 8.98938 7.71451 9.04545 7.69091 9.09045C7.63861 9.19512 7.59374 9.30333 7.55664 9.4143C7.52466 9.51817 7.47031 9.61376 7.39741 9.69435C7.3245 9.77494 7.23482 9.83859 7.13468 9.88079C7.03453 9.92298 6.92635 9.9427 6.81775 9.93858C6.70916 9.93446 6.60279 9.9066 6.50612 9.85694C6.37335 9.76441 6.21705 9.71145 6.05537 9.70424C5.93217 9.72415 5.83405 9.89826 5.72413 10.0038C5.708 10.0235 5.68969 10.0413 5.66954 10.0569C5.57659 10.1129 5.57364 10.1719 5.62602 10.2686C6.15423 11.2552 6.67998 12.2432 7.20327 13.2328C7.23057 13.2844 7.26229 13.3331 7.30729 13.4098C7.32647 13.3316 7.33827 13.2888 7.34713 13.2446C7.43861 12.7857 7.52861 12.3268 7.62009 11.8672C7.66287 11.6518 7.72632 11.6142 7.93952 11.6821C8.22576 11.7721 8.51126 11.865 8.79749 11.9558L9.63924 12.2154ZM3.02628 13.4032C3.0757 13.3161 3.10669 13.2652 3.13398 13.2128C3.29825 12.903 3.46203 12.5927 3.62531 12.2818C3.98138 11.6076 4.33844 10.9333 4.69648 10.259C4.70734 10.2457 4.71518 10.2302 4.71946 10.2135C4.72374 10.1969 4.72436 10.1795 4.72127 10.1626C4.71818 10.1457 4.71147 10.1297 4.70158 10.1156C4.6917 10.1016 4.67889 10.0898 4.66402 10.0812C4.559 9.99216 4.46267 9.89336 4.37631 9.78612C4.36248 9.76112 4.34353 9.73932 4.32069 9.72216C4.29786 9.70499 4.27165 9.69283 4.24379 9.68649C4.21594 9.68016 4.18705 9.67977 4.15904 9.68537C4.13102 9.69097 4.10451 9.70243 4.08122 9.71898C3.9713 9.77177 3.8585 9.81831 3.74334 9.85841C3.65585 9.89737 3.56149 9.91859 3.46574 9.92082C3.36999 9.92304 3.27475 9.90621 3.18554 9.87135C3.09633 9.83649 3.01493 9.78427 2.94605 9.71772C2.87718 9.65117 2.8222 9.57161 2.7843 9.48365C2.72233 9.34938 2.67733 9.20774 2.61241 9.07642C2.58807 9.02699 2.52831 8.96504 2.48331 8.9643C2.45387 8.97036 2.42612 8.9828 2.40202 9.00078C2.37793 9.01875 2.35808 9.04182 2.34388 9.06832C1.81419 10.0519 1.28697 11.0388 0.7622 12.0288C0.735642 12.079 0.713511 12.1321 0.675149 12.2125C0.759987 12.1874 0.807939 12.1749 0.854416 12.1594C1.3664 11.9902 1.87838 11.8215 2.39036 11.6533C2.59176 11.5869 2.65446 11.6245 2.7002 11.8333C2.74594 12.0421 2.7902 12.2612 2.83521 12.4751C2.89127 12.7709 2.95693 13.0675 3.02628 13.4032Z"/>
</mask>
<path d="M2.38888 12.0008L1.33025 12.3468L0.456782 12.6323C0.364567 12.6625 0.267925 12.7023 0.191202 12.6057C0.114478 12.5091 0.172021 12.4235 0.21776 12.3379L1.93297 9.11848C1.95658 9.07348 1.97871 9.02847 2.00084 8.98421C1.98977 8.97388 1.98313 8.96282 1.97576 8.96061C1.87292 8.95618 1.77222 8.92985 1.68038 8.88337C1.58854 8.83689 1.50769 8.77133 1.44322 8.69108C1.37876 8.61083 1.33218 8.51773 1.30659 8.41803C1.281 8.31834 1.27699 8.21433 1.29484 8.11295C1.29484 7.68729 1.29484 7.68139 0.897942 7.52794C0.747873 7.49275 0.613058 7.41033 0.513326 7.29281C0.413595 7.17528 0.354212 7.02886 0.343911 6.87507C0.349947 6.70339 0.388499 6.5344 0.45752 6.37709C0.597688 6.00233 0.605065 6.00455 0.317352 5.72053L0.251695 5.65708C0.173452 5.59085 0.110451 5.50848 0.0670106 5.41563C0.0235702 5.32277 0.000717288 5.22163 1.6615e-05 5.11912C-0.000684058 5.01661 0.0207841 4.91518 0.0629512 4.82174C0.105118 4.7283 0.166987 4.64508 0.244318 4.57778C0.361616 4.45827 0.544572 4.34983 0.572605 4.20892C0.600639 4.06802 0.473012 3.90056 0.411043 3.74564C0.362607 3.65227 0.335239 3.54939 0.330869 3.44429C0.326498 3.3392 0.345231 3.23444 0.385748 3.13737C0.426264 3.0403 0.487578 2.95329 0.565367 2.88249C0.643157 2.81169 0.735529 2.75881 0.835972 2.72757C0.957697 2.6752 1.08459 2.63389 1.20115 2.57266C1.22455 2.55807 1.2446 2.5387 1.25999 2.51581C1.27537 2.49293 1.28574 2.46703 1.29041 2.43985C1.30221 2.30411 1.29041 2.16543 1.29484 2.02821C1.28992 1.93122 1.30531 1.83426 1.34001 1.74355C1.37471 1.65284 1.42796 1.57037 1.49636 1.50142C1.56475 1.43247 1.64679 1.37856 1.73721 1.34313C1.82764 1.30769 1.92446 1.29152 2.02149 1.29564C2.15945 1.29564 2.29667 1.28901 2.43388 1.29564C2.47382 1.30237 2.51481 1.29327 2.54814 1.27027C2.58147 1.24727 2.60453 1.21218 2.61241 1.17245C2.65594 1.04778 2.70905 0.926051 2.75996 0.803588C2.7921 0.70893 2.844 0.622195 2.91221 0.549118C2.98042 0.47604 3.06339 0.41828 3.15561 0.379703C3.24783 0.341126 3.3472 0.322612 3.44713 0.325355C3.54706 0.328099 3.64526 0.352041 3.73523 0.39562C3.87245 0.449474 4.00597 0.515131 4.1454 0.56087C4.17187 0.567452 4.19945 0.568167 4.22622 0.562941C4.25299 0.557715 4.27828 0.546687 4.30033 0.530634C4.41172 0.43473 4.51058 0.324799 4.61607 0.22078C4.68227 0.1515 4.76173 0.0962485 4.84973 0.0583219C4.93773 0.0203953 5.03246 0.000562478 5.12828 1.17869e-05C5.2241 -0.000538904 5.31905 0.0182123 5.40747 0.055125C5.4959 0.0920377 5.57599 0.146367 5.64298 0.214881C5.77356 0.341032 5.89234 0.535794 6.04431 0.568254C6.19628 0.600714 6.36964 0.456853 6.53489 0.392671C6.62296 0.351768 6.7185 0.329445 6.81557 0.327066C6.91265 0.324687 7.00917 0.342308 7.09913 0.378847C7.1891 0.415387 7.27058 0.470045 7.3385 0.539437C7.40642 0.608829 7.45933 0.691475 7.49393 0.7822C7.51238 0.823513 7.52935 0.866294 7.54705 0.908344C7.70566 1.29196 7.70566 1.29122 8.12764 1.2927C8.22907 1.28843 8.33068 1.29461 8.43085 1.31113C8.57831 1.34585 8.71041 1.42776 8.80708 1.5444C8.90375 1.66104 8.9597 1.80604 8.96643 1.95739C8.97492 2.10973 8.97492 2.26243 8.96643 2.41477C8.95867 2.45963 8.96886 2.50576 8.99481 2.54317C9.02076 2.58057 9.06039 2.60625 9.10512 2.61469C9.23865 2.66191 9.36923 2.71946 9.49907 2.77848C9.6685 2.84795 9.8038 2.98129 9.87572 3.1497C9.94763 3.31811 9.9504 3.50807 9.88342 3.6785C9.8347 3.82344 9.77679 3.96511 9.71006 4.10268C9.69766 4.12129 9.68911 4.1422 9.68492 4.16417C9.68073 4.18613 9.68098 4.20871 9.68566 4.23058C9.69033 4.25245 9.69934 4.27315 9.71214 4.29148C9.72495 4.30981 9.7413 4.32539 9.76022 4.33729C9.86277 4.42803 9.95793 4.52761 10.0553 4.62794C10.1882 4.76124 10.2628 4.94178 10.2628 5.12997C10.2628 5.31817 10.1882 5.49868 10.0553 5.63198C9.95984 5.73779 9.85862 5.83829 9.75211 5.93299C9.73478 5.94475 9.71997 5.95982 9.70853 5.97736C9.69709 5.9949 9.68925 6.01456 9.68548 6.03515C9.6817 6.05575 9.68206 6.07688 9.68653 6.09734C9.69101 6.11779 9.69951 6.13716 9.71153 6.1543C9.77572 6.28635 9.82883 6.42505 9.88047 6.56301C9.95065 6.7377 9.94893 6.93304 9.87569 7.10646C9.80245 7.27989 9.66363 7.41735 9.48948 7.48886C9.36407 7.54492 9.23718 7.59951 9.10734 7.64377C9.08513 7.6475 9.06389 7.65563 9.04487 7.66768C9.02585 7.67973 9.00943 7.69546 8.99658 7.71395C8.98373 7.73243 8.9747 7.75331 8.97003 7.77534C8.96536 7.79737 8.96514 7.82009 8.96938 7.84221C8.97971 7.96319 8.96938 8.08639 8.96938 8.21107C8.98388 8.3859 8.93229 8.5598 8.8248 8.69844C8.7173 8.83708 8.56172 8.93037 8.38879 8.95987C8.37035 8.9643 8.35264 8.9724 8.31502 8.98421L8.85135 10.0008C9.263 10.7784 9.67514 11.5559 10.0878 12.3335C10.1335 12.4198 10.1911 12.5076 10.1136 12.602C10.0361 12.6965 9.93949 12.6573 9.84654 12.6271L8.08854 12.0642C8.04059 12.0487 7.9919 12.0354 7.92993 12.017C7.91493 12.0548 7.90212 12.0935 7.89157 12.1328C7.77894 12.7014 7.66656 13.2701 7.55443 13.8392C7.53598 13.9336 7.53156 14.0384 7.40688 14.0605C7.28221 14.0826 7.22983 13.9934 7.1804 13.9004C6.58678 12.7815 5.99242 11.6626 5.39732 10.5438C5.36252 10.4702 5.32386 10.3985 5.2815 10.3291C5.25051 10.2841 5.19887 10.2169 5.16199 10.2206C5.13261 10.2274 5.10499 10.2402 5.08096 10.2584C5.05693 10.2766 5.03702 10.2997 5.02256 10.3261C4.69206 10.9399 4.36746 11.5567 4.04138 12.1704C3.73966 12.7414 3.44088 13.3147 3.13251 13.882C3.11192 13.9198 3.08383 13.9531 3.04997 13.9797C3.0161 14.0063 2.97717 14.0258 2.93554 14.0369C2.81824 14.0502 2.78799 13.9329 2.76955 13.8355C2.65348 13.2832 2.53839 12.7306 2.42429 12.1778C2.42356 12.1343 2.4088 12.0812 2.38888 12.0008ZM1.62755 7.92706C1.62755 8.01854 1.62755 8.11 1.62755 8.20222C1.62095 8.25962 1.6274 8.31777 1.64642 8.37233C1.66544 8.42689 1.69654 8.47644 1.7374 8.5173C1.77825 8.55815 1.82781 8.58925 1.88237 8.60827C1.93693 8.6273 1.99508 8.63376 2.05248 8.62716C2.25093 8.62716 2.44938 8.62716 2.64782 8.62716C2.69616 8.6219 2.74481 8.63378 2.78527 8.66075C2.82572 8.68772 2.85541 8.72805 2.86914 8.77469C2.93849 8.94954 3.01078 9.1229 3.08456 9.29627C3.0969 9.35458 3.1232 9.40903 3.1612 9.45496C3.19919 9.5009 3.24775 9.53695 3.30272 9.56001C3.35769 9.58307 3.41743 9.59246 3.47682 9.58739C3.53621 9.58231 3.59349 9.56291 3.64375 9.53086C3.809 9.46372 3.97646 9.40325 4.13655 9.32652C4.19362 9.29234 4.26148 9.28092 4.32658 9.2946C4.39168 9.30828 4.44922 9.34602 4.48771 9.40028C4.60353 9.52864 4.73189 9.6452 4.85657 9.76914C4.89409 9.81001 4.9397 9.84266 4.9905 9.86498C5.04129 9.8873 5.09617 9.89882 5.15166 9.89882C5.20714 9.89882 5.26202 9.8873 5.31282 9.86498C5.36362 9.84266 5.40923 9.81001 5.44675 9.76914C5.58102 9.63709 5.71602 9.50577 5.84586 9.36856C5.87786 9.32882 5.92284 9.30166 5.9729 9.29181C6.02296 9.28196 6.07488 9.29006 6.11955 9.3147C6.30644 9.39585 6.49456 9.47332 6.68391 9.54709C6.73087 9.57111 6.78242 9.58479 6.8351 9.58719C6.88779 9.58959 6.94037 9.58067 6.98931 9.56103C7.03825 9.54138 7.08241 9.51145 7.11881 9.47329C7.15521 9.43513 7.18301 9.3896 7.20032 9.33978C7.27999 9.16421 7.35524 8.98568 7.4268 8.80567C7.44235 8.75428 7.47511 8.70982 7.51957 8.67973C7.56404 8.64964 7.6175 8.63575 7.67099 8.64042C7.86427 8.64411 8.05829 8.64855 8.25084 8.6456C8.30465 8.65067 8.35891 8.64383 8.40979 8.62561C8.46067 8.60739 8.50692 8.57822 8.54528 8.54015C8.58363 8.50207 8.61316 8.45604 8.63175 8.40529C8.65035 8.35455 8.65757 8.30032 8.6529 8.24648C8.6529 8.0532 8.65806 7.85919 8.6529 7.6659C8.64635 7.61264 8.65892 7.55879 8.68837 7.51394C8.71782 7.46908 8.76225 7.43613 8.81372 7.42098C8.99446 7.35163 9.17299 7.27784 9.35005 7.19965C9.40258 7.18263 9.45082 7.15448 9.49147 7.11711C9.53213 7.07974 9.56423 7.03403 9.58559 6.98311C9.60696 6.93219 9.61707 6.87726 9.61525 6.82207C9.61343 6.76688 9.59972 6.71273 9.57505 6.66333C9.5094 6.49291 9.443 6.32175 9.36407 6.1565C9.32742 6.10105 9.31371 6.03355 9.32582 5.9682C9.33793 5.90284 9.37491 5.84475 9.42898 5.8061C9.56251 5.6888 9.6835 5.55748 9.8067 5.42911C9.84981 5.39297 9.88447 5.34783 9.90826 5.29684C9.93204 5.24586 9.94437 5.19028 9.94437 5.13403C9.94437 5.07777 9.93204 5.02219 9.90826 4.97121C9.88447 4.92023 9.84981 4.87509 9.8067 4.83894C9.67465 4.70468 9.54333 4.56893 9.40612 4.44056C9.36347 4.40773 9.33426 4.36049 9.32394 4.30767C9.31362 4.25485 9.3229 4.20006 9.35005 4.15358C9.43046 3.9721 9.50792 3.78915 9.57874 3.60398C9.60372 3.55468 9.61756 3.50049 9.61926 3.44524C9.62097 3.38999 9.61051 3.33504 9.58861 3.28429C9.56672 3.23354 9.53394 3.18822 9.49258 3.15155C9.45123 3.11488 9.40232 3.08774 9.34931 3.07208C9.17668 2.9983 9.00406 2.92454 8.82774 2.85741C8.77332 2.84335 8.72584 2.81003 8.6941 2.76364C8.66236 2.71725 8.64851 2.66092 8.65511 2.6051C8.66101 2.42731 8.65511 2.24878 8.65511 2.07099C8.65511 1.76705 8.51937 1.62837 8.21986 1.62837C8.05682 1.62837 7.89304 1.61804 7.73148 1.62837C7.65879 1.64164 7.58379 1.62589 7.52256 1.58452C7.46133 1.54315 7.41875 1.47944 7.40393 1.40704C7.35524 1.2595 7.28959 1.11195 7.22688 0.964403C7.21343 0.90243 7.18519 0.844631 7.14457 0.795934C7.10395 0.747236 7.05215 0.709088 6.9936 0.684739C6.93504 0.66039 6.87147 0.650566 6.80829 0.656102C6.74512 0.661638 6.68422 0.682367 6.6308 0.716528C6.46112 0.785137 6.29144 0.85302 6.12472 0.928268C6.07783 0.955024 6.02277 0.963701 5.96992 0.952696C5.91707 0.94169 5.87006 0.911743 5.83774 0.868495C5.70495 0.728327 5.56774 0.591866 5.42831 0.4576C5.39247 0.417669 5.34862 0.385716 5.29962 0.363853C5.25062 0.341991 5.19757 0.330691 5.14391 0.330691C5.09026 0.330691 5.0372 0.341991 4.9882 0.363853C4.93921 0.385716 4.89536 0.417669 4.85952 0.4576C4.71689 0.596292 4.57673 0.736694 4.43902 0.878829C4.40809 0.916424 4.36508 0.94213 4.31732 0.951547C4.26956 0.960965 4.22001 0.953517 4.17713 0.930475C3.99122 0.848587 3.8031 0.769661 3.6135 0.696626C3.5658 0.671131 3.51307 0.656424 3.45905 0.65358C3.40503 0.650736 3.35105 0.659825 3.30093 0.680169C3.2508 0.700513 3.20577 0.731616 3.16902 0.771304C3.13226 0.810992 3.10469 0.858274 3.08824 0.909807C3.00636 1.09055 2.93185 1.27426 2.86103 1.45943C2.84609 1.51114 2.81344 1.55595 2.7688 1.58602C2.72416 1.6161 2.67037 1.62951 2.61684 1.62394C2.42356 1.61951 2.23027 1.62025 2.03699 1.62394C1.98331 1.619 1.9292 1.6259 1.87846 1.64413C1.82773 1.66236 1.78162 1.69148 1.74336 1.72946C1.7051 1.76744 1.67563 1.81334 1.65702 1.86393C1.63842 1.91453 1.63113 1.9686 1.63567 2.02232C1.63567 2.18461 1.62534 2.34838 1.63567 2.51068C1.64353 2.5479 1.64393 2.5863 1.63685 2.62367C1.62977 2.66105 1.61535 2.69664 1.59443 2.72841C1.5735 2.76017 1.54649 2.78748 1.51495 2.80874C1.4834 2.82999 1.44796 2.84479 1.41066 2.85225C1.2519 2.9069 1.09626 2.97019 0.944418 3.04184C0.890301 3.05812 0.840448 3.08614 0.798423 3.12393C0.756399 3.16171 0.723241 3.20832 0.70132 3.2604C0.6794 3.31249 0.669258 3.36878 0.671621 3.42525C0.673983 3.48171 0.688791 3.53696 0.714986 3.58703C0.788758 3.76703 0.862531 3.94628 0.936303 4.12186C0.963735 4.17095 0.972497 4.22831 0.960973 4.28335C0.94945 4.33839 0.918417 4.38742 0.873597 4.42138C0.732691 4.55344 0.596212 4.69138 0.462684 4.83081C0.423863 4.86608 0.392844 4.90909 0.371617 4.95705C0.35039 5.00501 0.339425 5.05686 0.339425 5.10931C0.339425 5.16175 0.35039 5.21363 0.371617 5.26159C0.392844 5.30955 0.423863 5.35253 0.462684 5.3878C0.596212 5.52723 0.731954 5.66518 0.872859 5.79723C0.917693 5.83121 0.948632 5.88035 0.959899 5.93546C0.971166 5.99058 0.961992 6.0479 0.93409 6.09675C0.85294 6.27749 0.775479 6.46045 0.705395 6.64635C0.681479 6.69473 0.66827 6.74769 0.666668 6.80163C0.665067 6.85557 0.675109 6.90922 0.696113 6.95893C0.717116 7.00864 0.748586 7.05324 0.78838 7.08969C0.828174 7.12614 0.875356 7.15358 0.926713 7.17015C1.01524 7.20999 1.10524 7.24391 1.19451 7.28227C1.69837 7.4999 1.61944 7.39442 1.62755 7.92706ZM9.63924 12.2154C9.63285 12.1904 9.62497 12.1658 9.61563 12.1417C9.07463 11.1162 8.53068 10.0918 7.98378 9.06832C7.96282 9.04337 7.93662 9.02336 7.90703 9.00971C7.87744 8.99607 7.84521 8.98913 7.81263 8.98938C7.77132 8.98938 7.71451 9.04545 7.69091 9.09045C7.63861 9.19512 7.59374 9.30333 7.55664 9.4143C7.52466 9.51817 7.47031 9.61376 7.39741 9.69435C7.3245 9.77494 7.23482 9.83859 7.13468 9.88079C7.03453 9.92298 6.92635 9.9427 6.81775 9.93858C6.70916 9.93446 6.60279 9.9066 6.50612 9.85694C6.37335 9.76441 6.21705 9.71145 6.05537 9.70424C5.93217 9.72415 5.83405 9.89826 5.72413 10.0038C5.708 10.0235 5.68969 10.0413 5.66954 10.0569C5.57659 10.1129 5.57364 10.1719 5.62602 10.2686C6.15423 11.2552 6.67998 12.2432 7.20327 13.2328C7.23057 13.2844 7.26229 13.3331 7.30729 13.4098C7.32647 13.3316 7.33827 13.2888 7.34713 13.2446C7.43861 12.7857 7.52861 12.3268 7.62009 11.8672C7.66287 11.6518 7.72632 11.6142 7.93952 11.6821C8.22576 11.7721 8.51126 11.865 8.79749 11.9558L9.63924 12.2154ZM3.02628 13.4032C3.0757 13.3161 3.10669 13.2652 3.13398 13.2128C3.29825 12.903 3.46203 12.5927 3.62531 12.2818C3.98138 11.6076 4.33844 10.9333 4.69648 10.259C4.70734 10.2457 4.71518 10.2302 4.71946 10.2135C4.72374 10.1969 4.72436 10.1795 4.72127 10.1626C4.71818 10.1457 4.71147 10.1297 4.70158 10.1156C4.6917 10.1016 4.67889 10.0898 4.66402 10.0812C4.559 9.99216 4.46267 9.89336 4.37631 9.78612C4.36248 9.76112 4.34353 9.73932 4.32069 9.72216C4.29786 9.70499 4.27165 9.69283 4.24379 9.68649C4.21594 9.68016 4.18705 9.67977 4.15904 9.68537C4.13102 9.69097 4.10451 9.70243 4.08122 9.71898C3.9713 9.77177 3.8585 9.81831 3.74334 9.85841C3.65585 9.89737 3.56149 9.91859 3.46574 9.92082C3.36999 9.92304 3.27475 9.90621 3.18554 9.87135C3.09633 9.83649 3.01493 9.78427 2.94605 9.71772C2.87718 9.65117 2.8222 9.57161 2.7843 9.48365C2.72233 9.34938 2.67733 9.20774 2.61241 9.07642C2.58807 9.02699 2.52831 8.96504 2.48331 8.9643C2.45387 8.97036 2.42612 8.9828 2.40202 9.00078C2.37793 9.01875 2.35808 9.04182 2.34388 9.06832C1.81419 10.0519 1.28697 11.0388 0.7622 12.0288C0.735642 12.079 0.713511 12.1321 0.675149 12.2125C0.759987 12.1874 0.807939 12.1749 0.854416 12.1594C1.3664 11.9902 1.87838 11.8215 2.39036 11.6533C2.59176 11.5869 2.65446 11.6245 2.7002 11.8333C2.74594 12.0421 2.7902 12.2612 2.83521 12.4751C2.89127 12.7709 2.95693 13.0675 3.02628 13.4032Z" fill="#414141" stroke="black" stroke-width="2" mask="url(#path-1-inside-1_931_944)"/>
<mask id="path-2-inside-2_931_944" fill="white">
<path d="M5.13658 8.42722C4.48202 8.42707 3.84219 8.23287 3.29798 7.86915C2.75377 7.50543 2.32961 6.98854 2.07912 6.3838C1.82863 5.77906 1.76305 5.11363 1.89068 4.47163C2.01831 3.82963 2.33341 3.2399 2.79615 2.77695C3.2589 2.314 3.84851 1.99862 4.49045 1.87071C5.1324 1.74279 5.79785 1.80807 6.4027 2.05829C7.00755 2.30851 7.52464 2.73245 7.8886 3.2765C8.25256 3.82055 8.44705 4.46028 8.44749 5.11484C8.44807 5.54987 8.36284 5.98074 8.19667 6.38278C8.03051 6.78483 7.78668 7.15015 7.47913 7.45783C7.17159 7.76551 6.80638 8.00951 6.40441 8.17585C6.00244 8.3422 5.57161 8.42761 5.13658 8.42722ZM5.13142 8.09967C5.72081 8.1014 6.29751 7.92849 6.78871 7.60273C7.2799 7.27696 7.66356 6.81296 7.89126 6.26932C8.11896 5.72567 8.18048 5.12676 8.06806 4.54818C7.95564 3.9696 7.67432 3.43729 7.25961 3.01847C6.84491 2.59965 6.31541 2.3131 5.73797 2.19497C5.16053 2.07684 4.56103 2.13245 4.01517 2.35477C3.46931 2.57709 3.00155 2.95614 2.67095 3.44409C2.34035 3.93204 2.16173 4.50702 2.15765 5.09641C2.15512 5.48889 2.23012 5.878 2.37835 6.24142C2.52657 6.60485 2.7451 6.93543 3.02139 7.21419C3.29769 7.49295 3.62631 7.71442 3.9884 7.86586C4.3505 8.01731 4.73893 8.09576 5.13142 8.09672V8.09967Z"/>
</mask>
<path d="M5.13658 8.42722C4.48202 8.42707 3.84219 8.23287 3.29798 7.86915C2.75377 7.50543 2.32961 6.98854 2.07912 6.3838C1.82863 5.77906 1.76305 5.11363 1.89068 4.47163C2.01831 3.82963 2.33341 3.2399 2.79615 2.77695C3.2589 2.314 3.84851 1.99862 4.49045 1.87071C5.1324 1.74279 5.79785 1.80807 6.4027 2.05829C7.00755 2.30851 7.52464 2.73245 7.8886 3.2765C8.25256 3.82055 8.44705 4.46028 8.44749 5.11484C8.44807 5.54987 8.36284 5.98074 8.19667 6.38278C8.03051 6.78483 7.78668 7.15015 7.47913 7.45783C7.17159 7.76551 6.80638 8.00951 6.40441 8.17585C6.00244 8.3422 5.57161 8.42761 5.13658 8.42722ZM5.13142 8.09967C5.72081 8.1014 6.29751 7.92849 6.78871 7.60273C7.2799 7.27696 7.66356 6.81296 7.89126 6.26932C8.11896 5.72567 8.18048 5.12676 8.06806 4.54818C7.95564 3.9696 7.67432 3.43729 7.25961 3.01847C6.84491 2.59965 6.31541 2.3131 5.73797 2.19497C5.16053 2.07684 4.56103 2.13245 4.01517 2.35477C3.46931 2.57709 3.00155 2.95614 2.67095 3.44409C2.34035 3.93204 2.16173 4.50702 2.15765 5.09641C2.15512 5.48889 2.23012 5.878 2.37835 6.24142C2.52657 6.60485 2.7451 6.93543 3.02139 7.21419C3.29769 7.49295 3.62631 7.71442 3.9884 7.86586C4.3505 8.01731 4.73893 8.09576 5.13142 8.09672V8.09967Z" fill="#414141"/>
<path d="M5.13658 8.42722L5.13747 7.42722H5.1368L5.13658 8.42722ZM8.44749 5.11484L7.44749 5.11551L7.44749 5.11618L8.44749 5.11484ZM5.13142 8.09967H4.13142V9.09673L5.12847 9.09966L5.13142 8.09967ZM2.15765 5.09641L1.15767 5.08948L1.15767 5.08997L2.15765 5.09641ZM5.13142 8.09672H6.13142V7.09917L5.13387 7.09672L5.13142 8.09672ZM5.1368 7.42722C4.67998 7.42712 4.23344 7.29158 3.85364 7.03774L2.74232 8.70056C3.45093 9.17416 4.28405 9.42703 5.13636 9.42722L5.1368 7.42722ZM3.85364 7.03774C3.47384 6.78391 3.17782 6.42316 3.003 6.00111L1.15524 6.76648C1.48141 7.55391 2.0337 8.22696 2.74232 8.70056L3.85364 7.03774ZM3.003 6.00111C2.82818 5.57907 2.78242 5.11466 2.87149 4.66661L0.909875 4.27665C0.743691 5.1126 0.829079 5.97905 1.15524 6.76648L3.003 6.00111ZM2.87149 4.66661C2.96056 4.21857 3.18046 3.80699 3.50342 3.48389L2.08889 2.07C1.48636 2.6728 1.07606 3.44069 0.909875 4.27665L2.87149 4.66661ZM3.50342 3.48389C3.82638 3.16079 4.23787 2.9407 4.68587 2.85143L4.29503 0.889987C3.45915 1.05655 2.69142 1.4672 2.08889 2.07L3.50342 3.48389ZM4.68587 2.85143C5.13389 2.76216 5.59831 2.80771 6.02043 2.98234L6.78497 1.13424C5.9974 0.808426 5.1309 0.723432 4.29503 0.889987L4.68587 2.85143ZM6.02043 2.98234C6.44255 3.15697 6.80343 3.45283 7.05744 3.83253L8.71976 2.72047C8.24585 2.01207 7.57256 1.46006 6.78497 1.13424L6.02043 2.98234ZM7.05744 3.83253C7.31145 4.21222 7.44718 4.65869 7.44749 5.11551L9.44749 5.11418C9.44692 4.26187 9.19367 3.42887 8.71976 2.72047L7.05744 3.83253ZM7.44749 5.11618C7.44789 5.4197 7.38843 5.72032 7.2725 6.00082L9.12085 6.76475C9.33725 6.24116 9.44824 5.68004 9.44749 5.11351L7.44749 5.11618ZM7.2725 6.00082C7.15656 6.28133 6.98644 6.53621 6.77187 6.75088L8.1864 8.16478C8.58691 7.76409 8.90446 7.28833 9.12085 6.76475L7.2725 6.00082ZM6.77187 6.75088C6.55729 6.96555 6.30248 7.13579 6.02204 7.25185L6.78678 9.09986C7.31027 8.88323 7.78589 8.56547 8.1864 8.16478L6.77187 6.75088ZM6.02204 7.25185C5.7416 7.3679 5.44101 7.42749 5.13747 7.42722L5.13569 9.42722C5.7022 9.42772 6.26328 9.3165 6.78678 9.09986L6.02204 7.25185ZM5.12847 9.09966C5.91546 9.10198 6.68552 8.8711 7.34141 8.4361L6.236 6.76935C5.90951 6.98588 5.52617 7.10083 5.13436 7.09967L5.12847 9.09966ZM7.34141 8.4361C7.9973 8.00111 8.50959 7.38154 8.81362 6.65564L6.96889 5.883C6.81753 6.24438 6.5625 6.55281 6.236 6.76935L7.34141 8.4361ZM8.81362 6.65564C9.11766 5.92972 9.19981 5.13 9.0497 4.35744L7.08642 4.73891C7.16115 5.12351 7.12025 5.52162 6.96889 5.883L8.81362 6.65564ZM9.0497 4.35744C8.89959 3.58488 8.52395 2.87411 7.9702 2.31486L6.54902 3.72208C6.82469 4.00048 7.01169 4.35431 7.08642 4.73891L9.0497 4.35744ZM7.9702 2.31486C7.41645 1.75561 6.70942 1.37299 5.93839 1.21526L5.53755 3.17468C5.9214 3.2532 6.27337 3.44368 6.54902 3.72208L7.9702 2.31486ZM5.93839 1.21526C5.16734 1.05753 4.36685 1.13178 3.63797 1.42864L4.39236 3.28091C4.75522 3.13312 5.15371 3.09616 5.53755 3.17468L5.93839 1.21526ZM3.63797 1.42864C2.90911 1.72549 2.28452 2.23162 1.84307 2.88318L3.49883 4.005C3.71858 3.68066 4.0295 3.42869 4.39236 3.28091L3.63797 1.42864ZM1.84307 2.88318C1.40163 3.53474 1.16313 4.30249 1.15767 5.08948L3.15763 5.10333C3.16034 4.71155 3.27907 4.32935 3.49883 4.005L1.84307 2.88318ZM1.15767 5.08997C1.1543 5.6141 1.25446 6.13374 1.4524 6.61907L3.3043 5.86377C3.20579 5.62225 3.15595 5.36367 3.15763 5.10284L1.15767 5.08997ZM1.4524 6.61907C1.65034 7.1044 1.94217 7.54587 2.31115 7.91814L3.73164 6.51023C3.54803 6.32498 3.4028 6.10529 3.3043 5.86377L1.4524 6.61907ZM2.31115 7.91814C2.68012 8.29041 3.11898 8.58616 3.60254 8.78842L4.37427 6.94331C4.13365 6.84267 3.91526 6.69549 3.73164 6.51023L2.31115 7.91814ZM3.60254 8.78842C4.08611 8.99068 4.60484 9.09543 5.12896 9.09672L5.13387 7.09672C4.87301 7.09608 4.61488 7.04395 4.37427 6.94331L3.60254 8.78842ZM4.13142 8.09672V8.09967H6.13142V8.09672H4.13142Z" fill="black" mask="url(#path-2-inside-2_931_944)"/>
<mask id="path-4-inside-3_931_944" fill="white">
<path d="M3.43618 4.56225C3.43435 4.47567 3.44994 4.3896 3.48203 4.30916C3.51412 4.22871 3.56205 4.15553 3.62297 4.09397C3.68389 4.03242 3.75657 3.98375 3.83668 3.95083C3.91678 3.91792 4.00269 3.90144 4.08929 3.90238C4.1759 3.90332 4.26142 3.92166 4.3408 3.9563C4.42017 3.99095 4.49178 4.0412 4.55135 4.10406C4.61092 4.16692 4.65726 4.24112 4.68759 4.32224C4.71792 4.40336 4.73164 4.48973 4.72793 4.57626C4.72075 4.74392 4.64862 4.90222 4.52681 5.01766C4.40501 5.13309 4.24307 5.19662 4.07527 5.1948C3.90746 5.19297 3.74695 5.12594 3.62768 5.00789C3.5084 4.88984 3.43973 4.73003 3.43618 4.56225ZM4.39522 4.5711C4.39692 4.52918 4.39009 4.48736 4.37514 4.44816C4.36019 4.40896 4.33744 4.37321 4.30826 4.34306C4.27908 4.31292 4.24408 4.28901 4.20539 4.2728C4.1667 4.25658 4.12512 4.24837 4.08316 4.24871C3.99942 4.24704 3.91845 4.27872 3.85806 4.33676C3.79767 4.3948 3.76281 4.47446 3.76115 4.5582C3.75948 4.64194 3.79115 4.7229 3.84919 4.78329C3.90723 4.84368 3.98688 4.87855 4.07062 4.88021C4.1125 4.88231 4.15437 4.87587 4.19367 4.86128C4.23298 4.84669 4.26891 4.82425 4.29928 4.79534C4.32964 4.76642 4.35381 4.73163 4.3703 4.69308C4.38679 4.65453 4.39527 4.61303 4.39522 4.5711Z"/>
</mask>
<path d="M3.43618 4.56225C3.43435 4.47567 3.44994 4.3896 3.48203 4.30916C3.51412 4.22871 3.56205 4.15553 3.62297 4.09397C3.68389 4.03242 3.75657 3.98375 3.83668 3.95083C3.91678 3.91792 4.00269 3.90144 4.08929 3.90238C4.1759 3.90332 4.26142 3.92166 4.3408 3.9563C4.42017 3.99095 4.49178 4.0412 4.55135 4.10406C4.61092 4.16692 4.65726 4.24112 4.68759 4.32224C4.71792 4.40336 4.73164 4.48973 4.72793 4.57626C4.72075 4.74392 4.64862 4.90222 4.52681 5.01766C4.40501 5.13309 4.24307 5.19662 4.07527 5.1948C3.90746 5.19297 3.74695 5.12594 3.62768 5.00789C3.5084 4.88984 3.43973 4.73003 3.43618 4.56225ZM4.39522 4.5711C4.39692 4.52918 4.39009 4.48736 4.37514 4.44816C4.36019 4.40896 4.33744 4.37321 4.30826 4.34306C4.27908 4.31292 4.24408 4.28901 4.20539 4.2728C4.1667 4.25658 4.12512 4.24837 4.08316 4.24871C3.99942 4.24704 3.91845 4.27872 3.85806 4.33676C3.79767 4.3948 3.76281 4.47446 3.76115 4.5582C3.75948 4.64194 3.79115 4.7229 3.84919 4.78329C3.90723 4.84368 3.98688 4.87855 4.07062 4.88021C4.1125 4.88231 4.15437 4.87587 4.19367 4.86128C4.23298 4.84669 4.26891 4.82425 4.29928 4.79534C4.32964 4.76642 4.35381 4.73163 4.3703 4.69308C4.38679 4.65453 4.39527 4.61303 4.39522 4.5711Z" fill="#414141"/>
<path d="M3.43618 4.56225L2.4364 4.5834L3.43618 4.56225ZM4.72793 4.57626L5.72702 4.61909L4.72793 4.57626ZM4.39522 4.5711L3.39604 4.53059L3.3952 4.55147L3.39522 4.57236L4.39522 4.5711ZM4.08316 4.24871L4.06331 5.24851L4.07722 5.24879L4.09113 5.24868L4.08316 4.24871ZM4.07062 4.88021L4.12074 3.88147L4.10562 3.88071L4.09048 3.88041L4.07062 4.88021ZM4.43596 4.54111C4.43696 4.58851 4.42842 4.63563 4.41086 4.67966L2.5532 3.93865C2.47146 4.14357 2.43174 4.36283 2.4364 4.5834L4.43596 4.54111ZM4.41086 4.67966C4.39332 4.72364 4.3671 4.76369 4.33371 4.79743L2.91223 3.39052C2.75699 3.54736 2.63491 3.73379 2.5532 3.93865L4.41086 4.67966ZM4.33371 4.79743C4.30032 4.83116 4.26052 4.8578 4.21672 4.8758L3.45663 3.02586C3.25261 3.10969 3.06747 3.23367 2.91223 3.39052L4.33371 4.79743ZM4.21672 4.8758C4.17285 4.89382 4.12583 4.90284 4.07844 4.90232L4.10014 2.90244C3.87956 2.90005 3.66072 2.94201 3.45663 3.02586L4.21672 4.8758ZM4.07844 4.90232C4.03106 4.90181 3.98424 4.89178 3.94077 4.8728L4.74083 3.0398C4.53861 2.95154 4.32074 2.90483 4.10014 2.90244L4.07844 4.90232ZM3.94077 4.8728C3.89731 4.85383 3.85811 4.82633 3.82551 4.79193L5.27719 3.41619C5.12544 3.25607 4.94304 3.12806 4.74083 3.0398L3.94077 4.8728ZM3.82551 4.79193C3.7929 4.75751 3.76754 4.7169 3.75094 4.6725L5.62424 3.97198C5.54697 3.76534 5.42895 3.57633 5.27719 3.41619L3.82551 4.79193ZM3.75094 4.6725C3.73434 4.62811 3.72682 4.5808 3.72885 4.53342L5.72702 4.61909C5.73647 4.39866 5.70151 4.17861 5.62424 3.97198L3.75094 4.6725ZM3.72885 4.53342C3.73279 4.44167 3.77225 4.35503 3.83895 4.29182L5.21468 5.74349C5.52499 5.44942 5.70871 5.04616 5.72702 4.61909L3.72885 4.53342ZM3.83895 4.29182C3.90563 4.22863 3.99428 4.19386 4.08612 4.19485L4.06442 6.19474C4.49187 6.19937 4.90438 6.03756 5.21468 5.74349L3.83895 4.29182ZM4.08612 4.19485C4.17802 4.19585 4.26588 4.23256 4.33113 4.29715L2.92422 5.71863C3.22802 6.01931 3.63691 6.1901 4.06442 6.19474L4.08612 4.19485ZM4.33113 4.29715C4.39641 4.36175 4.43401 4.44924 4.43596 4.54111L2.4364 4.5834C2.44544 5.01082 2.6204 5.41792 2.92422 5.71863L4.33113 4.29715ZM5.3944 4.61161C5.40158 4.43441 5.37271 4.25758 5.30951 4.09186L3.44077 4.80445C3.40747 4.71713 3.39226 4.62396 3.39604 4.53059L5.3944 4.61161ZM5.30951 4.09186C5.24629 3.92607 5.15008 3.77493 5.02678 3.64756L3.58974 5.03857C3.5248 4.97148 3.47409 4.89184 3.44077 4.80445L5.30951 4.09186ZM5.02678 3.64756C4.90343 3.52012 4.75548 3.41907 4.59191 3.35052L3.81887 5.19508C3.73269 5.15896 3.65474 5.10572 3.58974 5.03857L5.02678 3.64756ZM4.59191 3.35052C4.42861 3.28208 4.25284 3.24732 4.0752 3.24874L4.09113 5.24868C3.99739 5.24942 3.90479 5.23108 3.81887 5.19508L4.59191 3.35052ZM4.10302 3.24891C3.75407 3.24197 3.41672 3.37397 3.16513 3.61575L4.55099 5.05777C4.42018 5.18348 4.24477 5.25211 4.06331 5.24851L4.10302 3.24891ZM3.16513 3.61575C2.91349 3.8576 2.76827 4.18949 2.76134 4.53835L4.76095 4.57806C4.75735 4.75943 4.68186 4.93199 4.55099 5.05777L3.16513 3.61575ZM2.76134 4.53835C2.75441 4.88728 2.88639 5.22463 3.12818 5.47622L4.5702 4.09037C4.69592 4.22118 4.76455 4.3966 4.76095 4.57806L2.76134 4.53835ZM3.12818 5.47622C3.36996 5.7278 3.70181 5.87309 4.05077 5.88002L4.09048 3.88041C4.27195 3.88401 4.4445 3.95957 4.5702 4.09037L3.12818 5.47622ZM4.0205 5.87896C4.19794 5.88786 4.37524 5.86055 4.54165 5.79878L3.8457 3.92377C3.93349 3.89119 4.02706 3.87677 4.12074 3.88147L4.0205 5.87896ZM4.54165 5.79878C4.70814 5.73699 4.86031 5.64196 4.98889 5.51951L3.60966 4.07116C3.67752 4.00654 3.75783 3.95639 3.8457 3.92377L4.54165 5.79878ZM4.98889 5.51951C5.11751 5.39704 5.21984 5.24969 5.28968 5.08645L3.45092 4.29971C3.48778 4.21357 3.54178 4.1358 3.60966 4.07116L4.98889 5.51951ZM5.28968 5.08645C5.35953 4.9232 5.39544 4.74743 5.39522 4.56985L3.39522 4.57236C3.3951 4.47863 3.41406 4.38587 3.45092 4.29971L5.28968 5.08645Z" fill="black" mask="url(#path-4-inside-3_931_944)"/>
<mask id="path-6-inside-4_931_944" fill="white">
<path d="M6.83886 5.66219C6.83988 5.78997 6.80299 5.91519 6.73286 6.022C6.66273 6.12882 6.56251 6.21244 6.44486 6.26231C6.32721 6.31219 6.19742 6.32606 6.07189 6.30219C5.94636 6.27831 5.83072 6.21776 5.7396 6.12818C5.64847 6.0386 5.58595 5.92402 5.55993 5.79892C5.53391 5.67381 5.54556 5.54381 5.59341 5.42533C5.64126 5.30684 5.72317 5.20521 5.82877 5.13326C5.93437 5.06131 6.05893 5.02229 6.18671 5.02112C6.27188 5.01945 6.35652 5.03479 6.43568 5.06628C6.51483 5.09777 6.58689 5.14475 6.64764 5.20447C6.70839 5.26419 6.75659 5.33545 6.78943 5.41405C6.82227 5.49265 6.83907 5.57701 6.83886 5.66219ZM6.18671 5.98015C6.22934 5.98269 6.27204 5.97656 6.31223 5.96212C6.35241 5.94768 6.38926 5.92524 6.42052 5.89615C6.45179 5.86707 6.47683 5.83195 6.49414 5.79291C6.51144 5.75387 6.52065 5.71171 6.5212 5.66901C6.52175 5.62632 6.51363 5.58396 6.49733 5.54449C6.48104 5.50502 6.45691 5.46925 6.4264 5.43938C6.39589 5.4095 6.35964 5.38613 6.31983 5.37066C6.28003 5.3552 6.23751 5.34795 6.19483 5.34939C6.11368 5.35213 6.0367 5.38603 5.97989 5.44404C5.92308 5.50205 5.8908 5.57972 5.88976 5.66091C5.88871 5.7421 5.91898 5.82056 5.97428 5.88001C6.02958 5.93946 6.10566 5.97533 6.18671 5.98015Z"/>
</mask>
<path d="M6.83886 5.66219C6.83988 5.78997 6.80299 5.91519 6.73286 6.022C6.66273 6.12882 6.56251 6.21244 6.44486 6.26231C6.32721 6.31219 6.19742 6.32606 6.07189 6.30219C5.94636 6.27831 5.83072 6.21776 5.7396 6.12818C5.64847 6.0386 5.58595 5.92402 5.55993 5.79892C5.53391 5.67381 5.54556 5.54381 5.59341 5.42533C5.64126 5.30684 5.72317 5.20521 5.82877 5.13326C5.93437 5.06131 6.05893 5.02229 6.18671 5.02112C6.27188 5.01945 6.35652 5.03479 6.43568 5.06628C6.51483 5.09777 6.58689 5.14475 6.64764 5.20447C6.70839 5.26419 6.75659 5.33545 6.78943 5.41405C6.82227 5.49265 6.83907 5.57701 6.83886 5.66219ZM6.18671 5.98015C6.22934 5.98269 6.27204 5.97656 6.31223 5.96212C6.35241 5.94768 6.38926 5.92524 6.42052 5.89615C6.45179 5.86707 6.47683 5.83195 6.49414 5.79291C6.51144 5.75387 6.52065 5.71171 6.5212 5.66901C6.52175 5.62632 6.51363 5.58396 6.49733 5.54449C6.48104 5.50502 6.45691 5.46925 6.4264 5.43938C6.39589 5.4095 6.35964 5.38613 6.31983 5.37066C6.28003 5.3552 6.23751 5.34795 6.19483 5.34939C6.11368 5.35213 6.0367 5.38603 5.97989 5.44404C5.92308 5.50205 5.8908 5.57972 5.88976 5.66091C5.88871 5.7421 5.91898 5.82056 5.97428 5.88001C6.02958 5.93946 6.10566 5.97533 6.18671 5.98015Z" fill="#414141"/>
<path d="M6.18671 5.02112L6.19588 6.02113L6.20632 6.02093L6.18671 5.02112ZM6.18671 5.98015L6.12728 6.97838L6.18671 5.98015ZM6.19483 5.34939L6.22856 6.34882L6.19483 5.34939ZM5.83889 5.67014C5.83834 5.6002 5.85852 5.53167 5.89692 5.47319L7.5688 6.57082C7.74745 6.29871 7.84142 5.97974 7.83883 5.65424L5.83889 5.67014ZM5.89692 5.47319C5.93533 5.41467 5.99021 5.3689 6.05456 5.34162L6.83515 7.183C7.1348 7.05598 7.39013 6.84297 7.5688 6.57082L5.89692 5.47319ZM6.05456 5.34162C6.11898 5.31432 6.19002 5.30673 6.25873 5.3198L5.88505 7.28458C6.20482 7.34539 6.53545 7.31005 6.83515 7.183L6.05456 5.34162ZM6.25873 5.3198C6.32744 5.33286 6.39074 5.36601 6.44063 5.41505L5.03857 6.84131C5.2707 7.0695 5.56527 7.22376 5.88505 7.28458L6.25873 5.3198ZM6.44063 5.41505C6.49049 5.46407 6.52473 5.52679 6.53898 5.59529L4.58088 6.00254C4.64716 6.32125 4.80645 6.61313 5.03857 6.84131L6.44063 5.41505ZM6.53898 5.59529C6.55322 5.66378 6.54684 5.73496 6.52065 5.79981L4.66618 5.05085C4.54428 5.35266 4.51459 5.68384 4.58088 6.00254L6.53898 5.59529ZM6.52065 5.79981C6.49445 5.86467 6.44962 5.9203 6.39181 5.95969L5.26573 4.30683C4.99672 4.49011 4.78808 4.74902 4.66618 5.05085L6.52065 5.79981ZM6.39181 5.95969C6.334 5.99908 6.26581 6.02044 6.19587 6.02108L6.17755 4.02116C5.85206 4.02414 5.53475 4.12355 5.26573 4.30683L6.39181 5.95969ZM6.20632 6.02093C6.15844 6.02187 6.11074 6.01324 6.06604 5.99546L6.80531 4.1371C6.60231 4.05635 6.38532 4.01703 6.1671 4.02131L6.20632 6.02093ZM6.06604 5.99546C6.02142 5.97771 5.98082 5.95123 5.94661 5.9176L7.34867 4.49134C7.19296 4.33827 7.00823 4.21783 6.80531 4.1371L6.06604 5.99546ZM5.94661 5.9176C5.91235 5.88392 5.8852 5.84377 5.86671 5.79953L7.71215 5.02857C7.62799 4.82712 7.50443 4.64445 7.34867 4.49134L5.94661 5.9176ZM5.86671 5.79953C5.84822 5.75525 5.83874 5.7077 5.83886 5.65969L7.83886 5.66469C7.8394 5.44632 7.79632 5.23005 7.71215 5.02857L5.86671 5.79953ZM6.12728 6.97838C6.30489 6.98896 6.48282 6.9634 6.65031 6.90323L5.97414 5.021C6.06125 4.98971 6.15379 4.97642 6.24614 4.98192L6.12728 6.97838ZM6.65031 6.90323C6.81784 6.84305 6.97135 6.74952 7.1016 6.62836L5.73945 5.16394C5.80716 5.10096 5.88699 5.05231 5.97414 5.021L6.65031 6.90323ZM7.1016 6.62836C7.2319 6.50717 7.33625 6.3608 7.40836 6.19812L5.57992 5.38769C5.61741 5.30309 5.67169 5.22697 5.73945 5.16394L7.1016 6.62836ZM7.40836 6.19812C7.48048 6.03542 7.51882 5.85979 7.52111 5.68188L5.52128 5.65615C5.52247 5.56364 5.54241 5.47232 5.57992 5.38769L7.40836 6.19812ZM7.52111 5.68188C7.5234 5.50391 7.48956 5.32738 7.42168 5.16293L5.57299 5.92605C5.5377 5.84055 5.52009 5.74872 5.52128 5.65615L7.52111 5.68188ZM7.42168 5.16293C7.3538 4.9985 7.25327 4.84948 7.12609 4.72493L5.72671 6.15382C5.66055 6.08903 5.60828 6.01154 5.57299 5.92605L7.42168 5.16293ZM7.12609 4.72493C6.99883 4.60029 6.84772 4.50294 6.68202 4.43856L5.95765 6.30277C5.87156 6.26932 5.79296 6.2187 5.72671 6.15382L7.12609 4.72493ZM6.68202 4.43856C6.51642 4.37421 6.33922 4.34395 6.1611 4.34996L6.22856 6.34882C6.13579 6.35195 6.04365 6.33619 5.95765 6.30277L6.68202 4.43856ZM6.1611 4.34996C5.8229 4.36137 5.50216 4.50264 5.26545 4.74435L6.69434 6.14373C6.57125 6.26941 6.40445 6.34288 6.22856 6.34882L6.1611 4.34996ZM5.26545 4.74435C5.02869 4.9861 4.89419 5.30975 4.88984 5.64805L6.88967 5.67377C6.88741 5.84969 6.81747 6.01799 6.69434 6.14373L5.26545 4.74435ZM4.88984 5.64805C4.88549 5.98639 5.01165 6.31337 5.24207 6.56109L6.70649 5.19893C6.82632 5.32775 6.89194 5.49781 6.88967 5.67377L4.88984 5.64805ZM5.24207 6.56109C5.47251 6.80883 5.78953 6.95828 6.12728 6.97838L6.24614 4.98192C6.42179 4.99238 6.58665 5.0701 6.70649 5.19893L5.24207 6.56109Z" fill="black" mask="url(#path-6-inside-4_931_944)"/>
<mask id="path-8-inside-5_931_944" fill="white">
<path d="M4.4682 6.22734C4.40918 6.18676 4.34279 6.16536 4.32656 6.12479C4.31506 6.09569 4.30947 6.0646 4.31011 6.03331C4.31074 6.00203 4.31759 5.9712 4.33025 5.94259C4.40674 5.82257 4.48974 5.70682 4.57886 5.59585C4.93493 5.11338 5.29101 4.63066 5.64708 4.14769C5.71643 4.054 5.79463 3.97655 5.91193 4.06065C6.02922 4.14476 5.9857 4.24435 5.91635 4.34025C5.48405 4.92453 5.05174 5.50879 4.61943 6.09307C4.57353 6.14266 4.52288 6.18764 4.4682 6.22734Z"/>
</mask>
<path d="M4.4682 6.22734C4.40918 6.18676 4.34279 6.16536 4.32656 6.12479C4.31506 6.09569 4.30947 6.0646 4.31011 6.03331C4.31074 6.00203 4.31759 5.9712 4.33025 5.94259C4.40674 5.82257 4.48974 5.70682 4.57886 5.59585C4.93493 5.11338 5.29101 4.63066 5.64708 4.14769C5.71643 4.054 5.79463 3.97655 5.91193 4.06065C6.02922 4.14476 5.9857 4.24435 5.91635 4.34025C5.48405 4.92453 5.05174 5.50879 4.61943 6.09307C4.57353 6.14266 4.52288 6.18764 4.4682 6.22734Z" fill="#414141"/>
<path d="M4.32656 6.12479L3.39643 6.49206L3.39808 6.49618L4.32656 6.12479ZM4.33025 5.94259L3.48698 5.40508L3.44635 5.46884L3.41575 5.53798L4.33025 5.94259ZM4.57886 5.59585L5.35854 6.22203L5.37133 6.20611L5.38346 6.18967L4.57886 5.59585ZM5.64708 4.14769L4.8433 3.55277L4.84219 3.55427L5.64708 4.14769ZM5.91635 4.34025L6.72028 4.93508L6.7267 4.9262L5.91635 4.34025ZM4.61943 6.09307L5.35337 6.77228L5.39066 6.73199L5.42331 6.68786L4.61943 6.09307ZM5.03473 5.40329C4.98367 5.36819 4.93846 5.3423 4.91522 5.32918C4.90618 5.32407 4.89036 5.31527 4.88997 5.31505C4.88503 5.31229 4.88771 5.31373 4.89317 5.31698C4.8986 5.32022 4.94966 5.34999 5.01003 5.40342C5.07245 5.45867 5.18238 5.57177 5.25503 5.7534L3.39808 6.49618C3.47885 6.6981 3.60317 6.82908 3.68444 6.90102C3.76366 6.97115 3.83806 7.01641 3.86949 7.03514C3.88795 7.04614 3.90431 7.05533 3.91348 7.06046C3.92721 7.06814 3.92595 7.06739 3.93168 7.07063C3.93799 7.07419 3.92322 7.0662 3.90167 7.05138L5.03473 5.40329ZM5.25667 5.75752C5.29385 5.85168 5.31195 5.95231 5.3099 6.05355L3.31031 6.01308C3.307 6.17688 3.33628 6.33969 3.39644 6.49205L5.25667 5.75752ZM5.3099 6.05355C5.30785 6.15483 5.28568 6.25465 5.24474 6.34719L3.41575 5.53798C3.34949 5.68775 3.31363 5.84923 3.31031 6.01308L5.3099 6.05355ZM5.17351 6.48009C5.23044 6.39076 5.29221 6.30462 5.35854 6.22203L3.79918 4.96967C3.68727 5.10902 3.58305 5.25438 3.48698 5.40508L5.17351 6.48009ZM5.38346 6.18967C5.73964 5.70706 6.09581 5.2242 6.45197 4.74111L4.84219 3.55427C4.48621 4.03711 4.13023 4.5197 3.77426 5.00204L5.38346 6.18967ZM6.45086 4.74262C6.45703 4.73428 6.44225 4.75558 6.41215 4.786C6.38315 4.81532 6.31109 4.883 6.19388 4.9392C6.06412 5.00142 5.89494 5.04131 5.70723 5.01793C5.52848 4.99567 5.40057 4.92449 5.32924 4.87335L6.49461 3.24796C6.36463 3.15477 6.18296 3.06173 5.95439 3.03326C5.71686 3.00368 5.50181 3.05302 5.32917 3.1358C5.04026 3.27432 4.87637 3.50809 4.8433 3.55277L6.45086 4.74262ZM5.32924 4.87335C5.2601 4.82378 5.15525 4.72919 5.07743 4.57355C4.9955 4.4097 4.97434 4.23959 4.9894 4.09346C5.00312 3.96047 5.04443 3.86607 5.06596 3.82277C5.07783 3.79888 5.0883 3.78142 5.09467 3.7713C5.10111 3.76108 5.10546 3.75506 5.106 3.7543L6.7267 4.9262C6.77169 4.86398 6.94475 4.62934 6.97886 4.29859C6.99881 4.10507 6.97087 3.8883 6.86628 3.67912C6.7658 3.47815 6.6224 3.33958 6.49461 3.24796L5.32924 4.87335ZM5.11247 3.74546C4.89632 4.0376 4.68017 4.32973 4.46402 4.62186C4.24786 4.914 4.03171 5.20613 3.81555 5.49828L5.42331 6.68786C5.63946 6.39572 5.85561 6.10359 6.07177 5.81145C6.28792 5.51932 6.50408 5.22718 6.72023 4.93504L5.11247 3.74546ZM3.8855 5.41385C3.88401 5.41545 3.8824 5.41688 3.88069 5.41812L5.05571 7.03656C5.16336 6.95839 5.26306 6.86987 5.35337 6.77228L3.8855 5.41385Z" fill="black" mask="url(#path-8-inside-5_931_944)"/>
</svg>
