<svg width="14" height="17" viewBox="0 0 14 17" fill="none" xmlns="http://www.w3.org/2000/svg">
<path d="M0.00522812 7.64419C0.00522812 6.00442 0.00522812 4.36427 0.00522812 2.72371C-0.00735788 2.36245 0.0438415 2.00205 0.155596 1.66523C0.267351 1.32842 0.437236 1.0225 0.654533 0.766781C0.87183 0.511064 1.13182 0.311094 1.41811 0.179491C1.7044 0.0478878 2.01076 -0.0125 2.31788 0.00214825C4.91869 0.00214825 7.51918 0.00214825 10.1193 0.00214825C10.5767 -0.00718532 11.0251 0.15252 11.4013 0.458754C11.7775 0.764987 12.0626 1.20234 12.2164 1.70919C12.308 2.03495 12.3547 2.37585 12.3548 2.71899C12.3658 5.24707 12.3628 7.77633 12.3548 10.3044C12.3485 10.3802 12.3625 10.4565 12.3949 10.5225C12.4273 10.5885 12.4763 10.6409 12.5353 10.6725C13.1937 11.1083 13.6797 11.8315 13.8883 12.6856C14.0969 13.5397 14.0112 14.4561 13.6497 15.2365C13.2883 16.0169 12.6802 16.5985 11.957 16.8555C11.2338 17.1125 10.4537 17.0243 9.78536 16.6099C9.34252 16.3451 8.96969 15.9428 8.70726 15.4467C8.6809 15.388 8.64034 15.3399 8.5907 15.3084C8.54107 15.2769 8.4846 15.2635 8.42846 15.2698C6.40062 15.2745 4.37279 15.2745 2.34496 15.2698C2.03312 15.2898 1.72119 15.2324 1.42948 15.1012C1.13776 14.9701 0.872816 14.7681 0.651891 14.5084C0.430966 14.2488 0.259021 13.9373 0.147256 13.5942C0.0354916 13.2512 -0.0135852 12.8843 0.00322249 12.5175C0.0025539 10.895 0.00322235 9.2706 0.00522812 7.64419ZM11.5765 10.2631C11.5765 10.1723 11.5865 10.1098 11.5865 10.0472C11.5865 7.59821 11.5865 5.14877 11.5865 2.69894C11.5951 2.4614 11.5616 2.22437 11.4879 2.00296C11.4143 1.78155 11.3022 1.58062 11.1589 1.41301C11.0155 1.24539 10.8441 1.11478 10.6554 1.02948C10.4667 0.944184 10.265 0.906062 10.0632 0.917591C7.47572 0.917591 4.88827 0.917591 2.30083 0.917591C2.09891 0.907391 1.89738 0.946692 1.70905 1.03298C1.52072 1.11926 1.3497 1.25064 1.20683 1.4188C1.06397 1.58697 0.952377 1.78825 0.87915 2.00984C0.805924 2.23143 0.772657 2.46851 0.781461 2.70603C0.781461 5.99265 0.781461 9.27965 0.781461 12.5671C0.771979 12.8045 0.804581 13.0417 0.877196 13.2635C0.94981 13.4853 1.06085 13.6869 1.20326 13.8555C1.34567 14.0242 1.51635 14.1561 1.70443 14.243C1.89252 14.3299 2.09391 14.3698 2.29582 14.3602C4.23139 14.3649 6.16729 14.3649 8.10352 14.3602C8.16671 14.3602 8.22989 14.3496 8.31012 14.3425C8.21264 13.8035 8.22768 13.2448 8.35396 12.7141C8.48024 12.1834 8.71399 11.6967 9.0352 11.2955C9.3564 10.8944 9.75548 10.5908 10.1983 10.4108C10.641 10.2308 11.1143 10.1797 11.5775 10.262L11.5765 10.2631ZM9.02818 13.6099C9.02699 14.0984 9.14908 14.5764 9.37898 14.9832C9.60888 15.39 9.93624 15.7074 10.3196 15.8952C10.703 16.083 11.1251 16.1328 11.5326 16.0382C11.94 15.9435 12.3144 15.7088 12.6083 15.3638C12.9023 15.0187 13.1025 14.5787 13.1837 14.0996C13.265 13.6206 13.2235 13.1239 13.0645 12.6726C12.9056 12.2213 12.6364 11.8356 12.291 11.5643C11.9456 11.2931 11.5395 11.1486 11.1242 11.1491C10.5698 11.1522 10.0388 11.4123 9.64641 11.873C9.25402 12.3337 9.03187 12.9578 9.02818 13.6099Z" fill="#414141"/>
<path d="M6.18877 5.81922H9.33181C9.3927 5.81648 9.45367 5.81845 9.51434 5.82513C9.6056 5.83901 9.68986 5.89002 9.7525 5.96931C9.81515 6.04861 9.85223 6.15119 9.85732 6.25927C9.86005 6.3677 9.8297 6.47369 9.77175 6.55808C9.71381 6.64247 9.6321 6.69966 9.54141 6.71933C9.46917 6.73332 9.396 6.73967 9.32279 6.73823C7.23478 6.73823 5.14611 6.73823 3.05676 6.73823C2.97779 6.74068 2.89882 6.73356 2.82108 6.71699C2.73415 6.69664 2.65619 6.64065 2.60109 6.55898C2.54598 6.47731 2.51733 6.37525 2.52022 6.27104C2.52074 6.16269 2.55435 6.05819 2.61492 5.97655C2.67548 5.89491 2.75897 5.84159 2.85017 5.82632C2.91679 5.81824 2.9838 5.8155 3.05074 5.81807L6.18877 5.81922Z" fill="#414141"/>
<path d="M6.1822 9.46217C5.11647 9.46217 4.05073 9.46217 2.985 9.46217C2.71121 9.46217 2.54473 9.31588 2.51966 9.06342C2.51142 9.00118 2.51446 8.93759 2.52857 8.87683C2.54268 8.81606 2.56754 8.7595 2.60153 8.71082C2.63553 8.66215 2.67788 8.62247 2.72582 8.5944C2.77375 8.56632 2.82619 8.55049 2.8797 8.54792C3.00706 8.53376 3.13543 8.54082 3.2638 8.54082H9.27509C9.3541 8.53791 9.43319 8.54146 9.51178 8.55145C9.60629 8.56465 9.69347 8.61793 9.75698 8.70132C9.82049 8.78471 9.85597 8.89249 9.85677 9.00445C9.85349 9.11637 9.81649 9.22326 9.75237 9.30603C9.68825 9.38881 9.60119 9.44206 9.50676 9.45627C9.44615 9.46395 9.38514 9.46633 9.32424 9.46336L6.1822 9.46217Z" fill="#414141"/>
<path d="M6.17004 4.00949H3.00895C2.94185 4.01377 2.87455 4.00903 2.80837 3.99534C2.72174 3.97081 2.64506 3.91162 2.59145 3.8279C2.53785 3.74418 2.51065 3.64114 2.51452 3.53643C2.51621 3.43159 2.54951 3.33085 2.60847 3.2522C2.66743 3.17355 2.74823 3.12212 2.83645 3.10704C2.90299 3.09759 2.97004 3.09404 3.03703 3.09642H9.3211C9.39418 3.09401 9.46731 3.09874 9.53973 3.11057C9.63032 3.13095 9.7118 3.18849 9.76966 3.27297C9.82752 3.35745 9.85799 3.46337 9.85564 3.57182C9.8507 3.68015 9.81354 3.78299 9.75065 3.86235C9.68777 3.94171 9.60317 3.99256 9.51165 4.00596C9.45086 4.01011 9.38992 4.01011 9.32912 4.00596L6.17004 4.00949Z" fill="#414141"/>
<path d="M5.24807 12.1778C4.46883 12.1778 3.68959 12.1778 2.91135 12.1778C2.86057 12.1813 2.80972 12.1727 2.76181 12.1526C2.71391 12.1325 2.66993 12.1013 2.6325 12.0608C2.59507 12.0203 2.56495 11.9713 2.54394 11.9168C2.52293 11.8624 2.51145 11.8035 2.51019 11.7436C2.50775 11.6828 2.51582 11.622 2.53392 11.5649C2.55201 11.5079 2.57975 11.4557 2.61547 11.4116C2.65118 11.3675 2.69412 11.3324 2.7417 11.3084C2.78928 11.2843 2.84051 11.2719 2.89229 11.2718C2.94645 11.2718 3.0016 11.2718 3.05676 11.2718H6.65712C6.99208 11.2718 7.32705 11.2647 7.66001 11.2812C7.70908 11.2833 7.75729 11.297 7.80174 11.3215C7.84619 11.3461 7.88596 11.3809 7.91866 11.424C7.95136 11.4671 7.97631 11.5175 7.99201 11.5722C8.00771 11.627 8.01383 11.6849 8.01001 11.7425C8.00923 11.8585 7.96985 11.9695 7.9003 12.0518C7.83074 12.134 7.73656 12.181 7.63794 12.1825C7.57075 12.1825 7.50356 12.1825 7.43736 12.1825H5.24807V12.1778Z" fill="#414141"/>
<path d="M10.7345 12.9246C10.7345 12.7253 10.7345 12.5247 10.7345 12.3242C10.727 12.2588 10.7315 12.1923 10.7476 12.1292C10.7638 12.0661 10.7913 12.0077 10.8282 11.9581C10.8651 11.9085 10.9105 11.8687 10.9616 11.8414C11.0126 11.8142 11.068 11.8 11.1241 11.8C11.1801 11.8 11.2355 11.8142 11.2866 11.8414C11.3376 11.8687 11.3831 11.9085 11.42 11.9581C11.4569 12.0077 11.4844 12.0661 11.5005 12.1292C11.5167 12.1923 11.5212 12.2588 11.5137 12.3242C11.5137 12.5459 11.5197 12.7677 11.5137 12.9895C11.5137 13.1216 11.5528 13.1676 11.6631 13.1617C11.8146 13.1547 11.964 13.1558 12.1195 13.1617C12.1717 13.1586 12.224 13.168 12.2731 13.1894C12.3222 13.2108 12.3671 13.2437 12.4051 13.2861C12.4431 13.3285 12.4733 13.3796 12.4939 13.4362C12.5146 13.4928 12.5252 13.5538 12.5252 13.6153C12.5252 13.6769 12.5146 13.7379 12.4939 13.7945C12.4733 13.8511 12.4431 13.9021 12.4051 13.9446C12.3671 13.987 12.3222 14.0199 12.2731 14.0413C12.224 14.0627 12.1717 14.0721 12.1195 14.0689C11.7905 14.076 11.4626 14.076 11.1336 14.0689C11.0813 14.0722 11.029 14.0627 10.9799 14.0411C10.9309 14.0195 10.8861 13.9863 10.8485 13.9434C10.8109 13.9006 10.7811 13.8491 10.7612 13.7921C10.7412 13.7352 10.7314 13.674 10.7325 13.6124V13.5687L10.7345 12.9246Z" fill="#414141"/>
</svg>
