<svg width="21" height="20" viewBox="0 0 21 20" fill="none" xmlns="http://www.w3.org/2000/svg">
<path d="M9.12852 2.06522C9.81739 1.46981 11.8763 1.37183 11.6108 2.97716C11.5877 3.11534 11.6441 3.20578 11.7801 3.24849C13.7377 3.85143 15.1115 5.02591 15.9017 6.77193C16.4174 7.91752 16.3636 9.28921 16.4598 10.5968C16.4643 10.6557 16.4855 10.7122 16.5208 10.7601C16.5561 10.808 16.6042 10.8454 16.6599 10.8682C17.3488 11.1546 18.1839 11.3053 18.5264 11.9798C19.3538 13.6002 17.5258 14.8061 16.0788 14.889C12.1457 15.1126 8.21644 15.0913 4.29105 14.825C1.42397 14.6328 0.496499 11.7424 3.80999 10.8569C3.8687 10.8414 3.92069 10.8077 3.95816 10.7608C3.99563 10.7139 4.01656 10.6564 4.0178 10.5968C4.04474 9.79417 3.97162 8.94252 4.09477 8.23406C4.51553 5.78462 5.95486 4.16044 8.41272 3.36154C8.47291 3.34141 8.52768 3.30826 8.57298 3.26455C8.61829 3.22084 8.65296 3.16769 8.67441 3.10906C8.83219 2.66062 8.74368 2.39683 9.12852 2.06522ZM11.3298 5.48314C11.3298 5.22229 11.224 4.97212 11.0356 4.78767C10.8473 4.60322 10.5918 4.49959 10.3254 4.49959C10.059 4.49959 9.80351 4.60322 9.61514 4.78767C9.42677 4.97212 9.32094 5.22229 9.32094 5.48314C9.32094 5.6123 9.34692 5.7402 9.3974 5.85953C9.44788 5.97886 9.52187 6.08729 9.61514 6.17862C9.70841 6.26995 9.81914 6.34239 9.941 6.39182C10.0629 6.44125 10.1935 6.46669 10.3254 6.46669C10.4573 6.46669 10.5879 6.44125 10.7097 6.39182C10.8316 6.34239 10.9424 6.26995 11.0356 6.17862C11.1289 6.08729 11.2029 5.97886 11.2534 5.85953C11.3038 5.7402 11.3298 5.6123 11.3298 5.48314Z" fill="white"/>
<path d="M11.487 15.801C11.6401 15.801 11.7869 15.8605 11.8952 15.9665C12.0035 16.0725 12.0643 16.2163 12.0643 16.3662V16.7016C12.0643 17.1344 11.8554 17.5494 11.4838 17.8554C11.1121 18.1614 10.608 18.3333 10.0823 18.3333H9.91299C9.38735 18.3333 8.88323 18.1614 8.51155 17.8554C8.13986 17.5494 7.93107 17.1344 7.93107 16.7016V16.3662C7.93107 16.2163 7.99188 16.0725 8.10014 15.9665C8.2084 15.8605 8.35523 15.801 8.50833 15.801H11.487Z" fill="white"/>
</svg>
