<svg width="14" height="12" viewBox="0 0 14 12" fill="none" xmlns="http://www.w3.org/2000/svg">
<g clip-path="url(#clip0_322_1548)">
<path d="M7.99967 3.75004C7.99967 3.70031 8.02038 3.65262 8.05724 3.61746C8.09411 3.58229 8.14411 3.56254 8.19624 3.56254H12.914C12.9661 3.56254 13.0161 3.58229 13.053 3.61746C13.0898 3.65262 13.1106 3.70031 13.1106 3.75004C13.1106 3.79977 13.0898 3.84746 13.053 3.88262C13.0161 3.91778 12.9661 3.93754 12.914 3.93754H8.19624C8.14411 3.93754 8.09411 3.91778 8.05724 3.88262C8.02038 3.84746 7.99967 3.79977 7.99967 3.75004ZM12.914 5.81254H8.19624C8.14411 5.81254 8.09411 5.83229 8.05724 5.86746C8.02038 5.90262 7.99967 5.95031 7.99967 6.00004C7.99967 6.04977 8.02038 6.09746 8.05724 6.13262C8.09411 6.16778 8.14411 6.18754 8.19624 6.18754H12.914C12.9661 6.18754 13.0161 6.16778 13.053 6.13262C13.0898 6.09746 13.1106 6.04977 13.1106 6.00004C13.1106 5.95031 13.0898 5.90262 13.053 5.86746C13.0161 5.83229 12.9661 5.81254 12.914 5.81254ZM12.914 8.06254H9.37568C9.32354 8.06254 9.27354 8.08229 9.23668 8.11746C9.19981 8.15262 9.1791 8.20031 9.1791 8.25004C9.1791 8.29977 9.19981 8.34746 9.23668 8.38262C9.27354 8.41779 9.32354 8.43754 9.37568 8.43754H12.914C12.9661 8.43754 13.0161 8.41779 13.053 8.38262C13.0898 8.34746 13.1106 8.29977 13.1106 8.25004C13.1106 8.20031 13.0898 8.15262 13.053 8.11746C13.0161 8.08229 12.9661 8.06254 12.914 8.06254ZM7.99328 8.95316C8.00627 9.00127 7.99872 9.05234 7.97227 9.09514C7.94583 9.13794 7.90266 9.16898 7.85224 9.18145C7.83621 9.18551 7.81968 9.18756 7.80309 9.18754C7.75954 9.18751 7.71723 9.17368 7.68281 9.14823C7.64838 9.12278 7.6238 9.08714 7.61291 9.04691C7.28316 7.82441 6.04033 6.93754 4.65793 6.93754C3.27554 6.93754 2.0332 7.82441 1.70296 9.04691C1.69732 9.07156 1.68653 9.09486 1.67122 9.11543C1.65592 9.136 1.63643 9.15342 1.61391 9.16664C1.59138 9.17985 1.5663 9.1886 1.54015 9.19235C1.514 9.1961 1.48733 9.19478 1.46172 9.18847C1.43612 9.18216 1.41212 9.17099 1.39115 9.15563C1.37018 9.14026 1.35268 9.12102 1.33969 9.09905C1.3267 9.07708 1.31849 9.05283 1.31555 9.02777C1.31261 9.0027 1.315 8.97733 1.32259 8.95316C1.61352 7.87504 2.53004 7.02473 3.65787 6.70316C3.22882 6.48968 2.88724 6.14509 2.68781 5.72453C2.48837 5.30396 2.4426 4.83175 2.55782 4.38344C2.67304 3.93513 2.94259 3.53664 3.32334 3.25174C3.70408 2.96685 4.17401 2.81201 4.65793 2.81201C5.14185 2.81201 5.61178 2.96685 5.99253 3.25174C6.37328 3.53664 6.64283 3.93513 6.75805 4.38344C6.87327 4.83175 6.8275 5.30396 6.62806 5.72453C6.42862 6.14509 6.08705 6.48968 5.658 6.70316C6.78583 7.02473 7.70481 7.87504 7.99328 8.95316ZM4.65793 6.56254C5.00784 6.56254 5.34989 6.46357 5.64082 6.27814C5.93176 6.09272 6.15851 5.82917 6.29242 5.52082C6.42632 5.21247 6.46136 4.87317 6.39309 4.54582C6.32483 4.21848 6.15633 3.9178 5.90891 3.6818C5.66149 3.4458 5.34626 3.28508 5.00308 3.21996C4.6599 3.15485 4.30418 3.18827 3.98091 3.31599C3.65764 3.44372 3.38133 3.66001 3.18694 3.93751C2.99254 4.21502 2.88878 4.54128 2.88878 4.87504C2.88878 5.32259 3.07517 5.75181 3.40695 6.06828C3.73873 6.38475 4.18872 6.56254 4.65793 6.56254Z" fill="white"/>
</g>
<defs>
<clipPath id="clip0_322_1548">
<rect width="12.5806" height="12" fill="white" transform="translate(0.726318)"/>
</clipPath>
</defs>
</svg>
