<svg width="22" height="24" viewBox="0 0 22 24" fill="none" xmlns="http://www.w3.org/2000/svg">
<path d="M3.91491 4.74159C3.91491 4.61806 3.91179 4.51886 3.91554 4.41966C3.9249 4.15888 4.05782 4.00789 4.31991 4.00415C4.93582 3.99479 5.55173 3.99479 6.16764 4.00415C6.43847 4.00789 6.56889 4.162 6.57638 4.44088C6.57888 4.53259 6.577 4.6243 6.577 4.74159C6.68434 4.74159 6.76796 4.74159 6.85158 4.74159C7.57669 4.74159 8.30181 4.7391 9.02693 4.74222C9.78761 4.74534 10.1814 5.14026 10.1814 5.89455C10.1814 9.89372 10.1814 13.8929 10.1814 17.8921C10.1814 18.6276 9.77701 19.03 9.03566 19.03C6.50899 19.0307 3.98293 19.0307 1.45626 19.03C0.714915 19.03 0.310547 18.6283 0.310547 17.8933C0.310547 13.886 0.310547 9.87937 0.310547 5.87209C0.310547 5.14775 0.707427 4.74721 1.43878 4.74222C2.17139 4.73785 2.90462 4.74159 3.63785 4.74159C3.72147 4.74159 3.80509 4.74159 3.91491 4.74159ZM6.59323 6.3787C6.53395 7.00384 6.4834 7.04938 5.87747 7.04938C5.44066 7.04938 5.00446 7.04938 4.56765 7.04938C4.01476 7.04938 3.94424 6.98325 3.9068 6.42798C3.90618 6.41488 3.89307 6.4024 3.88309 6.38431C3.24284 6.38431 2.60009 6.38431 1.95236 6.38431C1.95236 10.0609 1.95236 13.7201 1.95236 17.3842C4.15704 17.3842 6.34986 17.3842 8.53332 17.3842C8.53332 13.7063 8.53332 10.0466 8.53332 6.37807C7.87997 6.3787 7.24346 6.3787 6.59323 6.3787ZM3.90368 5.22761C3.05938 5.22761 2.24066 5.22636 1.42256 5.22823C0.975758 5.22948 0.781686 5.42102 0.781686 5.86897C0.780438 9.88436 0.780438 13.8998 0.781686 17.9151C0.781686 18.3487 0.977005 18.5447 1.4107 18.5447C3.96858 18.5465 6.52646 18.5465 9.08434 18.5447C9.51554 18.544 9.70462 18.3475 9.70836 17.9095C9.71148 17.5433 9.70899 17.1764 9.70899 16.8102C9.70899 13.1767 9.70899 9.54372 9.70899 5.91015C9.70899 5.41041 9.52989 5.22886 9.03878 5.22761C8.29807 5.22636 7.55735 5.22698 6.81601 5.22761C6.74112 5.22761 6.66624 5.2351 6.59261 5.23946C6.59261 5.46656 6.59261 5.67307 6.59261 5.89455C7.29339 5.89455 7.97794 5.89393 8.66312 5.89518C8.96203 5.8958 9.0263 5.95445 9.0263 6.24581C9.02755 10.0035 9.02755 13.7619 9.0263 17.5196C9.0263 17.8222 8.97576 17.8683 8.66811 17.8683C6.38293 17.869 4.09838 17.869 1.8132 17.8683C1.51991 17.8683 1.46312 17.8184 1.4625 17.5346C1.46125 13.7687 1.46125 10.0029 1.4625 6.23707C1.4625 5.95694 1.52864 5.8958 1.81133 5.89518C2.42724 5.89393 3.04378 5.89455 3.65969 5.89455C3.74144 5.89455 3.82318 5.89455 3.90368 5.89455C3.90368 5.65622 3.90368 5.45595 3.90368 5.22761ZM4.40103 4.49141C4.40103 5.18955 4.40103 5.86398 4.40103 6.54278C4.97201 6.54278 5.52802 6.54278 6.08902 6.54278C6.08902 5.84963 6.08902 5.17583 6.08902 4.49141C5.5224 4.49141 4.97076 4.49141 4.40103 4.49141Z" fill="black"/>
<path d="M21.6477 15.9018C21.6477 16.3304 21.6421 16.7597 21.6502 17.1883C21.6539 17.3692 21.589 17.4778 21.4205 17.5477C20.2786 18.0231 19.1403 18.5066 17.9971 18.9783C17.9085 19.0151 17.7781 19.0113 17.6882 18.9745C16.545 18.5016 15.4068 18.0175 14.2648 17.5408C14.1132 17.4778 14.0508 17.378 14.0508 17.2189C14.0533 16.3379 14.0533 15.4564 14.0508 14.5754C14.0502 14.4157 14.1157 14.3209 14.2679 14.2572C15.4174 13.7793 16.5631 13.2927 17.7138 12.8173C17.7956 12.7836 17.9166 12.7873 18.0002 12.8223C19.1497 13.2983 20.296 13.7843 21.4436 14.2647C21.5946 14.3277 21.6508 14.4313 21.6489 14.5916C21.6433 15.0284 21.6477 15.4651 21.6477 15.9018ZM20.774 14.5162C20.7041 14.4775 20.6798 14.4613 20.653 14.4494C19.765 14.0751 18.8782 13.6989 17.9871 13.3326C17.906 13.2996 17.7868 13.3021 17.7051 13.3357C16.8352 13.6926 15.9697 14.0582 15.1035 14.4232C15.053 14.4444 15.008 14.4781 14.9357 14.5211C15.8873 14.9211 16.8034 15.3079 17.7219 15.6872C17.7924 15.7165 17.8948 15.7228 17.964 15.6941C18.8895 15.3116 19.8124 14.9211 20.774 14.5162ZM14.5294 14.8687C14.5294 15.6042 14.5244 16.3042 14.5369 17.0036C14.5381 17.0735 14.6311 17.1733 14.7048 17.2045C15.589 17.5851 16.477 17.9557 17.365 18.3275C17.4392 18.3587 17.5172 18.3799 17.6146 18.413C17.6146 17.6862 17.6177 16.9943 17.609 16.3024C17.6084 16.2375 17.5453 16.1402 17.4867 16.1152C16.5176 15.6997 15.5435 15.2935 14.5294 14.8687ZM21.1765 14.893C21.1347 14.898 21.1104 14.8961 21.0904 14.9042C20.1294 15.306 19.1684 15.7065 18.2118 16.1177C18.1519 16.1433 18.097 16.2537 18.0951 16.3267C18.0832 16.6923 18.0895 17.0592 18.0895 17.4254C18.0895 17.7486 18.0895 18.0711 18.0895 18.4292C19.1154 17.9981 20.1032 17.5838 21.0885 17.1633C21.1303 17.1453 21.1722 17.0691 21.1728 17.0198C21.1784 16.313 21.1765 15.6067 21.1765 14.893Z" fill="black"/>
<path d="M21.6477 7.81307C21.6477 8.24168 21.6421 8.67092 21.6502 9.09954C21.6539 9.28172 21.5834 9.38528 21.4155 9.45516C20.2811 9.92807 19.1503 10.4097 18.0146 10.8789C17.9198 10.9182 17.78 10.9169 17.6851 10.8776C16.5556 10.4116 15.4324 9.93244 14.3042 9.46452C14.1276 9.39152 14.0496 9.28921 14.0508 9.09767C14.0564 8.23981 14.0558 7.38196 14.0508 6.5241C14.0496 6.33631 14.1144 6.22588 14.2948 6.15101C15.423 5.68371 16.5463 5.20269 17.6758 4.73789C17.7769 4.69609 17.9254 4.69796 18.0271 4.73976C19.1566 5.20456 20.2798 5.68434 21.4074 6.15288C21.5847 6.2265 21.6558 6.33444 21.6514 6.52597C21.6408 6.95521 21.6477 7.38445 21.6477 7.81307ZM14.9319 6.41866C15.0162 6.4561 15.0692 6.48105 15.1235 6.50414C15.9547 6.85414 16.7871 7.19978 17.6152 7.55727C17.7787 7.62777 17.9148 7.63214 18.0795 7.56164C18.9007 7.20727 19.7263 6.86475 20.55 6.51661C20.6143 6.48916 20.6761 6.45547 20.7522 6.41804C20.7091 6.38809 20.6923 6.37062 20.6723 6.36251C19.7762 5.98568 18.8814 5.60635 17.9815 5.23888C17.8954 5.20394 17.7675 5.21392 17.6783 5.25073C16.8296 5.59886 15.9853 5.9576 15.1397 6.31385C15.0786 6.34068 15.0199 6.37437 14.9319 6.41866ZM14.5294 6.77428C14.5294 7.51547 14.5244 8.20924 14.5369 8.90239C14.5382 8.97414 14.6255 9.0777 14.6979 9.1089C15.5909 9.49259 16.4889 9.86568 17.3862 10.24C17.4536 10.2681 17.526 10.2843 17.6146 10.3118C17.6146 9.59055 17.6196 8.89677 17.6071 8.20363C17.6059 8.13313 17.5129 8.03393 17.4393 8.00086C17.0636 7.83054 16.6804 7.67831 16.3004 7.51859C15.7207 7.27589 15.1416 7.03195 14.5294 6.77428ZM18.0895 10.3012C18.1288 10.3012 18.1456 10.3062 18.1581 10.3005C19.1266 9.89563 20.0951 9.49135 21.0605 9.07958C21.1135 9.05712 21.1709 8.9679 21.1715 8.90925C21.179 8.20924 21.1765 7.50861 21.1765 6.78551C21.0786 6.82045 20.9987 6.84478 20.9219 6.8766C20.1694 7.19229 19.4174 7.50986 18.6648 7.82617C18.0895 8.06824 18.0889 8.06762 18.0889 8.69588C18.0895 9.23118 18.0895 9.76586 18.0895 10.3012Z" fill="black"/>
<path d="M6.08478 21.7053C6.08478 21.9917 6.08166 22.2531 6.08603 22.5145C6.08977 22.7485 6.12409 22.9837 6.10038 23.2139C6.09102 23.305 5.96247 23.3842 5.88759 23.4691C5.80647 23.3917 5.66044 23.3187 5.6542 23.2358C5.60553 22.5364 5.58182 21.8351 5.55311 21.1345C5.54625 20.9654 5.63299 20.8731 5.80459 20.865C6.47417 20.8344 7.14375 20.8063 7.81333 20.7726C7.98993 20.7639 8.14406 20.8057 8.14968 21.0035C8.15592 21.2062 7.99679 21.2424 7.82394 21.2486C7.3659 21.2661 6.90849 21.2905 6.43112 21.3634C6.59461 21.4888 6.75311 21.6205 6.9216 21.7384C9.66294 23.6581 13.4526 23.3693 15.8689 21.0584C15.8801 21.0478 15.8913 21.0365 15.9026 21.0259C16.0292 20.8999 16.1703 20.7658 16.3375 20.9417C16.5054 21.1176 16.3618 21.2505 16.2314 21.3722C14.6233 22.8745 12.715 23.5833 10.5228 23.4691C8.93221 23.3867 7.50506 22.8284 6.25452 21.8332C6.20272 21.7927 6.14843 21.7534 6.08478 21.7053Z" fill="black"/>
<path d="M15.5691 2.72082C15.4605 2.62849 15.3999 2.57171 15.3344 2.52118C12.5463 0.363745 8.61804 0.567135 6.06952 3.00033C6.03021 3.03776 5.99277 3.10202 5.94909 3.10639C5.83863 3.11824 5.72506 3.10327 5.61274 3.09953C5.6171 2.98722 5.57779 2.83749 5.63458 2.76949C5.78871 2.58606 5.97654 2.42884 6.16437 2.27723C7.70322 1.03443 9.46734 0.459201 11.4374 0.570879C13.0274 0.66072 14.4558 1.21287 15.7057 2.20923C15.7544 2.24791 15.8043 2.28409 15.8786 2.34025C15.8861 2.266 15.8979 2.20985 15.896 2.15495C15.8817 1.72633 15.8661 1.29834 15.8467 0.870348C15.8393 0.704392 15.906 0.582733 16.0733 0.577118C16.2405 0.571503 16.3104 0.687547 16.3166 0.854751C16.3422 1.5167 16.3765 2.17803 16.4015 2.83999C16.4115 3.10327 16.3453 3.16504 16.0776 3.17814C15.4861 3.20621 14.8945 3.23491 14.3023 3.26299C14.2324 3.26611 14.1619 3.26486 14.092 3.26798C13.9247 3.27546 13.8093 3.19873 13.8049 3.03277C13.8012 2.87867 13.9091 2.80193 14.0658 2.79631C14.3697 2.78571 14.673 2.77136 14.9769 2.75701C15.1553 2.74827 15.3319 2.73517 15.5691 2.72082Z" fill="black"/>
<path d="M6.40739 8.65719C6.72689 8.65719 7.04639 8.65407 7.36589 8.65781C7.71035 8.66218 7.88196 8.83562 7.88695 9.17627C7.8882 9.26985 7.88945 9.36344 7.88695 9.45702C7.87884 9.74651 7.71659 9.9368 7.42892 9.94179C6.74311 9.95302 6.05731 9.95302 5.37151 9.94179C5.10006 9.93742 4.94655 9.76959 4.92221 9.49757C4.9116 9.38153 4.91222 9.26361 4.91909 9.14757C4.93719 8.82813 5.10505 8.66467 5.42517 8.65906C5.75216 8.65282 6.07977 8.65719 6.40739 8.65719ZM5.41207 9.43768C6.09413 9.43768 6.7506 9.43768 7.40458 9.43768C7.40458 9.33224 7.40458 9.24864 7.40458 9.14944C6.7375 9.14944 6.08102 9.14944 5.41207 9.14944C5.41207 9.25113 5.41207 9.34035 5.41207 9.43768Z" fill="black"/>
<path d="M6.39714 12.5303C6.07764 12.5303 5.75814 12.5335 5.43864 12.5297C5.10291 12.5253 4.93567 12.3644 4.9182 12.0318C4.91258 11.9308 4.91258 11.8291 4.91882 11.728C4.93817 11.4186 5.09667 11.2489 5.40432 11.2445C6.06641 11.2358 6.72912 11.2358 7.39183 11.2439C7.71882 11.2476 7.88169 11.4317 7.88669 11.7648C7.88793 11.8584 7.88918 11.952 7.88606 12.0456C7.8767 12.3438 7.70385 12.5228 7.40244 12.5291C7.06734 12.5359 6.73224 12.5303 6.39714 12.5303ZM5.41243 12.04C6.08887 12.04 6.73911 12.04 7.3962 12.04C7.3962 11.9314 7.3962 11.8372 7.3962 11.7411C6.726 11.7411 6.07577 11.7411 5.41243 11.7411C5.41243 11.8434 5.41243 11.9333 5.41243 12.04Z" fill="black"/>
<path d="M6.40837 15.1076C6.08138 15.1076 5.75377 15.1095 5.42678 15.107C5.10291 15.1045 4.93754 14.9485 4.91882 14.6266C4.91258 14.5181 4.91196 14.4082 4.92007 14.2997C4.94129 13.999 5.09542 13.8386 5.39433 13.8355C6.06453 13.828 6.73411 13.828 7.40431 13.8355C7.72694 13.8393 7.88107 14.0102 7.88731 14.3371C7.88856 14.4226 7.88856 14.5087 7.88731 14.5942C7.88232 14.9404 7.71633 15.1051 7.3675 15.107C7.04737 15.1095 6.72787 15.1076 6.40837 15.1076ZM7.40931 14.3234C6.73037 14.3234 6.07389 14.3234 5.41804 14.3234C5.41804 14.4338 5.41804 14.5287 5.41804 14.6204C6.09261 14.6204 6.74846 14.6204 7.40931 14.6204C7.40931 14.5162 7.40931 14.432 7.40931 14.3234Z" fill="black"/>
<path d="M3.31871 9.50441C3.64008 9.19059 3.91465 8.92544 4.18548 8.65591C4.30279 8.53925 4.42573 8.46687 4.568 8.60351C4.70841 8.73889 4.651 8.86679 4.53181 8.98658C4.21231 9.30664 3.89281 9.62732 3.57643 9.9505C3.42729 10.1034 3.28439 10.1077 3.13462 9.95299C2.98797 9.80201 2.83696 9.6554 2.68969 9.50504C2.57986 9.39336 2.56364 9.27232 2.67908 9.15628C2.79702 9.03774 2.91933 9.06145 3.02604 9.17312C3.12776 9.27919 3.22136 9.39336 3.31871 9.50441Z" fill="black"/>
<path d="M3.32789 14.6821C3.63803 14.3733 3.91011 14.1063 4.17719 13.8349C4.30075 13.7095 4.43179 13.634 4.57719 13.7812C4.71635 13.9216 4.6346 14.0489 4.5204 14.1643C4.20777 14.4793 3.89763 14.7975 3.58312 15.1107C3.4034 15.2898 3.31292 15.2885 3.13133 15.112C2.98031 14.9654 2.83304 14.815 2.68577 14.6653C2.58281 14.5605 2.56596 14.4432 2.66892 14.3346C2.77875 14.2186 2.90668 14.2229 3.01838 14.334C3.12197 14.4375 3.21432 14.5536 3.32789 14.6821Z" fill="black"/>
<path d="M3.3322 12.0892C3.63298 11.791 3.90568 11.5252 4.17277 11.2544C4.2957 11.1297 4.42986 11.0511 4.57464 11.1952C4.72503 11.3449 4.62456 11.4753 4.50537 11.5945C4.1971 11.9033 3.89258 12.2159 3.58306 12.5241C3.40522 12.7013 3.30787 12.7013 3.13002 12.5284C2.97901 12.3818 2.83174 12.2315 2.68384 12.0817C2.57963 11.9769 2.56528 11.8602 2.66637 11.7504C2.77495 11.6331 2.89976 11.6338 3.01333 11.7479C3.11816 11.8521 3.21614 11.9638 3.3322 12.0892Z" fill="black"/>
</svg>
