<svg width="24" height="24" viewBox="0 0 24 24" fill="none" xmlns="http://www.w3.org/2000/svg">
<path d="M11.6311 6.57212C11.8713 6.57212 12.0941 6.57212 12.3312 6.57212C12.262 4.76657 12.8629 3.24427 14.227 2.05949C15.3371 1.09495 16.6469 0.663213 18.1114 0.753054C20.8215 0.91901 23.0854 3.10077 23.1971 5.97381C23.2589 7.55601 22.7066 8.92671 21.5778 10.041C20.4496 11.154 19.073 11.6606 17.4774 11.6063C17.4774 11.8827 17.4774 12.1441 17.4774 12.4305C19.5167 12.3875 21.1522 13.1779 22.3122 14.8687C23.0498 15.9437 23.3269 17.1553 23.189 18.4467C22.8851 21.2904 20.4071 23.4678 17.4468 23.2919C14.4098 23.111 12.1534 20.4544 12.3456 17.5683C12.1091 17.5683 11.8726 17.5683 11.6136 17.5683C11.6548 19.5186 10.9253 21.1139 9.34035 22.2781C8.2683 23.0654 7.04587 23.4023 5.72672 23.2788C2.89871 23.0149 0.797047 20.7651 0.745255 17.9919C0.715926 16.411 1.26568 15.0615 2.39638 13.9634C3.52646 12.866 4.90053 12.3737 6.48364 12.4386C6.48364 12.1566 6.48364 11.8952 6.48364 11.6126C4.50304 11.6519 2.9012 10.8988 1.74492 9.28669C0.919353 8.13623 0.612965 6.83291 0.807656 5.43227C1.19017 2.68214 3.61257 0.570253 6.55478 0.75243C9.35158 0.924625 11.8002 3.32849 11.6311 6.57212ZM3.06282 21.6024C3.0778 21.5749 3.08716 21.5625 3.09215 21.5481C3.11025 21.4969 3.1246 21.4439 3.14394 21.3934C3.5015 20.4656 4.14485 19.8293 5.11956 19.6122C5.58319 19.5086 6.07741 19.518 6.5579 19.5161C7.75849 19.5117 8.81806 20.2791 9.21243 21.4102C9.23365 21.4714 9.25798 21.5313 9.28294 21.5974C10.5422 20.5786 11.1132 19.0307 11.037 17.6076C11.0339 17.5477 11.0289 17.4653 10.9909 17.4329C10.7138 17.1989 10.7369 16.8839 10.7381 16.5707C10.74 16.0073 10.7363 16.0123 10.2258 15.7939C10.101 15.7403 10.0274 15.764 9.94127 15.8551C9.77529 16.0304 9.60493 16.2026 9.42771 16.3667C9.14816 16.6249 8.8037 16.6293 8.52664 16.3679C8.23773 16.0953 7.9563 15.8133 7.68298 15.5256C7.41341 15.2418 7.4209 14.8961 7.6911 14.6073C7.82963 14.4594 7.96753 14.3084 8.12229 14.1793C8.28702 14.042 8.27267 13.9222 8.21776 13.7201C8.11417 13.3401 7.89078 13.2609 7.55194 13.3096C7.4677 13.3214 7.38096 13.3102 7.29485 13.3114C7.04587 13.3164 6.81686 13.2765 6.63652 13.0762C6.59346 13.0282 6.49737 13.0057 6.42685 13.0076C6.0849 13.0176 5.73795 13.0089 5.40223 13.0625C2.50683 13.5273 0.682854 16.4184 1.50343 19.2409C1.77799 20.1843 2.30278 20.9691 3.06282 21.6024ZM8.98155 7.48675C9.20057 7.63961 9.37717 7.74692 9.53442 7.87731C9.68356 8.00147 9.81834 8.14496 9.94938 8.28908C10.0386 8.38704 10.1179 8.39015 10.2364 8.33837C10.7375 8.12001 10.7388 8.12375 10.7394 7.57784C10.7394 7.45306 10.7275 7.32579 10.7475 7.20413C10.7675 7.08434 10.7874 6.93211 10.8673 6.86161C11.0595 6.69191 11.0626 6.48727 11.0526 6.26954C11.0408 6.00563 11.0377 5.73922 11.0033 5.47781C10.662 2.84872 8.10606 0.946462 5.47649 1.35948C3.18762 1.71822 1.50031 3.5662 1.34181 5.88584C1.16084 8.53989 3.23443 10.8864 5.89832 11.0342C6.15354 11.0486 6.44557 11.0935 6.65899 10.993C6.93605 10.8627 7.20437 10.7928 7.48829 10.8315C7.89827 10.8876 8.14163 10.7585 8.24459 10.3436C8.27891 10.2063 8.29077 10.1208 8.18219 10.0173C7.9744 9.81825 7.74975 9.62422 7.59437 9.38776C7.49017 9.22992 7.39594 9.18999 7.22808 9.19061C5.94886 9.1956 4.67027 9.19311 3.39105 9.19311C3.31305 9.19311 3.21633 9.21619 3.16204 9.17876C3.06345 9.11138 2.94239 9.01904 2.91618 8.91547C2.87812 8.76137 3.00167 8.65905 3.15455 8.62412C3.23443 8.60602 3.31804 8.60602 3.41289 8.59729C3.41289 8.49622 3.41289 8.41137 3.41289 8.32589C3.41289 7.49923 3.42163 6.67257 3.4079 5.84653C3.40353 5.59323 3.49651 5.45722 3.73051 5.38111C3.96701 5.30375 4.19103 5.19082 4.42815 5.1172C4.60475 5.0623 4.66965 4.97558 4.66278 4.78467C4.64656 4.35667 4.65654 3.92743 4.65904 3.49819C4.66029 3.31227 4.73267 3.1719 4.94234 3.17252C5.14826 3.17314 5.22751 3.30915 5.23063 3.4957C5.235 3.72155 5.23188 3.94802 5.23188 4.17387C5.23188 4.37102 5.23188 4.56817 5.23188 4.79777C5.53015 4.68297 5.78163 4.58315 6.0356 4.49019C6.29768 4.39411 6.4618 4.50204 6.47678 4.78279C6.48551 4.94064 6.47802 5.09911 6.47802 5.2869C6.79252 5.16524 7.05773 5.05544 7.32855 4.96185C7.45085 4.91943 7.49578 4.85953 7.49266 4.72727C7.4833 4.35355 7.48767 3.97859 7.49017 3.60488C7.49141 3.36094 7.59437 3.22929 7.77721 3.22929C7.95817 3.22929 8.05552 3.35719 8.05739 3.608C8.05989 3.94865 8.05801 4.28992 8.05801 4.66301C8.20965 4.60935 8.3332 4.56817 8.45426 4.52263C8.83116 4.37976 8.97905 4.47896 8.97905 4.88012C8.98155 5.76792 8.98155 6.65635 8.98155 7.48675ZM22.6654 17.8634C22.643 17.6157 22.6349 17.3649 22.5962 17.1197C22.2037 14.6522 20.0296 12.8859 17.5348 13.0045C17.4749 13.0076 17.3894 13.0057 17.3595 13.0425C17.1161 13.3364 16.7848 13.3133 16.4565 13.3121C15.9162 13.3096 15.9112 13.3096 15.7134 13.8293C15.6859 13.901 15.7096 14.0277 15.7595 14.0863C15.9155 14.2697 16.0996 14.4288 16.2656 14.6048C16.537 14.8924 16.5458 15.2393 16.2768 15.5231C16.0035 15.812 15.7221 16.0928 15.4338 16.366C15.1574 16.6281 14.8117 16.6249 14.5327 16.3679C14.3611 16.2094 14.1933 16.0453 14.0379 15.8713C13.9306 15.7509 13.837 15.7696 13.6922 15.8052C13.2816 15.9056 13.1462 16.1458 13.2173 16.5457C13.2385 16.6661 13.2329 16.7965 13.2136 16.9188C13.1949 17.0392 13.1786 17.1939 13.1 17.2638C12.8984 17.4422 12.9047 17.6619 12.9178 17.8852C12.9346 18.1722 12.9552 18.4604 13.0045 18.7431C13.447 21.2973 15.933 23.0804 18.4939 22.6855C20.8889 22.3149 22.6523 20.271 22.6654 17.8634ZM8.068 9.06833C8.07299 9.08143 8.07549 9.09952 8.08547 9.10951C8.27579 9.30479 8.46612 9.50007 8.65769 9.6941C8.88545 9.92494 8.93911 10.1857 8.79934 10.4839C8.74317 10.6037 8.69325 10.726 8.64645 10.8496C8.48172 11.2813 8.30512 11.4036 7.83836 11.4048C7.58501 11.4054 7.33104 11.4048 7.08269 11.4048C7.08269 11.8696 7.08269 12.2932 7.08269 12.7325C7.38346 12.7325 7.66364 12.73 7.9432 12.7331C8.26518 12.7368 8.49045 12.8841 8.60714 13.1898C8.65956 13.3277 8.71572 13.4643 8.77562 13.5997C8.94535 13.9815 8.91353 14.1886 8.614 14.4825C8.42056 14.6722 8.21402 14.8481 8.02432 15.0209C8.37813 15.3703 8.68077 15.6698 9.03271 16.0179C9.20869 15.8239 9.38965 15.6105 9.58621 15.4127C9.85765 15.1382 10.0779 15.1064 10.4324 15.2636C10.5459 15.3141 10.6608 15.3628 10.7768 15.4077C11.1912 15.5674 11.3153 15.749 11.3166 16.2032C11.3172 16.4571 11.3166 16.711 11.3166 16.9668C11.7765 16.9668 12.2002 16.9668 12.617 16.9668C12.6283 16.9338 12.6376 16.9188 12.6376 16.9045C12.6401 16.663 12.6414 16.4216 12.6426 16.1795C12.6451 15.754 12.7718 15.5699 13.1612 15.4177C13.2841 15.3697 13.4051 15.3166 13.5262 15.2636C13.8912 15.102 14.1028 15.137 14.3892 15.4277C14.5795 15.6211 14.7561 15.827 14.9171 16.0035C15.2734 15.6573 15.5817 15.3572 15.9193 15.029C15.7096 14.8294 15.4981 14.6347 15.294 14.4313C15.0712 14.2098 15.0207 13.9528 15.1561 13.6627C15.2185 13.5286 15.2741 13.3919 15.3277 13.254C15.4806 12.8616 15.6647 12.7325 16.0859 12.73C16.348 12.7287 16.6107 12.73 16.8809 12.73C16.8809 12.2752 16.8809 11.8515 16.8809 11.4042C16.6712 11.4042 16.4778 11.4042 16.2849 11.4042C15.6048 11.4042 15.5255 11.3505 15.2647 10.7173C15.2472 10.6742 15.2291 10.6312 15.2098 10.5888C15.0032 10.1314 15.0338 9.96487 15.3851 9.61112C15.5636 9.43144 15.7396 9.24988 15.88 9.10639C15.5567 8.77697 15.2585 8.47438 14.9202 8.12999C14.7674 8.29907 14.6064 8.48935 14.4323 8.66716C14.0922 9.01405 13.9118 9.04337 13.4757 8.84622C13.3977 8.81128 13.319 8.77759 13.2392 8.74702C12.7474 8.56048 12.6445 8.41074 12.6445 7.87482C12.6445 7.63711 12.6445 7.40003 12.6445 7.16607C12.1815 7.16607 11.7634 7.16607 11.3178 7.16607C11.3178 7.44308 11.3191 7.70574 11.3178 7.96903C11.316 8.37705 11.1843 8.56734 10.8093 8.71333C10.7007 8.75576 10.5921 8.79881 10.486 8.84622C10.0492 9.04275 9.87388 9.01031 9.52818 8.66716C9.34784 8.48811 9.16563 8.31092 8.99527 8.14309C8.67453 8.46253 8.37751 8.75888 8.068 9.06833ZM16.4715 8.98473C16.5015 9.36468 16.2569 9.5793 16.0172 9.77208C15.7177 10.0135 15.6042 10.2494 15.8232 10.6125C15.9105 10.7578 15.9742 10.8296 16.1495 10.8296C16.5483 10.8302 16.9645 10.7472 17.3227 11.018C17.3545 11.0423 17.4138 11.0373 17.46 11.0355C17.8175 11.0205 18.1807 11.0373 18.5314 10.9799C21.2102 10.537 22.9762 8.09381 22.5612 5.39296C22.1669 2.82688 19.7351 0.943342 17.0344 1.36759C14.4791 1.76938 12.7655 3.94677 12.9134 6.52845C12.9165 6.58086 12.9122 6.6576 12.9434 6.68131C13.256 6.92525 13.2485 7.27026 13.2136 7.60218C13.1724 7.98899 13.2741 8.23044 13.6822 8.32589C13.8351 8.36146 13.9274 8.37643 14.0485 8.25602C14.3137 7.99211 14.6007 7.75004 14.9327 7.44995C14.9327 6.66571 14.929 5.78477 14.9371 4.90445C14.9383 4.78654 14.9702 4.65489 15.0301 4.55445C15.2491 4.18697 15.4893 3.83135 15.7146 3.46762C15.802 3.32662 15.9137 3.26922 16.0803 3.26985C17.2029 3.27421 18.3261 3.27546 19.4487 3.26922C19.6259 3.2686 19.742 3.33224 19.8324 3.47885C20.0446 3.82387 20.2717 4.15952 20.4752 4.50953C20.5413 4.6237 20.585 4.76907 20.5856 4.90071C20.5937 6.12479 20.5906 7.34825 20.5906 8.57233C20.5906 8.91485 20.5232 8.9841 20.1831 8.9841C19.0368 8.98473 17.8911 8.98473 16.7448 8.98473C16.66 8.98473 16.5757 8.98473 16.4715 8.98473ZM20.024 5.06979C19.5367 5.06979 19.0736 5.06979 18.5863 5.06979C18.5863 5.18396 18.5869 5.28316 18.5863 5.38298C18.5857 5.49216 18.5919 5.60197 18.5813 5.7099C18.5595 5.94137 18.3673 6.04618 18.162 5.94074C18.1002 5.90892 18.0372 5.87211 17.9879 5.82407C17.8406 5.67995 17.7002 5.66498 17.5504 5.81908C17.5186 5.85215 17.4774 5.88771 17.435 5.89645C17.3214 5.92015 17.1779 5.97818 17.0968 5.93263C17.0138 5.88646 16.9632 5.73673 16.9489 5.62568C16.9252 5.44475 16.9427 5.2582 16.9427 5.07166C16.4497 5.07166 15.9873 5.07166 15.5024 5.07166C15.5024 5.17273 15.5024 5.25695 15.5024 5.34118C15.5024 5.98067 15.5299 6.62141 15.4925 7.25841C15.4681 7.67829 15.5848 7.98712 15.9087 8.24853C16.0428 8.35709 16.1583 8.42634 16.3374 8.42509C17.4837 8.41698 18.6293 8.42135 19.7757 8.42135C19.8574 8.42135 19.9391 8.42135 20.024 8.42135C20.024 7.28586 20.024 6.18843 20.024 5.06979ZM6.26212 20.0788C6.06306 20.0788 5.93077 20.0751 5.79848 20.0795C4.7308 20.1144 3.88589 20.777 3.62443 21.774C3.58761 21.9137 3.59573 22.0023 3.738 22.0784C5.36666 22.955 6.99158 22.9544 8.61837 22.0747C8.73132 22.0135 8.7725 21.9449 8.73818 21.8139C8.60714 21.316 8.35379 20.8999 7.95193 20.5748C7.43588 20.1587 6.8362 20.047 6.26212 20.0788ZM3.97575 8.59854C4.63096 8.59854 5.25746 8.59854 5.88771 8.59854C5.88771 7.45119 5.88771 6.31945 5.88771 5.159C5.26433 5.40107 4.66341 5.63254 4.06623 5.87149C4.02442 5.88834 3.98012 5.96071 3.98012 6.0075C3.9745 6.86473 3.97575 7.72134 3.97575 8.59854ZM6.48177 8.59916C7.12262 8.621 7.77159 8.77198 8.18656 8.10379C8.20278 8.07821 8.22774 8.05637 8.2527 8.03765C8.38187 7.94095 8.42181 7.81617 8.41931 7.65333C8.40995 7.09308 8.41557 6.5322 8.41557 5.97194C8.41557 5.71053 8.41557 5.44911 8.41557 5.18645C8.36565 5.18645 8.34007 5.17959 8.32072 5.1877C7.74788 5.40731 7.17442 5.62443 6.60657 5.85652C6.54604 5.88085 6.48926 5.99502 6.48738 6.06864C6.47678 6.52783 6.48177 6.98701 6.48177 7.4462C6.48177 7.82615 6.48177 8.20611 6.48177 8.59916ZM17.0344 3.83572C16.7561 3.83572 16.4934 3.83322 16.2313 3.83822C16.1926 3.83884 16.1396 3.86754 16.1183 3.89936C15.9967 4.08278 15.8818 4.27182 15.757 4.47147C16.182 4.47147 16.572 4.47147 16.9701 4.47147C16.9919 4.25623 17.0119 4.05845 17.0344 3.83572ZM18.5738 4.4696C18.9775 4.4696 19.3657 4.4696 19.7794 4.4696C19.6558 4.27307 19.5516 4.10088 19.4406 3.93367C19.4131 3.89249 19.3619 3.84196 19.3201 3.84071C19.0593 3.83198 18.7985 3.83634 18.517 3.83634C18.5382 4.07093 18.5557 4.27058 18.5738 4.4696ZM17.6085 3.8457C17.5854 4.07592 17.5629 4.28368 17.5442 4.49081C17.5255 4.69545 17.5105 4.90071 17.4968 5.0779C17.6858 5.0779 17.8468 5.0779 18.0297 5.0779C18.0091 4.73662 17.9885 4.37414 17.9648 4.01166C17.961 3.95863 17.9442 3.90684 17.9311 3.8457C17.8269 3.8457 17.7289 3.8457 17.6085 3.8457Z" fill="black"/>
<path d="M4.54297 17.5352C4.54172 16.6337 5.27244 15.9062 6.17725 15.9062C7.07957 15.9062 7.8134 16.6412 7.80903 17.5396C7.80466 18.4212 7.06896 19.158 6.18411 19.1667C5.29615 19.1755 4.54422 18.428 4.54297 17.5352ZM6.18723 18.5853C6.77006 18.5809 7.23744 18.1111 7.23619 17.5303C7.23557 16.9463 6.74198 16.4571 6.16227 16.4665C5.58881 16.4752 5.11144 16.9588 5.11144 17.5315C5.11144 18.1173 5.5938 18.5896 6.18723 18.5853Z" fill="black"/>
<path d="M17.7749 20.8737C16.9406 20.8737 16.107 20.8749 15.2727 20.873C14.9607 20.8724 14.8833 20.7951 14.8833 20.4893C14.8827 19.3595 14.887 18.229 14.8789 17.0991C14.8777 16.8913 14.9544 16.7709 15.1335 16.6742C15.941 16.2369 16.7453 15.7939 17.5459 15.3447C17.7138 15.2505 17.8542 15.248 18.0239 15.3435C18.8314 15.797 19.6426 16.2437 20.4557 16.6861C20.6179 16.774 20.6916 16.8857 20.6903 17.0741C20.6847 18.2196 20.6884 19.3651 20.6866 20.5112C20.6859 20.7888 20.603 20.8724 20.3234 20.8737C19.4741 20.8755 18.6248 20.8737 17.7749 20.8737ZM20.125 20.2959C20.125 19.2777 20.1281 18.2876 20.1181 17.2981C20.1175 17.222 20.0395 17.1172 19.9683 17.0766C19.2982 16.6961 18.6199 16.3298 17.9484 15.9511C17.8211 15.8794 17.7256 15.8944 17.6058 15.9617C16.9469 16.3311 16.2873 16.6979 15.6215 17.0548C15.4855 17.1278 15.4374 17.2083 15.4387 17.3624C15.4461 18.2745 15.4424 19.1867 15.443 20.0994C15.443 20.1662 15.4518 20.2329 15.4561 20.2953C15.7107 20.2953 15.9422 20.2953 16.1981 20.2953C16.1981 20.1999 16.1981 20.1169 16.1981 20.0333C16.1981 19.2222 16.1968 18.4111 16.1987 17.6007C16.1993 17.2994 16.2879 17.212 16.5881 17.2114C17.3756 17.2102 18.1637 17.2102 18.9512 17.2114C19.2957 17.212 19.3687 17.2875 19.3687 17.6419C19.3693 18.4448 19.3687 19.2484 19.3687 20.0514C19.3687 20.1331 19.3687 20.2148 19.3687 20.2966C19.6382 20.2959 19.8691 20.2959 20.125 20.2959ZM18.7815 18.7505C18.7815 18.4161 18.7815 18.1023 18.7815 17.7841C18.1094 17.7841 17.4561 17.7841 16.7884 17.7841C16.7884 18.1092 16.7884 18.4249 16.7884 18.7505C17.4555 18.7505 18.1088 18.7505 18.7815 18.7505ZM18.7883 19.3202C18.4351 19.3202 18.1094 19.3202 17.7831 19.3202C17.453 19.3202 17.1222 19.3202 16.7934 19.3202C16.7934 19.6677 16.7934 19.9809 16.7934 20.3072C17.1385 20.3072 17.4642 20.3072 17.7899 20.3072C18.1206 20.3072 18.4507 20.3072 18.7877 20.3072C18.7883 19.964 18.7883 19.6564 18.7883 19.3202Z" fill="black"/>
<path d="M11.9787 14.0308C10.7781 14.0302 9.78844 13.0425 9.78906 11.8447C9.78969 10.6487 10.7831 9.65915 11.9818 9.6604C13.1824 9.66165 14.1733 10.6511 14.1715 11.8478C14.1696 13.0463 13.1806 14.0314 11.9787 14.0308ZM13.593 11.8465C13.5936 10.9463 12.8779 10.2338 11.9756 10.2356C11.0839 10.2375 10.3763 10.9406 10.3688 11.8334C10.3607 12.7256 11.0833 13.4605 11.9743 13.4662C12.8598 13.4718 13.5924 12.7393 13.593 11.8465Z" fill="black"/>
</svg>
