<svg width="24" height="24" viewBox="0 0 24 24" fill="none" xmlns="http://www.w3.org/2000/svg">
<path d="M1.73131 24C1.55104 23.9307 1.36078 23.8808 1.19299 23.7891C0.549867 23.4373 0.232986 22.8803 0.204292 22.153C0.20242 22.0987 0.203044 22.0438 0.203044 21.9895C0.203044 15.3463 0.204292 8.70298 0.201173 2.05971C0.200549 1.23008 0.506826 0.581343 1.2772 0.223916C1.52234 0.110388 1.81677 0.0548711 2.08874 0.0548711C6.83696 0.0448905 11.5858 0.0473857 16.334 0.0480095C17.4275 0.0480095 18.2166 0.82836 18.2328 1.92933C18.2409 2.47452 18.2341 3.01971 18.2696 3.57861C18.2965 3.53183 18.327 3.48692 18.3489 3.43826C18.5485 2.98228 18.7518 2.52817 18.9427 2.06844C19.0756 1.74781 19.3007 1.57378 19.6488 1.54446C19.7074 1.53947 19.7842 1.48021 19.8129 1.42532C19.9058 1.24629 19.9744 1.05479 20.0618 0.872649C20.3992 0.174013 21.217 -0.140373 21.9181 0.1553C22.6255 0.453468 22.9723 1.27436 22.6966 2.00606C22.6124 2.23 22.5138 2.44895 22.4178 2.68037C22.6498 2.76957 22.817 2.89183 22.7927 3.16317C22.7896 3.19873 22.8632 3.25549 22.9124 3.27857C23.1102 3.36965 23.3129 3.45011 23.5119 3.53744C23.8394 3.68091 23.9061 3.83935 23.767 4.16372C22.8438 6.31514 21.9194 8.46657 20.9937 10.6167C20.8795 10.8818 20.6699 10.9829 20.4604 10.8843C20.257 10.7883 20.204 10.5868 20.3188 10.3192C21.1627 8.35429 22.008 6.38937 22.8532 4.42509C22.8931 4.33214 22.9324 4.2392 22.9842 4.11756C22.8207 4.04645 22.6617 3.97721 22.4839 3.89924C22.2038 4.54735 21.9319 5.17362 21.6611 5.80052C19.6482 10.4639 17.6359 15.1273 15.6186 19.7888C15.5618 19.9204 15.4726 20.0483 15.369 20.1469C14.681 20.8031 13.983 21.45 13.2919 22.1031C13.0205 22.3594 12.7142 22.4405 12.3705 22.2852C12.0399 22.1361 11.884 21.8691 11.8858 21.5024C11.8896 20.5355 11.8834 19.5686 11.8896 18.6018C11.8902 18.4745 11.9239 18.3392 11.9744 18.2219C13.7772 14.0363 15.5849 9.85323 17.3857 5.66641C17.4537 5.50797 17.4918 5.32395 17.493 5.15179C17.503 4.10696 17.483 3.06212 17.503 2.01729C17.5161 1.32489 17.0439 0.773468 16.2717 0.775339C11.5702 0.789062 6.86815 0.789062 2.16671 0.775339C1.4163 0.772844 0.934116 1.29744 0.93474 2.01604C0.943473 8.6905 0.93973 15.365 0.940354 22.0394C0.940354 22.8154 1.38074 23.2608 2.15423 23.2614C6.86378 23.2633 11.5733 23.2633 16.2829 23.2614C17.0564 23.2614 17.4968 22.8148 17.4974 22.0401C17.4986 20.4419 17.498 18.8432 17.498 17.245C17.498 17.1752 17.4936 17.1041 17.5011 17.0348C17.5205 16.8471 17.634 16.7348 17.8136 16.7092C17.997 16.683 18.1368 16.7697 18.1973 16.945C18.2297 17.0379 18.2335 17.1434 18.2335 17.2438C18.2353 18.8188 18.2353 20.3939 18.2347 21.9689C18.2347 23.0437 17.7731 23.6613 16.7389 23.9725C16.7251 23.9769 16.7145 23.9906 16.7027 24C11.7118 24 6.72156 24 1.73131 24ZM15.031 19.296C16.2667 16.4348 17.4943 13.5916 18.7287 10.7334C17.9565 10.4003 17.203 10.0747 16.4313 9.74158C15.1944 12.6066 13.9674 15.4504 12.7348 18.3055C13.5152 18.6423 14.2618 18.9642 15.031 19.296ZM16.7239 9.06353C17.4961 9.39725 18.2503 9.72349 19.0207 10.0566C19.9975 7.79475 20.9687 5.5454 21.945 3.28356C21.1727 2.94984 20.4198 2.62485 19.6482 2.29175C18.6713 4.55421 17.702 6.79857 16.7239 9.06353ZM12.6512 19.0727C12.6512 19.9385 12.6512 20.7757 12.6512 21.6907C13.3181 21.0657 13.9312 20.49 14.5637 19.8974C13.9088 19.6148 13.2844 19.3459 12.6512 19.0727ZM21.7347 2.38906C21.8352 2.15265 21.9325 1.9493 22.0098 1.73846C22.1427 1.37791 21.9768 0.98992 21.6374 0.839588C21.2962 0.688009 20.9032 0.830855 20.7292 1.18142C20.6269 1.38789 20.5433 1.60372 20.4441 1.83202C20.8814 2.02041 21.3 2.2013 21.7347 2.38906Z" fill="black"/>
<path d="M12.8413 3.87866C12.8413 3.51001 12.8413 3.17067 12.8413 2.81698C10.4029 2.81698 7.97452 2.81698 5.52992 2.81698C5.52992 3.16256 5.52992 3.50751 5.52992 3.87804C5.62348 3.87804 5.70707 3.87804 5.79066 3.87804C6.99144 3.87804 8.19159 3.87804 9.39237 3.87804C9.47783 3.87804 9.56516 3.87367 9.64937 3.88552C9.8365 3.91234 9.94005 4.03336 9.95752 4.21425C9.97374 4.38829 9.88578 4.51991 9.72298 4.5773C9.63066 4.60973 9.52399 4.6141 9.42418 4.6141C8.14543 4.61659 6.8673 4.61659 5.58855 4.61535C5.00033 4.61472 4.77452 4.38455 4.77452 3.79071C4.77452 3.44014 4.7714 3.08895 4.77576 2.73839C4.78013 2.33168 5.04274 2.06346 5.45132 2.06346C7.93834 2.06096 10.4254 2.06096 12.9124 2.06346C13.3035 2.06408 13.5648 2.30486 13.5798 2.69535C13.5967 3.12326 13.596 3.55305 13.5792 3.98096C13.5655 4.34463 13.344 4.58478 12.9766 4.60162C12.4246 4.62657 11.87 4.61971 11.3167 4.60911C11.0716 4.60412 10.935 4.43882 10.9462 4.21862C10.9568 4.01028 11.0972 3.8824 11.3404 3.88053C11.8301 3.87554 12.321 3.87866 12.8413 3.87866Z" fill="black"/>
<path d="M9.21913 6.83914C7.37898 6.83914 5.53944 6.83914 3.69929 6.83914C3.31816 6.83914 3.13414 6.71501 3.14287 6.46425C3.15098 6.22347 3.33375 6.10246 3.69679 6.10246C7.37648 6.10183 11.0568 6.10183 14.7365 6.10246C15.1083 6.10246 15.3004 6.23595 15.2923 6.48484C15.2848 6.72686 15.1108 6.83914 14.739 6.83914C12.8988 6.83914 11.0587 6.83914 9.21913 6.83914Z" fill="black"/>
<path d="M9.21892 9.12777C7.37876 9.12777 5.53923 9.12777 3.69907 9.12777C3.6211 9.12777 3.5425 9.13152 3.46515 9.12216C3.2643 9.09783 3.15576 8.96746 3.14703 8.77846C3.13829 8.59881 3.2356 8.46407 3.41837 8.41853C3.50009 8.39795 3.58804 8.39545 3.67287 8.39545C7.36816 8.39421 11.0641 8.39483 14.7593 8.39483C14.8136 8.39483 14.8691 8.39296 14.9228 8.39857C15.1448 8.42228 15.2983 8.58072 15.2914 8.77596C15.2846 8.97744 15.1317 9.12403 14.9016 9.12528C14.1923 9.12964 13.4825 9.12777 12.7732 9.12777C11.5893 9.12777 10.4041 9.12777 9.21892 9.12777Z" fill="black"/>
<path d="M7.90789 11.4202C6.51311 11.4202 5.11834 11.4202 3.72419 11.4202C3.63873 11.4202 3.55202 11.4239 3.46719 11.4139C3.26695 11.3902 3.15779 11.2611 3.14719 11.0721C3.13721 10.8918 3.23389 10.7571 3.41541 10.7103C3.50461 10.6872 3.60005 10.6835 3.693 10.6835C6.50563 10.6822 9.31826 10.6822 12.1309 10.6822C12.1777 10.6822 12.2245 10.6804 12.2712 10.6841C12.5282 10.7041 12.6867 10.8588 12.6742 11.0758C12.6624 11.2848 12.5083 11.4189 12.2556 11.4189C10.947 11.4214 9.63764 11.4202 8.32894 11.4202C8.18859 11.4202 8.04824 11.4202 7.90789 11.4202Z" fill="black"/>
<path d="M4.90484 18.9979C5.16309 18.9991 5.57167 19.1476 5.93221 19.4326C6.10937 19.5724 6.28153 19.7208 6.46991 19.8443C7.08683 20.2479 7.69252 20.1307 8.12044 19.5349C8.17034 19.4657 8.21089 19.3896 8.26017 19.3197C8.39366 19.1301 8.59077 19.0796 8.76668 19.1875C8.94009 19.2935 8.99748 19.5019 8.88582 19.6984C8.28075 20.7625 7.31327 21.1212 6.20231 20.5355C5.95716 20.4064 5.74258 20.2167 5.52239 20.0446C4.80005 19.4782 3.90991 19.6921 3.53252 20.528C3.42024 20.7769 3.24247 20.8661 3.03662 20.7775C2.8264 20.6871 2.76215 20.503 2.85198 20.2498C3.11896 19.4975 3.85502 18.9991 4.90484 18.9979Z" fill="black"/>
<path d="M5.77759 13.7095C5.05401 13.7095 4.3298 13.7101 3.60621 13.7089C3.30991 13.7082 3.1365 13.5679 3.14274 13.3389C3.14835 13.1219 3.32364 12.9759 3.59935 12.9759C5.06212 12.9734 6.52551 12.9753 7.98828 12.9753C8.18414 12.9753 8.34757 13.0414 8.40746 13.2404C8.45674 13.4019 8.41432 13.5598 8.26025 13.6458C8.17791 13.692 8.06874 13.7064 7.97206 13.707C7.24036 13.7113 6.50929 13.7095 5.77759 13.7095Z" fill="black"/>
<path d="M21.734 2.38905C21.2992 2.20129 20.8806 2.0204 20.4434 1.83201C20.5425 1.60371 20.6261 1.38788 20.7284 1.18141C20.9025 0.830845 21.2954 0.687999 21.6367 0.839578C21.976 0.990533 22.1419 1.3779 22.0091 1.73845C21.9323 1.94929 21.835 2.15264 21.734 2.38905Z" fill="white"/>
</svg>
