<svg width="22" height="22" viewBox="0 0 22 22" fill="none" xmlns="http://www.w3.org/2000/svg">
<path d="M14.2442 21.3129C13.9546 21.7989 13.4947 21.8838 12.9624 21.8825C9.10946 21.8707 5.25653 21.8763 1.4036 21.8763C0.61729 21.8763 0.167969 21.4302 0.167969 20.6496C0.167969 14.9806 0.167969 9.31163 0.167969 3.64263C0.167969 2.8596 0.616042 2.41224 1.39923 2.41162C1.72624 2.41162 2.05325 2.41162 2.41458 2.41162C2.41458 2.06971 2.43579 1.7359 2.41021 1.40647C2.35467 0.692698 2.94066 0.149881 3.66019 0.15612C6.56893 0.179829 9.47828 0.167975 12.3876 0.161735C12.6004 0.161112 12.754 0.228496 12.9019 0.37699C14.0726 1.55559 15.2471 2.73045 16.4265 3.89969C16.5826 4.05442 16.6462 4.21602 16.6456 4.43626C16.6393 6.65058 16.6418 8.86553 16.6418 11.0798C16.6418 11.1728 16.6418 11.2664 16.6418 11.375C18.6763 11.4686 20.2458 12.352 21.2449 14.1358C21.9694 15.4292 22.0817 16.8125 21.6405 18.2251C20.7475 21.0795 17.4057 22.8534 14.2442 21.3129ZM12.1499 0.91232C12.0363 0.91232 11.952 0.91232 11.8678 0.91232C9.15377 0.91232 6.43975 0.91232 3.72572 0.91232C3.27203 0.91232 3.16157 1.02276 3.16157 1.47822C3.16157 7.09232 3.16157 12.7058 3.16157 18.3199C3.16157 18.7729 3.27265 18.8833 3.72884 18.8833C6.36486 18.8833 9.00088 18.8833 11.6369 18.8833C11.7143 18.8833 11.7917 18.8833 11.8978 18.8833C11.2001 17.2767 11.1988 15.6963 12.0238 14.1658C12.8526 12.6284 14.1768 11.7481 15.8792 11.4417C15.8792 9.17188 15.8792 6.92199 15.8792 4.65589C15.7806 4.65589 15.6958 4.65589 15.6115 4.65589C14.6367 4.65589 13.662 4.65589 12.6872 4.65589C12.2491 4.65589 12.1499 4.55793 12.1499 4.12492C12.1492 3.06487 12.1499 2.00544 12.1499 0.91232ZM21.1357 16.6247C21.1282 14.1589 19.095 12.1362 16.6306 12.143C14.1643 12.1505 12.1418 14.182 12.1486 16.6465C12.1549 19.1104 14.1905 21.1357 16.6531 21.1282C19.1187 21.1213 21.1432 19.0873 21.1357 16.6247ZM2.41458 3.18903C2.37651 3.17343 2.36278 3.16345 2.34905 3.16283C2.05262 3.16096 1.75619 3.15846 1.45977 3.15846C1.03478 3.15846 0.91559 3.27638 0.91559 3.69753C0.91559 9.32848 0.91559 14.9594 0.91559 20.5904C0.91559 21.0109 1.03541 21.1294 1.46039 21.1294C3.65208 21.1294 5.8444 21.1294 8.03609 21.1294C9.73664 21.1294 11.4372 21.1288 13.1378 21.1307C13.325 21.1307 13.496 21.1107 13.5752 20.956C13.2027 20.5698 12.832 20.2042 12.4869 19.8155C12.372 19.6863 12.2734 19.6258 12.0993 19.6264C9.29106 19.632 6.48281 19.6152 3.67455 19.6408C2.93317 19.6476 2.40209 19.0986 2.40521 18.3804C2.42331 13.4202 2.4152 8.45997 2.4152 3.49975C2.41458 3.39867 2.41458 3.2976 2.41458 3.18903ZM15.2371 3.89781C14.467 3.12477 13.6763 2.33113 12.9087 1.56058C12.9087 2.30493 12.9087 3.09607 12.9087 3.89781C13.7119 3.89781 14.5026 3.89781 15.2371 3.89781Z" fill="black"/>
<path d="M9.52583 8.77565C10.9749 8.77565 12.4246 8.77565 13.8736 8.77565C13.9435 8.77565 14.0159 8.76754 14.0833 8.78127C14.273 8.81995 14.3829 8.9385 14.3929 9.13566C14.4022 9.32595 14.273 9.48755 14.0871 9.51688C14.0259 9.52686 13.9629 9.52187 13.9005 9.52187C10.9861 9.52187 8.0724 9.52187 5.15805 9.52187C5.10376 9.52187 5.04822 9.52561 4.99455 9.51937C4.7936 9.49629 4.65319 9.33781 4.66255 9.13815C4.67191 8.92976 4.78799 8.80934 4.99143 8.77815C5.06008 8.76754 5.13122 8.77503 5.20174 8.77503C6.64331 8.77565 8.08488 8.77565 9.52583 8.77565Z" fill="black"/>
<path d="M8.77599 10.6475C10.0066 10.6475 11.2379 10.6412 12.4685 10.6562C12.5983 10.6581 12.765 10.7542 12.8436 10.8596C12.9016 10.9376 12.8854 11.1291 12.8261 11.2196C12.7662 11.3101 12.6121 11.3868 12.4985 11.3874C10.021 11.3968 7.5441 11.3956 5.06659 11.3937C4.81197 11.3937 4.65783 11.2408 4.6622 11.0125C4.66657 10.7872 4.82196 10.6487 5.08344 10.6487C6.31408 10.6462 7.54472 10.6475 8.77599 10.6475Z" fill="black"/>
<path d="M8.02709 12.5192C9.00811 12.5192 9.98976 12.5118 10.9708 12.528C11.1006 12.5305 11.2666 12.6266 11.3446 12.7326C11.402 12.8106 11.3851 13.0022 11.3252 13.0926C11.2653 13.1831 11.1106 13.2586 10.997 13.2592C9.01872 13.2692 7.04046 13.2673 5.06282 13.2655C4.80821 13.2655 4.65469 13.1113 4.66031 12.883C4.66592 12.6584 4.82069 12.5211 5.08279 12.5205C6.06443 12.518 7.04608 12.5192 8.02709 12.5192Z" fill="black"/>
<path d="M7.84554 6.9039C8.74917 6.9039 9.65218 6.90328 10.5558 6.9039C10.8604 6.9039 11.0189 7.02869 11.0239 7.2689C11.0289 7.51785 10.8654 7.65074 10.5496 7.65074C8.74293 7.65137 6.93629 7.65137 5.12964 7.65074C4.82572 7.65074 4.66659 7.52533 4.66222 7.28575C4.65723 7.03618 4.82011 6.90453 5.1365 6.90453C6.03889 6.90328 6.94253 6.9039 7.84554 6.9039Z" fill="black"/>
<path d="M7.4918 14.391C8.28623 14.391 9.08003 14.3923 9.87445 14.3898C10.0604 14.3892 10.194 14.4678 10.2551 14.6387C10.3125 14.7997 10.2763 14.9569 10.1328 15.0543C10.0554 15.1067 9.94622 15.1341 9.85074 15.1341C8.26251 15.1391 6.67429 15.1385 5.08606 15.1366C4.81335 15.1366 4.65546 14.9881 4.66232 14.7517C4.66856 14.527 4.82333 14.3916 5.08668 14.391C5.88797 14.3898 6.68989 14.391 7.4918 14.391Z" fill="black"/>
<path d="M7.27954 16.2628C8.00344 16.2628 8.72735 16.2622 9.45126 16.2634C9.74394 16.264 9.90557 16.405 9.89933 16.6478C9.89309 16.8799 9.73583 17.0096 9.45188 17.0096C8.00407 17.0103 6.55625 17.0103 5.10782 17.0096C4.81451 17.0096 4.6535 16.8686 4.66037 16.6247C4.66661 16.3926 4.82325 16.2634 5.10782 16.2634C5.83172 16.2622 6.55563 16.2628 7.27954 16.2628Z" fill="black"/>
<path d="M15.9693 17.6217C16.0267 17.5257 16.0586 17.4383 16.1178 17.379C17.0302 16.4612 17.9463 15.5466 18.8618 14.6313C18.9111 14.582 18.9586 14.5289 19.0129 14.4853C19.1751 14.3536 19.381 14.3586 19.5221 14.4934C19.6694 14.6337 19.6768 14.8496 19.5383 15.02C19.504 15.0624 19.4634 15.0992 19.4247 15.1379C18.3713 16.1911 17.3185 17.2443 16.2651 18.2968C15.9587 18.6032 15.7727 18.5901 15.5007 18.2488C15.0538 17.6879 14.6045 17.1288 14.1583 16.5679C13.9748 16.3371 13.9773 16.1181 14.1571 15.9715C14.3424 15.8198 14.5677 15.871 14.758 16.1081C15.1424 16.5873 15.5262 17.0677 15.9693 17.6217Z" fill="black"/>
</svg>
