<svg width="24" height="24" viewBox="0 0 24 24" fill="none" xmlns="http://www.w3.org/2000/svg">
<path d="M0 5.42689C0.197115 4.96404 0.555789 4.8081 1.04483 4.82182C1.80023 4.84365 2.55688 4.8212 3.3129 4.82931C3.95041 4.83617 4.50059 4.62471 4.98214 4.21488C5.58784 3.70026 6.1929 3.18502 6.80359 2.67664C7.34066 2.22939 7.96756 2.03414 8.66246 2.03851C9.14589 2.04163 9.62869 2.03976 10.1121 2.03851C10.1957 2.03851 10.2793 2.03165 10.3585 2.0279C10.3822 1.75905 10.3754 1.5058 10.4309 1.26751C10.6012 0.535194 11.2243 0.0492685 11.971 0.0486447C15.4317 0.0467734 18.8925 0.0467734 22.3532 0.0486447C23.2565 0.0492685 23.9513 0.744161 23.9526 1.64802C23.9551 3.77574 23.9551 5.90346 23.9526 8.0318C23.9513 8.91757 23.2565 9.62993 22.3713 9.63118C18.9031 9.63679 15.4342 9.63804 11.966 9.62993C11.2867 9.62806 10.8114 9.26564 10.5095 8.67056C10.0142 8.84147 9.60686 9.09597 9.30495 9.5451C8.90635 10.1377 8.30628 10.4221 7.59018 10.4284C6.70191 10.4359 5.81302 10.424 4.92476 10.4327C4.40452 10.4377 3.9055 10.3479 3.41209 10.1888C2.53942 9.90814 1.6655 9.62993 0.785341 9.37418C0.423548 9.27001 0.14846 9.09785 0 8.74853C0 7.64131 0 6.5341 0 5.42689ZM14.3158 6.42494C14.42 6.42494 14.5042 6.42494 14.5878 6.42494C15.3906 6.42494 16.1934 6.42369 16.9962 6.42619C17.0966 6.42681 17.2008 6.4318 17.2956 6.45987C17.4721 6.51227 17.5869 6.65761 17.557 6.82666C17.5333 6.96015 17.4253 7.09488 17.3193 7.19095C17.2575 7.24709 17.1278 7.2396 17.0286 7.24022C16.2489 7.24397 15.4679 7.27516 14.6907 7.23274C13.9615 7.19282 13.2965 7.32568 12.6547 7.6725C12.2062 7.91453 11.729 8.10291 11.2699 8.31313C11.3329 8.64186 11.7084 8.83211 12.1045 8.83149C15.4798 8.8265 18.855 8.829 22.2303 8.82775C22.841 8.82775 23.1554 8.51336 23.1554 7.90829C23.1566 5.85855 23.1566 3.80818 23.1554 1.75843C23.1548 1.16958 22.8323 0.84459 22.2459 0.84459C18.855 0.843343 15.4642 0.843343 12.0733 0.84459C11.5 0.84459 11.18 1.17083 11.1794 1.74845C11.1788 2.7072 11.1788 3.66595 11.1794 4.62471C11.1794 4.69894 11.1857 4.77317 11.19 4.85738C11.51 4.80186 11.8069 4.73636 12.1076 4.70143C12.4919 4.65652 12.888 4.56857 13.2616 4.62096C13.9035 4.70954 14.5441 5.36389 14.3158 6.42494ZM3.60982 9.42034C3.8768 9.47835 4.1469 9.58065 4.41949 9.58814C5.47867 9.61683 6.53848 9.62556 7.59828 9.62182C8.08234 9.61995 8.46409 9.39102 8.72546 8.97933C8.98495 8.57075 9.34612 8.29317 9.78526 8.09668C10.9212 7.58829 12.0533 7.07118 13.1842 6.55282C13.5049 6.4056 13.6415 6.10619 13.5454 5.80927C13.4437 5.49675 13.1537 5.34018 12.8044 5.40069C11.6473 5.59905 10.4895 5.79804 9.33115 5.98892C9.03361 6.0382 8.83836 5.90907 8.80094 5.67017C8.76289 5.42564 8.92694 5.24662 9.2301 5.19484C9.6106 5.12997 9.99049 5.06198 10.3691 4.99586C10.3691 4.27414 10.3691 3.57551 10.3691 2.85067C9.75906 2.85067 9.16148 2.85067 8.5639 2.85067C8.08483 2.85067 7.66253 3.01036 7.29762 3.31539C6.73559 3.7851 6.17669 4.25855 5.62152 4.73636C5.23353 5.07009 4.81622 5.35141 4.31969 5.49301C4.09076 5.55851 3.85435 5.59843 3.61045 5.6527C3.60982 6.8934 3.60982 8.13847 3.60982 9.42034ZM2.78144 5.65769C2.10963 5.65769 1.46713 5.65769 0.833996 5.65769C0.819649 5.6764 0.810292 5.68264 0.810292 5.68888C0.805302 6.59835 0.799064 7.50783 0.804055 8.4173C0.804055 8.47094 0.892632 8.55204 0.955634 8.57262C1.46402 8.73917 1.97676 8.89449 2.48764 9.05231C2.57996 9.081 2.67353 9.10658 2.78082 9.13839C2.78144 7.96131 2.78144 6.81979 2.78144 5.65769Z" fill="black"/>
<path d="M11.7893 24C11.4562 23.748 11.11 23.5128 10.7931 23.2415C9.96412 22.5322 9.14821 21.8074 8.32731 21.0888C8.00108 20.8031 7.90439 20.48 8.03975 20.1319C8.17386 19.7876 8.46579 19.6061 8.89121 19.6048C9.10891 19.6042 9.32661 19.6048 9.58174 19.6048C9.58174 19.5019 9.58174 19.4121 9.58174 19.3223C9.58174 17.0848 9.58174 14.8473 9.58174 12.6104C9.58174 12.1974 9.70088 12.0246 9.98221 12.0253C10.2592 12.0259 10.3833 12.208 10.3833 12.6135C10.3833 14.8429 10.3833 17.0729 10.3833 19.3023C10.3833 19.394 10.3833 19.4863 10.3833 19.6055C10.7813 19.6055 11.1605 19.6017 11.5398 19.6067C11.833 19.6105 12.0213 19.8275 11.9702 20.0895C11.9309 20.2898 11.7743 20.4052 11.5167 20.4058C10.6983 20.4089 9.87991 20.407 9.06088 20.407C9.00724 20.407 8.95359 20.407 8.81885 20.407C9.89987 21.3664 10.9297 22.2809 11.9764 23.2097C13.0225 22.2952 14.058 21.3907 15.0929 20.4862C15.0891 20.46 15.0854 20.4332 15.0816 20.407C14.6737 20.407 14.2651 20.407 13.8571 20.407C13.6388 20.407 13.4205 20.4114 13.2022 20.4045C12.9364 20.3964 12.7761 20.2442 12.7743 20.0109C12.7724 19.7733 12.9483 19.6123 13.219 19.6055C13.3263 19.603 13.4342 19.6048 13.5696 19.6048C13.5696 19.4963 13.5696 19.4052 13.5696 19.3142C13.5696 16.6868 13.5696 14.06 13.5696 11.4327C13.5696 11.3547 13.5652 11.2761 13.5721 11.1988C13.5927 10.9823 13.7704 10.8164 13.9744 10.8183C14.1815 10.8201 14.3481 10.9823 14.3661 11.205C14.373 11.2905 14.3705 11.3765 14.3705 11.462C14.3705 14.0738 14.3705 16.6849 14.3705 19.2967C14.3705 19.389 14.3705 19.4807 14.3705 19.6042C14.6294 19.6042 14.8683 19.6023 15.1066 19.6048C15.4921 19.6086 15.7828 19.7995 15.9119 20.1307C16.0404 20.4607 15.9549 20.7981 15.6592 21.057C14.6281 21.9621 13.5958 22.8647 12.5584 23.7623C12.4436 23.8615 12.2952 23.9214 12.1623 23.9988C12.0388 24 11.9141 24 11.7893 24Z" fill="black"/>
<path d="M7.24828 16.5913C7.388 16.4485 7.52399 16.3025 7.66808 16.1641C7.86832 15.9713 8.09662 15.9663 8.26691 16.1428C8.42473 16.3063 8.41912 16.5408 8.2376 16.7261C7.86145 17.1103 7.48095 17.4908 7.0967 17.867C6.88898 18.0703 6.68563 18.0716 6.48103 17.8707C6.09678 17.4946 5.71689 17.1135 5.33951 16.7298C5.148 16.5352 5.14426 16.2975 5.31643 16.131C5.48485 15.9682 5.70691 15.9744 5.89904 16.1572C6.04376 16.295 6.17849 16.4441 6.36313 16.635C6.36999 16.4878 6.37686 16.4067 6.37686 16.3256C6.37748 14.9926 6.37748 13.6596 6.37748 12.3265C6.37748 12.2723 6.37685 12.2174 6.37748 12.1631C6.3806 11.8163 6.53031 11.6173 6.78668 11.6173C7.04368 11.6179 7.19463 11.8175 7.19526 12.1631C7.19588 13.5429 7.19526 14.9227 7.19526 16.3025C7.19526 16.388 7.19526 16.4735 7.19526 16.5583C7.21335 16.5701 7.23081 16.5807 7.24828 16.5913Z" fill="black"/>
<path d="M16.757 16.5689C16.757 16.4871 16.757 16.4054 16.757 16.3237C16.757 14.952 16.757 13.5797 16.7577 12.208C16.7577 12.1225 16.7533 12.0346 16.772 11.9522C16.8188 11.7445 16.9592 11.621 17.1694 11.6235C17.3771 11.626 17.5199 11.7458 17.5586 11.9591C17.5748 12.0502 17.5748 12.145 17.5748 12.2379C17.5761 13.594 17.5754 14.9508 17.5754 16.3069C17.5754 16.3917 17.5754 16.4759 17.5754 16.6237C17.7514 16.4522 17.8861 16.32 18.0221 16.1883C18.2429 15.9756 18.4575 15.9569 18.639 16.1335C18.813 16.3037 18.7993 16.5445 18.596 16.7504C18.2342 17.1165 17.8705 17.4802 17.5043 17.842C17.2667 18.0765 17.0702 18.079 16.8375 17.8489C16.4714 17.4871 16.1083 17.1228 15.7459 16.7572C15.5382 16.5476 15.5188 16.3144 15.6885 16.1409C15.87 15.9544 16.094 15.9731 16.3204 16.199C16.4501 16.3287 16.573 16.4653 16.699 16.5988C16.7184 16.5888 16.7377 16.5788 16.757 16.5689Z" fill="black"/>
<path d="M11.5679 15.0163C11.5679 14.3077 11.5635 13.5997 11.5698 12.8911C11.5729 12.538 11.8523 12.3284 12.1368 12.4557C12.3451 12.5486 12.3875 12.7326 12.3875 12.9404C12.3857 13.8124 12.3869 14.6838 12.3869 15.5559C12.3869 16.0855 12.3919 16.6144 12.385 17.144C12.3801 17.4971 12.1018 17.7073 11.818 17.5801C11.6215 17.4915 11.5679 17.3193 11.5679 17.1185C11.5685 16.4173 11.5679 15.7168 11.5679 15.0163Z" fill="black"/>
<path d="M12.3854 11.0234C12.3854 11.4289 12.2426 11.6347 11.9663 11.6273C11.6993 11.6198 11.5664 11.4208 11.5664 11.0278C11.5664 10.6111 11.6968 10.4252 11.985 10.4308C12.2613 10.4358 12.3854 10.6199 12.3854 11.0234Z" fill="black"/>
<path d="M20.367 5.92781C20.9614 5.50489 21.6195 5.54855 22.0587 6.03261C22.4591 6.47425 22.4672 7.16103 22.0761 7.61265C21.6407 8.11542 20.992 8.16781 20.3794 7.74988C19.5124 8.14972 18.9747 8.08423 18.5805 7.53218C18.2436 7.0606 18.2854 6.43308 18.6815 6.00953C19.1082 5.55354 19.7082 5.52173 20.367 5.92781ZM21.5528 6.83542C21.5546 6.62458 21.3856 6.45241 21.1716 6.4468C20.9415 6.44056 20.7693 6.60524 20.7681 6.83105C20.7668 7.04875 20.9271 7.21405 21.1442 7.22029C21.3706 7.22653 21.5515 7.05623 21.5528 6.83542ZM19.5716 6.44618C19.3502 6.44119 19.1843 6.59401 19.1743 6.81046C19.1637 7.04064 19.324 7.2153 19.5504 7.21966C19.7781 7.22466 19.9497 7.05748 19.9497 6.83167C19.9497 6.61522 19.7881 6.45117 19.5716 6.44618Z" fill="black"/>
<path d="M13.383 1.63989C13.5777 1.63989 13.7723 1.63677 13.9669 1.64051C14.4216 1.64925 14.7622 1.97923 14.7772 2.43459C14.7865 2.70656 14.7865 2.97977 14.7772 3.25174C14.7616 3.6834 14.4622 4.00964 14.0311 4.03085C13.5964 4.05205 13.1597 4.05268 12.7249 4.03209C12.2796 4.01088 11.9839 3.67841 11.9789 3.2349C11.9758 2.97042 11.9758 2.70593 11.9789 2.44145C11.9845 1.98734 12.3201 1.65049 12.7761 1.64114C12.9782 1.63677 13.1803 1.63989 13.383 1.63989ZM13.955 2.45517C13.5546 2.45517 13.1772 2.45517 12.7911 2.45517C12.7911 2.71903 12.7911 2.96855 12.7911 3.2218C13.1859 3.2218 13.5633 3.2218 13.955 3.2218C13.955 2.96667 13.955 2.72215 13.955 2.45517Z" fill="black"/>
</svg>
