<svg width="21" height="24" viewBox="0 0 21 24" fill="none" xmlns="http://www.w3.org/2000/svg">
<path d="M12.7114 24C12.2521 23.8234 11.8945 23.5446 11.8003 23.033C11.7641 22.8364 11.776 22.6312 11.7691 22.5014C11.4702 22.3436 11.2106 22.2007 10.9454 22.0703C10.8668 22.0316 10.7713 22.011 10.6833 22.0104C9.91199 22.0048 9.14195 22.0148 8.37876 21.8576C7.58625 21.6947 6.84242 21.4083 6.1329 21.0278C5.84335 20.8724 5.54507 20.8057 5.21558 20.8094C4.24086 20.8206 3.26613 20.8144 2.2914 20.8132C1.50326 20.8119 0.999046 20.3228 0.994054 19.536C0.986565 18.3825 0.985941 17.2283 0.994677 16.074C1.00029 15.3048 1.48891 14.8225 2.25833 14.8169C3.18625 14.81 4.11418 14.81 5.0421 14.8175C5.43399 14.8206 5.76597 14.7052 6.07486 14.4588C7.4577 13.3545 9.03961 12.8104 10.8106 12.8179C11.107 12.8192 11.4034 12.8167 11.6998 12.8154C11.7148 12.8154 11.7292 12.8092 11.761 12.8017C11.761 12.554 11.761 12.3013 11.761 12.02C11.6786 12.02 11.5956 12.02 11.5126 12.02C9.76597 12.02 8.0187 12.0206 6.27206 12.02C5.48204 12.02 4.99093 11.5277 4.99093 10.7372C4.99031 7.59531 4.99031 4.45275 4.99093 1.31081C4.99093 0.537182 5.48703 0.0436808 6.26332 0.0436808C10.7395 0.0430569 15.2162 0.0430569 19.6923 0.0436808C20.458 0.0436808 20.9635 0.522208 20.9653 1.2896C20.9728 4.44713 20.9722 7.60529 20.966 10.7628C20.9647 11.5427 20.4618 12.0206 19.6811 12.0206C17.9419 12.0212 16.2028 12.0206 14.4636 12.0206C14.3788 12.0206 14.2939 12.0206 14.1928 12.0206C14.1928 12.2895 14.1928 12.5415 14.1928 12.8186C14.5441 12.8186 14.8873 12.8429 15.2256 12.8129C15.7753 12.7643 16.3014 13.143 16.1566 13.9403C16.0331 14.6185 15.6543 15.1008 15.0228 15.3821C14.9947 15.3946 14.9666 15.4071 14.9391 15.4214C14.9335 15.4246 14.931 15.4339 14.9273 15.4402C15.0321 15.5805 15.1575 15.7103 15.238 15.8638C15.4571 16.2781 15.4259 16.6911 15.1669 17.0791C15.1001 17.179 15.0989 17.2414 15.1657 17.3437C15.4558 17.7848 15.4496 18.2321 15.1725 18.6826C15.137 18.7399 15.117 18.8516 15.1482 18.899C15.4883 19.4144 15.444 19.9104 15.0933 20.3926C15.6349 21.4751 15.3098 22.2163 14.176 22.4297C14.176 22.5457 14.1791 22.668 14.1753 22.7897C14.156 23.3749 13.8633 23.766 13.3067 23.9557C13.2786 23.9651 13.2536 23.985 13.2274 24C13.0546 24 12.883 24 12.7114 24ZM12.9872 0.839147C10.7806 0.839147 8.57346 0.839147 6.36691 0.839147C5.90887 0.839147 5.78657 0.962678 5.78657 1.42374C5.78657 4.49517 5.78657 7.56723 5.78657 10.6387C5.78657 11.0985 5.91012 11.2226 6.36816 11.2226C10.7738 11.2226 15.1794 11.2226 19.5856 11.2226C20.0374 11.2226 20.1579 11.1041 20.1579 10.6605C20.1579 7.57347 20.1579 4.48581 20.1579 1.39878C20.1579 0.955192 20.038 0.838523 19.5844 0.838523C17.3853 0.839147 15.1863 0.839147 12.9872 0.839147ZM11.7703 13.5916C11.1201 13.6215 10.4886 13.6153 9.86582 13.6876C8.59717 13.8349 7.47518 14.3465 6.48735 15.155C6.09234 15.4782 5.63555 15.6242 5.1251 15.6217C4.18969 15.6174 3.25365 15.6198 2.31823 15.6205C1.92759 15.6205 1.80279 15.7459 1.80279 16.1371C1.80217 17.2364 1.80217 18.335 1.80279 19.4343C1.80279 19.8935 1.90887 20.0021 2.36441 20.0027C3.30794 20.004 4.25146 20.0102 5.19437 20.0002C5.6655 19.9952 6.10232 20.0907 6.51667 20.3172C7.17564 20.6771 7.87018 20.9417 8.61153 21.0821C9.25739 21.2043 9.90575 21.2112 10.5554 21.1887C10.5909 21.049 10.6034 20.9198 10.6565 20.8107C10.7276 20.6622 10.6852 20.5823 10.5678 20.4806C10.3082 20.2554 10.1516 19.9572 10.1934 19.6134C10.2278 19.3302 10.337 19.0563 10.4237 18.7381C10.068 18.2583 10.0923 17.7261 10.473 17.2077C10.1348 16.7023 10.0867 16.2712 10.3295 15.8382C10.5884 15.3747 11.004 15.1937 11.5201 15.2081C11.6019 15.2106 11.6842 15.2087 11.7722 15.2087C11.7703 14.6672 11.7703 14.1618 11.7703 13.5916ZM12.7813 16.8021C13.2249 16.8021 13.6686 16.804 14.1123 16.8015C14.3925 16.7996 14.5685 16.6468 14.5691 16.4134C14.5697 16.1882 14.4037 16.0235 14.1373 16.0216C13.2262 16.0154 12.3157 16.0154 11.4047 16.0223C11.1438 16.0241 10.9747 16.2007 10.9822 16.424C10.9897 16.6493 11.1613 16.7996 11.4265 16.8015C11.8783 16.8046 12.3295 16.8021 12.7813 16.8021ZM12.77 20.0002C12.77 20.0008 12.77 20.0015 12.77 20.0021C13.2218 20.0021 13.673 20.0077 14.1248 20.0002C14.405 19.9958 14.5766 19.8299 14.5691 19.5966C14.5616 19.3707 14.3906 19.2203 14.126 19.2197C13.2231 19.2172 12.3195 19.2178 11.4165 19.221C11.3416 19.221 11.2586 19.2347 11.1937 19.2684C11.0327 19.3526 10.9566 19.4974 10.9928 19.6758C11.0352 19.8854 11.1794 19.9971 11.3922 19.999C11.8508 20.0033 12.3107 20.0002 12.77 20.0002ZM12.7582 18.3999C13.21 18.3999 13.6611 18.403 14.1129 18.3987C14.3975 18.3962 14.5691 18.2452 14.5691 18.0106C14.5697 17.776 14.3981 17.6226 14.1142 17.6219C13.2268 17.6188 12.3395 17.6188 11.4521 17.6219C11.1563 17.6226 10.9741 17.7829 10.9828 18.0212C10.9909 18.2533 11.1638 18.3968 11.4508 18.3993C11.8858 18.4024 12.322 18.3999 12.7582 18.3999ZM13.3541 15.1956C13.3541 14.1269 13.3541 13.0806 13.3541 12.0325C13.092 12.0325 12.8462 12.0325 12.5903 12.0325C12.5903 13.0912 12.5903 14.1375 12.5903 15.1956C12.8487 15.1956 13.0945 15.1956 13.3541 15.1956ZM12.9841 20.8132C12.6028 20.8132 12.2215 20.8113 11.8409 20.8138C11.5625 20.8156 11.4053 20.9473 11.3934 21.18C11.3809 21.4258 11.5382 21.598 11.8153 21.6005C12.5928 21.6086 13.371 21.6086 14.1491 21.5999C14.4112 21.5968 14.576 21.4202 14.5691 21.1944C14.5622 20.9704 14.3881 20.8163 14.1279 20.8138C13.746 20.8107 13.3647 20.8132 12.9841 20.8132ZM14.1872 14.7595C14.9067 14.7183 15.3916 14.2454 15.3454 13.6346C14.9629 13.6346 14.5809 13.6346 14.1872 13.6346C14.1872 14.0208 14.1872 14.3902 14.1872 14.7595ZM12.6171 22.4128C12.5248 22.721 12.5747 22.9974 12.7469 23.1184C12.888 23.2176 13.0359 23.2245 13.1838 23.134C13.3722 23.0186 13.4234 22.7697 13.3341 22.4128C13.0958 22.4128 12.8561 22.4128 12.6171 22.4128Z" fill="black"/>
<path d="M10.1908 6.0306C10.5758 6.36127 10.8366 6.74371 10.9377 7.23035C11.1867 8.43073 10.2912 9.5893 9.07003 9.62736C8.64132 9.64108 8.21199 9.63609 7.78329 9.62861C7.34148 9.62112 7.01449 9.31354 6.99015 8.86933C6.97081 8.51183 6.98142 8.15247 6.98142 7.79373C6.98079 6.32758 6.98017 4.86205 6.98142 3.39589C6.98204 2.72458 7.27845 2.42885 7.95427 2.43322C8.39795 2.43634 8.84788 2.40827 9.28407 2.47066C10.1178 2.59044 10.6725 3.09081 10.9003 3.8975C11.1268 4.69734 10.8903 5.38612 10.2781 5.94638C10.2557 5.96759 10.2338 5.98942 10.1908 6.0306ZM7.80638 3.26487C7.80638 4.04911 7.80638 4.82524 7.80638 5.61758C8.24008 5.61758 8.65942 5.62944 9.07877 5.61446C9.66597 5.59387 10.1421 5.09414 10.1789 4.48334C10.2139 3.90936 9.77019 3.32726 9.19858 3.27361C8.74429 3.23118 8.28313 3.26487 7.80638 3.26487ZM7.80201 8.80194C8.26441 8.80194 8.71621 8.83252 9.16239 8.79446C9.7315 8.74642 10.1552 8.24481 10.1789 7.66209C10.202 7.1062 9.78579 6.53596 9.22916 6.47045C8.76301 6.41492 8.28563 6.45922 7.7914 6.45922C7.7914 7.17794 7.7914 7.88544 7.79203 8.59232C7.79203 8.66094 7.79827 8.72895 7.80201 8.80194Z" fill="black"/>
<path d="M19.3912 6.02682C19.3656 6.59394 19.3974 7.17167 19.3019 7.72694C19.1141 8.81501 18.1375 9.60174 17.0342 9.62857C16.7459 9.63543 16.457 9.63606 16.1687 9.62919C15.72 9.61796 15.3799 9.2898 15.3787 8.84371C15.3737 6.96454 15.3737 5.08537 15.3793 3.20682C15.3805 2.81064 15.6726 2.45939 16.0645 2.44816C16.5674 2.43443 17.086 2.42508 17.5727 2.53051C18.6142 2.75699 19.3213 3.66975 19.3587 4.73973C19.3737 5.16772 19.3612 5.59696 19.3612 6.0262C19.3706 6.0262 19.3805 6.0262 19.3912 6.02682ZM16.1805 8.82063C16.4757 8.82063 16.7484 8.83685 17.018 8.81751C17.9515 8.752 18.5618 8.09316 18.5643 7.16231C18.5662 6.39929 18.5693 5.63564 18.5612 4.87262C18.5593 4.69668 18.5381 4.51138 18.4801 4.34667C18.12 3.32349 17.2433 3.12197 16.1812 3.27919C16.1805 5.11531 16.1805 6.95206 16.1805 8.82063Z" fill="black"/>
<path d="M13.3889 3.23739C13.3889 5.10721 13.3889 6.94333 13.3889 8.82562C13.5399 8.82562 13.6916 8.825 13.8426 8.82562C13.9593 8.82625 14.0766 8.82188 14.1933 8.83124C14.4229 8.84996 14.5771 9.01092 14.5789 9.2218C14.5808 9.42768 14.4198 9.62296 14.2027 9.62546C13.3846 9.63482 12.5658 9.63482 11.7477 9.62483C11.5293 9.62234 11.3721 9.42519 11.3771 9.21743C11.3821 9.00905 11.5406 8.84185 11.7683 8.83249C12.0242 8.82188 12.2807 8.82999 12.5559 8.82999C12.5559 6.96142 12.5559 5.11345 12.5559 3.23802C12.3119 3.23802 12.0722 3.24239 11.8326 3.23677C11.5549 3.23053 11.3796 3.07331 11.3771 2.8406C11.3746 2.59977 11.5599 2.43444 11.8476 2.43382C12.6039 2.43132 13.3596 2.43132 14.1159 2.43382C14.3886 2.43507 14.5708 2.59291 14.5802 2.82375C14.5895 3.06458 14.4086 3.22991 14.1184 3.23677C13.8788 3.24114 13.6392 3.23739 13.3889 3.23739Z" fill="black"/>
</svg>
