<svg width="24" height="24" viewBox="0 0 24 24" fill="none" xmlns="http://www.w3.org/2000/svg">
<path d="M24.0009 6.8304C23.9323 7.11547 23.8799 7.40553 23.7919 7.68498C23.155 9.70541 21.8351 11.0628 19.824 11.7364C19.6656 11.7895 19.5932 11.8687 19.5458 12.0271C19.1192 13.4493 18.6838 14.8685 18.2477 16.2882C18.0513 16.9282 17.5978 17.2769 16.9272 17.3124C14.2499 17.4534 11.5727 17.5925 8.89538 17.7341C7.77445 17.7934 6.65414 17.8526 5.53382 17.9206C5.45835 17.925 5.36228 17.9849 5.318 18.0485C5.05663 18.4265 4.80338 18.8101 4.55511 19.1969C4.30123 19.593 4.50583 19.9778 4.97429 19.9966C5.03667 19.9991 5.09905 19.9972 5.16143 19.9972C9.2316 19.9997 13.3012 20.0016 17.3713 20.004C17.4493 20.004 17.5279 20.0015 17.6052 20.0078C17.8573 20.0284 18.0088 20.1768 18.0113 20.4014C18.0138 20.6309 17.8467 20.8044 17.594 20.8112C17.2665 20.82 16.939 20.8137 16.6116 20.8137C16.5654 20.8137 16.5192 20.8137 16.4481 20.8137C16.4787 20.8792 16.4962 20.9266 16.5211 20.9697C17.216 22.1586 16.6147 23.607 15.2835 23.9495C15.2405 23.9607 15.2006 23.9825 15.1588 24C14.9405 24 14.7221 24 14.5038 24C14.4689 23.985 14.4346 23.9651 14.3978 23.9563C13.0336 23.6295 12.4085 22.1779 13.1134 20.9722C13.139 20.9285 13.1602 20.8817 13.1883 20.8268C11.8727 20.8268 10.5771 20.8268 9.25593 20.8268C9.29959 20.906 9.33141 20.9653 9.36447 21.0239C9.80798 21.808 9.69445 22.74 9.08002 23.3999C8.79558 23.7056 8.42942 23.8659 8.04767 24.0006C7.78256 24.0006 7.51745 24.0006 7.25234 24.0006C6.94357 23.844 6.59675 23.7343 6.33289 23.5215C5.58934 22.9221 5.42404 21.8585 5.89874 21.0258C5.93242 20.9665 5.96735 20.9085 6.02474 20.8118C5.64299 20.8118 5.29616 20.8181 4.94996 20.8106C4.3293 20.7975 3.8334 20.4139 3.68369 19.8263C3.58638 19.4445 3.65998 19.0865 3.87893 18.7577C4.1378 18.3685 4.39979 17.9817 4.64431 17.5838C4.70232 17.489 4.73601 17.3492 4.71667 17.2407C4.30435 14.9059 3.88205 12.5723 3.46287 10.2381C3.24579 9.02923 3.0256 7.82034 2.81663 6.60958C2.79043 6.458 2.72057 6.44241 2.59831 6.44303C1.93585 6.44615 1.2734 6.4449 0.61094 6.44365C0.533591 6.44365 0.453747 6.4449 0.378893 6.42744C0.173669 6.37941 0.0501598 6.25215 0.0507836 6.03321C0.0514074 5.81488 0.17554 5.64958 0.380764 5.64584C1.31519 5.629 2.25024 5.63024 3.18466 5.64334C3.3824 5.64646 3.48969 5.80615 3.52462 6.00514C3.60946 6.48732 3.70303 6.96825 3.78287 7.45169C3.80221 7.5702 3.82965 7.63009 3.96564 7.63009C6.69343 7.62634 9.42186 7.62634 12.1497 7.62447C12.1646 7.62447 12.1796 7.61699 12.2127 7.60825C12.164 7.30822 12.0998 7.00755 12.0679 6.70377C11.8646 4.75196 12.4622 3.07773 13.8538 1.69917C14.7845 0.777222 15.9179 0.211452 17.2154 0.064863C20.9581 -0.358685 23.5274 2.23625 23.9566 5.08942C23.9622 5.1256 23.9859 5.15866 24.0009 5.19297C24.0009 5.73878 24.0009 6.28459 24.0009 6.8304ZM18.7106 12.0053C18.6713 11.9928 18.6638 11.9885 18.6569 11.9891C16.0658 12.2486 13.7153 10.9386 12.6069 8.60631C12.5358 8.45597 12.4516 8.42728 12.3056 8.4279C9.61648 8.43102 6.92735 8.4304 4.23823 8.4304C4.15527 8.4304 4.0723 8.4304 3.98435 8.4304C3.98435 8.5065 3.97749 8.55391 3.9856 8.5982C4.48026 11.3771 4.97741 14.1555 5.4702 16.935C5.49203 17.0579 5.52759 17.1066 5.66295 17.0985C6.1994 17.0654 6.7371 17.0473 7.27355 17.0186C8.92283 16.9319 10.5721 16.8408 12.222 16.7548C13.7858 16.6731 15.3503 16.5963 16.9141 16.514C17.1892 16.4996 17.3832 16.3655 17.4643 16.0898C17.5279 15.874 17.5978 15.6594 17.6633 15.4442C18.012 14.2989 18.3606 13.1549 18.7106 12.0053ZM18.0157 0.843966C15.1438 0.853323 12.8134 3.195 12.8227 6.0619C12.8314 8.88888 15.1806 11.2306 17.9995 11.2231C20.9019 11.215 23.2212 8.87453 23.2018 5.97332C23.1825 3.16443 20.8277 0.835233 18.0157 0.843966ZM6.44766 21.9927C6.44517 22.6651 6.97351 23.2009 7.63909 23.2009C8.27597 23.2009 8.8118 22.6707 8.8249 22.0276C8.838 21.3645 8.30217 20.8168 7.63784 20.815C6.97538 20.8137 6.45078 21.3327 6.44766 21.9927ZM16.0065 22.0157C16.0077 21.3495 15.4919 20.8206 14.8363 20.815C14.1688 20.81 13.6218 21.3458 13.6236 22.0039C13.6255 22.652 14.1607 23.1903 14.8138 23.2009C15.4569 23.2109 16.0052 22.667 16.0065 22.0157Z" fill="black"/>
<path d="M11.4097 14.4181C9.96001 14.4181 8.50971 14.4181 7.06004 14.4181C6.97459 14.4181 6.88788 14.4206 6.80305 14.4124C6.59096 14.3925 6.43938 14.234 6.4319 14.0313C6.42441 13.823 6.58223 13.6439 6.7993 13.6196C6.86106 13.6128 6.92406 13.6165 6.98644 13.6165C9.94878 13.6165 12.9105 13.6165 15.8728 13.6165C15.9427 13.6165 16.0144 13.6109 16.083 13.6227C16.2827 13.657 16.4286 13.8429 16.418 14.0401C16.4074 14.2353 16.2652 14.3875 16.0631 14.4106C15.9783 14.4199 15.8922 14.4174 15.8061 14.4174C14.3408 14.4181 12.8749 14.4181 11.4097 14.4181Z" fill="black"/>
<path d="M9.02934 11.2262C8.18037 11.2262 7.3314 11.2249 6.48244 11.2274C6.30216 11.228 6.13686 11.1738 6.08758 11.0022C6.0514 10.8762 6.06014 10.7016 6.12501 10.5937C6.17865 10.5038 6.34271 10.4358 6.45811 10.4352C8.17164 10.4252 9.88516 10.4271 11.5981 10.4302C11.8626 10.4308 12.021 10.5887 12.021 10.8251C12.021 11.0652 11.8495 11.2249 11.5756 11.2255C10.7273 11.228 9.8783 11.2262 9.02934 11.2262Z" fill="black"/>
<path d="M17.1483 7.80041C17.5076 7.26396 17.8495 6.7537 18.1907 6.24283C18.787 5.34895 19.3821 4.45444 19.9784 3.56119C20.0258 3.49008 20.0714 3.41522 20.1313 3.35534C20.2747 3.21125 20.4837 3.19565 20.6415 3.31916C20.7981 3.44142 20.8611 3.60173 20.775 3.79386C20.7401 3.87121 20.6914 3.94294 20.644 4.01405C19.6428 5.51799 18.641 7.0213 17.6386 8.52399C17.3741 8.92072 17.1552 8.94193 16.8171 8.60446C16.3318 8.11978 15.8465 7.63573 15.3624 7.14918C15.2084 6.99386 15.161 6.81608 15.2876 6.62209C15.4005 6.44867 15.572 6.40189 15.7579 6.46863C15.8477 6.50045 15.9263 6.57842 15.9968 6.64828C16.3742 7.01943 16.7466 7.3962 17.1483 7.80041Z" fill="black"/>
</svg>
