<svg width="24" height="24" viewBox="0 0 24 24" fill="none" xmlns="http://www.w3.org/2000/svg">
<path d="M22.6374 13.9844C22.8839 13.9844 23.0934 13.9816 23.302 13.9854C23.4803 13.9882 23.6263 14.0783 23.6263 14.2555C23.6272 14.8309 23.6661 15.4167 23.5703 15.9779C23.4291 16.8073 22.699 17.4083 21.859 17.449C21.1508 17.4841 20.4407 17.4642 19.7305 17.468C19.6481 17.4689 19.5646 17.468 19.4281 17.468C19.8547 17.9988 20.2435 18.4823 20.6331 18.9666C21.2494 19.7316 21.8704 20.4928 22.48 21.2625C22.9844 21.9004 22.9465 22.7554 22.3625 23.2407C21.7633 23.7384 20.6341 23.7355 20.0984 22.818C19.2736 21.4065 18.4421 19.9989 17.6125 18.5894C17.5736 18.523 17.5329 18.4576 17.5139 18.4273C17.0304 18.4946 16.5725 18.5922 16.1117 18.615C14.992 18.6699 14.0022 18.3031 13.1186 17.6206C13.0067 17.5344 12.8427 17.4737 12.7023 17.4727C9.30248 17.4642 5.90168 17.467 2.50182 17.4661C1.55657 17.4661 0.853089 17.0253 0.547803 16.2272C0.476696 16.0414 0.431188 15.8367 0.421707 15.6385C0.400849 15.2186 0.405589 14.7968 0.41033 14.3759C0.413174 14.0935 0.527893 13.9873 0.813269 13.9807C0.999095 13.9769 1.18587 13.9797 1.40109 13.9797C1.40583 13.8698 1.41436 13.7721 1.41436 13.6754C1.41531 9.90182 1.41436 6.12821 1.41531 2.35366C1.41531 1.48253 1.85333 0.832269 2.60896 0.59624C2.77677 0.544106 2.95975 0.512825 3.13609 0.512825C9.05503 0.509033 14.974 0.508085 20.8939 0.509981C21.8799 0.509981 22.6355 1.29769 22.6374 2.32332C22.6412 5.00589 22.6383 7.68752 22.6383 10.3701C22.6383 11.4772 22.6383 12.5844 22.6383 13.6915C22.6374 13.7788 22.6374 13.8641 22.6374 13.9844ZM21.9026 13.9731C21.9026 13.8783 21.9026 13.8015 21.9026 13.7247C21.9026 9.935 21.896 6.14527 21.9093 2.3565C21.9112 1.76311 21.4494 1.24082 20.799 1.24176C14.9503 1.25598 9.10054 1.25598 3.25176 1.24271C2.54828 1.24082 2.14344 1.74131 2.14534 2.34323C2.15577 6.13295 2.15103 9.92267 2.15103 13.7115C2.15103 13.793 2.15103 13.8754 2.15103 13.9636C2.23161 13.9683 2.27807 13.974 2.32358 13.974C5.2949 13.974 8.26622 13.9721 11.2375 13.9797C11.4537 13.9807 11.4528 13.8669 11.4641 13.72C11.6263 11.4621 13.5205 9.63356 15.7846 9.54825C17.9254 9.46768 19.8045 10.8431 20.3658 12.9143C20.4587 13.2565 20.4966 13.6138 20.562 13.9721C20.9934 13.9731 21.4286 13.9731 21.9026 13.9731ZM15.9865 17.8965C18.0875 17.8908 19.795 16.1864 19.796 14.0925C19.7979 11.9758 18.0818 10.281 15.9448 10.2867C13.8694 10.2924 12.1534 12.0213 12.1724 14.1001C12.1913 16.2357 13.9131 17.8955 15.9865 17.8965ZM12.2748 16.7419C12.2264 16.6566 12.2008 16.6035 12.1686 16.5542C11.8604 16.0784 11.6319 15.5656 11.5419 15.0082C11.5021 14.7579 11.4006 14.7238 11.1807 14.7238C7.95999 14.7257 4.74027 14.7191 1.5196 14.7162C1.06831 14.7162 1.14131 14.6688 1.13467 15.1001C1.13372 15.1703 1.13467 15.2404 1.13467 15.3106C1.13562 16.2329 1.64475 16.7429 2.56629 16.7429C5.70827 16.7429 8.85119 16.7429 11.9932 16.7429C12.0766 16.7419 12.1591 16.7419 12.2748 16.7419ZM18.1871 18.0737C18.4136 18.4586 18.6336 18.832 18.8536 19.2065C19.4926 20.2937 20.1287 21.3819 20.7716 22.4663C21.0019 22.8559 21.4485 22.9602 21.7955 22.7203C22.1453 22.4777 22.188 22.0682 21.896 21.7032C21.3508 21.0226 20.8028 20.343 20.2558 19.6633C19.7391 19.0216 19.2205 18.3799 18.7009 17.7363C18.5255 17.851 18.3643 17.9571 18.1871 18.0737ZM19.686 16.7419C19.8045 16.7419 19.8747 16.7419 19.9439 16.7419C20.5203 16.7419 21.0977 16.7552 21.6732 16.7372C22.37 16.7154 22.8763 16.1978 22.9123 15.4964C22.9218 15.3096 22.9038 15.1219 22.918 14.9361C22.9313 14.7589 22.8668 14.7077 22.6933 14.7124C22.0164 14.7304 21.3385 14.739 20.6616 14.7418C20.5118 14.7428 20.4824 14.8053 20.4388 14.9371C20.2738 15.4281 20.0832 15.9106 19.8927 16.3921C19.85 16.503 19.7713 16.6007 19.686 16.7419Z" fill="black"/>
<path d="M4.53948 5.9832C4.53948 5.30545 4.53854 4.6277 4.53948 3.95089C4.54043 3.61344 4.64851 3.494 4.97845 3.48831C5.36812 3.48168 5.75778 3.48168 6.1465 3.48831C6.46506 3.494 6.58547 3.61628 6.58547 3.93099C6.58736 5.30924 6.58831 6.68749 6.58547 8.06669C6.58452 8.37855 6.45368 8.50557 6.14271 8.50747C5.75304 8.51031 5.36338 8.51031 4.97466 8.50747C4.66274 8.50463 4.54043 8.3795 4.53948 8.06385C4.53854 7.36904 4.53948 6.67612 4.53948 5.9832ZM5.83647 7.75957C5.83647 6.56995 5.83647 5.40687 5.83647 4.23052C5.65065 4.23052 5.4762 4.23052 5.29606 4.23052C5.29606 5.41446 5.29606 6.58417 5.29606 7.75957C5.48189 7.75957 5.65065 7.75957 5.83647 7.75957Z" fill="black"/>
<path d="M9.40937 6.73299C9.40937 7.16902 9.41221 7.60601 9.40842 8.04204C9.40558 8.35011 9.29181 8.46197 8.98462 8.46386C8.58737 8.46576 8.19012 8.46671 7.79287 8.46386C7.50086 8.46197 7.38045 8.35011 7.37856 8.05437C7.37381 7.17376 7.37381 6.29411 7.37856 5.41351C7.38045 5.13577 7.5075 5.01349 7.78055 5.0097C8.19391 5.00401 8.60633 5.00401 9.0197 5.0097C9.28043 5.01349 9.40463 5.14051 9.40747 5.40118C9.41316 5.8448 9.40937 6.28937 9.40937 6.73299ZM8.65943 7.71597C8.65943 7.04769 8.65943 6.40596 8.65943 5.76613C8.46697 5.76613 8.29346 5.76613 8.12186 5.76613C8.12186 6.42682 8.12186 7.06855 8.12186 7.71597C8.30863 7.71597 8.47739 7.71597 8.65943 7.71597Z" fill="black"/>
<path d="M17.0882 6.03246C17.9064 6.03246 18.7246 6.03152 19.5438 6.03246C19.8244 6.03246 19.9685 6.14811 19.979 6.37466C19.9903 6.61543 19.8434 6.7652 19.5599 6.7652C17.8998 6.76899 16.2397 6.76899 14.5796 6.7652C14.3046 6.76425 14.17 6.6268 14.1719 6.39077C14.1738 6.1519 14.3075 6.03341 14.5872 6.03246C15.4196 6.03152 16.2539 6.03246 17.0882 6.03246Z" fill="black"/>
<path d="M17.0655 8.13681C16.2473 8.13681 15.429 8.13776 14.6099 8.13681C14.3094 8.13681 14.1738 8.02212 14.1719 7.77756C14.1709 7.533 14.3094 7.40313 14.6033 7.40313C16.2482 7.40029 17.8922 7.40029 19.5371 7.40313C19.8301 7.40313 19.977 7.53489 19.9789 7.77187C19.9808 8.01738 19.831 8.13776 19.5191 8.13776C18.7028 8.13681 17.8837 8.13681 17.0655 8.13681Z" fill="black"/>
<path d="M10.2052 7.39745C10.2052 7.16426 10.1995 6.93013 10.2071 6.69694C10.2147 6.45238 10.3417 6.32157 10.5863 6.31778C11.0139 6.31115 11.4424 6.31115 11.87 6.31778C12.1127 6.32157 12.2455 6.45238 12.2502 6.69789C12.2587 7.15668 12.2587 7.61546 12.2512 8.0752C12.2464 8.33587 12.1156 8.46005 11.8577 8.46194C11.4377 8.46573 11.0177 8.46668 10.5967 8.46194C10.3379 8.4591 10.2165 8.33397 10.2052 8.0733C10.2052 8.06572 10.2052 8.05813 10.2052 8.0496C10.2052 7.83348 10.2052 7.61546 10.2052 7.39745ZM10.9589 7.06568C10.9589 7.29697 10.9589 7.50171 10.9589 7.71404C11.1466 7.71404 11.3192 7.71404 11.4965 7.71404C11.4965 7.48939 11.4965 7.27801 11.4965 7.06568C11.3106 7.06568 11.1428 7.06568 10.9589 7.06568Z" fill="black"/>
<path d="M6.99947 11.0052C6.28271 11.0052 5.56595 11.008 4.84825 11.0033C4.55718 11.0014 4.42824 10.8696 4.44246 10.6127C4.45289 10.4231 4.55055 10.3103 4.74206 10.2857C4.80369 10.2781 4.86626 10.2762 4.92883 10.2762C6.32348 10.2753 7.71812 10.2753 9.11371 10.2762C9.42658 10.2762 9.56121 10.3644 9.58965 10.5748C9.62663 10.8402 9.47778 11.0004 9.17439 11.0023C8.4491 11.008 7.72381 11.0052 6.99947 11.0052Z" fill="black"/>
<path d="M7.00474 12.4611C6.29557 12.4611 5.5864 12.464 4.87722 12.4592C4.58047 12.4574 4.45248 12.3493 4.44205 12.1171C4.43162 11.8848 4.54824 11.7531 4.78241 11.7341C4.8137 11.7313 4.84499 11.7313 4.87627 11.7313C6.30221 11.7313 7.72814 11.7303 9.15501 11.7322C9.47168 11.7322 9.61579 11.8725 9.59114 12.1389C9.57123 12.3531 9.44039 12.4574 9.15691 12.4592C8.43826 12.464 7.7215 12.4611 7.00474 12.4611Z" fill="black"/>
<path d="M16.9578 4.58216C17.4167 4.58216 17.8765 4.58121 18.3354 4.58311C18.5952 4.58406 18.7374 4.70349 18.7497 4.92436C18.762 5.14711 18.6084 5.31015 18.3496 5.31205C17.4157 5.31868 16.4819 5.31868 15.548 5.31205C15.2778 5.31015 15.1451 5.16607 15.1527 4.9272C15.1602 4.69875 15.2911 4.58406 15.5565 4.58311C16.0239 4.58027 16.4914 4.58216 16.9578 4.58216Z" fill="black"/>
<path d="M12.0259 1.63612C12.2439 1.63612 12.4611 1.63043 12.6791 1.63801C12.9 1.64465 13.0356 1.77641 13.0489 1.97831C13.0631 2.18496 12.9247 2.36127 12.7028 2.3679C12.2525 2.38117 11.8012 2.38117 11.3508 2.3679C11.128 2.36127 10.9915 2.18685 11.0048 1.97926C11.0181 1.77641 11.1527 1.64465 11.3736 1.63707C11.5907 1.63043 11.8088 1.63612 12.0259 1.63612Z" fill="black"/>
<path d="M16.2145 10.6384C17.1256 10.6365 18.104 11.1142 18.8189 12.1124C18.9715 12.3247 18.9393 12.5408 18.7582 12.6669C18.5591 12.8053 18.378 12.7768 18.2197 12.5475C17.4129 11.3758 15.8229 11.0355 14.5771 11.8176C14.3477 11.9616 14.1401 11.918 14.0244 11.7332C13.8964 11.5275 13.9505 11.337 14.1894 11.1853C14.7108 10.8507 15.2816 10.6659 16.2145 10.6384Z" fill="black"/>
</svg>
