<svg width="24" height="22" viewBox="0 0 24 22" fill="none" xmlns="http://www.w3.org/2000/svg">
<path d="M0 1.01153C0.0870782 0.858519 0.156741 0.690582 0.264967 0.554989C0.49137 0.271363 0.814803 0.190504 1.16187 0.18926C2.49417 0.188016 3.82771 0.184284 5.16001 0.190504C5.91386 0.194236 6.32934 0.612212 6.33183 1.3673C6.33556 2.6996 6.33681 4.03314 6.33183 5.36544C6.32934 6.11929 5.90888 6.5298 5.15254 6.5298C3.89737 6.53104 2.6422 6.50741 1.38828 6.53975C0.733945 6.55592 0.253771 6.36684 0 5.73739C0 4.16127 0 2.5864 0 1.01153ZM3.14974 5.8369C3.82771 5.8369 4.50568 5.83815 5.18489 5.8369C5.51205 5.83566 5.64516 5.71624 5.6464 5.39032C5.65138 4.04185 5.65138 2.69338 5.6464 1.34367C5.64516 1.01899 5.51205 0.882154 5.19235 0.88091C3.84388 0.875934 2.49541 0.877178 1.1457 0.88091C0.817291 0.882154 0.69165 1.01153 0.69165 1.33496C0.689162 2.68343 0.690406 4.0319 0.69165 5.38161C0.69165 5.7237 0.809827 5.83566 1.16063 5.8369C1.82367 5.83815 2.48671 5.8369 3.14974 5.8369Z" fill="black"/>
<path d="M0.00124397 16.3099C0.165449 15.9566 0.374436 15.6481 0.787436 15.5561C0.900638 15.5312 1.01757 15.5187 1.13326 15.5175C2.48919 15.515 3.84513 15.515 5.20106 15.5163C5.884 15.5175 6.32312 15.9255 6.32934 16.6097C6.34178 17.9893 6.34178 19.3688 6.32934 20.7484C6.32312 21.4251 5.91385 21.8431 5.23091 21.8506C3.85135 21.8667 2.47178 21.8593 1.09221 21.8531C0.532421 21.8506 0.190328 21.5383 0 21.0333C0.00124397 19.4597 0.00124397 17.8848 0.00124397 16.3099ZM0.692894 18.6847C0.692894 19.3552 0.69165 20.0257 0.692894 20.6962C0.694138 21.0383 0.814803 21.1651 1.15565 21.1664C2.49666 21.1701 3.83766 21.1701 5.17867 21.1664C5.51454 21.1651 5.64764 21.032 5.64764 20.6949C5.65138 19.3539 5.65138 18.0129 5.64764 16.6719C5.6464 16.3311 5.51703 16.2104 5.17742 16.2104C3.83642 16.2092 2.49541 16.2092 1.15441 16.2104C0.809828 16.2104 0.694138 16.3261 0.692894 16.6732C0.69165 17.3437 0.692894 18.0142 0.692894 18.6847Z" fill="black"/>
<path d="M0 8.68438C0.216452 8.05618 0.67299 7.83351 1.31613 7.84346C2.58498 7.86336 3.85508 7.84843 5.12393 7.84968C5.91634 7.84968 6.33059 8.26392 6.33183 9.06131C6.33432 10.37 6.33432 11.6786 6.33183 12.986C6.33059 13.7834 5.91634 14.1977 5.12393 14.1977C3.85508 14.1989 2.58498 14.184 1.31613 14.2039C0.67299 14.2139 0.216452 13.9912 0 13.363C0 11.803 0 10.2431 0 8.68438ZM0.69165 11.0231C0.69165 11.6936 0.690406 12.3641 0.69165 13.0346C0.692894 13.3767 0.816047 13.5035 1.15316 13.5035C2.49417 13.5048 3.83517 13.5048 5.17618 13.5035C5.50956 13.5035 5.64516 13.3717 5.6464 13.0346C5.65013 11.6936 5.65013 10.3526 5.6464 9.01155C5.64516 8.67319 5.50956 8.54257 5.17618 8.54257C3.83517 8.54133 2.49417 8.54133 1.15316 8.54257C0.816047 8.54257 0.692894 8.66946 0.69165 9.01155C0.690406 9.68205 0.69165 10.3526 0.69165 11.0231Z" fill="black"/>
<path d="M16.3091 1.99301C13.9319 1.99301 11.5547 1.99301 9.17743 1.99301C9.10777 1.99301 9.03686 1.99674 8.9672 1.99052C8.77812 1.97435 8.66491 1.86986 8.64999 1.68077C8.63506 1.49169 8.72836 1.36729 8.91495 1.32624C8.98959 1.30883 9.06921 1.30385 9.14633 1.30385C13.9157 1.30261 18.6864 1.30261 23.4558 1.30385C23.5329 1.30385 23.6113 1.31007 23.6859 1.32749C23.8713 1.37102 23.9683 1.49542 23.9509 1.68451C23.9335 1.87235 23.8165 1.9756 23.6274 1.99177C23.5578 1.99799 23.4869 1.99426 23.4172 1.99426C21.0474 1.99301 18.6789 1.99301 16.3091 1.99301Z" fill="black"/>
<path d="M16.3067 20.053C18.6765 20.053 21.045 20.053 23.4148 20.053C23.4932 20.053 23.5715 20.0468 23.6487 20.058C23.8241 20.0816 23.9335 20.1849 23.9497 20.3615C23.9659 20.5382 23.8813 20.6638 23.7084 20.7123C23.6275 20.7347 23.5404 20.7422 23.4558 20.7422C18.6865 20.7434 13.9158 20.7434 9.14641 20.7422C9.05436 20.7422 8.95857 20.7347 8.87149 20.7061C8.69858 20.6514 8.63016 20.5195 8.65255 20.3429C8.6737 20.1737 8.77944 20.0804 8.94364 20.0567C9.02077 20.0456 9.09914 20.0518 9.17751 20.0518C11.5523 20.053 13.9295 20.053 16.3067 20.053Z" fill="black"/>
<path d="M16.287 5.41269C13.9185 5.41269 11.5487 5.41269 9.18017 5.41269C9.09433 5.41269 9.00725 5.41767 8.92391 5.40398C8.75846 5.37661 8.66143 5.27337 8.6465 5.10543C8.63158 4.93874 8.70124 4.81309 8.86171 4.76085C8.94879 4.73224 9.04457 4.72353 9.13663 4.72353C13.906 4.72228 18.6754 4.72228 23.4448 4.72353C23.5443 4.72353 23.6762 4.71482 23.7359 4.7708C23.8317 4.86037 23.9374 5.00591 23.9287 5.12036C23.9213 5.22112 23.777 5.33183 23.6687 5.39776C23.6003 5.44006 23.4871 5.41269 23.3926 5.41269C21.0253 5.41269 18.6568 5.41269 16.287 5.41269Z" fill="black"/>
<path d="M16.3022 16.6346C18.6558 16.6346 21.0094 16.6346 23.363 16.6346C23.4327 16.6346 23.5036 16.6334 23.5733 16.6359C23.8034 16.6446 23.9452 16.7677 23.9527 16.9618C23.9601 17.1583 23.8308 17.2927 23.6006 17.3213C23.531 17.33 23.4601 17.3263 23.3904 17.3263C18.6596 17.3263 13.9287 17.3263 9.1979 17.325C9.09714 17.325 8.99513 17.32 8.8981 17.2977C8.70902 17.2541 8.63065 17.1198 8.65179 16.9319C8.6717 16.7528 8.78241 16.6558 8.9603 16.6396C9.04489 16.6321 9.13197 16.6346 9.2178 16.6346C11.5789 16.6346 13.9399 16.6346 16.3022 16.6346Z" fill="black"/>
<path d="M16.2825 8.96799C18.6598 8.96799 21.037 8.96799 23.4142 8.96799C23.4926 8.96799 23.5722 8.96053 23.6469 8.97546C23.8273 9.00904 23.9454 9.11105 23.9516 9.30386C23.9579 9.49792 23.8447 9.60739 23.6668 9.64969C23.5921 9.66711 23.5125 9.66213 23.4342 9.66213C18.6797 9.66213 13.9252 9.66213 9.17074 9.66213C9.10854 9.66213 9.0451 9.66586 8.98414 9.65964C8.77516 9.63725 8.6433 9.50041 8.64454 9.31257C8.64578 9.12473 8.77889 8.98914 8.98788 8.97048C9.05754 8.96426 9.12845 8.96799 9.19811 8.96799C11.5592 8.96799 13.9215 8.96799 16.2825 8.96799Z" fill="black"/>
<path d="M16.3 12.384C18.6697 12.384 21.0383 12.384 23.408 12.384C23.4939 12.384 23.5822 12.3777 23.6643 12.3964C23.8422 12.4375 23.9554 12.5482 23.9492 12.741C23.9429 12.9338 23.8248 13.0358 23.6444 13.0706C23.576 13.0831 23.5051 13.0769 23.4342 13.0769C18.6722 13.0769 13.9103 13.0769 9.14835 13.0769C9.08615 13.0769 9.02271 13.0818 8.96175 13.0719C8.76769 13.0433 8.64578 12.9326 8.64454 12.7323C8.6433 12.5295 8.76645 12.42 8.95927 12.3889C9.03515 12.3765 9.11476 12.3827 9.19313 12.3827C11.5617 12.384 13.9302 12.384 16.3 12.384Z" fill="black"/>
<path d="M14.7591 3.02302C16.6225 3.02302 18.4848 3.02302 20.3482 3.02302C20.4266 3.02302 20.505 3.0168 20.5821 3.02799C20.7476 3.05163 20.8496 3.14741 20.8707 3.31659C20.8919 3.49324 20.8222 3.6251 20.648 3.67735C20.561 3.70347 20.4639 3.71218 20.3719 3.71218C16.63 3.71342 12.8881 3.71342 9.14625 3.71218C9.04673 3.71218 8.94099 3.70471 8.84894 3.67113C8.69096 3.6139 8.60139 3.47334 8.65737 3.32033C8.69842 3.20712 8.81411 3.11009 8.9186 3.03546C8.97085 2.99814 9.07037 3.02302 9.14749 3.02302C11.0172 3.02302 12.8881 3.02302 14.7591 3.02302Z" fill="black"/>
<path d="M14.7446 19.023C12.8737 19.023 11.0027 19.023 9.13181 19.0218C9.03229 19.0218 8.90541 19.0342 8.84072 18.9807C8.75115 18.9061 8.65537 18.7717 8.66034 18.6673C8.66532 18.564 8.77603 18.4433 8.87306 18.3762C8.94521 18.3252 9.06712 18.3351 9.16788 18.3351C12.8936 18.3339 16.6205 18.3339 20.3462 18.3339C20.3848 18.3339 20.4246 18.3326 20.4632 18.3339C20.7406 18.3475 20.8899 18.4807 20.8787 18.7021C20.8687 18.9136 20.7269 19.0243 20.4507 19.0243C18.5487 19.0243 16.6467 19.023 14.7446 19.023Z" fill="black"/>
<path d="M14.7848 10.681C16.6321 10.681 18.4794 10.681 20.3267 10.6822C20.4275 10.6822 20.5307 10.681 20.629 10.7021C20.7957 10.7382 20.8765 10.8589 20.8765 11.0255C20.8765 11.1922 20.7944 11.3104 20.6277 11.3477C20.5382 11.3676 20.4424 11.3664 20.3491 11.3664C16.6234 11.3676 12.8977 11.3676 9.17198 11.3676C9.15581 11.3676 9.14088 11.3676 9.12471 11.3676C8.79257 11.3639 8.64329 11.2569 8.64454 11.0243C8.64454 10.7917 8.79382 10.6835 9.1272 10.6835C11.0118 10.681 12.8989 10.681 14.7848 10.681Z" fill="black"/>
<path d="M3.62064 3.32533C4.01498 3.72092 4.35957 4.06674 4.70415 4.41381C4.76386 4.47476 4.8273 4.53447 4.87955 4.60165C4.99772 4.75217 4.99275 4.91016 4.86462 5.04575C4.73649 5.18134 4.57353 5.20249 4.42425 5.08556C4.2899 4.98106 4.17172 4.85542 4.04982 4.73475C3.75873 4.44366 3.46888 4.15009 3.16411 3.84283C2.77599 4.23468 2.41026 4.61533 2.02711 4.97982C1.93506 5.0669 1.78703 5.14278 1.66636 5.13905C1.57306 5.13656 1.42627 5.01589 1.40513 4.92508C1.379 4.81188 1.4213 4.64021 1.50091 4.55313C1.81564 4.20855 2.154 3.88512 2.48738 3.55671C2.54709 3.49824 2.62422 3.45595 2.70259 3.39748C2.31696 3.00936 1.97113 2.66354 1.62531 2.31522C1.57057 2.26049 1.51211 2.207 1.46359 2.14604C1.32924 1.97438 1.33671 1.79773 1.47728 1.66338C1.61038 1.5365 1.80693 1.53276 1.95994 1.67955C2.29706 2.00423 2.62546 2.33513 2.95387 2.66851C3.01856 2.73444 3.06459 2.81903 3.13301 2.91482C3.51366 2.53043 3.84829 2.19456 4.18168 1.85869C4.24263 1.79773 4.29985 1.73429 4.36454 1.67831C4.52875 1.53774 4.71037 1.53276 4.8472 1.66214C4.99399 1.80022 5.00519 1.99801 4.84969 2.16097C4.53745 2.48689 4.21526 2.80411 3.89183 3.12008C3.81719 3.19596 3.72016 3.25194 3.62064 3.32533Z" fill="black"/>
<path d="M3.16188 19.1624C2.80486 19.5219 2.46526 19.864 2.12565 20.2061C2.0647 20.267 2.00623 20.3292 1.9403 20.384C1.78605 20.5121 1.62309 20.5171 1.47754 20.379C1.332 20.2409 1.32702 20.073 1.45391 19.9187C1.5472 19.8043 1.65667 19.7035 1.75992 19.5978C2.06097 19.2943 2.36201 18.992 2.67425 18.6785C2.28986 18.2953 1.90796 17.9296 1.5472 17.544C1.45639 17.4482 1.37429 17.284 1.38798 17.1621C1.42156 16.8735 1.7649 16.8063 2.00001 17.0339C2.33588 17.3586 2.66181 17.6933 2.99395 18.0229C3.04744 18.0764 3.10466 18.1274 3.17806 18.1971C3.52388 17.8463 3.86349 17.5042 4.20185 17.1608C4.25658 17.1061 4.31007 17.0476 4.36978 16.9979C4.5427 16.8548 4.73676 16.8573 4.86986 17.0016C4.9955 17.1372 4.9955 17.3288 4.84871 17.4843C4.59121 17.7542 4.32376 18.0154 4.05755 18.2792C3.93066 18.4048 3.7988 18.5267 3.6234 18.6922C3.81995 18.8738 4.00281 19.038 4.17821 19.2084C4.39093 19.4137 4.59992 19.6239 4.80642 19.8354C4.99301 20.027 5.01043 20.216 4.8624 20.369C4.71188 20.527 4.51035 20.5109 4.31256 20.3156C3.9319 19.9386 3.55498 19.5567 3.16188 19.1624Z" fill="black"/>
<path d="M2.55017 11.9436C2.97063 11.3328 3.37741 10.7432 3.78294 10.1523C3.95461 9.90223 4.12379 9.6497 4.29919 9.40215C4.45096 9.18818 4.65 9.13594 4.81669 9.25536C4.98711 9.37602 5.01075 9.5763 4.86396 9.79151C4.21336 10.7432 3.56152 11.6948 2.90594 12.6427C2.71686 12.9164 2.49294 12.9276 2.27027 12.6788C2.01153 12.3877 1.75775 12.0916 1.50523 11.7956C1.32112 11.5791 1.31739 11.3875 1.48657 11.2407C1.63958 11.1089 1.8411 11.1412 2.0165 11.3353C2.19315 11.5293 2.36357 11.7296 2.55017 11.9436Z" fill="black"/>
</svg>
