<svg width="24" height="22" viewBox="0 0 24 22" fill="none" xmlns="http://www.w3.org/2000/svg">
<path d="M2.05949 2.97721C2.05949 2.6335 2.05824 2.316 2.06012 1.99787C2.06136 1.75148 2.1331 1.67662 2.37762 1.67413C2.78869 1.67038 3.20039 1.67288 3.64016 1.67288C3.64016 1.26243 3.63953 0.875063 3.64016 0.487695C3.64078 0.146486 3.6938 0.0915933 4.03002 0.0915933C9.39329 0.0909695 14.7566 0.0909695 20.1198 0.0915933C20.4448 0.0915933 20.5028 0.149605 20.5028 0.4721C20.5041 1.93736 20.506 3.40325 20.4997 4.86851C20.4991 5.04192 20.5496 5.12239 20.7143 5.19288C22.3985 5.9121 23.4577 7.74415 23.2581 9.57432C23.0928 11.0926 22.3181 12.1973 20.9832 12.9215C20.9563 12.9365 20.9295 12.9515 20.9033 12.9677C20.8971 12.9714 20.8933 12.9795 20.8752 13.0033C20.952 13.2072 21.0324 13.4224 21.1135 13.6383C21.1516 13.6308 21.1753 13.6295 21.1959 13.6214C21.771 13.3981 21.7167 13.4736 21.9282 13.9383C22.4241 15.0287 22.9231 16.1178 23.4016 17.2156C23.6735 17.8388 23.5182 18.4139 23.0759 18.9011C22.6518 19.3689 22.106 19.5124 21.5003 19.3402C21.0798 19.2211 20.7742 18.9329 20.5228 18.5063C20.5134 18.6279 20.5047 18.6915 20.5047 18.7551C20.5041 19.644 20.5047 20.5323 20.5035 21.4212C20.5028 21.7986 20.4411 21.861 20.0724 21.861C14.7329 21.861 9.39267 21.861 4.0531 21.861C3.68819 21.861 3.6414 21.8117 3.64078 21.4399C3.64016 21.0669 3.64078 20.6932 3.64078 20.2797C3.38939 20.2797 3.15173 20.2803 2.9147 20.2797C1.926 20.2778 2.0701 20.3695 2.06012 19.4151C2.05887 19.2766 2.06012 19.1381 2.06012 18.9753C1.64405 18.9753 1.24858 18.9766 0.853722 18.9747C0.589239 18.9735 0.520623 18.908 0.519999 18.6454C0.519375 13.5316 0.519375 8.41783 0.519999 3.30407C0.519999 3.04146 0.587991 2.97783 0.85497 2.97721C1.24483 2.97658 1.63407 2.97721 2.05949 2.97721ZM4.13419 0.598728C4.13419 7.51397 4.13419 14.4093 4.13419 21.2995C9.43945 21.2995 14.7279 21.2995 20.0244 21.2995C20.0244 20.1493 20.0076 19.019 20.0306 17.8893C20.0444 17.22 19.9789 16.5744 19.7562 15.9406C19.6221 15.5601 19.5304 15.1647 19.42 14.776C19.2915 14.3238 19.2921 14.3238 19.7237 14.1473C19.7356 14.1423 19.7425 14.1242 19.763 14.0961C19.7306 14.005 19.695 13.9034 19.6576 13.8023C19.5079 13.4012 19.5073 13.4006 19.0781 13.4143C16.2961 13.5029 14.3424 10.9635 14.7553 8.44153C15.1046 6.30883 16.918 4.81612 19.0844 4.84918C19.3919 4.85354 19.6988 4.8997 20.0126 4.92653C20.0126 3.48746 20.0126 2.0484 20.0126 0.598104C14.7179 0.598728 9.43446 0.598728 4.13419 0.598728ZM2.5554 2.18625C2.5554 8.06165 2.5554 13.9115 2.5554 19.7663C2.90347 19.7663 3.23532 19.7663 3.57902 19.7663C3.57902 13.9015 3.57902 8.05105 3.57902 2.18625C3.23407 2.18625 2.90285 2.18625 2.5554 2.18625ZM1.02963 3.46688C1.02963 8.47771 1.02963 13.4755 1.02963 18.4863C1.37458 18.4863 1.70456 18.4863 2.04764 18.4863C2.04764 13.4755 2.04764 8.47771 2.04764 3.46688C1.70518 3.46688 1.37458 3.46688 1.02963 3.46688ZM15.1109 9.14329C15.1084 11.1987 16.8462 12.9365 18.9085 12.9427C20.7168 12.9484 22.6861 11.4195 22.688 9.12395C22.6898 7.08107 20.9389 5.31639 18.9141 5.32512C16.8363 5.33448 15.1127 7.06423 15.1109 9.14329ZM21.4485 13.9714C20.9863 14.3531 20.5047 14.6238 19.8909 14.5477C19.9134 14.6544 19.924 14.7218 19.9414 14.7873C20.2303 15.8514 20.5197 16.9162 20.8104 17.9804C21.0075 18.704 21.6213 19.0514 22.3143 18.8319C22.8894 18.6497 23.2026 17.9355 22.935 17.3067C22.4653 16.2064 21.9625 15.1204 21.4485 13.9714ZM20.4579 13.1561C20.3026 13.2079 20.176 13.2503 20.0369 13.2971C20.118 13.521 20.191 13.7237 20.2689 13.9383C20.418 13.8865 20.5459 13.8416 20.6856 13.793C20.6076 13.5753 20.5378 13.38 20.4579 13.1561Z" fill="black"/>
<path d="M13.0659 5.59648C13.8076 5.09309 14.5343 4.59656 15.266 4.10751C15.3702 4.03827 15.3702 3.96966 15.3552 3.858C15.2517 3.08888 15.9621 2.44513 16.7051 2.62603C17.2085 2.74892 17.5703 3.2311 17.531 3.72825C17.486 4.29777 17.0725 4.70135 16.4986 4.75126C16.1674 4.77995 15.8823 4.69761 15.6471 4.4481C15.5848 4.48552 15.5299 4.51422 15.4793 4.5479C14.815 4.99703 14.1526 5.44927 13.4857 5.89527C13.3847 5.96326 13.346 6.02252 13.3747 6.15476C13.555 6.99812 12.8732 7.61878 11.9855 7.4566C11.5133 7.36989 11.0205 6.69683 11.3081 6.01379C11.3649 5.87905 11.348 5.78923 11.2694 5.67695C11.0467 5.35882 10.8353 5.0332 10.6126 4.70073C10.2134 4.85917 9.84596 4.84732 9.51598 4.55352C9.48479 4.52545 9.38374 4.54166 9.33696 4.57098C9.02195 4.77122 8.70819 4.97582 8.4044 5.19289C8.34889 5.23282 8.3046 5.34322 8.3152 5.41184C8.41938 6.08927 8.05945 6.56272 7.35271 6.66127C6.73517 6.74736 6.18312 6.31695 6.1432 5.68319C6.11637 5.25714 6.29977 4.91344 6.67591 4.68763C7.06951 4.45122 7.45813 4.46806 7.84175 4.71009C7.90039 4.74751 7.95279 4.79492 8.02764 4.85231C8.38881 4.61215 8.75934 4.37262 9.11926 4.11812C9.16542 4.08568 9.17727 3.9734 9.16979 3.90166C9.09181 3.15687 9.70062 2.55679 10.4398 2.6566C11.1871 2.75765 11.5838 3.62096 11.179 4.26658C11.1378 4.33207 11.0904 4.3932 11.0411 4.46307C11.2701 4.80615 11.499 5.1486 11.7342 5.50104C12.1964 5.24404 12.6349 5.27024 13.0659 5.59648ZM9.57337 3.67835C9.57587 4.01145 9.84534 4.2828 10.1791 4.28654C10.5047 4.29028 10.7979 3.99087 10.7935 3.65901C10.7897 3.33839 10.5041 3.07016 10.1653 3.06892C9.82101 3.06829 9.57088 3.32654 9.57337 3.67835ZM6.59669 5.55905C6.5786 5.88716 6.84807 6.1872 7.17493 6.20217C7.50117 6.21714 7.79622 5.96326 7.8168 5.65013C7.83801 5.3295 7.59037 5.00763 7.30717 4.98767C6.90483 4.95897 6.61727 5.1904 6.59669 5.55905ZM15.8025 3.60412C15.795 3.9603 16.0551 4.23476 16.4057 4.23913C16.7182 4.2435 17.0082 3.96841 17.0219 3.65465C17.0363 3.33153 16.7406 3.03087 16.4019 3.02463C16.0638 3.01901 15.8099 3.26416 15.8025 3.60412ZM12.2556 6.95882C12.6124 6.97067 12.9087 6.70931 12.8994 6.37122C12.8925 6.12233 12.6449 5.75929 12.2874 5.76365C11.9412 5.76802 11.6936 5.99009 11.683 6.33005C11.6718 6.68311 11.9126 6.94821 12.2556 6.95882Z" fill="black"/>
<path d="M15.6644 16.8944C15.6644 16.0136 15.6638 15.1322 15.665 14.2514C15.6656 13.9526 15.7255 13.8909 16.0168 13.8896C16.5314 13.8871 17.0461 13.8871 17.5607 13.8896C17.8495 13.8909 17.9162 13.9595 17.9162 14.2489C17.9169 16.0267 17.9169 17.8045 17.9162 19.5816C17.9162 19.8754 17.8532 19.9416 17.5638 19.9428C17.0417 19.9453 16.519 19.9459 15.9968 19.9422C15.7342 19.9403 15.6662 19.8717 15.6656 19.6072C15.6631 18.7034 15.6644 17.7989 15.6644 16.8944ZM17.4147 19.4382C17.4147 17.7427 17.4147 16.0722 17.4147 14.3999C16.9849 14.3999 16.5745 14.3999 16.1553 14.3999C16.1553 16.0847 16.1553 17.7558 16.1553 19.4382C16.5795 19.4382 16.9899 19.4382 17.4147 19.4382Z" fill="black"/>
<path d="M9.38739 17.4577C9.38739 16.7559 9.38552 16.0541 9.38802 15.353C9.38926 15.0492 9.44041 15.0012 9.74419 15.0012C10.2744 15.0006 10.8046 15.0049 11.3342 14.9987C11.5513 14.9962 11.6486 15.0879 11.648 15.3044C11.6461 16.7391 11.648 18.1731 11.6461 19.6078C11.6455 19.823 11.532 19.9397 11.3143 19.9416C10.7766 19.9465 10.2382 19.9465 9.70053 19.9416C9.45726 19.9397 9.38926 19.8661 9.38802 19.6091C9.38552 18.8924 9.38739 18.175 9.38739 17.4577ZM9.83901 15.4971C9.83901 16.8226 9.83901 18.127 9.83901 19.4369C10.2626 19.4369 10.6711 19.4369 11.0928 19.4369C11.0928 18.1201 11.0928 16.8164 11.0928 15.4971C10.673 15.4971 10.2644 15.4971 9.83901 15.4971Z" fill="black"/>
<path d="M8.47669 18.0877C8.47669 18.5867 8.47856 19.0858 8.47607 19.5842C8.47482 19.8655 8.39747 19.941 8.11116 19.9422C7.59654 19.9447 7.08192 19.9447 6.56792 19.9422C6.29221 19.941 6.22359 19.8699 6.22359 19.596C6.22234 18.5749 6.22234 17.5538 6.22359 16.5326C6.22359 16.2656 6.28784 16.1939 6.54921 16.1914C7.08691 16.1864 7.62523 16.1864 8.16293 16.192C8.41182 16.1945 8.47482 16.265 8.47669 16.5208C8.47919 17.0435 8.47669 17.5656 8.47669 18.0877ZM6.72386 19.4313C7.1549 19.4313 7.57096 19.4313 7.98078 19.4313C7.98078 18.5063 7.98078 17.5993 7.98078 16.6948C7.55287 16.6948 7.14305 16.6948 6.72386 16.6948C6.72386 17.6161 6.72386 18.5237 6.72386 19.4313Z" fill="black"/>
<path d="M12.4969 18.3927C12.4969 17.9804 12.4951 17.5681 12.4975 17.1552C12.4988 16.8894 12.563 16.8239 12.8269 16.8233C13.364 16.8214 13.9011 16.8214 14.4375 16.8233C14.6914 16.8246 14.7581 16.8844 14.7594 17.1389C14.7631 17.9636 14.7631 18.7888 14.7594 19.6135C14.7581 19.8723 14.6839 19.941 14.4182 19.9422C13.8892 19.9453 13.3596 19.946 12.8306 19.9422C12.5718 19.9403 12.4988 19.8642 12.4969 19.6066C12.4951 19.2018 12.4969 18.7969 12.4969 18.3927ZM14.256 19.4369C14.256 18.714 14.256 18.0172 14.256 17.3173C13.8306 17.3173 13.422 17.3173 13.0066 17.3173C13.0066 18.0309 13.0066 18.7277 13.0066 19.4369C13.4289 19.4369 13.8374 19.4369 14.256 19.4369Z" fill="black"/>
<path d="M8.41211 12.6102C7.77336 12.6102 7.13523 12.609 6.49648 12.6109C6.31433 12.6115 6.13281 12.6046 6.13281 12.3614C6.13344 12.1312 6.30934 12.1193 6.48151 12.1193C7.76587 12.1193 9.05086 12.1193 10.3352 12.1193C10.5118 12.1193 10.6789 12.1424 10.6746 12.3707C10.6708 12.599 10.5024 12.6115 10.3265 12.6109C9.68899 12.609 9.05024 12.6102 8.41211 12.6102Z" fill="black"/>
<path d="M8.27861 10.4102C7.66357 10.4102 7.04914 10.4096 6.43409 10.4108C6.25819 10.4114 6.09039 10.3921 6.08602 10.1669C6.08166 9.94111 6.24758 9.91241 6.42474 9.91241C7.6698 9.91241 8.91487 9.91241 10.1599 9.91241C10.3065 9.91241 10.4463 9.9305 10.4812 10.1108C10.5174 10.2992 10.4082 10.4077 10.1699 10.4089C9.53928 10.4121 8.90926 10.4102 8.27861 10.4102Z" fill="black"/>
<path d="M7.67303 13.2247C8.07786 13.2247 8.48332 13.2284 8.88816 13.2228C9.06032 13.2203 9.19069 13.2752 9.1988 13.4586C9.20691 13.6463 9.07342 13.7137 8.90562 13.7137C8.08036 13.7156 7.25447 13.7162 6.42921 13.7137C6.26765 13.7131 6.12855 13.6626 6.13291 13.4642C6.13728 13.2702 6.2664 13.2228 6.43482 13.224C6.84714 13.2265 7.26009 13.2247 7.67303 13.2247Z" fill="black"/>
<path d="M12.7125 10.4102C12.3233 10.4102 11.934 10.4083 11.5448 10.4108C11.3614 10.4121 11.2061 10.3715 11.2111 10.152C11.216 9.9455 11.3714 9.91119 11.5417 9.91181C12.3276 9.91244 13.1136 9.91181 13.9002 9.91244C14.0692 9.91244 14.2208 9.94799 14.2214 10.1607C14.222 10.3715 14.0761 10.4108 13.9033 10.4108C13.5059 10.4096 13.1092 10.4102 12.7125 10.4102Z" fill="black"/>
<path d="M10.9427 9.29735C10.5061 9.29735 10.0694 9.29486 9.63279 9.2986C9.45751 9.29985 9.33774 9.24183 9.34398 9.04909C9.3496 8.86819 9.46936 8.82141 9.63155 8.82203C10.5048 8.82452 11.3775 8.82452 12.2508 8.82203C12.4092 8.82141 12.5384 8.85758 12.5421 9.04285C12.5465 9.23248 12.4248 9.29797 12.2521 9.29735C11.816 9.29673 11.3794 9.29735 10.9427 9.29735Z" fill="black"/>
<path d="M12.8004 12.6103C12.4417 12.6103 12.0837 12.6078 11.725 12.6115C11.5491 12.6134 11.4063 12.5735 11.4063 12.3639C11.4056 12.1674 11.5422 12.1206 11.7075 12.1206C12.448 12.12 13.1884 12.12 13.9288 12.1212C14.0935 12.1218 14.227 12.1705 14.2239 12.3695C14.2201 12.566 14.091 12.6115 13.9232 12.6109C13.5483 12.6096 13.1747 12.6103 12.8004 12.6103Z" fill="black"/>
<path d="M10.9646 11.024C11.3301 11.024 11.6957 11.0259 12.0612 11.0227C12.219 11.0215 12.3469 11.0577 12.3538 11.2423C12.3606 11.4326 12.239 11.5024 12.0687 11.5024C11.3146 11.5037 10.5598 11.503 9.80563 11.5024C9.64157 11.5024 9.53366 11.4344 9.53927 11.2542C9.54489 11.0726 9.65904 11.0215 9.82184 11.0227C10.2024 11.0265 10.5835 11.024 10.9646 11.024Z" fill="black"/>
<path d="M7.48661 11.0246C7.83655 11.0246 8.18587 11.0271 8.53581 11.0234C8.69051 11.0221 8.80092 11.0789 8.8084 11.2417C8.81651 11.412 8.71172 11.5012 8.54704 11.5018C7.82407 11.505 7.10173 11.5037 6.37877 11.5018C6.2222 11.5012 6.12801 11.422 6.133 11.2579C6.13737 11.0945 6.23468 11.0253 6.39125 11.0253C6.75616 11.0246 7.12107 11.0246 7.48661 11.0246Z" fill="black"/>
<path d="M7.391 9.29735C7.06477 9.29735 6.73853 9.2961 6.41229 9.29797C6.25011 9.29922 6.13471 9.2462 6.13284 9.06468C6.13097 8.88628 6.23763 8.82203 6.40356 8.82265C7.04855 8.82452 7.69291 8.82452 8.3379 8.82203C8.50196 8.8214 8.61486 8.87567 8.61674 9.05594C8.61923 9.23372 8.51319 9.29922 8.34664 9.29797C8.02789 9.29548 7.70913 9.29672 7.391 9.29735Z" fill="black"/>
<path d="M15.8594 9.11333C15.8631 7.44285 17.2467 6.06304 18.9109 6.07053C20.6014 6.07801 21.998 7.45969 21.9918 9.11832C21.9849 10.883 20.6207 12.2404 18.8641 12.231C17.2018 12.2216 15.8556 10.825 15.8594 9.11333ZM18.9671 11.6896C20.3718 11.6864 21.5202 10.5031 21.5158 9.06468C21.5115 7.67801 20.3793 6.5053 19.0388 6.49906C17.5748 6.4922 16.3384 7.69298 16.3328 9.12643C16.3272 10.5399 17.5124 11.6927 18.9671 11.6896Z" fill="black"/>
</svg>
