<svg width="24" height="22" viewBox="0 0 24 22" fill="none" xmlns="http://www.w3.org/2000/svg">
<path d="M0 0.824219C1.20629 0.824219 2.41258 0.824219 3.63855 0.824219C3.63855 1.48806 3.63855 2.12456 3.63855 2.77637C4.12085 2.77637 4.58237 2.77637 5.06904 2.77637C5.06904 2.13003 5.06904 1.49462 5.06904 0.843904C6.28845 0.843904 7.48489 0.843904 8.71306 0.843904C8.71306 1.48697 8.71306 2.12784 8.71306 2.78075C9.20301 2.78075 9.66015 2.78075 10.1457 2.78075C10.1457 2.14097 10.1457 1.499 10.1457 0.842811C11.3706 0.842811 12.5671 0.842811 13.7919 0.842811C13.7919 1.48259 13.7919 2.12456 13.7919 2.77965C14.283 2.77965 14.7445 2.77965 15.2312 2.77965C15.2312 2.13112 15.2312 1.49462 15.2312 0.843904C16.4517 0.843904 17.6492 0.843904 18.8774 0.843904C18.8774 1.48369 18.8774 2.12675 18.8774 2.78075C19.3651 2.78075 19.8212 2.78075 20.298 2.78075C20.298 2.14097 20.298 1.50446 20.298 0.848279C21.5207 0.848279 22.7226 0.848279 23.9519 0.848279C23.9519 0.931396 23.9519 1.01451 23.9519 1.09763C23.9519 7.35764 23.9519 13.6177 23.9519 19.8777C23.9519 20.652 23.4783 21.1244 22.6975 21.1244C15.6271 21.1244 8.55557 21.119 1.48517 21.1332C0.774299 21.1343 0.259193 20.9298 0 20.2397C0 13.7675 0 7.2964 0 0.824219ZM0.748052 6.20494C0.748052 6.30775 0.748052 6.38539 0.748052 6.46195C0.748052 10.9054 0.748052 15.35 0.748052 19.7935C0.748052 20.2495 0.871634 20.3709 1.33424 20.3709C8.42871 20.3709 15.5232 20.3709 22.6176 20.3709C23.0802 20.3709 23.2049 20.2484 23.2049 19.7935C23.2049 15.35 23.2049 10.9054 23.2049 6.46195C23.2049 6.37883 23.2049 6.29572 23.2049 6.20494C15.7091 6.20494 8.24388 6.20494 0.748052 6.20494ZM23.194 3.56489C15.7047 3.56489 8.23295 3.56489 0.766644 3.56489C0.766644 4.19373 0.766644 4.80508 0.766644 5.41643C8.25154 5.41643 15.7167 5.41643 23.194 5.41643C23.194 4.79633 23.194 4.19045 23.194 3.56489ZM10.9189 1.59196C10.9189 2.00098 10.9189 2.38594 10.9189 2.77418C11.6342 2.77418 12.3363 2.77418 13.0308 2.77418C13.0308 2.36954 13.0308 1.98567 13.0308 1.59196C12.3221 1.59196 11.6331 1.59196 10.9189 1.59196ZM2.87519 1.59961C2.15229 1.59961 1.45783 1.59961 0.761176 1.59961C0.761176 2.00317 0.761176 2.38813 0.761176 2.78075C1.46986 2.78075 2.16541 2.78075 2.87519 2.78075C2.87519 2.38375 2.87519 1.99989 2.87519 1.59961ZM23.1984 1.59852C22.4787 1.59852 21.7832 1.59852 21.0778 1.59852C21.0778 1.99989 21.0778 2.38375 21.0778 2.77418C21.793 2.77418 22.4941 2.77418 23.1984 2.77418C23.1984 2.3761 23.1984 1.9966 23.1984 1.59852ZM5.85318 1.59305C5.85318 2.00535 5.85318 2.39032 5.85318 2.77965C6.55858 2.77965 7.24757 2.77965 7.93766 2.77965C7.93766 2.3761 7.93766 1.98567 7.93766 1.59305C7.23445 1.59305 6.55202 1.59305 5.85318 1.59305ZM16.0077 2.77856C16.7174 2.77856 17.4064 2.77856 18.102 2.77856C18.102 2.37938 18.102 1.99332 18.102 1.59524C17.3999 1.59524 16.7109 1.59524 16.0077 1.59524C16.0077 1.99223 16.0077 2.37719 16.0077 2.77856Z" fill="black"/>
<path d="M17.155 12.7657C17.4875 14.7353 16.4956 17.5854 13.7177 18.842C11.0197 20.0625 7.77922 19.0345 6.25031 16.4677C4.71155 13.8834 5.35899 10.5631 7.75735 8.74546C10.1306 6.94533 13.2584 7.32591 15.0476 8.89748C14.8967 9.0823 14.7446 9.26713 14.5937 9.45086C12.1669 7.5698 9.26111 8.25114 7.74532 9.74833C6.07423 11.3997 5.68708 13.9009 6.81572 15.9329C7.94873 17.9736 10.2979 18.9973 12.5464 18.4526C14.632 17.9474 16.7198 15.8815 16.4518 12.8565C16.6793 12.8258 16.9079 12.7974 17.155 12.7657Z" fill="black"/>
<path d="M11.2841 15.2024C12.6118 13.7281 13.9253 12.2703 15.2551 10.795C15.4422 10.9612 15.6193 11.1187 15.8195 11.297C14.331 12.9495 12.8491 14.5943 11.3574 16.2501C10.4836 15.5217 9.62945 14.8097 8.75781 14.0836C8.9153 13.8911 9.06622 13.7063 9.23573 13.4996C9.91598 14.065 10.5886 14.6249 11.2841 15.2024Z" fill="black"/>
<path d="M17.446 9.48918C17.2503 9.31419 17.072 9.15452 16.8828 8.98501C17.2186 8.61317 17.5456 8.25008 17.8802 7.87933C18.0727 8.05213 18.251 8.2118 18.4413 8.38241C18.1099 8.75206 17.7883 9.10968 17.446 9.48918Z" fill="black"/>
<path d="M16.3468 10.7096C16.1554 10.5368 15.9783 10.3772 15.7891 10.2055C15.9958 9.97471 16.1904 9.75598 16.4059 9.51538C16.5929 9.68271 16.7744 9.84347 16.9702 10.0185C16.758 10.2525 16.5579 10.4745 16.3468 10.7096Z" fill="black"/>
</svg>
