<svg width="24" height="24" viewBox="0 0 24 24" fill="none" xmlns="http://www.w3.org/2000/svg">
<path d="M23.9989 18.1055C23.9377 18.4017 23.8898 18.7004 23.8154 18.9918C23.2362 21.2416 21.3569 22.8871 19.0603 23.1593C18.8216 23.1881 18.5794 23.2013 18.3383 23.2013C12.4139 23.2037 6.48821 23.2037 0.563765 23.2025C0.15601 23.2025 0.046875 23.0969 0.046875 22.6976C0.046875 15.5487 0.046875 8.39974 0.046875 1.25083C0.046875 0.859869 0.15601 0.748336 0.542178 0.748336C5.97612 0.748336 11.4101 0.747136 16.844 0.748336C17.9521 0.748336 18.758 1.55665 18.7592 2.66718C18.7604 5.66898 18.7592 8.66958 18.7592 11.6714C18.7592 11.7637 18.7592 11.8573 18.7592 11.9448C19.173 12.0324 19.5796 12.0947 19.9717 12.2075C22.1244 12.8287 23.6883 14.6876 23.9557 16.9182C23.9617 16.971 23.9845 17.0214 23.9989 17.0729C23.9989 17.4195 23.9989 17.7625 23.9989 18.1055ZM0.809617 1.49669C0.809617 8.49809 0.809617 15.4707 0.809617 22.4409C5.71467 22.4409 10.6029 22.4409 15.4984 22.4409C13.3901 20.985 12.3755 19.011 12.8984 16.4877C13.4596 13.7785 15.2981 12.3442 17.9977 11.9544C17.9977 9.4731 17.9977 6.99059 17.9977 4.49009C17.3921 4.49009 16.8008 4.49129 16.2096 4.49009C15.899 4.48889 15.7682 4.36057 15.767 4.05235C15.7646 3.51388 15.767 2.9766 15.7658 2.43812C15.7658 1.77252 15.4924 1.49669 14.834 1.49669C10.2504 1.49669 5.6655 1.49669 1.08185 1.49669C0.996705 1.49669 0.911556 1.49669 0.809617 1.49669ZM21.5224 13.8936C20.8184 13.2448 19.576 12.7387 18.7628 12.7723C18.7437 13.0613 18.8468 13.4703 18.3755 13.4619C17.921 13.4547 18.0349 13.0518 18.0037 12.7507C16.9495 12.8323 16.0429 13.2197 15.2442 13.8853C15.6111 14.3446 15.6627 14.5053 15.4732 14.6708C15.1206 14.979 14.9239 14.6324 14.6841 14.4405C14.0149 15.256 13.6227 16.1603 13.5484 17.2013C14.1348 17.2528 14.2715 17.3164 14.2631 17.5694C14.2476 18.0576 13.847 17.9424 13.5424 17.9724C13.6323 19.0338 14.0149 19.9428 14.6865 20.7403C15.0954 20.3722 15.2717 20.3206 15.4612 20.4945C15.6519 20.6708 15.6135 20.8219 15.2454 21.298C16.0441 21.9624 16.9495 22.3486 18.0037 22.4301C18.0325 22.1243 17.921 21.7249 18.3767 21.7178C18.854 21.7106 18.7317 22.1279 18.7724 22.4301C19.823 22.345 20.7309 21.96 21.5392 21.2848C21.3353 21.0534 20.9983 20.8471 21.2885 20.5293C21.6171 20.1695 21.8426 20.5461 22.0741 20.7271C22.7037 20.0795 23.2338 18.7867 23.2026 17.97C22.9184 17.9412 22.5046 18.054 22.513 17.579C22.5214 17.1233 22.922 17.2372 23.2242 17.2073C23.1414 16.1519 22.7565 15.2452 22.0897 14.4477C21.6243 14.8183 21.4648 14.8615 21.2861 14.672C21.1146 14.4921 21.159 14.3422 21.5224 13.8936ZM16.3283 1.48349C16.6629 2.24144 16.4314 3.00058 16.5334 3.72735C17.0299 3.72735 17.5144 3.72735 18.0085 3.72735C18.0085 3.33039 18.0241 2.94902 18.0049 2.56884C17.9785 2.03756 17.6211 1.62741 17.0982 1.53147C16.856 1.48709 16.6041 1.49789 16.3283 1.48349Z" fill="black"/>
<path d="M4.16403 10.4781C3.68792 10.4781 3.213 10.4793 2.73689 10.4781C2.42508 10.4769 2.29435 10.3486 2.29435 10.0404C2.29315 9.08093 2.29195 8.1227 2.29435 7.16328C2.29555 6.86945 2.42747 6.73873 2.7249 6.73753C3.68432 6.73633 4.64254 6.73633 5.60197 6.73753C5.89819 6.73753 6.03251 6.86945 6.03371 7.16208C6.03611 8.1287 6.03611 9.09532 6.03371 10.0631C6.03251 10.3414 5.89579 10.4757 5.61396 10.4769C5.13065 10.4805 4.64734 10.4781 4.16403 10.4781ZM3.0451 9.08452C3.57399 8.55564 4.11726 8.01237 4.62575 7.50387C4.13885 7.50387 3.59198 7.50387 3.0451 7.50387C3.0451 8.05914 3.0451 8.59402 3.0451 9.08452ZM5.26977 9.72734C5.26977 9.16248 5.26977 8.6192 5.26977 8.15868C4.76007 8.66837 4.2168 9.21045 3.69991 9.72734C4.17962 9.72734 4.7157 9.72734 5.26977 9.72734Z" fill="black"/>
<path d="M6.03532 13.8661C6.03532 14.3422 6.03772 14.8171 6.03412 15.2932C6.03293 15.5858 5.89861 15.7177 5.60238 15.7189C4.64296 15.7213 3.68473 15.7213 2.72531 15.7189C2.42909 15.7189 2.29477 15.587 2.29477 15.2932C2.29237 14.3266 2.29237 13.36 2.29477 12.3921C2.29597 12.1139 2.43149 11.9796 2.71452 11.9796C3.68114 11.9772 4.64776 11.9772 5.61558 11.9796C5.9046 11.9808 6.03412 12.1175 6.03532 12.4161C6.03652 12.8982 6.03532 13.3815 6.03532 13.8661ZM4.67174 12.7387C4.14886 12.7387 3.60318 12.7387 3.06111 12.7387C3.06111 13.2964 3.06111 13.8409 3.06111 14.3506C3.59479 13.8157 4.13566 13.2748 4.67174 12.7387ZM3.61398 14.9562C4.18363 14.9562 4.72931 14.9562 5.26658 14.9562C5.26658 14.3985 5.26658 13.8565 5.26658 13.3036C4.71132 13.8577 4.17404 14.3961 3.61398 14.9562Z" fill="black"/>
<path d="M4.17524 20.9586C3.69193 20.9586 3.20862 20.9598 2.72531 20.9574C2.42909 20.9562 2.29477 20.8255 2.29477 20.5317C2.29237 19.5651 2.29237 18.5985 2.29477 17.6306C2.29597 17.3512 2.43149 17.2181 2.71332 17.2169C3.67994 17.2145 4.64656 17.2145 5.61438 17.2169C5.89621 17.2181 6.03293 17.3512 6.03412 17.6306C6.03652 18.6057 6.03652 19.5795 6.03412 20.5545C6.03293 20.8183 5.89261 20.9538 5.62637 20.9562C5.14306 20.961 4.65855 20.9586 4.17524 20.9586ZM5.27738 17.9808C4.52303 17.9808 3.78787 17.9808 3.05871 17.9808C3.05871 18.7328 3.05871 19.4679 3.05871 20.1995C3.80706 20.1995 4.53742 20.1995 5.27738 20.1995C5.27738 19.4571 5.27738 18.7268 5.27738 17.9808Z" fill="black"/>
<path d="M11.6489 7.48471C10.1989 7.48471 8.74781 7.48471 7.29788 7.48471C7.22832 7.48471 7.15637 7.4907 7.08801 7.47871C6.90332 7.44873 6.775 7.28443 6.78579 7.09374C6.79778 6.89586 6.90812 6.77953 7.0988 6.74235C7.15877 6.73036 7.22353 6.73755 7.28589 6.73755C10.1941 6.73755 13.1024 6.73755 16.0107 6.73755C16.073 6.73755 16.1366 6.73036 16.1977 6.74235C16.3884 6.77953 16.5 6.89586 16.512 7.09254C16.5239 7.28203 16.3944 7.44753 16.2097 7.47751C16.1414 7.4883 16.0694 7.48351 15.9999 7.48351C14.5499 7.48471 13.1 7.48471 11.6489 7.48471Z" fill="black"/>
<path d="M11.6446 8.98137C10.1707 8.98137 8.69682 8.98137 7.2241 8.98137C6.94467 8.98137 6.78636 8.84345 6.78516 8.60959C6.78397 8.41891 6.91469 8.2642 7.10297 8.23901C7.16414 8.23062 7.2277 8.23542 7.29006 8.23542C10.1983 8.23542 13.1066 8.23542 16.0148 8.23542C16.0772 8.23542 16.142 8.22822 16.2019 8.24021C16.3926 8.27979 16.5017 8.39732 16.5125 8.5952C16.5221 8.78589 16.3926 8.94779 16.2067 8.97657C16.1384 8.98737 16.0664 8.98137 15.9968 8.98137C14.5445 8.98137 13.0946 8.98137 11.6446 8.98137Z" fill="black"/>
<path d="M10.3338 12.7244C9.29645 12.7244 8.26027 12.7256 7.22289 12.7244C6.94466 12.7244 6.78516 12.5864 6.78516 12.3526C6.78516 12.1259 6.93986 11.9808 7.19771 11.9796C7.85252 11.9772 8.50732 11.9784 9.16213 11.9784C10.5893 11.9784 12.0164 11.9796 13.4424 11.976C13.6306 11.976 13.7818 12.0204 13.8633 12.2027C13.9808 12.4677 13.7902 12.722 13.4687 12.7232C12.423 12.7256 11.3784 12.7244 10.3338 12.7244Z" fill="black"/>
<path d="M5.64633 5.23847C4.66411 5.23847 3.6819 5.24086 2.69849 5.23727C2.37229 5.23607 2.17201 4.93385 2.34471 4.6868C2.41306 4.58965 2.57017 4.50091 2.6865 4.50091C4.66651 4.49011 6.64772 4.49251 8.62774 4.49371C8.86879 4.49371 9.0211 4.64242 9.0235 4.85949C9.0271 5.08736 8.87119 5.23727 8.61574 5.23727C7.62634 5.24086 6.63693 5.23847 5.64633 5.23847Z" fill="black"/>
<path d="M9.78585 9.73215C10.6277 9.73215 11.4696 9.73095 12.3127 9.73215C12.6114 9.73215 12.7721 9.86647 12.7697 10.1087C12.7673 10.3498 12.6078 10.4793 12.3055 10.4793C10.6134 10.4793 8.92117 10.4781 7.22899 10.4817C7.02871 10.4817 6.85001 10.4265 6.81044 10.2275C6.78645 10.1039 6.84042 9.93603 6.91837 9.83289C6.97234 9.76093 7.12585 9.73815 7.23498 9.73695C8.08647 9.72855 8.93676 9.73215 9.78585 9.73215Z" fill="black"/>
<path d="M9.42237 13.4751C10.1395 13.4751 10.8567 13.4739 11.5739 13.4751C11.8581 13.4751 12.0152 13.6046 12.0212 13.8373C12.0272 14.0795 11.8653 14.221 11.5715 14.221C10.1287 14.2222 8.68602 14.2222 7.24448 14.221C6.94586 14.221 6.78516 14.0879 6.78516 13.8469C6.78636 13.6058 6.94586 13.4751 7.24688 13.4751C7.97124 13.4739 8.69681 13.4751 9.42237 13.4751Z" fill="black"/>
<path d="M4.52489 3.74173C3.93244 3.74173 3.34 3.74292 2.74755 3.74173C2.45133 3.74053 2.28943 3.60501 2.29303 3.36275C2.29663 3.12889 2.45373 2.99697 2.73556 2.99577C3.93604 2.99457 5.13652 2.99457 6.3382 2.99577C6.62003 2.99577 6.77834 3.13009 6.78074 3.36275C6.78433 3.60501 6.62243 3.74053 6.32621 3.74173C5.72537 3.74292 5.12453 3.74173 4.52489 3.74173Z" fill="black"/>
<path d="M9.03715 17.2169C9.6224 17.2169 10.2065 17.2169 10.7917 17.2169C11.1107 17.2169 11.2738 17.3464 11.2702 17.5958C11.2666 17.8369 11.1083 17.9628 10.8037 17.964C9.61881 17.9652 8.43392 17.9652 7.24783 17.964C6.94441 17.964 6.78491 17.8369 6.78131 17.597C6.77771 17.3476 6.93961 17.2181 7.25862 17.2181C7.85227 17.2169 8.44471 17.2169 9.03715 17.2169Z" fill="black"/>
<path d="M9.03715 18.7148C9.6224 18.7148 10.2065 18.7148 10.7917 18.7148C11.1107 18.7148 11.2738 18.8443 11.2702 19.0938C11.2666 19.3348 11.1083 19.4607 10.8037 19.4619C9.61881 19.4631 8.43392 19.4631 7.24783 19.4619C6.94441 19.4619 6.78491 19.3348 6.78131 19.0949C6.77771 18.8455 6.93961 18.716 7.25862 18.716C7.85227 18.7136 8.44471 18.7148 9.03715 18.7148Z" fill="black"/>
<path d="M8.63941 15.719C8.1633 15.719 7.68838 15.7202 7.21227 15.7178C6.93523 15.7166 6.77933 15.5739 6.78532 15.3352C6.79012 15.1097 6.94483 14.973 7.20867 14.9718C8.17529 14.9694 9.14191 14.9694 10.1097 14.9718C10.3688 14.9718 10.5247 15.1157 10.5259 15.3424C10.5271 15.5691 10.3712 15.7154 10.1145 15.7178C9.62162 15.7202 9.13112 15.719 8.63941 15.719Z" fill="black"/>
<path d="M8.09937 20.2115C8.39559 20.2115 8.69181 20.2091 8.98803 20.2127C9.24468 20.2151 9.40059 20.3614 9.39819 20.588C9.39699 20.8135 9.23988 20.9562 8.98084 20.9574C8.38839 20.9598 7.79595 20.9598 7.2035 20.9574C6.94086 20.9562 6.78615 20.8183 6.78136 20.5928C6.77656 20.3554 6.93367 20.2139 7.2095 20.2115C7.50692 20.2091 7.80314 20.2115 8.09937 20.2115Z" fill="black"/>
<path d="M18.7596 17.2169C19.6459 17.2169 20.4962 17.2085 21.3453 17.2253C21.4688 17.2277 21.6307 17.3224 21.6991 17.4243C21.7554 17.5083 21.7434 17.6942 21.6835 17.7853C21.6247 17.8765 21.47 17.9532 21.3573 17.9544C20.3751 17.9676 19.3929 17.964 18.4106 17.9604C18.1576 17.9592 18.0161 17.8213 18.0149 17.5707C18.0113 16.8295 18.0101 16.0895 18.0149 15.3484C18.0161 15.1133 18.178 14.9634 18.3975 14.9694C18.6049 14.9742 18.756 15.1229 18.7584 15.3472C18.7644 15.8773 18.7608 16.4073 18.7608 16.9374C18.7596 17.0238 18.7596 17.1077 18.7596 17.2169Z" fill="black"/>
</svg>
