<svg width="24" height="24" viewBox="0 0 24 24" fill="none" xmlns="http://www.w3.org/2000/svg">
<path d="M0 19.1344C0 14.3 0 9.46553 0 4.6311C0.296366 3.6823 0.96896 3.36354 1.92544 3.37041C5.12993 3.39411 8.33443 3.37976 11.5389 3.37976C11.6269 3.37976 11.7142 3.37976 11.8022 3.37976C11.811 3.35668 11.8197 3.3336 11.8284 3.31114C11.7523 3.24627 11.6737 3.18389 11.6007 3.1159C11.5214 3.04104 11.4435 2.96431 11.3717 2.8826C11.1577 2.63807 11.1515 2.31619 11.373 2.07977C11.6394 1.79594 11.9158 1.5196 12.199 1.25261C12.4486 1.01744 12.7631 1.02243 13.0189 1.25386C13.1574 1.37924 13.2815 1.52084 13.4207 1.6456C13.4644 1.6849 13.5498 1.7267 13.5929 1.70923C13.8999 1.58572 14.2006 1.44724 14.5113 1.31C14.5113 1.11039 14.5088 0.907651 14.5119 0.705541C14.5175 0.290715 14.7534 0.0524244 15.1639 0.0486816C15.5071 0.0461864 15.8503 0.0455626 16.1928 0.0486816C16.5915 0.0524244 16.8336 0.289468 16.8417 0.685579C16.846 0.902661 16.8423 1.12037 16.8423 1.33308C17.0064 1.39234 17.173 1.41667 17.294 1.50338C17.7096 1.80155 17.9953 1.66868 18.2942 1.30501C18.5587 0.982507 18.9056 1.00621 19.2095 1.30189C19.4441 1.5302 19.6743 1.76288 19.9045 1.99618C20.2265 2.32305 20.2234 2.63994 19.8995 2.97117C19.7791 3.09469 19.6593 3.2182 19.5021 3.38039C19.6506 3.38039 19.7355 3.38039 19.8209 3.38039C20.6707 3.38039 21.5205 3.37415 22.3703 3.38226C23.3024 3.39099 23.9588 4.05409 23.9588 4.97856C23.9594 9.57782 23.9594 14.1771 23.9582 18.7757C23.9582 18.8843 23.9569 18.9953 23.9351 19.1007C23.7798 19.8524 23.1802 20.3496 22.4059 20.3508C19.9033 20.3552 17.4001 20.3527 14.8975 20.3533C14.8071 20.3533 14.716 20.3533 14.5837 20.3533C14.6735 21.3539 14.7609 22.3183 14.8489 23.2976C15.3056 23.2976 15.6937 23.2951 16.0824 23.2989C16.3051 23.3007 16.4854 23.4367 16.4567 23.6214C16.4355 23.7561 16.3151 23.8753 16.239 24.0013C13.4001 24.0013 10.5612 24.0013 7.72235 24.0013C7.57199 23.8809 7.43535 23.7518 7.51458 23.5328C7.59258 23.317 7.77039 23.2914 7.97192 23.2958C8.33567 23.3032 8.69942 23.2976 9.11371 23.2976C9.20169 22.3045 9.28654 21.3408 9.37389 20.3539C8.803 20.3539 8.2895 20.3539 7.77601 20.3539C7.33926 20.3539 6.90251 20.3583 6.46576 20.3502C6.24988 20.3464 6.11387 20.1949 6.11948 19.9921C6.12447 19.8012 6.26049 19.6653 6.46327 19.6528C6.53315 19.6484 6.60365 19.6515 6.67353 19.6515C11.844 19.6515 17.0139 19.6515 22.1844 19.6515C22.2624 19.6515 22.3404 19.6534 22.4183 19.6503C22.8582 19.6328 23.2132 19.3452 23.2419 18.9086C23.2756 18.3983 23.25 17.8849 23.25 17.3641C15.7292 17.3641 8.22524 17.3641 0.702543 17.3641C0.702543 17.8144 0.701919 18.2492 0.702543 18.6846C0.70379 19.3203 1.0326 19.6509 1.66713 19.6509C2.6885 19.6515 3.7105 19.6503 4.73187 19.6515C4.99142 19.6522 5.14054 19.7782 5.14616 19.9921C5.15177 20.2154 4.99891 20.3521 4.72812 20.3521C3.65185 20.3533 2.57557 20.3564 1.49992 20.3489C0.872251 20.3452 0.322571 19.9491 0.0973327 19.3621C0.0673842 19.2847 0.0324442 19.2099 0 19.1344ZM21.7882 16.6149C21.7882 16.5026 21.7882 16.4028 21.7882 16.3036C21.7882 12.9432 21.7882 9.58219 21.7882 6.22179C21.7882 5.67471 21.7869 5.67347 21.2404 5.71214C21.2273 5.71277 21.2148 5.72774 21.1961 5.74021C21.1936 5.7739 21.1886 5.81257 21.188 5.85063C21.1711 6.563 21.012 6.71583 20.287 6.71583C19.9008 6.71583 19.9039 6.71708 19.7498 7.11007C19.6712 7.31094 19.489 7.52552 19.5227 7.70143C19.557 7.88046 19.8003 8.01895 19.9495 8.17739C20.2034 8.44812 20.209 8.78248 19.952 9.05321C19.7055 9.31333 19.4509 9.56659 19.1914 9.81424C18.9044 10.0887 18.5856 10.0868 18.301 9.81112C18.1451 9.66016 18.0041 9.49361 17.8599 9.3389C17.7114 9.41064 17.6029 9.4699 17.4887 9.51731C17.2822 9.60402 16.9877 9.62772 16.8866 9.78118C16.7774 9.94711 16.8523 10.2309 16.8392 10.4636C16.8198 10.7998 16.5934 11.0325 16.2564 11.0431C15.8746 11.055 15.4921 11.055 15.1103 11.0444C14.749 11.0344 14.5219 10.7955 14.5113 10.4318C14.5057 10.2528 14.5188 10.0725 14.5051 9.89408C14.5001 9.83482 14.4495 9.75061 14.3978 9.72815C14.1076 9.6009 13.8106 9.48862 13.4881 9.36011C13.3489 9.50546 13.2029 9.66765 13.0457 9.81798C12.7681 10.0831 12.4492 10.0868 12.1722 9.82422C11.912 9.57782 11.6581 9.32393 11.4104 9.06443C11.1346 8.77624 11.1409 8.44438 11.4272 8.15681C11.5751 8.00834 11.7373 7.87423 11.869 7.75508C11.7348 7.41449 11.6281 7.12317 11.5027 6.84059C11.4771 6.78258 11.3823 6.72831 11.3143 6.72207C11.1365 6.70461 10.9555 6.72394 10.7771 6.71084C10.3984 6.6834 10.1844 6.45696 10.1669 6.07582C10.1619 5.96104 10.1663 5.84564 10.1663 5.70591C10.0608 5.70591 9.97723 5.70591 9.893 5.70591C7.43659 5.70591 4.97957 5.70591 2.52316 5.70591C2.19123 5.70591 2.17127 5.72524 2.17127 6.06708C2.17127 9.49797 2.17127 12.9289 2.17189 16.3597C2.17189 16.4421 2.17938 16.5251 2.18375 16.6155C8.725 16.6149 15.2419 16.6149 21.7882 16.6149ZM12.6289 9.26093C12.7743 9.10748 12.9041 8.96213 13.0426 8.82552C13.2984 8.57288 13.5193 8.55292 13.8475 8.707C14.1419 8.84548 14.4445 8.96774 14.7503 9.07878C15.061 9.19169 15.2089 9.3676 15.2182 9.69821C15.2245 9.90594 15.2195 10.1143 15.2195 10.327C15.5364 10.327 15.8209 10.327 16.1329 10.327C16.1329 10.1056 16.1273 9.8972 16.1341 9.68886C16.1448 9.37009 16.2914 9.19356 16.5884 9.08315C16.901 8.96712 17.211 8.84361 17.5136 8.70325C17.8381 8.55292 18.0583 8.57475 18.3166 8.83176C18.457 8.97149 18.5881 9.12182 18.7097 9.25282C18.9524 9.0189 19.1583 8.8199 19.3892 8.59783C19.2394 8.45561 19.0884 8.32149 18.9474 8.17677C18.7004 7.92288 18.6804 7.7083 18.8276 7.39141C18.9649 7.09635 19.0909 6.79506 19.202 6.4894C19.3249 6.15005 19.5133 6.00034 19.879 5.99597C20.0699 5.9941 20.2614 5.99535 20.4523 5.99535C20.4523 5.67783 20.4523 5.39962 20.4523 5.09521C20.2489 5.09521 20.0562 5.09645 19.8634 5.09521C19.5071 5.09271 19.328 4.94986 19.2057 4.61426C19.0941 4.3086 18.9699 4.00668 18.8314 3.71225C18.6779 3.38538 18.6972 3.16954 18.9599 2.91067C19.1022 2.77094 19.2638 2.65054 19.3898 2.5445C19.1346 2.2825 18.9343 2.0779 18.701 1.83836C18.5881 1.96624 18.4751 2.10659 18.3497 2.23322C18.0546 2.53015 17.8375 2.55136 17.4693 2.37046C17.1979 2.23759 16.9172 2.12031 16.632 2.02051C16.272 1.8945 16.1385 1.7373 16.1316 1.35866C16.1279 1.15967 16.131 0.96005 16.131 0.766673C15.8072 0.766673 15.5227 0.766673 15.2195 0.766673C15.2195 0.978141 15.2226 1.17152 15.2188 1.3649C15.212 1.73106 15.0785 1.89388 14.7359 2.01864C14.4302 2.1303 14.1288 2.2563 13.8337 2.39354C13.523 2.53826 13.2903 2.5183 13.047 2.27751C12.9041 2.13591 12.7768 1.97871 12.667 1.85582C12.4212 2.09723 12.2134 2.30184 11.9844 2.52641C12.1185 2.65179 12.2714 2.78528 12.4124 2.93C12.6458 3.16892 12.667 3.39286 12.5272 3.69728C12.385 4.0073 12.2539 4.32295 12.1329 4.64171C12.0156 4.94986 11.8347 5.09146 11.5034 5.09458C11.3037 5.09708 11.1034 5.09521 10.9038 5.09521C10.9038 5.41022 10.9038 5.69405 10.9038 5.99535C11.099 5.99535 11.2769 5.9941 11.4553 5.99535C11.8365 5.99847 12.0262 6.14693 12.151 6.49563C12.2583 6.79443 12.3793 7.08949 12.5147 7.37644C12.6701 7.70518 12.6539 7.92413 12.3968 8.18114C12.2546 8.32336 12.0948 8.44874 11.9501 8.57538C12.1978 8.8249 12.3993 9.0295 12.6289 9.26093ZM1.45625 16.6211C1.45625 16.4995 1.45625 16.3997 1.45625 16.3005C1.45625 12.8702 1.46311 9.43996 1.44938 6.00969C1.44751 5.46886 1.79878 4.98854 2.45952 4.99478C4.9309 5.01661 7.4029 5.00351 9.8749 5.00351C9.966 5.00351 10.0571 5.00351 10.1388 5.00351C10.3098 4.47889 10.4283 4.39281 10.9543 4.39219C11.0479 4.39219 11.1427 4.38283 11.2351 4.39406C11.4466 4.42026 11.5327 4.32669 11.5239 4.11273C11.4584 4.10836 11.3973 4.1015 11.3361 4.1015C8.09983 4.10087 4.86414 4.10025 1.62783 4.10212C1.01887 4.10274 0.701295 4.43211 0.701295 5.05154C0.700671 8.82489 0.701295 12.5982 0.701295 16.3716C0.701295 16.4527 0.701295 16.5338 0.701295 16.6217C0.966464 16.6211 1.1917 16.6211 1.45625 16.6211ZM9.83123 23.2858C11.2563 23.2858 12.7032 23.2858 14.127 23.2858C14.0415 22.3108 13.956 21.3439 13.8699 20.3652C12.6114 20.3652 11.3455 20.3652 10.087 20.3652C10.0016 21.3445 9.91671 22.3114 9.83123 23.2858ZM21.2129 5.00351C21.284 5.00351 21.3464 5.00351 21.4082 5.00351C22.21 5.00725 22.5019 5.30168 22.5019 6.10701C22.5019 9.50608 22.5019 12.9045 22.5019 16.3036C22.5019 16.4028 22.5019 16.502 22.5019 16.6136C22.7634 16.6136 22.9992 16.6136 23.2475 16.6136C23.2513 16.5463 23.2563 16.4932 23.2563 16.4396C23.2569 12.6276 23.2575 8.81554 23.2557 5.00351C23.2557 4.44084 22.9181 4.10586 22.351 4.10212C21.5636 4.09775 20.7762 4.10087 19.9888 4.1015C19.9357 4.1015 19.8821 4.10961 19.8278 4.11397C19.8147 4.33168 19.9089 4.41963 20.1173 4.39343C20.2015 4.38283 20.2889 4.39156 20.3744 4.39156C20.9253 4.39219 21.0338 4.46891 21.2129 5.00351Z" fill="black"/>
<path d="M11.9947 18.1444C12.2517 18.1444 12.5088 18.1388 12.7652 18.1463C12.9842 18.1525 13.1309 18.296 13.1352 18.4875C13.1396 18.6846 12.9805 18.8456 12.7559 18.8474C12.2424 18.853 11.7283 18.8524 11.2142 18.8481C10.9852 18.8462 10.8255 18.699 10.8205 18.5012C10.8148 18.3035 10.9696 18.1513 11.2004 18.145C11.465 18.1388 11.7295 18.1444 11.9947 18.1444Z" fill="black"/>
<path d="M8.14139 8.20983C8.1938 8.22979 8.23248 8.23977 8.26555 8.25848C8.60684 8.45186 8.90383 8.51673 9.19458 8.1331C9.35555 7.92101 9.66253 7.95032 9.86905 8.13559C10.1011 8.34332 10.3226 8.56477 10.531 8.79557C10.7432 9.03074 10.7432 9.33516 10.4942 9.54538C10.2328 9.7662 10.1592 9.97517 10.3607 10.2652C10.4081 10.3332 10.4225 10.4237 10.4618 10.5297C10.599 10.5297 10.7457 10.526 10.8923 10.5304C11.2454 10.5403 11.4582 10.7524 11.4632 11.1018C11.4669 11.3669 11.4663 11.632 11.4632 11.8971C11.4594 12.2514 11.251 12.4997 10.906 12.4747C10.566 12.4504 10.3975 12.554 10.2902 12.8839C10.2222 13.0935 10.2291 13.2064 10.3888 13.3562C10.7856 13.7292 10.7781 13.9775 10.395 14.3617C10.2521 14.5052 10.1099 14.6499 9.96451 14.7915C9.65753 15.0897 9.38176 15.0866 9.07042 14.7847C9.04234 14.7572 9.01115 14.7323 8.98806 14.7017C8.87263 14.547 8.75034 14.5146 8.57502 14.6268C8.44774 14.7086 8.29113 14.7441 8.13952 14.804C8.13952 14.9574 8.14264 15.1053 8.13889 15.2531C8.13078 15.565 7.92863 15.789 7.61854 15.8033C7.3228 15.817 7.02581 15.8164 6.73007 15.8039C6.41311 15.7908 6.17976 15.5719 6.20222 15.2394C6.22531 14.8957 6.1155 14.7316 5.78606 14.6243C5.58329 14.5582 5.47597 14.5601 5.32935 14.7142C4.94563 15.1196 4.70105 15.114 4.31047 14.7235C4.15574 14.5694 3.99851 14.4179 3.84814 14.2594C3.60107 13.9999 3.60044 13.7155 3.84814 13.4516C3.94361 13.3499 4.0503 13.2582 4.15013 13.164C4.06714 12.9563 4.00038 12.7673 3.91428 12.587C3.89182 12.539 3.8157 12.4984 3.75892 12.4891C3.66034 12.4729 3.55677 12.4872 3.45569 12.4835C3.1038 12.4722 2.88418 12.2683 2.86858 11.9189C2.8561 11.6463 2.85672 11.3731 2.86795 11.1005C2.88293 10.7387 3.10567 10.5091 3.47129 10.5385C3.79012 10.564 3.92364 10.4511 4.03719 10.1579C4.13016 9.91778 4.10146 9.7949 3.92239 9.62959C3.56488 9.29898 3.57736 9.02263 3.92426 8.6758C4.08399 8.51611 4.24184 8.3533 4.40469 8.19672C4.67672 7.93473 4.97621 7.91664 5.22203 8.1961C5.43292 8.43564 5.61074 8.47993 5.9096 8.33895C6.1311 8.23478 6.20347 8.13559 6.19598 7.90042C6.17976 7.40263 6.38691 7.20863 6.88355 7.20801C7.10941 7.20801 7.3359 7.20489 7.56176 7.20863C7.92426 7.21487 8.13453 7.43008 8.13889 7.79625C8.14326 7.92849 8.14139 8.06074 8.14139 8.20983ZM4.444 9.19231C4.52136 9.25656 4.61745 9.32455 4.69918 9.40627C4.94563 9.65392 4.96622 9.85228 4.81586 10.1648C4.71166 10.3813 4.62369 10.6058 4.5407 10.831C4.4415 11.0993 4.29176 11.2228 4.00662 11.2371C3.87684 11.244 3.74582 11.2384 3.60668 11.2384C3.60668 11.4286 3.60668 11.5871 3.60668 11.7692C3.73022 11.7692 3.83816 11.7667 3.9461 11.7698C4.29612 11.7792 4.43963 11.8971 4.55817 12.2333C4.63554 12.4523 4.72975 12.6662 4.82896 12.8765C4.96061 13.1565 4.94314 13.3587 4.72414 13.5764C4.63305 13.6674 4.51325 13.7292 4.40656 13.8047C4.4415 13.8178 4.47706 13.8309 4.512 13.844C4.61682 13.9656 4.72227 14.0879 4.85329 14.2395C4.92192 14.1552 4.97558 14.0773 5.04172 14.0111C5.33808 13.7136 5.49407 13.6974 5.87217 13.8858C6.05934 13.9787 6.25588 14.0554 6.45367 14.1234C6.77998 14.2351 6.90726 14.3954 6.91537 14.7397C6.91787 14.8526 6.916 14.9656 6.916 15.0766C7.11253 15.0766 7.27101 15.0766 7.44134 15.0766C7.44134 14.94 7.4401 14.8233 7.44134 14.7073C7.44509 14.3973 7.56987 14.2351 7.85501 14.1309C8.09522 14.043 8.33169 13.9432 8.56441 13.8377C8.82833 13.7192 9.01926 13.7373 9.22765 13.935C9.32623 14.0286 9.40859 14.1403 9.47971 14.2226C9.63195 14.0698 9.74551 13.9556 9.90024 13.7997C9.82475 13.7417 9.72929 13.6843 9.65317 13.6082C9.39486 13.3518 9.37739 13.164 9.53961 12.8322C9.63507 12.6375 9.71556 12.4342 9.78544 12.229C9.89525 11.9077 10.0469 11.7817 10.3782 11.7698C10.5011 11.7655 10.624 11.7692 10.75 11.7692C10.75 11.5808 10.75 11.4211 10.75 11.2402C10.6284 11.2402 10.5204 11.2421 10.4125 11.2396C10.045 11.2315 9.90024 11.1136 9.7817 10.7693C9.7062 10.5497 9.60824 10.3376 9.51029 10.1268C9.38737 9.86289 9.40796 9.64893 9.61324 9.44432C9.7062 9.352 9.82412 9.28525 9.93892 9.20104C9.76298 9.02451 9.64755 8.90973 9.49843 8.76064C9.41795 8.85795 9.35056 8.95526 9.2682 9.03698C9.01801 9.28463 8.83021 9.30147 8.50888 9.14615C8.29987 9.04509 8.08212 8.96088 7.86312 8.8829C7.57424 8.77998 7.44633 8.61654 7.44134 8.31213C7.43947 8.18363 7.44072 8.05512 7.44072 7.92724C7.24793 7.92724 7.09506 7.92724 6.91475 7.92724C6.91475 8.06261 6.91912 8.1855 6.91412 8.30776C6.90227 8.59845 6.76688 8.77623 6.50795 8.87479C6.2615 8.96836 6.01692 9.06692 5.77608 9.17422C5.51091 9.29211 5.32311 9.2734 5.11534 9.07004C5.02175 8.97834 4.95 8.86544 4.86827 8.76251C4.70792 8.92532 4.59436 9.0401 4.444 9.19231Z" fill="black"/>
<path d="M12.9533 5.48131C12.9471 5.02282 13.0881 4.55185 13.3551 4.11769C13.503 3.87691 13.7083 3.80704 13.8979 3.92743C14.0776 4.04096 14.102 4.2437 13.9653 4.48074C13.4075 5.44638 13.6365 6.57046 14.5188 7.19801C15.2051 7.68582 16.151 7.68394 16.8398 7.19301C17.5504 6.68649 17.8537 5.79508 17.5991 4.95857C17.3508 4.14139 16.6164 3.57062 15.7622 3.54692C15.562 3.5413 15.3598 3.57249 15.1602 3.60119C14.8912 3.63986 14.7172 3.54754 14.6772 3.32672C14.6398 3.12211 14.764 2.96616 15.0142 2.90253C16.4935 2.52701 18.0333 3.48578 18.3384 4.97229C18.6566 6.52181 17.6384 8.00208 16.0948 8.236C14.4252 8.48864 12.9365 7.20861 12.9533 5.48131Z" fill="black"/>
<path d="M17.0925 5.55868C17.0869 6.35091 16.4505 6.97408 15.6556 6.96722C14.8819 6.96036 14.2555 6.31785 14.2618 5.5381C14.268 4.75773 14.9007 4.1252 15.6762 4.12457C16.4605 4.12395 17.0981 4.76958 17.0925 5.55868ZM16.3831 5.54434C16.3812 5.15072 16.063 4.84007 15.6662 4.84568C15.2806 4.85067 14.9737 5.15883 14.9718 5.54309C14.9693 5.93234 15.2925 6.2617 15.6768 6.26233C16.0593 6.26233 16.385 5.93172 16.3831 5.54434Z" fill="black"/>
<path d="M9.02958 11.5235C9.02583 12.5409 8.17792 13.3786 7.15904 13.3724C6.14641 13.3662 5.29787 12.5097 5.30473 11.5004C5.31159 10.4811 6.15389 9.64209 7.1709 9.64209C8.20225 9.64147 9.03332 10.483 9.02958 11.5235ZM6.02661 11.496C6.02349 12.1454 6.52825 12.655 7.17402 12.6538C7.80106 12.6525 8.32017 12.1392 8.32703 11.5141C8.3339 10.8853 7.80106 10.3513 7.16902 10.3526C6.53699 10.3551 6.02973 10.8629 6.02661 11.496Z" fill="black"/>
</svg>
