<svg width="24" height="24" viewBox="0 0 24 24" fill="none" xmlns="http://www.w3.org/2000/svg">
<path d="M19.5131 9.80021C19.6837 9.50785 19.8544 9.21439 20.024 8.92203C20.2718 8.49272 20.3621 8.46229 20.8295 8.67097C21.0556 8.34273 21.1839 7.89821 21.6915 7.85365C22.0448 7.82213 22.3014 8.01994 22.5666 8.18949C22.8221 8.3536 22.9623 8.61662 22.9003 8.91007C22.8438 9.17636 22.6981 9.42307 22.5818 9.70131C22.7308 9.78717 22.8982 9.88173 23.0634 9.98172C23.6265 10.3219 23.8037 10.9458 23.4797 11.5153C22.8949 12.5445 22.2992 13.5662 21.7046 14.59C21.5665 14.828 21.3578 14.9019 21.1589 14.7943C20.9491 14.6813 20.9067 14.4639 21.0534 14.2085C21.6274 13.2097 22.2046 12.2119 22.7818 11.2142C22.8862 11.0349 22.9471 10.8621 22.7351 10.6806C22.684 10.7621 22.6394 10.8306 22.5981 10.9012C21.935 12.0467 21.2719 13.1923 20.6132 14.34C20.5186 14.5052 20.4088 14.6248 20.2023 14.6422C20.1436 14.6476 20.0729 14.7161 20.037 14.7737C19.8631 15.0595 19.6913 15.3475 19.537 15.6442C19.4859 15.741 19.4685 15.866 19.4685 15.9768C19.4642 18.1908 19.4555 20.4058 19.4729 22.6197C19.4772 23.1338 19.138 23.587 18.501 23.5848C13.1201 23.5707 7.73918 23.5707 2.35717 23.5848C1.71255 23.587 1.36143 23.1664 1.36251 22.5936C1.3723 17.7354 1.36578 12.8782 1.37339 8.01994C1.37339 7.77539 1.31034 7.65149 1.07227 7.5602C0.579835 7.37108 0.392861 7.09828 0.425473 6.67767C0.435257 6.54942 0.483087 6.42008 0.535266 6.30053C0.778766 5.73645 1.03422 5.1778 1.27446 4.61155C1.3299 4.48004 1.36251 4.32897 1.3636 4.18659C1.37121 3.23559 1.38099 2.2835 1.36251 1.3325C1.35164 0.731468 1.76472 0.358676 2.32891 0.360849C6.87606 0.374978 11.4221 0.370631 15.9693 0.365197C16.2987 0.365197 16.5508 0.471709 16.778 0.70321C17.5553 1.49227 18.338 2.27481 19.1272 3.05191C19.3652 3.28667 19.4696 3.55078 19.4685 3.88553C19.4609 5.76471 19.4652 7.64389 19.4652 9.52306C19.4652 9.60892 19.4652 9.6937 19.4652 9.77956C19.4815 9.78717 19.4979 9.79369 19.5131 9.80021ZM4.18777 10.3067C4.1519 10.2958 4.12255 10.2871 4.0932 10.2784C3.28878 10.0371 2.98875 9.33069 3.39966 8.59163C3.52249 8.36882 3.53771 8.17536 3.47684 7.93516C3.37139 7.52107 3.35291 7.48194 2.91809 7.38956C2.7833 7.73409 2.52023 7.92647 2.14628 7.96668C2.14302 8.04385 2.13758 8.1058 2.13758 8.16666C2.13758 12.9706 2.13867 17.7734 2.13324 22.5773C2.13324 22.7903 2.20172 22.8349 2.40174 22.8338C7.74461 22.8284 13.0875 22.8284 18.4293 22.8349C18.6586 22.8349 18.7173 22.7653 18.7163 22.5436C18.7087 20.8199 18.7119 19.0972 18.7119 17.3734C18.7119 17.3071 18.7119 17.2408 18.7119 17.1745C18.6293 17.2224 18.5869 17.2821 18.5499 17.3441C18.1282 18.0723 17.7031 18.7972 17.2911 19.5309C17.1781 19.7308 17.0324 19.87 16.8259 19.9667C16.4802 20.1275 16.1367 20.2949 15.8062 20.484C15.6671 20.5634 15.5334 20.6862 15.4475 20.822C15.2072 21.1992 15.1181 21.2394 14.7083 21.0796C14.2854 20.9144 13.8463 20.7438 13.394 20.8699C13.0647 20.9612 12.7494 21.1329 12.4537 21.3111C12.0113 21.5785 11.5547 21.6698 11.0449 21.5796C10.5797 21.497 10.1731 21.3003 9.79263 21.0362C9.43172 20.7851 9.03386 20.709 8.61317 20.7992C8.15009 20.8992 7.69352 21.0285 7.23479 21.1459C6.98694 21.21 6.80105 21.1209 6.73148 20.9025C6.66626 20.7003 6.76626 20.5145 6.99781 20.4329C7.20978 20.358 7.42502 20.2873 7.64243 20.2297C8.23922 20.071 8.84798 19.908 9.4589 20.0819C9.80241 20.1797 10.1209 20.3797 10.4383 20.5568C11.0362 20.8905 11.6167 21.0166 12.2233 20.5623C12.9733 20.0004 13.7995 19.958 14.6637 20.259C14.8974 20.3406 14.9377 20.3058 14.9224 20.0536C14.8974 19.633 14.8518 19.2135 14.8507 18.794C14.8507 18.6027 14.8963 18.3886 14.9898 18.2244C15.8899 16.6409 16.8063 15.066 17.7129 13.4857C17.7564 13.4108 17.7564 13.3086 17.7662 13.2173C17.7825 13.0706 17.7455 12.8999 17.8086 12.7804C18.0586 12.3054 18.3445 11.8489 18.6021 11.3783C18.6663 11.262 18.7076 11.1164 18.7076 10.9849C18.7141 8.72313 18.7119 6.46247 18.7119 4.20072C18.7119 4.11703 18.7119 4.03443 18.7119 3.929C18.5999 3.929 18.5162 3.929 18.4315 3.929C17.8151 3.929 17.1987 3.93009 16.5835 3.929C16.1367 3.92792 15.9084 3.70511 15.9051 3.25515C15.9008 2.6313 15.904 2.00744 15.904 1.38358C15.904 1.30098 15.904 1.21838 15.904 1.12274C15.7834 1.12274 15.6986 1.12274 15.6138 1.12274C11.2232 1.12274 6.83149 1.12274 2.44087 1.12274C2.40174 1.12274 2.36261 1.12708 2.32347 1.12165C2.17672 1.10426 2.13432 1.17708 2.1365 1.31294C2.14193 1.63247 2.13758 1.95201 2.13758 2.27155C2.13758 2.36284 2.13758 2.45522 2.13758 2.54652C2.30934 2.29002 2.41587 2.03135 2.53871 1.78029C2.73546 1.37706 3.16811 1.20208 3.58119 1.36619C3.90622 1.49553 4.22582 1.63899 4.54215 1.79115C4.77152 1.90093 4.94653 2.09004 4.96067 2.34545C4.97371 2.59 4.91501 2.83889 4.88566 3.10082C5.29439 3.40623 5.77378 3.47035 6.30535 3.31493C6.96411 3.12256 7.62395 3.09321 8.26314 3.41818C8.31423 3.44427 8.40989 3.41601 8.47185 3.38558C8.86102 3.18994 9.27301 3.028 9.70457 3.10191C10.1818 3.18451 10.659 3.31819 11.1101 3.49426C11.5308 3.65838 11.8776 3.6149 12.2298 3.32362C12.2037 3.25189 12.1744 3.17364 12.1461 3.0943C11.9885 2.63673 12.1765 2.20307 12.6211 2.02048C12.9157 1.89875 13.2136 1.78463 13.5136 1.67812C13.9626 1.51727 14.4028 1.69442 14.5746 2.13243C15.1931 3.70294 15.803 5.27562 16.4063 6.85157C16.5758 7.29283 16.3769 7.72323 15.941 7.90799C15.6399 8.03515 15.3366 8.1558 15.029 8.26557C14.6094 8.41447 14.2072 8.25035 13.9984 7.86126C13.9734 7.81452 13.9484 7.76779 13.9223 7.71888C13.8321 7.75474 13.7549 7.7917 13.6734 7.8167C13.4886 7.8743 13.3919 7.96559 13.3701 8.1884C13.3516 8.37534 13.2603 8.61445 13.119 8.7177C12.8266 8.92964 12.7375 9.18614 12.6722 9.52632C12.5744 10.0361 12.1722 10.2654 11.6732 10.3154C11.4939 11.0001 11.2819 11.1849 10.5101 11.3392C10.2622 12.1815 9.6687 12.4532 8.8545 12.1076C8.79362 12.0815 8.68166 12.1196 8.62078 12.1652C8.09573 12.5532 7.43372 12.4771 7.04672 11.9587C6.96628 11.8511 6.89454 11.8315 6.77496 11.85C6.40971 11.9044 6.0912 11.7913 5.84662 11.5207C5.73248 11.3946 5.64008 11.3588 5.4705 11.4012C5.327 11.437 5.15634 11.4185 5.01067 11.3783C4.47801 11.2251 4.23017 10.8414 4.18777 10.3067ZM4.15516 7.43847C4.90305 7.12111 5.42049 7.30479 5.78465 7.99385C5.81183 8.04602 5.89445 8.08841 5.95641 8.0971C6.34123 8.15253 6.64778 8.31882 6.85105 8.66227C6.88041 8.71227 6.96737 8.75574 7.02824 8.75465C7.47829 8.74922 7.82397 8.9242 8.07291 9.30352C8.11095 9.36221 8.20987 9.38829 8.28597 9.41329C8.5186 9.48828 8.77514 9.51763 8.98494 9.63175C9.46107 9.89151 9.9122 10.1969 10.3796 10.4741C10.572 10.5882 10.7568 10.5458 10.8525 10.3915C10.9558 10.2252 10.9025 10.048 10.6949 9.92085C10.4753 9.78717 10.2481 9.66653 10.0253 9.54045C9.66653 9.33721 9.30345 9.14049 8.94907 8.92855C8.7534 8.81117 8.70775 8.60467 8.8121 8.42316C8.91537 8.24383 9.11539 8.18405 9.31758 8.27752C9.38824 8.31013 9.45455 8.35034 9.52304 8.38838C10.1677 8.75139 10.8101 9.11658 11.4569 9.47633C11.6819 9.60132 11.9091 9.52306 11.9646 9.3046C12.0124 9.11332 11.9048 8.99811 11.7493 8.91007C11.2406 8.62423 10.7297 8.34165 10.2274 8.04276C10.1231 7.98081 10.0035 7.8656 9.98612 7.75909C9.96655 7.64388 10.0285 7.48412 10.109 7.38956C10.2198 7.26022 10.3872 7.27218 10.5383 7.35695C11.0601 7.65149 11.5808 7.95038 12.107 8.23514C12.2005 8.28622 12.3396 8.321 12.4298 8.28839C12.5179 8.25579 12.6374 8.11776 12.6255 8.04276C12.6059 7.91669 12.5233 7.75801 12.4179 7.69497C11.6558 7.24066 10.8873 6.79505 10.1057 6.37661C9.9372 6.2864 9.70131 6.2777 9.50238 6.29509C9.29802 6.31357 9.10017 6.40704 8.90233 6.47443C8.49794 6.61137 8.10226 6.78201 7.68917 6.88743C6.8641 7.09828 6.18686 6.82657 5.65964 6.17011C5.43571 5.89078 5.48897 5.61363 5.79118 5.41909C5.88249 5.3604 5.97706 5.30497 6.06946 5.24736C6.63147 4.89522 7.14673 4.48548 7.62939 3.97465C7.49242 3.95292 7.38697 3.91596 7.28479 3.92574C7.0152 3.95183 6.73909 3.97031 6.47928 4.04095C5.85749 4.21159 5.26504 4.20181 4.69869 3.86162C4.64325 3.82793 4.57585 3.81162 4.50736 3.78554C4.08015 4.75284 3.66055 5.70276 3.24203 6.65158C3.95731 7.03851 3.95731 7.03851 4.15516 7.43847ZM6.49994 5.95382C6.79235 6.21793 7.17174 6.26249 7.56308 6.14402C8.00116 6.01142 8.42946 5.84405 8.85885 5.68319C9.50999 5.43974 10.1198 5.45713 10.7297 5.84405C11.3732 6.25271 12.0722 6.5755 12.7048 6.9972C13.0494 7.22653 13.3169 7.19936 13.6245 7.0059C13.631 7.00155 13.6365 6.99503 13.6538 6.97873C13.2777 6.01034 12.9005 5.03651 12.5114 4.03443C11.9689 4.44091 11.4167 4.42352 10.8482 4.19202C10.6394 4.10725 10.4296 4.02465 10.2177 3.94748C9.71001 3.76054 9.22192 3.8138 8.76101 4.08986C8.58817 4.19311 8.41968 4.31049 8.26531 4.43983C7.67722 4.93761 7.09564 5.44191 6.49994 5.95382ZM15.6562 19.7026C15.8888 19.5863 16.078 19.4787 16.2769 19.395C16.4965 19.3037 16.6378 19.1537 16.7552 18.9483C17.6075 17.455 18.4717 15.967 19.3304 14.477C19.3718 14.4052 19.4076 14.3313 19.4522 14.2465C19.1152 14.0531 18.8011 13.8716 18.4869 13.6912C18.4575 13.727 18.4412 13.7433 18.4304 13.7629C17.5075 15.3595 16.5845 16.9572 15.6627 18.5549C15.6323 18.607 15.5986 18.6701 15.6008 18.7266C15.6138 19.0374 15.6355 19.3472 15.6562 19.7026ZM20.0849 13.7379C20.7567 12.575 21.4132 11.4348 22.0774 10.2849C21.572 9.99258 21.0958 9.7187 20.6023 9.43394C19.9359 10.5882 19.2761 11.7305 18.6086 12.8858C19.1 13.1695 19.5761 13.4444 20.0849 13.7379ZM2.1528 7.21892C2.2039 7.11567 2.24738 7.03524 2.28434 6.95156C2.54958 6.35487 2.81265 5.7571 3.0768 5.16041C3.44096 4.33549 3.80513 3.51056 4.1682 2.68564C4.20734 2.5976 4.28452 2.49653 4.13777 2.43131C3.8497 2.30306 3.55945 2.17699 3.24747 2.04113C2.54523 3.62903 1.85278 5.19519 1.15489 6.77549C1.4984 6.92765 1.80929 7.06676 2.1528 7.21892ZM13.8126 2.36393C13.5093 2.48131 13.2495 2.58782 12.9864 2.68129C12.8592 2.72694 12.8407 2.79324 12.8864 2.91171C13.4701 4.41048 14.0528 5.91035 14.6311 7.4113C14.6789 7.53629 14.742 7.56454 14.8594 7.51672C15.0822 7.42651 15.3051 7.33087 15.5334 7.25588C15.6942 7.20262 15.7095 7.12871 15.6508 6.97982C15.3888 6.32335 15.1377 5.66146 14.8822 5.00282C14.5681 4.19094 14.255 3.37905 13.9376 2.56826C13.9093 2.49326 13.8528 2.42805 13.8126 2.36393ZM6.25752 9.13397C6.17382 9.05354 6.09881 8.93725 5.99337 8.89051C5.86075 8.83182 5.72378 8.86334 5.63899 9.01876C5.44114 9.3796 5.22808 9.73283 5.02915 10.0937C4.90088 10.3263 4.94545 10.5143 5.13568 10.6175C5.31939 10.7164 5.50093 10.6425 5.62594 10.4067C5.81183 10.0567 5.99228 9.70348 6.17273 9.35134C6.201 9.29917 6.21839 9.23939 6.25752 9.13397ZM18.101 3.17038C17.6194 2.68999 17.1433 2.21503 16.6759 1.74877C16.6759 2.20416 16.6759 2.68673 16.6759 3.17038C17.1672 3.17038 17.6401 3.17038 18.101 3.17038ZM7.48046 9.8013C7.40328 9.72196 7.32936 9.59588 7.22065 9.54806C7.08042 9.48611 6.93258 9.52524 6.84997 9.69044C6.69669 9.99476 6.5369 10.2969 6.38145 10.6001C6.27165 10.8153 6.30209 10.9631 6.47385 11.0577C6.6456 11.1523 6.83475 11.0903 6.94019 10.8947C7.09782 10.6012 7.25 10.3045 7.40219 10.0078C7.42611 9.96107 7.44024 9.9089 7.48046 9.8013ZM5.12046 8.34491C5.04654 8.25687 4.98241 8.11015 4.8824 8.07971C4.77261 8.04602 4.56607 8.07754 4.51497 8.15471C4.31387 8.45577 4.13994 8.77965 3.99101 9.11114C3.91709 9.27526 4.00623 9.43068 4.18233 9.50785C4.35518 9.58284 4.4791 9.52632 4.56933 9.36438C4.71282 9.1068 4.86501 8.85356 5.00958 8.59706C5.04654 8.53076 5.07155 8.45685 5.12046 8.34491ZM8.70883 10.4556C8.63383 10.3795 8.55773 10.2523 8.44794 10.2045C8.30662 10.1426 8.15987 10.186 8.07834 10.3523C7.94681 10.6175 7.80658 10.8773 7.6707 11.1392C7.56525 11.3446 7.5946 11.5022 7.75657 11.599C7.92615 11.7 8.11965 11.6468 8.23162 11.4522C8.37511 11.2023 8.50664 10.9468 8.63926 10.6914C8.66752 10.6371 8.67513 10.573 8.70883 10.4556ZM9.15126 11.3599C9.15779 11.3914 9.16322 11.424 9.16974 11.4555C9.30997 11.4555 9.46434 11.4903 9.58609 11.4425C9.66218 11.4131 9.7274 11.2631 9.73393 11.1631C9.74697 10.9621 9.5763 10.8925 9.42303 10.8099C9.32628 11.0044 9.23823 11.1827 9.15126 11.3599ZM21.76 8.58836C21.6589 8.76335 21.573 8.91334 21.4839 9.06767C21.6372 9.15462 21.7568 9.22309 21.8948 9.30134C21.9861 9.14158 22.0731 8.98942 22.1666 8.82313C22.0231 8.74161 21.9046 8.67205 21.76 8.58836Z" fill="black"/>
<path d="M10.1337 12.8619C12.0665 12.8619 13.9993 12.8619 15.9321 12.8619C16.0104 12.8619 16.0886 12.8587 16.1658 12.8652C16.3647 12.8837 16.5224 13.0478 16.5093 13.238C16.4952 13.439 16.3832 13.5695 16.181 13.6053C16.1125 13.6173 16.0408 13.6097 15.9712 13.6097C12.0665 13.6097 8.16183 13.6097 4.25713 13.6086C4.1506 13.6086 4.03428 13.6053 3.93862 13.5651C3.76795 13.4934 3.7049 13.3423 3.73969 13.1608C3.7723 12.988 3.88101 12.8869 4.05494 12.8663C4.13212 12.8565 4.21039 12.8619 4.28865 12.8619C6.23774 12.8619 8.18575 12.8619 10.1337 12.8619Z" fill="black"/>
<path d="M9.54662 15.3812C11.2859 15.3812 13.0241 15.3812 14.7634 15.3812C14.8341 15.3812 14.9036 15.379 14.9743 15.3823C15.2167 15.3932 15.3765 15.5345 15.3841 15.7431C15.3917 15.9529 15.2156 16.1224 14.9754 16.1344C14.921 16.1377 14.8667 16.1355 14.8112 16.1355C11.3022 16.1355 7.7932 16.1355 4.28528 16.1355C4.20701 16.1355 4.12765 16.1409 4.05156 16.129C3.85045 16.0974 3.71457 15.9312 3.73197 15.7333C3.74936 15.5279 3.86459 15.4062 4.0733 15.3866C4.15809 15.379 4.24506 15.3812 4.33093 15.3812C6.06913 15.3812 7.80842 15.3812 9.54662 15.3812Z" fill="black"/>
<path d="M8.8442 18.6592C7.3158 18.6592 5.7874 18.6603 4.25791 18.657C4.1579 18.657 4.05355 18.6494 3.96115 18.6168C3.78396 18.5538 3.7133 18.4092 3.73395 18.2277C3.75352 18.0538 3.8557 17.9429 4.02963 17.9125C4.11333 17.8973 4.2003 17.8973 4.28617 17.8973C7.32775 17.8962 10.3693 17.8962 13.4109 17.8973C13.7925 17.8973 13.9751 18.0158 13.9827 18.2657C13.9903 18.5201 13.7881 18.6592 13.4077 18.6592C11.8858 18.6592 10.365 18.6592 8.8442 18.6592Z" fill="black"/>
<path d="M15.3054 10.3382C15.7642 10.3382 16.224 10.3361 16.6827 10.3393C16.9447 10.3404 17.1241 10.5023 17.1176 10.7219C17.111 10.9371 16.9436 11.0849 16.6893 11.086C15.7555 11.0882 14.8217 11.0882 13.8868 11.086C13.6248 11.0849 13.4737 10.9447 13.4727 10.7165C13.4716 10.4795 13.627 10.3404 13.9042 10.3382C14.3717 10.3371 14.838 10.3382 15.3054 10.3382Z" fill="black"/>
<path d="M3.8367 2.78674C3.82474 2.93347 3.72691 3.03781 3.54754 3.05194C3.37579 3.06498 3.23012 2.92369 3.23447 2.75196C3.23991 2.5672 3.35079 2.46829 3.52471 2.44764C3.68886 2.43025 3.8367 2.58241 3.8367 2.78674Z" fill="black"/>
<path d="M13.5267 2.75085C13.7213 2.75738 13.8202 2.86497 13.8409 3.03887C13.8594 3.19755 13.6996 3.35623 13.5376 3.35732C13.368 3.35841 13.23 3.21603 13.2387 3.04105C13.2474 2.85628 13.3539 2.7639 13.5267 2.75085Z" fill="black"/>
</svg>
