<svg width="24" height="24" viewBox="0 0 24 24" fill="none" xmlns="http://www.w3.org/2000/svg">
<path d="M18.2916 0C18.4491 0.0944882 18.6229 0.169427 18.7597 0.286723C19.0313 0.51697 19.1399 0.829758 19.1301 1.18382C19.1269 1.29894 19.1301 1.41515 19.1301 1.51507C19.3452 1.51507 19.5429 1.48683 19.7298 1.5205C20.2555 1.61499 20.6173 2.0581 20.627 2.59571C20.6335 2.95411 20.6314 3.3136 20.6281 3.67201C20.6259 3.92723 20.4912 4.07494 20.274 4.07494C20.0567 4.07494 19.9286 3.93158 19.9253 3.66875C19.921 3.37225 19.9242 3.07575 19.9242 2.77926C19.9231 2.37741 19.7949 2.2927 19.4169 2.44909C16.4612 3.66658 13.5055 4.88406 10.5497 6.10155C9.79476 6.41216 9.03981 6.72387 8.28377 7.03122C7.68306 7.27559 7.20836 7.13766 6.83143 6.61309C6.49034 6.13847 6.1688 5.64866 5.8049 5.19251C5.65283 5.00244 5.43123 4.81998 5.2042 4.74504C4.6263 4.55281 4.11793 4.97312 4.11793 5.5987C4.11684 10.2699 4.11793 14.9411 4.11684 19.6123C4.11684 19.6981 4.11793 19.7839 4.11358 19.8697C4.10164 20.0728 3.98323 20.1825 3.78988 20.2064C3.61064 20.2292 3.44444 20.0847 3.41729 19.8914C3.40534 19.8067 3.41186 19.7198 3.41186 19.634C3.41186 14.978 3.42489 10.3231 3.40208 5.66712C3.39665 4.61472 4.07991 4.11621 4.82183 3.98805C7.05302 3.60358 9.28748 3.23215 11.5198 2.85094C13.6597 2.48602 15.7986 2.11458 17.9385 1.7464C18.0906 1.72034 18.2438 1.69644 18.4132 1.66821C18.4132 1.45859 18.4273 1.25658 18.4089 1.05783C18.3893 0.842791 18.2459 0.72984 18.0363 0.703774C17.9668 0.695086 17.8961 0.700516 17.8255 0.700516C12.958 0.700516 8.0915 0.700516 3.22393 0.700516C2.73077 0.700516 2.61562 0.813467 2.61562 1.30437C2.61562 7.88596 2.61562 14.4686 2.61562 21.0502C2.61562 21.6899 2.73511 21.7985 3.41186 21.7399C3.41186 21.6226 3.40751 21.501 3.41294 21.3793C3.42272 21.1458 3.56285 21.0046 3.77467 21.009C3.97237 21.0133 4.11033 21.1512 4.11358 21.3761C4.1201 21.8279 4.11467 22.2807 4.11793 22.7326C4.1201 23.1138 4.26132 23.255 4.6426 23.255C9.55687 23.256 14.4701 23.256 19.3843 23.255C19.7884 23.255 19.9242 23.1159 19.9242 22.7C19.9242 18.5273 19.9242 14.3557 19.9253 10.183C19.9253 10.0896 19.9188 9.99403 19.9329 9.9028C19.9601 9.71816 20.073 9.60521 20.261 9.59761C20.4608 9.58892 20.5803 9.70405 20.6238 9.89302C20.639 9.96036 20.6303 10.0331 20.6303 10.1026C20.6303 14.3133 20.6303 18.5251 20.6303 22.7358C20.6303 23.5113 20.1871 23.9544 19.4148 23.9544C14.5092 23.9544 9.60249 23.9435 4.69691 23.9652C3.83984 23.9685 3.33799 23.3614 3.41294 22.6869C3.42055 22.6196 3.41403 22.5501 3.41403 22.4556C3.25652 22.4556 3.11748 22.4589 2.97952 22.4545C2.40271 22.4382 1.93236 21.9669 1.91606 21.3902C1.91389 21.2968 1.91498 21.2034 1.91498 21.11C1.91498 14.5436 1.92041 7.97719 1.90629 1.41081C1.90303 0.734184 2.10616 0.251968 2.75466 0C7.93399 0 13.1122 0 18.2916 0ZM6.17749 4.48004C6.5805 5.04263 6.96612 5.58023 7.35066 6.11784C7.60811 6.47841 7.70153 6.50448 8.11322 6.33505C10.5063 5.34999 12.9004 4.36492 15.2935 3.37985C15.8746 3.14092 16.4558 2.9009 17.0358 2.66196C17.0326 2.6511 17.0282 2.64024 17.025 2.62938C13.4131 3.24518 9.8002 3.86207 6.17749 4.48004Z" fill="black"/>
<path d="M20.7415 4.87103C21.3172 4.87212 22.146 5.68341 22.1167 6.13088C22.1047 6.31008 22.0102 6.50448 21.8994 6.65002C21.7408 6.85963 21.5323 7.03123 21.3454 7.21912C18.7036 9.86044 16.0607 12.4985 13.4233 15.1442C13.0387 15.5297 12.614 15.8458 12.123 16.0804C11.6668 16.2987 11.2149 16.5267 10.7641 16.7559C10.5892 16.845 10.4241 16.8786 10.272 16.7266C10.1199 16.5734 10.1558 16.4084 10.2449 16.2335C10.5132 15.7068 10.7554 15.1659 11.0476 14.6522C11.2388 14.3177 11.4626 13.9864 11.733 13.7149C14.5747 10.8553 17.4273 8.00761 20.2841 5.16319C20.433 5.01331 20.648 4.92859 20.7415 4.87103ZM13.1365 14.3275C15.535 11.9294 17.9248 9.54005 20.2972 7.16807C20.1484 7.01385 19.9756 6.83682 19.8181 6.67391C17.4305 9.0611 15.0386 11.4526 12.652 13.8387C12.815 14.0038 12.9899 14.1797 13.1365 14.3275ZM12.0687 14.309C11.8167 14.7521 11.5777 15.1724 11.3376 15.5927C11.3572 15.609 11.3767 15.6253 11.3963 15.6405C11.8265 15.4179 12.2914 15.2528 12.6477 14.8922C12.4619 14.7065 12.2903 14.5327 12.0687 14.309ZM21.39 6.14174C21.2129 5.95493 21.0456 5.77682 20.8892 5.61173C20.7024 5.80071 20.5253 5.97774 20.3667 6.13848C20.5275 6.31008 20.6958 6.48928 20.8675 6.67282C21.0478 6.49036 21.2194 6.31551 21.39 6.14174Z" fill="black"/>
<path d="M14.6653 19.129C15.6396 19.129 16.6151 19.1224 17.5895 19.1376C17.7144 19.1398 17.873 19.2289 17.9501 19.3288C18.0045 19.3994 17.9947 19.6025 17.9328 19.6633C17.835 19.7578 17.6688 19.8284 17.5308 19.8295C16.1198 19.8414 14.7087 19.8371 13.2966 19.8371C12.7741 19.8371 12.2516 19.8382 11.7291 19.836C11.4619 19.8349 11.2935 19.6981 11.2891 19.4863C11.2848 19.2723 11.4477 19.1311 11.7182 19.13C12.7013 19.1279 13.6833 19.129 14.6653 19.129Z" fill="black"/>
<path d="M14.6357 18.3373C13.6841 18.3373 12.7336 18.3383 11.782 18.3362C11.6908 18.3362 11.567 18.347 11.5137 18.2949C11.417 18.2015 11.3139 18.0701 11.3019 17.9463C11.2878 17.7834 11.4084 17.6595 11.5908 17.6378C11.668 17.6291 11.7462 17.628 11.8244 17.628C13.7036 17.628 15.5829 17.627 17.4621 17.628C17.8293 17.628 18.0107 17.7519 18.0031 17.9919C17.9944 18.2265 17.8217 18.3383 17.4665 18.3383C16.5225 18.3373 15.5785 18.3373 14.6357 18.3373Z" fill="black"/>
<path d="M7.51291 14.8607C8.01368 14.3611 8.48621 13.8876 8.95982 13.4151C9.02065 13.3543 9.07822 13.2913 9.1434 13.2348C9.30851 13.0904 9.50621 13.0904 9.64634 13.2316C9.78321 13.3706 9.78647 13.577 9.63656 13.7344C9.38346 13.9994 9.12167 14.2547 8.86206 14.5142C8.51554 14.8618 8.1701 15.2104 7.82032 15.5547C7.60307 15.7686 7.43579 15.7676 7.21745 15.5525C6.8731 15.2137 6.53092 14.8726 6.1931 14.5273C5.99974 14.3307 5.98996 14.133 6.15508 13.9755C6.30824 13.83 6.51029 13.843 6.69278 14.0244C6.96109 14.2927 7.22614 14.5675 7.51291 14.8607Z" fill="black"/>
<path d="M7.51054 18.9889C8.0439 18.4545 8.54901 17.9484 9.0563 17.4434C9.11605 17.3837 9.17905 17.3141 9.254 17.2848C9.41151 17.224 9.56793 17.2457 9.67221 17.3934C9.78519 17.5542 9.77215 17.7192 9.6342 17.8604C9.36263 18.1396 9.08563 18.4132 8.80972 18.688C8.47949 19.0182 8.15035 19.3505 7.81796 19.6785C7.59962 19.8936 7.43233 19.8925 7.21508 19.6785C6.87073 19.3397 6.52964 18.9976 6.19073 18.6544C5.99737 18.4578 5.98542 18.2612 6.14836 18.1026C6.30261 17.9528 6.51226 17.9723 6.70236 18.1634C6.96741 18.4274 7.22594 18.6967 7.51054 18.9889Z" fill="black"/>
<path d="M7.53871 10.7586C7.66906 10.6098 7.77986 10.4697 7.90478 10.3437C8.30453 9.93862 8.70645 9.53569 9.11271 9.1371C9.29846 8.95464 9.49182 8.9503 9.64715 9.11104C9.78728 9.25657 9.78185 9.4651 9.61674 9.63126C9.01277 10.2406 8.40664 10.8466 7.79724 11.4493C7.61257 11.6318 7.42791 11.6318 7.24324 11.4515C6.88152 11.0975 6.52305 10.7391 6.16892 10.3763C5.99729 10.2004 5.99403 10.0103 6.14068 9.85825C6.29384 9.69969 6.49155 9.70512 6.67621 9.88649C6.95321 10.1602 7.22369 10.4393 7.53871 10.7586Z" fill="black"/>
<path d="M16.3415 15.0008C16.7532 15.0008 17.166 14.9976 17.5777 15.0019C17.8417 15.0052 18.0089 15.1518 18.0035 15.3614C17.9981 15.5721 17.8308 15.7133 17.5657 15.7144C16.7413 15.7176 15.9168 15.7176 15.0923 15.7144C14.8283 15.7133 14.6687 15.5667 14.6719 15.3494C14.6752 15.1355 14.8197 15.0062 15.0814 15.003C15.5018 14.9965 15.9222 15.0008 16.3415 15.0008Z" fill="black"/>
<path d="M12.7579 10.0864C12.4158 10.0864 12.0736 10.0896 11.7314 10.0853C11.4598 10.082 11.2958 9.94843 11.2893 9.73882C11.2817 9.52161 11.4577 9.36956 11.7325 9.36847C12.4244 9.36521 13.1164 9.36521 13.8084 9.36847C14.0734 9.36956 14.2439 9.50857 14.2516 9.7171C14.2602 9.93214 14.0854 10.082 13.8062 10.0864C13.4575 10.0896 13.1077 10.0864 12.7579 10.0864Z" fill="black"/>
<path d="M17.0991 13.4988C17.2784 13.4988 17.4576 13.4901 17.6368 13.5009C17.8552 13.514 18.0018 13.6617 18.0051 13.8496C18.0083 14.0353 17.8584 14.2025 17.6477 14.2102C17.274 14.2232 16.8993 14.2232 16.5256 14.2102C16.3062 14.2025 16.1736 14.0472 16.1758 13.8485C16.1791 13.6476 16.3094 13.514 16.5375 13.5009C16.7255 13.4901 16.9123 13.4988 17.0991 13.4988Z" fill="black"/>
<path d="M12.0296 10.8705C12.1545 10.8705 12.2805 10.8597 12.4033 10.8727C12.6064 10.8944 12.7314 11.0139 12.7476 11.2202C12.7618 11.3983 12.6173 11.5645 12.4174 11.5775C12.1535 11.5938 11.8873 11.5938 11.6234 11.5775C11.4224 11.5656 11.2768 11.4005 11.2899 11.2224C11.3051 11.016 11.4289 10.8944 11.632 10.8727C11.7635 10.8597 11.8971 10.8716 12.0296 10.8705Z" fill="black"/>
</svg>
