<svg width="24" height="24" viewBox="0 0 24 24" fill="none" xmlns="http://www.w3.org/2000/svg">
<path d="M6.80022 10.7898C7.35471 11.0012 7.92026 11.1008 8.49467 11.1306C9.18418 11.1672 9.86262 11.0709 10.5311 10.9104C10.6152 10.8905 10.7004 10.8374 10.7657 10.7776C11.733 9.91322 12.8409 9.66088 14.086 10.0095C14.7821 10.2043 15.4717 10.419 16.1722 10.5939C16.5009 10.6758 16.8474 10.6857 17.2192 10.7322C17.1417 10.5009 17.0765 10.3105 17.0156 10.1191C16.9348 9.86452 16.9979 9.71621 17.2436 9.61329C19.1583 8.81089 21.1327 8.54084 23.1846 8.93927C23.4591 8.9924 23.5388 9.09975 23.5388 9.42071C23.5399 11.2524 23.5388 13.0841 23.5388 14.9169C23.5388 15.8986 23.5399 16.8814 23.5388 17.863C23.5388 18.2615 23.4381 18.3633 23.0419 18.3633C22.1376 18.3644 21.2334 18.3644 20.3292 18.3633C19.9053 18.3633 19.8588 18.3301 19.7205 17.9383C19.6895 17.852 19.6563 17.7668 19.622 17.6738C19.0952 17.9151 18.5805 18.1497 18.0703 18.3832C18.8428 19.5874 17.8279 20.8192 16.6415 20.6388C16.5784 21.0649 16.4035 21.4345 16.0394 21.6935C15.6797 21.9492 15.2802 21.989 14.8452 21.9116C14.7567 22.3974 14.5176 22.7748 14.0805 23.0017C13.651 23.2242 13.2117 23.2054 12.7623 23.0006C12.7369 23.0427 12.7125 23.0792 12.6937 23.1168C12.2831 23.9303 11.328 24.0919 10.6905 23.4433C9.44426 22.1761 8.2047 20.9022 6.96624 19.6272C6.39958 19.044 5.81521 18.4839 5.10689 18.0744C4.88664 17.9472 4.65312 17.8431 4.42623 17.7291C4.39746 17.7656 4.37754 17.7823 4.37089 17.8022C4.18828 18.3478 4.20599 18.3699 3.52976 18.3655C2.68752 18.36 1.84638 18.3644 1.00414 18.3633C0.605711 18.3622 0.502783 18.2615 0.502783 17.8686C0.501676 15.0541 0.501676 12.2407 0.502783 9.42624C0.502783 9.07208 0.573616 8.99793 0.921137 8.93152C2.93433 8.54416 4.87115 8.81864 6.75042 9.59336C7.05699 9.71953 7.11786 9.86009 7.0094 10.1822C6.94299 10.3803 6.87327 10.5773 6.80022 10.7898ZM12.5177 14.027C12.0518 14.3579 11.7087 14.8538 11.722 15.406C11.7341 15.9251 11.4973 16.3877 11.1387 16.7707C10.551 17.3982 9.8106 17.7092 8.96614 17.7745C8.35521 17.821 8.29988 17.7546 8.29988 17.1326C8.29988 16.2361 8.33861 15.3374 8.28881 14.4443C8.23569 13.5024 8.52344 12.7498 9.27936 12.1787C9.37232 12.109 9.45201 12.0216 9.53612 11.9397C9.57597 11.901 9.60917 11.8567 9.65012 11.8102C9.11556 11.8102 8.59981 11.8489 8.09181 11.7991C7.57827 11.7493 7.07359 11.6143 6.54899 11.5125C5.91371 13.3464 5.27401 15.1958 4.62877 17.0573C5.83181 17.5155 6.7316 18.3611 7.59487 19.2576C8.76803 20.4761 9.95448 21.6825 11.1398 22.8888C11.2339 22.984 11.3589 23.0748 11.4851 23.1069C11.7065 23.1644 11.9002 23.0814 12.0219 22.8733C12.1392 22.6741 12.1016 22.4229 11.9168 22.2325C11.2925 21.5884 10.665 20.9487 10.0397 20.3068C9.98547 20.2514 9.9257 20.1972 9.88586 20.1319C9.78625 19.9714 9.80949 19.8154 9.94673 19.6892C10.0773 19.5686 10.229 19.563 10.3762 19.6571C10.447 19.7025 10.5045 19.77 10.5654 19.8309C11.3357 20.6144 12.106 21.398 12.8741 22.1849C13.0589 22.3753 13.2714 22.4904 13.5404 22.4428C13.8137 22.3952 14.0085 22.2403 14.096 21.968C14.1889 21.678 14.1092 21.4323 13.9023 21.2209C13.2759 20.579 12.6505 19.9382 12.0241 19.2952C11.9699 19.2398 11.909 19.1856 11.8725 19.1192C11.7884 18.9687 11.795 18.8171 11.9234 18.6909C12.0562 18.5592 12.2112 18.5393 12.3683 18.6488C12.438 18.6975 12.4967 18.7617 12.5565 18.8237C13.2548 19.5365 13.9477 20.2547 14.656 20.9575C14.7855 21.0859 14.9725 21.1911 15.1496 21.2309C15.4429 21.2962 15.7273 21.1147 15.8557 20.8469C15.9841 20.5779 15.931 20.2625 15.7041 20.029C15.0799 19.3848 14.4523 18.7451 13.827 18.1032C13.7728 18.0479 13.7119 17.9947 13.6721 17.9294C13.5758 17.7723 13.5813 17.6129 13.7163 17.4823C13.8492 17.3528 14.0085 17.3407 14.1624 17.448C14.2321 17.4967 14.2896 17.562 14.3494 17.6229C15.0367 18.3246 15.7207 19.0296 16.4124 19.7268C16.6813 19.998 17.0864 20.0146 17.3675 19.7855C17.6376 19.5652 17.7095 19.1546 17.4948 18.8591C17.3354 18.64 17.1628 18.3932 16.9359 18.2703C16.4545 18.0102 16.1069 17.614 15.7328 17.2433C14.6593 16.1775 13.5935 15.1039 12.5177 14.027ZM9.02591 17.0606C9.17864 17.0308 9.30924 17.0142 9.43541 16.981C10.4647 16.7098 10.9738 16.0933 11.0435 15.0497C11.0679 14.6889 11.2073 14.3635 11.4397 14.0956C11.6633 13.8389 11.9156 13.6042 12.1735 13.3796C12.4945 13.0996 12.6007 13.1128 12.9029 13.415C14.1878 14.6977 15.4717 15.9816 16.7566 17.2643C17.2104 17.717 17.6309 17.8022 18.2197 17.5443C18.5617 17.3949 18.8926 17.2211 19.2313 17.0651C19.3508 17.0097 19.384 16.9544 19.3353 16.8149C18.7244 15.0696 18.1201 13.322 17.5203 11.5734C17.476 11.445 17.4129 11.4151 17.2856 11.4107C16.9436 11.3974 16.5928 11.4062 16.2641 11.3277C15.4639 11.1384 14.6726 10.9082 13.8801 10.6879C12.9405 10.4268 12.0817 10.5806 11.3479 11.2258C10.6694 11.8224 10.012 12.4444 9.37343 13.0841C9.2041 13.2534 9.04804 13.5223 9.0414 13.7503C9.00709 14.8383 9.02591 15.9295 9.02591 17.0606ZM17.7848 10.1744C18.6337 12.6259 19.4792 15.0696 20.3325 17.5111C20.3547 17.5742 20.4764 17.6395 20.5528 17.6406C21.2301 17.6505 21.9085 17.6472 22.5859 17.6461C22.6611 17.6461 22.7364 17.6395 22.8227 17.6351C22.8227 14.9501 22.8227 12.2817 22.8227 9.6155C21.4492 9.2879 19.1417 9.54135 17.7848 10.1744ZM1.22328 17.6461C1.98252 17.6461 2.71519 17.6395 3.44675 17.6505C3.62715 17.6539 3.69577 17.593 3.75332 17.4248C4.41074 15.5068 5.07811 13.5932 5.74106 11.6774C5.91482 11.1749 6.08637 10.6725 6.25791 10.1722C4.90103 9.54135 2.5868 9.28679 1.22328 9.61329C1.22328 12.2817 1.22328 14.9501 1.22328 17.6461Z" fill="black"/>
<path d="M5.26158 3.82386C4.35626 2.67947 4.71817 1.41002 5.45859 0.761464C6.31522 0.0110834 7.57581 0.022151 8.41916 0.79356C9.14962 1.46204 9.46726 2.71157 8.57742 3.82718C9.2448 4.14814 9.7528 4.634 10.0682 5.30691C10.1125 5.29252 10.1435 5.28699 10.17 5.2726C10.232 5.24161 10.2929 5.2073 10.3538 5.1741C9.60449 3.93785 9.6875 2.85213 10.5851 2.08182C11.4096 1.37571 12.6315 1.37461 13.4582 2.08072C14.358 2.84991 14.4432 3.95113 13.6895 5.17521C13.7792 5.22058 13.8677 5.26485 13.9706 5.31687C14.2938 4.64175 14.7874 4.15146 15.4747 3.82828C15.0099 3.25609 14.8206 2.62081 14.98 1.90806C15.0962 1.38789 15.3773 0.966214 15.8056 0.645254C16.6645 0.00112258 17.8764 0.0741685 18.6555 0.823442C19.3495 1.48971 19.6649 2.70714 18.785 3.82386C18.8603 3.86481 18.9356 3.90133 19.0064 3.94339C19.9814 4.52001 20.5049 5.36778 20.5348 6.50553C20.547 6.94934 20.537 7.39425 20.537 7.83806C20.537 8.25973 20.4341 8.36488 20.018 8.36488C18.5914 8.36488 17.1647 8.36488 15.7392 8.36488C15.6474 8.36488 15.5555 8.36488 15.4371 8.36488C15.4371 8.67919 15.4382 8.97359 15.4371 9.26688C15.4349 9.56903 15.3187 9.70073 15.0165 9.70073C13.021 9.70405 11.0256 9.70405 9.03009 9.70073C8.72794 9.70073 8.61173 9.57013 8.60952 9.26688C8.60731 8.97913 8.60952 8.69137 8.60952 8.36488C8.50991 8.36488 8.42027 8.36488 8.33172 8.36488C6.89737 8.36488 5.46301 8.36488 4.02866 8.36488C3.61141 8.36488 3.50516 8.26084 3.5107 7.83806C3.51734 7.2548 3.48192 6.66379 3.55497 6.08828C3.68224 5.08445 4.25222 4.36174 5.14316 3.88916C5.17636 3.87145 5.20957 3.85263 5.26158 3.82386ZM14.7299 8.97802C14.7299 8.56077 14.7476 8.17119 14.7266 7.78383C14.6723 6.81431 14.0691 6.02962 13.1716 5.75072C13.0631 5.71752 12.9248 5.72084 12.8174 5.75847C12.347 5.92116 11.8656 5.98092 11.4019 5.7972C11.0599 5.66218 10.7732 5.7308 10.5021 5.90677C10.2575 6.06614 10.0173 6.25097 9.82584 6.469C9.18061 7.20389 9.31342 8.10147 9.31895 8.97802C11.1329 8.97802 12.9203 8.97802 14.7299 8.97802ZM8.59513 7.63552C8.60841 7.59347 8.61948 7.57133 8.6228 7.54809C8.71356 6.89732 8.96811 6.32623 9.41635 5.83926C9.4573 5.79499 9.44623 5.6655 9.41413 5.59577C9.13744 4.99923 8.68146 4.59637 8.05614 4.39716C7.95543 4.36506 7.82483 4.3717 7.72522 4.40712C7.2471 4.57977 6.75902 4.62958 6.28644 4.44807C5.97323 4.32743 5.70761 4.3717 5.45195 4.5355C5.21842 4.68491 4.98158 4.84539 4.79121 5.04461C4.084 5.78614 4.20574 6.71692 4.22123 7.63442C5.68658 7.63552 7.13422 7.63552 8.59513 7.63552ZM19.8298 7.63552C19.8298 7.21053 19.8575 6.81099 19.8243 6.41809C19.7424 5.44304 19.2377 4.76349 18.3158 4.41929C18.1929 4.37281 18.0258 4.38056 17.8985 4.42261C17.4326 4.57534 16.9556 4.63511 16.5029 4.4536C16.1576 4.31526 15.8864 4.4038 15.6031 4.55874C15.1659 4.7967 14.8428 5.14422 14.6258 5.59356C14.5672 5.7142 14.5705 5.79388 14.669 5.89902C15.0176 6.26868 15.2456 6.70696 15.3552 7.205C15.3862 7.34666 15.415 7.48943 15.4448 7.63552C16.9124 7.63552 18.3589 7.63552 19.8298 7.63552ZM17.1149 3.84267C17.9373 3.84489 18.6046 3.20407 18.6168 2.39725C18.629 1.58932 17.9528 0.92305 17.1216 0.924157C16.3004 0.925264 15.6352 1.57493 15.6319 2.37843C15.6286 3.18083 16.297 3.84046 17.1149 3.84267ZM6.92504 0.924157C6.10383 0.92305 5.43645 1.5694 5.42981 2.3729C5.42317 3.17308 6.09165 3.83825 6.90733 3.84267C7.74182 3.8471 8.41694 3.1919 8.41362 2.37954C8.41141 1.57493 7.74736 0.925264 6.92504 0.924157ZM12.0172 5.19402C12.834 5.19734 13.5202 4.52222 13.5158 3.72093C13.5113 2.92406 12.8406 2.26444 12.0294 2.26001C11.2126 2.25448 10.5253 2.93071 10.5308 3.7331C10.5364 4.52886 11.2104 5.1907 12.0172 5.19402Z" fill="black"/>
</svg>
