<svg width="24" height="22" viewBox="0 0 24 22" fill="none" xmlns="http://www.w3.org/2000/svg">
<path d="M24.0001 16.1693C23.9845 16.1945 23.9629 16.2185 23.9557 16.2461C23.784 16.8742 23.3745 17.2609 22.7524 17.4278C21.3798 17.7977 20.0059 18.1652 18.6321 18.5314C17.1226 18.9337 15.6166 19.3504 14.1011 19.7263C13.646 19.8392 13.162 19.8728 12.69 19.8776C10.8731 19.8944 9.05732 19.8812 7.24036 19.886C5.76325 19.8896 5.08354 19.8896 3.63165 19.1019C3.62684 19.1979 3.61964 19.276 3.61964 19.3552C3.61844 19.8932 3.62204 20.4312 3.61844 20.9693C3.61604 21.3343 3.48754 21.4628 3.12487 21.464C2.25902 21.4664 1.39437 21.4664 0.528521 21.464C0.18026 21.4628 0.0493619 21.3295 0.0493619 20.9837C0.0493619 17.9982 0.048161 15.0116 0.0493619 12.0261C0.0493619 11.6911 0.195872 11.5458 0.535727 11.5446C1.40158 11.5422 2.26622 11.5422 3.13207 11.5446C3.46833 11.5458 3.61484 11.6899 3.61724 12.0297C3.62204 12.575 3.61844 13.1214 3.61844 13.6666C3.61844 13.7422 3.61844 13.8179 3.61844 13.9416C4.60558 13.3327 5.64796 13.0841 6.772 13.1358C6.772 10.4902 6.772 7.86743 6.772 5.21584C6.54263 5.21584 6.31926 5.21824 6.0959 5.21584C5.74523 5.21223 5.59752 5.07173 5.59632 4.71746C5.59272 3.46973 5.59392 2.22319 5.59512 0.975458C5.59512 0.567151 5.71761 0.449463 6.12712 0.449463C10.1501 0.449463 14.1732 0.449463 18.1962 0.449463C19.9039 0.449463 21.6103 0.449463 23.318 0.449463C23.7155 0.449463 23.8488 0.582763 23.8488 0.982663C23.85 2.21479 23.85 3.44571 23.8488 4.67783C23.8488 5.07173 23.7047 5.21344 23.3132 5.21584C23.1187 5.21704 22.9229 5.21704 22.7284 5.21944C22.714 5.21944 22.6984 5.22785 22.6659 5.23625C22.6659 8.24451 22.6659 11.2576 22.6659 14.2862C22.714 14.3031 22.7692 14.3271 22.828 14.3439C23.3973 14.5084 23.7623 14.8807 23.9449 15.4391C23.9581 15.4811 23.9797 15.5208 23.9977 15.5616C24.0001 15.7633 24.0001 15.9663 24.0001 16.1693ZM7.59102 13.1322C8.3728 13.1322 9.12937 13.125 9.88474 13.1358C10.1477 13.1394 10.4191 13.1526 10.6713 13.2174C12.4162 13.6714 14.1551 14.1481 15.9013 14.5973C16.4969 14.751 16.9929 15.0056 17.2559 15.606C18.7918 15.1941 20.3122 14.787 21.8349 14.3787C21.8349 11.3224 21.8349 8.27813 21.8349 5.23505C17.0769 5.23505 12.3346 5.23505 7.58982 5.23505C7.59102 7.86983 7.59102 10.4866 7.59102 13.1322ZM9.63735 19.0766C10.705 19.0766 11.7738 19.0874 12.8414 19.0706C13.2124 19.0646 13.5931 19.0358 13.9498 18.9433C15.7559 18.4774 17.5561 17.9886 19.3574 17.5071C20.4383 17.2176 21.5203 16.9318 22.5999 16.6352C23.0442 16.5127 23.2868 16.0948 23.1763 15.6841C23.0562 15.241 22.6527 14.9912 22.2048 15.1101C20.6424 15.5232 19.0812 15.9423 17.5213 16.3662C17.4564 16.3842 17.376 16.4599 17.3591 16.5235C17.1058 17.4999 16.2855 17.9934 15.3104 17.74C14.716 17.5851 14.1251 17.4194 13.5319 17.2609C13.0287 17.1264 12.5243 16.9979 12.0223 16.8574C11.787 16.7913 11.6645 16.5824 11.7185 16.3782C11.7762 16.1572 11.9587 16.0432 12.2013 16.0792C12.2469 16.0864 12.2913 16.1032 12.3358 16.1152C13.425 16.4046 14.513 16.6989 15.6034 16.9823C16.0706 17.1036 16.5077 16.7949 16.5714 16.3218C16.629 15.8918 16.3684 15.5556 15.8748 15.4235C14.5394 15.0644 13.2052 14.6981 11.8662 14.3535C11.2358 14.1914 10.5993 13.9836 9.95679 13.9488C8.73668 13.8851 7.51056 13.9176 6.28684 13.9368C5.35854 13.9512 4.51431 14.249 3.77456 14.8146C3.6965 14.8747 3.62564 15.0008 3.62444 15.0968C3.61364 16.0396 3.61364 16.9835 3.62444 17.9262C3.62564 18.0162 3.68809 18.1351 3.76135 18.1904C4.52992 18.7728 5.39577 19.0766 6.3637 19.0766C7.45532 19.0766 8.54573 19.0766 9.63735 19.0766ZM6.41894 1.25046C6.41894 2.31326 6.41894 3.35204 6.41894 4.39442C11.9647 4.39442 17.4924 4.39442 23.0262 4.39442C23.0262 3.33643 23.0262 2.29645 23.0262 1.25046C17.484 1.25046 11.9599 1.25046 6.41894 1.25046ZM2.79702 20.657C2.79702 17.8781 2.79702 15.1233 2.79702 12.3648C2.13893 12.3648 1.49645 12.3648 0.856367 12.3648C0.856367 15.1377 0.856367 17.8937 0.856367 20.657C1.50846 20.657 2.14493 20.657 2.79702 20.657Z" fill="black"/>
<path d="M14.7372 6.80343C14.1212 6.80343 13.5051 6.80463 12.889 6.80223C12.7966 6.80223 12.7005 6.79502 12.614 6.7674C12.4291 6.70856 12.3378 6.57165 12.3462 6.37711C12.3546 6.18136 12.4591 6.05647 12.6489 6.01444C12.7389 5.99402 12.8338 5.99282 12.9275 5.99162C14.12 5.99042 15.3137 5.99042 16.5062 5.99042C16.9013 5.99042 17.1018 6.12612 17.1042 6.39152C17.1066 6.66052 16.9025 6.80343 16.5146 6.80343C15.9225 6.80463 15.3305 6.80343 14.7372 6.80343Z" fill="black"/>
</svg>
