<svg width="24" height="24" viewBox="0 0 24 24" fill="none" xmlns="http://www.w3.org/2000/svg">
<path d="M0 21.163C0.226863 20.5002 0.669965 20.2865 1.28618 20.2878C8.44143 20.2997 15.5967 20.2948 22.7519 20.2976C22.9225 20.2976 23.0988 20.3018 23.2631 20.3458C23.6863 20.4597 23.9919 20.9101 23.9962 21.4046C24.0006 21.9019 24.0019 22.3999 23.9962 22.8972C23.9894 23.5048 23.5525 23.9846 23.0057 23.9895C22.5213 23.9937 22.037 23.9923 21.5526 23.9895C21.3033 23.9881 21.1433 23.8309 21.1445 23.5977C21.1458 23.3644 21.3058 23.2093 21.5564 23.2073C21.9938 23.2045 22.4313 23.2073 22.8688 23.2059C23.1863 23.2052 23.2944 23.0878 23.2963 22.7407C23.2981 22.3391 23.2988 21.9375 23.2963 21.5359C23.2938 21.2188 23.195 21.1008 22.9219 21.1008C20.3833 21.0994 17.8447 21.0994 15.3061 21.1001C15.2536 21.1001 15.2004 21.1085 15.1348 21.1141C15.1348 21.8062 15.1348 22.4837 15.1348 23.2059C15.2223 23.2059 15.3117 23.2059 15.4004 23.2059C16.861 23.2059 18.3222 23.2073 19.7827 23.2038C19.9589 23.2031 20.1102 23.2373 20.1933 23.4314C20.2952 23.6696 20.1627 23.9483 19.929 23.9846C19.8521 23.9965 19.7727 23.9888 19.6946 23.9888C13.5705 23.9888 7.44648 23.9818 1.32243 24C0.698713 24.0021 0.244987 23.8177 0.000624967 23.1521C0 22.49 0 21.8265 0 21.163ZM9.98947 23.2059C10.5969 23.2059 11.1638 23.21 11.73 23.1989C11.7831 23.1975 11.8525 23.1067 11.885 23.0396C12.1156 22.5654 12.3387 22.087 12.5631 21.6093C12.6375 21.4514 12.7087 21.2922 12.7956 21.1015C12.3875 21.1015 12.0162 21.1434 11.6563 21.0917C11.1425 21.0177 10.8457 21.2119 10.6569 21.7615C10.4888 22.2504 10.2276 22.7002 9.98947 23.2059ZM2.11239 23.2066C2.71298 23.2066 3.27295 23.2114 3.8323 23.1989C3.89292 23.1975 3.97417 23.1081 4.00854 23.0368C4.2654 22.5095 4.51351 21.9766 4.7635 21.4444C4.81225 21.3411 4.85724 21.2363 4.91787 21.1001C4.60163 21.1001 4.32915 21.0987 4.05666 21.1008C3.7448 21.1029 3.36732 20.9891 3.13921 21.1462C2.9036 21.3089 2.80985 21.7336 2.65923 22.0465C2.47987 22.4194 2.3055 22.7959 2.11239 23.2066ZM7.54835 21.1008C6.94901 21.1008 6.40341 21.0952 5.85782 21.1078C5.78845 21.1092 5.6947 21.193 5.65658 21.267C5.48596 21.5995 5.33159 21.9417 5.17223 22.2804C5.03223 22.578 4.89349 22.8762 4.73913 23.2059C5.34097 23.2059 5.90219 23.208 6.46278 23.2024C6.50778 23.2017 6.57403 23.166 6.59403 23.1248C6.90839 22.4676 7.21774 21.8055 7.54835 21.1008ZM10.1751 21.1015C9.57012 21.1015 9.0089 21.0973 8.4483 21.1078C8.39268 21.1092 8.31831 21.1902 8.28644 21.2545C7.99395 21.8593 7.70834 22.469 7.42211 23.078C7.40648 23.1109 7.40648 23.1528 7.39586 23.2066C7.96021 23.2066 8.50643 23.21 9.05202 23.2017C9.11389 23.201 9.20389 23.1472 9.23201 23.0892C9.54387 22.4474 9.84573 21.7999 10.1751 21.1015ZM12.6212 23.1919C13.2318 23.1919 13.8049 23.1919 14.3861 23.1919C14.3861 22.4942 14.3861 21.8111 14.3861 21.1015C14.1499 21.1015 13.9261 21.0952 13.7024 21.1064C13.653 21.1085 13.5837 21.156 13.5599 21.2049C13.2487 21.8537 12.9431 22.5067 12.6212 23.1919ZM2.29363 21.1043C1.82928 21.1043 1.40305 21.0959 0.976824 21.1078C0.788083 21.1134 0.707463 21.2691 0.704963 21.464C0.699338 21.9166 0.701838 22.3691 0.703713 22.8217C0.704338 23.0208 0.791208 23.166 0.967449 23.1954C1.13619 23.2233 1.31306 23.2659 1.41055 23.004C1.52367 22.7009 1.68179 22.418 1.81865 22.1254C1.97177 21.7971 2.12426 21.4675 2.29363 21.1043Z" fill="black"/>
<path d="M11.3155 1.65396C11.5174 1.77199 11.7011 1.84742 11.8499 1.97314C12.1292 2.2106 12.3905 2.4746 12.6536 2.73512C12.753 2.83359 12.8317 2.85035 12.9617 2.78261C13.3067 2.60311 13.6604 2.44248 14.0179 2.29371C14.1479 2.23993 14.1998 2.17289 14.2072 2.01784C14.2279 1.60018 14.261 1.18252 14.2972 0.766262C14.3372 0.307399 14.6341 0.00637903 15.0485 0.00288692C15.5328 -0.00130361 16.0172 -0.000605191 16.5015 0.00288692C16.9109 0.00568061 17.2027 0.271081 17.2583 0.729246C17.3083 1.14341 17.3265 1.56316 17.3515 1.98012C17.3621 2.15473 17.4183 2.24692 17.5808 2.30838C17.9189 2.43689 18.2508 2.59264 18.5714 2.76724C18.7264 2.85175 18.8189 2.8301 18.9389 2.70718C19.192 2.44806 19.4557 2.20152 19.7213 1.95777C20.0894 1.62043 20.4719 1.6372 20.8119 2.00736C21.1419 2.36705 21.4675 2.73162 21.7894 3.10039C22.1181 3.47754 22.1331 3.91196 21.8312 4.32053C21.6075 4.62365 21.3794 4.92257 21.1444 5.21451C21.0488 5.33394 21.0338 5.42823 21.0988 5.58258C21.2581 5.95973 21.4019 6.34596 21.5275 6.73847C21.5787 6.89981 21.6506 6.95498 21.7925 6.96546C22.1737 6.9934 22.5562 7.02133 22.9355 7.07232C23.318 7.124 23.5724 7.44248 23.5793 7.86852C23.588 8.43564 23.588 9.00346 23.5793 9.57058C23.573 10.005 23.3074 10.3263 22.9149 10.3752C22.5424 10.4213 22.1687 10.4506 21.795 10.4764C21.6537 10.4862 21.5806 10.5365 21.5281 10.6999C21.4 11.1001 21.2481 11.4926 21.09 11.8796C21.0363 12.0116 21.0413 12.0968 21.1263 12.2036C21.355 12.49 21.575 12.7854 21.7975 13.0781C22.1412 13.5299 22.1293 13.9588 21.7587 14.3764C21.445 14.7298 21.1313 15.0832 20.8138 15.4317C20.4775 15.8019 20.0894 15.8229 19.7238 15.4869C19.4401 15.2264 19.1695 14.9484 18.8808 14.6956C18.8214 14.6432 18.697 14.6306 18.6233 14.6614C18.252 14.8178 17.8852 14.9875 17.524 15.1705C17.4521 15.2068 17.374 15.3172 17.364 15.4024C17.3252 15.7481 17.3002 16.0973 17.2915 16.4458C17.274 17.1184 16.9271 17.4872 16.3428 17.4481C15.9147 17.4194 15.4834 17.446 15.0541 17.4418C14.6316 17.4376 14.3329 17.1289 14.2941 16.6582C14.2597 16.2412 14.2404 15.8229 14.196 15.4073C14.1866 15.3207 14.1129 15.2068 14.0423 15.1712C13.6742 14.984 13.2998 14.8122 12.9217 14.6509C12.8542 14.6223 12.738 14.6397 12.6823 14.6893C12.4067 14.9331 12.1455 15.1957 11.8767 15.4492C11.4705 15.8326 11.0912 15.8166 10.7149 15.401C10.4037 15.0574 10.0937 14.7124 9.78686 14.3638C9.43438 13.9637 9.41813 13.5439 9.74123 13.1067C9.96997 12.7973 10.2137 12.5012 10.4349 12.1855C10.4812 12.1198 10.4918 11.9808 10.4643 11.8991C10.3275 11.4926 10.1637 11.0973 10.0281 10.6901C9.97935 10.5435 9.91435 10.4869 9.77998 10.4771C9.39813 10.4499 9.01627 10.4199 8.63629 10.3738C8.25256 10.327 7.98008 9.99452 7.9732 9.56429C7.96445 9.00555 7.96508 8.44681 7.97258 7.88807C7.9782 7.45296 8.23819 7.124 8.62692 7.07162C9.00627 7.02063 9.38813 6.9913 9.76998 6.96686C9.91748 6.95708 9.98122 6.88863 10.0312 6.73638C10.1606 6.34526 10.3012 5.95764 10.4599 5.58049C10.5237 5.42823 10.5162 5.33953 10.4168 5.21731C10.175 4.92048 9.94372 4.61317 9.71686 4.30168C9.425 3.90078 9.4425 3.47265 9.76436 3.10388C10.0918 2.72883 10.4156 2.34889 10.7631 1.99828C10.9118 1.85091 11.1162 1.77548 11.3155 1.65396ZM20.2332 2.51372C19.8819 2.84826 19.5307 3.18001 19.182 3.51525C18.9714 3.7171 18.7583 3.75761 18.4933 3.62141C18.0352 3.38674 17.5652 3.17861 17.0946 2.97398C16.8534 2.86921 16.6965 2.70927 16.6777 2.40895C16.6677 2.25251 16.6534 2.09606 16.6415 1.93961C16.6121 1.56037 16.5821 1.18113 16.5528 0.803279C16.0209 0.803279 15.5172 0.803279 15.0022 0.803279C14.9672 1.29706 14.9297 1.77409 14.9016 2.25181C14.8747 2.70299 14.7553 2.85035 14.3735 2.99702C13.9841 3.14649 13.5979 3.3155 13.2292 3.51875C12.7473 3.78415 12.6636 3.78973 12.2524 3.39512C11.9411 3.0962 11.628 2.80147 11.3487 2.53606C10.9674 2.96071 10.6093 3.3595 10.2425 3.76738C10.5262 4.13964 10.8262 4.52936 11.1224 4.92327C11.3293 5.19775 11.3299 5.3968 11.2024 5.71598C10.9993 6.22234 10.8149 6.73917 10.6343 7.256C10.5474 7.50394 10.4181 7.67785 10.1718 7.71068C10.0481 7.72744 9.92372 7.73792 9.79936 7.75049C9.43 7.7868 9.06065 7.82242 8.69067 7.85874C8.69067 8.4517 8.69067 9.00695 8.69067 9.57058C8.74754 9.58105 8.79191 9.59292 8.83753 9.59711C9.22626 9.63273 9.61499 9.66766 10.0043 9.70258C10.4062 9.73889 10.5249 9.8681 10.6562 10.2795C10.8049 10.7453 10.9737 11.2056 11.1649 11.6512C11.3412 12.0625 11.3437 12.2316 11.0824 12.5731C10.7949 12.9488 10.5093 13.326 10.235 13.6864C10.6093 14.1061 10.9668 14.5063 11.3362 14.9191C11.6561 14.6146 11.9874 14.2982 12.3198 13.9832C12.6461 13.6731 12.7817 13.6738 13.1636 13.8784C13.5485 14.0845 13.9429 14.2738 14.3454 14.4316C14.7703 14.5985 14.8766 14.7305 14.9041 15.2334C14.9291 15.7006 14.9703 16.1672 15.0047 16.6442C15.5309 16.6442 16.0347 16.6442 16.554 16.6442C16.5946 16.1099 16.6371 15.5896 16.6727 15.0686C16.6959 14.7235 16.8696 14.5594 17.154 14.4498C17.5796 14.2863 17.9977 14.0929 18.4039 13.8757C18.7695 13.6801 18.9195 13.6773 19.2282 13.972C19.5645 14.2933 19.9026 14.6132 20.2176 14.9121C20.5932 14.4945 20.9513 14.0964 21.3225 13.6829C21.0375 13.3085 20.7375 12.9202 20.4432 12.5263C20.2163 12.2225 20.2207 12.0507 20.375 11.691C20.5563 11.2684 20.7307 10.8389 20.8675 10.3968C21.0475 9.81572 21.1369 9.72632 21.7012 9.6928C22.0881 9.66975 22.4737 9.62366 22.8768 9.58594C22.8768 9.28143 22.8768 9.00346 22.8768 8.72618C22.8768 8.44053 22.8768 8.15417 22.8768 7.85176C22.4162 7.81265 21.9806 7.78052 21.5462 7.73791C21.1369 7.69741 21.0294 7.57099 20.9 7.15334C20.7625 6.71123 20.6069 6.27262 20.4219 5.85217C20.1988 5.34372 20.1951 5.23407 20.5282 4.80245C20.8013 4.44835 21.0706 4.09005 21.3319 3.74573C20.9588 3.32738 20.6069 2.93277 20.2332 2.51372Z" fill="black"/>
<path d="M9.46199 15.8955C9.41386 16.0491 9.38262 16.2132 9.31387 16.355C9.13638 16.7231 8.94639 17.0835 8.75515 17.4432C8.50704 17.909 8.14518 18.0361 7.69583 17.8217C7.60958 17.7805 7.51146 17.7574 7.44022 17.696C7.08774 17.3936 6.7765 17.5465 6.47714 17.798C6.42527 17.842 6.38715 17.9314 6.37652 18.0061C6.33715 18.2903 6.3209 18.5781 6.27903 18.8617C6.22153 19.25 5.9603 19.5273 5.60844 19.5412C5.14846 19.5594 4.68724 19.5594 4.22726 19.5391C3.88416 19.5238 3.61792 19.2255 3.56667 18.8442C3.53355 18.5942 3.51105 18.3427 3.48168 18.092C3.43918 17.7239 2.9642 17.4299 2.6561 17.5794C2.45611 17.6764 2.25862 17.7805 2.05425 17.865C1.70115 18.011 1.35304 17.8936 1.15305 17.5381C0.921187 17.1254 0.703698 16.7014 0.498709 16.2705C0.320593 15.8962 0.411839 15.4897 0.715573 15.218C0.891813 15.0601 1.07305 14.9072 1.26242 14.7696C1.38304 14.6823 1.39866 14.574 1.41554 14.4253C1.46116 14.0251 1.33804 13.7674 1.02493 13.5557C0.398714 13.1325 0.184976 12.7176 0.696824 11.8481C0.850565 11.5862 0.974934 11.3033 1.1218 11.0365C1.35116 10.6203 1.70115 10.496 2.10862 10.681C2.31799 10.776 2.5186 10.8955 2.73234 10.9758C2.81734 11.0079 2.93046 10.9814 3.02295 10.9513C3.43605 10.8172 3.53542 10.4659 3.52417 10.0343C3.52105 9.90509 3.5473 9.77378 3.56855 9.64597C3.63229 9.26254 3.93353 8.97549 4.30038 8.96641C4.71411 8.95663 5.12784 8.95663 5.54157 8.96571C5.93217 8.97479 6.21841 9.25835 6.28153 9.69067C6.31778 9.94001 6.35653 10.1914 6.36215 10.4429C6.3659 10.63 6.45715 10.6957 6.57214 10.7998C6.86525 11.0666 7.13836 11.0351 7.43584 10.8312C7.54771 10.7544 7.67458 10.702 7.79895 10.6524C8.14893 10.5127 8.50204 10.6342 8.69828 10.9869C8.92451 11.3934 9.13825 11.8097 9.34199 12.2315C9.52761 12.6171 9.43949 13.0305 9.13138 13.3078C9.01639 13.4119 8.90327 13.5257 8.77452 13.6032C8.50391 13.7646 8.40267 13.9881 8.42454 14.3394C8.43829 14.5657 8.48704 14.7088 8.65515 14.8262C8.82014 14.9407 8.97451 15.0762 9.127 15.2117C9.34324 15.4024 9.43261 15.6112 9.46199 15.8955ZM8.74077 12.645C8.53954 12.2525 8.35142 11.8725 8.14706 11.5038C8.12081 11.4563 7.99706 11.4325 7.93894 11.457C7.68458 11.5652 7.43397 11.6882 7.18836 11.8188C6.97649 11.9312 6.79525 11.9193 6.60276 11.7531C6.44402 11.6155 6.26716 11.4898 6.08029 11.413C5.79281 11.2949 5.69344 11.0742 5.67531 10.7572C5.65656 10.4296 5.61344 10.1034 5.57844 9.75562C5.16409 9.75562 4.77536 9.75004 4.38663 9.76331C4.34226 9.7647 4.27226 9.86528 4.26351 9.92814C4.22226 10.2292 4.19101 10.533 4.16914 10.8368C4.15039 11.0938 4.06352 11.2719 3.83541 11.3788C3.62917 11.4751 3.4298 11.605 3.25044 11.7552C3.05607 11.9186 2.87546 11.9312 2.66422 11.8188C2.41798 11.6882 2.168 11.5638 1.91363 11.4556C1.85551 11.4311 1.73302 11.4556 1.70615 11.5038C1.50178 11.8725 1.31304 12.2532 1.11243 12.645C1.39304 12.8755 1.6574 13.1046 1.93238 13.3162C2.11612 13.458 2.17112 13.6368 2.1505 13.8777C2.1305 14.1103 2.11612 14.3498 2.14487 14.5789C2.18237 14.8758 2.10675 15.0804 1.88426 15.2459C1.62052 15.4429 1.37054 15.6636 1.1093 15.8787C1.33679 16.3152 1.55053 16.7266 1.76864 17.1449C2.09925 16.9829 2.40736 16.8383 2.71047 16.6798C2.89296 16.5841 3.04545 16.6044 3.21107 16.735C3.40106 16.8851 3.60105 17.029 3.81416 17.1282C4.05915 17.2427 4.15352 17.4292 4.17164 17.7086C4.19351 18.0529 4.23789 18.3958 4.27226 18.7408C4.72161 18.7408 5.14721 18.7408 5.58407 18.7408C5.62094 18.3623 5.65719 17.9984 5.69094 17.6345C5.71156 17.4089 5.79781 17.2539 5.99467 17.1533C6.22028 17.0388 6.43715 16.8956 6.64026 16.7378C6.80713 16.6078 6.95774 16.5841 7.14086 16.6784C7.44959 16.8376 7.76395 16.9843 8.08893 17.1428C8.3108 16.7126 8.52329 16.3012 8.7439 15.8745C8.45391 15.637 8.18705 15.4121 7.91457 15.1963C7.7352 15.0546 7.67771 14.8779 7.7052 14.632C7.73145 14.3925 7.73645 14.1431 7.7077 13.9043C7.67521 13.6361 7.74208 13.4538 7.94019 13.3022C8.2083 13.0983 8.46516 12.8727 8.74077 12.645Z" fill="black"/>
<path d="M11.5996 8.78763C11.6115 7.63174 11.9133 6.66233 12.5127 5.81025C12.5608 5.74181 12.6096 5.66917 12.6721 5.61958C12.8233 5.50015 12.982 5.50574 13.1233 5.64124C13.2683 5.78022 13.2564 5.99254 13.142 6.20835C12.9133 6.64068 12.6383 7.05973 12.4946 7.52767C11.8515 9.62085 12.9808 11.9145 14.8932 12.4676C16.8456 13.0319 18.818 11.6512 19.1755 9.44484C19.4154 7.96698 19.0161 6.70354 17.9849 5.7467C16.9375 4.77449 15.7419 4.60827 14.4676 5.13278C14.4313 5.14815 14.3963 5.1684 14.3601 5.18377C14.1295 5.28364 13.9276 5.20821 13.8476 4.9931C13.7657 4.7731 13.8526 4.57265 14.0895 4.45252C14.6751 4.15499 15.2932 4.0181 15.9325 4.05232C17.8424 4.1536 19.3936 5.59165 19.846 7.66247C20.4379 10.371 18.6667 13.1269 16.1825 13.363C13.922 13.5774 11.9727 11.8663 11.6377 9.36872C11.6096 9.15221 11.609 8.9329 11.5996 8.78763Z" fill="black"/>
<path d="M17.4455 8.72686C17.443 9.7717 16.7006 10.5875 15.7569 10.5819C14.8407 10.5763 14.107 9.73817 14.1113 8.70171C14.1157 7.67643 14.8638 6.85648 15.7906 6.86067C16.7168 6.86486 17.448 7.6897 17.4455 8.72686ZM16.7375 8.73524C16.7425 8.13669 16.3131 7.64779 15.7819 7.6471C15.2638 7.6464 14.8269 8.12552 14.8163 8.7059C14.8057 9.28839 15.2538 9.79614 15.7788 9.79684C16.2975 9.79754 16.7325 9.31633 16.7375 8.73524Z" fill="black"/>
<path d="M3.83665 14.3883C3.83977 14.4407 3.84477 14.493 3.84602 14.5447C3.85352 14.8066 3.74728 14.9652 3.54604 14.9917C3.3373 15.019 3.18356 14.8772 3.14356 14.6202C2.96919 13.4894 3.68041 12.3824 4.6591 12.2602C5.7653 12.1226 6.68525 12.9733 6.73899 14.1836C6.79587 15.4715 5.68717 16.5192 4.56536 16.2384C4.34475 16.1832 4.2285 16.0205 4.25163 15.7991C4.276 15.5693 4.43662 15.4492 4.67285 15.4541C4.87222 15.4583 5.08346 15.4771 5.27032 15.4157C5.82154 15.2327 6.1259 14.5957 5.99403 13.9643C5.86779 13.3595 5.31219 12.9502 4.7466 13.0452C4.18413 13.1402 3.80602 13.6982 3.83665 14.3883Z" fill="black"/>
</svg>
