<svg width="24" height="24" viewBox="0 0 24 24" fill="none" xmlns="http://www.w3.org/2000/svg">
<path d="M3.18243 16.7298C3.1911 16.6752 3.1971 16.6584 3.19577 16.6422C3.14977 15.9466 3.3651 15.9096 3.92575 15.9184C4.8504 15.9325 5.77505 15.9217 6.70036 15.9224C7.06369 15.9231 7.19369 16.0557 7.19569 16.4234C7.19635 16.6072 7.19569 16.7917 7.19569 17.0092C7.47301 16.9419 7.72634 16.8799 7.987 16.816C7.987 15.175 7.987 13.5448 7.987 11.8795C7.62034 11.8795 7.25702 11.8809 6.89436 11.8789C6.45837 11.8768 6.28504 11.6068 6.47637 11.2163C6.98236 10.1853 7.49501 9.15846 8.00034 8.12754C8.101 7.92284 8.24633 7.82049 8.47633 7.84002C8.57366 7.8481 8.67232 7.84136 8.77765 7.84136C8.77765 7.48717 8.79765 7.15184 8.77232 6.82054C8.74632 6.48521 8.53899 6.24145 8.30366 6.01385C6.47037 4.24358 6.99102 1.14274 9.29564 0.0848868C9.73563 -0.117122 9.99563 0.0458318 9.99629 0.526613C9.99696 1.34273 9.99963 2.15952 9.99363 2.97564C9.9923 3.1157 10.027 3.20862 10.1523 3.28134C10.3743 3.41063 10.5883 3.66516 10.8043 3.66381C11.0216 3.66247 11.2456 3.4241 11.4483 3.26586C11.5243 3.2066 11.5909 3.0827 11.5923 2.98708C11.6036 2.17097 11.6203 1.3535 11.5896 0.538734C11.5743 0.134716 11.8456 -0.13463 12.3142 0.0848868C14.5322 1.12456 15.1295 4.1015 13.4096 5.86773C12.8369 6.45625 12.7376 7.07777 12.8209 7.84136C13.2556 7.84136 13.6942 7.84136 14.1329 7.84136C14.3162 7.84136 14.5029 7.81914 14.6822 7.84608C15.0242 7.8986 15.2575 7.75585 15.4548 7.43532C15.2435 7.43532 15.0502 7.43734 14.8575 7.43465C14.5422 7.43061 14.4015 7.29055 14.4002 6.97205C14.3975 6.47578 14.3975 5.97884 14.4002 5.48257C14.4015 5.15127 14.5409 5.01593 14.8762 5.01324C15.0575 5.01189 15.2389 5.01324 15.4835 5.01324C15.3169 4.84085 15.1862 4.7082 15.0582 4.57353C14.8262 4.3291 14.8242 4.11497 15.0602 3.87323C15.3935 3.53184 15.7295 3.19246 16.0675 2.85578C16.3155 2.60865 16.5255 2.61135 16.7782 2.86453C16.9022 2.98843 17.0162 3.1231 17.1348 3.25239C17.1568 3.24566 17.1781 3.23892 17.2001 3.23152C17.2001 3.03691 17.1981 2.84164 17.2008 2.64704C17.2048 2.32786 17.3428 2.1878 17.6595 2.18578C18.1508 2.18309 18.6428 2.18309 19.1341 2.18578C19.4614 2.18713 19.5954 2.32853 19.5981 2.66724C19.5994 2.85039 19.5981 3.03355 19.5981 3.28C19.7694 3.11031 19.9001 2.97833 20.0334 2.84904C20.2747 2.61471 20.4867 2.61337 20.7267 2.85174C21.0654 3.18842 21.4007 3.5278 21.7341 3.86919C21.978 4.11968 21.9734 4.33112 21.7247 4.58767C21.6027 4.71359 21.4781 4.83749 21.3054 5.01256C21.5547 5.01256 21.7481 5.01054 21.9414 5.01324C22.2554 5.01728 22.3954 5.15801 22.3967 5.47786C22.3994 5.97413 22.3994 6.47107 22.3967 6.96734C22.3954 7.28718 22.2547 7.42994 21.9427 7.43398C21.7534 7.43667 21.5641 7.43465 21.3274 7.43465C21.5254 7.66831 21.6607 7.87705 21.9867 7.85483C22.1074 7.84675 22.2974 7.96728 22.356 8.08175C22.8994 9.14028 23.426 10.2082 23.9453 11.2796C24.1 11.5981 23.9127 11.8728 23.5567 11.8782C23.1827 11.8836 22.808 11.8795 22.416 11.8795C22.416 13.3434 22.416 14.7945 22.416 16.2651C22.4647 16.2806 22.5247 16.3049 22.5867 16.3183C23.2467 16.4665 23.7413 16.9675 23.846 17.5957C23.9653 18.3075 23.6853 18.9391 23.06 19.3074C21.5941 20.1707 20.1228 21.0245 18.6535 21.8823C17.9041 22.3194 17.1548 22.755 16.4055 23.1927C15.9415 23.4634 15.4468 23.6001 14.9069 23.5981C13.0156 23.592 11.1243 23.5846 9.23298 23.6021C8.59899 23.6082 8.01234 23.4849 7.46035 23.1772C7.38902 23.1375 7.31235 23.1065 7.19769 23.052C7.19769 23.2277 7.19902 23.3738 7.19769 23.52C7.19435 23.856 7.05902 23.9981 6.73036 23.9987C5.71372 24.0007 4.69707 24.0001 3.68109 23.9987C3.3351 23.9981 3.2031 23.8614 3.19977 23.5085C3.1991 23.4163 3.19977 23.324 3.19977 23.1907C3.10444 23.1907 3.0171 23.1907 2.93044 23.1907C2.12246 23.1907 1.31381 23.1914 0.505823 23.1907C0.127164 23.19 0.00049999 23.0614 0.00049999 22.6749C-0.000166663 20.8656 -0.000166663 19.0562 0.00049999 17.2469C0.00049999 16.859 0.125831 16.7298 0.503823 16.7291C1.30381 16.7284 2.10379 16.7291 2.90311 16.7291C2.99044 16.7298 3.08044 16.7298 3.18243 16.7298ZM7.19569 17.8556C7.19569 17.9708 7.19569 18.0623 7.19569 18.1546C7.19569 19.2313 7.23569 20.3107 7.17969 21.3847C7.14969 21.9564 7.30502 22.2709 7.84167 22.4688C8.23366 22.6136 8.60632 22.7907 9.03365 22.7907C10.9909 22.7894 12.9489 22.8028 14.9062 22.7786C15.2502 22.7745 15.6308 22.6836 15.9282 22.514C18.1721 21.2319 20.4007 19.9215 22.632 18.6152C23.0514 18.3694 23.1794 17.9081 22.9594 17.5122C22.7407 17.1176 22.252 16.9897 21.8307 17.2334C20.5534 17.9728 19.2781 18.7155 18.0081 19.467C17.9295 19.5134 17.8575 19.6421 17.8535 19.7363C17.8088 20.7551 16.8802 21.5032 15.8955 21.2514C14.2935 20.8413 12.7002 20.3969 11.1069 19.9538C10.9889 19.9208 10.8503 19.803 10.8096 19.6912C10.7696 19.5808 10.8063 19.4064 10.8729 19.3007C10.9856 19.1222 11.1769 19.1343 11.3683 19.1862C12.9076 19.605 14.4482 20.0212 15.9888 20.4353C16.5722 20.5922 17.0828 20.1976 17.0481 19.6232C17.0255 19.2407 16.7822 18.9882 16.3035 18.8583C14.3869 18.3384 12.4716 17.8119 10.5496 17.3115C10.245 17.2321 9.89696 17.2092 9.59097 17.2711C8.79432 17.4307 8.009 17.6523 7.19569 17.8556ZM15.6475 10.0715C15.6355 10.0736 15.6235 10.0749 15.6115 10.0769C15.6115 12.6606 15.6115 15.2443 15.6115 17.8186C16.3142 18.0644 17.1141 18.0529 17.5748 18.766C18.8941 17.997 20.1908 17.2435 21.4821 16.4806C21.5454 16.4429 21.5914 16.321 21.5921 16.2382C21.5987 14.8504 21.5974 13.4626 21.5961 12.0755C21.5961 12.0122 21.5841 11.9489 21.5767 11.8795C19.9994 11.8795 18.4421 11.8762 16.8855 11.8829C16.6462 11.8836 16.4975 11.7947 16.3935 11.5792C16.1515 11.0735 15.8968 10.5739 15.6475 10.0715ZM8.80232 16.583C8.84699 16.583 8.87232 16.587 8.89632 16.5823C8.95298 16.5708 9.00965 16.5567 9.06565 16.5405C9.66364 16.3682 10.2596 16.3641 10.8616 16.5358C11.6369 16.7574 12.4156 16.9641 13.1942 17.1749C13.7202 17.3176 14.2475 17.4556 14.7795 17.5971C14.7795 15.0719 14.7795 12.5731 14.7795 10.0082C14.5029 10.5624 14.2495 11.0533 14.0142 11.5523C13.9035 11.7866 13.7502 11.8863 13.4889 11.8849C12.0143 11.8762 10.5403 11.8809 9.06565 11.8809C8.97832 11.8809 8.89165 11.8809 8.80299 11.8809C8.80232 13.468 8.80232 15.0154 8.80232 16.583ZM10.3976 7.83598C10.3976 7.75517 10.3976 7.67571 10.3976 7.59626C10.3976 7.27641 10.3923 6.95656 10.3996 6.63739C10.4056 6.35727 10.6263 6.17142 10.8803 6.23337C11.0929 6.28522 11.1976 6.43269 11.1963 6.65624C11.1943 7.04747 11.1956 7.43936 11.1956 7.82857C11.4803 7.82857 11.7269 7.82857 11.9976 7.82857C11.9976 7.67572 12.0076 7.53431 11.9963 7.39425C11.9276 6.57611 12.2109 5.93036 12.7969 5.34588C13.9629 4.18298 13.8322 2.24975 12.5709 1.21546C12.5256 1.17843 12.4716 1.15217 12.3962 1.10571C12.3962 1.87132 12.3929 2.59519 12.3982 3.31771C12.3996 3.51231 12.3382 3.65708 12.1756 3.76482C11.7996 4.01329 11.4263 4.2658 11.0536 4.51966C10.8716 4.64356 10.7009 4.63211 10.5223 4.50821C10.1723 4.26648 9.82097 4.02474 9.46231 3.79647C9.26364 3.66988 9.18964 3.50625 9.19364 3.27192C9.20431 2.62414 9.19764 1.97637 9.19631 1.32859C9.19631 1.26058 9.18631 1.19257 9.17898 1.10099C9.11831 1.14139 9.08965 1.15756 9.06431 1.17843C7.73301 2.24504 7.62834 4.23281 8.85965 5.41725C9.36831 5.90679 9.63564 6.47376 9.59764 7.18618C9.5863 7.40031 9.59564 7.61579 9.59564 7.8353C9.8743 7.83598 10.115 7.83598 10.3976 7.83598ZM6.38637 16.7459C5.58039 16.7459 4.7944 16.7459 4.01575 16.7459C4.01575 18.9041 4.01575 21.0447 4.01575 23.1799C4.81573 23.1799 5.59572 23.1799 6.38637 23.1799C6.38637 21.0326 6.38637 18.8987 6.38637 16.7459ZM7.45901 11.0567C7.52435 11.0654 7.55568 11.0728 7.58701 11.0728C9.45164 11.0735 11.3163 11.0715 13.1809 11.0775C13.3302 11.0782 13.3822 11.0042 13.4362 10.893C13.7689 10.2163 14.1042 9.54161 14.4375 8.86555C14.4689 8.80225 14.4902 8.73424 14.5175 8.66421C14.4775 8.65546 14.4615 8.64873 14.4449 8.64873C12.5636 8.64805 10.6823 8.64536 8.80099 8.65411C8.72232 8.65479 8.61032 8.74232 8.57099 8.81909C8.301 9.3396 8.04633 9.86751 7.78701 10.3934C7.68034 10.6096 7.57368 10.8244 7.45901 11.0567ZM22.9274 11.0735C22.888 10.9779 22.8634 10.9085 22.8314 10.8432C22.5014 10.1746 22.1654 9.50929 21.8441 8.83727C21.7707 8.68374 21.6794 8.64334 21.5181 8.64401C19.7114 8.65007 17.9055 8.64738 16.0988 8.64805C16.0288 8.64805 15.9588 8.65681 15.8682 8.66219C15.9088 8.75377 15.9368 8.82245 15.9695 8.88844C16.2962 9.54969 16.6302 10.2069 16.9448 10.8728C17.0235 11.0398 17.1228 11.0769 17.2895 11.0762C19.0874 11.0715 20.8854 11.0728 22.6834 11.0728C22.7554 11.0735 22.828 11.0735 22.9274 11.0735ZM3.1871 17.5492C2.37845 17.5492 1.59913 17.5492 0.81115 17.5492C0.81115 19.164 0.81115 20.7652 0.81115 22.3685C1.6118 22.3685 2.39778 22.3685 3.1871 22.3685C3.1871 20.7551 3.1871 19.1599 3.1871 17.5492ZM18.0675 7.82924C17.1381 7.4865 16.6735 6.77677 16.8088 5.96739C16.9342 5.21659 17.5781 4.63076 18.3021 4.60989C19.1421 4.58565 19.8088 5.11155 19.9754 5.93036C20.1388 6.73301 19.6974 7.42859 18.7621 7.82588C19.3494 7.82588 19.9228 7.82588 20.5334 7.82588C20.4467 7.73497 20.3901 7.66494 20.3234 7.60568C20.1088 7.41512 20.1394 7.20773 20.2421 6.96801C20.3401 6.73907 20.4761 6.61651 20.7314 6.62661C21.0121 6.63739 21.2927 6.62931 21.5814 6.62931C21.5814 6.34852 21.5814 6.09331 21.5814 5.81925C21.2934 5.81925 21.0194 5.8105 20.7467 5.82195C20.4961 5.83272 20.3474 5.727 20.2468 5.49469C20.1394 5.24824 20.1074 5.03411 20.3294 4.83479C20.5387 4.64625 20.7401 4.44761 20.9234 4.27388C20.7161 4.05302 20.5414 3.8665 20.3607 3.67392C20.1568 3.87996 19.9514 4.07726 19.7581 4.28533C19.5614 4.49609 19.3568 4.45906 19.1234 4.35536C18.9081 4.25974 18.7874 4.12776 18.7948 3.87996C18.8041 3.58907 18.7968 3.29818 18.7968 3.00998C18.5115 3.00998 18.2581 3.00998 17.9948 3.00998C17.9948 3.29751 17.9848 3.56618 17.9975 3.83418C18.0101 4.09679 17.9041 4.25031 17.6641 4.35873C17.4021 4.47656 17.1901 4.47589 16.9942 4.2456C16.8175 4.03888 16.6302 3.84158 16.4535 3.64698C16.2275 3.86784 16.0495 4.04225 15.8448 4.24156C16.0568 4.44626 16.2562 4.64693 16.4655 4.83816C16.6868 5.04017 16.6502 5.25565 16.5422 5.4994C16.4455 5.71757 16.3068 5.83003 16.0642 5.82127C15.7768 5.81117 15.4895 5.81925 15.2089 5.81925C15.2089 6.10947 15.2089 6.35862 15.2089 6.62931C15.5122 6.62931 15.8028 6.61315 16.0908 6.63672C16.2182 6.64749 16.3975 6.70472 16.4515 6.80034C16.6895 7.2185 16.7415 7.36125 16.3942 7.68178C16.3542 7.71881 16.3208 7.76191 16.2608 7.82857C16.8708 7.82924 17.4421 7.82924 18.0675 7.82924ZM18.3941 5.41725C17.9681 5.41793 17.5961 5.79568 17.5981 6.22664C17.5995 6.65894 17.9701 7.03063 18.3988 7.03131C18.8234 7.03198 19.1988 6.65018 19.1954 6.22192C19.1921 5.78895 18.8221 5.41725 18.3941 5.41725Z" fill="black"/>
</svg>
