<svg width="28" height="28" viewBox="0 0 28 28" fill="none" xmlns="http://www.w3.org/2000/svg">
<path d="M15.5312 1.75H5.90625C5.26807 1.75 4.65603 2.00812 4.20477 2.46759C3.75351 2.92705 3.5 3.55022 3.5 4.2V23.8C3.5 24.4498 3.75351 25.0729 4.20477 25.5324C4.65603 25.9919 5.26807 26.25 5.90625 26.25H20.3437C20.9819 26.25 21.594 25.9919 22.0452 25.5324C22.4965 25.0729 22.75 24.4498 22.75 23.8V9.1L15.5312 1.75Z" stroke="#434E4E" stroke-linecap="round" stroke-linejoin="round"/>
<path d="M15.5312 1.75V9.1H22.75" stroke="#434E4E" stroke-linecap="round" stroke-linejoin="round"/>
<path d="M18.9 15.2249H8.6333" stroke="#434E4E" stroke-linecap="round" stroke-linejoin="round"/>
<path d="M18.9 20.125H8.6333" stroke="#434E4E" stroke-linecap="round" stroke-linejoin="round"/>
<path d="M11.2 10.3248H9.91663H8.6333" stroke="#434E4E" stroke-linecap="round" stroke-linejoin="round"/>
</svg>
