<svg width="12" height="12" viewBox="0 0 12 12" fill="none" xmlns="http://www.w3.org/2000/svg">
<path d="M2.64583 0.75C2.14303 0.75 1.66081 0.949739 1.30528 1.30528C0.949739 1.66081 0.75 2.14303 0.75 2.64583V9.35417C0.75 9.85697 0.949739 10.3392 1.30528 10.6947C1.66081 11.0503 2.14303 11.25 2.64583 11.25H9.35417C9.85697 11.25 10.3392 11.0503 10.6947 10.6947C11.0503 10.3392 11.25 9.85697 11.25 9.35417V2.64583C11.25 2.14303 11.0503 1.66081 10.6947 1.30528C10.3392 0.949739 9.85697 0.75 9.35417 0.75H2.64583ZM9.08 4.41333L5.14017 8.34908C5.05814 8.43101 4.94694 8.47703 4.831 8.47703C4.71506 8.47703 4.60386 8.43101 4.52183 8.34908L2.92 6.74667C2.84272 6.66373 2.80065 6.55404 2.80265 6.4407C2.80465 6.32735 2.85056 6.21921 2.93072 6.13905C3.01088 6.0589 3.11902 6.01298 3.23236 6.01098C3.3457 6.00898 3.4554 6.05105 3.53833 6.12833L4.83158 7.421L8.46167 3.79442C8.50234 3.75382 8.55062 3.72163 8.60374 3.69968C8.65685 3.67774 8.71377 3.66647 8.77125 3.66653C8.82872 3.66658 8.88562 3.67795 8.93869 3.7C8.99177 3.72204 9.03998 3.75432 9.08058 3.795C9.12118 3.83568 9.15337 3.88395 9.17532 3.93707C9.19726 3.99019 9.20853 4.04711 9.20847 4.10458C9.20842 4.16205 9.19705 4.21895 9.175 4.27203C9.15296 4.3251 9.12068 4.37332 9.08 4.41392" fill="#19A3A3"/>
</svg>
