<svg width="24" height="24" viewBox="0 0 24 24" fill="none" xmlns="http://www.w3.org/2000/svg">
<g clip-path="url(#clip0_1586_2304)">
<path d="M19.1096 1.7832H8.09961V6.34894H21.461V4.13373C21.461 2.83752 20.4061 1.7832 19.1096 1.7832Z" fill="#CED9F9"/>
<path d="M12.8773 7.05157H0V2.81506C0 1.2627 1.26324 0 2.81616 0H6.93347C7.34271 0 7.73694 0.0862427 8.09509 0.248291C8.59534 0.473694 9.02509 0.845215 9.32648 1.33063L12.8773 7.05157Z" fill="#1640C1"/>
<path d="M24 8V21.6465C24 22.9443 22.9435 23.9999 21.6451 23.9999H2.35492C1.05652 23.9999 0 22.9443 0 21.6465V5.646H21.6451C22.9435 5.646 24 6.70197 24 8Z" fill="#2354E6"/>
<path d="M24 8V21.6465C24 22.9443 22.9435 23.9999 21.6451 23.9999H12V5.646H21.6451C22.9435 5.646 24 6.70197 24 8Z" fill="#1849D6"/>
<path d="M18.3127 14.8228C18.3127 18.3041 15.4807 21.1364 11.9996 21.1364C8.51862 21.1364 5.68652 18.3041 5.68652 14.8228C5.68652 11.3419 8.51862 8.50964 11.9996 8.50964C15.4807 8.50964 18.3127 11.3419 18.3127 14.8228Z" fill="#E7ECFC"/>
<path d="M18.3131 14.8228C18.3131 18.3041 15.481 21.1364 12 21.1364V8.50964C15.481 8.50964 18.3131 11.3419 18.3131 14.8228Z" fill="#CED9F9"/>
<path d="M14.0344 14.9002C13.9028 15.0117 13.7415 15.0661 13.5816 15.0661C13.3815 15.0661 13.1826 14.9813 13.0435 14.8162L12.7027 14.4122V17.0568C12.7027 17.445 12.3878 17.7599 11.9996 17.7599C11.6114 17.7599 11.2964 17.445 11.2964 17.0568V14.4122L10.9557 14.8162C10.7048 15.113 10.2615 15.1509 9.96472 14.9002C9.66809 14.6499 9.63 14.2064 9.88031 13.9096L11.2721 12.2596C11.4535 12.045 11.7183 11.9216 11.9996 11.9216C12.2808 11.9216 12.5456 12.045 12.727 12.2596L14.1188 13.9096C14.3691 14.2064 14.3311 14.6499 14.0344 14.9002Z" fill="#6C8DEF"/>
<path d="M14.0349 14.9002C13.9032 15.0117 13.7419 15.0661 13.582 15.0661C13.3819 15.0661 13.183 14.9813 13.0439 14.8162L12.7031 14.4122V17.0568C12.7031 17.445 12.3882 17.7599 12 17.7599V11.9216C12.2813 11.9216 12.546 12.045 12.7275 12.2596L14.1193 13.9096C14.3696 14.2064 14.3315 14.6499 14.0349 14.9002Z" fill="#3B67E9"/>
</g>
<defs>
<clipPath id="clip0_1586_2304">
<rect width="24" height="24" fill="white"/>
</clipPath>
</defs>
</svg>
