<svg width="62" height="62" viewBox="0 0 62 62" fill="none" xmlns="http://www.w3.org/2000/svg">
<path d="M30.905 61.81C47.9734 61.81 61.81 47.9734 61.81 30.905C61.81 13.8366 47.9734 0 30.905 0C13.8366 0 0 13.8366 0 30.905C0 47.9734 13.8366 61.81 30.905 61.81Z" fill="url(#paint0_linear_2437_2663)"/>
<path d="M28.6032 36.66L39.2632 26L38.0832 24.82L28.6032 34.3017L23.8532 29.5517L22.6732 30.73L28.6032 36.66ZM20.3582 44.3334C19.6137 44.3334 18.9787 44.0712 18.4532 43.5467C17.9287 43.0223 17.6665 42.3873 17.6665 41.6417V20.3584C17.6665 19.6139 17.9287 18.9789 18.4532 18.4534C18.9776 17.9289 19.6126 17.6667 20.3582 17.6667H28.1915C28.0404 16.8167 28.2443 16.0484 28.8032 15.3617C29.3621 14.675 30.0943 14.3323 30.9998 14.3334C31.9276 14.3334 32.6709 14.6762 33.2298 15.3617C33.7887 16.0473 33.9815 16.8156 33.8082 17.6667H41.6415C42.386 17.6667 43.0209 17.9289 43.5465 18.4534C44.0709 18.9778 44.3332 19.6128 44.3332 20.3584V41.6417C44.3332 42.3862 44.0709 43.0212 43.5465 43.5467C43.0221 44.0712 42.3871 44.3334 41.6415 44.3334H20.3582ZM20.3582 42.6667H41.6415C41.8971 42.6667 42.1321 42.56 42.3465 42.3467C42.561 42.1334 42.6676 41.8984 42.6665 41.6417V20.3584C42.6665 20.1028 42.5598 19.8678 42.3465 19.6534C42.1332 19.4389 41.8982 19.3323 41.6415 19.3334H20.3582C20.1026 19.3334 19.8676 19.44 19.6532 19.6534C19.4387 19.8667 19.3321 20.1017 19.3332 20.3584V41.6417C19.3332 41.8973 19.4398 42.1323 19.6532 42.3467C19.8665 42.5612 20.1015 42.6678 20.3582 42.6667ZM30.9998 18.4034C31.3609 18.4034 31.6598 18.2856 31.8965 18.05C32.1332 17.8145 32.2509 17.5156 32.2498 17.1534C32.2487 16.7912 32.1304 16.4928 31.8948 16.2584C31.6593 16.0239 31.3609 15.9056 30.9998 15.9034C30.6387 15.9012 30.3404 16.0195 30.1048 16.2584C29.8693 16.4973 29.7509 16.7956 29.7498 17.1534C29.7487 17.5112 29.8671 17.81 30.1048 18.05C30.3426 18.29 30.6409 18.4078 30.9998 18.4034Z" fill="white"/>
<defs>
<linearGradient id="paint0_linear_2437_2663" x1="30.905" y1="0" x2="30.905" y2="61.81" gradientUnits="userSpaceOnUse">
<stop stop-color="#4DB8D1"/>
<stop offset="0.0001" stop-color="#4BB3CF"/>
<stop offset="0.396377" stop-color="#4BB3CF"/>
<stop offset="1" stop-color="#203D98"/>
</linearGradient>
</defs>
</svg>
