<svg width="61" height="17" viewBox="0 0 61 17" fill="none" xmlns="http://www.w3.org/2000/svg">
<path d="M0.576 2.4V0.335999H4.432V12H2.128V2.4H0.576ZM6.72487 6.016C6.72487 4.17067 7.05554 2.72533 7.71687 1.68C8.38887 0.634666 9.49821 0.112 11.0449 0.112C12.5915 0.112 13.6955 0.634666 14.3569 1.68C15.0289 2.72533 15.3649 4.17067 15.3649 6.016C15.3649 7.872 15.0289 9.328 14.3569 10.384C13.6955 11.44 12.5915 11.968 11.0449 11.968C9.49821 11.968 8.38887 11.44 7.71687 10.384C7.05554 9.328 6.72487 7.872 6.72487 6.016ZM13.1569 6.016C13.1569 5.22667 13.1035 4.56533 12.9969 4.032C12.9009 3.488 12.6982 3.04533 12.3889 2.704C12.0902 2.36267 11.6422 2.192 11.0449 2.192C10.4475 2.192 9.99421 2.36267 9.68488 2.704C9.38621 3.04533 9.18354 3.488 9.07687 4.032C8.98088 4.56533 8.93288 5.22667 8.93288 6.016C8.93288 6.82667 8.98088 7.50933 9.07687 8.064C9.17288 8.608 9.37554 9.05067 9.68488 9.392C9.99421 9.72267 10.4475 9.888 11.0449 9.888C11.6422 9.888 12.0955 9.72267 12.4049 9.392C12.7142 9.05067 12.9169 8.608 13.0129 8.064C13.1089 7.50933 13.1569 6.82667 13.1569 6.016ZM25.2011 0.832C26.3745 0.832 27.4038 1.06133 28.2891 1.52C29.1851 1.97867 29.8731 2.63467 30.3531 3.488C30.8438 4.33067 31.0891 5.312 31.0891 6.432C31.0891 7.552 30.8438 8.53333 30.3531 9.376C29.8731 10.208 29.1851 10.8533 28.2891 11.312C27.4038 11.7707 26.3745 12 25.2011 12H21.2971V0.832H25.2011ZM25.1211 10.096C26.2945 10.096 27.2011 9.776 27.8411 9.136C28.4811 8.496 28.8011 7.59467 28.8011 6.432C28.8011 5.26933 28.4811 4.36267 27.8411 3.712C27.2011 3.05067 26.2945 2.72 25.1211 2.72H23.5371V10.096H25.1211ZM32.2699 7.536C32.2699 6.64 32.4459 5.84533 32.7979 5.152C33.1605 4.45867 33.6459 3.92533 34.2539 3.552C34.8725 3.17867 35.5605 2.992 36.3179 2.992C36.9792 2.992 37.5552 3.12533 38.0459 3.392C38.5472 3.65867 38.9472 3.99467 39.2459 4.4V3.136H41.5019V12H39.2459V10.704C38.9579 11.12 38.5579 11.4667 38.0459 11.744C37.5445 12.0107 36.9632 12.144 36.3019 12.144C35.5552 12.144 34.8725 11.952 34.2539 11.568C33.6459 11.184 33.1605 10.6453 32.7979 9.952C32.4459 9.248 32.2699 8.44267 32.2699 7.536ZM39.2459 7.568C39.2459 7.024 39.1392 6.56 38.9259 6.176C38.7125 5.78133 38.4245 5.48267 38.0619 5.28C37.6992 5.06667 37.3099 4.96 36.8939 4.96C36.4779 4.96 36.0939 5.06133 35.7419 5.264C35.3899 5.46667 35.1019 5.76533 34.8779 6.16C34.6645 6.544 34.5579 7.00267 34.5579 7.536C34.5579 8.06933 34.6645 8.53867 34.8779 8.944C35.1019 9.33867 35.3899 9.64267 35.7419 9.856C36.1045 10.0693 36.4885 10.176 36.8939 10.176C37.3099 10.176 37.6992 10.0747 38.0619 9.872C38.4245 9.65867 38.7125 9.36 38.9259 8.976C39.1392 8.58133 39.2459 8.112 39.2459 7.568ZM52.2496 3.136L46.7616 16.192H44.3776L46.2976 11.776L42.7456 3.136H45.2576L47.5456 9.328L49.8656 3.136H52.2496ZM56.9291 12.144C56.2038 12.144 55.5531 12.016 54.9771 11.76C54.4011 11.4933 53.9425 11.136 53.6011 10.688C53.2705 10.24 53.0891 9.744 53.0571 9.2H55.3131C55.3558 9.54133 55.5211 9.824 55.8091 10.048C56.1078 10.272 56.4758 10.384 56.9131 10.384C57.3398 10.384 57.6705 10.2987 57.9051 10.128C58.1505 9.95733 58.2731 9.73867 58.2731 9.472C58.2731 9.184 58.1238 8.97067 57.8251 8.832C57.5371 8.68267 57.0731 8.52267 56.4331 8.352C55.7718 8.192 55.2278 8.02667 54.8011 7.856C54.3851 7.68533 54.0225 7.424 53.7131 7.072C53.4145 6.72 53.2651 6.24533 53.2651 5.648C53.2651 5.15733 53.4038 4.70933 53.6811 4.304C53.9691 3.89867 54.3745 3.57867 54.8971 3.344C55.4305 3.10933 56.0545 2.992 56.7691 2.992C57.8251 2.992 58.6678 3.25867 59.2971 3.792C59.9265 4.31467 60.2731 5.024 60.3371 5.92H58.1931C58.1611 5.568 58.0118 5.29067 57.7451 5.088C57.4891 4.87467 57.1425 4.768 56.7051 4.768C56.2998 4.768 55.9851 4.84267 55.7611 4.992C55.5478 5.14133 55.4411 5.34933 55.4411 5.616C55.4411 5.91467 55.5905 6.144 55.8891 6.304C56.1878 6.45333 56.6518 6.608 57.2811 6.768C57.9211 6.928 58.4491 7.09333 58.8651 7.264C59.2811 7.43467 59.6385 7.70133 59.9371 8.064C60.2465 8.416 60.4065 8.88533 60.4171 9.472C60.4171 9.984 60.2731 10.4427 59.9851 10.848C59.7078 11.2533 59.3025 11.5733 58.7691 11.808C58.2465 12.032 57.6331 12.144 56.9291 12.144Z" fill="url(#paint0_linear_1993_3228)"/>
<defs>
<linearGradient id="paint0_linear_1993_3228" x1="0" y1="12" x2="68" y2="12" gradientUnits="userSpaceOnUse">
<stop stop-color="#22429A"/>
<stop offset="1" stop-color="#47A8CA"/>
</linearGradient>
</defs>
</svg>
